<?xml version="1.0" encoding="UTF-8"?>
<svg width="1440px" height="245px" viewBox="0 0 1440 245" version="1.1" xmlns="http://www.w3.org/2000/svg" xmlns:xlink="http://www.w3.org/1999/xlink">
    <!-- Generator: Sketch 42 (36781) - http://www.bohemiancoding.com/sketch -->
    <title>Banner 3</title>
    <desc>Created with Sketch.</desc>
    <defs>
        <text id="text-1" font-family="Bevan-Regular, Bevan" font-size="27" font-weight="normal" fill="#F9F0E4">
            <tspan x="568.804" y="170.453846">SUKKERINNHOLD I </tspan>
            <tspan x="529.519" y="213.453846">HVERDAGSPRODUKTER</tspan>
        </text>
        <filter x="-50%" y="-50%" width="200%" height="200%" filterUnits="objectBoundingBox" id="filter-2">
            <feOffset dx="-2" dy="2" in="SourceAlpha" result="shadowOffsetOuter1"></feOffset>
            <feColorMatrix values="0 0 0 0 0   0 0 0 0 0   0 0 0 0 0  0 0 0 0.5 0" type="matrix" in="shadowOffsetOuter1"></feColorMatrix>
        </filter>
        <polygon id="path-3" points="1103 83 1440 83 1440 183 1103 183 1083 133"></polygon>
        <filter x="-50%" y="-50%" width="200%" height="200%" filterUnits="objectBoundingBox" id="filter-4">
            <feOffset dx="0" dy="2" in="SourceAlpha" result="shadowOffsetOuter1"></feOffset>
            <feGaussianBlur stdDeviation="2" in="shadowOffsetOuter1" result="shadowBlurOuter1"></feGaussianBlur>
            <feColorMatrix values="0 0 0 0 0   0 0 0 0 0   0 0 0 0 0  0 0 0 0.5 0" type="matrix" in="shadowBlurOuter1"></feColorMatrix>
        </filter>
        <polygon id="path-5" points="20 83 357 83 357 183 20 183 0 133"></polygon>
        <filter x="-50%" y="-50%" width="200%" height="200%" filterUnits="objectBoundingBox" id="filter-6">
            <feOffset dx="0" dy="2" in="SourceAlpha" result="shadowOffsetOuter1"></feOffset>
            <feGaussianBlur stdDeviation="2" in="shadowOffsetOuter1" result="shadowBlurOuter1"></feGaussianBlur>
            <feColorMatrix values="0 0 0 0 0   0 0 0 0 0   0 0 0 0 0  0 0 0 0.5 0" type="matrix" in="shadowBlurOuter1"></feColorMatrix>
        </filter>
        <polygon id="path-7" points="17.9881657 27 7.41498718 32.5623059 9.43428459 20.7811529 0.880403494 12.4376941 12.7015764 10.7188471 17.9881657 0 23.2747549 10.7188471 35.0959279 12.4376941 26.5420468 20.7811529 28.5613442 32.5623059"></polygon>
        <filter x="-50%" y="-50%" width="200%" height="200%" filterUnits="objectBoundingBox" id="filter-8">
            <feOffset dx="0" dy="2" in="SourceAlpha" result="shadowOffsetOuter1"></feOffset>
            <feColorMatrix values="0 0 0 0 0   0 0 0 0 0   0 0 0 0 0  0 0 0 0.5 0" type="matrix" in="shadowOffsetOuter1"></feColorMatrix>
        </filter>
        <polygon id="path-9" points="488.988166 27 478.414987 32.5623059 480.434285 20.7811529 471.880403 12.4376941 483.701576 10.7188471 488.988166 0 494.274755 10.7188471 506.095928 12.4376941 497.542047 20.7811529 499.561344 32.5623059"></polygon>
        <filter x="-50%" y="-50%" width="200%" height="200%" filterUnits="objectBoundingBox" id="filter-10">
            <feOffset dx="0" dy="2" in="SourceAlpha" result="shadowOffsetOuter1"></feOffset>
            <feColorMatrix values="0 0 0 0 0   0 0 0 0 0   0 0 0 0 0  0 0 0 0.5 0" type="matrix" in="shadowOffsetOuter1"></feColorMatrix>
        </filter>
    </defs>
    <g id="Page-1" stroke="none" stroke-width="1" fill="none" fill-rule="evenodd">
        <g id="PINK" transform="translate(0.000000, -5933.000000)">
            <g id="Banner-3" transform="translate(0.000000, 5933.000000)">
                <ellipse id="Oval-2" fill="#D45353" cx="720.5" cy="77.5" rx="77.5" ry="77.5"></ellipse>
                <ellipse id="Oval-2-Copy-10" stroke="#FFF6EB" stroke-dasharray="5,10" cx="721" cy="77.5" rx="70" ry="69.5"></ellipse>
                <polygon id="Shape" fill="#B74343" fill-rule="nonzero" points="503.5 83 355 83 378.375 132.777692 355 182.555385 503.5 182.555385"></polygon>
                <polygon id="Shape" fill="#842828" fill-rule="nonzero" points="416.25 116.477692 503.5 83 503.625 151.083846"></polygon>
                <polygon id="Shape" fill="#B74343" fill-rule="nonzero" points="936 83 1084.625 83 1061.25 132.777692 1084.625 182.555385 936 182.555385"></polygon>
                <polygon id="Shape" fill="#842828" fill-rule="nonzero" points="1023.375 116.477692 936 83 935.875 151.083846"></polygon>
                <rect id="Rectangle-path" fill="#D45353" fill-rule="nonzero" x="416.375" y="116.603077" width="607.125" height="128.393846"></rect>
                <polygon id="Shape" fill="#FFF6EB" fill-rule="nonzero" points="686 48.0037801 720.898571 61.1790378 753.854286 47.6134021 718.955714 37.0487973"></polygon>
                <polygon id="Shape" fill="#D4C9BB" fill-rule="nonzero" points="720.898571 107.975601 720.898571 61.1790378 753.854286 47.6134021 751.522857 90.5061856"></polygon>
                <polygon id="Shape" fill="#EBE0D2" fill-rule="nonzero" points="686 48.0037801 720.898571 61.1790378 720.898571 107.975601 687.165714 89.9694158"></polygon>
                <g id="SUKKERINNHOLD-I-HVER" fill-opacity="1" fill="#F9F0E4">
                    <use filter="url(#filter-2)" xlink:href="#text-1"></use>
                    <use xlink:href="#text-1"></use>
                </g>
                <g id="Rectangle-Copy-2">
                    <use fill="black" fill-opacity="1" filter="url(#filter-4)" xlink:href="#path-3"></use>
                    <use fill="#B74343" fill-rule="evenodd" xlink:href="#path-3"></use>
                </g>
                <g id="Rectangle-Copy-3" transform="translate(178.500000, 133.000000) scale(-1, 1) translate(-178.500000, -133.000000) ">
                    <use fill="black" fill-opacity="1" filter="url(#filter-6)" xlink:href="#path-5"></use>
                    <use fill="#B74343" fill-rule="evenodd" xlink:href="#path-5"></use>
                </g>
                <g id="Group-29-Copy-2" transform="translate(466.000000, 166.000000)">
                    <g id="Star">
                        <use fill="black" fill-opacity="1" filter="url(#filter-8)" xlink:href="#path-7"></use>
                        <use fill="#FFF6EB" fill-rule="evenodd" xlink:href="#path-7"></use>
                    </g>
                    <g id="Star-Copy">
                        <use fill="black" fill-opacity="1" filter="url(#filter-10)" xlink:href="#path-9"></use>
                        <use fill="#FFF6EB" fill-rule="evenodd" xlink:href="#path-9"></use>
                    </g>
                </g>
                <g id="Sew-Copy" transform="translate(0.000000, 92.000000)" stroke="#FFF6EB" stroke-linecap="square" stroke-dasharray="5,10">
                    <path d="M425.5,36.5 L663.709991,36.5" id="Line"></path>
                    <path d="M776.5,36.5 L1014.70999,36.5" id="Line-Copy-29" transform="translate(895.500000, 36.500000) scale(-1, 1) translate(-895.500000, -36.500000) "></path>
                    <path d="M1105.52866,1.5 L1436.73068,1.5" id="Line-Copy-21"></path>
                    <path d="M965.528662,1.5 L1077.14693,1.5" id="Line-Copy-25"></path>
                    <path d="M364.5,1.5 L473.14693,1.5" id="Line-Copy-27" transform="translate(419.000000, 1.500000) scale(-1, -1) translate(-419.000000, -1.500000) "></path>
                    <path d="M1025.49032,80.5 L1077.14693,80.5" id="Line-Copy-26"></path>
                    <path d="M367.5,80.5 L414.14693,80.5" id="Line-Copy-28" transform="translate(391.000000, 80.500000) scale(-1, -1) translate(-391.000000, -80.500000) "></path>
                    <path d="M0.52866242,1.5 L331.730678,1.5" id="Line-Copy-23"></path>
                    <path d="M1105.52866,80.5 L1436.73068,80.5" id="Line-Copy-22"></path>
                    <path d="M0.52866242,80.5 L331.730678,80.5" id="Line-Copy-24"></path>
                    <path d="M425.5,143.5 L1014.74528,143.5" id="Line-Copy-20"></path>
                </g>
            </g>
        </g>
    </g>
</svg>