<?xml version="1.0" encoding="UTF-8"?>
<svg width="215px" height="215px" viewBox="0 0 215 215" version="1.1" xmlns="http://www.w3.org/2000/svg" xmlns:xlink="http://www.w3.org/1999/xlink">
    <!-- Generator: Sketch 42 (36781) - http://www.bohemiancoding.com/sketch -->
    <title>Sticker</title>
    <desc>Created with Sketch.</desc>
    <defs>
        <text id="text-1" font-family="Lobster-Regular, Lobster" font-size="18" font-weight="normal" line-spacing="30" fill="#FFF6EB">
            <tspan x="38.4868164" y="102">For ca 200 책r siden </tspan>
            <tspan x="35.1601563" y="132">s책 fikk vi bare i oss 2 </tspan>
            <tspan x="48.7744141" y="162">kg sukker i 책ret!</tspan>
        </text>
        <filter x="-50%" y="-50%" width="200%" height="200%" filterUnits="objectBoundingBox" id="filter-2">
            <feOffset dx="-1" dy="1" in="SourceAlpha" result="shadowOffsetOuter1"></feOffset>
            <feColorMatrix values="0 0 0 0 0.235809949   0 0 0 0 0.110250582   0 0 0 0 0.0913037811  0 0 0 0.679913949 0" type="matrix" in="shadowOffsetOuter1"></feColorMatrix>
        </filter>
        <text id="text-3" font-family="Bevan-Regular, Bevan" font-size="60" font-weight="normal" fill="#FFF6EB">
            <tspan x="91.05" y="73">?</tspan>
        </text>
        <filter x="-50%" y="-50%" width="200%" height="200%" filterUnits="objectBoundingBox" id="filter-4">
            <feOffset dx="-1" dy="1" in="SourceAlpha" result="shadowOffsetOuter1"></feOffset>
            <feColorMatrix values="0 0 0 0 0.235809949   0 0 0 0 0.110250582   0 0 0 0 0.0913037811  0 0 0 0.679913949 0" type="matrix" in="shadowOffsetOuter1"></feColorMatrix>
        </filter>
    </defs>
    <g id="Page-1" stroke="none" stroke-width="1" fill="none" fill-rule="evenodd">
        <g id="PINK" transform="translate(-1136.000000, -3343.000000)">
            <g id="Sticker" transform="translate(1139.000000, 3346.000000)">
                <polygon id="Shape" stroke="#FFF6EB" stroke-width="4" fill="#43AB7C" fill-rule="nonzero" points="104.671875 2.46741365 111.234375 0 117.46875 3.28988487 124.359375 1.64494243 130.101563 5.59280428 137.15625 4.9348273 142.40625 9.54066612 149.296875 9.70516036 153.890625 15.1334704 160.78125 16.1204359 164.71875 22.0422286 171.445313 23.8516653 174.5625 30.1024465 181.125 32.8988487 183.421875 39.4786184 189.492188 43.0974918 190.96875 50.00625 196.546875 54.2831003 197.203125 61.1918586 202.125 66.1266859 201.796875 73.1999383 206.226563 78.6282484 205.078125 85.7015008 208.6875 91.6232936 206.71875 98.3675576 209.507813 104.782833 206.71875 111.198109 208.6875 117.942373 205.078125 124.02866 206.226563 130.937418 201.796875 136.365728 202.125 143.43898 197.203125 148.373808 196.546875 155.44706 190.96875 159.72391 189.492188 166.468174 183.421875 170.087048 181.125 176.666817 174.5625 179.46322 171.445313 185.714001 164.71875 187.687932 160.78125 193.44523 153.890625 194.59669 149.296875 199.860506 142.40625 200.025 137.15625 204.630839 130.101563 203.972862 124.359375 207.920724 117.46875 206.440275 111.234375 209.565666 104.671875 207.262747 98.109375 209.565666 91.875 206.440275 85.1484375 207.920724 79.40625 203.972862 72.3515625 204.630839 67.1015625 200.025 60.2109375 199.860506 55.6171875 194.59669 48.5625 193.44523 44.7890625 187.687932 37.8984375 185.714001 34.78125 179.46322 28.3828125 176.666817 26.0859375 170.087048 20.015625 166.468174 18.5390625 159.72391 12.9609375 155.44706 12.3046875 148.373808 7.3828125 143.43898 7.546875 136.365728 3.28125 130.937418 4.4296875 124.02866 0.8203125 117.942373 2.7890625 111.198109 0 104.782833 2.7890625 98.3675576 0.8203125 91.6232936 4.4296875 85.7015008 3.28125 78.6282484 7.546875 73.1999383 7.3828125 66.1266859 12.3046875 61.1918586 12.9609375 54.2831003 18.5390625 50.00625 20.015625 43.0974918 26.0859375 39.4786184 28.3828125 32.8988487 34.78125 30.1024465 37.8984375 23.8516653 44.7890625 22.0422286 48.5625 16.1204359 55.6171875 15.1334704 60.2109375 9.70516036 67.1015625 9.54066612 72.3515625 4.9348273 79.40625 5.59280428 85.1484375 1.64494243 91.875 3.28988487 98.109375 0"></polygon>
                <g id="For-ca-200-책r-siden" fill-opacity="1" fill="#FFF6EB">
                    <use filter="url(#filter-2)" xlink:href="#text-1"></use>
                    <use xlink:href="#text-1"></use>
                </g>
                <g id="?" fill-opacity="1" fill="#FFF6EB">
                    <use filter="url(#filter-4)" xlink:href="#text-3"></use>
                    <use xlink:href="#text-3"></use>
                </g>
            </g>
        </g>
    </g>
</svg>