<?xml version="1.0" encoding="UTF-8"?>
<svg width="158px" height="158px" viewBox="0 0 158 158" version="1.1" xmlns="http://www.w3.org/2000/svg" xmlns:xlink="http://www.w3.org/1999/xlink">
    <!-- Generator: Sketch 42 (36781) - http://www.bohemiancoding.com/sketch -->
    <title>9_2</title>
    <desc>Created with Sketch.</desc>
    <defs>
        <polygon id="path-1" points="74.9412686 1.76243832 79.6397807 0 84.1033673 2.34991776 89.036805 1.17495888 93.1480031 3.9948602 98.1989037 3.52487664 101.957713 6.81476151 106.891151 6.9322574 110.18011 10.8096217 115.113547 11.514597 117.932655 15.744449 122.74863 17.0369038 124.980423 21.5017475 129.678935 23.4991776 131.323414 28.1990132 135.669538 30.7839227 136.726703 35.71875 140.720439 38.7736431 141.19029 43.7084704 144.714174 47.233347 144.479248 52.2856702 147.650744 56.1630345 146.828504 61.2153577 149.412686 65.4452097 148.003132 70.2625411 150 74.8448808 148.003132 79.4272204 149.412686 84.2445518 146.828504 88.5918997 147.650744 93.526727 144.479248 97.4040913 144.714174 102.456414 141.19029 105.981291 140.720439 111.033614 136.726703 114.088507 135.669538 118.905839 131.323414 121.490748 129.678935 126.190584 124.980423 128.188014 122.74863 132.652858 117.932655 134.062808 115.113547 138.175164 110.18011 138.997636 106.891151 142.757504 101.957713 142.875 98.1989037 146.164885 93.1480031 145.694901 89.036805 148.514803 84.1033673 147.45734 79.6397807 149.689762 74.9412686 148.044819 70.2427565 149.689762 65.7791699 147.45734 60.963195 148.514803 56.8519969 145.694901 51.8010963 146.164885 48.0422866 142.875 43.1088489 142.757504 39.8198904 138.997636 34.7689898 138.175164 32.0673453 134.062808 27.1339076 132.652858 24.9021143 128.188014 20.321065 126.190584 18.6765857 121.490748 14.330462 118.905839 13.2732968 114.088507 9.27956147 111.033614 8.80971026 105.981291 5.28582616 102.456414 5.40328896 97.4040913 2.34925607 93.526727 3.17149569 88.5918997 0.587314017 84.2445518 1.99686766 79.4272204 0 74.8448808 1.99686766 70.2625411 0.587314017 65.4452097 3.17149569 61.2153577 2.34925607 56.1630345 5.40328896 52.2856702 5.28582616 47.233347 8.80971026 43.7084704 9.27956147 38.7736431 13.2732968 35.71875 14.330462 30.7839227 18.6765857 28.1990132 20.321065 23.4991776 24.9021143 21.5017475 27.1339076 17.0369038 32.0673453 15.744449 34.7689898 11.514597 39.8198904 10.8096217 43.1088489 6.9322574 48.0422866 6.81476151 51.8010963 3.52487664 56.8519969 3.9948602 60.963195 1.17495888 65.7791699 2.34991776 70.2427565 0"></polygon>
        <filter x="-50%" y="-50%" width="200%" height="200%" filterUnits="objectBoundingBox" id="filter-2">
            <feMorphology radius="2" operator="dilate" in="SourceAlpha" result="shadowSpreadOuter1"></feMorphology>
            <feOffset dx="0" dy="2" in="shadowSpreadOuter1" result="shadowOffsetOuter1"></feOffset>
            <feMorphology radius="2" operator="erode" in="SourceAlpha" result="shadowInner"></feMorphology>
            <feOffset dx="0" dy="2" in="shadowInner" result="shadowInner"></feOffset>
            <feComposite in="shadowOffsetOuter1" in2="shadowInner" operator="out" result="shadowOffsetOuter1"></feComposite>
            <feGaussianBlur stdDeviation="0.5" in="shadowOffsetOuter1" result="shadowBlurOuter1"></feGaussianBlur>
            <feColorMatrix values="0 0 0 0 0   0 0 0 0 0   0 0 0 0 0  0 0 0 0.5 0" type="matrix" in="shadowBlurOuter1"></feColorMatrix>
        </filter>
        <text id="text-3" font-family="Bevan-Regular, Bevan" font-size="90" font-weight="normal" fill="#FFF6EB">
            <tspan x="47.59" y="104">2</tspan>
        </text>
        <filter x="-50%" y="-50%" width="200%" height="200%" filterUnits="objectBoundingBox" id="filter-4">
            <feOffset dx="0" dy="1" in="SourceAlpha" result="shadowOffsetOuter1"></feOffset>
            <feGaussianBlur stdDeviation="0.5" in="shadowOffsetOuter1" result="shadowBlurOuter1"></feGaussianBlur>
            <feColorMatrix values="0 0 0 0 0   0 0 0 0 0   0 0 0 0 0  0 0 0 0.5 0" type="matrix" in="shadowBlurOuter1"></feColorMatrix>
        </filter>
    </defs>
    <g id="Page-1" stroke="none" stroke-width="1" fill="none" fill-rule="evenodd">
        <g id="PINK" transform="translate(-635.000000, -12794.000000)">
            <g id="9_2" transform="translate(639.000000, 12797.000000)">
                <g id="Shape-Copy" fill-rule="nonzero">
                    <use fill="black" fill-opacity="1" filter="url(#filter-2)" xlink:href="#path-1"></use>
                    <use stroke="#FFF6EB" stroke-width="4" xlink:href="#path-1"></use>
                </g>
                <g id="2" fill-opacity="1" fill="#FFF6EB">
                    <use filter="url(#filter-4)" xlink:href="#text-3"></use>
                    <use xlink:href="#text-3"></use>
                </g>
            </g>
        </g>
    </g>
</svg>