<?xml version="1.0" encoding="UTF-8"?>
<svg width="420px" height="740px" viewBox="0 0 420 740" version="1.1" xmlns="http://www.w3.org/2000/svg" xmlns:xlink="http://www.w3.org/1999/xlink">
    <!-- Generator: Sketch 42 (36781) - http://www.bohemiancoding.com/sketch -->
    <title>8_soyler</title>
    <desc>Created with Sketch.</desc>
    <defs></defs>
    <g id="Page-1" stroke="none" stroke-width="1" fill="none" fill-rule="evenodd">
        <g id="PINK" transform="translate(-492.000000, -11308.000000)">
            <g id="8_soyler" transform="translate(492.000000, 11308.000000)">
                <rect id="Rectangle---Graph-#1-Copy" fill="#FFF6EB" transform="translate(210.000000, 20.000000) rotate(-270.000000) translate(-210.000000, -20.000000) " x="190" y="-190" width="40" height="420"></rect>
                <rect id="Rectangle---Graph-#3-Copy" fill="#FFF6EB" transform="translate(170.000000, 160.000000) rotate(-270.000000) translate(-170.000000, -160.000000) " x="150" y="-10" width="40" height="340"></rect>
                <rect id="Rectangle---Graph-#4-Copy" fill="#D4C9BB" transform="translate(160.000000, 230.000000) rotate(-270.000000) translate(-160.000000, -230.000000) " x="140" y="70" width="40" height="320"></rect>
                <rect id="Rectangle---Graph-#5-Copy" fill="#FFF6EB" transform="translate(160.000000, 300.000000) rotate(-270.000000) translate(-160.000000, -300.000000) " x="140" y="140" width="40" height="320"></rect>
                <rect id="Rectangle---Graph-#6-Copy" fill="#D4C9BB" transform="translate(160.000000, 370.000000) rotate(-270.000000) translate(-160.000000, -370.000000) " x="140" y="210" width="40" height="320"></rect>
                <rect id="Rectangle---Graph-#7-Copy" fill="#FFF6EB" transform="translate(155.000000, 440.000000) rotate(-270.000000) translate(-155.000000, -440.000000) " x="135" y="285" width="40" height="310"></rect>
                <rect id="Rectangle---Graph-#8-Copy" fill="#D4C9BB" transform="translate(155.000000, 510.000000) rotate(-270.000000) translate(-155.000000, -510.000000) " x="135" y="355" width="40" height="310"></rect>
                <rect id="Rectangle---Graph-#9-Copy" fill="#FFF6EB" transform="translate(150.000000, 580.000000) rotate(-270.000000) translate(-150.000000, -580.000000) " x="130" y="430" width="40" height="300"></rect>
                <rect id="Rectangle---Graph-#9-Copy-2" fill="#D4C9BB" transform="translate(150.000000, 650.000000) rotate(-270.000000) translate(-150.000000, -650.000000) " x="130" y="500" width="40" height="300"></rect>
                <rect id="Rectangle---Graph-#9-Copy-3" fill="#FFF6EB" transform="translate(135.000000, 720.000000) rotate(-270.000000) translate(-135.000000, -720.000000) " x="115" y="585" width="40" height="270"></rect>
                <rect id="Rectangle---Graph-#2-Copy" fill="#D4C9BB" transform="translate(170.000000, 90.000000) rotate(-270.000000) translate(-170.000000, -90.000000) " x="150" y="-80" width="40" height="340"></rect>
            </g>
        </g>
    </g>
</svg>