<?xml version="1.0" encoding="UTF-8"?>
<svg width="574px" height="574px" viewBox="0 0 574 574" version="1.1" xmlns="http://www.w3.org/2000/svg" xmlns:xlink="http://www.w3.org/1999/xlink">
    <!-- Generator: Sketch 42 (36781) - http://www.bohemiancoding.com/sketch -->
    <title>4_sirkel_tannhelse</title>
    <desc>Created with Sketch.</desc>
    <defs>
        <ellipse id="path-1" cx="286.875" cy="286.875" rx="286.875" ry="286.875"></ellipse>
        <mask id="mask-2" maskContentUnits="userSpaceOnUse" maskUnits="objectBoundingBox" x="0" y="0" width="573.75" height="573.75" fill="white">
            <use xlink:href="#path-1"></use>
        </mask>
        <ellipse id="path-3" cx="24.9568966" cy="24.9568966" rx="24.9568966" ry="24.9568966"></ellipse>
        <mask id="mask-4" maskContentUnits="userSpaceOnUse" maskUnits="objectBoundingBox" x="0" y="0" width="49.9137931" height="49.9137931" fill="white">
            <use xlink:href="#path-3"></use>
        </mask>
        <filter x="-50%" y="-50%" width="200%" height="200%" filterUnits="objectBoundingBox" id="filter-5">
            <feOffset dx="0" dy="1" in="SourceAlpha" result="shadowOffsetOuter1"></feOffset>
            <feGaussianBlur stdDeviation="0.5" in="shadowOffsetOuter1" result="shadowBlurOuter1"></feGaussianBlur>
            <feColorMatrix values="0 0 0 0 0   0 0 0 0 0   0 0 0 0 0  0 0 0 0.5 0" type="matrix" in="shadowBlurOuter1" result="shadowMatrixOuter1"></feColorMatrix>
            <feMerge>
                <feMergeNode in="shadowMatrixOuter1"></feMergeNode>
                <feMergeNode in="SourceGraphic"></feMergeNode>
            </feMerge>
        </filter>
    </defs>
    <g id="Page-1" stroke="none" stroke-width="1" fill="none" fill-rule="evenodd">
        <g id="Artboard" transform="translate(-3981.000000, -9679.000000)">
            <g id="4_sirkel_tannhelse" transform="translate(3981.000000, 9679.000000)">
                <use id="6_sirkel_bakgrunn" stroke="#FFF6EB" mask="url(#mask-2)" stroke-width="8" fill="#395E84" xlink:href="#path-1"></use>
                <g id="president" transform="translate(226.000000, 132.000000)">
                    <g id="Group">
                        <g>
                            <path d="M24.3886364,287.443617 C19.3772727,294.959574 12.6954545,299.135106 11.025,304.646809 C8.35227273,313.331915 17.2056818,312.997872 22.8852273,311.661702 C28.8988636,310.325532 31.7386364,306.651064 35.0795455,305.648936 C43.0977273,303.310638 43.2647727,298.634043 40.0909091,287.443617 C36.9170455,276.253191 28.5647727,280.428723 24.3886364,287.443617 Z" id="Shape" fill="#211509"></path>
                            <path d="M75.3375,287.443617 C80.3488636,294.959574 87.0306818,299.135106 88.7011364,304.646809 C91.5409091,313.665957 81.6852273,312.997872 76.0056818,311.494681 C70.4931818,309.991489 67.6534091,306.651064 64.4795455,305.815957 C56.4613636,303.47766 56.2943182,298.801064 59.4681818,287.610638 C62.9761364,276.253191 71.3284091,280.428723 75.3375,287.443617 Z" id="Shape" fill="#211509"></path>
                            <path d="M29.0659091,190.905319 L85.5272727,190.905319 L80.85,293.623404 L57.4636364,293.623404 L62.1409091,219.131915 C62.475,212.785106 53.4545455,212.785106 52.6193182,219.131915 L42.2625,293.623404 L18.8761364,293.623404 L29.0659091,190.905319 Z" id="Shape" fill="#161616"></path>
                            <rect id="Rectangle-path" fill="#262626" x="29.0659091" y="109.732979" width="56.4613636" height="88.8553191"></rect>
                            <path d="M57.2965909,67.8106383 L57.2965909,67.8106383 C64.3125,67.8106383 69.9920455,73.4893617 69.9920455,80.5042553 L69.9920455,109.732979 C69.9920455,116.747872 64.3125,122.426596 57.2965909,122.426596 L57.2965909,122.426596 C50.2806818,122.426596 44.6011364,116.747872 44.6011364,109.732979 L44.6011364,80.6712766 C44.6011364,73.656383 50.2806818,67.8106383 57.2965909,67.8106383 Z" id="Shape" fill="#F2D8BD"></path>
                            <path d="M69.9920455,100.212766 L69.9920455,100.212766 C69.9920455,111.069149 44.6011364,111.069149 44.6011364,100.212766 L44.6011364,100.212766 C44.6011364,89.356383 69.9920455,89.356383 69.9920455,100.212766 Z" id="Shape" fill="#D4B89A"></path>
                            <path d="M57.2965909,0 C-14.5329545,0 2.83977273,104.221277 57.2965909,104.221277 C111.753409,104.221277 128.959091,0 57.2965909,0 Z" id="Shape" fill="#F2D8BD"></path>
                            <path d="M40.425,123.094681 L25.2238636,165.852128 C23.2193182,171.36383 17.2056818,174.203191 11.8602273,172.198936 L11.8602273,172.198936 C6.34772727,170.194681 3.50795455,164.181915 5.5125,158.837234 L20.7136364,116.079787 C24.8897727,103.720213 44.6011364,111.403191 40.425,123.094681 Z" id="Shape" fill="#262626"></path>
                            <g transform="translate(5.011364, 196.414894)" id="Shape" fill="#F2D8BD">
                                <path d="M18.375,1.33829787 L18.375,1.33829787 C19.7113636,1.33829787 20.8806818,2.50744681 20.8806818,3.84361702 L20.8806818,10.0234043 C20.8806818,11.3595745 19.7113636,12.5287234 18.375,12.5287234 L18.375,12.5287234 C17.0386364,12.5287234 15.8693182,11.3595745 15.8693182,10.0234043 L15.8693182,3.84361702 C15.8693182,2.50744681 17.0386364,1.33829787 18.375,1.33829787 Z"></path>
                                <path d="M21.0477273,3.84361702 L21.0477273,0.336170213 L0.334090909,0.670212766 L0.334090909,4.17765957 C0.668181818,19.2095745 21.3818182,21.3808511 21.0477273,3.84361702 Z"></path>
                            </g>
                            <path d="M25.8920455,196.918085 L25.725,164.181915 C25.725,158.33617 20.8806818,153.826596 15.0340909,153.826596 L15.0340909,153.826596 C9.1875,153.993617 4.67727273,158.670213 4.67727273,164.515957 L5.34545455,197.085106 L25.8920455,196.918085 Z" id="Shape" fill="#262626"></path>
                            <ellipse id="Oval" fill="#F2D8BD" transform="translate(10.678548, 58.621679) rotate(-14.323901) translate(-10.678548, -58.621679) " cx="10.6785477" cy="58.6216788" rx="6.8487745" ry="13.1945091"></ellipse>
                            <ellipse id="Oval" fill="#F2D8BD" transform="translate(103.849770, 58.636928) rotate(-75.676099) translate(-103.849770, -58.636928) " cx="103.84977" cy="58.6369279" rx="13.1964192" ry="6.84778321"></ellipse>
                            <path d="M56.6284091,121.591489 L56.6284091,121.591489 C57.2965909,121.591489 57.9647727,122.259574 57.9647727,122.92766 L57.9647727,122.92766 C57.9647727,123.595745 57.2965909,124.26383 56.6284091,124.26383 L56.6284091,124.26383 C55.9602273,124.26383 55.2920455,123.595745 55.2920455,122.92766 L55.2920455,122.92766 C55.4590909,122.259574 55.9602273,121.591489 56.6284091,121.591489 Z" id="Shape" fill="#FCFCFC"></path>
                            <path d="M46.1045455,125.6 L57.9647727,157.167021 L69.825,121.591489 L61.9738636,120.589362 L57.2965909,122.593617 C56.9625,122.760638 56.4613636,122.760638 56.1272727,122.593617 L51.45,120.255319 L46.2715909,124.26383" id="Shape" fill="#FFFFFF"></path>
                            <polygon id="Shape" fill="#FFFFFF" points="44.1 105.390426 39.9238636 110.234043 45.1022727 130.443617 53.6215909 120.088298"></polygon>
                            <polygon id="Shape" fill="#FFFFFF" points="71.3284091 105.390426 75.5045455 110.234043 70.3261364 130.443617 61.6397727 120.088298"></polygon>
                            <path d="M62.6420455,121.257447 C61.1386364,122.259574 59.1340909,122.426596 57.2965909,122.426596 L61.8068182,120.088298 L62.6420455,121.257447 L62.6420455,121.257447 Z M57.2965909,122.593617 L53.7886364,120.255319 L52.6193182,121.758511 C53.9556818,122.259574 55.6261364,122.593617 57.2965909,122.593617 Z" id="Shape" fill="#FFFFFF"></path>
                            <polygon id="Shape" fill="#FFFFFF" points="5.34545455 197.085106 5.34545455 192.575532 25.8920455 192.408511 25.8920455 196.918085"></polygon>
                            <g transform="translate(73.500000, 109.563830)" id="Shape">
                                <path d="M1.50340909,15.3680851 L23.8875,54.7851064 C26.7272727,59.7957447 33.2420455,61.6329787 38.2534091,58.793617 L38.2534091,58.793617 C43.2647727,55.9542553 45.1022727,49.4404255 42.2625,44.4297872 L19.7113636,5.01276596 C13.1965909,-6.34468085 -4.67727273,4.51170213 1.50340909,15.3680851 Z" fill="#262626"></path>
                                <g transform="translate(25.056818, 42.425532)">
                                    <path d="M28.7318182,43.9265957 L26.3931818,41.4212766 L41.0931818,27.0574468 L43.4318182,29.562766 C53.9556818,40.4191489 40.7590909,56.4531915 28.7318182,43.9265957 Z" fill="#F2D8BD"></path>
                                    <path d="M26.2261364,41.4212766 L3.17386364,18.0382979 C-0.835227273,13.862766 -0.668181818,7.18191489 3.50795455,3.17340426 L3.50795455,3.17340426 C7.68409091,-0.835106383 14.3659091,-0.668085106 18.375,3.50744681 L40.9261364,27.0574468 L26.2261364,41.4212766 Z" fill="#262626"></path>
                                    <polygon fill="#FFFFFF" points="26.2261364 41.4212766 23.2193182 38.2478723 37.9193182 23.8840426 41.0931818 27.0574468"></polygon>
                                </g>
                            </g>
                            <rect id="Rectangle-path" fill="#FF0000" transform="translate(57.415761, 125.005705) rotate(48.531096) translate(-57.415761, -125.005705) " x="55.4112564" y="123.00149" width="4.00900938" height="4.00842912"></rect>
                            <polygon id="Shape" fill="#FF0000" points="57.7977273 157.668085 51.7840909 140.631915 57.4636364 127.437234 63.6443182 139.96383"></polygon>
                        </g>
                        <g transform="translate(33.409091, 42.755319)" id="Shape" fill-rule="nonzero">
                            <path d="M5.01136364,6.68297872 C5.01136364,7.51808511 4.00909091,8.18617021 2.83977273,8.18617021 L2.83977273,8.18617021 C1.67045455,8.18617021 0.668181818,7.51808511 0.668181818,6.68297872 L0.668181818,1.8393617 C0.668181818,1.00425532 1.67045455,0.336170213 2.83977273,0.336170213 L2.83977273,0.336170213 C4.00909091,0.336170213 5.01136364,1.00425532 5.01136364,1.8393617 L5.01136364,6.68297872 Z" fill="#2C2A2E"></path>
                            <path d="M43.4318182,6.68297872 C43.4318182,7.51808511 42.4295455,8.18617021 41.2602273,8.18617021 L41.2602273,8.18617021 C40.0909091,8.18617021 39.0886364,7.51808511 39.0886364,6.68297872 L39.0886364,1.8393617 C39.0886364,1.00425532 40.0909091,0.336170213 41.2602273,0.336170213 L41.2602273,0.336170213 C42.4295455,0.336170213 43.4318182,1.00425532 43.4318182,1.8393617 L43.4318182,6.68297872 Z" fill="#2C2A2E"></path>
                            <path d="M17.2056818,20.712766 C19.5443182,21.5478723 21.2147727,22.2159574 22.7181818,22.2159574 C23.3863636,22.2159574 24.0545455,22.2159574 25.0568182,21.8819149 C25.5579545,21.7148936 25.8920455,21.5478723 26.3931818,21.3808511 C26.8943182,21.2138298 27.3954545,20.8797872 28.0636364,20.712766 C28.0636364,21.3808511 27.7295455,21.8819149 27.5625,22.55 C27.2284091,23.0510638 26.8943182,23.7191489 26.3931818,24.0531915 C25.5579545,25.0553191 24.0545455,25.556383 22.5511364,25.556383 C21.0477273,25.556383 19.7113636,24.8882979 18.8761364,24.0531915 C17.8738636,23.2180851 17.2056818,22.0489362 17.2056818,20.712766 Z" fill="#D1AB8B"></path>
                        </g>
                        <path d="M43.7659091,82.8425532 C46.2715909,83.8446809 48.6102273,84.6797872 50.7818182,85.1808511 C52.9534091,85.8489362 55.2920455,86.0159574 57.2965909,86.0159574 C59.4681818,86.0159574 61.6397727,85.8489362 63.8113636,85.1808511 C64.9806818,85.0138298 65.9829545,84.512766 67.3193182,84.1787234 C68.4886364,83.8446809 69.6579545,83.1765957 70.9943182,82.8425532 C70.3261364,84.0117021 69.4909091,85.1808511 68.6556818,86.1829787 C68.1545455,86.6840426 67.6534091,87.1851064 67.1522727,87.5191489 C66.6511364,88.0202128 66.15,88.3542553 65.4818182,88.6882979 C63.1431818,90.1914894 60.1363636,91.0265957 57.2965909,91.0265957 C54.4568182,91.0265957 51.6170455,90.1914894 49.1113636,88.6882979 C46.9397727,87.3521277 44.9352273,85.3478723 43.7659091,82.8425532 Z" id="Shape" fill="#2C2A2E" fill-rule="nonzero"></path>
                    </g>
                </g>
                <g id="Tenner" transform="translate(258.000000, 192.000000)">
                    <g id="6_hjerte-copy" stroke="#FFF6EB" stroke-width="3.2" fill="#182736">
                        <use id="Oval-2-Copy-2" mask="url(#mask-4)" xlink:href="#path-3"></use>
                    </g>
                    <g id="tenner" filter="url(#filter-5)" transform="translate(6.000000, 18.000000)" fill-rule="nonzero" fill="#FFF6EB">
                        <g id="Group">
                            <path d="M18.3722153,12.4097561 C18.7764706,12.7560976 18.4055069,16.7853659 17.5922403,17.2731707 C16.7789737,17.7609756 16.6458073,17.5170732 16.1369212,16.8195122 C15.628035,16.1268293 14.681602,12.7560976 15.3569462,12.4439024 C16.0370463,12.1317073 18.3722153,12.4097561 18.3722153,12.4097561 Z" id="Shape"></path>
                            <path d="M11.4998748,12.0243902 C12.008761,11.6780488 14.2773467,11.9902439 14.5817272,12.4390244 C14.8861076,12.8878049 14.5817272,16.2926829 13.906383,17.0926829 C13.2310388,17.8926829 12.5842303,18.0292683 12.1133917,17.2292683 C11.6377972,16.4341463 10.9909887,12.3756098 11.4998748,12.0243902 Z" id="Shape"></path>
                            <path d="M7.98047559,11.4682927 C8.62252816,11.1219512 10.5867334,11.8878049 10.8245307,12.2682927 C11.0623279,12.6487805 11.0956195,14.697561 10.8911139,15.3219512 C10.6866083,15.9463415 9.50237797,17.9609756 8.86032541,17.9609756 C8.21827284,17.9609756 7.88060075,15.9121951 7.84255319,14.5219512 C7.80926158,13.1365854 7.33842303,11.8195122 7.98047559,11.4682927 Z" id="Shape"></path>
                            <path d="M5.54067584,11.3317073 C5.94493116,11.195122 6.99599499,11.5073171 7.16720901,11.7853659 C7.33842303,12.0634146 7.26708385,12.4780488 7.21952441,13.2585366 C7.16720901,14.0390244 7.45732165,14.302439 7.42403004,14.5073171 C7.39073842,14.7170732 5.88310388,16.1902439 5.44555695,16.1219512 C5.00325407,16.0536585 4.66558198,14.6634146 4.83679599,13.4487805 C5.00325407,12.2341463 5.13642053,11.4682927 5.54067584,11.3317073 Z" id="Shape"></path>
                            <path d="M3.10563204,11.1219512 C2.59674593,11.3317073 2.12590738,11.7804878 1.95469337,13.1707317 C1.78347935,14.5609756 1.78347935,15.9463415 2.159199,15.9804878 C2.5301627,16.0146341 2.93917397,15.2682927 3.44330413,14.9219512 C3.83329161,14.6536585 4.28986233,14.6439024 4.42302879,14.4195122 C4.55619524,14.195122 4.35644556,13.2536585 4.50863579,12.7170732 C4.66082603,12.1804878 5.03178974,11.502439 4.93191489,11.3609756 C4.83204005,11.2292683 3.10563204,11.1219512 3.10563204,11.1219512 Z" id="Shape"></path>
                            <path d="M1.37922403,10.2536585 C0.903629537,10.3219512 0.261576971,11.7804878 0.0951188986,12.9609756 C-0.0760951189,14.1414634 0.651564456,14.6097561 1.09386733,14.3658537 C1.53617021,14.1219512 1.33166458,13.3414634 1.75494368,12.2487805 C1.94042553,11.7707317 2.68710889,11.0146341 2.63479349,10.8097561 C2.5824781,10.604878 1.85481852,10.1853659 1.37922403,10.2536585 Z" id="Shape"></path>
                            <g id="Shape">
                                <path d="M15.8848561,0.0536585366 C17.0690864,0.00487804878 18.1629537,1.14634146 18.4483104,3.77560976 C18.7336671,6.40487805 18.9476846,7.35121951 18.1629537,7.64390244 C17.3829787,7.93658537 14.3201502,8.22926829 13.7494368,7.57073171 C13.1787234,6.91219512 12.9647059,3.92195122 13.3927409,2.46341463 C13.820776,1.00487805 14.7006258,0.102439024 15.8848561,0.0536585366 Z"></path>
                                <path d="M12.8600751,3.04878049 C12.8600751,3.04878049 11.0813517,0.23902439 10.19199,0.604878049 C9.30262829,0.970731707 8.62728411,4.65365854 8.87459324,5.4195122 C9.12190238,6.18536585 9.76395494,6.91707317 10.4060075,7.02439024 C11.0480601,7.13170732 12.7173967,6.95121951 12.7173967,6.95121951 C12.7173967,6.95121951 12.5033792,6.03902439 12.5414268,4.9804878 C12.5699625,4.17073171 12.8600751,3.04878049 12.8600751,3.04878049 Z"></path>
                                <path d="M8.55594493,2.82926829 C8.55594493,2.82926829 6.67259074,-0.273170732 5.959199,0.0195121951 C5.24580726,0.312195122 5.31714643,3.26829268 5.64055069,4.61463415 C5.959199,5.96585366 6.10187735,6.98536585 6.77722153,7.05853659 C7.45256571,7.13170732 8.62728411,6.03414634 8.62728411,6.03414634 C8.62728411,6.03414634 8.41326658,5.04878049 8.41326658,4.3902439 C8.41326658,3.74146341 8.55594493,2.82926829 8.55594493,2.82926829 Z"></path>
                                <path d="M4.99849812,2.72195122 C4.99849812,2.72195122 3.46708385,0.717073171 3.07709637,0.970731707 C2.68710889,1.22439024 2.93441802,3.45365854 3.32440551,4.25365854 C3.71439299,5.05853659 3.85707134,6.00487805 4.35644556,6.11219512 C4.85581977,6.2195122 5.35043805,6.03902439 5.35043805,6.03902439 C5.35043805,6.03902439 5.03178974,5.09268293 4.96045056,4.43414634 C4.89386733,3.77560976 4.99849812,2.72195122 4.99849812,2.72195122 Z"></path>
                                <path d="M2.75844806,3.84878049 C2.36846058,3.0097561 1.6931164,1.14634146 1.47909887,1.2195122 C1.26508135,1.29268293 1.62177722,3.88292683 1.76445557,4.72195122 C1.90713392,5.56097561 1.97847309,5.81463415 2.36846058,5.88780488 C2.75844806,5.96097561 3.29111389,5.88780488 3.36245307,5.7804878 C3.43379224,5.67804878 2.75844806,3.84878049 2.75844806,3.84878049 Z"></path>
                                <path d="M0.33767209,1.25853659 C0.0190237797,1.43902439 -0.0523153942,2.82926829 0.194993742,3.70243902 C0.442302879,4.5804878 0.941677096,5.12682927 1.18898623,5.01463415 C1.43629537,4.90731707 1.29361702,3.48292683 1.11764706,2.71707317 C0.946433041,1.95121951 0.33767209,1.25853659 0.33767209,1.25853659 Z"></path>
                                <path d="M22.1294118,0.0536585366 C20.9451815,0.00487804878 19.8513141,1.14634146 19.5659574,3.77560976 C19.2806008,6.40487805 19.0665832,7.35121951 19.8513141,7.64390244 C20.6312891,7.93658537 23.6941176,8.22926829 24.2600751,7.57073171 C24.8307885,6.91219512 25.044806,3.92195122 24.616771,2.46341463 C24.1934919,1.00487805 23.318398,0.102439024 22.1294118,0.0536585366 Z"></path>
                                <path d="M25.1541927,3.04878049 C25.1541927,3.04878049 26.9329161,0.23902439 27.8222778,0.604878049 C28.7116395,0.970731707 29.3869837,4.65365854 29.1396746,5.4195122 C28.8923655,6.18536585 28.2503129,6.91707317 27.6082603,7.02439024 C26.9662078,7.13170732 25.2968711,6.95121951 25.2968711,6.95121951 C25.2968711,6.95121951 25.5108886,6.03902439 25.4728411,4.9804878 C25.4490613,4.17073171 25.1541927,3.04878049 25.1541927,3.04878049 Z"></path>
                                <path d="M29.4583229,2.82926829 C29.4583229,2.82926829 31.3416771,-0.273170732 32.0550688,0.0195121951 C32.7684606,0.312195122 32.6971214,3.26829268 32.3737171,4.61463415 C32.0550688,5.96585366 31.9123905,6.98536585 31.2370463,7.05853659 C30.5617021,7.13170732 29.3869837,6.03414634 29.3869837,6.03414634 C29.3869837,6.03414634 29.6010013,5.04878049 29.6010013,4.3902439 C29.6010013,3.74146341 29.4583229,2.82926829 29.4583229,2.82926829 Z"></path>
                                <path d="M33.0157697,2.72195122 C33.0157697,2.72195122 34.547184,0.717073171 34.9371715,0.970731707 C35.3271589,1.22439024 35.0798498,3.45365854 34.6898623,4.25365854 C34.2998748,5.05853659 34.1571965,6.00487805 33.6578223,6.11219512 C33.1584481,6.2195122 32.6638298,6.03902439 32.6638298,6.03902439 C32.6638298,6.03902439 32.9824781,5.09268293 33.0538173,4.43414634 C33.1251564,3.77560976 33.0157697,2.72195122 33.0157697,2.72195122 Z"></path>
                                <path d="M35.2558198,3.84878049 C35.6458073,3.0097561 36.3211514,1.14634146 36.535169,1.2195122 C36.7491865,1.29268293 36.3924906,3.88292683 36.2498123,4.72195122 C36.1071339,5.56097561 36.0357947,5.81463415 35.6458073,5.88780488 C35.2558198,5.96097561 34.7231539,5.88780488 34.6518148,5.7804878 C34.5804756,5.67804878 35.2558198,3.84878049 35.2558198,3.84878049 Z"></path>
                                <path d="M37.6765957,1.25853659 C37.9952441,1.43902439 38.0665832,2.82926829 37.8192741,3.70243902 C37.571965,4.5804878 37.0725907,5.12682927 36.8205257,5.01463415 C36.5732165,4.90731707 36.7158949,3.48292683 36.8918648,2.71707317 C37.0725907,1.95121951 37.6765957,1.25853659 37.6765957,1.25853659 Z"></path>
                            </g>
                            <path d="M19.6420526,12.4097561 C19.2377972,12.7560976 19.608761,16.7853659 20.4220275,17.2731707 C21.2352941,17.7609756 21.3684606,17.5170732 21.8773467,16.8195122 C22.3862328,16.1268293 23.3326658,12.7560976 22.6573217,12.4439024 C21.9772215,12.1317073 19.6420526,12.4097561 19.6420526,12.4097561 Z" id="Shape"></path>
                            <path d="M26.514393,12.0243902 C26.0055069,11.6780488 23.7369212,11.9902439 23.4325407,12.4390244 C23.1281602,12.8878049 23.4325407,16.2926829 24.1078849,17.0926829 C24.783229,17.8926829 25.4300375,18.0292683 25.9008761,17.2292683 C26.3812265,16.4341463 27.0232791,12.3756098 26.514393,12.0243902 Z" id="Shape"></path>
                            <path d="M30.0337922,11.4682927 C29.3917397,11.1219512 27.4275344,11.8878049 27.1897372,12.2682927 C26.9519399,12.6487805 26.9186483,14.697561 27.1231539,15.3219512 C27.3276596,15.9463415 28.5118899,17.9609756 29.1539424,17.9609756 C29.795995,17.9609756 30.1336671,15.9121951 30.1717146,14.5219512 C30.2050063,13.1365854 30.6806008,11.8195122 30.0337922,11.4682927 Z" id="Shape"></path>
                            <path d="M32.473592,11.3317073 C32.0693367,11.195122 31.0182728,11.5073171 30.8470588,11.7853659 C30.6758448,12.0634146 30.747184,12.4780488 30.7947434,13.2585366 C30.8470588,14.0390244 30.5569462,14.302439 30.5902378,14.5073171 C30.6235294,14.7170732 32.131164,16.1902439 32.5687109,16.1219512 C33.0110138,16.0536585 33.3486859,14.6634146 33.1774718,13.4487805 C33.0157697,12.2341463 32.8778473,11.4682927 32.473592,11.3317073 Z" id="Shape"></path>
                            <path d="M34.9086358,11.1219512 C35.4175219,11.3317073 35.8883605,11.7804878 36.0595745,13.1707317 C36.2307885,14.5609756 36.2307885,15.9463415 35.8550688,15.9804878 C35.4841051,16.0146341 35.0750939,15.2682927 34.5709637,14.9219512 C34.1809762,14.6536585 33.7244055,14.6439024 33.591239,14.4195122 C33.4533166,14.195122 33.6578223,13.2536585 33.505632,12.7170732 C33.3534418,12.1804878 32.9824781,11.502439 33.0823529,11.3609756 C33.1822278,11.2292683 34.9086358,11.1219512 34.9086358,11.1219512 Z" id="Shape"></path>
                            <path d="M36.6350438,10.2536585 C37.1106383,10.3219512 37.7526909,11.7804878 37.9239049,12.9609756 C38.0951189,14.1414634 37.3674593,14.6097561 36.9251564,14.3658537 C36.4828536,14.1219512 36.6873592,13.3414634 36.2640801,12.2487805 C36.0785982,11.7707317 35.3319149,11.0146341 35.3842303,10.8097561 C35.4365457,10.604878 36.1642053,10.1853659 36.6350438,10.2536585 Z" id="Shape"></path>
                        </g>
                    </g>
                </g>
            </g>
        </g>
    </g>
</svg>