<?xml version="1.0" encoding="UTF-8"?>
<svg width="574px" height="574px" viewBox="0 0 574 574" version="1.1" xmlns="http://www.w3.org/2000/svg" xmlns:xlink="http://www.w3.org/1999/xlink">
    <!-- Generator: Sketch 42 (36781) - http://www.bohemiancoding.com/sketch -->
    <title>4_blodtrykk</title>
    <desc>Created with Sketch.</desc>
    <defs>
        <ellipse id="path-1" cx="286.875" cy="286.875" rx="286.875" ry="286.875"></ellipse>
        <mask id="mask-2" maskContentUnits="userSpaceOnUse" maskUnits="objectBoundingBox" x="0" y="0" width="573.75" height="573.75" fill="white">
            <use xlink:href="#path-1"></use>
        </mask>
        <linearGradient x1="50%" y1="51.5684321%" x2="50%" y2="0%" id="linearGradient-3">
            <stop stop-color="#F2D8BD" offset="0%"></stop>
            <stop stop-color="#EC9999" offset="52.6128029%"></stop>
            <stop stop-color="#F2D8BD" offset="100%"></stop>
        </linearGradient>
        <ellipse id="path-4" cx="24.9568966" cy="24.9568966" rx="24.9568966" ry="24.9568966"></ellipse>
        <mask id="mask-5" maskContentUnits="userSpaceOnUse" maskUnits="objectBoundingBox" x="0" y="0" width="49.9137931" height="49.9137931" fill="white">
            <use xlink:href="#path-4"></use>
        </mask>
    </defs>
    <g id="Page-1" stroke="none" stroke-width="1" fill="none" fill-rule="evenodd">
        <g id="Artboard" transform="translate(-4637.000000, -10399.000000)">
            <g id="4_blodtrykk" transform="translate(4637.000000, 10399.000000)">
                <use id="6_sirkel_bakgrunn" stroke="#FFF6EB" mask="url(#mask-2)" stroke-width="8" fill="#395E84" xlink:href="#path-1"></use>
                <g id="president" transform="translate(226.000000, 132.000000)">
                    <g id="Group">
                        <g>
                            <path d="M24.3886364,287.443617 C19.3772727,294.959574 12.6954545,299.135106 11.025,304.646809 C8.35227273,313.331915 17.2056818,312.997872 22.8852273,311.661702 C28.8988636,310.325532 31.7386364,306.651064 35.0795455,305.648936 C43.0977273,303.310638 43.2647727,298.634043 40.0909091,287.443617 C36.9170455,276.253191 28.5647727,280.428723 24.3886364,287.443617 Z" id="Shape" fill="#211509"></path>
                            <path d="M75.3375,287.443617 C80.3488636,294.959574 87.0306818,299.135106 88.7011364,304.646809 C91.5409091,313.665957 81.6852273,312.997872 76.0056818,311.494681 C70.4931818,309.991489 67.6534091,306.651064 64.4795455,305.815957 C56.4613636,303.47766 56.2943182,298.801064 59.4681818,287.610638 C62.9761364,276.253191 71.3284091,280.428723 75.3375,287.443617 Z" id="Shape" fill="#211509"></path>
                            <path d="M29.0659091,190.905319 L85.5272727,190.905319 L80.85,293.623404 L57.4636364,293.623404 L62.1409091,219.131915 C62.475,212.785106 53.4545455,212.785106 52.6193182,219.131915 L42.2625,293.623404 L18.8761364,293.623404 L29.0659091,190.905319 Z" id="Shape" fill="#161616"></path>
                            <rect id="Rectangle-path" fill="#262626" x="29.0659091" y="109.732979" width="56.4613636" height="88.8553191"></rect>
                            <path d="M57.2965909,67.8106383 L57.2965909,67.8106383 C64.3125,67.8106383 69.9920455,73.4893617 69.9920455,80.5042553 L69.9920455,109.732979 C69.9920455,116.747872 64.3125,122.426596 57.2965909,122.426596 L57.2965909,122.426596 C50.2806818,122.426596 44.6011364,116.747872 44.6011364,109.732979 L44.6011364,80.6712766 C44.6011364,73.656383 50.2806818,67.8106383 57.2965909,67.8106383 Z" id="Shape" fill="#F2D8BD"></path>
                            <path d="M69.9920455,100.212766 L69.9920455,100.212766 C69.9920455,111.069149 44.6011364,111.069149 44.6011364,100.212766 L44.6011364,100.212766 C44.6011364,89.356383 69.9920455,89.356383 69.9920455,100.212766 Z" id="Shape" fill="#D4B89A"></path>
                            <path d="M57.2965909,0 C-14.5329545,0 2.83977273,104.221277 57.2965909,104.221277 C111.753409,104.221277 128.959091,0 57.2965909,0 Z" id="Shape" fill="url(#linearGradient-3)"></path>
                            <path d="M40.425,123.094681 L25.2238636,165.852128 C23.2193182,171.36383 17.2056818,174.203191 11.8602273,172.198936 L11.8602273,172.198936 C6.34772727,170.194681 3.50795455,164.181915 5.5125,158.837234 L20.7136364,116.079787 C24.8897727,103.720213 44.6011364,111.403191 40.425,123.094681 Z" id="Shape" fill="#262626"></path>
                            <g transform="translate(5.011364, 196.414894)" id="Shape" fill="#F2D8BD">
                                <path d="M18.375,1.33829787 L18.375,1.33829787 C19.7113636,1.33829787 20.8806818,2.50744681 20.8806818,3.84361702 L20.8806818,10.0234043 C20.8806818,11.3595745 19.7113636,12.5287234 18.375,12.5287234 L18.375,12.5287234 C17.0386364,12.5287234 15.8693182,11.3595745 15.8693182,10.0234043 L15.8693182,3.84361702 C15.8693182,2.50744681 17.0386364,1.33829787 18.375,1.33829787 Z"></path>
                                <path d="M21.0477273,3.84361702 L21.0477273,0.336170213 L0.334090909,0.670212766 L0.334090909,4.17765957 C0.668181818,19.2095745 21.3818182,21.3808511 21.0477273,3.84361702 Z"></path>
                            </g>
                            <path d="M25.8920455,196.918085 L25.725,164.181915 C25.725,158.33617 20.8806818,153.826596 15.0340909,153.826596 L15.0340909,153.826596 C9.1875,153.993617 4.67727273,158.670213 4.67727273,164.515957 L5.34545455,197.085106 L25.8920455,196.918085 Z" id="Shape" fill="#262626"></path>
                            <ellipse id="Oval" fill="#F2D8BD" transform="translate(10.678548, 58.621679) rotate(-14.323901) translate(-10.678548, -58.621679) " cx="10.6785477" cy="58.6216788" rx="6.8487745" ry="13.1945091"></ellipse>
                            <ellipse id="Oval" fill="#F2D8BD" transform="translate(103.849770, 58.636928) rotate(-75.676099) translate(-103.849770, -58.636928) " cx="103.84977" cy="58.6369279" rx="13.1964192" ry="6.84778321"></ellipse>
                            <path d="M56.6284091,121.591489 L56.6284091,121.591489 C57.2965909,121.591489 57.9647727,122.259574 57.9647727,122.92766 L57.9647727,122.92766 C57.9647727,123.595745 57.2965909,124.26383 56.6284091,124.26383 L56.6284091,124.26383 C55.9602273,124.26383 55.2920455,123.595745 55.2920455,122.92766 L55.2920455,122.92766 C55.4590909,122.259574 55.9602273,121.591489 56.6284091,121.591489 Z" id="Shape" fill="#FCFCFC"></path>
                            <path d="M46.1045455,125.6 L57.9647727,157.167021 L69.825,121.591489 L61.9738636,120.589362 L57.2965909,122.593617 C56.9625,122.760638 56.4613636,122.760638 56.1272727,122.593617 L51.45,120.255319 L46.2715909,124.26383" id="Shape" fill="#FFFFFF"></path>
                            <polygon id="Shape" fill="#FFFFFF" points="44.1 105.390426 39.9238636 110.234043 45.1022727 130.443617 53.6215909 120.088298"></polygon>
                            <polygon id="Shape" fill="#FFFFFF" points="71.3284091 105.390426 75.5045455 110.234043 70.3261364 130.443617 61.6397727 120.088298"></polygon>
                            <path d="M62.6420455,121.257447 C61.1386364,122.259574 59.1340909,122.426596 57.2965909,122.426596 L61.8068182,120.088298 L62.6420455,121.257447 L62.6420455,121.257447 Z M57.2965909,122.593617 L53.7886364,120.255319 L52.6193182,121.758511 C53.9556818,122.259574 55.6261364,122.593617 57.2965909,122.593617 Z" id="Shape" fill="#FFFFFF"></path>
                            <polygon id="Shape" fill="#FFFFFF" points="5.34545455 197.085106 5.34545455 192.575532 25.8920455 192.408511 25.8920455 196.918085"></polygon>
                            <g transform="translate(73.500000, 109.563830)" id="Shape">
                                <path d="M1.50340909,15.3680851 L23.8875,54.7851064 C26.7272727,59.7957447 33.2420455,61.6329787 38.2534091,58.793617 L38.2534091,58.793617 C43.2647727,55.9542553 45.1022727,49.4404255 42.2625,44.4297872 L19.7113636,5.01276596 C13.1965909,-6.34468085 -4.67727273,4.51170213 1.50340909,15.3680851 Z" fill="#262626"></path>
                                <g transform="translate(25.056818, 42.425532)">
                                    <path d="M28.7318182,43.9265957 L26.3931818,41.4212766 L41.0931818,27.0574468 L43.4318182,29.562766 C53.9556818,40.4191489 40.7590909,56.4531915 28.7318182,43.9265957 Z" fill="#F2D8BD"></path>
                                    <path d="M26.2261364,41.4212766 L3.17386364,18.0382979 C-0.835227273,13.862766 -0.668181818,7.18191489 3.50795455,3.17340426 L3.50795455,3.17340426 C7.68409091,-0.835106383 14.3659091,-0.668085106 18.375,3.50744681 L40.9261364,27.0574468 L26.2261364,41.4212766 Z" fill="#262626"></path>
                                    <polygon fill="#FFFFFF" points="26.2261364 41.4212766 23.2193182 38.2478723 37.9193182 23.8840426 41.0931818 27.0574468"></polygon>
                                </g>
                            </g>
                            <rect id="Rectangle-path" fill="#FF0000" transform="translate(57.415761, 125.005705) rotate(48.531096) translate(-57.415761, -125.005705) " x="55.4112564" y="123.00149" width="4.00900938" height="4.00842912"></rect>
                            <polygon id="Shape" fill="#FF0000" points="57.7977273 157.668085 51.7840909 140.631915 57.4636364 127.437234 63.6443182 139.96383"></polygon>
                        </g>
                        <g transform="translate(33.409091, 42.755319)" id="Shape" fill-rule="nonzero">
                            <path d="M5.01136364,6.68297872 C5.01136364,7.51808511 4.00909091,8.18617021 2.83977273,8.18617021 L2.83977273,8.18617021 C1.67045455,8.18617021 0.668181818,7.51808511 0.668181818,6.68297872 L0.668181818,1.8393617 C0.668181818,1.00425532 1.67045455,0.336170213 2.83977273,0.336170213 L2.83977273,0.336170213 C4.00909091,0.336170213 5.01136364,1.00425532 5.01136364,1.8393617 L5.01136364,6.68297872 Z" fill="#2C2A2E"></path>
                            <path d="M43.4318182,6.68297872 C43.4318182,7.51808511 42.4295455,8.18617021 41.2602273,8.18617021 L41.2602273,8.18617021 C40.0909091,8.18617021 39.0886364,7.51808511 39.0886364,6.68297872 L39.0886364,1.8393617 C39.0886364,1.00425532 40.0909091,0.336170213 41.2602273,0.336170213 L41.2602273,0.336170213 C42.4295455,0.336170213 43.4318182,1.00425532 43.4318182,1.8393617 L43.4318182,6.68297872 Z" fill="#2C2A2E"></path>
                            <path d="M17.2056818,20.712766 C19.5443182,21.5478723 21.2147727,22.2159574 22.7181818,22.2159574 C23.3863636,22.2159574 24.0545455,22.2159574 25.0568182,21.8819149 C25.5579545,21.7148936 25.8920455,21.5478723 26.3931818,21.3808511 C26.8943182,21.2138298 27.3954545,20.8797872 28.0636364,20.712766 C28.0636364,21.3808511 27.7295455,21.8819149 27.5625,22.55 C27.2284091,23.0510638 26.8943182,23.7191489 26.3931818,24.0531915 C25.5579545,25.0553191 24.0545455,25.556383 22.5511364,25.556383 C21.0477273,25.556383 19.7113636,24.8882979 18.8761364,24.0531915 C17.8738636,23.2180851 17.2056818,22.0489362 17.2056818,20.712766 Z" fill="#D1AB8B"></path>
                        </g>
                        <path d="M43.7659091,82.8425532 C46.2715909,83.8446809 48.6102273,84.6797872 50.7818182,85.1808511 C52.9534091,85.8489362 55.2920455,86.0159574 57.2965909,86.0159574 C59.4681818,86.0159574 61.6397727,85.8489362 63.8113636,85.1808511 C64.9806818,85.0138298 65.9829545,84.512766 67.3193182,84.1787234 C68.4886364,83.8446809 69.6579545,83.1765957 70.9943182,82.8425532 C70.3261364,84.0117021 69.4909091,85.1808511 68.6556818,86.1829787 C68.1545455,86.6840426 67.6534091,87.1851064 67.1522727,87.5191489 C66.6511364,88.0202128 66.15,88.3542553 65.4818182,88.6882979 C63.1431818,90.1914894 60.1363636,91.0265957 57.2965909,91.0265957 C54.4568182,91.0265957 51.6170455,90.1914894 49.1113636,88.6882979 C46.9397727,87.3521277 44.9352273,85.3478723 43.7659091,82.8425532 Z" id="Shape" fill="#2C2A2E" fill-rule="nonzero"></path>
                    </g>
                </g>
                <g id="Tenner" transform="translate(257.000000, 251.000000)">
                    <g id="Group-6">
                        <g id="6_hjerte-copy" stroke="#FFF6EB" stroke-width="3.2" fill="#182736">
                            <use id="Oval-2-Copy-2" mask="url(#mask-5)" xlink:href="#path-4"></use>
                        </g>
                        <g id="Group-8" transform="translate(14.000000, 8.000000)">
                            <path d="M10.7,30.960746 C16.6094468,30.960746 21.4,26.0279848 21.4,19.9431154 C21.4,13.858246 10.7,0 10.7,0 C10.7,0 0,13.858246 0,19.9431154 C0,26.0279848 4.79055318,30.960746 10.7,30.960746 Z" id="Oval-3-Copy" fill="#D45353"></path>
                            <polyline id="Path-9" stroke="#FFF6EB" stroke-width="0.75" stroke-linecap="round" stroke-linejoin="round" points="2.66666667 20.8913043 5.33333333 20.8913043 6.66666667 17.5217391 8 22.2391304 9.33333333 18.8695652 10.6666667 22.2391304 12.6666667 14.1521739 14.6666667 20.8913043 19.3333333 20.8913043"></polyline>
                        </g>
                    </g>
                </g>
            </g>
        </g>
    </g>
</svg>