<?xml version="1.0" encoding="UTF-8"?>
<svg width="574px" height="574px" viewBox="0 0 574 574" version="1.1" xmlns="http://www.w3.org/2000/svg" xmlns:xlink="http://www.w3.org/1999/xlink">
    <!-- Generator: Sketch 42 (36781) - http://www.bohemiancoding.com/sketch -->
    <title>4_sirkel_hjerte</title>
    <desc>Created with Sketch.</desc>
    <defs>
        <ellipse id="path-1" cx="286.875" cy="286.875" rx="286.875" ry="286.875"></ellipse>
        <mask id="mask-2" maskContentUnits="userSpaceOnUse" maskUnits="objectBoundingBox" x="0" y="0" width="573.75" height="573.75" fill="white">
            <use xlink:href="#path-1"></use>
        </mask>
        <ellipse id="path-3" cx="24.9568966" cy="24.9568966" rx="24.9568966" ry="24.9568966"></ellipse>
        <mask id="mask-4" maskContentUnits="userSpaceOnUse" maskUnits="objectBoundingBox" x="0" y="0" width="49.9137931" height="49.9137931" fill="white">
            <use xlink:href="#path-3"></use>
        </mask>
        <filter x="-50%" y="-50%" width="200%" height="200%" filterUnits="objectBoundingBox" id="filter-5">
            <feOffset dx="0" dy="1" in="SourceAlpha" result="shadowOffsetOuter1"></feOffset>
            <feGaussianBlur stdDeviation="0.5" in="shadowOffsetOuter1" result="shadowBlurOuter1"></feGaussianBlur>
            <feColorMatrix values="0 0 0 0 0   0 0 0 0 0   0 0 0 0 0  0 0 0 0.5 0" type="matrix" in="shadowBlurOuter1" result="shadowMatrixOuter1"></feColorMatrix>
            <feMerge>
                <feMergeNode in="shadowMatrixOuter1"></feMergeNode>
                <feMergeNode in="SourceGraphic"></feMergeNode>
            </feMerge>
        </filter>
    </defs>
    <g id="Page-1" stroke="none" stroke-width="1" fill="none" fill-rule="evenodd">
        <g id="Artboard" transform="translate(-3332.000000, -9679.000000)">
            <g id="4_sirkel_hjerte" transform="translate(3332.000000, 9679.000000)">
                <use id="6_sirkel_bakgrunn" stroke="#FFF6EB" mask="url(#mask-2)" stroke-width="8" fill="#395E84" xlink:href="#path-1"></use>
                <g id="president" transform="translate(226.000000, 132.000000)">
                    <g id="Group">
                        <g>
                            <path d="M24.3886364,287.443617 C19.3772727,294.959574 12.6954545,299.135106 11.025,304.646809 C8.35227273,313.331915 17.2056818,312.997872 22.8852273,311.661702 C28.8988636,310.325532 31.7386364,306.651064 35.0795455,305.648936 C43.0977273,303.310638 43.2647727,298.634043 40.0909091,287.443617 C36.9170455,276.253191 28.5647727,280.428723 24.3886364,287.443617 Z" id="Shape" fill="#211509"></path>
                            <path d="M75.3375,287.443617 C80.3488636,294.959574 87.0306818,299.135106 88.7011364,304.646809 C91.5409091,313.665957 81.6852273,312.997872 76.0056818,311.494681 C70.4931818,309.991489 67.6534091,306.651064 64.4795455,305.815957 C56.4613636,303.47766 56.2943182,298.801064 59.4681818,287.610638 C62.9761364,276.253191 71.3284091,280.428723 75.3375,287.443617 Z" id="Shape" fill="#211509"></path>
                            <path d="M29.0659091,190.905319 L85.5272727,190.905319 L80.85,293.623404 L57.4636364,293.623404 L62.1409091,219.131915 C62.475,212.785106 53.4545455,212.785106 52.6193182,219.131915 L42.2625,293.623404 L18.8761364,293.623404 L29.0659091,190.905319 Z" id="Shape" fill="#161616"></path>
                            <rect id="Rectangle-path" fill="#262626" x="29.0659091" y="109.732979" width="56.4613636" height="88.8553191"></rect>
                            <path d="M57.2965909,67.8106383 L57.2965909,67.8106383 C64.3125,67.8106383 69.9920455,73.4893617 69.9920455,80.5042553 L69.9920455,109.732979 C69.9920455,116.747872 64.3125,122.426596 57.2965909,122.426596 L57.2965909,122.426596 C50.2806818,122.426596 44.6011364,116.747872 44.6011364,109.732979 L44.6011364,80.6712766 C44.6011364,73.656383 50.2806818,67.8106383 57.2965909,67.8106383 Z" id="Shape" fill="#F2D8BD"></path>
                            <path d="M69.9920455,100.212766 L69.9920455,100.212766 C69.9920455,111.069149 44.6011364,111.069149 44.6011364,100.212766 L44.6011364,100.212766 C44.6011364,89.356383 69.9920455,89.356383 69.9920455,100.212766 Z" id="Shape" fill="#D4B89A"></path>
                            <path d="M57.2965909,0 C-14.5329545,0 2.83977273,104.221277 57.2965909,104.221277 C111.753409,104.221277 128.959091,0 57.2965909,0 Z" id="Shape" fill="#F2D8BD"></path>
                            <path d="M40.425,123.094681 L25.2238636,165.852128 C23.2193182,171.36383 17.2056818,174.203191 11.8602273,172.198936 L11.8602273,172.198936 C6.34772727,170.194681 3.50795455,164.181915 5.5125,158.837234 L20.7136364,116.079787 C24.8897727,103.720213 44.6011364,111.403191 40.425,123.094681 Z" id="Shape" fill="#262626"></path>
                            <g transform="translate(5.011364, 196.414894)" id="Shape" fill="#F2D8BD">
                                <path d="M18.375,1.33829787 L18.375,1.33829787 C19.7113636,1.33829787 20.8806818,2.50744681 20.8806818,3.84361702 L20.8806818,10.0234043 C20.8806818,11.3595745 19.7113636,12.5287234 18.375,12.5287234 L18.375,12.5287234 C17.0386364,12.5287234 15.8693182,11.3595745 15.8693182,10.0234043 L15.8693182,3.84361702 C15.8693182,2.50744681 17.0386364,1.33829787 18.375,1.33829787 Z"></path>
                                <path d="M21.0477273,3.84361702 L21.0477273,0.336170213 L0.334090909,0.670212766 L0.334090909,4.17765957 C0.668181818,19.2095745 21.3818182,21.3808511 21.0477273,3.84361702 Z"></path>
                            </g>
                            <path d="M25.8920455,196.918085 L25.725,164.181915 C25.725,158.33617 20.8806818,153.826596 15.0340909,153.826596 L15.0340909,153.826596 C9.1875,153.993617 4.67727273,158.670213 4.67727273,164.515957 L5.34545455,197.085106 L25.8920455,196.918085 Z" id="Shape" fill="#262626"></path>
                            <ellipse id="Oval" fill="#F2D8BD" transform="translate(10.678548, 58.621679) rotate(-14.323901) translate(-10.678548, -58.621679) " cx="10.6785477" cy="58.6216788" rx="6.8487745" ry="13.1945091"></ellipse>
                            <ellipse id="Oval" fill="#F2D8BD" transform="translate(103.849770, 58.636928) rotate(-75.676099) translate(-103.849770, -58.636928) " cx="103.84977" cy="58.6369279" rx="13.1964192" ry="6.84778321"></ellipse>
                            <path d="M56.6284091,121.591489 L56.6284091,121.591489 C57.2965909,121.591489 57.9647727,122.259574 57.9647727,122.92766 L57.9647727,122.92766 C57.9647727,123.595745 57.2965909,124.26383 56.6284091,124.26383 L56.6284091,124.26383 C55.9602273,124.26383 55.2920455,123.595745 55.2920455,122.92766 L55.2920455,122.92766 C55.4590909,122.259574 55.9602273,121.591489 56.6284091,121.591489 Z" id="Shape" fill="#FCFCFC"></path>
                            <path d="M46.1045455,125.6 L57.9647727,157.167021 L69.825,121.591489 L61.9738636,120.589362 L57.2965909,122.593617 C56.9625,122.760638 56.4613636,122.760638 56.1272727,122.593617 L51.45,120.255319 L46.2715909,124.26383" id="Shape" fill="#FFFFFF"></path>
                            <polygon id="Shape" fill="#FFFFFF" points="44.1 105.390426 39.9238636 110.234043 45.1022727 130.443617 53.6215909 120.088298"></polygon>
                            <polygon id="Shape" fill="#FFFFFF" points="71.3284091 105.390426 75.5045455 110.234043 70.3261364 130.443617 61.6397727 120.088298"></polygon>
                            <path d="M62.6420455,121.257447 C61.1386364,122.259574 59.1340909,122.426596 57.2965909,122.426596 L61.8068182,120.088298 L62.6420455,121.257447 L62.6420455,121.257447 Z M57.2965909,122.593617 L53.7886364,120.255319 L52.6193182,121.758511 C53.9556818,122.259574 55.6261364,122.593617 57.2965909,122.593617 Z" id="Shape" fill="#FFFFFF"></path>
                            <polygon id="Shape" fill="#FFFFFF" points="5.34545455 197.085106 5.34545455 192.575532 25.8920455 192.408511 25.8920455 196.918085"></polygon>
                            <g transform="translate(73.500000, 109.563830)" id="Shape">
                                <path d="M1.50340909,15.3680851 L23.8875,54.7851064 C26.7272727,59.7957447 33.2420455,61.6329787 38.2534091,58.793617 L38.2534091,58.793617 C43.2647727,55.9542553 45.1022727,49.4404255 42.2625,44.4297872 L19.7113636,5.01276596 C13.1965909,-6.34468085 -4.67727273,4.51170213 1.50340909,15.3680851 Z" fill="#262626"></path>
                                <g transform="translate(25.056818, 42.425532)">
                                    <path d="M28.7318182,43.9265957 L26.3931818,41.4212766 L41.0931818,27.0574468 L43.4318182,29.562766 C53.9556818,40.4191489 40.7590909,56.4531915 28.7318182,43.9265957 Z" fill="#F2D8BD"></path>
                                    <path d="M26.2261364,41.4212766 L3.17386364,18.0382979 C-0.835227273,13.862766 -0.668181818,7.18191489 3.50795455,3.17340426 L3.50795455,3.17340426 C7.68409091,-0.835106383 14.3659091,-0.668085106 18.375,3.50744681 L40.9261364,27.0574468 L26.2261364,41.4212766 Z" fill="#262626"></path>
                                    <polygon fill="#FFFFFF" points="26.2261364 41.4212766 23.2193182 38.2478723 37.9193182 23.8840426 41.0931818 27.0574468"></polygon>
                                </g>
                            </g>
                            <rect id="Rectangle-path" fill="#FF0000" transform="translate(57.415761, 125.005705) rotate(48.531096) translate(-57.415761, -125.005705) " x="55.4112564" y="123.00149" width="4.00900938" height="4.00842912"></rect>
                            <polygon id="Shape" fill="#FF0000" points="57.7977273 157.668085 51.7840909 140.631915 57.4636364 127.437234 63.6443182 139.96383"></polygon>
                        </g>
                        <g transform="translate(33.409091, 42.755319)" id="Shape" fill-rule="nonzero">
                            <path d="M5.01136364,6.68297872 C5.01136364,7.51808511 4.00909091,8.18617021 2.83977273,8.18617021 L2.83977273,8.18617021 C1.67045455,8.18617021 0.668181818,7.51808511 0.668181818,6.68297872 L0.668181818,1.8393617 C0.668181818,1.00425532 1.67045455,0.336170213 2.83977273,0.336170213 L2.83977273,0.336170213 C4.00909091,0.336170213 5.01136364,1.00425532 5.01136364,1.8393617 L5.01136364,6.68297872 Z" fill="#2C2A2E"></path>
                            <path d="M43.4318182,6.68297872 C43.4318182,7.51808511 42.4295455,8.18617021 41.2602273,8.18617021 L41.2602273,8.18617021 C40.0909091,8.18617021 39.0886364,7.51808511 39.0886364,6.68297872 L39.0886364,1.8393617 C39.0886364,1.00425532 40.0909091,0.336170213 41.2602273,0.336170213 L41.2602273,0.336170213 C42.4295455,0.336170213 43.4318182,1.00425532 43.4318182,1.8393617 L43.4318182,6.68297872 Z" fill="#2C2A2E"></path>
                            <path d="M17.2056818,20.712766 C19.5443182,21.5478723 21.2147727,22.2159574 22.7181818,22.2159574 C23.3863636,22.2159574 24.0545455,22.2159574 25.0568182,21.8819149 C25.5579545,21.7148936 25.8920455,21.5478723 26.3931818,21.3808511 C26.8943182,21.2138298 27.3954545,20.8797872 28.0636364,20.712766 C28.0636364,21.3808511 27.7295455,21.8819149 27.5625,22.55 C27.2284091,23.0510638 26.8943182,23.7191489 26.3931818,24.0531915 C25.5579545,25.0553191 24.0545455,25.556383 22.5511364,25.556383 C21.0477273,25.556383 19.7113636,24.8882979 18.8761364,24.0531915 C17.8738636,23.2180851 17.2056818,22.0489362 17.2056818,20.712766 Z" fill="#D1AB8B"></path>
                        </g>
                        <path d="M43.7659091,82.8425532 C46.2715909,83.8446809 48.6102273,84.6797872 50.7818182,85.1808511 C52.9534091,85.8489362 55.2920455,86.0159574 57.2965909,86.0159574 C59.4681818,86.0159574 61.6397727,85.8489362 63.8113636,85.1808511 C64.9806818,85.0138298 65.9829545,84.512766 67.3193182,84.1787234 C68.4886364,83.8446809 69.6579545,83.1765957 70.9943182,82.8425532 C70.3261364,84.0117021 69.4909091,85.1808511 68.6556818,86.1829787 C68.1545455,86.6840426 67.6534091,87.1851064 67.1522727,87.5191489 C66.6511364,88.0202128 66.15,88.3542553 65.4818182,88.6882979 C63.1431818,90.1914894 60.1363636,91.0265957 57.2965909,91.0265957 C54.4568182,91.0265957 51.6170455,90.1914894 49.1113636,88.6882979 C46.9397727,87.3521277 44.9352273,85.3478723 43.7659091,82.8425532 Z" id="Shape" fill="#2C2A2E" fill-rule="nonzero"></path>
                    </g>
                </g>
                <g id="6_hjerte-copy" transform="translate(258.000000, 244.000000)">
                    <use id="Oval-2-Copy-2" stroke="#FFF6EB" mask="url(#mask-4)" stroke-width="3.2" fill="#182736" xlink:href="#path-3"></use>
                    <g id="Group" filter="url(#filter-5)" transform="translate(15.517241, 11.206897)" fill-rule="nonzero" fill="#D45353">
                        <path d="M6.15097856,2.83524904 C6.07409133,3.60153257 5.9972041,4.59770115 5.9972041,5.59386973 C6.09972041,5.6449553 6.20223672,5.69604087 6.33038211,5.77266922 C6.35601118,5.77266922 6.38164026,5.74712644 6.40726934,5.74712644 C7.04799627,4.06130268 8.50885368,2.22222222 11.8662628,1.78799489 C11.0973905,1.07279693 10.4566636,1.07279693 10.4054054,1.09833972 C10.3028891,1.09833972 10.2003728,1.07279693 10.1234856,0.996168582 C10.0465983,0.91954023 9.99534017,0.817369093 9.99534017,0.715197957 L9.99534017,0 L7.94501398,0.102171137 L7.68872321,1.40485313 C7.66309413,1.50702427 7.61183597,1.6091954 7.50931966,1.66028097 C6.97110904,1.99233716 6.50978565,2.37547893 6.15097856,2.83524904 Z" id="Shape"></path>
                        <path d="M3.63932898,5.0063857 C4.15191053,5.0063857 4.69012116,5.10855683 5.22833178,5.26181354 C5.25396086,3.65261814 5.4333644,2.14559387 5.53588071,1.53256705 L4.0750233,0.715197957 C3.48555452,1.66028097 3.02423113,3.57598978 2.74231128,5.08301405 C3.02423113,5.03192848 3.33178006,5.0063857 3.63932898,5.0063857 Z" id="Shape"></path>
                        <path d="M15.915657,4.24010217 L16.0181733,4.57215837 C16.0438024,4.6743295 16.0438024,4.80204342 15.9669152,4.90421456 C15.890028,5.0063857 15.7875116,5.05747126 15.6593663,5.05747126 C14.8648649,5.08301405 12.7376514,5.36398467 12.2763281,6.43678161 C11.7124884,7.7394636 13.2758621,8.63346105 13.5577819,8.78671775 C14.7110904,9.06768838 15.7106244,9.47637292 16.556384,9.98722861 C16.889562,8.8633461 17.4277726,7.45849298 18.5298229,7.02426564 L18.2735322,6.33461047 C17.7096925,6.41123883 16.9664492,6.59003831 16.6589003,6.84546616 C16.5307549,6.94763729 16.3513514,6.94763729 16.223206,6.87100894 C16.0950606,6.7688378 16.0181733,6.6155811 16.0694315,6.46232439 C16.0950606,6.33461047 16.4282386,5.23627075 17.1458527,4.6743295 L16.8639329,4.0357599 L15.915657,4.24010217 Z" id="Shape"></path>
                        <path d="M1.1276794,6.81992337 C-0.0512581547,7.96934866 0.205032619,11.0855683 0.512581547,13.0012771 C0.640726934,12.4648787 0.794501398,11.954023 0.973904939,11.4687101 C2.07595527,8.27586207 4.10065238,6.79438059 5.38210624,6.1302682 C4.81826654,5.90038314 4.22879776,5.74712644 3.63932898,5.74712644 C2.69105312,5.77266922 1.81966449,6.1302682 1.1276794,6.81992337 Z" id="Shape"></path>
                        <path d="M18.1710158,12.6692209 C17.4277726,11.2899106 16.0694315,10.3192848 14.0703635,9.70625798 C14.3522833,10.4980843 14.7110904,11.8263091 14.4547996,13.3077905 C14.4291705,13.5632184 14.3266542,15.5810983 15.5312209,16.4750958 C16.1719478,16.9348659 16.9920783,16.8326948 17.6328052,16.1941252 C17.7865797,16.0408685 18.0172414,16.0408685 18.1710158,16.1941252 C18.3247903,16.3473819 18.3247903,16.5772669 18.1710158,16.7305236 C17.7353215,17.164751 17.22274,17.4201788 16.7101584,17.4968072 C17.3252563,18.6717752 16.8126747,20.3320562 16.7870457,20.4086845 C16.7357875,20.5619413 16.582013,20.6641124 16.4282386,20.6641124 C16.4026095,20.6641124 16.3513514,20.6641124 16.3000932,20.6385696 C16.0950606,20.587484 15.9925443,20.357599 16.0438024,20.1532567 C16.0438024,20.1277139 16.7357875,17.9054917 15.5055918,17.2924649 C14.5316869,16.807152 14.0703635,15.9131545 13.8653308,15.0702427 C13.7628145,15.2745849 13.6346692,15.5300128 13.5065238,15.7598978 L13.5065238,15.7598978 C13.3527493,16.0664112 13.1733458,16.3729246 12.9939422,16.7049808 C11.4049394,19.642401 9.02143523,24.0357599 10.1747437,26.8965517 C11.0205033,27.2030651 11.8406337,27.3563218 12.5582479,27.3563218 L12.5582479,27.3563218 C14.582945,27.3563218 16.0438024,26.2068966 16.9151911,23.7803321 C18.4529357,19.5913155 19.7087605,15.5555556 18.1710158,12.6692209 Z" id="Shape"></path>
                        <path d="M6.04846226,24.6487867 C7.17614166,25.4916986 8.25256291,26.1302682 9.22646785,26.5644955 C8.4832246,23.4993614 10.610438,19.4636015 12.1481827,16.6283525 C11.7124884,16.807152 11.251165,16.9093231 10.8154706,17.037037 C10.6360671,17.0881226 10.4566636,17.1392082 10.27726,17.164751 C9.91845294,17.2924649 9.55964585,17.4201788 9.22646785,17.5478927 C9.09832246,17.5989783 8.99580615,17.6756066 8.86766076,17.752235 C7.81686859,18.4929757 7.9193849,19.8722861 7.9193849,19.8978289 C7.94501398,20.1021711 7.76561044,20.2809706 7.56057782,20.3065134 L7.53494874,20.3065134 C7.32991612,20.3065134 7.17614166,20.1532567 7.15051258,19.9489144 C7.15051258,19.8978289 7.09925443,18.9782886 7.56057782,18.109834 C6.45852749,18.4418902 5.48462255,18.6462324 4.53634669,18.6462324 C4.33131407,18.6462324 4.15191053,18.467433 4.15191053,18.2630907 C4.15191053,18.0587484 4.33131407,17.8799489 4.53634669,17.8799489 C5.35647717,17.8799489 6.20223672,17.7266922 7.15051258,17.4457216 C5.48462255,17.394636 5.12581547,16.8837803 4.97204101,16.6794381 C4.84389562,16.5006386 4.89515377,16.2707535 5.04892824,16.1430396 C5.22833178,16.0153257 5.45899348,16.0664112 5.58713886,16.2196679 C5.71528425,16.3984674 6.43289842,16.9859515 10.0465983,16.4240102 C10.2260019,16.3729246 10.4054054,16.3218391 10.5848089,16.2707535 C11.4049394,16.0664112 12.1994408,15.862069 12.7889096,15.3767561 C12.9683131,15.0191571 13.1477167,14.7126437 13.2758621,14.4316731 C14.3010252,12.183908 13.3014911,9.88505747 13.0708295,9.39974457 C12.1738117,8.91443167 10.8410997,7.68837803 11.5074557,6.1302682 C12.0969245,4.77650064 14.1216216,4.41890166 15.0955266,4.31673052 L14.6085741,2.55427842 C14.1728798,2.50319285 13.7371855,2.47765006 13.3014911,2.47765006 C11.0461323,2.47765006 8.12441752,3.11621967 7.04799627,6.15581098 C6.99673812,6.2835249 6.89422181,6.36015326 6.76607642,6.41123883 C6.63793103,6.46232439 3.22926375,7.30523627 1.71714818,11.7496807 C0.922646785,14.0740741 -0.948275862,19.4636015 6.04846226,24.6487867 Z" id="Shape"></path>
                    </g>
                </g>
            </g>
        </g>
    </g>
</svg>