<?xml version="1.0" encoding="UTF-8"?>
<svg width="574px" height="574px" viewBox="0 0 574 574" version="1.1" xmlns="http://www.w3.org/2000/svg" xmlns:xlink="http://www.w3.org/1999/xlink">
    <!-- Generator: Sketch 42 (36781) - http://www.bohemiancoding.com/sketch -->
    <title>4_sirkel_overvekt</title>
    <desc>Created with Sketch.</desc>
    <defs>
        <ellipse id="path-1" cx="286.875" cy="286.875" rx="286.875" ry="286.875"></ellipse>
        <mask id="mask-2" maskContentUnits="userSpaceOnUse" maskUnits="objectBoundingBox" x="0" y="0" width="573.75" height="573.75" fill="white">
            <use xlink:href="#path-1"></use>
        </mask>
    </defs>
    <g id="Page-1" stroke="none" stroke-width="1" fill="none" fill-rule="evenodd">
        <g id="Artboard" transform="translate(-3981.000000, -10399.000000)">
            <g id="4_sirkel_overvekt" transform="translate(3981.000000, 10399.000000)">
                <use id="6_sirkel_bakgrunn" stroke="#FFF6EB" mask="url(#mask-2)" stroke-width="8" fill="#395E84" xlink:href="#path-1"></use>
                <g id="president" transform="translate(216.000000, 137.000000)">
                    <g id="Group">
                        <g>
                            <path d="M34.3886364,282.443617 C29.3772727,289.959574 22.6954545,294.135106 21.025,299.646809 C18.3522727,308.331915 27.2056818,307.997872 32.8852273,306.661702 C38.8988636,305.325532 41.7386364,301.651064 45.0795455,300.648936 C53.0977273,298.310638 53.2647727,293.634043 50.0909091,282.443617 C46.9170455,271.253191 38.5647727,275.428723 34.3886364,282.443617 Z" id="Shape" fill="#211509"></path>
                            <path d="M85.3375,282.443617 C90.3488636,289.959574 97.0306818,294.135106 98.7011364,299.646809 C101.540909,308.665957 91.6852273,307.997872 86.0056818,306.494681 C80.4931818,304.991489 77.6534091,301.651064 74.4795455,300.815957 C66.4613636,298.47766 66.2943182,293.801064 69.4681818,282.610638 C72.9761364,271.253191 81.3284091,275.428723 85.3375,282.443617 Z" id="Shape" fill="#211509"></path>
                            <path d="M39.0659091,185.905319 L95.5272727,185.905319 L90.85,288.623404 L67.4636364,288.623404 L72.1409091,214.131915 C72.475,207.785106 63.4545455,207.785106 62.6193182,214.131915 L52.2625,288.623404 L28.8761364,288.623404 L39.0659091,185.905319 Z" id="Shape" fill="#161616"></path>
                            <path d="M30,127 C30,92 95.5272727,104.732979 95.5272727,104.732979 C95.5272727,104.732979 130.115341,171.374468 116,193.588298 C101.884659,215.802128 38.1153409,215.802128 24,193.588298 C9.88465909,171.374468 30,162 30,127 Z" id="Rectangle-path" fill="#262626"></path>
                            <path d="M67.2965909,62.8106383 L67.2965909,62.8106383 C74.3125,62.8106383 79.9920455,68.4893617 79.9920455,75.5042553 L79.9920455,104.732979 C79.9920455,111.747872 74.3125,117.426596 67.2965909,117.426596 L67.2965909,117.426596 C60.2806818,117.426596 54.6011364,111.747872 54.6011364,104.732979 L54.6011364,75.6712766 C54.6011364,68.656383 60.2806818,62.8106383 67.2965909,62.8106383 Z" id="Shape" fill="#F2D8BD"></path>
                            <path d="M79.9920455,95.212766 L79.9920455,95.212766 C79.9920455,106.069149 54.6011364,106.069149 54.6011364,95.212766 L54.6011364,95.212766 C54.6011364,84.356383 79.9920455,84.356383 79.9920455,95.212766 Z" id="Shape" fill="#D4B89A"></path>
                            <path d="M35.5553101,118.318776 L20.3541737,161.076223 C18.3496282,166.587925 12.3359919,169.427287 6.99053734,167.423032 C1.47803734,165.418776 -1.36173539,159.40601 0.642810065,154.061329 L15.8439464,111.303883 C20.0200828,98.9443081 69,105 35.5553101,118.318776 Z" id="Shape" fill="#262626"></path>
                            <g transform="translate(0.000000, 192.000000)" id="Shape" fill="#F2D8BD">
                                <path d="M18.375,1.33829787 L18.375,1.33829787 C19.7113636,1.33829787 20.8806818,2.50744681 20.8806818,3.84361702 L20.8806818,10.0234043 C20.8806818,11.3595745 19.7113636,12.5287234 18.375,12.5287234 L18.375,12.5287234 C17.0386364,12.5287234 15.8693182,11.3595745 15.8693182,10.0234043 L15.8693182,3.84361702 C15.8693182,2.50744681 17.0386364,1.33829787 18.375,1.33829787 Z"></path>
                                <path d="M21.0477273,3.84361702 L21.0477273,0.336170213 L0.334090909,0.670212766 L0.334090909,4.17765957 C0.668181818,19.2095745 21.3818182,21.3808511 21.0477273,3.84361702 Z"></path>
                            </g>
                            <path d="M21.2147727,192.091489 L21.0477273,159.355319 C21.0477273,153.509574 16.2034091,149 10.3568182,149 C4.51022727,149.167021 0,153.843617 0,159.689362 L0.668181818,192.258511 L21.2147727,192.091489 Z" id="Shape" fill="#262626"></path>
                            <ellipse id="Oval" fill="#F2D8BD" transform="translate(20.678548, 53.621679) rotate(-14.323901) translate(-20.678548, -53.621679) " cx="20.6785477" cy="53.6216788" rx="6.8487745" ry="13.1945091"></ellipse>
                            <ellipse id="Oval" fill="#F2D8BD" transform="translate(113.849770, 53.636928) rotate(-75.676099) translate(-113.849770, -53.636928) " cx="113.84977" cy="53.6369279" rx="13.1964192" ry="6.84778321"></ellipse>
                            <path d="M66.6284091,116.591489 L66.6284091,116.591489 C67.2965909,116.591489 67.9647727,117.259574 67.9647727,117.92766 L67.9647727,117.92766 C67.9647727,118.595745 67.2965909,119.26383 66.6284091,119.26383 L66.6284091,119.26383 C65.9602273,119.26383 65.2920455,118.595745 65.2920455,117.92766 L65.2920455,117.92766 C65.4590909,117.259574 65.9602273,116.591489 66.6284091,116.591489 Z" id="Shape" fill="#FCFCFC"></path>
                            <path d="M56.1045455,120.6 L67.9647727,152.167021 L79.825,116.591489 C79.825,116.591489 74.3883477,117.402577 72,117.593617 C69.6116523,117.784657 67.2965909,117.593617 67.2965909,117.593617 C66.9625,117.760638 66.4613636,117.760638 66.1272727,117.593617 C66.1272727,117.593617 63.6645571,117.548446 61,118 C58.3354429,118.451554 56.2715909,119.26383 56.2715909,119.26383" id="Shape" fill="#FFFFFF"></path>
                            <path d="M59,117 C56.9326355,116.600698 55.1022727,116 55.1022727,116 L55.1022727,125.443617 C55.1022727,125.443617 64.3934156,119.314039 65,118 C65.6065844,116.685961 61.0673645,117.399302 59,117 Z" id="Shape" fill="#FFFFFF"></path>
                            <path d="M83.8238636,111.156383 C95,105 83.0340055,111.466559 81,117 C78.9659945,122.533441 78,127 78,127 L70,121 C70,121 72.6477273,117.312766 83.8238636,111.156383 Z" id="Shape" fill="#FFFFFF"></path>
                            <polygon id="Shape" fill="#FFFFFF" points="0 192.676596 0 188.167021 20.5465909 188 20.5465909 192.509574"></polygon>
                            <g transform="translate(83.500000, 104.563830)" id="Shape">
                                <path d="M1.50340909,15.3680851 L23.8875,54.7851064 C26.7272727,59.7957447 33.2420455,61.6329787 38.2534091,58.793617 L38.2534091,58.793617 C43.2647727,55.9542553 45.1022727,49.4404255 42.2625,44.4297872 L19.7113636,5.01276596 C13.1965909,-6.34468085 -4.67727273,4.51170213 1.50340909,15.3680851 Z" fill="#262626"></path>
                                <g transform="translate(14.056818, 21.425532)">
                                    <path d="M39.7318182,64.9265957 L37.3931818,62.4212766 L52.0931818,48.0574468 L54.4318182,50.562766 C64.9556818,61.4191489 51.7590909,77.4531915 39.7318182,64.9265957 Z" fill="#F2D8BD"></path>
                                    <path d="M37.2261364,62.4212766 L14.1738636,39.0382979 C10.1647727,34.862766 -2.73295455,5.01914894 1.44318182,1.0106383 C5.61931818,-2.99787234 14.5079545,24.1734043 14.5079545,24.1734043 C18.6840909,20.1648936 12.3011364,-2.83085106 16.3102273,1.34468085 L51.9261364,48.0574468 L37.2261364,62.4212766 Z" fill="#262626"></path>
                                    <polygon fill="#FFFFFF" points="37.2261364 62.4212766 34.2193182 59.2478723 48.9193182 44.8840426 52.0931818 48.0574468"></polygon>
                                </g>
                            </g>
                            <rect id="Rectangle-path" fill="#FF0000" transform="translate(67.415761, 120.005705) rotate(48.531096) translate(-67.415761, -120.005705) " x="65.4112564" y="118.00149" width="4.00900938" height="4.00842912"></rect>
                            <polygon id="Shape" fill="#FF0000" points="67.7977273 152.668085 61.7840909 135.631915 67.4636364 122.437234 73.6443182 134.96383"></polygon>
                            <path d="M67.2965909,6.34940989e-11 C-4.40681818,6.36631104e-11 12.8397727,118 67.2965909,118 C121.753409,118 139,6.33235686e-11 67.2965909,6.34940989e-11 Z" id="Shape" fill="#F2D8BD"></path>
                            <path d="M88,96 C88,96 65.8948096,111 49.9474048,96" id="Path-2" stroke="#C3B39E"></path>
                        </g>
                        <g transform="translate(43.409091, 37.755319)" id="Shape" fill-rule="nonzero">
                            <path d="M5.01136364,6.68297872 C5.01136364,7.51808511 4.00909091,8.18617021 2.83977273,8.18617021 L2.83977273,8.18617021 C1.67045455,8.18617021 0.668181818,7.51808511 0.668181818,6.68297872 L0.668181818,1.8393617 C0.668181818,1.00425532 1.67045455,0.336170213 2.83977273,0.336170213 L2.83977273,0.336170213 C4.00909091,0.336170213 5.01136364,1.00425532 5.01136364,1.8393617 L5.01136364,6.68297872 Z" fill="#2C2A2E"></path>
                            <path d="M43.4318182,6.68297872 C43.4318182,7.51808511 42.4295455,8.18617021 41.2602273,8.18617021 L41.2602273,8.18617021 C40.0909091,8.18617021 39.0886364,7.51808511 39.0886364,6.68297872 L39.0886364,1.8393617 C39.0886364,1.00425532 40.0909091,0.336170213 41.2602273,0.336170213 L41.2602273,0.336170213 C42.4295455,0.336170213 43.4318182,1.00425532 43.4318182,1.8393617 L43.4318182,6.68297872 Z" fill="#2C2A2E"></path>
                            <path d="M17.2056818,20.712766 C19.5443182,21.5478723 21.2147727,22.2159574 22.7181818,22.2159574 C23.3863636,22.2159574 24.0545455,22.2159574 25.0568182,21.8819149 C25.5579545,21.7148936 25.8920455,21.5478723 26.3931818,21.3808511 C26.8943182,21.2138298 27.3954545,20.8797872 28.0636364,20.712766 C28.0636364,21.3808511 27.7295455,21.8819149 27.5625,22.55 C27.2284091,23.0510638 26.8943182,23.7191489 26.3931818,24.0531915 C25.5579545,25.0553191 24.0545455,25.556383 22.5511364,25.556383 C21.0477273,25.556383 19.7113636,24.8882979 18.8761364,24.0531915 C17.8738636,23.2180851 17.2056818,22.0489362 17.2056818,20.712766 Z" fill="#D1AB8B"></path>
                        </g>
                        <path d="M53.7659091,77.8425532 C56.2715909,78.8446809 58.6102273,79.6797872 60.7818182,80.1808511 C62.9534091,80.8489362 65.2920455,81.0159574 67.2965909,81.0159574 C69.4681818,81.0159574 71.6397727,80.8489362 73.8113636,80.1808511 C74.9806818,80.0138298 75.9829545,79.512766 77.3193182,79.1787234 C78.4886364,78.8446809 79.6579545,78.1765957 80.9943182,77.8425532 C80.3261364,79.0117021 79.4909091,80.1808511 78.6556818,81.1829787 C78.1545455,81.6840426 77.6534091,82.1851064 77.1522727,82.5191489 C76.6511364,83.0202128 76.15,83.3542553 75.4818182,83.6882979 C73.1431818,85.1914894 70.1363636,86.0265957 67.2965909,86.0265957 C64.4568182,86.0265957 61.6170455,85.1914894 59.1113636,83.6882979 C56.9397727,82.3521277 54.9352273,80.3478723 53.7659091,77.8425532 Z" id="Shape" fill="#2C2A2E" fill-rule="nonzero"></path>
                    </g>
                </g>
            </g>
        </g>
    </g>
</svg>