<?xml version="1.0" encoding="UTF-8"?>
<svg width="109px" height="109px" viewBox="0 0 109 109" version="1.1" xmlns="http://www.w3.org/2000/svg" xmlns:xlink="http://www.w3.org/1999/xlink">
    <!-- Generator: Sketch 42 (36781) - http://www.bohemiancoding.com/sketch -->
    <title>6_fettlever</title>
    <desc>Created with Sketch.</desc>
    <defs>
        <ellipse id="path-1" cx="54.5" cy="54.5" rx="54.5" ry="54.5"></ellipse>
        <mask id="mask-2" maskContentUnits="userSpaceOnUse" maskUnits="objectBoundingBox" x="0" y="0" width="109" height="109" fill="white">
            <use xlink:href="#path-1"></use>
        </mask>
    </defs>
    <g id="Page-1" stroke="none" stroke-width="1" fill="none" fill-rule="evenodd">
        <g id="PINK" transform="translate(-241.000000, -8399.000000)">
            <g id="6_fettlever" transform="translate(241.000000, 8399.000000)">
                <use id="Oval-2-Copy-8" stroke="#E9E9E9" mask="url(#mask-2)" stroke-width="4" fill="#47719D" xlink:href="#path-1"></use>
                <g id="Lever" transform="translate(25.000000, 36.000000)" fill-rule="nonzero" fill="#EBE0D2">
                    <path d="M16.5436893,32.5365079 C17.3592233,33.3 18.2330097,33.652381 18.9320388,33.4174603 C19.631068,33.1825397 20.2718447,32.4190476 20.6213592,31.1269841 C19.1067961,31.6555556 17.7087379,32.1253968 16.5436893,32.5365079 Z" id="Shape"></path>
                    <path d="M55.0485437,12.0984127 C55.3980583,11.5698413 55.7475728,11.1 56.1553398,10.5714286 C58.368932,7.51746032 60.5242718,4.63968254 59.6504854,2.9952381 C58.6601942,1.05714286 53.5339806,0.0587301587 44.4466019,0.0587301587 L44.1553398,0.0587301587 C41.8252427,3.46507937 41.0679612,7.57619048 40.8349515,10.3952381 C41.3592233,13.5079365 40.9514563,16.7968254 39.6116505,20.3206349 C42.815534,19.9095238 50.6213592,18.2650794 55.0485437,12.0984127 Z" id="Shape"></path>
                    <path d="M36.1165049,0.293650794 L35.6504854,0.293650794 C37.4563107,2.29047619 38.7961165,4.34603175 39.7281553,6.4015873 C40.2524272,4.05238095 41.0679612,1.93809524 42.1747573,0.117460317 C40.2524272,0.117460317 38.2718447,0.176190476 36.1165049,0.293650794 Z" id="Shape"></path>
                    <path d="M37.5145631,20.7904762 C38.9708738,17.384127 39.5533981,14.2126984 39.1456311,11.1587302 C39.0873786,11.0412698 39.0291262,10.8650794 39.0291262,10.6888889 L39.0291262,10.5714286 C38.4466019,7.04761905 36.4660194,3.7 33.2038835,0.352380952 L32.6796117,0.352380952 C30.407767,0.352380952 28.1359223,0.293650794 25.8640777,0.176190476 C23.6504854,0.117460317 21.5533981,0 19.4563107,0 C12.9902913,0 6.58252427,0.646031746 3.55339806,5.52063492 C-0.757281553,12.3920635 0.174757282,19.4396825 0.990291262,25.6063492 C1.16504854,26.9571429 1.33980583,28.1904762 1.45631068,29.4825397 C1.86407767,33.8873016 2.5631068,36.8825397 4.54368932,36.8825397 C6.17475728,36.8825397 8.73786408,35.2968254 12.1165049,32.1253968 C12.2330097,32.0079365 12.3495146,31.9492063 12.4660194,31.9492063 C12.7572816,31.8904762 32.8543689,25.7238095 37.5145631,20.7904762 Z" id="Shape"></path>
                </g>
                <g id="Drops" transform="translate(34.000000, 40.000000)" fill="#9E9386">
                    <circle id="Oval-11" cx="2.5" cy="5.5" r="1.5"></circle>
                    <circle id="Oval-11-Copy" cx="23.5" cy="11.5" r="1.5"></circle>
                    <circle id="Oval-11-Copy-2" cx="1.5" cy="21.5" r="1.5"></circle>
                    <circle id="Oval-11-Copy-3" cx="40.5" cy="1.5" r="1.5"></circle>
                    <circle id="Oval-11-Copy-4" cx="14.5" cy="1.5" r="1.5"></circle>
                    <circle id="Oval-11-Copy-5" cx="10.5" cy="13.5" r="1.5"></circle>
                </g>
            </g>
        </g>
    </g>
</svg>