<?xml version="1.0" encoding="UTF-8"?>
<svg width="145px" height="145px" viewBox="0 0 145 145" version="1.1" xmlns="http://www.w3.org/2000/svg" xmlns:xlink="http://www.w3.org/1999/xlink">
    <!-- Generator: Sketch 42 (36781) - http://www.bohemiancoding.com/sketch -->
    <title>6_hjerte</title>
    <desc>Created with Sketch.</desc>
    <defs>
        <ellipse id="path-1" cx="72.375" cy="72.375" rx="72.375" ry="72.375"></ellipse>
        <mask id="mask-2" maskContentUnits="userSpaceOnUse" maskUnits="objectBoundingBox" x="0" y="0" width="144.75" height="144.75" fill="white">
            <use xlink:href="#path-1"></use>
        </mask>
        <filter x="-50%" y="-50%" width="200%" height="200%" filterUnits="objectBoundingBox" id="filter-3">
            <feOffset dx="0" dy="1" in="SourceAlpha" result="shadowOffsetOuter1"></feOffset>
            <feColorMatrix values="0 0 0 0 0   0 0 0 0 0   0 0 0 0 0  0 0 0 0.5 0" type="matrix" in="shadowOffsetOuter1" result="shadowMatrixOuter1"></feColorMatrix>
            <feMerge>
                <feMergeNode in="shadowMatrixOuter1"></feMergeNode>
                <feMergeNode in="SourceGraphic"></feMergeNode>
            </feMerge>
        </filter>
    </defs>
    <g id="Page-1" stroke="none" stroke-width="1" fill="none" fill-rule="evenodd">
        <g id="PINK" transform="translate(-149.000000, -8174.000000)">
            <g id="6_hjerte" transform="translate(149.000000, 8174.000000)">
                <use id="Oval-2-Copy-2" stroke="#FFF6EB" mask="url(#mask-2)" stroke-width="8" fill="#D45353" xlink:href="#path-1"></use>
                <g id="Group" filter="url(#filter-3)" transform="translate(50.000000, 40.000000)" fill-rule="nonzero" fill="#FFF6EB">
                    <path d="M14.5945946,6.75 C14.4121622,8.57432432 14.2297297,10.9459459 14.2297297,13.3175676 C14.472973,13.4391892 14.7162162,13.5608108 15.0202703,13.7432432 C15.0810811,13.7432432 15.1418919,13.6824324 15.2027027,13.6824324 C16.722973,9.66891892 20.1891892,5.29054054 28.1554054,4.25675676 C26.3310811,2.55405405 24.8108108,2.55405405 24.6891892,2.61486486 C24.4459459,2.61486486 24.2027027,2.55405405 24.0202703,2.37162162 C23.8378378,2.18918919 23.7162162,1.94594595 23.7162162,1.7027027 L23.7162162,0 L18.8513514,0.243243243 L18.2432432,3.34459459 C18.1824324,3.58783784 18.0608108,3.83108108 17.8175676,3.9527027 C16.5405405,4.74324324 15.4459459,5.65540541 14.5945946,6.75 Z" id="Shape"></path>
                    <path d="M8.63513514,11.9189189 C9.85135135,11.9189189 11.1283784,12.1621622 12.4054054,12.527027 C12.4662162,8.69594595 12.8918919,5.10810811 13.1351351,3.64864865 L9.66891892,1.7027027 C8.27027027,3.9527027 7.17567568,8.51351351 6.50675676,12.1013514 C7.17567568,11.9797297 7.90540541,11.9189189 8.63513514,11.9189189 Z" id="Shape"></path>
                    <path d="M37.7635135,10.0945946 L38.0067568,10.8851351 C38.0675676,11.1283784 38.0675676,11.4324324 37.8851351,11.6756757 C37.7027027,11.9189189 37.4594595,12.0405405 37.1554054,12.0405405 C35.2702703,12.1013514 30.222973,12.7702703 29.1283784,15.3243243 C27.7905405,18.4256757 31.5,20.5540541 32.1689189,20.9189189 C34.9054054,21.5878378 37.277027,22.5608108 39.2837838,23.777027 C40.0743243,21.1013514 41.3513514,17.7567568 43.9662162,16.722973 L43.3581081,15.0810811 C42.0202703,15.2635135 40.2567568,15.6891892 39.527027,16.2972973 C39.222973,16.5405405 38.7972973,16.5405405 38.4932432,16.3581081 C38.1891892,16.1148649 38.0067568,15.75 38.1283784,15.3851351 C38.1891892,15.0810811 38.9797297,12.4662162 40.6824324,11.1283784 L40.0135135,9.60810811 L37.7635135,10.0945946 Z" id="Shape"></path>
                    <path d="M2.67567568,16.2364865 C-0.121621622,18.972973 0.486486486,26.3918919 1.21621622,30.9527027 C1.52027027,29.6756757 1.88513514,28.4594595 2.31081081,27.3040541 C4.92567568,19.7027027 9.72972973,16.1756757 12.7702703,14.5945946 C11.4324324,14.0472973 10.0337838,13.6824324 8.63513514,13.6824324 C6.38513514,13.7432432 4.31756757,14.5945946 2.67567568,16.2364865 Z" id="Shape"></path>
                    <path d="M43.1148649,30.1621622 C41.3513514,26.8783784 38.1283784,24.5675676 33.3851351,23.1081081 C34.0540541,24.9932432 34.9054054,28.1554054 34.2972973,31.6824324 C34.2364865,32.2905405 33.9932432,37.0945946 36.8513514,39.222973 C38.3716216,40.3175676 40.3175676,40.0743243 41.8378378,38.5540541 C42.2027027,38.1891892 42.75,38.1891892 43.1148649,38.5540541 C43.4797297,38.9189189 43.4797297,39.4662162 43.1148649,39.8310811 C42.0810811,40.8648649 40.8648649,41.472973 39.6486486,41.6554054 C41.1081081,44.4527027 39.8918919,48.4054054 39.8310811,48.5878378 C39.7094595,48.9527027 39.3445946,49.1959459 38.9797297,49.1959459 C38.9189189,49.1959459 38.7972973,49.1959459 38.6756757,49.1351351 C38.1891892,49.0135135 37.9459459,48.4662162 38.0675676,47.9797297 C38.0675676,47.9189189 39.7094595,42.6283784 36.7905405,41.1689189 C34.4797297,40.0135135 33.3851351,37.8851351 32.8986486,35.8783784 C32.6554054,36.3648649 32.3513514,36.972973 32.0472973,37.5202703 L32.0472973,37.5202703 C31.6824324,38.25 31.2567568,38.9797297 30.8310811,39.7702703 C27.0608108,46.7635135 21.4054054,57.222973 24.1418919,64.0337838 C26.1486486,64.7635135 28.0945946,65.1283784 29.7972973,65.1283784 L29.7972973,65.1283784 C34.6013514,65.1283784 38.0675676,62.3918919 40.1351351,56.6148649 C43.7837838,46.6418919 46.7635135,37.0337838 43.1148649,30.1621622 Z" id="Shape"></path>
                    <path d="M14.3513514,58.6824324 C17.027027,60.6891892 19.5810811,62.2094595 21.8918919,63.2432432 C20.1283784,55.9459459 25.1756757,46.3378378 28.8243243,39.5878378 C27.7905405,40.0135135 26.6959459,40.2567568 25.6621622,40.5608108 C25.2364865,40.6824324 24.8108108,40.8040541 24.3851351,40.8648649 C23.5337838,41.1689189 22.6824324,41.472973 21.8918919,41.777027 C21.5878378,41.8986486 21.3445946,42.0810811 21.0405405,42.2635135 C18.5472973,44.027027 18.7905405,47.3108108 18.7905405,47.3716216 C18.8513514,47.8581081 18.4256757,48.2837838 17.9391892,48.3445946 L17.8783784,48.3445946 C17.3918919,48.3445946 17.027027,47.9797297 16.9662162,47.4932432 C16.9662162,47.3716216 16.8445946,45.1824324 17.9391892,43.1148649 C15.3243243,43.9054054 13.0135135,44.3918919 10.7635135,44.3918919 C10.277027,44.3918919 9.85135135,43.9662162 9.85135135,43.4797297 C9.85135135,42.9932432 10.277027,42.5675676 10.7635135,42.5675676 C12.7094595,42.5675676 14.7162162,42.2027027 16.9662162,41.5337838 C13.0135135,41.4121622 12.1621622,40.1959459 11.7972973,39.7094595 C11.4932432,39.2837838 11.6148649,38.7364865 11.9797297,38.4324324 C12.4054054,38.1283784 12.9527027,38.25 13.2567568,38.6148649 C13.5608108,39.0405405 15.2635135,40.4391892 23.8378378,39.1013514 C24.2635135,38.9797297 24.6891892,38.8581081 25.1148649,38.7364865 C27.0608108,38.25 28.9459459,37.7635135 30.3445946,36.6081081 C30.7702703,35.7567568 31.1959459,35.027027 31.5,34.3581081 C33.9324324,29.0067568 31.5608108,23.5337838 31.0135135,22.3783784 C28.8851351,21.222973 25.722973,18.3040541 27.3040541,14.5945946 C28.7027027,11.3716216 33.5067568,10.5202703 35.8175676,10.277027 L34.6621622,6.08108108 C33.6283784,5.95945946 32.5945946,5.89864865 31.5608108,5.89864865 C26.2094595,5.89864865 19.277027,7.41891892 16.722973,14.6554054 C16.6013514,14.9594595 16.3581081,15.1418919 16.0540541,15.2635135 C15.75,15.3851351 7.66216216,17.3918919 4.07432432,27.972973 C2.18918919,33.5067568 -2.25,46.3378378 14.3513514,58.6824324 Z" id="Shape"></path>
                </g>
            </g>
        </g>
    </g>
</svg>