<?xml version="1.0" encoding="UTF-8"?>
<svg width="379px" height="124px" viewBox="0 0 379 124" version="1.1" xmlns="http://www.w3.org/2000/svg" xmlns:xlink="http://www.w3.org/1999/xlink">
    <!-- Generator: Sketch 42 (36781) - http://www.bohemiancoding.com/sketch -->
    <title>11_heidi</title>
    <desc>Created with Sketch.</desc>
    <defs>
        <path d="M97.949707,96 L100.031738,86.2246094 L96.2104492,86.2246094 L94.128418,96 L90.3833008,96 L94.1538086,78.3154297 C93.0027612,78.797854 92.1077506,79.5193637 91.46875,80.4799805 C90.8297494,81.4405973 90.5102539,82.6191336 90.5102539,84.015625 C90.5102539,84.3457048 90.5292967,84.6144195 90.5673828,84.8217773 C90.6054689,85.0291352 90.6477862,85.1941726 90.6943359,85.3168945 C90.7408856,85.4396165 90.7832029,85.5348304 90.8212891,85.6025391 C90.8593752,85.6702477 90.878418,85.7294919 90.878418,85.7802734 C90.429848,85.7802734 90.0320655,85.7358403 89.6850586,85.6469727 C89.3380517,85.558105 89.0460624,85.4163421 88.809082,85.2216797 C88.5721017,85.0270173 88.3943691,84.7688818 88.2758789,84.4472656 C88.1573887,84.1256494 88.0981445,83.727867 88.0981445,83.2539062 C88.0981445,82.6783825 88.2229805,82.1113309 88.4726562,81.5527344 C88.722332,80.9941378 89.0629861,80.4651718 89.4946289,79.9658203 C89.9262717,79.4664689 90.436195,79.0052104 91.0244141,78.5820312 C91.6126331,78.1588521 92.2452766,77.7928075 92.9223633,77.4838867 C93.59945,77.1749659 94.3019169,76.9337574 95.0297852,76.7602539 C95.7576534,76.5867504 96.4855107,76.5 97.2133789,76.5 C97.4080413,76.5 97.5878898,76.5042317 97.7529297,76.5126953 C97.9179696,76.5211589 98.0851229,76.5338541 98.2543945,76.5507812 L96.5913086,84.2949219 L100.412598,84.2949219 L102.075684,76.5507812 L105.820801,76.5507812 L101.694824,96 L97.949707,96 Z M115.938965,91.3408203 C115.575031,91.9501984 115.158205,92.5426404 114.688477,93.1181641 C114.218748,93.6936878 113.689782,94.2057269 113.101562,94.6542969 C112.513343,95.1028668 111.861657,95.4646796 111.146484,95.7397461 C110.431312,96.0148126 109.646326,96.1523438 108.791504,96.1523438 C108.173662,96.1523438 107.615074,96.0740568 107.115723,95.9174805 C106.616371,95.7609042 106.188967,95.5175798 105.833496,95.1875 C105.478026,94.8574202 105.205079,94.4321315 105.014648,93.9116211 C104.824218,93.3911107 104.729004,92.762699 104.729004,92.0263672 C104.729004,91.5270157 104.779785,90.9515007 104.881348,90.2998047 C104.982911,89.6481087 105.143716,88.9794956 105.36377,88.2939453 C105.583823,87.608395 105.875812,86.9355502 106.239746,86.2753906 C106.60368,85.6152311 107.04378,85.0249049 107.560059,84.5043945 C108.076337,83.9838841 108.681474,83.564943 109.375488,83.2475586 C110.069502,82.9301742 110.860835,82.7714844 111.749512,82.7714844 C112.333499,82.7714844 112.809568,82.8413079 113.177734,82.980957 C113.5459,83.1206062 113.83789,83.3046864 114.053711,83.5332031 C114.269532,83.7617199 114.417643,84.0262029 114.498047,84.3266602 C114.578451,84.6271174 114.618652,84.9381494 114.618652,85.2597656 C114.618652,86.0130246 114.453615,86.7133757 114.123535,87.3608398 C113.793455,88.008304 113.35124,88.5732398 112.796875,89.0556641 C112.24251,89.5380883 111.605635,89.9274074 110.88623,90.2236328 C110.166826,90.5198583 109.41781,90.6933591 108.63916,90.7441406 C108.622233,90.9388031 108.607422,91.1228832 108.594727,91.2963867 C108.582031,91.4698902 108.575684,91.6328117 108.575684,91.7851562 C108.575684,92.2252626 108.615885,92.5870754 108.696289,92.8706055 C108.776693,93.1541355 108.895182,93.3763013 109.051758,93.5371094 C109.208334,93.6979175 109.402994,93.8100583 109.635742,93.8735352 C109.868491,93.937012 110.141437,93.96875 110.45459,93.96875 C110.970868,93.96875 111.438474,93.9010423 111.857422,93.765625 C112.276369,93.6302077 112.667804,93.4440116 113.031738,93.2070312 C113.395672,92.9700509 113.740558,92.6907568 114.066406,92.3691406 C114.392254,92.0475244 114.720213,91.7047544 115.050293,91.3408203 L115.938965,91.3408203 Z M108.842285,89.5 C109.333173,89.4661457 109.807127,89.3264986 110.26416,89.0810547 C110.721194,88.8356108 111.123208,88.5161152 111.470215,88.1225586 C111.817222,87.7290019 112.0944,87.2804387 112.301758,86.7768555 C112.509116,86.2732722 112.612793,85.7506537 112.612793,85.2089844 C112.612793,84.8873682 112.566244,84.6292327 112.473145,84.4345703 C112.380045,84.2399079 112.210776,84.1425781 111.965332,84.1425781 C111.635252,84.1425781 111.311525,84.3012679 110.994141,84.6186523 C110.676756,84.9360367 110.378419,85.3486303 110.099121,85.8564453 C109.819823,86.3642604 109.572267,86.9376596 109.356445,87.5766602 C109.140624,88.2156607 108.969239,88.8567676 108.842285,89.5 Z M121.474121,79.546875 C121.474121,79.8346369 121.419109,80.1033516 121.309082,80.3530273 C121.199055,80.6027031 121.048829,80.8185212 120.858398,81.0004883 C120.667968,81.1824553 120.447918,81.3263341 120.198242,81.4321289 C119.948566,81.5379237 119.679852,81.5908203 119.39209,81.5908203 C119.104328,81.5908203 118.835613,81.5379237 118.585938,81.4321289 C118.336262,81.3263341 118.118328,81.1824553 117.932129,81.0004883 C117.74593,80.8185212 117.599935,80.6027031 117.494141,80.3530273 C117.388346,80.1033516 117.335449,79.8346369 117.335449,79.546875 C117.335449,79.2591131 117.388346,78.9903984 117.494141,78.7407227 C117.599935,78.4910469 117.74593,78.270997 117.932129,78.0805664 C118.118328,77.8901358 118.336262,77.7399094 118.585938,77.6298828 C118.835613,77.5198562 119.104328,77.4648438 119.39209,77.4648438 C119.679852,77.4648438 119.948566,77.5198562 120.198242,77.6298828 C120.447918,77.7399094 120.667968,77.8901358 120.858398,78.0805664 C121.048829,78.270997 121.199055,78.4910469 121.309082,78.7407227 C121.419109,78.9903984 121.474121,79.2591131 121.474121,79.546875 Z M123.086426,91.3408203 C122.840982,92.0432978 122.568035,92.6526667 122.267578,93.1689453 C121.967121,93.6852239 121.653973,94.121092 121.328125,94.4765625 C121.002277,94.832033 120.66797,95.1197906 120.325195,95.3398438 C119.98242,95.5598969 119.650229,95.7291661 119.328613,95.8476562 C119.006997,95.9661464 118.700197,96.0465493 118.408203,96.0888672 C118.116209,96.1311851 117.855958,96.1523438 117.627441,96.1523438 C117.238117,96.1523438 116.874188,96.0930996 116.535645,95.9746094 C116.197101,95.8561192 115.902996,95.6699231 115.65332,95.4160156 C115.403645,95.1621081 115.206869,94.8404967 115.062988,94.4511719 C114.919107,94.061847 114.847168,93.5921251 114.847168,93.0419922 C114.847168,92.8050118 114.864095,92.5447605 114.897949,92.2612305 C114.931804,91.9777004 114.982584,91.6709001 115.050293,91.3408203 L116.814941,83 L120.560059,83 L118.693848,91.8359375 C118.65153,91.9798184 118.624024,92.1215813 118.611328,92.2612305 C118.598633,92.4008796 118.592285,92.5384108 118.592285,92.6738281 C118.592285,93.0377622 118.67692,93.2895501 118.846191,93.4291992 C119.015463,93.5688484 119.282062,93.6386719 119.645996,93.6386719 C119.899904,93.6386719 120.14746,93.5815435 120.388672,93.4672852 C120.629884,93.3530268 120.85205,93.194337 121.055176,92.9912109 C121.258302,92.7880849 121.440266,92.5447605 121.601074,92.2612305 C121.761882,91.9777004 121.893066,91.6709001 121.994629,91.3408203 L123.086426,91.3408203 Z M136.733887,91.3408203 C136.488443,92.0432978 136.221844,92.648435 135.934082,93.15625 C135.64632,93.664065 135.347983,94.0893538 135.039062,94.4321289 C134.730142,94.7749041 134.414878,95.0499664 134.093262,95.2573242 C133.771646,95.464682 133.458498,95.6233718 133.153809,95.7333984 C132.84912,95.843425 132.55713,95.9153644 132.277832,95.9492188 C131.998534,95.9830731 131.74463,96 131.516113,96 C130.796709,96 130.216962,95.8116881 129.776855,95.4350586 C129.336749,95.0584291 129.065918,94.5019568 128.964355,93.765625 C128.769693,94.0618504 128.547527,94.3517238 128.297852,94.6352539 C128.048176,94.918784 127.76465,95.1726877 127.447266,95.3969727 C127.129881,95.6212576 126.776532,95.803222 126.387207,95.9428711 C125.997882,96.0825202 125.574709,96.1523438 125.117676,96.1523438 C124.669106,96.1523438 124.23747,96.0804044 123.822754,95.9365234 C123.408038,95.7926425 123.039878,95.5556657 122.718262,95.2255859 C122.396646,94.8955062 122.13851,94.4638699 121.943848,93.9306641 C121.749185,93.3974583 121.651855,92.7457721 121.651855,91.9755859 C121.651855,91.3831351 121.7111,90.7483758 121.82959,90.0712891 C121.94808,89.3942023 122.130044,88.7171258 122.375488,88.0400391 C122.620932,87.3629523 122.927733,86.713382 123.295898,86.0913086 C123.664064,85.4692352 124.095701,84.9191105 124.59082,84.440918 C125.08594,83.9627255 125.646644,83.5818699 126.272949,83.2983398 C126.899254,83.0148098 127.589026,82.8730469 128.342285,82.8730469 C129.078617,82.8730469 129.613931,82.9999987 129.948242,83.2539062 C130.282554,83.5078138 130.449707,83.8209617 130.449707,84.1933594 L130.449707,84.2949219 L131.719238,78.3154297 L135.565918,77.7949219 L132.58252,91.8359375 C132.540202,91.9798184 132.51058,92.1215813 132.493652,92.2612305 C132.476725,92.4008796 132.468262,92.5384108 132.468262,92.6738281 C132.468262,93.0377622 132.555012,93.2895501 132.728516,93.4291992 C132.902019,93.5688484 133.170734,93.6386719 133.534668,93.6386719 C133.788575,93.6386719 134.023436,93.5815435 134.239258,93.4672852 C134.455079,93.3530268 134.649739,93.194337 134.823242,92.9912109 C134.996746,92.7880849 135.151204,92.5447605 135.286621,92.2612305 C135.422038,91.9777004 135.540527,91.6709001 135.64209,91.3408203 L136.733887,91.3408203 Z M128.938965,91.3408203 L130.208496,85.3867188 C130.191569,85.3105465 130.164063,85.2216802 130.125977,85.1201172 C130.08789,85.0185542 130.030762,84.9191086 129.95459,84.8217773 C129.878418,84.7244461 129.77474,84.6440433 129.643555,84.5805664 C129.512369,84.5170895 129.345216,84.4853516 129.14209,84.4853516 C128.778156,84.4853516 128.43327,84.60384 128.107422,84.8408203 C127.781574,85.0778007 127.483237,85.3930644 127.212402,85.7866211 C126.941568,86.1801777 126.700359,86.6266251 126.48877,87.1259766 C126.27718,87.625328 126.097331,88.139483 125.949219,88.668457 C125.801106,89.197431 125.688965,89.7179336 125.612793,90.2299805 C125.536621,90.7420273 125.498535,91.2011698 125.498535,91.6074219 C125.498535,92.1067733 125.545084,92.4918606 125.638184,92.7626953 C125.731283,93.03353 125.843424,93.2345371 125.974609,93.3657227 C126.105795,93.4969082 126.247558,93.5751952 126.399902,93.6005859 C126.552247,93.6259767 126.687662,93.6386719 126.806152,93.6386719 C126.983888,93.6386719 127.180663,93.5942387 127.396484,93.5053711 C127.612306,93.4165035 127.81966,93.283204 128.018555,93.1054688 C128.217449,92.9277335 128.399413,92.7034519 128.564453,92.4326172 C128.729493,92.1617825 128.854329,91.8444029 128.938965,91.4804688 L128.938965,91.3408203 Z M142.065918,79.546875 C142.065918,79.8346369 142.010905,80.1033516 141.900879,80.3530273 C141.790852,80.6027031 141.640626,80.8185212 141.450195,81.0004883 C141.259765,81.1824553 141.039715,81.3263341 140.790039,81.4321289 C140.540363,81.5379237 140.271649,81.5908203 139.983887,81.5908203 C139.696125,81.5908203 139.42741,81.5379237 139.177734,81.4321289 C138.928059,81.3263341 138.710125,81.1824553 138.523926,81.0004883 C138.337727,80.8185212 138.191732,80.6027031 138.085938,80.3530273 C137.980143,80.1033516 137.927246,79.8346369 137.927246,79.546875 C137.927246,79.2591131 137.980143,78.9903984 138.085938,78.7407227 C138.191732,78.4910469 138.337727,78.270997 138.523926,78.0805664 C138.710125,77.8901358 138.928059,77.7399094 139.177734,77.6298828 C139.42741,77.5198562 139.696125,77.4648438 139.983887,77.4648438 C140.271649,77.4648438 140.540363,77.5198562 140.790039,77.6298828 C141.039715,77.7399094 141.259765,77.8901358 141.450195,78.0805664 C141.640626,78.270997 141.790852,78.4910469 141.900879,78.7407227 C142.010905,78.9903984 142.065918,79.2591131 142.065918,79.546875 Z M137.406738,83 L141.151855,83 L139.285645,91.8359375 C139.243327,91.9798184 139.21582,92.1215813 139.203125,92.2612305 C139.19043,92.4008796 139.184082,92.5384108 139.184082,92.6738281 C139.184082,93.0377622 139.268717,93.2895501 139.437988,93.4291992 C139.60726,93.5688484 139.873859,93.6386719 140.237793,93.6386719 C140.483237,93.6386719 140.66097,93.621745 140.770996,93.5878906 C140.881023,93.5540363 140.982584,93.5159507 141.075684,93.4736328 C141.041829,93.9391299 140.938152,94.3390283 140.764648,94.6733398 C140.591145,95.0076514 140.373211,95.2848296 140.11084,95.5048828 C139.848469,95.724936 139.552248,95.8878575 139.222168,95.9936523 C138.892088,96.0994471 138.557782,96.1523438 138.219238,96.1523438 C137.829913,96.1523438 137.465985,96.0930996 137.127441,95.9746094 C136.788898,95.8561192 136.494793,95.6699231 136.245117,95.4160156 C135.995441,95.1621081 135.798666,94.8404967 135.654785,94.4511719 C135.510904,94.061847 135.438965,93.5921251 135.438965,93.0419922 C135.438965,92.8050118 135.455892,92.5447605 135.489746,92.2612305 C135.5236,91.9777004 135.574381,91.6709001 135.64209,91.3408203 L137.406738,83 Z M156.881348,96 L158.874512,86.5673828 C158.214352,86.2626938 157.611331,86.0426439 157.06543,85.9072266 C156.519529,85.7718092 155.963056,85.6787112 155.395996,85.6279297 C154.905108,86.6858777 154.454429,87.7734319 154.043945,88.890625 C153.633461,90.0078181 153.277996,91.0932565 152.977539,92.1469727 C152.677082,93.2006889 152.442221,94.1887975 152.272949,95.1113281 C152.103678,96.0338588 152.019043,96.8336555 152.019043,97.5107422 C152.019043,97.9254578 152.055013,98.2407216 152.126953,98.456543 C152.198894,98.6723644 152.281412,98.8395176 152.374512,98.9580078 C152.027505,98.9580078 151.652997,98.9410809 151.250977,98.9072266 C150.848956,98.8733722 150.472332,98.7696949 150.121094,98.5961914 C149.769855,98.4226879 149.477866,98.1497414 149.245117,97.7773438 C149.012369,97.4049461 148.895996,96.8802117 148.895996,96.203125 C148.895996,95.6276013 148.986978,94.9378295 149.168945,94.1337891 C149.350912,93.3297486 149.611164,92.4643601 149.949707,91.5375977 C150.28825,90.6108352 150.690265,89.6417694 151.155762,88.6303711 C151.621259,87.6189728 152.141761,86.618169 152.717285,85.6279297 C151.896318,85.6787112 151.225589,85.8035472 150.705078,86.0024414 C150.184568,86.2013356 149.839682,86.5250629 149.67041,86.9736328 C149.738119,86.9736328 149.812174,87.0603832 149.892578,87.2338867 C149.972982,87.4073902 150.013184,87.5914704 150.013184,87.7861328 C150.013184,88.0992854 149.871421,88.3468415 149.587891,88.5288086 C149.304361,88.7107756 148.959475,88.8017578 148.553223,88.8017578 C148.324706,88.8017578 148.113119,88.7700198 147.918457,88.706543 C147.723795,88.6430661 147.554525,88.5499681 147.410645,88.4272461 C147.266764,88.3045241 147.152507,88.1479502 147.067871,87.9575195 C146.983235,87.7670889 146.940918,87.5449231 146.940918,87.2910156 C146.940918,86.8509093 147.074217,86.4361999 147.34082,86.046875 C147.607423,85.6575501 147.977699,85.3190119 148.45166,85.03125 C148.925621,84.7434881 149.486325,84.5149748 150.133789,84.3457031 C150.781253,84.1764314 151.485836,84.0917969 152.247559,84.0917969 C152.603029,84.0917969 153.055824,84.1171872 153.605957,84.1679688 C154.266117,83.1269479 154.964352,82.143071 155.700684,81.2163086 C156.437015,80.2895461 157.194495,79.4770543 157.973145,78.7788086 C158.751794,78.0805629 159.534664,77.5262065 160.321777,77.1157227 C161.108891,76.7052388 161.883297,76.5 162.64502,76.5 C162.949709,76.5 163.290363,76.5253904 163.666992,76.5761719 C164.043622,76.6269534 164.388508,76.7242831 164.70166,76.8681641 L160.626465,96 L156.881348,96 Z M160.626465,78.3408203 C160.23714,78.5524099 159.841473,78.8549785 159.439453,79.2485352 C159.037433,79.6420918 158.63965,80.1075819 158.246094,80.6450195 C157.852537,81.1824571 157.461102,81.7791308 157.071777,82.4350586 C156.682452,83.0909864 156.305829,83.782874 155.941895,84.5107422 C156.466637,84.6123052 156.999835,84.7371412 157.541504,84.8852539 C158.083173,85.0333666 158.607908,85.2089834 159.115723,85.4121094 L160.626465,78.3408203 Z M169.018066,94.0449219 C169.018066,94.3326837 168.963054,94.6013985 168.853027,94.8510742 C168.743001,95.1007499 168.592774,95.318684 168.402344,95.5048828 C168.211913,95.6910817 167.991863,95.8370763 167.742188,95.9428711 C167.492512,96.0486659 167.223797,96.1015625 166.936035,96.1015625 C166.648273,96.1015625 166.379559,96.0486659 166.129883,95.9428711 C165.880207,95.8370763 165.662273,95.6910817 165.476074,95.5048828 C165.289875,95.318684 165.143881,95.1007499 165.038086,94.8510742 C164.932291,94.6013985 164.879395,94.3326837 164.879395,94.0449219 C164.879395,93.75716 164.932291,93.4884453 165.038086,93.2387695 C165.143881,92.9890938 165.289875,92.7711598 165.476074,92.5849609 C165.662273,92.3987621 165.880207,92.2506516 166.129883,92.140625 C166.379559,92.0305984 166.648273,91.9755859 166.936035,91.9755859 C167.223797,91.9755859 167.492512,92.0305984 167.742188,92.140625 C167.991863,92.2506516 168.211913,92.3987621 168.402344,92.5849609 C168.592774,92.7711598 168.743001,92.9890938 168.853027,93.2387695 C168.963054,93.4884453 169.018066,93.75716 169.018066,94.0449219 Z M178.844238,96 L182.589355,78.6328125 C182.090004,78.6497397 181.632977,78.7449536 181.218262,78.918457 C180.803546,79.0919605 180.448081,79.3818339 180.151855,79.7880859 C179.85563,80.194338 179.625001,80.7402309 179.459961,81.4257812 C179.294921,82.1113316 179.212402,82.9746042 179.212402,84.015625 C179.212402,84.3457048 179.231445,84.6144195 179.269531,84.8217773 C179.307617,85.0291352 179.349935,85.1941726 179.396484,85.3168945 C179.443034,85.4396165 179.485351,85.5348304 179.523438,85.6025391 C179.561524,85.6702477 179.580566,85.7294919 179.580566,85.7802734 C179.131996,85.7802734 178.734214,85.7358403 178.387207,85.6469727 C178.0402,85.558105 177.748211,85.4163421 177.51123,85.2216797 C177.27425,85.0270173 177.094402,84.7688818 176.97168,84.4472656 C176.848958,84.1256494 176.787598,83.727867 176.787598,83.2539062 C176.787598,82.3906207 176.948403,81.5527384 177.27002,80.7402344 C177.591636,79.9277303 178.105791,79.2083365 178.8125,78.5820312 C179.519209,77.955726 180.435378,77.4521503 181.561035,77.0712891 C182.686692,76.6904278 184.05354,76.5 185.661621,76.5 C185.923992,76.5 186.218097,76.5169269 186.543945,76.5507812 C186.869793,76.5846356 187.216795,76.6206053 187.584961,76.6586914 C187.953127,76.6967775 188.34033,76.7327472 188.746582,76.7666016 C189.152834,76.8004559 189.563312,76.8173828 189.978027,76.8173828 C190.384279,76.8173828 190.784178,76.7941083 191.177734,76.7475586 C191.571291,76.7010089 191.950031,76.6184902 192.313965,76.5 C192.229329,76.7708347 192.14681,77.0649398 192.066406,77.3823242 C191.986002,77.6997086 191.865398,78.0065089 191.70459,78.3027344 C191.543782,78.5989598 191.3195,78.8676746 191.031738,79.1088867 C190.743976,79.3500989 190.350426,79.5214839 189.851074,79.6230469 C189.233233,79.6230469 188.623864,79.5764979 188.022949,79.4833984 C187.422035,79.390299 186.816898,79.2718106 186.20752,79.1279297 L185.115723,84.2949219 L188.911621,84.2949219 L188.492676,86.2246094 L184.696777,86.2246094 L182.589355,96 L178.844238,96 Z M203.257324,91.3408203 C203.01188,92.0432978 202.745281,92.6526667 202.45752,93.1689453 C202.169758,93.6852239 201.871421,94.121092 201.5625,94.4765625 C201.253579,94.832033 200.938315,95.1197906 200.616699,95.3398438 C200.295083,95.5598969 199.981935,95.7291661 199.677246,95.8476562 C199.372557,95.9661464 199.080568,96.0465493 198.80127,96.0888672 C198.521971,96.1311851 198.268068,96.1523438 198.039551,96.1523438 C197.303219,96.1523438 196.717125,95.9513366 196.28125,95.5493164 C195.845375,95.1472962 195.580892,94.5527383 195.487793,93.765625 C195.276203,94.0618504 195.043458,94.3517238 194.789551,94.6352539 C194.535643,94.918784 194.252117,95.1726877 193.938965,95.3969727 C193.625812,95.6212576 193.276695,95.803222 192.891602,95.9428711 C192.506508,96.0825202 192.08122,96.1523438 191.615723,96.1523438 C191.167153,96.1523438 190.735516,96.0804044 190.320801,95.9365234 C189.906085,95.7926425 189.537925,95.5556657 189.216309,95.2255859 C188.894692,94.8955062 188.636557,94.4638699 188.441895,93.9306641 C188.247232,93.3974583 188.149902,92.7457721 188.149902,91.9755859 C188.149902,91.3831351 188.209147,90.7483758 188.327637,90.0712891 C188.446127,89.3942023 188.628091,88.7171258 188.873535,88.0400391 C189.118979,87.3629523 189.425779,86.713382 189.793945,86.0913086 C190.162111,85.4692352 190.593748,84.9191105 191.088867,84.440918 C191.583987,83.9627255 192.144691,83.5818699 192.770996,83.2983398 C193.397301,83.0148098 194.087073,82.8730469 194.840332,82.8730469 C195.576664,82.8730469 196.111977,82.9999987 196.446289,83.2539062 C196.780601,83.5078138 196.947754,83.8209617 196.947754,84.1933594 L196.947754,84.3837891 L197.227051,83 L200.972168,83 L199.105957,91.8359375 C199.063639,91.9798184 199.034017,92.1215813 199.01709,92.2612305 C199.000163,92.4008796 198.991699,92.5384108 198.991699,92.6738281 C198.991699,93.4186235 199.347164,93.7910156 200.058105,93.7910156 C200.312013,93.7910156 200.546874,93.7254238 200.762695,93.5942383 C200.978517,93.4630527 201.175292,93.287436 201.353027,93.0673828 C201.530763,92.8473296 201.687337,92.5870783 201.822754,92.2866211 C201.958171,91.9861639 202.072428,91.6709001 202.165527,91.3408203 L203.257324,91.3408203 Z M196.706543,85.4755859 C196.706543,85.3994137 196.689616,85.3041998 196.655762,85.1899414 C196.621907,85.075683 196.564779,84.9656581 196.484375,84.8598633 C196.403971,84.7540685 196.296062,84.6652022 196.160645,84.5932617 C196.025227,84.5213213 195.851726,84.4853516 195.640137,84.4853516 C195.276203,84.4853516 194.931317,84.60384 194.605469,84.8408203 C194.279621,85.0778007 193.981284,85.3930644 193.710449,85.7866211 C193.439615,86.1801777 193.198406,86.6266251 192.986816,87.1259766 C192.775227,87.625328 192.595378,88.139483 192.447266,88.668457 C192.299153,89.197431 192.187012,89.7179336 192.11084,90.2299805 C192.034668,90.7420273 191.996582,91.2011698 191.996582,91.6074219 C191.996582,92.1067733 192.043131,92.4918606 192.13623,92.7626953 C192.22933,93.03353 192.341471,93.2345371 192.472656,93.3657227 C192.603842,93.4969082 192.745605,93.5751952 192.897949,93.6005859 C193.050294,93.6259767 193.185709,93.6386719 193.304199,93.6386719 C193.498862,93.6386719 193.7041,93.590007 193.919922,93.4926758 C194.135743,93.3953446 194.343098,93.2514658 194.541992,93.0610352 C194.740886,92.8706045 194.922851,92.6315119 195.087891,92.34375 C195.252931,92.0559881 195.377767,91.7216816 195.462402,91.3408203 L196.706543,85.4755859 Z M211.445801,98.0820312 C211.259602,99.0130255 210.990887,99.7662732 210.639648,100.341797 C210.28841,100.917321 209.896975,101.365884 209.465332,101.6875 C209.033689,102.009116 208.58301,102.224934 208.113281,102.334961 C207.643552,102.444988 207.192873,102.5 206.76123,102.5 C206.363442,102.5 205.988934,102.447103 205.637695,102.341309 C205.286457,102.235514 204.979656,102.07894 204.717285,101.871582 C204.454914,101.664224 204.245443,101.401857 204.088867,101.084473 C203.932291,100.767088 203.854004,100.396812 203.854004,99.9736328 C203.854004,99.4319634 203.983072,98.9537781 204.241211,98.5390625 C204.49935,98.1243469 204.831541,97.7625341 205.237793,97.4536133 C205.644045,97.1446925 206.098956,96.8802094 206.602539,96.6601562 C207.106122,96.4401031 207.60335,96.253907 208.094238,96.1015625 L208.411621,94.7304688 C208.03076,95.1367208 207.584312,95.4752591 207.072266,95.7460938 C206.560219,96.0169284 205.965661,96.1523438 205.288574,96.1523438 C204.840004,96.1523438 204.408368,96.0804044 203.993652,95.9365234 C203.578937,95.7926425 203.210776,95.5556657 202.88916,95.2255859 C202.567544,94.8955062 202.309409,94.4638699 202.114746,93.9306641 C201.920084,93.3974583 201.822754,92.7457721 201.822754,91.9755859 C201.822754,91.3831351 201.881998,90.7483758 202.000488,90.0712891 C202.118978,89.3942023 202.300943,88.7171258 202.546387,88.0400391 C202.791831,87.3629523 203.098631,86.713382 203.466797,86.0913086 C203.834963,85.4692352 204.266599,84.9191105 204.761719,84.440918 C205.256838,83.9627255 205.817542,83.5818699 206.443848,83.2983398 C207.070153,83.0148098 207.759925,82.8730469 208.513184,82.8730469 C209.249515,82.8730469 209.784829,82.9999987 210.119141,83.2539062 C210.453452,83.5078138 210.620605,83.8209617 210.620605,84.1933594 L210.620605,84.3457031 L210.899902,83 L214.64502,83 L212.067871,95.0605469 C212.46566,94.9251295 212.825356,94.762208 213.146973,94.5717773 C213.468589,94.3813467 213.762694,94.1401382 214.029297,93.8481445 C214.2959,93.5561509 214.537108,93.2070333 214.75293,92.8007812 C214.968751,92.3945292 215.165526,91.9078804 215.343262,91.3408203 L216.435059,91.3408203 C216.172687,92.2041059 215.861655,92.9234997 215.501953,93.4990234 C215.142251,94.0745471 214.759279,94.5463849 214.353027,94.9145508 C213.946775,95.2827167 213.527834,95.5641266 213.096191,95.7587891 C212.664549,95.9534515 212.245608,96.101562 211.839355,96.203125 L211.445801,98.0820312 Z M210.379395,85.4501953 C210.379395,85.3740231 210.362468,85.280925 210.328613,85.1708984 C210.294759,85.0608718 210.237631,84.9550786 210.157227,84.8535156 C210.076823,84.7519526 209.968913,84.6652022 209.833496,84.5932617 C209.698079,84.5213213 209.524578,84.4853516 209.312988,84.4853516 C208.949054,84.4853516 208.604168,84.60384 208.27832,84.8408203 C207.952472,85.0778007 207.654135,85.3930644 207.383301,85.7866211 C207.112466,86.1801777 206.871258,86.6266251 206.659668,87.1259766 C206.448078,87.625328 206.26823,88.139483 206.120117,88.668457 C205.972004,89.197431 205.859864,89.7179336 205.783691,90.2299805 C205.707519,90.7420273 205.669434,91.2011698 205.669434,91.6074219 C205.669434,92.1067733 205.715983,92.4918606 205.809082,92.7626953 C205.902181,93.03353 206.014322,93.2345371 206.145508,93.3657227 C206.276693,93.4969082 206.418456,93.5751952 206.570801,93.6005859 C206.723145,93.6259767 206.858561,93.6386719 206.977051,93.6386719 C207.154786,93.6386719 207.345214,93.5942387 207.54834,93.5053711 C207.751466,93.4165035 207.952473,93.2874357 208.151367,93.1181641 C208.350261,92.9488924 208.53011,92.737306 208.690918,92.4833984 C208.851726,92.2294909 208.974446,91.9375017 209.059082,91.6074219 L210.379395,85.4501953 Z M207.827637,97.4091797 C207.489093,97.5361334 207.167482,97.6736646 206.862793,97.8217773 C206.558104,97.9698901 206.289389,98.1328116 206.056641,98.3105469 C205.823892,98.4882821 205.637696,98.6850575 205.498047,98.9008789 C205.358398,99.1167003 205.288574,99.355793 205.288574,99.6181641 C205.288574,99.7112635 205.305501,99.8085932 205.339355,99.9101562 C205.37321,100.011719 205.426106,100.104817 205.498047,100.189453 C205.569987,100.274089 205.66097,100.341797 205.770996,100.392578 C205.881023,100.44336 206.012206,100.46875 206.164551,100.46875 C206.435385,100.46875 206.712564,100.280438 206.996094,99.9038086 C207.279624,99.5271791 207.506021,98.9453164 207.675293,98.1582031 L207.827637,97.4091797 Z M226.210449,91.3408203 C225.846515,91.9501984 225.42969,92.5426404 224.959961,93.1181641 C224.490232,93.6936878 223.961266,94.2057269 223.373047,94.6542969 C222.784828,95.1028668 222.133142,95.4646796 221.417969,95.7397461 C220.702796,96.0148126 219.91781,96.1523438 219.062988,96.1523438 C218.445147,96.1523438 217.886558,96.0740568 217.387207,95.9174805 C216.887856,95.7609042 216.460451,95.5175798 216.10498,95.1875 C215.74951,94.8574202 215.476563,94.4321315 215.286133,93.9116211 C215.095702,93.3911107 215.000488,92.762699 215.000488,92.0263672 C215.000488,91.5270157 215.051269,90.9515007 215.152832,90.2998047 C215.254395,89.6481087 215.415201,88.9794956 215.635254,88.2939453 C215.855307,87.608395 216.147296,86.9355502 216.51123,86.2753906 C216.875165,85.6152311 217.315264,85.0249049 217.831543,84.5043945 C218.347822,83.9838841 218.952959,83.564943 219.646973,83.2475586 C220.340987,82.9301742 221.13232,82.7714844 222.020996,82.7714844 C222.604983,82.7714844 223.081053,82.8413079 223.449219,82.980957 C223.817385,83.1206062 224.109374,83.3046864 224.325195,83.5332031 C224.541017,83.7617199 224.689127,84.0262029 224.769531,84.3266602 C224.849935,84.6271174 224.890137,84.9381494 224.890137,85.2597656 C224.890137,86.0130246 224.725099,86.7133757 224.39502,87.3608398 C224.06494,88.008304 223.622724,88.5732398 223.068359,89.0556641 C222.513995,89.5380883 221.877119,89.9274074 221.157715,90.2236328 C220.43831,90.5198583 219.689294,90.6933591 218.910645,90.7441406 C218.893717,90.9388031 218.878906,91.1228832 218.866211,91.2963867 C218.853516,91.4698902 218.847168,91.6328117 218.847168,91.7851562 C218.847168,92.2252626 218.887369,92.5870754 218.967773,92.8706055 C219.048177,93.1541355 219.166666,93.3763013 219.323242,93.5371094 C219.479818,93.6979175 219.674478,93.8100583 219.907227,93.8735352 C220.139975,93.937012 220.412922,93.96875 220.726074,93.96875 C221.242353,93.96875 221.709959,93.9010423 222.128906,93.765625 C222.547854,93.6302077 222.939289,93.4440116 223.303223,93.2070312 C223.667157,92.9700509 224.012043,92.6907568 224.337891,92.3691406 C224.663739,92.0475244 224.991698,91.7047544 225.321777,91.3408203 L226.210449,91.3408203 Z M219.11377,89.5 C219.604657,89.4661457 220.078611,89.3264986 220.535645,89.0810547 C220.992678,88.8356108 221.394692,88.5161152 221.741699,88.1225586 C222.088706,87.7290019 222.365884,87.2804387 222.573242,86.7768555 C222.7806,86.2732722 222.884277,85.7506537 222.884277,85.2089844 C222.884277,84.8873682 222.837728,84.6292327 222.744629,84.4345703 C222.651529,84.2399079 222.48226,84.1425781 222.236816,84.1425781 C221.906737,84.1425781 221.583009,84.3012679 221.265625,84.6186523 C220.948241,84.9360367 220.649904,85.3486303 220.370605,85.8564453 C220.091307,86.3642604 219.843751,86.9376596 219.62793,87.5766602 C219.412108,88.2156607 219.240723,88.8567676 219.11377,89.5 Z M224.331543,96 L227.086426,83 L230.831543,83 L230.501465,84.6123047 C230.729982,84.4091787 230.962727,84.2102874 231.199707,84.015625 C231.436687,83.8209626 231.684244,83.6495776 231.942383,83.5014648 C232.200522,83.3533521 232.469237,83.2327479 232.748535,83.1396484 C233.027833,83.046549 233.324054,83 233.637207,83 C233.933432,83 234.193684,83.0550125 234.417969,83.1650391 C234.642254,83.2750657 234.830566,83.4189444 234.98291,83.5966797 C235.135255,83.774415 235.249511,83.9817696 235.325684,84.21875 C235.401856,84.4557304 235.439941,84.7011706 235.439941,84.9550781 C235.439941,85.1835949 235.401856,85.4099924 235.325684,85.6342773 C235.249511,85.8585623 235.133139,86.0595694 234.976562,86.2373047 C234.819986,86.41504 234.623211,86.5610346 234.38623,86.675293 C234.14925,86.7895514 233.874188,86.8466797 233.561035,86.8466797 C233.315591,86.8466797 233.127279,86.8043624 232.996094,86.7197266 C232.864908,86.6350907 232.765463,86.5292975 232.697754,86.4023438 C232.630045,86.27539 232.58138,86.1378588 232.551758,85.9897461 C232.522135,85.8416334 232.490397,85.7041022 232.456543,85.5771484 C232.422689,85.4501947 232.378255,85.3444015 232.323242,85.2597656 C232.268229,85.1751298 232.177247,85.1328125 232.050293,85.1328125 C231.652505,85.1328125 231.318198,85.2237947 231.047363,85.4057617 C230.776529,85.5877288 230.480308,85.8268214 230.158691,86.1230469 L228.07666,96 L224.331543,96 Z M243.133301,91.3408203 C242.887857,92.0432978 242.61491,92.6526667 242.314453,93.1689453 C242.013996,93.6852239 241.700848,94.121092 241.375,94.4765625 C241.049152,94.832033 240.714845,95.1197906 240.37207,95.3398438 C240.029295,95.5598969 239.697104,95.7291661 239.375488,95.8476562 C239.053872,95.9661464 238.747072,96.0465493 238.455078,96.0888672 C238.163084,96.1311851 237.902833,96.1523438 237.674316,96.1523438 C237.284992,96.1523438 236.921063,96.0930996 236.58252,95.9746094 C236.243976,95.8561192 235.949871,95.6699231 235.700195,95.4160156 C235.45052,95.1621081 235.253744,94.8404967 235.109863,94.4511719 C234.965982,94.061847 234.894043,93.5921251 234.894043,93.0419922 C234.894043,92.8050118 234.91097,92.5447605 234.944824,92.2612305 C234.978679,91.9777004 235.029459,91.6709001 235.097168,91.3408203 L237.877441,78.3154297 L241.724121,77.7949219 L238.740723,91.8359375 C238.698405,91.9798184 238.670899,92.1215813 238.658203,92.2612305 C238.645508,92.4008796 238.63916,92.5384108 238.63916,92.6738281 C238.63916,93.0377622 238.723795,93.2895501 238.893066,93.4291992 C239.062338,93.5688484 239.328937,93.6386719 239.692871,93.6386719 C239.946779,93.6386719 240.194335,93.5815435 240.435547,93.4672852 C240.676759,93.3530268 240.898925,93.194337 241.102051,92.9912109 C241.305177,92.7880849 241.487141,92.5447605 241.647949,92.2612305 C241.808757,91.9777004 241.939941,91.6709001 242.041504,91.3408203 L243.133301,91.3408203 Z M256.806152,91.3408203 C256.560708,92.0432978 256.29411,92.6526667 256.006348,93.1689453 C255.718586,93.6852239 255.420249,94.121092 255.111328,94.4765625 C254.802407,94.832033 254.487144,95.1197906 254.165527,95.3398438 C253.843911,95.5598969 253.530763,95.7291661 253.226074,95.8476562 C252.921385,95.9661464 252.629396,96.0465493 252.350098,96.0888672 C252.070799,96.1311851 251.816896,96.1523438 251.588379,96.1523438 C250.852047,96.1523438 250.265953,95.9513366 249.830078,95.5493164 C249.394204,95.1472962 249.129721,94.5527383 249.036621,93.765625 C248.825031,94.0618504 248.592286,94.3517238 248.338379,94.6352539 C248.084471,94.918784 247.800946,95.1726877 247.487793,95.3969727 C247.17464,95.6212576 246.825523,95.803222 246.44043,95.9428711 C246.055337,96.0825202 245.630048,96.1523438 245.164551,96.1523438 C244.715981,96.1523438 244.284345,96.0804044 243.869629,95.9365234 C243.454913,95.7926425 243.086753,95.5556657 242.765137,95.2255859 C242.443521,94.8955062 242.185385,94.4638699 241.990723,93.9306641 C241.79606,93.3974583 241.69873,92.7457721 241.69873,91.9755859 C241.69873,91.3831351 241.757975,90.7483758 241.876465,90.0712891 C241.994955,89.3942023 242.176919,88.7171258 242.422363,88.0400391 C242.667807,87.3629523 242.974608,86.713382 243.342773,86.0913086 C243.710939,85.4692352 244.142576,84.9191105 244.637695,84.440918 C245.132815,83.9627255 245.693519,83.5818699 246.319824,83.2983398 C246.946129,83.0148098 247.635901,82.8730469 248.38916,82.8730469 C249.125492,82.8730469 249.660806,82.9999987 249.995117,83.2539062 C250.329429,83.5078138 250.496582,83.8209617 250.496582,84.1933594 L250.496582,84.3837891 L250.775879,83 L254.520996,83 L252.654785,91.8359375 C252.612467,91.9798184 252.582845,92.1215813 252.565918,92.2612305 C252.548991,92.4008796 252.540527,92.5384108 252.540527,92.6738281 C252.540527,93.4186235 252.895993,93.7910156 253.606934,93.7910156 C253.860841,93.7910156 254.095702,93.7254238 254.311523,93.5942383 C254.527345,93.4630527 254.72412,93.287436 254.901855,93.0673828 C255.079591,92.8473296 255.236165,92.5870783 255.371582,92.2866211 C255.506999,91.9861639 255.621256,91.6709001 255.714355,91.3408203 L256.806152,91.3408203 Z M250.255371,85.4755859 C250.255371,85.3994137 250.238444,85.3041998 250.20459,85.1899414 C250.170736,85.075683 250.113607,84.9656581 250.033203,84.8598633 C249.952799,84.7540685 249.84489,84.6652022 249.709473,84.5932617 C249.574055,84.5213213 249.400554,84.4853516 249.188965,84.4853516 C248.825031,84.4853516 248.480145,84.60384 248.154297,84.8408203 C247.828449,85.0778007 247.530112,85.3930644 247.259277,85.7866211 C246.988443,86.1801777 246.747234,86.6266251 246.535645,87.1259766 C246.324055,87.625328 246.144206,88.139483 245.996094,88.668457 C245.847981,89.197431 245.73584,89.7179336 245.659668,90.2299805 C245.583496,90.7420273 245.54541,91.2011698 245.54541,91.6074219 C245.54541,92.1067733 245.591959,92.4918606 245.685059,92.7626953 C245.778158,93.03353 245.890299,93.2345371 246.021484,93.3657227 C246.15267,93.4969082 246.294433,93.5751952 246.446777,93.6005859 C246.599122,93.6259767 246.734537,93.6386719 246.853027,93.6386719 C247.04769,93.6386719 247.252929,93.590007 247.46875,93.4926758 C247.684571,93.3953446 247.891926,93.2514658 248.09082,93.0610352 C248.289715,92.8706045 248.471679,92.6315119 248.636719,92.34375 C248.801759,92.0559881 248.926595,91.7216816 249.01123,91.3408203 L250.255371,85.4755859 Z M269.933105,91.3408203 C269.569171,92.4072319 269.177736,93.2578093 268.758789,93.8925781 C268.339842,94.5273469 267.916669,95.0118798 267.489258,95.3461914 C267.061847,95.680503 266.642906,95.898437 266.232422,96 C265.821938,96.101563 265.443198,96.1523438 265.096191,96.1523438 C264.520668,96.1523438 264.038251,96.069825 263.648926,95.9047852 C263.259601,95.7397453 262.946453,95.5196954 262.709473,95.2446289 C262.472492,94.9695624 262.301107,94.6564145 262.195312,94.3051758 C262.089518,93.953937 262.036621,93.5921243 262.036621,93.2197266 C262.036621,92.7796202 262.097981,92.2654652 262.220703,91.6772461 C262.343425,91.089027 262.476725,90.4860057 262.620605,89.8681641 C262.764486,89.2503224 262.897786,88.6536487 263.020508,88.078125 C263.14323,87.5026013 263.20459,87.0074891 263.20459,86.5927734 C263.20459,85.7040971 262.891442,85.2597656 262.265137,85.2597656 C262.028156,85.2597656 261.808106,85.3232416 261.60498,85.4501953 C261.401854,85.5771491 261.215658,85.7485341 261.046387,85.9643555 C260.877115,86.1801769 260.724773,86.4340806 260.589355,86.7260742 C260.453938,87.0180679 260.33545,87.3290999 260.233887,87.6591797 L258.469238,96 L254.724121,96 L257.479004,83 L261.224121,83 L260.944824,84.3457031 C261.224122,84.0325505 261.501301,83.7807627 261.776367,83.590332 C262.051434,83.3999014 262.320148,83.2539068 262.58252,83.1523438 C262.844891,83.0507807 263.092447,82.9830731 263.325195,82.9492188 C263.557944,82.9153644 263.775878,82.8984375 263.979004,82.8984375 C264.39372,82.8984375 264.778807,82.95345 265.134277,83.0634766 C265.489748,83.1735032 265.796548,83.347004 266.054688,83.5839844 C266.312827,83.8209647 266.513834,84.1256492 266.657715,84.4980469 C266.801596,84.8704446 266.873535,85.3147761 266.873535,85.8310547 C266.873535,86.1780616 266.841797,86.5525696 266.77832,86.9545898 C266.714843,87.3566101 266.636556,87.7670877 266.543457,88.1860352 C266.450358,88.6049826 266.350912,89.0218078 266.245117,89.4365234 C266.139322,89.8512391 266.039877,90.2490215 265.946777,90.6298828 C265.853678,91.0107441 265.775391,91.3640934 265.711914,91.6899414 C265.648437,92.0157894 265.616699,92.3014311 265.616699,92.546875 C265.616699,92.8684912 265.690754,93.1308584 265.838867,93.3339844 C265.98698,93.5371104 266.259926,93.6386719 266.657715,93.6386719 C266.937013,93.6386719 267.182453,93.5836594 267.394043,93.4736328 C267.605633,93.3636062 267.79606,93.2070323 267.965332,93.0039062 C268.134604,92.8007802 268.289062,92.5574558 268.428711,92.2739258 C268.56836,91.9903957 268.705891,91.6793637 268.841309,91.3408203 L269.933105,91.3408203 Z M278.565918,78.3154297 L282.412598,77.7949219 L279.429199,91.8359375 C279.386881,91.9798184 279.357259,92.1131179 279.340332,92.2358398 C279.323405,92.3585618 279.314941,92.4791661 279.314941,92.5976562 C279.314941,92.8938817 279.391113,93.1414378 279.543457,93.340332 C279.695802,93.5392263 279.975096,93.6386719 280.381348,93.6386719 C280.626792,93.6386719 280.804524,93.621745 280.914551,93.5878906 C281.024577,93.5540363 281.126139,93.5159507 281.219238,93.4736328 C281.185384,93.9391299 281.081707,94.3390283 280.908203,94.6733398 C280.7347,95.0076514 280.516766,95.2848296 280.254395,95.5048828 C279.992023,95.724936 279.695802,95.8878575 279.365723,95.9936523 C279.035643,96.0994471 278.701336,96.1523438 278.362793,96.1523438 C278.032713,96.1523438 277.719565,96.1121423 277.42334,96.0317383 C277.127114,95.9513342 276.860516,95.8243824 276.623535,95.6508789 C276.386555,95.4773754 276.185548,95.2530938 276.020508,94.9780273 C275.855468,94.7029609 275.734864,94.3750019 275.658691,93.9941406 C275.455565,94.2734389 275.231284,94.5421537 274.98584,94.800293 C274.740396,95.0584323 274.465334,95.2890615 274.160645,95.4921875 C273.855956,95.6953135 273.521649,95.8561192 273.157715,95.9746094 C272.793781,96.0930996 272.395998,96.1523438 271.964355,96.1523438 C271.515786,96.1523438 271.084149,96.0804044 270.669434,95.9365234 C270.254718,95.7926425 269.886558,95.5556657 269.564941,95.2255859 C269.243325,94.8955062 268.98519,94.4638699 268.790527,93.9306641 C268.595865,93.3974583 268.498535,92.7457721 268.498535,91.9755859 C268.498535,91.3831351 268.557779,90.7483758 268.67627,90.0712891 C268.79476,89.3942023 268.976724,88.7171258 269.222168,88.0400391 C269.467612,87.3629523 269.774412,86.713382 270.142578,86.0913086 C270.510744,85.4692352 270.94238,84.9191105 271.4375,84.440918 C271.93262,83.9627255 272.493324,83.5818699 273.119629,83.2983398 C273.745934,83.0148098 274.435706,82.8730469 275.188965,82.8730469 C275.925297,82.8730469 276.46061,82.9999987 276.794922,83.2539062 C277.129233,83.5078138 277.296387,83.8209617 277.296387,84.1933594 L277.296387,84.2949219 L278.565918,78.3154297 Z M275.785645,91.3408203 L277.055176,85.3867188 C277.038249,85.3105465 277.010742,85.2216802 276.972656,85.1201172 C276.93457,85.0185542 276.877442,84.9191086 276.80127,84.8217773 C276.725097,84.7244461 276.62142,84.6440433 276.490234,84.5805664 C276.359049,84.5170895 276.191896,84.4853516 275.98877,84.4853516 C275.624835,84.4853516 275.27995,84.60384 274.954102,84.8408203 C274.628254,85.0778007 274.329917,85.3930644 274.059082,85.7866211 C273.788247,86.1801777 273.547039,86.6266251 273.335449,87.1259766 C273.12386,87.625328 272.944011,88.139483 272.795898,88.668457 C272.647786,89.197431 272.535645,89.7179336 272.459473,90.2299805 C272.3833,90.7420273 272.345215,91.2011698 272.345215,91.6074219 C272.345215,92.1067733 272.391764,92.4918606 272.484863,92.7626953 C272.577963,93.03353 272.690104,93.2345371 272.821289,93.3657227 C272.952475,93.4969082 273.094238,93.5751952 273.246582,93.6005859 C273.398927,93.6259767 273.534342,93.6386719 273.652832,93.6386719 C273.830567,93.6386719 274.016763,93.5984705 274.211426,93.5180664 C274.406088,93.4376624 274.596516,93.319174 274.782715,93.1625977 C274.968914,93.0060214 275.140299,92.8113618 275.296875,92.5786133 C275.453451,92.3458647 275.582519,92.0729182 275.684082,91.7597656 L275.785645,91.3408203 Z" id="path-1"></path>
        <filter x="-50%" y="-50%" width="200%" height="200%" filterUnits="objectBoundingBox" id="filter-2">
            <feOffset dx="0" dy="2" in="SourceAlpha" result="shadowOffsetOuter1"></feOffset>
            <feGaussianBlur stdDeviation="0.5" in="shadowOffsetOuter1" result="shadowBlurOuter1"></feGaussianBlur>
            <feColorMatrix values="0 0 0 0 0   0 0 0 0 0   0 0 0 0 0  0 0 0 0.5 0" type="matrix" in="shadowBlurOuter1" result="shadowMatrixOuter1"></feColorMatrix>
            <feOffset dx="0" dy="2" in="SourceAlpha" result="shadowOffsetOuter2"></feOffset>
            <feGaussianBlur stdDeviation="0.5" in="shadowOffsetOuter2" result="shadowBlurOuter2"></feGaussianBlur>
            <feColorMatrix values="0 0 0 0 0   0 0 0 0 0   0 0 0 0 0  0 0 0 0.5 0" type="matrix" in="shadowBlurOuter2" result="shadowMatrixOuter2"></feColorMatrix>
            <feMerge>
                <feMergeNode in="shadowMatrixOuter1"></feMergeNode>
                <feMergeNode in="shadowMatrixOuter2"></feMergeNode>
            </feMerge>
        </filter>
        <path d="M0.936,48 L0.936,43.528 L2.938,43.528 L6.422,32.27 L3.77,32.27 L3.77,27.798 L16.354,27.798 L20.852,43.528 L22.854,43.528 L22.854,48 L11.492,48 L11.492,43.528 L13.13,43.528 L12.584,41.37 L8.008,41.37 L7.436,43.528 L9.854,43.528 L9.854,48 L0.936,48 Z M8.658,38.302 L11.986,38.302 L10.504,32.114 L8.658,38.302 Z M23.894,48 L23.894,43.45 L25.948,43.45 L25.948,32.244 L23.946,32.244 L23.946,27.772 L33.28,27.772 L39.598,39.784 L39.598,32.27 L37.57,32.27 L37.57,27.798 L45.656,27.798 L45.656,32.27 L43.654,32.27 L43.654,48 L35.958,48 L29.952,36.846 L29.952,43.45 L31.98,43.45 L31.98,48 L23.894,48 Z M47.996,48 L47.996,43.528 L50.024,43.528 L50.024,32.27 L47.996,32.27 L47.996,27.798 L58.552,27.798 L58.552,32.27 L56.524,32.27 L56.524,43.528 L58.552,43.528 L58.552,48 L47.996,48 Z M60.216,48 L60.216,43.528 L62.66,43.528 L62.66,32.27 L60.216,32.27 L60.216,27.798 L71.11,27.798 L75.036,37.522 L78.91,27.798 L89.076,27.798 L89.076,32.27 L86.632,32.27 L86.632,43.528 L89.076,43.528 L89.076,48 L78.494,48 L78.494,43.528 L80.132,43.528 L80.132,35.988 L75.66,48 L71.994,48 L66.716,35.702 L66.716,43.528 L68.744,43.528 L68.744,48 L60.216,48 Z M89.934,48 L89.934,43.528 L91.936,43.528 L95.42,32.27 L92.768,32.27 L92.768,27.798 L105.352,27.798 L109.85,43.528 L111.852,43.528 L111.852,48 L100.49,48 L100.49,43.528 L102.128,43.528 L101.582,41.37 L97.006,41.37 L96.434,43.528 L98.852,43.528 L98.852,48 L89.934,48 Z M97.656,38.302 L100.984,38.302 L99.502,32.114 L97.656,38.302 Z M116.48,48 L116.48,43.424 L118.56,43.424 L118.56,32.27 L116.766,32.27 L116.22,35.754 L112.658,35.754 L112.658,27.798 L131.664,27.798 L131.664,35.754 L128.102,35.754 L127.556,32.27 L125.71,32.27 L125.71,43.424 L127.79,43.424 L127.79,48 L116.48,48 Z M133.848,48 L133.848,43.528 L136.292,43.528 L136.292,32.27 L133.848,32.27 L133.848,27.798 L150.904,27.798 L150.904,35.832 L147.654,35.832 L146.432,32.27 L142.792,32.27 L142.792,35.572 L146.042,35.572 L146.042,38.9 L142.792,38.9 L142.792,43.528 L146.432,43.528 L147.654,39.394 L150.904,39.394 L150.904,48 L133.848,48 Z M151.84,43.528 L153.868,43.528 L153.868,32.27 L151.84,32.27 L151.84,27.798 L161.2,27.798 C164.874685,27.798 167.68699,28.6473248 169.637,30.346 C171.58701,32.0446752 172.562,34.5579834 172.562,37.886 C172.562,41.1273495 171.591343,43.6233246 169.65,45.374 C167.708657,47.1246754 164.883352,48 161.174,48 L151.84,48 L151.84,43.528 Z M161.174,43.528 C162.59534,43.528 163.630997,42.9950053 164.281,41.929 C164.931003,40.8629947 165.256,39.5153415 165.256,37.886 C165.256,36.2219917 164.935337,34.8700052 164.294,33.83 C163.652663,32.7899948 162.612674,32.27 161.174,32.27 L160.368,32.27 L160.368,43.528 L161.174,43.528 Z M187.291,48.013 C186.675664,47.7789988 186.01267,47.3846694 185.302,46.83 L184.86,48 L180.752,48 L180.752,41.812 L184.834,41.812 C185.094001,42.5226702 185.496997,43.0253319 186.043,43.32 C186.589003,43.6146681 187.260663,43.762 188.058,43.762 C188.543336,43.762 188.959332,43.6623343 189.306,43.463 C189.652668,43.2636657 189.826,42.999335 189.826,42.67 C189.826,42.2539979 189.648335,41.942001 189.293,41.734 C188.937665,41.525999 188.439337,41.3353342 187.798,41.162 C186.168659,40.7113311 184.829672,40.2260026 183.781,39.706 C182.732328,39.1859974 181.887337,38.4406715 181.246,37.47 C180.604663,36.4993285 180.284,35.2166746 180.284,33.622 C180.284,32.3913272 180.548331,31.3080047 181.077,30.372 C181.605669,29.4359953 182.363995,28.7080026 183.352,28.188 C184.340005,27.6679974 185.501327,27.408 186.836,27.408 C188.465341,27.408 189.756662,27.9279948 190.71,28.968 L191.36,27.772 L195,27.772 L195,33.83 L191.1,33.83 C190.735998,33.0673295 190.333002,32.5386681 189.891,32.244 C189.448998,31.9493319 188.84667,31.802 188.084,31.802 C187.494664,31.802 187.039668,31.905999 186.719,32.114 C186.398332,32.322001 186.238,32.6079982 186.238,32.972 C186.238,33.3706687 186.467664,33.6783322 186.927,33.895 C187.386336,34.1116677 188.040662,34.3153324 188.89,34.506 C190.398008,34.8526684 191.676328,35.2816641 192.725,35.793 C193.773672,36.3043359 194.61433,37.0323286 195.247,37.977 C195.87967,38.9216714 196.196,40.1393259 196.196,41.63 C196.196,42.8953397 195.931669,44.0393282 195.403,45.062 C194.874331,46.0846718 194.120338,46.8906637 193.141,47.48 C192.161662,48.0693363 191.03934,48.364 189.774,48.364 C188.733995,48.364 187.906336,48.2470012 187.291,48.013 Z M201.721,45.998 C200.394993,44.4206588 199.732,42.1066819 199.732,39.056 L199.732,32.27 L197.678,32.27 L197.678,27.798 L208.702,27.798 L208.702,32.27 L206.83,32.27 L206.83,40.772 C206.83,41.6040042 207.033665,42.2843307 207.441,42.813 C207.848335,43.3416693 208.485329,43.606 209.352,43.606 C210.080004,43.606 210.656331,43.3893355 211.081,42.956 C211.505669,42.5226645 211.718,41.9333371 211.718,41.188 L211.718,32.27 L209.638,32.27 L209.638,27.798 L217.932,27.798 L217.932,32.27 L215.982,32.27 L215.982,41.006 C215.982,43.4326788 215.27134,45.2656605 213.85,46.505 C212.42866,47.7443395 210.556678,48.364 208.234,48.364 C205.217985,48.364 203.047007,47.5753412 201.721,45.998 Z M225.069,47.22 C223.361658,46.4573295 221.996672,45.2700081 220.974,43.658 C219.951328,42.0459919 219.44,40.0180122 219.44,37.574 C219.44,35.632657 219.842996,33.8906744 220.649,32.348 C221.455004,30.8053256 222.624992,29.5963377 224.159,28.721 C225.693008,27.8456623 227.49999,27.408 229.58,27.408 C230.464004,27.408 231.321996,27.5553319 232.154,27.85 C232.986004,28.1446681 233.644664,28.5779971 234.13,29.15 L234.546,27.798 L238.94,27.798 L238.94,35.26 L235.014,35.26 C234.753999,34.185328 234.251337,33.3750027 233.506,32.829 C232.760663,32.2829973 231.980671,32.01 231.166,32.01 C229.813993,32.01 228.743671,32.5039951 227.955,33.492 C227.166329,34.4800049 226.772,35.840658 226.772,37.574 C226.772,39.3246754 227.161996,40.6983283 227.942,41.695 C228.722004,42.6916716 229.82266,43.19 231.244,43.19 C231.608002,43.19 231.971998,43.1553337 232.336,43.086 C232.700002,43.0166663 232.994666,42.9430004 233.22,42.865 C233.445334,42.7869996 233.592666,42.7393334 233.662,42.722 L233.662,40.928 L231.218,40.928 L231.218,37.158 L239.356,37.158 L239.356,46.232 C238.055994,46.9253368 236.660674,47.4539982 235.17,47.818 C233.679326,48.1820018 232.197341,48.364 230.724,48.364 C228.661323,48.364 226.776342,47.9826705 225.069,47.22 Z M240.916,48 L240.916,43.528 L242.918,43.528 L246.402,32.27 L243.75,32.27 L243.75,27.798 L256.334,27.798 L260.832,43.528 L262.834,43.528 L262.834,48 L251.472,48 L251.472,43.528 L253.11,43.528 L252.564,41.37 L247.988,41.37 L247.416,43.528 L249.834,43.528 L249.834,48 L240.916,48 Z M248.638,38.302 L251.966,38.302 L250.484,32.114 L248.638,38.302 Z M264.472,43.528 L266.5,43.528 L266.5,32.27 L264.472,32.27 L264.472,27.798 L277.446,27.798 C279.543344,27.798 281.085995,28.2226624 282.074,29.072 C283.062005,29.9213376 283.556,31.3253235 283.556,33.284 C283.556,34.6013399 283.18767,35.6153298 282.451,36.326 C281.71433,37.0366702 280.670007,37.5133321 279.318,37.756 C280.531339,37.9466676 281.406664,38.4016631 281.944,39.121 C282.481336,39.8403369 282.75,40.737328 282.75,41.812 L282.75,43.45 L285.584,43.45 L285.584,48 L281.502,48 C280.18466,48 279.240003,47.9133342 278.668,47.74 C278.095997,47.5666658 277.658335,47.0900039 277.355,46.31 C277.051665,45.5299961 276.9,44.2300091 276.9,42.41 C276.9,41.3699948 276.731002,40.5986692 276.393,40.096 C276.054998,39.5933308 275.435338,39.342 274.534,39.342 L273,39.342 L273,43.528 L275.028,43.528 L275.028,48 L264.472,48 L264.472,43.528 Z M274.742,36.456 C275.660671,36.456 276.345331,36.291335 276.796,35.962 C277.246669,35.632665 277.472,35.0520042 277.472,34.22 C277.472,33.6133303 277.242336,33.1366684 276.783,32.79 C276.323664,32.4433316 275.730004,32.27 275.002,32.27 L273,32.27 L273,36.456 L274.742,36.456 Z M291.59,43.528 L294.034,43.528 L294.034,32.27 L291.928,32.27 L291.928,27.772 L302.25,27.772 C303.948675,27.772 305.378661,27.9106653 306.54,28.188 C307.701339,28.4653347 308.62433,28.9939961 309.309,29.774 C309.99367,30.5540039 310.336,31.6633261 310.336,33.102 C310.336,34.1073384 310.04567,34.9826629 309.465,35.728 C308.88433,36.4733371 308.143338,37.010665 307.242,37.34 C308.420673,37.8426692 309.291664,38.496996 309.855,39.303 C310.418336,40.109004 310.7,41.213993 310.7,42.618 C310.7,44.3340086 310.02834,45.6599953 308.685,46.596 C307.34166,47.5320047 305.439346,48 302.978,48 L291.59,48 L291.59,43.528 Z M301.236,35.936 C302.206672,35.936 302.921664,35.801668 303.381,35.533 C303.840336,35.264332 304.07,34.7573371 304.07,34.012 C304.07,33.4919974 303.909668,33.0716683 303.589,32.751 C303.268332,32.4303317 302.848003,32.27 302.328,32.27 L300.534,32.27 L300.534,35.936 L301.236,35.936 Z M301.002,43.528 C302.024672,43.528 302.813331,43.3850014 303.368,43.099 C303.922669,42.8129986 304.2,42.2193378 304.2,41.318 C304.2,39.9313264 303.350675,39.238 301.652,39.238 C301.270665,39.238 300.898002,39.2466666 300.534,39.264 L300.534,43.528 L301.002,43.528 Z M312.572,48 L312.572,43.528 L314.574,43.528 L318.058,32.27 L315.406,32.27 L315.406,27.798 L327.99,27.798 L332.488,43.528 L334.49,43.528 L334.49,48 L323.128,48 L323.128,43.528 L324.766,43.528 L324.22,41.37 L319.644,41.37 L319.072,43.528 L321.49,43.528 L321.49,48 L312.572,48 Z M320.294,38.302 L323.622,38.302 L322.14,32.114 L320.294,38.302 Z M335.296,43.528 L337.74,43.528 L337.74,32.27 L335.634,32.27 L335.634,27.772 L345.956,27.772 C347.654675,27.772 349.084661,27.9106653 350.246,28.188 C351.407339,28.4653347 352.33033,28.9939961 353.015,29.774 C353.69967,30.5540039 354.042,31.6633261 354.042,33.102 C354.042,34.1073384 353.75167,34.9826629 353.171,35.728 C352.59033,36.4733371 351.849338,37.010665 350.948,37.34 C352.126673,37.8426692 352.997664,38.496996 353.561,39.303 C354.124336,40.109004 354.406,41.213993 354.406,42.618 C354.406,44.3340086 353.73434,45.6599953 352.391,46.596 C351.04766,47.5320047 349.145346,48 346.684,48 L335.296,48 L335.296,43.528 Z M344.942,35.936 C345.912672,35.936 346.627664,35.801668 347.087,35.533 C347.546336,35.264332 347.776,34.7573371 347.776,34.012 C347.776,33.4919974 347.615668,33.0716683 347.295,32.751 C346.974332,32.4303317 346.554003,32.27 346.034,32.27 L344.24,32.27 L344.24,35.936 L344.942,35.936 Z M344.708,43.528 C345.730672,43.528 346.519331,43.3850014 347.074,43.099 C347.628669,42.8129986 347.906,42.2193378 347.906,41.318 C347.906,39.9313264 347.056675,39.238 345.358,39.238 C344.976665,39.238 344.604002,39.2466666 344.24,39.264 L344.24,43.528 L344.708,43.528 Z M361.166,48 L361.166,43.45 L363.116,43.45 L363.116,39.732 L357.786,32.27 L356.356,32.27 L356.356,27.798 L367.172,27.798 L367.172,32.27 L366.028,32.27 L368.342,35.65 L370.162,32.27 L368.316,32.27 L368.316,27.798 L376.402,27.798 L376.402,32.27 L374.114,32.27 L370.188,39.056 L370.188,43.45 L372.19,43.45 L372.19,48 L361.166,48 Z" id="path-3"></path>
        <filter x="-50%" y="-50%" width="200%" height="200%" filterUnits="objectBoundingBox" id="filter-4">
            <feOffset dx="0" dy="2" in="SourceAlpha" result="shadowOffsetOuter1"></feOffset>
            <feGaussianBlur stdDeviation="0.5" in="shadowOffsetOuter1" result="shadowBlurOuter1"></feGaussianBlur>
            <feColorMatrix values="0 0 0 0 0   0 0 0 0 0   0 0 0 0 0  0 0 0 0.5 0" type="matrix" in="shadowBlurOuter1" result="shadowMatrixOuter1"></feColorMatrix>
            <feOffset dx="0" dy="2" in="SourceAlpha" result="shadowOffsetOuter2"></feOffset>
            <feGaussianBlur stdDeviation="0.5" in="shadowOffsetOuter2" result="shadowBlurOuter2"></feGaussianBlur>
            <feColorMatrix values="0 0 0 0 0   0 0 0 0 0   0 0 0 0 0  0 0 0 0.5 0" type="matrix" in="shadowBlurOuter2" result="shadowMatrixOuter2"></feColorMatrix>
            <feMerge>
                <feMergeNode in="shadowMatrixOuter1"></feMergeNode>
                <feMergeNode in="shadowMatrixOuter2"></feMergeNode>
            </feMerge>
        </filter>
    </defs>
    <g id="Page-1" stroke="none" stroke-width="1" fill="none" fill-rule="evenodd">
        <g id="PINK" transform="translate(-902.000000, -15282.000000)">
            <g id="11_heidi" transform="translate(903.000000, 15281.000000)">
                <g id="Heidi-A.-Fagerland">
                    <use fill="black" fill-opacity="1" filter="url(#filter-2)" xlink:href="#path-1"></use>
                    <use fill="#FFF6EB" fill-rule="evenodd" xlink:href="#path-1"></use>
                </g>
                <g id="ANIMATED-SUGAR-BABY">
                    <use fill="black" fill-opacity="1" filter="url(#filter-4)" xlink:href="#path-3"></use>
                    <use fill="#FFF6EB" fill-rule="evenodd" xlink:href="#path-3"></use>
                </g>
                <path d="M12.5,1.5 L357.744841,1.5" id="Line-Copy-15" stroke="#FFF6EB" stroke-linecap="square" stroke-dasharray="8,9"></path>
                <path d="M12.5,124.5 L357.744841,124.5" id="Line-Copy-17" stroke="#FFF6EB" stroke-linecap="square" stroke-dasharray="8,9"></path>
            </g>
        </g>
    </g>
</svg>