<?xml version="1.0" encoding="UTF-8"?>
<svg width="274px" height="198px" viewBox="0 0 274 198" version="1.1" xmlns="http://www.w3.org/2000/svg" xmlns:xlink="http://www.w3.org/1999/xlink">
    <!-- Generator: Sketch 42 (36781) - http://www.bohemiancoding.com/sketch -->
    <title>Group 5</title>
    <desc>Created with Sketch.</desc>
    <defs>
        <filter x="-50%" y="-50%" width="200%" height="200%" filterUnits="objectBoundingBox" id="filter-1">
            <feOffset dx="0" dy="2" in="SourceAlpha" result="shadowOffsetOuter1"></feOffset>
            <feGaussianBlur stdDeviation="0.5" in="shadowOffsetOuter1" result="shadowBlurOuter1"></feGaussianBlur>
            <feColorMatrix values="0 0 0 0 0   0 0 0 0 0   0 0 0 0 0  0 0 0 0.5 0" type="matrix" in="shadowBlurOuter1" result="shadowMatrixOuter1"></feColorMatrix>
            <feMerge>
                <feMergeNode in="shadowMatrixOuter1"></feMergeNode>
                <feMergeNode in="SourceGraphic"></feMergeNode>
            </feMerge>
        </filter>
        <text id="text-2" font-family="Bevan-Regular, Bevan" font-size="15.1875" font-weight="normal" fill="#F9F0E4">
            <tspan x="48.2705952" y="123.648415">INSERT TITLE HERE</tspan>
        </text>
        <filter x="-50%" y="-50%" width="200%" height="200%" filterUnits="objectBoundingBox" id="filter-3">
            <feOffset dx="-2" dy="2" in="SourceAlpha" result="shadowOffsetOuter1"></feOffset>
            <feColorMatrix values="0 0 0 0 0   0 0 0 0 0   0 0 0 0 0  0 0 0 0.5 0" type="matrix" in="shadowOffsetOuter1"></feColorMatrix>
        </filter>
        <filter x="-50%" y="-50%" width="200%" height="200%" filterUnits="objectBoundingBox" id="filter-4">
            <feOffset dx="0" dy="2" in="SourceAlpha" result="shadowOffsetOuter1"></feOffset>
            <feGaussianBlur stdDeviation="0.5" in="shadowOffsetOuter1" result="shadowBlurOuter1"></feGaussianBlur>
            <feColorMatrix values="0 0 0 0 0   0 0 0 0 0   0 0 0 0 0  0 0 0 0.5 0" type="matrix" in="shadowBlurOuter1" result="shadowMatrixOuter1"></feColorMatrix>
            <feMerge>
                <feMergeNode in="shadowMatrixOuter1"></feMergeNode>
                <feMergeNode in="SourceGraphic"></feMergeNode>
            </feMerge>
        </filter>
    </defs>
    <g id="Page-1" stroke="none" stroke-width="1" fill="none" fill-rule="evenodd">
        <g id="PINK" transform="translate(-583.000000, -15195.000000)">
            <g id="Group-5" filter="url(#filter-1)" transform="translate(584.000000, 15195.000000)">
                <g id="LOGOBANNERTHING" fill-rule="nonzero">
                    <g id="Group">
                        <g transform="translate(37.604413, 0.000000)" id="Shape">
                            <polygon fill="#4692B6" points="98.3285751 0 105.431631 7.20946809 113.509616 1.24779255 119.498467 9.42776596 128.551381 4.71388298 133.0082 13.8643617 142.618217 10.6755585 145.68228 20.2419681 155.710123 18.5782447 157.242155 28.5605851 167.409274 28.5605851 167.269998 38.6815691 177.437117 40.0680053 175.76581 50.0503457 185.375826 53.1005053 182.172488 62.8055585 191.225402 67.2421543 186.629307 76.2539894 194.846567 82.0770213 188.857716 90.2569947 196.100048 97.3278191 188.857716 104.398644 194.846567 112.578617 186.629307 118.401649 191.225402 127.413484 182.172488 131.988723 185.375826 141.555133 175.76581 144.605293 177.437117 154.587633 167.269998 156.112713 167.409274 166.233697 157.242155 166.095053 155.710123 176.077394 145.68228 174.41367 142.618217 184.118723 133.0082 180.92992 128.551381 189.941755 119.498467 185.227872 113.509616 193.546489 105.431631 187.44617 98.3285751 194.655638 91.0862438 187.44617 83.0082589 193.546489 77.019408 185.227872 68.1057694 189.941755 63.5096746 180.92992 53.899658 184.118723 50.8355948 174.41367 40.8077514 176.077394 39.2757198 166.095053 29.1086008 166.233697 29.2478764 156.112713 19.2200331 154.587633 20.8913403 144.605293 11.1420482 141.555133 14.345387 131.988723 5.29247288 127.413484 10.0278434 118.401649 1.67130723 112.578617 7.79943372 104.398644 0.417826806 97.3278191 7.79943372 90.2569947 1.67130723 82.0770213 10.0278434 76.2539894 5.29247288 67.2421543 14.345387 62.8055585 11.1420482 53.1005053 20.8913403 50.0503457 19.2200331 40.0680053 29.2478764 38.6815691 29.1086008 28.5605851 39.2757198 28.5605851 40.8077514 18.5782447 50.8355948 20.2419681 53.899658 10.6755585 63.5096746 13.8643617 68.1057694 4.71388298 77.019408 9.42776596 83.0082589 1.24779255 91.0862438 7.20946809"></polygon>
                            <path d="M176.183637,97.3278191 L175.347983,97.3278191 C175.347983,118.540293 166.712896,137.673112 152.785336,151.537473 C138.857775,165.401835 119.637742,173.997739 98.3285751,173.997739 C77.019408,173.997739 57.7993749,165.401835 43.8718147,151.537473 C29.9442545,137.673112 21.3091671,118.540293 21.3091671,97.3278191 C21.3091671,76.1153457 29.9442545,56.9825266 43.8718147,43.1181649 C57.7993749,29.2538032 77.019408,20.6578989 98.3285751,20.6578989 C119.637742,20.6578989 138.857775,29.2538032 152.785336,43.1181649 C166.712896,56.9825266 175.347983,76.1153457 175.347983,97.3278191 L176.183637,97.3278191 L177.01929,97.3278191 C177.01929,53.932367 141.782563,18.8555319 98.1892995,18.8555319 C54.7353116,18.8555319 19.4985843,54.0710106 19.4985843,97.3278191 C19.4985843,140.723271 54.7353116,175.800106 98.3285751,175.800106 C141.921839,175.800106 177.158566,140.723271 177.158566,97.3278191 L176.183637,97.3278191 L176.183637,97.3278191 Z" fill="#E8DFD4"></path>
                            <path d="M171.030439,96.0800266 L171.030439,97.4664628 C171.030439,98.7142553 171.030439,99.8234043 170.891164,101.071197 C170.891164,101.348484 171.169715,101.625771 171.448266,101.625771 C171.726817,101.625771 172.005369,101.348484 172.005369,101.071197 C172.005369,99.8234043 172.144644,98.7142553 172.144644,97.4664628 L172.144644,96.0800266 C172.144644,95.8027394 171.866093,95.5254521 171.587542,95.5254521 C171.308991,95.3868085 171.030439,95.6640957 171.030439,96.0800266 Z M170.473337,87.7614096 C170.612613,88.8705585 170.751888,90.1183511 170.891164,91.2275 C170.891164,91.5047872 171.169715,91.7820745 171.587542,91.7820745 C171.866093,91.7820745 172.144644,91.5047872 172.144644,91.0888564 C172.005369,89.8410638 171.866093,88.7319149 171.726817,87.4841223 C171.726817,87.2068351 171.448266,86.9295479 171.030439,86.9295479 C170.612613,87.2068351 170.334061,87.4841223 170.473337,87.7614096 Z M168.941305,79.7200798 C169.219857,80.8292287 169.498408,82.0770213 169.776959,83.1861702 C169.776959,83.4634574 170.194786,83.7407447 170.473337,83.6021011 C170.751888,83.6021011 171.030439,83.1861702 170.891164,82.908883 C170.612613,81.6610904 170.334061,80.5519415 170.05551,79.4427926 C169.916235,79.1655053 169.637683,78.8882181 169.359132,79.0268617 C168.941305,79.0268617 168.80203,79.4427926 168.941305,79.7200798 Z M166.434345,71.8173936 C166.852171,72.9265426 167.269998,74.0356915 167.548549,75.1448404 C167.687825,75.4221277 167.966376,75.5607713 168.244927,75.5607713 C168.523479,75.4221277 168.662754,75.1448404 168.662754,74.8675532 C168.244927,73.7584043 167.827101,72.6492553 167.409274,71.5401064 C167.269998,71.2628191 166.991447,71.1241755 166.57362,71.1241755 C166.434345,71.1241755 166.295069,71.5401064 166.434345,71.8173936 Z M163.09173,64.3306383 C163.648833,65.4397872 164.205935,66.4102926 164.623762,67.5194415 C164.763037,67.7967287 165.180864,67.9353723 165.459415,67.7967287 C165.737967,67.6580851 165.877242,67.2421543 165.737967,66.964867 C165.180864,65.8557181 164.763037,64.7465691 164.205935,63.7760638 C164.066659,63.4987766 163.648833,63.360133 163.370281,63.4987766 C163.09173,63.6374202 162.952454,64.0533511 163.09173,64.3306383 Z M158.913462,57.2598138 C159.60984,58.2303191 160.166942,59.2008245 160.86332,60.3099734 C161.002596,60.5872606 161.420423,60.7259043 161.698974,60.448617 C161.977525,60.3099734 162.116801,59.8940426 161.83825,59.6167553 C161.281147,58.64625 160.584769,57.5371011 159.888391,56.5665957 C159.749116,56.2893085 159.331289,56.2893085 159.052738,56.4279521 C158.774186,56.5665957 158.634911,56.9825266 158.913462,57.2598138 Z M153.89954,50.6049202 C154.735194,51.4367819 155.431572,52.4072872 156.12795,53.3777926 C156.267226,53.6550798 156.685052,53.6550798 156.963604,53.5164362 C157.242155,53.3777926 157.242155,52.9618617 157.102879,52.6845745 C156.406501,51.7140691 155.570848,50.7435638 154.87447,49.9117021 C154.595918,49.6344149 154.317367,49.6344149 154.038816,49.7730585 C153.760265,49.9117021 153.620989,50.327633 153.89954,50.6049202 L153.89954,50.6049202 Z M148.189241,44.6432447 C149.024894,45.4751064 149.860548,46.3069681 150.696202,47.1388298 C150.974753,47.416117 151.253304,47.416117 151.531855,47.1388298 C151.810406,46.8615426 151.810406,46.5842553 151.531855,46.3069681 C150.696202,45.4751064 149.860548,44.6432447 149.024894,43.811383 C148.746343,43.5340957 148.467792,43.5340957 148.189241,43.811383 C147.910689,43.9500266 147.910689,44.3659574 148.189241,44.6432447 Z M141.782563,39.2361436 C142.757492,39.9293617 143.732421,40.6225798 144.568075,41.4544415 C144.846626,41.7317287 145.264453,41.5930851 145.403729,41.3157979 C145.68228,41.0385106 145.543004,40.6225798 145.264453,40.4839362 C144.289524,39.6520745 143.45387,38.9588564 142.478941,38.2656383 C142.20039,38.1269947 141.782563,38.1269947 141.643287,38.4042819 C141.504012,38.6815691 141.643287,39.0975 141.782563,39.2361436 Z M134.958058,34.7995479 C135.932988,35.3541223 137.047192,36.0473404 138.022122,36.6019149 C138.300673,36.7405585 138.7185,36.7405585 138.857775,36.4632713 C138.997051,36.185984 138.997051,35.7700532 138.7185,35.6314096 C137.743571,34.9381915 136.629366,34.383617 135.654436,33.6903989 C135.375885,33.5517553 134.958058,33.5517553 134.818783,33.9676862 C134.540232,34.2449734 134.679507,34.5222606 134.958058,34.7995479 Z M127.576452,31.0561702 C128.690656,31.4721011 129.804861,32.0266755 130.77979,32.58125 C131.058342,32.7198936 131.476168,32.58125 131.615444,32.3039628 C131.75472,32.0266755 131.615444,31.6107447 131.336893,31.4721011 C130.222688,30.9175266 129.108483,30.3629521 128.133554,29.9470213 C127.855003,29.8083777 127.437176,29.9470213 127.2979,30.2243085 C127.158625,30.5015957 127.2979,30.9175266 127.576452,31.0561702 Z M119.777018,28.1446543 C120.891223,28.5605851 122.005427,28.8378723 123.119632,29.2538032 C123.398183,29.3924468 123.81601,29.2538032 123.81601,28.8378723 C123.955286,28.5605851 123.81601,28.1446543 123.398183,28.0060106 C122.283979,27.5900798 121.169774,27.1741489 119.916293,26.8968617 C119.637742,26.7582181 119.219915,27.0355053 119.219915,27.3127926 C119.219915,27.7287234 119.498467,28.0060106 119.777018,28.1446543 Z M111.699033,26.065 C112.813238,26.3422872 114.066718,26.4809309 115.180923,26.7582181 C115.459474,26.8968617 115.877301,26.6195745 115.877301,26.3422872 C116.016577,26.065 115.738025,25.6490691 115.459474,25.6490691 C114.345269,25.3717819 113.091789,25.0944947 111.977584,24.9558511 C111.699033,24.9558511 111.281206,25.0944947 111.281206,25.3717819 C111.141931,25.7877128 111.420482,26.065 111.699033,26.065 Z M103.481772,25.0944947 C104.735253,25.2331383 105.849458,25.2331383 106.963662,25.3717819 C107.242214,25.3717819 107.520765,25.2331383 107.66004,24.8172074 C107.66004,24.5399202 107.520765,24.262633 107.102938,24.1239894 C105.849458,23.9853457 104.735253,23.8467021 103.481772,23.8467021 C103.203221,23.8467021 102.92467,24.1239894 102.785394,24.4012766 C102.92467,24.8172074 103.203221,25.0944947 103.481772,25.0944947 L103.481772,25.0944947 Z M95.2645119,24.9558511 L98.3285751,24.9558511 L98.7464019,24.9558511 C99.0249531,24.9558511 99.3035043,24.6785638 99.3035043,24.4012766 C99.3035043,24.1239894 99.0249531,23.8467021 98.7464019,23.8467021 L98.1892995,23.8467021 L95.1252363,23.8467021 C94.8466851,23.8467021 94.5681338,24.1239894 94.5681338,24.4012766 C94.5681338,24.6785638 94.8466851,24.9558511 95.2645119,24.9558511 Z M86.9079757,25.7877128 C88.0221805,25.6490691 89.275661,25.5104255 90.3898658,25.3717819 C90.668417,25.3717819 90.9469682,25.0944947 90.9469682,24.6785638 C90.9469682,24.4012766 90.668417,24.1239894 90.2505902,24.1239894 C88.9971098,24.262633 87.8829049,24.4012766 86.6294245,24.5399202 C86.3508733,24.5399202 86.0723221,24.9558511 86.0723221,25.2331383 C86.3508733,25.6490691 86.6294245,25.7877128 86.9079757,25.7877128 Z M78.8299908,27.4514362 C79.9441956,27.1741489 81.0584004,26.8968617 82.3118809,26.6195745 C82.5904321,26.4809309 82.8689833,26.2036436 82.7297077,25.9263564 C82.5904321,25.6490691 82.3118809,25.3717819 82.0333297,25.5104255 C80.9191248,25.7877128 79.6656444,26.065 78.5514396,26.3422872 C78.2728884,26.4809309 77.9943372,26.7582181 78.1336128,27.0355053 C78.2728884,27.4514362 78.5514396,27.5900798 78.8299908,27.4514362 Z M71.0305571,30.0856649 C72.1447619,29.669734 73.2589667,29.2538032 74.3731715,28.8378723 C74.6517227,28.6992287 74.7909983,28.4219415 74.7909983,28.1446543 C74.6517227,27.867367 74.3731715,27.7287234 74.0946203,27.7287234 C72.9804155,28.1446543 71.8662107,28.5605851 70.7520059,28.976516 C70.4734547,29.1151596 70.3341791,29.3924468 70.4734547,29.8083777 C70.3341791,30.0856649 70.7520059,30.2243085 71.0305571,30.0856649 Z M63.5096746,33.6903989 C64.4846038,33.1358245 65.5988086,32.58125 66.7130134,32.0266755 C66.9915646,31.8880319 67.1308402,31.4721011 66.9915646,31.1948138 C66.852289,30.9175266 66.4344622,30.778883 66.155911,30.9175266 C65.0417062,31.4721011 64.066777,32.0266755 62.9525722,32.58125 C62.674021,32.7198936 62.5347454,33.1358245 62.674021,33.4131117 C62.8132966,33.6903989 63.2311234,33.8290426 63.5096746,33.6903989 Z M56.5458945,37.9883511 C57.5208237,37.295133 58.4957529,36.6019149 59.4706821,36.0473404 C59.7492333,35.9086968 59.8885089,35.492766 59.6099577,35.2154787 C59.4706821,34.9381915 59.0528553,34.7995479 58.7743041,35.0768351 C57.7993749,35.7700532 56.6851701,36.3246277 55.7102409,37.0178457 C55.4316896,37.1564894 55.4316896,37.5724202 55.5709653,37.8497074 C55.8495165,38.1269947 56.2673433,38.2656383 56.5458945,37.9883511 Z M49.9999412,43.1181649 C50.8355948,42.2863032 51.810524,41.5930851 52.6461776,40.899867 C52.9247288,40.7612234 52.9247288,40.3452926 52.7854532,40.0680053 C52.6461776,39.7907181 52.2283508,39.7907181 51.9497996,39.9293617 C50.9748704,40.6225798 50.1392168,41.4544415 49.1642876,42.2863032 C48.8857363,42.5635904 48.8857363,42.8408777 49.1642876,43.1181649 C49.3035632,43.2568085 49.72139,43.3954521 49.9999412,43.1181649 Z M44.1503659,48.9411968 C44.9860195,48.1093351 45.8216731,47.1388298 46.6573267,46.3069681 C46.9358779,46.0296809 46.9358779,45.7523936 46.6573267,45.4751064 C46.3787755,45.1978191 46.1002243,45.1978191 45.8216731,45.4751064 C44.9860195,46.3069681 44.1503659,47.1388298 43.3147123,48.1093351 C43.0361611,48.3866223 43.1754367,48.6639096 43.3147123,48.9411968 C43.4539879,49.218484 43.8718147,49.218484 44.1503659,48.9411968 Z M38.9971686,55.3188032 C39.6935466,54.3482979 40.3899246,53.3777926 41.0863026,52.5459309 C41.2255782,52.2686436 41.2255782,51.8527128 40.947027,51.7140691 C40.6684758,51.5754255 40.250649,51.5754255 40.1113734,51.8527128 C39.4149954,52.8232181 38.5793418,53.7937234 37.8829638,54.7642287 C37.7436882,55.041516 37.7436882,55.4574468 38.0222394,55.5960904 C38.4400662,55.734734 38.7186174,55.5960904 38.9971686,55.3188032 Z M34.5403493,62.3896277 C35.0974517,61.4191223 35.6545541,60.3099734 36.3509322,59.3394681 C36.4902078,59.0621809 36.4902078,58.64625 36.2116566,58.5076064 C35.9331054,58.3689628 35.5152785,58.3689628 35.3760029,58.64625 C34.6796249,59.6167553 34.1225225,60.7259043 33.5654201,61.6964096 C33.4261445,61.9736968 33.5654201,62.3896277 33.8439713,62.5282713 C33.9832469,62.8055585 34.4010737,62.6669149 34.5403493,62.3896277 Z M30.9191837,69.876383 C31.3370105,68.767234 31.8941129,67.6580851 32.3119397,66.6875798 C32.4512153,66.4102926 32.3119397,65.9943617 32.0333885,65.8557181 C31.7548373,65.7170745 31.3370105,65.8557181 31.1977349,66.1330053 C30.6406325,67.2421543 30.2228057,68.3513032 29.8049789,69.4604521 C29.6657033,69.7377394 29.8049789,70.1536702 30.0835301,70.2923138 C30.5013569,70.2923138 30.7799081,70.1536702 30.9191837,69.876383 Z M28.2729472,77.6404255 C28.5514984,76.5312766 28.9693252,75.4221277 29.3871521,74.3129787 C29.5264277,74.0356915 29.3871521,73.6197606 28.9693252,73.6197606 C28.690774,73.481117 28.2729472,73.6197606 28.2729472,74.0356915 C27.8551204,75.1448404 27.5765692,76.2539894 27.1587424,77.5017819 C27.0194668,77.7790691 27.298018,78.195 27.5765692,78.195 C27.8551204,78.195 28.1336716,77.9177128 28.2729472,77.6404255 Z M26.4623644,85.6817553 C26.60164,84.5726064 26.8801912,83.3248138 27.1587424,82.2156649 C27.1587424,81.9383777 27.0194668,81.5224468 26.7409156,81.5224468 C26.4623644,81.3838032 26.0445376,81.6610904 26.0445376,81.9383777 C25.7659864,83.0475266 25.6267108,84.2953191 25.3481596,85.4044681 C25.3481596,85.6817553 25.4874352,86.0976862 25.905262,86.0976862 C26.0445376,86.2363298 26.3230888,85.9590426 26.4623644,85.6817553 Z M25.6267108,93.8617287 C25.6267108,92.6139362 25.7659864,91.5047872 25.905262,90.3956383 C25.905262,90.1183511 25.7659864,89.8410638 25.3481596,89.7024202 C25.0696084,89.7024202 24.7910572,89.8410638 24.6517816,90.2569947 C24.512506,91.5047872 24.512506,92.6139362 24.3732304,93.8617287 C24.3732304,94.139016 24.6517816,94.4163032 24.9303328,94.4163032 C25.3481596,94.4163032 25.6267108,94.2776596 25.6267108,93.8617287 Z M25.6267108,102.180346 C25.4874352,101.071197 25.4874352,99.8234043 25.4874352,98.7142553 C25.4874352,98.4369681 25.208884,98.1596809 24.9303328,98.1596809 C24.6517816,98.1596809 24.3732304,98.4369681 24.3732304,98.7142553 C24.3732304,99.9620479 24.3732304,101.071197 24.512506,102.318989 C24.512506,102.596277 24.7910572,102.873564 25.208884,102.873564 C25.4874352,102.73492 25.6267108,102.457633 25.6267108,102.180346 Z M26.60164,110.360319 C26.3230888,109.25117 26.1838132,108.003378 26.0445376,106.894229 C26.0445376,106.616941 25.7659864,106.339654 25.3481596,106.339654 C25.0696084,106.339654 24.7910572,106.616941 24.7910572,107.032872 C24.9303328,108.280665 25.0696084,109.389814 25.3481596,110.637606 C25.3481596,110.914894 25.7659864,111.192181 26.0445376,111.053537 C26.4623644,110.914894 26.7409156,110.637606 26.60164,110.360319 Z M28.5514984,118.401649 C28.2729472,117.2925 27.8551204,116.183351 27.5765692,114.935559 C27.4372936,114.658271 27.1587424,114.380984 26.8801912,114.519628 C26.60164,114.658271 26.3230888,114.935559 26.4623644,115.212846 C26.7409156,116.321995 27.0194668,117.569787 27.4372936,118.678936 C27.5765692,118.956223 27.8551204,119.233511 28.1336716,119.094867 C28.5514984,118.956223 28.690774,118.678936 28.5514984,118.401649 Z M31.4762861,126.027048 C31.0584593,124.917899 30.5013569,123.80875 30.0835301,122.699601 C29.9442545,122.422314 29.6657033,122.28367 29.2478764,122.422314 C28.9693252,122.560957 28.8300496,122.838245 28.8300496,123.254176 C29.2478764,124.363324 29.6657033,125.472473 30.2228057,126.581622 C30.3620813,126.85891 30.6406325,126.997553 31.0584593,126.85891 C31.4762861,126.720266 31.6155617,126.442979 31.4762861,126.027048 Z M35.0974517,133.513803 C34.5403493,132.543298 33.9832469,131.434149 33.4261445,130.463644 C33.2868689,130.186356 32.8690421,130.047713 32.5904909,130.186356 C32.3119397,130.325 32.1726641,130.740931 32.3119397,131.018218 C32.8690421,132.127367 33.4261445,133.097872 33.9832469,134.207021 C34.1225225,134.484309 34.5403493,134.622952 34.8189005,134.484309 C35.2367273,134.068378 35.3760029,133.79109 35.0974517,133.513803 Z M39.6935466,140.30734 C38.9971686,139.336835 38.3007906,138.36633 37.6044126,137.395824 C37.465137,137.118537 37.0473102,136.979894 36.768759,137.257181 C36.4902078,137.395824 36.3509322,137.811755 36.6294834,138.089043 C37.3258614,139.059548 38.0222394,140.030053 38.7186174,141.000559 C38.857893,141.277846 39.2757198,141.277846 39.554271,141.139202 C39.8328222,141.000559 39.8328222,140.584628 39.6935466,140.30734 Z M44.9860195,146.684947 C44.1503659,145.853085 43.4539879,144.88258 42.6183343,144.050718 C42.339783,143.773431 42.0612318,143.773431 41.7826806,143.912074 C41.5041294,144.189362 41.5041294,144.466649 41.643405,144.743936 C42.4790587,145.714441 43.1754367,146.546303 44.0110903,147.378165 C44.2896415,147.655452 44.5681927,147.655452 44.8467439,147.378165 C45.1252951,147.378165 45.2645707,146.962234 44.9860195,146.684947 Z M50.9748704,152.369335 C50.1392168,151.537473 49.1642876,150.844255 48.3286339,150.012394 C48.0500827,149.735106 47.7715315,149.735106 47.4929803,150.012394 C47.2144291,150.289681 47.2144291,150.566968 47.4929803,150.844255 C48.3286339,151.676117 49.3035632,152.507979 50.1392168,153.201197 C50.417768,153.478484 50.8355948,153.33984 50.9748704,153.201197 C51.2534216,153.062553 51.2534216,152.646622 50.9748704,152.369335 Z M57.5208237,157.360505 C56.5458945,156.667287 55.5709653,155.974069 54.596036,155.280851 C54.3174848,155.142207 53.899658,155.142207 53.7603824,155.419495 C53.6211068,155.696782 53.6211068,156.112713 53.899658,156.251356 C54.8745872,156.944574 55.8495165,157.637793 56.8244457,158.331011 C57.1029969,158.469654 57.5208237,158.469654 57.6600993,158.192367 C57.9386505,157.91508 57.7993749,157.637793 57.5208237,157.360505 Z M64.6238794,161.658457 C63.5096746,161.103883 62.5347454,160.549309 61.5598161,159.994734 C61.2812649,159.85609 60.8634381,159.85609 60.7241625,160.272021 C60.5848869,160.549309 60.5848869,160.965239 61.0027137,161.103883 C61.9776429,161.658457 63.0918478,162.351676 64.2060526,162.90625 C64.4846038,163.044894 64.9024306,162.90625 65.0417062,162.628963 C65.0417062,162.213032 64.9024306,161.797101 64.6238794,161.658457 Z M72.2840375,164.985904 C71.1698327,164.569973 70.0556279,164.154043 68.9414231,163.599468 C68.6628719,163.460824 68.245045,163.599468 68.1057694,163.876755 C67.9664938,164.154043 68.1057694,164.569973 68.3843206,164.708617 C69.4985255,165.124548 70.6127303,165.679122 71.7269351,166.095053 C72.0054863,166.233697 72.4233131,166.095053 72.5625887,165.817766 C72.7018643,165.540479 72.5625887,165.124548 72.2840375,164.985904 Z M80.0834712,167.481489 C78.9692664,167.204202 77.8550616,166.926915 76.6015812,166.510984 C76.32303,166.37234 75.9052032,166.649628 75.9052032,166.926915 C75.7659276,167.204202 76.0444788,167.620133 76.32303,167.620133 C77.4372348,168.036064 78.6907152,168.313351 79.80492,168.590638 C80.0834712,168.729282 80.501298,168.451995 80.501298,168.174707 C80.6405736,167.89742 80.501298,167.620133 80.0834712,167.481489 Z M88.3007318,169.145213 C87.1865269,169.006569 85.9330465,168.729282 84.8188417,168.590638 C84.5402905,168.590638 84.1224637,168.729282 84.1224637,169.006569 C84.1224637,169.283856 84.2617393,169.699787 84.5402905,169.699787 C85.6544953,169.977074 86.9079757,170.115718 88.1614562,170.254362 C88.4400074,170.254362 88.8578342,170.115718 88.8578342,169.699787 C88.8578342,169.4225 88.579283,169.145213 88.3007318,169.145213 Z M96.5179923,169.838431 C95.2645119,169.838431 94.150307,169.699787 93.0361022,169.699787 C92.757551,169.699787 92.4789998,169.977074 92.3397242,170.254362 C92.3397242,170.531649 92.6182754,170.808936 92.8968266,170.94758 C94.150307,171.086223 95.2645119,171.086223 96.5179923,171.086223 C96.7965435,171.086223 97.0750947,170.808936 97.0750947,170.531649 C97.0750947,170.115718 96.9358191,169.838431 96.5179923,169.838431 Z M104.874528,169.561144 C103.760324,169.699787 102.506843,169.699787 101.392638,169.838431 C101.114087,169.838431 100.835536,170.115718 100.835536,170.393005 C100.835536,170.670293 101.114087,170.94758 101.392638,170.94758 C102.646119,170.94758 103.760324,170.808936 105.013804,170.670293 C105.292355,170.670293 105.570906,170.393005 105.570906,169.977074 C105.431631,169.699787 105.15308,169.4225 104.874528,169.561144 Z M113.091789,168.313351 C111.977584,168.590638 110.724104,168.729282 109.609899,169.006569 C109.331348,169.006569 109.052796,169.4225 109.052796,169.699787 C109.052796,169.977074 109.470623,170.254362 109.749174,170.254362 C111.002655,170.115718 112.11686,169.838431 113.37034,169.561144 C113.648891,169.561144 113.927443,169.145213 113.788167,168.867926 C113.648891,168.451995 113.37034,168.313351 113.091789,168.313351 Z M121.030498,166.233697 C119.916293,166.649628 118.802089,166.926915 117.687884,167.204202 C117.409333,167.342846 117.130781,167.620133 117.270057,167.89742 C117.409333,168.174707 117.687884,168.451995 117.966435,168.313351 C119.08064,168.036064 120.33412,167.620133 121.448325,167.342846 C121.726876,167.204202 121.866152,166.926915 121.866152,166.649628 C121.726876,166.233697 121.309049,166.095053 121.030498,166.233697 Z M128.690656,163.183537 C127.576452,163.738112 126.601522,164.154043 125.487318,164.569973 C125.208766,164.708617 125.069491,164.985904 125.208766,165.401835 C125.348042,165.679122 125.626593,165.817766 126.04442,165.679122 C127.158625,165.263191 128.27283,164.708617 129.387034,164.292686 C129.665586,164.154043 129.804861,163.738112 129.665586,163.460824 C129.387034,163.183537 128.969208,163.044894 128.690656,163.183537 Z M136.072263,159.301516 C135.097334,159.85609 133.983129,160.549309 133.0082,161.103883 C132.729649,161.242527 132.590373,161.658457 132.729649,161.935745 C132.868924,162.213032 133.286751,162.351676 133.565302,162.213032 C134.679507,161.658457 135.654436,161.103883 136.629366,160.410665 C136.907917,160.272021 137.047192,159.85609 136.768641,159.578803 C136.629366,159.162872 136.350814,159.162872 136.072263,159.301516 L136.072263,159.301516 Z M142.896768,154.587633 C141.921839,155.280851 140.946909,155.974069 139.97198,156.667287 C139.693429,156.805931 139.693429,157.221862 139.832705,157.499149 C139.97198,157.776436 140.389807,157.776436 140.668358,157.637793 C141.643287,156.944574 142.618217,156.251356 143.593146,155.558138 C143.871697,155.419495 143.871697,155.003564 143.732421,154.726277 C143.45387,154.448989 143.175319,154.448989 142.896768,154.587633 Z M149.16417,149.180532 C148.328516,150.012394 147.492863,150.844255 146.517933,151.537473 C146.239382,151.814761 146.239382,152.092048 146.517933,152.369335 C146.796485,152.646622 147.075036,152.646622 147.353587,152.369335 C148.189241,151.537473 149.16417,150.705612 149.999823,149.87375 C150.278375,149.596463 150.278375,149.319176 149.999823,149.041888 C149.721272,149.041888 149.303445,149.041888 149.16417,149.180532 Z M154.735194,143.080213 C154.038816,144.050718 153.203162,144.88258 152.367509,145.714441 C152.088958,145.991729 152.228233,146.269016 152.367509,146.546303 C152.64606,146.82359 152.924611,146.684947 153.203162,146.546303 C154.038816,145.714441 154.735194,144.743936 155.570848,143.773431 C155.849399,143.496144 155.710123,143.080213 155.431572,142.941569 C155.292296,142.802926 154.87447,142.802926 154.735194,143.080213 Z M159.60984,136.425319 C158.913462,137.395824 158.35636,138.36633 157.659982,139.336835 C157.520706,139.614122 157.520706,140.030053 157.799257,140.168697 C158.077808,140.30734 158.495635,140.30734 158.634911,140.030053 C159.331289,139.059548 160.027667,138.089043 160.724045,137.118537 C160.86332,136.84125 160.86332,136.425319 160.584769,136.286676 C160.166942,136.148032 159.749116,136.148032 159.60984,136.425319 L159.60984,136.425319 Z M163.648833,129.215851 C163.09173,130.325 162.534628,131.295505 161.977525,132.404654 C161.83825,132.681941 161.977525,133.097872 162.256076,133.236516 C162.534628,133.37516 162.952454,133.236516 163.09173,132.959229 C163.648833,131.85008 164.205935,130.879574 164.763037,129.770426 C164.902313,129.493138 164.763037,129.077207 164.484486,128.938564 C164.205935,128.79992 163.788108,128.938564 163.648833,129.215851 Z M166.852171,121.590452 C166.434345,122.699601 166.016518,123.80875 165.598691,124.917899 C165.459415,125.195186 165.598691,125.611117 165.877242,125.749761 C166.155793,125.888404 166.57362,125.749761 166.712896,125.472473 C167.130723,124.363324 167.548549,123.254176 167.966376,122.145027 C168.105652,121.867739 167.966376,121.451809 167.548549,121.451809 C167.269998,121.174521 166.991447,121.313165 166.852171,121.590452 Z M169.219857,113.687766 C168.941305,114.796915 168.662754,116.044707 168.384203,117.153856 C168.244927,117.431144 168.523479,117.847074 168.80203,117.847074 C169.080581,117.985718 169.498408,117.708431 169.498408,117.431144 C169.776959,116.321995 170.194786,115.074202 170.334061,113.965053 C170.473337,113.687766 170.194786,113.271835 169.916235,113.271835 C169.637683,113.133191 169.219857,113.410479 169.219857,113.687766 Z M170.612613,105.646436 C170.473337,106.755585 170.334061,108.003378 170.194786,109.112527 C170.194786,109.389814 170.334061,109.805745 170.751888,109.805745 C171.030439,109.805745 171.448266,109.667101 171.448266,109.25117 C171.587542,108.142021 171.866093,106.894229 172.005369,105.646436 C172.005369,105.369149 171.866093,105.091862 171.448266,104.953218 C170.891164,105.091862 170.612613,105.230505 170.612613,105.646436 Z" fill="#E8DFD4"></path>
                        </g>
                        <g transform="translate(0.000000, 93.866223)">
                            <polygon id="Shape" fill="#B74343" points="0.139275602 7.89819149 13.5097334 31.3289628 0 54.759734 0 54.759734 46.1002243 54.759734 46.1002243 7.89819149"></polygon>
                            <path d="M24.0946792,11.3642819 L26.7409156,11.3642819 C27.0194668,11.3642819 27.298018,11.2256383 27.298018,10.9483511 C27.298018,10.6710638 27.0194668,10.5324202 26.7409156,10.5324202 L24.0946792,10.5324202 C23.816128,10.5324202 23.5375768,10.8097074 23.5375768,10.9483511 C23.5375768,11.2256383 23.6768524,11.3642819 24.0946792,11.3642819 Z M18.8022063,11.3642819 L21.4484427,11.3642819 C21.7269939,11.3642819 22.0055451,11.2256383 22.0055451,10.9483511 C22.0055451,10.6710638 21.7269939,10.5324202 21.4484427,10.5324202 L18.8022063,10.5324202 C18.5236551,10.5324202 18.2451039,10.8097074 18.2451039,10.9483511 C18.3843795,11.2256383 18.5236551,11.3642819 18.8022063,11.3642819 Z M13.649009,11.3642819 L16.2952454,11.3642819 C16.5737967,11.3642819 16.8523479,11.2256383 16.8523479,10.9483511 C16.8523479,10.6710638 16.5737967,10.5324202 16.2952454,10.5324202 L13.649009,10.5324202 C13.3704578,10.5324202 13.0919066,10.8097074 13.0919066,10.9483511 C13.2311822,11.2256383 13.3704578,11.3642819 13.649009,11.3642819 Z M8.49581173,11.3642819 L11.1420482,11.3642819 C11.4205994,11.3642819 11.6991506,11.2256383 11.6991506,10.9483511 C11.6991506,10.6710638 11.4205994,10.5324202 11.1420482,10.5324202 L8.49581173,10.5324202 C8.21726053,10.5324202 7.93870932,10.8097074 7.93870932,10.9483511 C7.93870932,11.2256383 8.21726053,11.3642819 8.49581173,11.3642819 Z M3.34261445,11.3642819 L5.98885089,11.3642819 C6.2674021,11.3642819 6.5459533,11.2256383 6.5459533,10.9483511 C6.5459533,10.6710638 6.2674021,10.5324202 5.98885089,10.5324202 L3.34261445,10.5324202 C3.06406325,10.5324202 2.78551204,10.8097074 2.78551204,10.9483511 C2.78551204,11.2256383 3.06406325,11.3642819 3.34261445,11.3642819 Z" id="Shape" fill="#FFFFFF"></path>
                            <path d="M39.554271,52.1255053 L42.2005074,52.1255053 C42.4790587,52.1255053 42.7576099,51.8482181 42.7576099,51.7095745 C42.7576099,51.4322872 42.4790587,51.2936436 42.2005074,51.2936436 L39.554271,51.2936436 C39.2757198,51.2936436 38.9971686,51.5709309 38.9971686,51.7095745 C38.9971686,51.9868617 39.2757198,52.1255053 39.554271,52.1255053 Z M34.4010737,52.1255053 L37.0473102,52.1255053 C37.3258614,52.1255053 37.6044126,51.8482181 37.6044126,51.7095745 C37.6044126,51.4322872 37.3258614,51.2936436 37.0473102,51.2936436 L34.4010737,51.2936436 C34.1225225,51.2936436 33.8439713,51.5709309 33.8439713,51.7095745 C33.8439713,51.9868617 34.1225225,52.1255053 34.4010737,52.1255053 Z M29.2478764,52.1255053 L31.8941129,52.1255053 C32.1726641,52.1255053 32.4512153,51.8482181 32.4512153,51.7095745 C32.4512153,51.4322872 32.1726641,51.2936436 31.8941129,51.2936436 L29.2478764,51.2936436 C28.9693252,51.2936436 28.690774,51.5709309 28.690774,51.7095745 C28.690774,51.9868617 28.9693252,52.1255053 29.2478764,52.1255053 Z M24.0946792,52.1255053 L26.7409156,52.1255053 C27.0194668,52.1255053 27.298018,51.8482181 27.298018,51.7095745 C27.298018,51.4322872 27.0194668,51.2936436 26.7409156,51.2936436 L24.0946792,51.2936436 C23.816128,51.2936436 23.5375768,51.5709309 23.5375768,51.7095745 C23.5375768,51.9868617 23.6768524,52.1255053 24.0946792,52.1255053 Z M18.8022063,52.1255053 L21.4484427,52.1255053 C21.7269939,52.1255053 22.0055451,51.8482181 22.0055451,51.7095745 C22.0055451,51.4322872 21.7269939,51.2936436 21.4484427,51.2936436 L18.8022063,51.2936436 C18.5236551,51.2936436 18.2451039,51.5709309 18.2451039,51.7095745 C18.3843795,51.9868617 18.5236551,52.1255053 18.8022063,52.1255053 Z M13.649009,52.1255053 L16.2952454,52.1255053 C16.5737967,52.1255053 16.8523479,51.8482181 16.8523479,51.7095745 C16.8523479,51.4322872 16.5737967,51.2936436 16.2952454,51.2936436 L13.649009,51.2936436 C13.3704578,51.2936436 13.0919066,51.5709309 13.0919066,51.7095745 C13.2311822,51.9868617 13.3704578,52.1255053 13.649009,52.1255053 Z M8.49581173,52.1255053 L11.1420482,52.1255053 C11.4205994,52.1255053 11.6991506,51.8482181 11.6991506,51.7095745 C11.6991506,51.4322872 11.4205994,51.2936436 11.1420482,51.2936436 L8.49581173,51.2936436 C8.21726053,51.2936436 7.93870932,51.5709309 7.93870932,51.7095745 C7.93870932,51.9868617 8.21726053,52.1255053 8.49581173,52.1255053 Z M3.34261445,52.1255053 L5.98885089,52.1255053 C6.2674021,52.1255053 6.5459533,51.8482181 6.5459533,51.7095745 C6.5459533,51.4322872 6.2674021,51.2936436 5.98885089,51.2936436 L3.34261445,51.2936436 C3.06406325,51.2936436 2.78551204,51.5709309 2.78551204,51.7095745 C2.78551204,51.9868617 3.06406325,52.1255053 3.34261445,52.1255053 Z" id="Shape" fill="#FFFFFF"></path>
                            <polygon id="Shape" fill="#B74343" points="271.7267 7.89819149 258.216966 31.3289628 271.7267 54.759734 271.7267 54.759734 225.626475 54.759734 225.626475 7.89819149"></polygon>
                            <path d="M266.0164,52.1255053 L268.662637,52.1255053 C268.941188,52.1255053 269.219739,51.8482181 269.219739,51.7095745 C269.219739,51.4322872 268.941188,51.2936436 268.662637,51.2936436 L266.0164,51.2936436 C265.737849,51.2936436 265.459298,51.5709309 265.459298,51.7095745 C265.598573,51.9868617 265.737849,52.1255053 266.0164,52.1255053 Z M260.863203,52.1255053 L263.509439,52.1255053 C263.78799,52.1255053 264.066542,51.8482181 264.066542,51.7095745 C264.066542,51.4322872 263.78799,51.2936436 263.509439,51.2936436 L260.863203,51.2936436 C260.584652,51.2936436 260.3061,51.5709309 260.3061,51.7095745 C260.3061,51.9868617 260.584652,52.1255053 260.863203,52.1255053 Z M255.710006,52.1255053 L258.356242,52.1255053 C258.634793,52.1255053 258.913344,51.8482181 258.913344,51.7095745 C258.913344,51.4322872 258.634793,51.2936436 258.356242,51.2936436 L255.710006,51.2936436 C255.431454,51.2936436 255.152903,51.5709309 255.152903,51.7095745 C255.152903,51.9868617 255.431454,52.1255053 255.710006,52.1255053 Z M250.556808,52.1255053 L253.203045,52.1255053 C253.481596,52.1255053 253.760147,51.8482181 253.760147,51.7095745 C253.760147,51.4322872 253.481596,51.2936436 253.203045,51.2936436 L250.556808,51.2936436 C250.278257,51.2936436 249.999706,51.5709309 249.999706,51.7095745 C249.999706,51.9868617 250.278257,52.1255053 250.556808,52.1255053 Z M245.403611,52.1255053 L248.049847,52.1255053 C248.328399,52.1255053 248.60695,51.8482181 248.60695,51.7095745 C248.60695,51.4322872 248.328399,51.2936436 248.049847,51.2936436 L245.403611,51.2936436 C245.12506,51.2936436 244.846509,51.5709309 244.846509,51.7095745 C244.846509,51.9868617 245.12506,52.1255053 245.403611,52.1255053 Z M240.250414,52.1255053 L242.89665,52.1255053 C243.175201,52.1255053 243.453753,51.8482181 243.453753,51.7095745 C243.453753,51.4322872 243.175201,51.2936436 242.89665,51.2936436 L240.250414,51.2936436 C239.971862,51.2936436 239.693311,51.5709309 239.693311,51.7095745 C239.693311,51.9868617 239.971862,52.1255053 240.250414,52.1255053 Z M234.957941,52.1255053 L237.604177,52.1255053 C237.882728,52.1255053 238.16128,51.8482181 238.16128,51.7095745 C238.16128,51.4322872 237.882728,51.2936436 237.604177,51.2936436 L234.957941,51.2936436 C234.67939,51.2936436 234.400838,51.5709309 234.400838,51.7095745 C234.540114,51.9868617 234.67939,52.1255053 234.957941,52.1255053 Z M229.804744,52.1255053 L232.45098,52.1255053 C232.729531,52.1255053 233.008082,51.8482181 233.008082,51.7095745 C233.008082,51.4322872 232.729531,51.2936436 232.45098,51.2936436 L229.804744,51.2936436 C229.526192,51.2936436 229.247641,51.5709309 229.247641,51.7095745 C229.386917,51.9868617 229.526192,52.1255053 229.804744,52.1255053 Z" id="Shape" fill="#FFFFFF"></path>
                            <path d="M265.877124,11.3642819 L268.523361,11.3642819 C268.801912,11.3642819 269.080463,11.2256383 269.080463,10.9483511 C269.080463,10.6710638 268.801912,10.5324202 268.523361,10.5324202 L265.877124,10.5324202 C265.598573,10.5324202 265.320022,10.8097074 265.320022,10.9483511 C265.320022,11.2256383 265.598573,11.3642819 265.877124,11.3642819 Z M260.723927,11.3642819 L263.370164,11.3642819 C263.648715,11.3642819 263.927266,11.2256383 263.927266,10.9483511 C263.927266,10.6710638 263.648715,10.5324202 263.370164,10.5324202 L260.723927,10.5324202 C260.445376,10.5324202 260.166825,10.8097074 260.166825,10.9483511 C260.166825,11.2256383 260.445376,11.3642819 260.723927,11.3642819 Z M255.431454,11.3642819 L258.077691,11.3642819 C258.356242,11.3642819 258.634793,11.2256383 258.634793,10.9483511 C258.634793,10.6710638 258.356242,10.5324202 258.077691,10.5324202 L255.431454,10.5324202 C255.152903,10.5324202 254.874352,10.8097074 254.874352,10.9483511 C255.013628,11.2256383 255.152903,11.3642819 255.431454,11.3642819 Z M250.278257,11.3642819 L252.924493,11.3642819 C253.203045,11.3642819 253.481596,11.2256383 253.481596,10.9483511 C253.481596,10.6710638 253.203045,10.5324202 252.924493,10.5324202 L250.278257,10.5324202 C249.999706,10.5324202 249.721155,10.8097074 249.721155,10.9483511 C249.86043,11.2256383 249.999706,11.3642819 250.278257,11.3642819 Z M245.12506,11.3642819 L247.771296,11.3642819 C248.049847,11.3642819 248.328399,11.2256383 248.328399,10.9483511 C248.328399,10.6710638 248.049847,10.5324202 247.771296,10.5324202 L245.12506,10.5324202 C244.846509,10.5324202 244.567957,10.8097074 244.567957,10.9483511 C244.567957,11.2256383 244.846509,11.3642819 245.12506,11.3642819 Z" id="Shape" fill="#FFFFFF"></path>
                            <rect id="Rectangle-path" fill="#D45353" x="26.7409156" y="0.272792553" width="218.52342" height="46.8615426"></rect>
                            <polygon id="Shape" fill="#842828" points="46.1002243 54.759734 26.7409156 47.1343351 46.1002243 47.1343351"></polygon>
                            <polygon id="Shape" fill="#842828" points="225.626475 54.759734 244.985784 47.1343351 225.626475 47.1343351"></polygon>
                            <g transform="translate(27.855120, 2.772872)" id="Shape" fill="#FFFFFF">
                                <path d="M212.952396,41.3113032 L215.598632,41.3113032 C215.877183,41.3113032 216.155735,41.034016 216.155735,40.8953723 C216.155735,40.6180851 215.877183,40.4794415 215.598632,40.4794415 L212.952396,40.4794415 C212.673844,40.4794415 212.395293,40.6180851 212.395293,40.8953723 C212.534569,41.1726596 212.673844,41.3113032 212.952396,41.3113032 Z M207.799198,41.3113032 L210.445435,41.3113032 C210.723986,41.3113032 211.002537,41.034016 211.002537,40.8953723 C211.002537,40.6180851 210.723986,40.4794415 210.445435,40.4794415 L207.799198,40.4794415 C207.520647,40.4794415 207.242096,40.6180851 207.242096,40.8953723 C207.242096,41.1726596 207.520647,41.3113032 207.799198,41.3113032 Z M202.646001,41.3113032 L205.292238,41.3113032 C205.570789,41.3113032 205.84934,41.034016 205.84934,40.8953723 C205.84934,40.6180851 205.570789,40.4794415 205.292238,40.4794415 L202.646001,40.4794415 C202.36745,40.4794415 202.088899,40.6180851 202.088899,40.8953723 C202.088899,41.1726596 202.36745,41.3113032 202.646001,41.3113032 Z M197.492804,41.3113032 L200.13904,41.3113032 C200.417591,41.3113032 200.696143,41.034016 200.696143,40.8953723 C200.696143,40.6180851 200.417591,40.4794415 200.13904,40.4794415 L197.492804,40.4794415 C197.214253,40.4794415 196.935701,40.6180851 196.935701,40.8953723 C196.935701,41.1726596 197.214253,41.3113032 197.492804,41.3113032 Z M192.339607,41.3113032 L194.985843,41.3113032 C195.264394,41.3113032 195.542945,41.034016 195.542945,40.8953723 C195.542945,40.6180851 195.264394,40.4794415 194.985843,40.4794415 L192.339607,40.4794415 C192.061055,40.4794415 191.782504,40.6180851 191.782504,40.8953723 C191.782504,41.1726596 192.061055,41.3113032 192.339607,41.3113032 Z M187.186409,41.3113032 L189.832646,41.3113032 C190.111197,41.3113032 190.389748,41.034016 190.389748,40.8953723 C190.389748,40.6180851 190.111197,40.4794415 189.832646,40.4794415 L187.186409,40.4794415 C186.907858,40.4794415 186.629307,40.6180851 186.629307,40.8953723 C186.629307,41.1726596 186.907858,41.3113032 187.186409,41.3113032 Z M181.893936,41.3113032 L184.540173,41.3113032 C184.818724,41.3113032 185.097275,41.034016 185.097275,40.8953723 C185.097275,40.6180851 184.818724,40.4794415 184.540173,40.4794415 L181.893936,40.4794415 C181.615385,40.4794415 181.336834,40.6180851 181.336834,40.8953723 C181.47611,41.1726596 181.615385,41.3113032 181.893936,41.3113032 Z M176.740739,41.3113032 L179.386976,41.3113032 C179.665527,41.3113032 179.944078,41.034016 179.944078,40.8953723 C179.944078,40.6180851 179.665527,40.4794415 179.386976,40.4794415 L176.740739,40.4794415 C176.462188,40.4794415 176.183637,40.6180851 176.183637,40.8953723 C176.322912,41.1726596 176.462188,41.3113032 176.740739,41.3113032 Z M171.587542,41.3113032 L174.233778,41.3113032 C174.512329,41.3113032 174.790881,41.034016 174.790881,40.8953723 C174.790881,40.6180851 174.512329,40.4794415 174.233778,40.4794415 L171.587542,40.4794415 C171.308991,40.4794415 171.030439,40.6180851 171.030439,40.8953723 C171.030439,41.1726596 171.308991,41.3113032 171.587542,41.3113032 Z M166.434345,41.3113032 L169.080581,41.3113032 C169.359132,41.3113032 169.637683,41.034016 169.637683,40.8953723 C169.637683,40.6180851 169.359132,40.4794415 169.080581,40.4794415 L166.434345,40.4794415 C166.155793,40.4794415 165.877242,40.6180851 165.877242,40.8953723 C165.877242,41.1726596 166.155793,41.3113032 166.434345,41.3113032 Z M161.281147,41.3113032 L163.927384,41.3113032 C164.205935,41.3113032 164.484486,41.034016 164.484486,40.8953723 C164.484486,40.6180851 164.205935,40.4794415 163.927384,40.4794415 L161.281147,40.4794415 C161.002596,40.4794415 160.724045,40.6180851 160.724045,40.8953723 C160.724045,41.1726596 161.002596,41.3113032 161.281147,41.3113032 Z M156.12795,41.3113032 L158.774186,41.3113032 C159.052738,41.3113032 159.331289,41.034016 159.331289,40.8953723 C159.331289,40.6180851 159.052738,40.4794415 158.774186,40.4794415 L156.12795,40.4794415 C155.849399,40.4794415 155.570848,40.6180851 155.570848,40.8953723 C155.570848,41.1726596 155.849399,41.3113032 156.12795,41.3113032 Z M150.974753,41.3113032 L153.620989,41.3113032 C153.89954,41.3113032 154.178092,41.034016 154.178092,40.8953723 C154.178092,40.6180851 153.89954,40.4794415 153.620989,40.4794415 L150.974753,40.4794415 C150.696202,40.4794415 150.41765,40.6180851 150.41765,40.8953723 C150.41765,41.1726596 150.696202,41.3113032 150.974753,41.3113032 Z M145.68228,41.3113032 L148.328516,41.3113032 C148.607067,41.3113032 148.885619,41.034016 148.885619,40.8953723 C148.885619,40.6180851 148.607067,40.4794415 148.328516,40.4794415 L145.68228,40.4794415 C145.403729,40.4794415 145.125177,40.6180851 145.125177,40.8953723 C145.264453,41.1726596 145.403729,41.3113032 145.68228,41.3113032 Z M140.529083,41.3113032 L143.175319,41.3113032 C143.45387,41.3113032 143.732421,41.034016 143.732421,40.8953723 C143.732421,40.6180851 143.45387,40.4794415 143.175319,40.4794415 L140.529083,40.4794415 C140.250531,40.4794415 139.97198,40.6180851 139.97198,40.8953723 C140.111256,41.1726596 140.250531,41.3113032 140.529083,41.3113032 Z M135.375885,41.3113032 L138.022122,41.3113032 C138.300673,41.3113032 138.579224,41.034016 138.579224,40.8953723 C138.579224,40.6180851 138.300673,40.4794415 138.022122,40.4794415 L135.375885,40.4794415 C135.097334,40.4794415 134.818783,40.6180851 134.818783,40.8953723 C134.818783,41.1726596 135.097334,41.3113032 135.375885,41.3113032 Z M130.222688,41.3113032 L132.868924,41.3113032 C133.147476,41.3113032 133.426027,41.034016 133.426027,40.8953723 C133.426027,40.6180851 133.147476,40.4794415 132.868924,40.4794415 L130.222688,40.4794415 C129.944137,40.4794415 129.665586,40.6180851 129.665586,40.8953723 C129.665586,41.1726596 129.944137,41.3113032 130.222688,41.3113032 Z M125.069491,41.3113032 L127.715727,41.3113032 C127.994278,41.3113032 128.27283,41.034016 128.27283,40.8953723 C128.27283,40.6180851 127.994278,40.4794415 127.715727,40.4794415 L125.069491,40.4794415 C124.79094,40.4794415 124.512388,40.6180851 124.512388,40.8953723 C124.512388,41.1726596 124.79094,41.3113032 125.069491,41.3113032 Z M119.916293,41.3113032 L122.56253,41.3113032 C122.841081,41.3113032 123.119632,41.034016 123.119632,40.8953723 C123.119632,40.6180851 122.841081,40.4794415 122.56253,40.4794415 L119.916293,40.4794415 C119.637742,40.4794415 119.359191,40.6180851 119.359191,40.8953723 C119.359191,41.1726596 119.637742,41.3113032 119.916293,41.3113032 Z M114.763096,41.3113032 L117.409333,41.3113032 C117.687884,41.3113032 117.966435,41.034016 117.966435,40.8953723 C117.966435,40.6180851 117.687884,40.4794415 117.409333,40.4794415 L114.763096,40.4794415 C114.484545,40.4794415 114.205994,40.6180851 114.205994,40.8953723 C114.205994,41.1726596 114.484545,41.3113032 114.763096,41.3113032 Z M109.470623,41.3113032 L112.11686,41.3113032 C112.395411,41.3113032 112.673962,41.034016 112.673962,40.8953723 C112.673962,40.6180851 112.395411,40.4794415 112.11686,40.4794415 L109.470623,40.4794415 C109.192072,40.4794415 108.913521,40.6180851 108.913521,40.8953723 C109.052796,41.1726596 109.192072,41.3113032 109.470623,41.3113032 Z M104.317426,41.3113032 L106.963662,41.3113032 C107.242214,41.3113032 107.520765,41.034016 107.520765,40.8953723 C107.520765,40.6180851 107.242214,40.4794415 106.963662,40.4794415 L104.317426,40.4794415 C104.038875,40.4794415 103.760324,40.6180851 103.760324,40.8953723 C103.899599,41.1726596 104.038875,41.3113032 104.317426,41.3113032 Z M99.1642287,41.3113032 L101.810465,41.3113032 C102.089016,41.3113032 102.367568,41.034016 102.367568,40.8953723 C102.367568,40.6180851 102.089016,40.4794415 101.810465,40.4794415 L99.1642287,40.4794415 C98.8856775,40.4794415 98.6071263,40.6180851 98.6071263,40.8953723 C98.6071263,41.1726596 98.8856775,41.3113032 99.1642287,41.3113032 Z M94.0110314,41.3113032 L96.6572679,41.3113032 C96.9358191,41.3113032 97.2143703,41.034016 97.2143703,40.8953723 C97.2143703,40.6180851 96.9358191,40.4794415 96.6572679,40.4794415 L94.0110314,40.4794415 C93.7324802,40.4794415 93.453929,40.6180851 93.453929,40.8953723 C93.453929,41.1726596 93.7324802,41.3113032 94.0110314,41.3113032 Z M88.8578342,41.3113032 L91.5040706,41.3113032 C91.7826218,41.3113032 92.061173,41.034016 92.061173,40.8953723 C92.061173,40.6180851 91.7826218,40.4794415 91.5040706,40.4794415 L88.8578342,40.4794415 C88.579283,40.4794415 88.3007318,40.6180851 88.3007318,40.8953723 C88.3007318,41.1726596 88.579283,41.3113032 88.8578342,41.3113032 Z M83.7046369,41.3113032 L86.3508733,41.3113032 C86.6294245,41.3113032 86.9079757,41.034016 86.9079757,40.8953723 C86.9079757,40.6180851 86.6294245,40.4794415 86.3508733,40.4794415 L83.7046369,40.4794415 C83.4260857,40.4794415 83.1475345,40.6180851 83.1475345,40.8953723 C83.1475345,41.1726596 83.4260857,41.3113032 83.7046369,41.3113032 Z M78.5514396,41.3113032 L81.197676,41.3113032 C81.4762272,41.3113032 81.7547785,41.034016 81.7547785,40.8953723 C81.7547785,40.6180851 81.4762272,40.4794415 81.197676,40.4794415 L78.5514396,40.4794415 C78.2728884,40.4794415 77.9943372,40.6180851 77.9943372,40.8953723 C77.9943372,41.1726596 78.2728884,41.3113032 78.5514396,41.3113032 Z M73.3982423,41.3113032 L76.0444788,41.3113032 C76.32303,41.3113032 76.6015812,41.034016 76.6015812,40.8953723 C76.6015812,40.6180851 76.32303,40.4794415 76.0444788,40.4794415 L73.3982423,40.4794415 C73.1196911,40.4794415 72.8411399,40.6180851 72.8411399,40.8953723 C72.8411399,41.1726596 72.9804155,41.3113032 73.3982423,41.3113032 Z M68.1057694,41.3113032 L70.7520059,41.3113032 C71.0305571,41.3113032 71.3091083,41.034016 71.3091083,40.8953723 C71.3091083,40.6180851 71.0305571,40.4794415 70.7520059,40.4794415 L68.1057694,40.4794415 C67.8272182,40.4794415 67.548667,40.6180851 67.548667,40.8953723 C67.6879426,41.1726596 67.8272182,41.3113032 68.1057694,41.3113032 Z M62.9525722,41.3113032 L65.5988086,41.3113032 C65.8773598,41.3113032 66.155911,41.034016 66.155911,40.8953723 C66.155911,40.6180851 65.8773598,40.4794415 65.5988086,40.4794415 L62.9525722,40.4794415 C62.674021,40.4794415 62.3954698,40.6180851 62.3954698,40.8953723 C62.5347454,41.1726596 62.674021,41.3113032 62.9525722,41.3113032 Z M57.7993749,41.3113032 L60.4456113,41.3113032 C60.7241625,41.3113032 61.0027137,41.034016 61.0027137,40.8953723 C61.0027137,40.6180851 60.7241625,40.4794415 60.4456113,40.4794415 L57.7993749,40.4794415 C57.5208237,40.4794415 57.2422725,40.6180851 57.2422725,40.8953723 C57.2422725,41.1726596 57.5208237,41.3113032 57.7993749,41.3113032 Z M52.6461776,41.3113032 L55.292414,41.3113032 C55.5709653,41.3113032 55.8495165,41.034016 55.8495165,40.8953723 C55.8495165,40.6180851 55.5709653,40.4794415 55.292414,40.4794415 L52.6461776,40.4794415 C52.3676264,40.4794415 52.0890752,40.6180851 52.0890752,40.8953723 C52.0890752,41.1726596 52.3676264,41.3113032 52.6461776,41.3113032 Z M47.4929803,41.3113032 L50.1392168,41.3113032 C50.417768,41.3113032 50.6963192,41.034016 50.6963192,40.8953723 C50.6963192,40.6180851 50.417768,40.4794415 50.1392168,40.4794415 L47.4929803,40.4794415 C47.2144291,40.4794415 46.9358779,40.6180851 46.9358779,40.8953723 C46.9358779,41.1726596 47.2144291,41.3113032 47.4929803,41.3113032 Z M42.339783,41.3113032 L44.9860195,41.3113032 C45.2645707,41.3113032 45.5431219,41.034016 45.5431219,40.8953723 C45.5431219,40.6180851 45.2645707,40.4794415 44.9860195,40.4794415 L42.339783,40.4794415 C42.0612318,40.4794415 41.7826806,40.6180851 41.7826806,40.8953723 C41.7826806,41.1726596 42.0612318,41.3113032 42.339783,41.3113032 Z M37.1865858,41.3113032 L39.8328222,41.3113032 C40.1113734,41.3113032 40.3899246,41.034016 40.3899246,40.8953723 C40.3899246,40.6180851 40.1113734,40.4794415 39.8328222,40.4794415 L37.1865858,40.4794415 C36.9080346,40.4794415 36.6294834,40.6180851 36.6294834,40.8953723 C36.6294834,41.1726596 36.9080346,41.3113032 37.1865858,41.3113032 Z M31.8941129,41.3113032 L34.5403493,41.3113032 C34.8189005,41.3113032 35.0974517,41.034016 35.0974517,40.8953723 C35.0974517,40.6180851 34.8189005,40.4794415 34.5403493,40.4794415 L31.8941129,40.4794415 C31.6155617,40.4794415 31.3370105,40.6180851 31.3370105,40.8953723 C31.4762861,41.1726596 31.6155617,41.3113032 31.8941129,41.3113032 Z M26.7409156,41.3113032 L29.3871521,41.3113032 C29.6657033,41.3113032 29.9442545,41.034016 29.9442545,40.8953723 C29.9442545,40.6180851 29.6657033,40.4794415 29.3871521,40.4794415 L26.7409156,40.4794415 C26.4623644,40.4794415 26.1838132,40.6180851 26.1838132,40.8953723 C26.3230888,41.1726596 26.4623644,41.3113032 26.7409156,41.3113032 Z M21.5877183,41.3113032 L24.2339548,41.3113032 C24.512506,41.3113032 24.7910572,41.034016 24.7910572,40.8953723 C24.7910572,40.6180851 24.512506,40.4794415 24.2339548,40.4794415 L21.5877183,40.4794415 C21.3091671,40.4794415 21.0306159,40.6180851 21.0306159,40.8953723 C21.0306159,41.1726596 21.3091671,41.3113032 21.5877183,41.3113032 Z M16.4345211,41.3113032 L19.0807575,41.3113032 C19.3593087,41.3113032 19.6378599,41.034016 19.6378599,40.8953723 C19.6378599,40.6180851 19.3593087,40.4794415 19.0807575,40.4794415 L16.4345211,40.4794415 C16.1559698,40.4794415 15.8774186,40.6180851 15.8774186,40.8953723 C15.8774186,41.1726596 16.1559698,41.3113032 16.4345211,41.3113032 Z M11.2813238,41.3113032 L13.9275602,41.3113032 C14.2061114,41.3113032 14.4846626,41.034016 14.4846626,40.8953723 C14.4846626,40.6180851 14.2061114,40.4794415 13.9275602,40.4794415 L11.2813238,40.4794415 C11.0027726,40.4794415 10.7242214,40.6180851 10.7242214,40.8953723 C10.7242214,41.1726596 11.0027726,41.3113032 11.2813238,41.3113032 Z M6.12812649,41.3113032 L8.77436293,41.3113032 C9.05291414,41.3113032 9.33146534,41.034016 9.33146534,40.8953723 C9.33146534,40.6180851 9.05291414,40.4794415 8.77436293,40.4794415 L6.12812649,40.4794415 C5.84957529,40.4794415 5.57102409,40.6180851 5.57102409,40.8953723 C5.57102409,41.1726596 5.84957529,41.3113032 6.12812649,41.3113032 Z M0.974929215,41.3113032 L3.62116566,41.3113032 C3.89971686,41.3113032 4.17826806,41.034016 4.17826806,40.8953723 C4.17826806,40.6180851 3.89971686,40.4794415 3.62116566,40.4794415 L0.974929215,40.4794415 C0.696378011,40.4794415 0.417826806,40.6180851 0.417826806,40.8953723 C0.417826806,41.1726596 0.696378011,41.3113032 0.974929215,41.3113032 Z"></path>
                                <path d="M212.952396,0.966010638 L215.598632,0.966010638 C215.877183,0.966010638 216.155735,0.688723404 216.155735,0.550079787 C216.155735,0.272792553 215.877183,0.134148936 215.598632,0.134148936 L212.952396,0.134148936 C212.673844,0.134148936 212.395293,0.41143617 212.395293,0.550079787 C212.534569,0.688723404 212.673844,0.966010638 212.952396,0.966010638 Z M207.799198,0.966010638 L210.445435,0.966010638 C210.723986,0.966010638 211.002537,0.688723404 211.002537,0.550079787 C211.002537,0.272792553 210.723986,0.134148936 210.445435,0.134148936 L207.799198,0.134148936 C207.520647,0.134148936 207.242096,0.41143617 207.242096,0.550079787 C207.242096,0.688723404 207.520647,0.966010638 207.799198,0.966010638 Z M202.646001,0.966010638 L205.292238,0.966010638 C205.570789,0.966010638 205.84934,0.688723404 205.84934,0.550079787 C205.84934,0.272792553 205.570789,0.134148936 205.292238,0.134148936 L202.646001,0.134148936 C202.36745,0.134148936 202.088899,0.41143617 202.088899,0.550079787 C202.088899,0.688723404 202.36745,0.966010638 202.646001,0.966010638 Z M197.492804,0.966010638 L200.13904,0.966010638 C200.417591,0.966010638 200.696143,0.688723404 200.696143,0.550079787 C200.696143,0.272792553 200.417591,0.134148936 200.13904,0.134148936 L197.492804,0.134148936 C197.214253,0.134148936 196.935701,0.41143617 196.935701,0.550079787 C196.935701,0.688723404 197.214253,0.966010638 197.492804,0.966010638 Z M192.339607,0.966010638 L194.985843,0.966010638 C195.264394,0.966010638 195.542945,0.688723404 195.542945,0.550079787 C195.542945,0.272792553 195.264394,0.134148936 194.985843,0.134148936 L192.339607,0.134148936 C192.061055,0.134148936 191.782504,0.41143617 191.782504,0.550079787 C191.782504,0.688723404 192.061055,0.966010638 192.339607,0.966010638 Z M187.186409,0.966010638 L189.832646,0.966010638 C190.111197,0.966010638 190.389748,0.688723404 190.389748,0.550079787 C190.389748,0.272792553 190.111197,0.134148936 189.832646,0.134148936 L187.186409,0.134148936 C186.907858,0.134148936 186.629307,0.41143617 186.629307,0.550079787 C186.629307,0.688723404 186.907858,0.966010638 187.186409,0.966010638 Z M181.893936,0.966010638 L184.540173,0.966010638 C184.818724,0.966010638 185.097275,0.688723404 185.097275,0.550079787 C185.097275,0.272792553 184.818724,0.134148936 184.540173,0.134148936 L181.893936,0.134148936 C181.615385,0.134148936 181.336834,0.41143617 181.336834,0.550079787 C181.47611,0.688723404 181.615385,0.966010638 181.893936,0.966010638 Z M176.740739,0.966010638 L179.386976,0.966010638 C179.665527,0.966010638 179.944078,0.688723404 179.944078,0.550079787 C179.944078,0.272792553 179.665527,0.134148936 179.386976,0.134148936 L176.740739,0.134148936 C176.462188,0.134148936 176.183637,0.41143617 176.183637,0.550079787 C176.322912,0.688723404 176.462188,0.966010638 176.740739,0.966010638 Z M171.587542,0.966010638 L174.233778,0.966010638 C174.512329,0.966010638 174.790881,0.688723404 174.790881,0.550079787 C174.790881,0.272792553 174.512329,0.134148936 174.233778,0.134148936 L171.587542,0.134148936 C171.308991,0.134148936 171.030439,0.41143617 171.030439,0.550079787 C171.030439,0.688723404 171.308991,0.966010638 171.587542,0.966010638 Z M166.434345,0.966010638 L169.080581,0.966010638 C169.359132,0.966010638 169.637683,0.688723404 169.637683,0.550079787 C169.637683,0.272792553 169.359132,0.134148936 169.080581,0.134148936 L166.434345,0.134148936 C166.155793,0.134148936 165.877242,0.41143617 165.877242,0.550079787 C165.877242,0.688723404 166.155793,0.966010638 166.434345,0.966010638 Z M161.281147,0.966010638 L163.927384,0.966010638 C164.205935,0.966010638 164.484486,0.688723404 164.484486,0.550079787 C164.484486,0.272792553 164.205935,0.134148936 163.927384,0.134148936 L161.281147,0.134148936 C161.002596,0.134148936 160.724045,0.41143617 160.724045,0.550079787 C160.724045,0.688723404 161.002596,0.966010638 161.281147,0.966010638 Z M156.12795,0.966010638 L158.774186,0.966010638 C159.052738,0.966010638 159.331289,0.688723404 159.331289,0.550079787 C159.331289,0.272792553 159.052738,0.134148936 158.774186,0.134148936 L156.12795,0.134148936 C155.849399,0.134148936 155.570848,0.41143617 155.570848,0.550079787 C155.570848,0.688723404 155.849399,0.966010638 156.12795,0.966010638 Z M150.974753,0.966010638 L153.620989,0.966010638 C153.89954,0.966010638 154.178092,0.688723404 154.178092,0.550079787 C154.178092,0.272792553 153.89954,0.134148936 153.620989,0.134148936 L150.974753,0.134148936 C150.696202,0.134148936 150.41765,0.41143617 150.41765,0.550079787 C150.41765,0.688723404 150.696202,0.966010638 150.974753,0.966010638 Z M145.68228,0.966010638 L148.328516,0.966010638 C148.607067,0.966010638 148.885619,0.688723404 148.885619,0.550079787 C148.885619,0.272792553 148.607067,0.134148936 148.328516,0.134148936 L145.68228,0.134148936 C145.403729,0.134148936 145.125177,0.41143617 145.125177,0.550079787 C145.264453,0.688723404 145.403729,0.966010638 145.68228,0.966010638 Z M140.529083,0.966010638 L143.175319,0.966010638 C143.45387,0.966010638 143.732421,0.688723404 143.732421,0.550079787 C143.732421,0.272792553 143.45387,0.134148936 143.175319,0.134148936 L140.529083,0.134148936 C140.250531,0.134148936 139.97198,0.41143617 139.97198,0.550079787 C140.111256,0.688723404 140.250531,0.966010638 140.529083,0.966010638 Z M135.375885,0.966010638 L138.022122,0.966010638 C138.300673,0.966010638 138.579224,0.688723404 138.579224,0.550079787 C138.579224,0.272792553 138.300673,0.134148936 138.022122,0.134148936 L135.375885,0.134148936 C135.097334,0.134148936 134.818783,0.41143617 134.818783,0.550079787 C134.818783,0.688723404 135.097334,0.966010638 135.375885,0.966010638 Z M130.222688,0.966010638 L132.868924,0.966010638 C133.147476,0.966010638 133.426027,0.688723404 133.426027,0.550079787 C133.426027,0.272792553 133.147476,0.134148936 132.868924,0.134148936 L130.222688,0.134148936 C129.944137,0.134148936 129.665586,0.41143617 129.665586,0.550079787 C129.665586,0.688723404 129.944137,0.966010638 130.222688,0.966010638 Z M125.069491,0.966010638 L127.715727,0.966010638 C127.994278,0.966010638 128.27283,0.688723404 128.27283,0.550079787 C128.27283,0.272792553 127.994278,0.134148936 127.715727,0.134148936 L125.069491,0.134148936 C124.79094,0.134148936 124.512388,0.41143617 124.512388,0.550079787 C124.512388,0.688723404 124.79094,0.966010638 125.069491,0.966010638 Z M119.916293,0.966010638 L122.56253,0.966010638 C122.841081,0.966010638 123.119632,0.688723404 123.119632,0.550079787 C123.119632,0.272792553 122.841081,0.134148936 122.56253,0.134148936 L119.916293,0.134148936 C119.637742,0.134148936 119.359191,0.41143617 119.359191,0.550079787 C119.359191,0.688723404 119.637742,0.966010638 119.916293,0.966010638 Z M114.763096,0.966010638 L117.409333,0.966010638 C117.687884,0.966010638 117.966435,0.688723404 117.966435,0.550079787 C117.966435,0.272792553 117.687884,0.134148936 117.409333,0.134148936 L114.763096,0.134148936 C114.484545,0.134148936 114.205994,0.41143617 114.205994,0.550079787 C114.205994,0.688723404 114.484545,0.966010638 114.763096,0.966010638 Z M109.470623,0.966010638 L112.11686,0.966010638 C112.395411,0.966010638 112.673962,0.688723404 112.673962,0.550079787 C112.673962,0.272792553 112.395411,0.134148936 112.11686,0.134148936 L109.470623,0.134148936 C109.192072,0.134148936 108.913521,0.41143617 108.913521,0.550079787 C109.052796,0.688723404 109.192072,0.966010638 109.470623,0.966010638 Z M104.317426,0.966010638 L106.963662,0.966010638 C107.242214,0.966010638 107.520765,0.688723404 107.520765,0.550079787 C107.520765,0.272792553 107.242214,0.134148936 106.963662,0.134148936 L104.317426,0.134148936 C104.038875,0.134148936 103.760324,0.41143617 103.760324,0.550079787 C103.899599,0.688723404 104.038875,0.966010638 104.317426,0.966010638 Z M99.1642287,0.966010638 L101.810465,0.966010638 C102.089016,0.966010638 102.367568,0.688723404 102.367568,0.550079787 C102.367568,0.272792553 102.089016,0.134148936 101.810465,0.134148936 L99.1642287,0.134148936 C98.8856775,0.134148936 98.6071263,0.41143617 98.6071263,0.550079787 C98.6071263,0.688723404 98.8856775,0.966010638 99.1642287,0.966010638 Z M94.0110314,0.966010638 L96.6572679,0.966010638 C96.9358191,0.966010638 97.2143703,0.688723404 97.2143703,0.550079787 C97.2143703,0.272792553 96.9358191,0.134148936 96.6572679,0.134148936 L94.0110314,0.134148936 C93.7324802,0.134148936 93.453929,0.41143617 93.453929,0.550079787 C93.453929,0.688723404 93.7324802,0.966010638 94.0110314,0.966010638 Z M88.8578342,0.966010638 L91.5040706,0.966010638 C91.7826218,0.966010638 92.061173,0.688723404 92.061173,0.550079787 C92.061173,0.272792553 91.7826218,0.134148936 91.5040706,0.134148936 L88.8578342,0.134148936 C88.579283,0.134148936 88.3007318,0.41143617 88.3007318,0.550079787 C88.3007318,0.688723404 88.579283,0.966010638 88.8578342,0.966010638 Z M83.7046369,0.966010638 L86.3508733,0.966010638 C86.6294245,0.966010638 86.9079757,0.688723404 86.9079757,0.550079787 C86.9079757,0.272792553 86.6294245,0.134148936 86.3508733,0.134148936 L83.7046369,0.134148936 C83.4260857,0.134148936 83.1475345,0.41143617 83.1475345,0.550079787 C83.1475345,0.688723404 83.4260857,0.966010638 83.7046369,0.966010638 Z M78.5514396,0.966010638 L81.197676,0.966010638 C81.4762272,0.966010638 81.7547785,0.688723404 81.7547785,0.550079787 C81.7547785,0.272792553 81.4762272,0.134148936 81.197676,0.134148936 L78.5514396,0.134148936 C78.2728884,0.134148936 77.9943372,0.41143617 77.9943372,0.550079787 C77.9943372,0.688723404 78.2728884,0.966010638 78.5514396,0.966010638 Z M73.3982423,0.966010638 L76.0444788,0.966010638 C76.32303,0.966010638 76.6015812,0.688723404 76.6015812,0.550079787 C76.6015812,0.272792553 76.32303,0.134148936 76.0444788,0.134148936 L73.3982423,0.134148936 C73.1196911,0.134148936 72.8411399,0.41143617 72.8411399,0.550079787 C72.8411399,0.688723404 72.9804155,0.966010638 73.3982423,0.966010638 Z M68.1057694,0.966010638 L70.7520059,0.966010638 C71.0305571,0.966010638 71.3091083,0.688723404 71.3091083,0.550079787 C71.3091083,0.272792553 71.0305571,0.134148936 70.7520059,0.134148936 L68.1057694,0.134148936 C67.8272182,0.134148936 67.548667,0.41143617 67.548667,0.550079787 C67.6879426,0.688723404 67.8272182,0.966010638 68.1057694,0.966010638 Z M62.9525722,0.966010638 L65.5988086,0.966010638 C65.8773598,0.966010638 66.155911,0.688723404 66.155911,0.550079787 C66.155911,0.272792553 65.8773598,0.134148936 65.5988086,0.134148936 L62.9525722,0.134148936 C62.674021,0.134148936 62.3954698,0.41143617 62.3954698,0.550079787 C62.5347454,0.688723404 62.674021,0.966010638 62.9525722,0.966010638 Z M57.7993749,0.966010638 L60.4456113,0.966010638 C60.7241625,0.966010638 61.0027137,0.688723404 61.0027137,0.550079787 C61.0027137,0.272792553 60.7241625,0.134148936 60.4456113,0.134148936 L57.7993749,0.134148936 C57.5208237,0.134148936 57.2422725,0.41143617 57.2422725,0.550079787 C57.2422725,0.688723404 57.5208237,0.966010638 57.7993749,0.966010638 Z M52.6461776,0.966010638 L55.292414,0.966010638 C55.5709653,0.966010638 55.8495165,0.688723404 55.8495165,0.550079787 C55.8495165,0.272792553 55.5709653,0.134148936 55.292414,0.134148936 L52.6461776,0.134148936 C52.3676264,0.134148936 52.0890752,0.41143617 52.0890752,0.550079787 C52.0890752,0.688723404 52.3676264,0.966010638 52.6461776,0.966010638 Z M47.4929803,0.966010638 L50.1392168,0.966010638 C50.417768,0.966010638 50.6963192,0.688723404 50.6963192,0.550079787 C50.6963192,0.272792553 50.417768,0.134148936 50.1392168,0.134148936 L47.4929803,0.134148936 C47.2144291,0.134148936 46.9358779,0.41143617 46.9358779,0.550079787 C46.9358779,0.688723404 47.2144291,0.966010638 47.4929803,0.966010638 Z M42.339783,0.966010638 L44.9860195,0.966010638 C45.2645707,0.966010638 45.5431219,0.688723404 45.5431219,0.550079787 C45.5431219,0.272792553 45.2645707,0.134148936 44.9860195,0.134148936 L42.339783,0.134148936 C42.0612318,0.134148936 41.7826806,0.41143617 41.7826806,0.550079787 C41.7826806,0.688723404 42.0612318,0.966010638 42.339783,0.966010638 Z M37.1865858,0.966010638 L39.8328222,0.966010638 C40.1113734,0.966010638 40.3899246,0.688723404 40.3899246,0.550079787 C40.3899246,0.272792553 40.1113734,0.134148936 39.8328222,0.134148936 L37.1865858,0.134148936 C36.9080346,0.134148936 36.6294834,0.41143617 36.6294834,0.550079787 C36.6294834,0.688723404 36.9080346,0.966010638 37.1865858,0.966010638 Z M31.8941129,0.966010638 L34.5403493,0.966010638 C34.8189005,0.966010638 35.0974517,0.688723404 35.0974517,0.550079787 C35.0974517,0.272792553 34.8189005,0.134148936 34.5403493,0.134148936 L31.8941129,0.134148936 C31.6155617,0.134148936 31.3370105,0.41143617 31.3370105,0.550079787 C31.4762861,0.688723404 31.6155617,0.966010638 31.8941129,0.966010638 Z M26.7409156,0.966010638 L29.3871521,0.966010638 C29.6657033,0.966010638 29.9442545,0.688723404 29.9442545,0.550079787 C29.9442545,0.272792553 29.6657033,0.134148936 29.3871521,0.134148936 L26.7409156,0.134148936 C26.4623644,0.134148936 26.1838132,0.41143617 26.1838132,0.550079787 C26.3230888,0.688723404 26.4623644,0.966010638 26.7409156,0.966010638 Z M21.5877183,0.966010638 L24.2339548,0.966010638 C24.512506,0.966010638 24.7910572,0.688723404 24.7910572,0.550079787 C24.7910572,0.272792553 24.512506,0.134148936 24.2339548,0.134148936 L21.5877183,0.134148936 C21.3091671,0.134148936 21.0306159,0.41143617 21.0306159,0.550079787 C21.0306159,0.688723404 21.3091671,0.966010638 21.5877183,0.966010638 Z M16.4345211,0.966010638 L19.0807575,0.966010638 C19.3593087,0.966010638 19.6378599,0.688723404 19.6378599,0.550079787 C19.6378599,0.272792553 19.3593087,0.134148936 19.0807575,0.134148936 L16.4345211,0.134148936 C16.1559698,0.134148936 15.8774186,0.41143617 15.8774186,0.550079787 C15.8774186,0.688723404 16.1559698,0.966010638 16.4345211,0.966010638 Z M11.2813238,0.966010638 L13.9275602,0.966010638 C14.2061114,0.966010638 14.4846626,0.688723404 14.4846626,0.550079787 C14.4846626,0.272792553 14.2061114,0.134148936 13.9275602,0.134148936 L11.2813238,0.134148936 C11.0027726,0.134148936 10.7242214,0.41143617 10.7242214,0.550079787 C10.7242214,0.688723404 11.0027726,0.966010638 11.2813238,0.966010638 Z M6.12812649,0.966010638 L8.77436293,0.966010638 C9.05291414,0.966010638 9.33146534,0.688723404 9.33146534,0.550079787 C9.33146534,0.272792553 9.05291414,0.134148936 8.77436293,0.134148936 L6.12812649,0.134148936 C5.84957529,0.134148936 5.57102409,0.41143617 5.57102409,0.550079787 C5.57102409,0.688723404 5.84957529,0.966010638 6.12812649,0.966010638 Z M0.974929215,0.966010638 L3.62116566,0.966010638 C3.89971686,0.966010638 4.17826806,0.688723404 4.17826806,0.550079787 C4.17826806,0.272792553 3.89971686,0.134148936 3.62116566,0.134148936 L0.974929215,0.134148936 C0.696378011,0.134148936 0.417826806,0.41143617 0.417826806,0.550079787 C0.417826806,0.688723404 0.696378011,0.966010638 0.974929215,0.966010638 Z"></path>
                            </g>
                        </g>
                    </g>
                </g>
                <g id="INSERT-TITLE-HERE" fill-opacity="1" fill="#F9F0E4">
                    <use filter="url(#filter-3)" xlink:href="#text-2"></use>
                    <use xlink:href="#text-2"></use>
                </g>
                <g id="SugarCube-Copy" filter="url(#filter-4)" transform="translate(117.941909, 40.461095)" fill-rule="nonzero">
                    <polygon id="Shape" fill="#FFF6EB" points="0 5.92239817 18.8249555 13.0135179 36.6018969 5.71229092 17.7769413 0.0262634065"></polygon>
                    <polygon id="Shape" fill="#D4C9BB" points="18.8249555 38.2001248 18.8249555 13.0135179 36.6018969 5.71229092 35.3442798 28.7978252"></polygon>
                    <polygon id="Shape" fill="#EBE0D2" points="0 5.92239817 18.8249555 13.0135179 18.8249555 38.2001248 0.628808536 28.5089278"></polygon>
                </g>
            </g>
        </g>
    </g>
</svg>