<?xml version="1.0" encoding="UTF-8"?>
<svg width="346px" height="122px" viewBox="0 0 346 122" version="1.1" xmlns="http://www.w3.org/2000/svg" xmlns:xlink="http://www.w3.org/1999/xlink">
    <!-- Generator: Sketch 42 (36781) - http://www.bohemiancoding.com/sketch -->
    <title>11_michael</title>
    <desc>Created with Sketch.</desc>
    <defs>
        <path d="M89.2666016,98 L90.9296875,86.3203125 L86.0419922,98 L82.4746094,98 L82.9951172,86.2695312 L78.6533203,98 L76.5712891,98 L83.1728516,80.1376953 C81.8779232,80.5693381 80.8665401,81.2781526 80.1386719,82.2641602 C79.4108037,83.2501677 79.046875,84.49218 79.046875,85.9902344 C79.046875,86.3372413 79.0659178,86.6144195 79.1040039,86.8217773 C79.14209,87.0291352 79.1822915,87.1941726 79.2246094,87.3168945 C79.2669273,87.4396165 79.3071287,87.5327145 79.3452148,87.5961914 C79.383301,87.6596683 79.4023438,87.7210283 79.4023438,87.7802734 C78.9791646,87.7802734 78.5961931,87.7379562 78.253418,87.6533203 C77.9106428,87.5686845 77.6186535,87.4332692 77.3774414,87.2470703 C77.1362293,87.0608715 76.9500332,86.8175471 76.8188477,86.5170898 C76.6876621,86.2166326 76.6220703,85.8505881 76.6220703,85.4189453 C76.6220703,84.8688124 76.7342111,84.3144559 76.9584961,83.7558594 C77.1827811,83.1972628 77.4916973,82.6619492 77.8852539,82.1499023 C78.2788106,81.6378555 78.7421848,81.1596702 79.2753906,80.715332 C79.8085964,80.2709939 80.3819956,79.8837907 80.9956055,79.5537109 C81.6092153,79.2236312 82.2482063,78.9654957 82.9125977,78.7792969 C83.576989,78.593098 84.2392545,78.5 84.8994141,78.5 C85.55111,78.5 86.2070279,78.6227201 86.8671875,78.8681641 L86.2705078,92.5664062 L91.9960938,78.8681641 L95.7412109,78.8681641 L93.0117188,98 L89.2666016,98 Z M101.720703,81.546875 C101.720703,81.8346369 101.665691,82.1033516 101.555664,82.3530273 C101.445637,82.6027031 101.295411,82.8185212 101.10498,83.0004883 C100.91455,83.1824553 100.6945,83.3263341 100.444824,83.4321289 C100.195148,83.5379237 99.9264337,83.5908203 99.6386719,83.5908203 C99.35091,83.5908203 99.0821953,83.5379237 98.8325195,83.4321289 C98.5828438,83.3263341 98.3649098,83.1824553 98.1787109,83.0004883 C97.9925121,82.8185212 97.8465175,82.6027031 97.7407227,82.3530273 C97.6349279,82.1033516 97.5820312,81.8346369 97.5820312,81.546875 C97.5820312,81.2591131 97.6349279,80.9903984 97.7407227,80.7407227 C97.8465175,80.4910469 97.9925121,80.270997 98.1787109,80.0805664 C98.3649098,79.8901358 98.5828438,79.7399094 98.8325195,79.6298828 C99.0821953,79.5198562 99.35091,79.4648438 99.6386719,79.4648438 C99.9264337,79.4648438 100.195148,79.5198562 100.444824,79.6298828 C100.6945,79.7399094 100.91455,79.8901358 101.10498,80.0805664 C101.295411,80.270997 101.445637,80.4910469 101.555664,80.7407227 C101.665691,80.9903984 101.720703,81.2591131 101.720703,81.546875 Z M103.333008,93.3408203 C103.087564,94.0432978 102.814617,94.6526667 102.51416,95.1689453 C102.213703,95.6852239 101.900555,96.121092 101.574707,96.4765625 C101.248859,96.832033 100.914552,97.1197906 100.571777,97.3398438 C100.229002,97.5598969 99.8968115,97.7291661 99.5751953,97.8476562 C99.2535791,97.9661464 98.9467788,98.0465493 98.6547852,98.0888672 C98.3627915,98.1311851 98.1025402,98.1523438 97.8740234,98.1523438 C97.4846986,98.1523438 97.1207699,98.0930996 96.7822266,97.9746094 C96.4436832,97.8561192 96.1495781,97.6699231 95.8999023,97.4160156 C95.6502266,97.1621081 95.4534512,96.8404967 95.3095703,96.4511719 C95.1656894,96.061847 95.09375,95.5921251 95.09375,95.0419922 C95.09375,94.8050118 95.1106769,94.5447605 95.1445312,94.2612305 C95.1783856,93.9777004 95.2291663,93.6709001 95.296875,93.3408203 L97.0615234,85 L100.806641,85 L98.9404297,93.8359375 C98.8981118,93.9798184 98.8706055,94.1215813 98.8579102,94.2612305 C98.8452148,94.4008796 98.8388672,94.5384108 98.8388672,94.6738281 C98.8388672,95.0377622 98.9235018,95.2895501 99.0927734,95.4291992 C99.2620451,95.5688484 99.528644,95.6386719 99.8925781,95.6386719 C100.146486,95.6386719 100.394042,95.5815435 100.635254,95.4672852 C100.876466,95.3530268 101.098632,95.194337 101.301758,94.9912109 C101.504884,94.7880849 101.686848,94.5447605 101.847656,94.2612305 C102.008464,93.9777004 102.139648,93.6709001 102.241211,93.3408203 L103.333008,93.3408203 Z M113.108398,93.3408203 C112.744464,93.9501984 112.327639,94.5426404 111.85791,95.1181641 C111.388181,95.6936878 110.859215,96.2057269 110.270996,96.6542969 C109.682777,97.1028668 109.031091,97.4646796 108.315918,97.7397461 C107.600745,98.0148126 106.815759,98.1523438 105.960938,98.1523438 C105.343096,98.1523438 104.784508,98.0740568 104.285156,97.9174805 C103.785805,97.7609042 103.3584,97.5175798 103.00293,97.1875 C102.647459,96.8574202 102.374513,96.4321315 102.184082,95.9116211 C101.993651,95.3911107 101.898438,94.762699 101.898438,94.0263672 C101.898438,93.5270157 101.949218,92.9493848 102.050781,92.293457 C102.152344,91.6375293 102.315266,90.9668003 102.539551,90.28125 C102.763836,89.5956997 103.055825,88.9228549 103.415527,88.2626953 C103.77523,87.6025358 104.215329,87.0143255 104.73584,86.4980469 C105.25635,85.9817683 105.859372,85.564943 106.544922,85.2475586 C107.230472,84.9301742 108.013342,84.7714844 108.893555,84.7714844 C109.469078,84.7714844 109.943032,84.8413079 110.31543,84.980957 C110.687827,85.1206062 110.984048,85.3025705 111.204102,85.5268555 C111.424155,85.7511404 111.576497,86.00716 111.661133,86.2949219 C111.745769,86.5826837 111.788086,86.8704413 111.788086,87.1582031 C111.788086,87.4798193 111.752116,87.7569975 111.680176,87.9897461 C111.608235,88.2224947 111.50879,88.41927 111.381836,88.5800781 C111.254882,88.7408862 111.106772,88.8593746 110.9375,88.9355469 C110.768228,89.0117191 110.590496,89.0498047 110.404297,89.0498047 C110.108071,89.0498047 109.803387,88.9482432 109.490234,88.7451172 C109.701824,88.1865206 109.807617,87.6744815 109.807617,87.2089844 C109.807617,86.8873682 109.748373,86.6292327 109.629883,86.4345703 C109.511393,86.2399079 109.329428,86.1425781 109.083984,86.1425781 C108.81315,86.1425781 108.542319,86.2652983 108.271484,86.5107422 C108.00065,86.7561861 107.740398,87.0820292 107.490723,87.4882812 C107.241047,87.8945333 107.010418,88.3600234 106.798828,88.8847656 C106.587239,89.4095078 106.403158,89.9554008 106.246582,90.5224609 C106.090006,91.0895211 105.967286,91.6544568 105.878418,92.2172852 C105.78955,92.7801135 105.745117,93.302732 105.745117,93.7851562 C105.745117,94.2252626 105.785319,94.5870754 105.865723,94.8706055 C105.946127,95.1541355 106.064615,95.3763013 106.221191,95.5371094 C106.377768,95.6979175 106.572427,95.8100583 106.805176,95.8735352 C107.037924,95.937012 107.310871,95.96875 107.624023,95.96875 C108.140302,95.96875 108.607908,95.9010423 109.026855,95.765625 C109.445803,95.6302077 109.837238,95.4440116 110.201172,95.2070312 C110.565106,94.9700509 110.909992,94.6907568 111.23584,94.3691406 C111.561688,94.0475244 111.889647,93.7047544 112.219727,93.3408203 L113.108398,93.3408203 Z M126.438477,93.3408203 C126.074542,94.4072319 125.683108,95.2578093 125.26416,95.8925781 C124.845213,96.5273469 124.42204,97.0118798 123.994629,97.3461914 C123.567218,97.680503 123.148277,97.898437 122.737793,98 C122.327309,98.101563 121.948569,98.1523438 121.601562,98.1523438 C121.026039,98.1523438 120.543622,98.069825 120.154297,97.9047852 C119.764972,97.7397453 119.451824,97.5196954 119.214844,97.2446289 C118.977863,96.9695624 118.806478,96.6564145 118.700684,96.3051758 C118.594889,95.953937 118.541992,95.5921243 118.541992,95.2197266 C118.541992,94.7796202 118.603352,94.2654652 118.726074,93.6772461 C118.848796,93.089027 118.982096,92.4860057 119.125977,91.8681641 C119.269857,91.2503224 119.403157,90.6536487 119.525879,90.078125 C119.648601,89.5026013 119.709961,89.0074891 119.709961,88.5927734 C119.709961,87.7040971 119.396813,87.2597656 118.770508,87.2597656 C118.533527,87.2597656 118.313478,87.3232416 118.110352,87.4501953 C117.907226,87.5771491 117.721029,87.7485341 117.551758,87.9643555 C117.382486,88.1801769 117.230144,88.4340806 117.094727,88.7260742 C116.959309,89.0180679 116.840821,89.3290999 116.739258,89.6591797 L114.974609,98 L111.229492,98 L115,80.3154297 L118.84668,79.7949219 L117.450195,86.3457031 C117.729494,86.0325505 118.006672,85.7807627 118.281738,85.590332 C118.556805,85.3999014 118.82552,85.2539068 119.087891,85.1523438 C119.350262,85.0507807 119.597818,84.9830731 119.830566,84.9492188 C120.063315,84.9153644 120.281249,84.8984375 120.484375,84.8984375 C120.899091,84.8984375 121.284178,84.95345 121.639648,85.0634766 C121.995119,85.1735032 122.301919,85.347004 122.560059,85.5839844 C122.818198,85.8209647 123.019205,86.1256492 123.163086,86.4980469 C123.306967,86.8704446 123.378906,87.3147761 123.378906,87.8310547 C123.378906,88.1780616 123.347168,88.5525696 123.283691,88.9545898 C123.220215,89.3566101 123.141928,89.7670877 123.048828,90.1860352 C122.955729,90.6049826 122.856283,91.0218078 122.750488,91.4365234 C122.644693,91.8512391 122.545248,92.2490215 122.452148,92.6298828 C122.359049,93.0107441 122.280762,93.3640934 122.217285,93.6899414 C122.153808,94.0157894 122.12207,94.3014311 122.12207,94.546875 C122.12207,94.8684912 122.196126,95.1308584 122.344238,95.3339844 C122.492351,95.5371104 122.765297,95.6386719 123.163086,95.6386719 C123.442384,95.6386719 123.687824,95.5836594 123.899414,95.4736328 C124.111004,95.3636062 124.301431,95.2070323 124.470703,95.0039062 C124.639975,94.8007802 124.794433,94.5574558 124.934082,94.2739258 C125.073731,93.9903957 125.211262,93.6793637 125.34668,93.3408203 L126.438477,93.3408203 Z M140.111328,93.3408203 C139.865884,94.0432978 139.599285,94.6526667 139.311523,95.1689453 C139.023762,95.6852239 138.725425,96.121092 138.416504,96.4765625 C138.107583,96.832033 137.792319,97.1197906 137.470703,97.3398438 C137.149087,97.5598969 136.835939,97.7291661 136.53125,97.8476562 C136.226561,97.9661464 135.934572,98.0465493 135.655273,98.0888672 C135.375975,98.1311851 135.122071,98.1523438 134.893555,98.1523438 C134.157223,98.1523438 133.571128,97.9513366 133.135254,97.5493164 C132.699379,97.1472962 132.434896,96.5527383 132.341797,95.765625 C132.130207,96.0618504 131.897462,96.3517238 131.643555,96.6352539 C131.389647,96.918784 131.106121,97.1726877 130.792969,97.3969727 C130.479816,97.6212576 130.130699,97.803222 129.745605,97.9428711 C129.360512,98.0825202 128.935224,98.1523438 128.469727,98.1523438 C128.021157,98.1523438 127.58952,98.0804044 127.174805,97.9365234 C126.760089,97.7926425 126.391929,97.5556657 126.070312,97.2255859 C125.748696,96.8955062 125.490561,96.4638699 125.295898,95.9306641 C125.101236,95.3974583 125.003906,94.7457721 125.003906,93.9755859 C125.003906,93.3831351 125.06315,92.7483758 125.181641,92.0712891 C125.300131,91.3942023 125.482095,90.7171258 125.727539,90.0400391 C125.972983,89.3629523 126.279783,88.713382 126.647949,88.0913086 C127.016115,87.4692352 127.447751,86.9191105 127.942871,86.440918 C128.437991,85.9627255 128.998695,85.5818699 129.625,85.2983398 C130.251305,85.0148098 130.941077,84.8730469 131.694336,84.8730469 C132.430668,84.8730469 132.965981,84.9999987 133.300293,85.2539062 C133.634605,85.5078138 133.801758,85.8209617 133.801758,86.1933594 L133.801758,86.3837891 L134.081055,85 L137.826172,85 L135.959961,93.8359375 C135.917643,93.9798184 135.888021,94.1215813 135.871094,94.2612305 C135.854167,94.4008796 135.845703,94.5384108 135.845703,94.6738281 C135.845703,95.4186235 136.201168,95.7910156 136.912109,95.7910156 C137.166017,95.7910156 137.400878,95.7254238 137.616699,95.5942383 C137.832521,95.4630527 138.029296,95.287436 138.207031,95.0673828 C138.384767,94.8473296 138.54134,94.5870783 138.676758,94.2866211 C138.812175,93.9861639 138.926432,93.6709001 139.019531,93.3408203 L140.111328,93.3408203 Z M133.560547,87.4755859 C133.560547,87.3994137 133.54362,87.3041998 133.509766,87.1899414 C133.475911,87.075683 133.418783,86.9656581 133.338379,86.8598633 C133.257975,86.7540685 133.150066,86.6652022 133.014648,86.5932617 C132.879231,86.5213213 132.70573,86.4853516 132.494141,86.4853516 C132.130207,86.4853516 131.785321,86.60384 131.459473,86.8408203 C131.133625,87.0778007 130.835288,87.3930644 130.564453,87.7866211 C130.293618,88.1801777 130.05241,88.6266251 129.84082,89.1259766 C129.629231,89.625328 129.449382,90.139483 129.30127,90.668457 C129.153157,91.197431 129.041016,91.7179336 128.964844,92.2299805 C128.888671,92.7420273 128.850586,93.2011698 128.850586,93.6074219 C128.850586,94.1067733 128.897135,94.4918606 128.990234,94.7626953 C129.083334,95.03353 129.195475,95.2345371 129.32666,95.3657227 C129.457846,95.4969082 129.599609,95.5751952 129.751953,95.6005859 C129.904298,95.6259767 130.039713,95.6386719 130.158203,95.6386719 C130.352866,95.6386719 130.558104,95.590007 130.773926,95.4926758 C130.989747,95.3953446 131.197102,95.2514658 131.395996,95.0610352 C131.59489,94.8706045 131.776855,94.6315119 131.941895,94.34375 C132.106934,94.0559881 132.23177,93.7216816 132.316406,93.3408203 L133.560547,87.4755859 Z M149.886719,93.3408203 C149.522785,93.9501984 149.105959,94.5426404 148.63623,95.1181641 C148.166502,95.6936878 147.637535,96.2057269 147.049316,96.6542969 C146.461097,97.1028668 145.809411,97.4646796 145.094238,97.7397461 C144.379065,98.0148126 143.59408,98.1523438 142.739258,98.1523438 C142.121416,98.1523438 141.562828,98.0740568 141.063477,97.9174805 C140.564125,97.7609042 140.136721,97.5175798 139.78125,97.1875 C139.425779,96.8574202 139.152833,96.4321315 138.962402,95.9116211 C138.771972,95.3911107 138.676758,94.762699 138.676758,94.0263672 C138.676758,93.5270157 138.727539,92.9515007 138.829102,92.2998047 C138.930665,91.6481087 139.09147,90.9794956 139.311523,90.2939453 C139.531577,89.608395 139.823566,88.9355502 140.1875,88.2753906 C140.551434,87.6152311 140.991534,87.0249049 141.507812,86.5043945 C142.024091,85.9838841 142.629228,85.564943 143.323242,85.2475586 C144.017256,84.9301742 144.808589,84.7714844 145.697266,84.7714844 C146.281253,84.7714844 146.757322,84.8413079 147.125488,84.980957 C147.493654,85.1206062 147.785643,85.3046864 148.001465,85.5332031 C148.217286,85.7617199 148.365397,86.0262029 148.445801,86.3266602 C148.526205,86.6271174 148.566406,86.9381494 148.566406,87.2597656 C148.566406,88.0130246 148.401369,88.7133757 148.071289,89.3608398 C147.741209,90.008304 147.298994,90.5732398 146.744629,91.0556641 C146.190264,91.5380883 145.553389,91.9274074 144.833984,92.2236328 C144.11458,92.5198583 143.365564,92.6933591 142.586914,92.7441406 C142.569987,92.9388031 142.555176,93.1228832 142.54248,93.2963867 C142.529785,93.4698902 142.523438,93.6328117 142.523438,93.7851562 C142.523438,94.2252626 142.563639,94.5870754 142.644043,94.8706055 C142.724447,95.1541355 142.842935,95.3763013 142.999512,95.5371094 C143.156088,95.6979175 143.350748,95.8100583 143.583496,95.8735352 C143.816245,95.937012 144.089191,95.96875 144.402344,95.96875 C144.918622,95.96875 145.386228,95.9010423 145.805176,95.765625 C146.224123,95.6302077 146.615558,95.4440116 146.979492,95.2070312 C147.343426,94.9700509 147.688312,94.6907568 148.01416,94.3691406 C148.340008,94.0475244 148.667967,93.7047544 148.998047,93.3408203 L149.886719,93.3408203 Z M142.790039,91.5 C143.280927,91.4661457 143.754881,91.3264986 144.211914,91.0810547 C144.668948,90.8356108 145.070962,90.5161152 145.417969,90.1225586 C145.764976,89.7290019 146.042154,89.2804387 146.249512,88.7768555 C146.45687,88.2732722 146.560547,87.7506537 146.560547,87.2089844 C146.560547,86.8873682 146.513998,86.6292327 146.420898,86.4345703 C146.327799,86.2399079 146.15853,86.1425781 145.913086,86.1425781 C145.583006,86.1425781 145.259279,86.3012679 144.941895,86.6186523 C144.62451,86.9360367 144.326173,87.3486303 144.046875,87.8564453 C143.767577,88.3642604 143.520021,88.9376596 143.304199,89.5766602 C143.088378,90.2156607 142.916993,90.8567676 142.790039,91.5 Z M151.727539,80.2646484 L155.574219,79.7441406 L152.59082,93.7851562 C152.548502,93.9290372 152.51888,94.0623366 152.501953,94.1850586 C152.485026,94.3077806 152.476562,94.4283848 152.476562,94.546875 C152.476562,94.8431004 152.552734,95.0906566 152.705078,95.2895508 C152.857423,95.488445 153.136717,95.5878906 153.542969,95.5878906 C153.788413,95.5878906 153.966145,95.5709637 154.076172,95.5371094 C154.186198,95.503255 154.28776,95.4651695 154.380859,95.4228516 C154.347005,95.8883487 154.243328,96.2924788 154.069824,96.6352539 C153.896321,96.9780291 153.678387,97.2615549 153.416016,97.4858398 C153.153645,97.7101248 152.857424,97.8772781 152.527344,97.9873047 C152.197264,98.0973313 151.862957,98.1523438 151.524414,98.1523438 C151.135089,98.1523438 150.771161,98.0909837 150.432617,97.9682617 C150.094074,97.8455398 149.799969,97.655112 149.550293,97.3969727 C149.300617,97.1388333 149.103842,96.8108744 148.959961,96.4130859 C148.81608,96.0152975 148.744141,95.5371122 148.744141,94.9785156 C148.744141,94.7499989 148.761068,94.4939793 148.794922,94.2104492 C148.828776,93.9269192 148.879557,93.6201188 148.947266,93.2900391 L151.727539,80.2646484 Z M174.452148,98 L176.115234,86.3203125 L171.227539,98 L167.660156,98 L168.180664,86.2695312 L163.838867,98 L161.756836,98 L168.358398,80.1376953 C167.06347,80.5693381 166.052087,81.2781526 165.324219,82.2641602 C164.596351,83.2501677 164.232422,84.49218 164.232422,85.9902344 C164.232422,86.3372413 164.251465,86.6144195 164.289551,86.8217773 C164.327637,87.0291352 164.367838,87.1941726 164.410156,87.3168945 C164.452474,87.4396165 164.492676,87.5327145 164.530762,87.5961914 C164.568848,87.6596683 164.587891,87.7210283 164.587891,87.7802734 C164.164711,87.7802734 163.78174,87.7379562 163.438965,87.6533203 C163.09619,87.5686845 162.8042,87.4332692 162.562988,87.2470703 C162.321776,87.0608715 162.13558,86.8175471 162.004395,86.5170898 C161.873209,86.2166326 161.807617,85.8505881 161.807617,85.4189453 C161.807617,84.8688124 161.919758,84.3144559 162.144043,83.7558594 C162.368328,83.1972628 162.677244,82.6619492 163.070801,82.1499023 C163.464357,81.6378555 163.927732,81.1596702 164.460938,80.715332 C164.994143,80.2709939 165.567543,79.8837907 166.181152,79.5537109 C166.794762,79.2236312 167.433753,78.9654957 168.098145,78.7792969 C168.762536,78.593098 169.424801,78.5 170.084961,78.5 C170.736657,78.5 171.392575,78.6227201 172.052734,78.8681641 L171.456055,92.5664062 L177.181641,78.8681641 L180.926758,78.8681641 L178.197266,98 L174.452148,98 Z M195.24707,93.3408203 C195.001626,94.0432978 194.735027,94.6526667 194.447266,95.1689453 C194.159504,95.6852239 193.861167,96.121092 193.552246,96.4765625 C193.243325,96.832033 192.928062,97.1197906 192.606445,97.3398438 C192.284829,97.5598969 191.971681,97.7291661 191.666992,97.8476562 C191.362303,97.9661464 191.070314,98.0465493 190.791016,98.0888672 C190.511717,98.1311851 190.257814,98.1523438 190.029297,98.1523438 C189.292965,98.1523438 188.706871,97.9513366 188.270996,97.5493164 C187.835122,97.1472962 187.570638,96.5527383 187.477539,95.765625 C187.265949,96.0618504 187.033204,96.3517238 186.779297,96.6352539 C186.525389,96.918784 186.241864,97.1726877 185.928711,97.3969727 C185.615558,97.6212576 185.266441,97.803222 184.881348,97.9428711 C184.496255,98.0825202 184.070966,98.1523438 183.605469,98.1523438 C183.156899,98.1523438 182.725262,98.0804044 182.310547,97.9365234 C181.895831,97.7926425 181.527671,97.5556657 181.206055,97.2255859 C180.884438,96.8955062 180.626303,96.4638699 180.431641,95.9306641 C180.236978,95.3974583 180.139648,94.7457721 180.139648,93.9755859 C180.139648,93.3831351 180.198893,92.7483758 180.317383,92.0712891 C180.435873,91.3942023 180.617837,90.7171258 180.863281,90.0400391 C181.108725,89.3629523 181.415526,88.713382 181.783691,88.0913086 C182.151857,87.4692352 182.583494,86.9191105 183.078613,86.440918 C183.573733,85.9627255 184.134437,85.5818699 184.760742,85.2983398 C185.387047,85.0148098 186.076819,84.8730469 186.830078,84.8730469 C187.56641,84.8730469 188.101724,84.9999987 188.436035,85.2539062 C188.770347,85.5078138 188.9375,85.8209617 188.9375,86.1933594 L188.9375,86.3837891 L189.216797,85 L192.961914,85 L191.095703,93.8359375 C191.053385,93.9798184 191.023763,94.1215813 191.006836,94.2612305 C190.989909,94.4008796 190.981445,94.5384108 190.981445,94.6738281 C190.981445,95.4186235 191.336911,95.7910156 192.047852,95.7910156 C192.301759,95.7910156 192.53662,95.7254238 192.752441,95.5942383 C192.968263,95.4630527 193.165038,95.287436 193.342773,95.0673828 C193.520509,94.8473296 193.677083,94.5870783 193.8125,94.2866211 C193.947917,93.9861639 194.062174,93.6709001 194.155273,93.3408203 L195.24707,93.3408203 Z M188.696289,87.4755859 C188.696289,87.3994137 188.679362,87.3041998 188.645508,87.1899414 C188.611653,87.075683 188.554525,86.9656581 188.474121,86.8598633 C188.393717,86.7540685 188.285808,86.6652022 188.150391,86.5932617 C188.014973,86.5213213 187.841472,86.4853516 187.629883,86.4853516 C187.265949,86.4853516 186.921063,86.60384 186.595215,86.8408203 C186.269367,87.0778007 185.97103,87.3930644 185.700195,87.7866211 C185.429361,88.1801777 185.188152,88.6266251 184.976562,89.1259766 C184.764973,89.625328 184.585124,90.139483 184.437012,90.668457 C184.288899,91.197431 184.176758,91.7179336 184.100586,92.2299805 C184.024414,92.7420273 183.986328,93.2011698 183.986328,93.6074219 C183.986328,94.1067733 184.032877,94.4918606 184.125977,94.7626953 C184.219076,95.03353 184.331217,95.2345371 184.462402,95.3657227 C184.593588,95.4969082 184.735351,95.5751952 184.887695,95.6005859 C185.04004,95.6259767 185.175455,95.6386719 185.293945,95.6386719 C185.488608,95.6386719 185.693847,95.590007 185.909668,95.4926758 C186.125489,95.3953446 186.332844,95.2514658 186.531738,95.0610352 C186.730633,94.8706045 186.912597,94.6315119 187.077637,94.34375 C187.242677,94.0559881 187.367513,93.7216816 187.452148,93.3408203 L188.696289,87.4755859 Z M193.165039,98 L195.919922,85 L199.665039,85 L199.334961,86.6123047 C199.563478,86.4091787 199.796223,86.2102874 200.033203,86.015625 C200.270183,85.8209626 200.51774,85.6495776 200.775879,85.5014648 C201.034018,85.3533521 201.302733,85.2327479 201.582031,85.1396484 C201.86133,85.046549 202.157551,85 202.470703,85 C202.766929,85 203.02718,85.0550125 203.251465,85.1650391 C203.47575,85.2750657 203.664062,85.4189444 203.816406,85.5966797 C203.968751,85.774415 204.083007,85.9817696 204.15918,86.21875 C204.235352,86.4557304 204.273438,86.7011706 204.273438,86.9550781 C204.273438,87.1835949 204.235352,87.4099924 204.15918,87.6342773 C204.083007,87.8585623 203.966635,88.0595694 203.810059,88.2373047 C203.653482,88.41504 203.456707,88.5610346 203.219727,88.675293 C202.982746,88.7895514 202.707684,88.8466797 202.394531,88.8466797 C202.149087,88.8466797 201.960775,88.8043624 201.82959,88.7197266 C201.698404,88.6350907 201.598959,88.5292975 201.53125,88.4023438 C201.463541,88.27539 201.414876,88.1378588 201.385254,87.9897461 C201.355631,87.8416334 201.323893,87.7041022 201.290039,87.5771484 C201.256185,87.4501947 201.211752,87.3444015 201.156738,87.2597656 C201.101725,87.1751298 201.010743,87.1328125 200.883789,87.1328125 C200.486001,87.1328125 200.151694,87.2237947 199.880859,87.4057617 C199.610025,87.5877288 199.313804,87.8268214 198.992188,88.1230469 L196.910156,98 L193.165039,98 Z M218.492188,93.3408203 C218.128253,94.4326226 217.728355,95.2980111 217.29248,95.9370117 C216.856606,96.5760123 216.422854,97.0584294 215.991211,97.3842773 C215.559568,97.7101253 215.142743,97.9195959 214.740723,98.0126953 C214.338702,98.1057947 213.993817,98.1523438 213.706055,98.1523438 C212.622716,98.1523438 211.805992,97.8963242 211.255859,97.3842773 C210.705726,96.8722305 210.430664,96.1422573 210.430664,95.1943359 C210.430664,94.7880839 210.481445,94.335289 210.583008,93.8359375 L210.798828,92.8203125 C210.841146,92.6510408 210.868652,92.4860034 210.881348,92.3251953 C210.894043,92.1643872 210.900391,92.012045 210.900391,91.8681641 C210.900391,91.4873028 210.832683,91.1826183 210.697266,90.9541016 C210.561848,90.7255848 210.316408,90.6113281 209.960938,90.6113281 C209.664712,90.6113281 209.362143,90.6980786 209.053223,90.871582 C208.744302,91.0450855 208.407879,91.2799464 208.043945,91.5761719 L206.685547,98 L202.94043,98 L206.710938,80.3154297 L210.557617,79.7949219 L208.615234,88.9482422 L213.629883,85 L216.207031,85 L211.001953,88.6181641 C211.289715,88.5419918 211.577473,88.5039062 211.865234,88.5039062 C212.347659,88.5039062 212.768716,88.5843091 213.128418,88.7451172 C213.48812,88.9059253 213.786457,89.1259752 214.023438,89.4052734 C214.260418,89.6845717 214.436035,90.0082989 214.550293,90.3764648 C214.664551,90.7446307 214.72168,91.1360656 214.72168,91.5507812 C214.72168,91.7115893 214.715332,91.8745109 214.702637,92.0395508 C214.689941,92.2045907 214.662435,92.3717439 214.620117,92.5410156 L214.328125,93.8359375 C214.285807,93.9798184 214.254069,94.1194655 214.23291,94.2548828 C214.211751,94.3903002 214.201172,94.5299472 214.201172,94.6738281 C214.201172,94.9361992 214.26888,95.1625967 214.404297,95.3530273 C214.539714,95.543458 214.810545,95.6386719 215.216797,95.6386719 C215.496095,95.6386719 215.741535,95.5836594 215.953125,95.4736328 C216.164715,95.3636062 216.355142,95.2070323 216.524414,95.0039062 C216.693686,94.8007802 216.848144,94.5574558 216.987793,94.2739258 C217.127442,93.9903957 217.264973,93.6793637 217.400391,93.3408203 L218.492188,93.3408203 Z M231.619141,93.3408203 C231.373697,94.0432978 231.107098,94.6526667 230.819336,95.1689453 C230.531574,95.6852239 230.233237,96.121092 229.924316,96.4765625 C229.615396,96.832033 229.300132,97.1197906 228.978516,97.3398438 C228.656899,97.5598969 228.343752,97.7291661 228.039062,97.8476562 C227.734373,97.9661464 227.442384,98.0465493 227.163086,98.0888672 C226.883788,98.1311851 226.629884,98.1523438 226.401367,98.1523438 C225.656572,98.1523438 225.06413,97.9471049 224.624023,97.5366211 C224.183917,97.1261373 223.917318,96.5104208 223.824219,95.6894531 C223.494139,96.2226589 223.159832,96.6500635 222.821289,96.9716797 C222.482746,97.2932959 222.148439,97.5429679 221.818359,97.7207031 C221.48828,97.8984384 221.166668,98.0148109 220.853516,98.0698242 C220.540363,98.1248375 220.248374,98.1523438 219.977539,98.1523438 C219.588214,98.1523438 219.224286,98.0930996 218.885742,97.9746094 C218.547199,97.8561192 218.253094,97.6699231 218.003418,97.4160156 C217.753742,97.1621081 217.556967,96.8404967 217.413086,96.4511719 C217.269205,96.061847 217.197266,95.5921251 217.197266,95.0419922 C217.197266,94.8050118 217.214193,94.5447605 217.248047,94.2612305 C217.281901,93.9777004 217.332682,93.6709001 217.400391,93.3408203 L219.165039,85 L222.910156,85 L221.043945,93.8359375 C220.993164,94.1067722 220.967773,94.3522124 220.967773,94.5722656 C220.967773,94.8684911 221.022786,95.1202789 221.132812,95.3276367 C221.242839,95.5349945 221.445962,95.6386719 221.742188,95.6386719 C221.996095,95.6386719 222.22884,95.5815435 222.44043,95.4672852 C222.652019,95.3530268 222.844563,95.194337 223.018066,94.9912109 C223.19157,94.7880849 223.343912,94.5447605 223.475098,94.2612305 C223.606283,93.9777004 223.722656,93.6709001 223.824219,93.3408203 L225.588867,85 L229.333984,85 L227.467773,93.8359375 C227.425456,93.9798184 227.395833,94.1215813 227.378906,94.2612305 C227.361979,94.4008796 227.353516,94.5384108 227.353516,94.6738281 C227.353516,95.0377622 227.440266,95.2895501 227.61377,95.4291992 C227.787273,95.5688484 228.055988,95.6386719 228.419922,95.6386719 C228.673829,95.6386719 228.90869,95.5815435 229.124512,95.4672852 C229.340333,95.3530268 229.537108,95.194337 229.714844,94.9912109 C229.892579,94.7880849 230.049153,94.5447605 230.18457,94.2612305 C230.319988,93.9777004 230.434244,93.6709001 230.527344,93.3408203 L231.619141,93.3408203 Z M241.546875,93.3408203 C240.869788,94.1279336 240.190596,94.777504 239.509277,95.2895508 C238.827959,95.8015976 238.18262,96.2353498 237.573242,96.5908203 C237.302408,96.8785822 236.999839,97.1219066 236.665527,97.3208008 C236.331216,97.519695 235.984214,97.6805007 235.624512,97.8032227 C235.264809,97.9259446 234.900881,98.0148109 234.532715,98.0698242 C234.164549,98.1248375 233.815431,98.1523438 233.485352,98.1523438 C232.833656,98.1523438 232.26872,98.0528981 231.790527,97.8540039 C231.312335,97.6551097 230.916668,97.3969742 230.603516,97.0795898 C230.290363,96.7622054 230.059734,96.4067402 229.911621,96.0131836 C229.763508,95.6196269 229.689453,95.2239603 229.689453,94.8261719 C229.689453,94.5214829 229.729655,94.2400729 229.810059,93.9819336 C229.890463,93.7237943 229.99414,93.4931651 230.121094,93.2900391 C230.248048,93.086913 230.394042,92.9112963 230.559082,92.7631836 C230.724122,92.6150709 230.895507,92.4986983 231.073242,92.4140625 C231.80111,91.1106706 232.414711,89.8221092 232.914062,88.5483398 C233.413414,87.2745705 233.866209,85.9944726 234.272461,84.7080078 L238.119141,84.2001953 C238.169922,85.325852 238.218587,86.3012654 238.265137,87.1264648 C238.311686,87.9516643 238.35612,88.6668264 238.398438,89.2719727 C238.440755,89.8771189 238.478841,90.3912739 238.512695,90.8144531 C238.54655,91.2376323 238.578288,91.6121403 238.60791,91.9379883 C238.637533,92.2638363 238.658691,92.5600573 238.671387,92.8266602 C238.684082,93.0932631 238.69043,93.3704413 238.69043,93.6582031 C238.69043,93.8528656 238.684082,94.0305982 238.671387,94.1914062 C238.658691,94.3522143 238.631185,94.5045566 238.588867,94.6484375 C238.969728,94.4283843 239.314614,94.2104503 239.623535,93.9946289 C239.932456,93.7788075 240.209634,93.5608735 240.455078,93.3408203 L241.546875,93.3408203 Z M231.073242,94.2802734 C231.073242,94.8896515 231.193846,95.3445623 231.435059,95.6450195 C231.676271,95.9454768 232.084633,96.0957031 232.660156,96.0957031 C232.947918,96.0957031 233.227212,96.0555017 233.498047,95.9750977 C233.768882,95.8946936 234.01009,95.7592783 234.22168,95.5688477 C234.433269,95.378417 234.602538,95.1308609 234.729492,94.8261719 C234.856446,94.5214829 234.919922,94.1406273 234.919922,93.6835938 C234.919922,93.4635406 234.913574,93.2498383 234.900879,93.0424805 C234.888184,92.8351227 234.873372,92.6150728 234.856445,92.3823242 C234.839518,92.1495757 234.816244,91.8893244 234.786621,91.6015625 C234.756999,91.3138006 234.723145,90.9794941 234.685059,90.5986328 C234.646972,90.2177715 234.606771,89.7776718 234.564453,89.2783203 C234.522135,88.7789689 234.475586,88.1949903 234.424805,87.5263672 C234.162434,88.3727256 233.853517,89.1936809 233.498047,89.9892578 C233.142576,90.7848347 232.749026,91.6015583 232.317383,92.4394531 C232.486654,92.5325525 232.628417,92.6510409 232.742676,92.7949219 C232.856934,92.9388028 232.914062,93.1207671 232.914062,93.3408203 C232.914062,93.5016284 232.888672,93.6582024 232.837891,93.8105469 C232.787109,93.9628914 232.710938,94.1004226 232.609375,94.2231445 C232.507812,94.3458665 232.387208,94.4431963 232.247559,94.5151367 C232.107909,94.5870772 231.94922,94.6230469 231.771484,94.6230469 C231.627603,94.6230469 231.492188,94.6018882 231.365234,94.5595703 C231.238281,94.5172524 231.140951,94.4241544 231.073242,94.2802734 Z M251.474609,93.3408203 C250.797523,94.1279336 250.11833,94.777504 249.437012,95.2895508 C248.755693,95.8015976 248.110355,96.2353498 247.500977,96.5908203 C247.230142,96.8785822 246.927573,97.1219066 246.593262,97.3208008 C246.25895,97.519695 245.911948,97.6805007 245.552246,97.8032227 C245.192544,97.9259446 244.828615,98.0148109 244.460449,98.0698242 C244.092283,98.1248375 243.743166,98.1523438 243.413086,98.1523438 C242.76139,98.1523438 242.196454,98.0528981 241.718262,97.8540039 C241.240069,97.6551097 240.844403,97.3969742 240.53125,97.0795898 C240.218097,96.7622054 239.987468,96.4067402 239.839355,96.0131836 C239.691243,95.6196269 239.617188,95.2239603 239.617188,94.8261719 C239.617188,94.5214829 239.657389,94.2400729 239.737793,93.9819336 C239.818197,93.7237943 239.921874,93.4931651 240.048828,93.2900391 C240.175782,93.086913 240.321777,92.9112963 240.486816,92.7631836 C240.651856,92.6150709 240.823241,92.4986983 241.000977,92.4140625 C241.728845,91.1106706 242.342445,89.8221092 242.841797,88.5483398 C243.341148,87.2745705 243.793943,85.9944726 244.200195,84.7080078 L248.046875,84.2001953 C248.097657,85.325852 248.146321,86.3012654 248.192871,87.1264648 C248.239421,87.9516643 248.283854,88.6668264 248.326172,89.2719727 C248.36849,89.8771189 248.406575,90.3912739 248.44043,90.8144531 C248.474284,91.2376323 248.506022,91.6121403 248.535645,91.9379883 C248.565267,92.2638363 248.586426,92.5600573 248.599121,92.8266602 C248.611816,93.0932631 248.618164,93.3704413 248.618164,93.6582031 C248.618164,93.8528656 248.611816,94.0305982 248.599121,94.1914062 C248.586426,94.3522143 248.558919,94.5045566 248.516602,94.6484375 C248.897463,94.4283843 249.242349,94.2104503 249.55127,93.9946289 C249.86019,93.7788075 250.137369,93.5608735 250.382812,93.3408203 L251.474609,93.3408203 Z M241.000977,94.2802734 C241.000977,94.8896515 241.121581,95.3445623 241.362793,95.6450195 C241.604005,95.9454768 242.012367,96.0957031 242.587891,96.0957031 C242.875652,96.0957031 243.154947,96.0555017 243.425781,95.9750977 C243.696616,95.8946936 243.937824,95.7592783 244.149414,95.5688477 C244.361004,95.378417 244.530273,95.1308609 244.657227,94.8261719 C244.78418,94.5214829 244.847656,94.1406273 244.847656,93.6835938 C244.847656,93.4635406 244.841309,93.2498383 244.828613,93.0424805 C244.815918,92.8351227 244.801107,92.6150728 244.78418,92.3823242 C244.767253,92.1495757 244.743978,91.8893244 244.714355,91.6015625 C244.684733,91.3138006 244.650879,90.9794941 244.612793,90.5986328 C244.574707,90.2177715 244.534505,89.7776718 244.492188,89.2783203 C244.44987,88.7789689 244.403321,88.1949903 244.352539,87.5263672 C244.090168,88.3727256 243.781252,89.1936809 243.425781,89.9892578 C243.070311,90.7848347 242.67676,91.6015583 242.245117,92.4394531 C242.414389,92.5325525 242.556152,92.6510409 242.67041,92.7949219 C242.784669,92.9388028 242.841797,93.1207671 242.841797,93.3408203 C242.841797,93.5016284 242.816407,93.6582024 242.765625,93.8105469 C242.714843,93.9628914 242.638672,94.1004226 242.537109,94.2231445 C242.435546,94.3458665 242.314942,94.4431963 242.175293,94.5151367 C242.035644,94.5870772 241.876954,94.6230469 241.699219,94.6230469 C241.555338,94.6230469 241.419923,94.6018882 241.292969,94.5595703 C241.166015,94.5172524 241.068685,94.4241544 241.000977,94.2802734 Z M261.25,93.3408203 C260.886066,93.9501984 260.469241,94.5426404 259.999512,95.1181641 C259.529783,95.6936878 259.000817,96.2057269 258.412598,96.6542969 C257.824379,97.1028668 257.172692,97.4646796 256.45752,97.7397461 C255.742347,98.0148126 254.957361,98.1523438 254.102539,98.1523438 C253.484697,98.1523438 252.926109,98.0740568 252.426758,97.9174805 C251.927406,97.7609042 251.500002,97.5175798 251.144531,97.1875 C250.789061,96.8574202 250.516114,96.4321315 250.325684,95.9116211 C250.135253,95.3911107 250.040039,94.762699 250.040039,94.0263672 C250.040039,93.5270157 250.09082,92.9515007 250.192383,92.2998047 C250.293946,91.6481087 250.454752,90.9794956 250.674805,90.2939453 C250.894858,89.608395 251.186847,88.9355502 251.550781,88.2753906 C251.914715,87.6152311 252.354815,87.0249049 252.871094,86.5043945 C253.387372,85.9838841 253.99251,85.564943 254.686523,85.2475586 C255.380537,84.9301742 256.171871,84.7714844 257.060547,84.7714844 C257.644534,84.7714844 258.120604,84.8413079 258.48877,84.980957 C258.856935,85.1206062 259.148925,85.3046864 259.364746,85.5332031 C259.580567,85.7617199 259.728678,86.0262029 259.809082,86.3266602 C259.889486,86.6271174 259.929688,86.9381494 259.929688,87.2597656 C259.929688,88.0130246 259.76465,88.7133757 259.43457,89.3608398 C259.104491,90.008304 258.662275,90.5732398 258.10791,91.0556641 C257.553545,91.5380883 256.91667,91.9274074 256.197266,92.2236328 C255.477861,92.5198583 254.728845,92.6933591 253.950195,92.7441406 C253.933268,92.9388031 253.918457,93.1228832 253.905762,93.2963867 C253.893066,93.4698902 253.886719,93.6328117 253.886719,93.7851562 C253.886719,94.2252626 253.92692,94.5870754 254.007324,94.8706055 C254.087728,95.1541355 254.206217,95.3763013 254.362793,95.5371094 C254.519369,95.6979175 254.714029,95.8100583 254.946777,95.8735352 C255.179526,95.937012 255.452472,95.96875 255.765625,95.96875 C256.281904,95.96875 256.74951,95.9010423 257.168457,95.765625 C257.587404,95.6302077 257.978839,95.4440116 258.342773,95.2070312 C258.706708,94.9700509 259.051593,94.6907568 259.377441,94.3691406 C259.703289,94.0475244 260.031248,93.7047544 260.361328,93.3408203 L261.25,93.3408203 Z M254.15332,91.5 C254.644208,91.4661457 255.118162,91.3264986 255.575195,91.0810547 C256.032229,90.8356108 256.434243,90.5161152 256.78125,90.1225586 C257.128257,89.7290019 257.405435,89.2804387 257.612793,88.7768555 C257.820151,88.2732722 257.923828,87.7506537 257.923828,87.2089844 C257.923828,86.8873682 257.877279,86.6292327 257.78418,86.4345703 C257.69108,86.2399079 257.521811,86.1425781 257.276367,86.1425781 C256.946287,86.1425781 256.62256,86.3012679 256.305176,86.6186523 C255.987791,86.9360367 255.689455,87.3486303 255.410156,87.8564453 C255.130858,88.3642604 254.883302,88.9376596 254.66748,89.5766602 C254.451659,90.2156607 254.280274,90.8567676 254.15332,91.5 Z M259.371094,98 L262.125977,85 L265.871094,85 L265.591797,86.3457031 C265.871095,86.0325505 266.148273,85.7807627 266.42334,85.590332 C266.698406,85.3999014 266.967121,85.2539068 267.229492,85.1523438 C267.491863,85.0507807 267.739419,84.9830731 267.972168,84.9492188 C268.204917,84.9153644 268.422851,84.8984375 268.625977,84.8984375 C269.040692,84.8984375 269.425779,84.95345 269.78125,85.0634766 C270.136721,85.1735032 270.443521,85.347004 270.70166,85.5839844 C270.959799,85.8209647 271.160807,86.1256492 271.304688,86.4980469 C271.448568,86.8704446 271.520508,87.3147761 271.520508,87.8310547 C271.520508,88.1780616 271.48877,88.5525696 271.425293,88.9545898 C271.361816,89.3566101 271.283529,89.7670877 271.19043,90.1860352 C271.09733,90.6049826 270.997885,91.0218078 270.89209,91.4365234 C270.786295,91.8512391 270.686849,92.2490215 270.59375,92.6298828 C270.500651,93.0107441 270.422364,93.3640934 270.358887,93.6899414 C270.29541,94.0157894 270.263672,94.3014311 270.263672,94.546875 C270.263672,94.8684912 270.337727,95.1308584 270.48584,95.3339844 C270.633953,95.5371104 270.906899,95.6386719 271.304688,95.6386719 C271.73633,95.6386719 272.024088,95.5836594 272.167969,95.4736328 C272.108724,95.9475935 271.990235,96.3517236 271.8125,96.6860352 C271.634765,97.0203467 271.418947,97.2975249 271.165039,97.5175781 C270.911132,97.7376313 270.623374,97.898437 270.301758,98 C269.980142,98.101563 269.650067,98.1523438 269.311523,98.1523438 C268.812172,98.1523438 268.393231,98.069825 268.054688,97.9047852 C267.716144,97.7397453 267.445314,97.5196954 267.242188,97.2446289 C267.039061,96.9695624 266.895183,96.6564145 266.810547,96.3051758 C266.725911,95.953937 266.683594,95.5921243 266.683594,95.2197266 C266.683594,94.7796202 266.744954,94.2654652 266.867676,93.6772461 C266.990398,93.089027 267.123697,92.4860057 267.267578,91.8681641 C267.411459,91.2503224 267.544759,90.6536487 267.66748,90.078125 C267.790202,89.5026013 267.851562,89.0074891 267.851562,88.5927734 C267.851562,87.7040971 267.538415,87.2597656 266.912109,87.2597656 C266.675129,87.2597656 266.455079,87.3232416 266.251953,87.4501953 C266.048827,87.5771491 265.862631,87.7485341 265.693359,87.9643555 C265.524088,88.1801769 265.371745,88.4340806 265.236328,88.7260742 C265.100911,89.0180679 264.982422,89.3290999 264.880859,89.6591797 L263.116211,98 L259.371094,98 Z" id="path-1"></path>
        <filter x="-50%" y="-50%" width="200%" height="200%" filterUnits="objectBoundingBox" id="filter-2">
            <feOffset dx="0" dy="2" in="SourceAlpha" result="shadowOffsetOuter1"></feOffset>
            <feGaussianBlur stdDeviation="0.5" in="shadowOffsetOuter1" result="shadowBlurOuter1"></feGaussianBlur>
            <feColorMatrix values="0 0 0 0 0   0 0 0 0 0   0 0 0 0 0  0 0 0 0.5 0" type="matrix" in="shadowBlurOuter1" result="shadowMatrixOuter1"></feColorMatrix>
            <feOffset dx="0" dy="2" in="SourceAlpha" result="shadowOffsetOuter2"></feOffset>
            <feGaussianBlur stdDeviation="0.5" in="shadowOffsetOuter2" result="shadowBlurOuter2"></feGaussianBlur>
            <feColorMatrix values="0 0 0 0 0   0 0 0 0 0   0 0 0 0 0  0 0 0 0.5 0" type="matrix" in="shadowBlurOuter2" result="shadowMatrixOuter2"></feColorMatrix>
            <feMerge>
                <feMergeNode in="shadowMatrixOuter1"></feMergeNode>
                <feMergeNode in="shadowMatrixOuter2"></feMergeNode>
            </feMerge>
        </filter>
        <path d="M92.699,50.013 C92.0836636,49.7789988 91.4206702,49.3846694 90.71,48.83 L90.268,50 L86.16,50 L86.16,43.812 L90.242,43.812 C90.5020013,44.5226702 90.9049973,45.0253319 91.451,45.32 C91.9970027,45.6146681 92.6686627,45.762 93.466,45.762 C93.9513358,45.762 94.3673316,45.6623343 94.714,45.463 C95.0606684,45.2636657 95.234,44.999335 95.234,44.67 C95.234,44.2539979 95.0563351,43.942001 94.701,43.734 C94.3456649,43.525999 93.8473365,43.3353342 93.206,43.162 C91.5766585,42.7113311 90.2376719,42.2260026 89.189,41.706 C88.1403281,41.1859974 87.2953365,40.4406715 86.654,39.47 C86.0126635,38.4993285 85.692,37.2166746 85.692,35.622 C85.692,34.3913272 85.9563307,33.3080047 86.485,32.372 C87.0136693,31.4359953 87.7719951,30.7080026 88.76,30.188 C89.7480049,29.6679974 90.9093267,29.408 92.244,29.408 C93.8733415,29.408 95.1646619,29.9279948 96.118,30.968 L96.768,29.772 L100.408,29.772 L100.408,35.83 L96.508,35.83 C96.1439982,35.0673295 95.7410022,34.5386681 95.299,34.244 C94.8569978,33.9493319 94.2546705,33.802 93.492,33.802 C92.9026637,33.802 92.4476683,33.905999 92.127,34.114 C91.8063317,34.322001 91.646,34.6079982 91.646,34.972 C91.646,35.3706687 91.8756644,35.6783322 92.335,35.895 C92.7943356,36.1116677 93.4486624,36.3153324 94.298,36.506 C95.8060075,36.8526684 97.0843281,37.2816641 98.133,37.793 C99.1816719,38.3043359 100.02233,39.0323286 100.655,39.977 C101.28767,40.9216714 101.604,42.1393259 101.604,43.63 C101.604,44.8953397 101.339669,46.0393282 100.811,47.062 C100.282331,48.0846718 99.5283382,48.8906637 98.549,49.48 C97.5696618,50.0693363 96.4473397,50.364 95.182,50.364 C94.1419948,50.364 93.3143364,50.2470012 92.699,50.013 Z M107.129,47.998 C105.802993,46.4206588 105.14,44.1066819 105.14,41.056 L105.14,34.27 L103.086,34.27 L103.086,29.798 L114.11,29.798 L114.11,34.27 L112.238,34.27 L112.238,42.772 C112.238,43.6040042 112.441665,44.2843307 112.849,44.813 C113.256335,45.3416693 113.893329,45.606 114.76,45.606 C115.488004,45.606 116.064331,45.3893355 116.489,44.956 C116.913669,44.5226645 117.126,43.9333371 117.126,43.188 L117.126,34.27 L115.046,34.27 L115.046,29.798 L123.34,29.798 L123.34,34.27 L121.39,34.27 L121.39,43.006 C121.39,45.4326788 120.67934,47.2656605 119.258,48.505 C117.83666,49.7443395 115.964678,50.364 113.642,50.364 C110.625985,50.364 108.455007,49.5753412 107.129,47.998 Z M130.477,49.22 C128.769658,48.4573295 127.404672,47.2700081 126.382,45.658 C125.359328,44.0459919 124.848,42.0180122 124.848,39.574 C124.848,37.632657 125.250996,35.8906744 126.057,34.348 C126.863004,32.8053256 128.032992,31.5963377 129.567,30.721 C131.101008,29.8456623 132.90799,29.408 134.988,29.408 C135.872004,29.408 136.729996,29.5553319 137.562,29.85 C138.394004,30.1446681 139.052664,30.5779971 139.538,31.15 L139.954,29.798 L144.348,29.798 L144.348,37.26 L140.422,37.26 C140.161999,36.185328 139.659337,35.3750027 138.914,34.829 C138.168663,34.2829973 137.388671,34.01 136.574,34.01 C135.221993,34.01 134.151671,34.5039951 133.363,35.492 C132.574329,36.4800049 132.18,37.840658 132.18,39.574 C132.18,41.3246754 132.569996,42.6983283 133.35,43.695 C134.130004,44.6916716 135.23066,45.19 136.652,45.19 C137.016002,45.19 137.379998,45.1553337 137.744,45.086 C138.108002,45.0166663 138.402666,44.9430004 138.628,44.865 C138.853334,44.7869996 139.000666,44.7393334 139.07,44.722 L139.07,42.928 L136.626,42.928 L136.626,39.158 L144.764,39.158 L144.764,48.232 C143.463994,48.9253368 142.068674,49.4539982 140.578,49.818 C139.087326,50.1820018 137.605341,50.364 136.132,50.364 C134.069323,50.364 132.184342,49.9826705 130.477,49.22 Z M146.324,50 L146.324,45.528 L148.326,45.528 L151.81,34.27 L149.158,34.27 L149.158,29.798 L161.742,29.798 L166.24,45.528 L168.242,45.528 L168.242,50 L156.88,50 L156.88,45.528 L158.518,45.528 L157.972,43.37 L153.396,43.37 L152.824,45.528 L155.242,45.528 L155.242,50 L146.324,50 Z M154.046,40.302 L157.374,40.302 L155.892,34.114 L154.046,40.302 Z M169.88,45.528 L171.908,45.528 L171.908,34.27 L169.88,34.27 L169.88,29.798 L182.854,29.798 C184.951344,29.798 186.493995,30.2226624 187.482,31.072 C188.470005,31.9213376 188.964,33.3253235 188.964,35.284 C188.964,36.6013399 188.59567,37.6153298 187.859,38.326 C187.12233,39.0366702 186.078007,39.5133321 184.726,39.756 C185.939339,39.9466676 186.814664,40.4016631 187.352,41.121 C187.889336,41.8403369 188.158,42.737328 188.158,43.812 L188.158,45.45 L190.992,45.45 L190.992,50 L186.91,50 C185.59266,50 184.648003,49.9133342 184.076,49.74 C183.503997,49.5666658 183.066335,49.0900039 182.763,48.31 C182.459665,47.5299961 182.308,46.2300091 182.308,44.41 C182.308,43.3699948 182.139002,42.5986692 181.801,42.096 C181.462998,41.5933308 180.843338,41.342 179.942,41.342 L178.408,41.342 L178.408,45.528 L180.436,45.528 L180.436,50 L169.88,50 L169.88,45.528 Z M180.15,38.456 C181.068671,38.456 181.753331,38.291335 182.204,37.962 C182.654669,37.632665 182.88,37.0520042 182.88,36.22 C182.88,35.6133303 182.650336,35.1366684 182.191,34.79 C181.731664,34.4433316 181.138004,34.27 180.41,34.27 L178.408,34.27 L178.408,38.456 L180.15,38.456 Z M196.998,45.528 L199.442,45.528 L199.442,34.27 L197.336,34.27 L197.336,29.772 L207.658,29.772 C209.356675,29.772 210.786661,29.9106653 211.948,30.188 C213.109339,30.4653347 214.03233,30.9939961 214.717,31.774 C215.40167,32.5540039 215.744,33.6633261 215.744,35.102 C215.744,36.1073384 215.45367,36.9826629 214.873,37.728 C214.29233,38.4733371 213.551338,39.010665 212.65,39.34 C213.828673,39.8426692 214.699664,40.496996 215.263,41.303 C215.826336,42.109004 216.108,43.213993 216.108,44.618 C216.108,46.3340086 215.43634,47.6599953 214.093,48.596 C212.74966,49.5320047 210.847346,50 208.386,50 L196.998,50 L196.998,45.528 Z M206.644,37.936 C207.614672,37.936 208.329664,37.801668 208.789,37.533 C209.248336,37.264332 209.478,36.7573371 209.478,36.012 C209.478,35.4919974 209.317668,35.0716683 208.997,34.751 C208.676332,34.4303317 208.256003,34.27 207.736,34.27 L205.942,34.27 L205.942,37.936 L206.644,37.936 Z M206.41,45.528 C207.432672,45.528 208.221331,45.3850014 208.776,45.099 C209.330669,44.8129986 209.608,44.2193378 209.608,43.318 C209.608,41.9313264 208.758675,41.238 207.06,41.238 C206.678665,41.238 206.306002,41.2466666 205.942,41.264 L205.942,45.528 L206.41,45.528 Z M223.063,49.012 C221.528992,48.1106622 220.363337,46.8670079 219.566,45.281 C218.768663,43.6949921 218.37,41.8880101 218.37,39.86 C218.37,37.7626562 218.768663,35.9253412 219.566,34.348 C220.363337,32.7706588 221.524659,31.5530043 223.05,30.695 C224.575341,29.8369957 226.403989,29.408 228.536,29.408 C230.668011,29.408 232.496659,29.8369957 234.022,30.695 C235.547341,31.5530043 236.708663,32.7706588 237.506,34.348 C238.303337,35.9253412 238.702,37.7626562 238.702,39.86 C238.702,41.8880101 238.303337,43.6949921 237.506,45.281 C236.708663,46.8670079 235.543008,48.1106622 234.009,49.012 C232.474992,49.9133378 230.650677,50.364 228.536,50.364 C226.421323,50.364 224.597008,49.9133378 223.063,49.012 Z M230.642,44.202 C231.127336,43.0926611 231.37,41.6106759 231.37,39.756 C231.37,37.9533243 231.136002,36.5276719 230.668,35.479 C230.199998,34.4303281 229.489338,33.906 228.536,33.906 C227.582662,33.906 226.872002,34.4303281 226.404,35.479 C225.935998,36.5276719 225.702,37.9533243 225.702,39.756 C225.702,41.6106759 225.944664,43.0926611 226.43,44.202 C226.915336,45.3113389 227.617329,45.866 228.536,45.866 C229.454671,45.866 230.156664,45.3113389 230.642,44.202 Z M245.462,50 L245.462,45.45 L247.412,45.45 L247.412,41.732 L242.082,34.27 L240.652,34.27 L240.652,29.798 L251.468,29.798 L251.468,34.27 L250.324,34.27 L252.638,37.65 L254.458,34.27 L252.612,34.27 L252.612,29.798 L260.698,29.798 L260.698,34.27 L258.41,34.27 L254.484,41.056 L254.484,45.45 L256.486,45.45 L256.486,50 L245.462,50 Z" id="path-3"></path>
        <filter x="-50%" y="-50%" width="200%" height="200%" filterUnits="objectBoundingBox" id="filter-4">
            <feOffset dx="0" dy="2" in="SourceAlpha" result="shadowOffsetOuter1"></feOffset>
            <feGaussianBlur stdDeviation="0.5" in="shadowOffsetOuter1" result="shadowBlurOuter1"></feGaussianBlur>
            <feColorMatrix values="0 0 0 0 0   0 0 0 0 0   0 0 0 0 0  0 0 0 0.5 0" type="matrix" in="shadowBlurOuter1" result="shadowMatrixOuter1"></feColorMatrix>
            <feOffset dx="0" dy="2" in="SourceAlpha" result="shadowOffsetOuter2"></feOffset>
            <feGaussianBlur stdDeviation="0.5" in="shadowOffsetOuter2" result="shadowBlurOuter2"></feGaussianBlur>
            <feColorMatrix values="0 0 0 0 0   0 0 0 0 0   0 0 0 0 0  0 0 0 0.5 0" type="matrix" in="shadowBlurOuter2" result="shadowMatrixOuter2"></feColorMatrix>
            <feMerge>
                <feMergeNode in="shadowMatrixOuter1"></feMergeNode>
                <feMergeNode in="shadowMatrixOuter2"></feMergeNode>
            </feMerge>
        </filter>
    </defs>
    <g id="Page-1" stroke="none" stroke-width="1" fill="none" fill-rule="evenodd">
        <g id="PINK" transform="translate(-547.000000, -15471.000000)">
            <g id="11_michael" transform="translate(547.000000, 15470.000000)">
                <g id="Michael-Markussen">
                    <use fill="black" fill-opacity="1" filter="url(#filter-2)" xlink:href="#path-1"></use>
                    <use fill="#FFF6EB" fill-rule="evenodd" xlink:href="#path-1"></use>
                </g>
                <g id="SUGAR-BOY">
                    <use fill="black" fill-opacity="1" filter="url(#filter-4)" xlink:href="#path-3"></use>
                    <use fill="#FFF6EB" fill-rule="evenodd" xlink:href="#path-3"></use>
                </g>
                <path d="M0.5,1.5 L345.744841,1.5" id="Line-Copy-18" stroke="#FFF6EB" stroke-linecap="square" stroke-dasharray="8,9"></path>
                <path d="M0.5,122.457143 L345.744841,122.457143" id="Line-Copy-19" stroke="#FFF6EB" stroke-linecap="square" stroke-dasharray="8,9"></path>
            </g>
        </g>
    </g>
</svg>