<?xml version="1.0" encoding="UTF-8"?>
<svg width="347px" height="124px" viewBox="0 0 347 124" version="1.1" xmlns="http://www.w3.org/2000/svg" xmlns:xlink="http://www.w3.org/1999/xlink">
    <!-- Generator: Sketch 42 (36781) - http://www.bohemiancoding.com/sketch -->
    <title>11_robin</title>
    <desc>Created with Sketch.</desc>
    <defs>
        <path d="M9.176,48 L4.6,32.27 L2.494,32.27 L2.494,27.798 L13.466,27.798 L13.466,32.27 L12.01,32.27 L14.558,41.448 L16.794,32.27 L15.13,32.27 L15.13,27.798 L23.944,27.798 L23.944,32.27 L21.656,32.27 L16.612,48 L9.176,48 Z M26.206,48 L26.206,43.528 L28.234,43.528 L28.234,32.27 L26.206,32.27 L26.206,27.798 L36.762,27.798 L36.762,32.27 L34.734,32.27 L34.734,43.528 L36.762,43.528 L36.762,48 L26.206,48 Z M45.615,48.013 C44.9996636,47.7789988 44.3366702,47.3846694 43.626,46.83 L43.184,48 L39.076,48 L39.076,41.812 L43.158,41.812 C43.4180013,42.5226702 43.8209973,43.0253319 44.367,43.32 C44.9130027,43.6146681 45.5846627,43.762 46.382,43.762 C46.8673358,43.762 47.2833316,43.6623343 47.63,43.463 C47.9766684,43.2636657 48.15,42.999335 48.15,42.67 C48.15,42.2539979 47.9723351,41.942001 47.617,41.734 C47.2616649,41.525999 46.7633365,41.3353342 46.122,41.162 C44.4926585,40.7113311 43.1536719,40.2260026 42.105,39.706 C41.0563281,39.1859974 40.2113365,38.4406715 39.57,37.47 C38.9286635,36.4993285 38.608,35.2166746 38.608,33.622 C38.608,32.3913272 38.8723307,31.3080047 39.401,30.372 C39.9296693,29.4359953 40.6879951,28.7080026 41.676,28.188 C42.6640049,27.6679974 43.8253267,27.408 45.16,27.408 C46.7893415,27.408 48.0806619,27.9279948 49.034,28.968 L49.684,27.772 L53.324,27.772 L53.324,33.83 L49.424,33.83 C49.0599982,33.0673295 48.6570022,32.5386681 48.215,32.244 C47.7729978,31.9493319 47.1706705,31.802 46.408,31.802 C45.8186637,31.802 45.3636683,31.905999 45.043,32.114 C44.7223317,32.322001 44.562,32.6079982 44.562,32.972 C44.562,33.3706687 44.7916644,33.6783322 45.251,33.895 C45.7103356,34.1116677 46.3646624,34.3153324 47.214,34.506 C48.7220075,34.8526684 50.0003281,35.2816641 51.049,35.793 C52.0976719,36.3043359 52.9383302,37.0323286 53.571,37.977 C54.2036698,38.9216714 54.52,40.1393259 54.52,41.63 C54.52,42.8953397 54.2556693,44.0393282 53.727,45.062 C53.1983307,46.0846718 52.4443382,46.8906637 51.465,47.48 C50.4856618,48.0693363 49.3633397,48.364 48.098,48.364 C47.0579948,48.364 46.2303364,48.2470012 45.615,48.013 Z M60.045,45.998 C58.7189934,44.4206588 58.056,42.1066819 58.056,39.056 L58.056,32.27 L56.002,32.27 L56.002,27.798 L67.026,27.798 L67.026,32.27 L65.154,32.27 L65.154,40.772 C65.154,41.6040042 65.3576646,42.2843307 65.765,42.813 C66.1723354,43.3416693 66.809329,43.606 67.676,43.606 C68.4040036,43.606 68.9803312,43.3893355 69.405,42.956 C69.8296688,42.5226645 70.042,41.9333371 70.042,41.188 L70.042,32.27 L67.962,32.27 L67.962,27.798 L76.256,27.798 L76.256,32.27 L74.306,32.27 L74.306,41.006 C74.306,43.4326788 73.5953404,45.2656605 72.174,46.505 C70.7526596,47.7443395 68.8806783,48.364 66.558,48.364 C63.5419849,48.364 61.3710066,47.5753412 60.045,45.998 Z M77.374,48 L77.374,43.528 L79.376,43.528 L82.86,32.27 L80.208,32.27 L80.208,27.798 L92.792,27.798 L97.29,43.528 L99.292,43.528 L99.292,48 L87.93,48 L87.93,43.528 L89.568,43.528 L89.022,41.37 L84.446,41.37 L83.874,43.528 L86.292,43.528 L86.292,48 L77.374,48 Z M85.096,38.302 L88.424,38.302 L86.942,32.114 L85.096,38.302 Z M100.93,48 L100.93,43.45 L102.958,43.45 L102.958,32.27 L100.93,32.27 L100.93,27.798 L111.486,27.798 L111.486,32.27 L109.458,32.27 L109.458,43.45 L112.708,43.45 L113.93,39.004 L117.154,39.004 L117.154,48 L100.93,48 Z M130.869,48.013 C130.253664,47.7789988 129.59067,47.3846694 128.88,46.83 L128.438,48 L124.33,48 L124.33,41.812 L128.412,41.812 C128.672001,42.5226702 129.074997,43.0253319 129.621,43.32 C130.167003,43.6146681 130.838663,43.762 131.636,43.762 C132.121336,43.762 132.537332,43.6623343 132.884,43.463 C133.230668,43.2636657 133.404,42.999335 133.404,42.67 C133.404,42.2539979 133.226335,41.942001 132.871,41.734 C132.515665,41.525999 132.017337,41.3353342 131.376,41.162 C129.746659,40.7113311 128.407672,40.2260026 127.359,39.706 C126.310328,39.1859974 125.465337,38.4406715 124.824,37.47 C124.182663,36.4993285 123.862,35.2166746 123.862,33.622 C123.862,32.3913272 124.126331,31.3080047 124.655,30.372 C125.183669,29.4359953 125.941995,28.7080026 126.93,28.188 C127.918005,27.6679974 129.079327,27.408 130.414,27.408 C132.043341,27.408 133.334662,27.9279948 134.288,28.968 L134.938,27.772 L138.578,27.772 L138.578,33.83 L134.678,33.83 C134.313998,33.0673295 133.911002,32.5386681 133.469,32.244 C133.026998,31.9493319 132.42467,31.802 131.662,31.802 C131.072664,31.802 130.617668,31.905999 130.297,32.114 C129.976332,32.322001 129.816,32.6079982 129.816,32.972 C129.816,33.3706687 130.045664,33.6783322 130.505,33.895 C130.964336,34.1116677 131.618662,34.3153324 132.468,34.506 C133.976008,34.8526684 135.254328,35.2816641 136.303,35.793 C137.351672,36.3043359 138.19233,37.0323286 138.825,37.977 C139.45767,38.9216714 139.774,40.1393259 139.774,41.63 C139.774,42.8953397 139.509669,44.0393282 138.981,45.062 C138.452331,46.0846718 137.698338,46.8906637 136.719,47.48 C135.739662,48.0693363 134.61734,48.364 133.352,48.364 C132.311995,48.364 131.484336,48.2470012 130.869,48.013 Z M145.299,45.998 C143.972993,44.4206588 143.31,42.1066819 143.31,39.056 L143.31,32.27 L141.256,32.27 L141.256,27.798 L152.28,27.798 L152.28,32.27 L150.408,32.27 L150.408,40.772 C150.408,41.6040042 150.611665,42.2843307 151.019,42.813 C151.426335,43.3416693 152.063329,43.606 152.93,43.606 C153.658004,43.606 154.234331,43.3893355 154.659,42.956 C155.083669,42.5226645 155.296,41.9333371 155.296,41.188 L155.296,32.27 L153.216,32.27 L153.216,27.798 L161.51,27.798 L161.51,32.27 L159.56,32.27 L159.56,41.006 C159.56,43.4326788 158.84934,45.2656605 157.428,46.505 C156.00666,47.7443395 154.134678,48.364 151.812,48.364 C148.795985,48.364 146.625007,47.5753412 145.299,45.998 Z M168.647,47.22 C166.939658,46.4573295 165.574672,45.2700081 164.552,43.658 C163.529328,42.0459919 163.018,40.0180122 163.018,37.574 C163.018,35.632657 163.420996,33.8906744 164.227,32.348 C165.033004,30.8053256 166.202992,29.5963377 167.737,28.721 C169.271008,27.8456623 171.07799,27.408 173.158,27.408 C174.042004,27.408 174.899996,27.5553319 175.732,27.85 C176.564004,28.1446681 177.222664,28.5779971 177.708,29.15 L178.124,27.798 L182.518,27.798 L182.518,35.26 L178.592,35.26 C178.331999,34.185328 177.829337,33.3750027 177.084,32.829 C176.338663,32.2829973 175.558671,32.01 174.744,32.01 C173.391993,32.01 172.321671,32.5039951 171.533,33.492 C170.744329,34.4800049 170.35,35.840658 170.35,37.574 C170.35,39.3246754 170.739996,40.6983283 171.52,41.695 C172.300004,42.6916716 173.40066,43.19 174.822,43.19 C175.186002,43.19 175.549998,43.1553337 175.914,43.086 C176.278002,43.0166663 176.572666,42.9430004 176.798,42.865 C177.023334,42.7869996 177.170666,42.7393334 177.24,42.722 L177.24,40.928 L174.796,40.928 L174.796,37.158 L182.934,37.158 L182.934,46.232 C181.633994,46.9253368 180.238674,47.4539982 178.748,47.818 C177.257326,48.1820018 175.775341,48.364 174.302,48.364 C172.239323,48.364 170.354342,47.9826705 168.647,47.22 Z M184.494,48 L184.494,43.528 L186.496,43.528 L189.98,32.27 L187.328,32.27 L187.328,27.798 L199.912,27.798 L204.41,43.528 L206.412,43.528 L206.412,48 L195.05,48 L195.05,43.528 L196.688,43.528 L196.142,41.37 L191.566,41.37 L190.994,43.528 L193.412,43.528 L193.412,48 L184.494,48 Z M192.216,38.302 L195.544,38.302 L194.062,32.114 L192.216,38.302 Z M208.05,43.528 L210.078,43.528 L210.078,32.27 L208.05,32.27 L208.05,27.798 L221.024,27.798 C223.121344,27.798 224.663995,28.2226624 225.652,29.072 C226.640005,29.9213376 227.134,31.3253235 227.134,33.284 C227.134,34.6013399 226.76567,35.6153298 226.029,36.326 C225.29233,37.0366702 224.248007,37.5133321 222.896,37.756 C224.109339,37.9466676 224.984664,38.4016631 225.522,39.121 C226.059336,39.8403369 226.328,40.737328 226.328,41.812 L226.328,43.45 L229.162,43.45 L229.162,48 L225.08,48 C223.76266,48 222.818003,47.9133342 222.246,47.74 C221.673997,47.5666658 221.236335,47.0900039 220.933,46.31 C220.629665,45.5299961 220.478,44.2300091 220.478,42.41 C220.478,41.3699948 220.309002,40.5986692 219.971,40.096 C219.632998,39.5933308 219.013338,39.342 218.112,39.342 L216.578,39.342 L216.578,43.528 L218.606,43.528 L218.606,48 L208.05,48 L208.05,43.528 Z M218.32,36.456 C219.238671,36.456 219.923331,36.291335 220.374,35.962 C220.824669,35.632665 221.05,35.0520042 221.05,34.22 C221.05,33.6133303 220.820336,33.1366684 220.361,32.79 C219.901664,32.4433316 219.308004,32.27 218.58,32.27 L216.578,32.27 L216.578,36.456 L218.32,36.456 Z M235.168,43.528 L237.196,43.528 L237.196,32.27 L235.168,32.27 L235.168,27.798 L244.528,27.798 C248.202685,27.798 251.01499,28.6473248 252.965,30.346 C254.91501,32.0446752 255.89,34.5579834 255.89,37.886 C255.89,41.1273495 254.919343,43.6233246 252.978,45.374 C251.036657,47.1246754 248.211352,48 244.502,48 L235.168,48 L235.168,43.528 Z M244.502,43.528 C245.92334,43.528 246.958997,42.9950053 247.609,41.929 C248.259003,40.8629947 248.584,39.5153415 248.584,37.886 C248.584,36.2219917 248.263337,34.8700052 247.622,33.83 C246.980663,32.7899948 245.940674,32.27 244.502,32.27 L243.696,32.27 L243.696,43.528 L244.502,43.528 Z M257.684,48 L257.684,43.528 L259.686,43.528 L263.17,32.27 L260.518,32.27 L260.518,27.798 L273.102,27.798 L277.6,43.528 L279.602,43.528 L279.602,48 L268.24,48 L268.24,43.528 L269.878,43.528 L269.332,41.37 L264.756,41.37 L264.184,43.528 L266.602,43.528 L266.602,48 L257.684,48 Z M265.406,38.302 L268.734,38.302 L267.252,32.114 L265.406,38.302 Z M280.408,43.528 L282.436,43.528 L282.436,32.27 L280.408,32.27 L280.408,27.798 L289.768,27.798 C293.442685,27.798 296.25499,28.6473248 298.205,30.346 C300.15501,32.0446752 301.13,34.5579834 301.13,37.886 C301.13,41.1273495 300.159343,43.6233246 298.218,45.374 C296.276657,47.1246754 293.451352,48 289.742,48 L280.408,48 L280.408,43.528 Z M289.742,43.528 C291.16334,43.528 292.198997,42.9950053 292.849,41.929 C293.499003,40.8629947 293.824,39.5153415 293.824,37.886 C293.824,36.2219917 293.503337,34.8700052 292.862,33.83 C292.220663,32.7899948 291.180674,32.27 289.742,32.27 L288.936,32.27 L288.936,43.528 L289.742,43.528 Z M303.314,43.528 L305.342,43.528 L305.342,32.27 L303.314,32.27 L303.314,27.798 L312.674,27.798 C316.348685,27.798 319.16099,28.6473248 321.111,30.346 C323.06101,32.0446752 324.036,34.5579834 324.036,37.886 C324.036,41.1273495 323.065343,43.6233246 321.124,45.374 C319.182657,47.1246754 316.357352,48 312.648,48 L303.314,48 L303.314,43.528 Z M312.648,43.528 C314.06934,43.528 315.104997,42.9950053 315.755,41.929 C316.405003,40.8629947 316.73,39.5153415 316.73,37.886 C316.73,36.2219917 316.409337,34.8700052 315.768,33.83 C315.126663,32.7899948 314.086674,32.27 312.648,32.27 L311.842,32.27 L311.842,43.528 L312.648,43.528 Z M330.718,48 L330.718,43.45 L332.668,43.45 L332.668,39.732 L327.338,32.27 L325.908,32.27 L325.908,27.798 L336.724,27.798 L336.724,32.27 L335.58,32.27 L337.894,35.65 L339.714,32.27 L337.868,32.27 L337.868,27.798 L345.954,27.798 L345.954,32.27 L343.666,32.27 L339.74,39.056 L339.74,43.45 L341.742,43.45 L341.742,48 L330.718,48 Z" id="path-1"></path>
        <filter x="-50%" y="-50%" width="200%" height="200%" filterUnits="objectBoundingBox" id="filter-2">
            <feOffset dx="0" dy="2" in="SourceAlpha" result="shadowOffsetOuter1"></feOffset>
            <feGaussianBlur stdDeviation="0.5" in="shadowOffsetOuter1" result="shadowBlurOuter1"></feGaussianBlur>
            <feColorMatrix values="0 0 0 0 0   0 0 0 0 0   0 0 0 0 0  0 0 0 0.5 0" type="matrix" in="shadowBlurOuter1" result="shadowMatrixOuter1"></feColorMatrix>
            <feOffset dx="0" dy="2" in="SourceAlpha" result="shadowOffsetOuter2"></feOffset>
            <feGaussianBlur stdDeviation="0.5" in="shadowOffsetOuter2" result="shadowBlurOuter2"></feGaussianBlur>
            <feColorMatrix values="0 0 0 0 0   0 0 0 0 0   0 0 0 0 0  0 0 0 0.5 0" type="matrix" in="shadowBlurOuter2" result="shadowMatrixOuter2"></feColorMatrix>
            <feMerge>
                <feMergeNode in="shadowMatrixOuter1"></feMergeNode>
                <feMergeNode in="shadowMatrixOuter2"></feMergeNode>
            </feMerge>
        </filter>
        <path d="M88.4018555,96 L91.9311523,79.4580078 L95.777832,78.9501953 L94.5083008,84.9550781 L94.7114258,84.9550781 C95.2530952,84.9550781 95.7503233,84.8111994 96.203125,84.5234375 C96.6559267,84.2356756 97.0452458,83.871747 97.3710938,83.4316406 C97.6969417,82.9915343 97.9508454,82.5048855 98.1328125,81.9716797 C98.3147796,81.4384739 98.4057617,80.922203 98.4057617,80.4228516 C98.4057617,80.0589175 98.3507492,79.7119157 98.2407227,79.3818359 C98.1306961,79.0517562 97.9614269,78.7618828 97.7329102,78.512207 C97.5043934,78.2625313 97.2102883,78.0636401 96.8505859,77.9155273 C96.4908836,77.7674146 96.0571314,77.6933594 95.5493164,77.6933594 C94.4913684,77.6933594 93.5328819,77.8372381 92.6738281,78.125 C91.8147744,78.4127619 91.0763377,78.8295871 90.4584961,79.3754883 C89.8406545,79.9213894 89.364585,80.583655 89.0302734,81.3623047 C88.6959619,82.1409544 88.5288086,83.0253857 88.5288086,84.015625 C88.5288086,84.3457048 88.5478514,84.6144195 88.5859375,84.8217773 C88.6240236,85.0291352 88.664225,85.1941726 88.706543,85.3168945 C88.7488609,85.4396165 88.7890623,85.5348304 88.8271484,85.6025391 C88.8652346,85.6702477 88.8842773,85.7294919 88.8842773,85.7802734 C88.4357074,85.7802734 88.0379249,85.7358403 87.690918,85.6469727 C87.343911,85.558105 87.0540376,85.4163421 86.8212891,85.2216797 C86.5885405,85.0270173 86.4108079,84.7688818 86.2880859,84.4472656 C86.165364,84.1256494 86.1040039,83.727867 86.1040039,83.2539062 C86.1040039,82.6783825 86.2288399,82.1113309 86.4785156,81.5527344 C86.7281914,80.9941378 87.0709614,80.4651718 87.5068359,79.9658203 C87.9427105,79.4664689 88.4547497,79.0052104 89.0429688,78.5820312 C89.6311878,78.1588521 90.2617154,77.7928075 90.9345703,77.4838867 C91.6074252,77.1749659 92.3098922,76.9337574 93.0419922,76.7602539 C93.7740922,76.5867504 94.5040654,76.5 95.2319336,76.5 C96.2560273,76.5 97.1383427,76.6163725 97.8789062,76.8491211 C98.6194698,77.0818697 99.2309546,77.3929017 99.7133789,77.7822266 C100.195803,78.1715514 100.553384,78.6158829 100.786133,79.1152344 C101.018881,79.6145858 101.135254,80.1308567 101.135254,80.6640625 C101.135254,81.0618509 101.073894,81.465981 100.951172,81.8764648 C100.82845,82.2869487 100.646486,82.686847 100.405273,83.0761719 C100.164061,83.4654967 99.8699562,83.835773 99.5229492,84.1870117 C99.1759423,84.5382505 98.7781598,84.8450508 98.3295898,85.1074219 C98.6681332,85.2089849 98.9537749,85.3422843 99.1865234,85.5073242 C99.419272,85.6723641 99.6033522,85.8670236 99.7387695,86.0913086 C99.8741869,86.3155936 99.9715166,86.5652656 100.030762,86.840332 C100.090007,87.1153985 100.119629,87.4052719 100.119629,87.7099609 C100.119629,88.2516303 100.054037,88.8207978 99.9228516,89.4174805 C99.791666,90.0141631 99.6456714,90.6044893 99.4848633,91.1884766 C99.3240552,91.7724639 99.1780606,92.331052 99.046875,92.8642578 C98.9156894,93.3974636 98.8500977,93.8714172 98.8500977,94.2861328 C98.8500977,94.6923848 98.9410798,95.0499659 99.1230469,95.3588867 C99.3050139,95.6678075 99.55257,95.8815098 99.8657227,96 C99.3071261,96.1608081 98.8162456,96.2750648 98.3930664,96.3427734 C97.9698872,96.4104821 97.6017268,96.4443359 97.2885742,96.4443359 C96.865395,96.4443359 96.522625,96.3914393 96.2602539,96.2856445 C95.9978828,96.1798497 95.792644,96.0444344 95.6445312,95.8793945 C95.4964185,95.7143546 95.394857,95.5281586 95.3398438,95.3208008 C95.2848305,95.113443 95.2573242,94.9082041 95.2573242,94.7050781 C95.2573242,94.2649718 95.3292636,93.7550485 95.4731445,93.175293 C95.6170255,92.5955375 95.7757153,91.994632 95.9492188,91.3725586 C96.1227222,90.7504852 96.281412,90.1347687 96.425293,89.5253906 C96.5691739,88.9160126 96.6411133,88.3616561 96.6411133,87.8623047 C96.6411133,87.5999336 96.613607,87.3608409 96.5585938,87.1450195 C96.5035805,86.9291981 96.41683,86.7430021 96.2983398,86.5864258 C96.1798497,86.4298495 96.019044,86.3092452 95.815918,86.2246094 C95.612792,86.1399735 95.3673517,86.0976562 95.0795898,86.0976562 C94.9610997,86.0976562 94.8299161,86.1040038 94.6860352,86.1166992 C94.5421542,86.1293946 94.3855803,86.1569008 94.2163086,86.1992188 L92.1342773,96 L88.4018555,96 Z M116.191895,86.1230469 C115.684079,86.6562527 115.028162,87.1090476 114.224121,87.4814453 C113.420081,87.853843 112.539881,88.1204419 111.583496,88.28125 C111.481933,89.4830789 111.251304,90.5664014 110.891602,91.53125 C110.531899,92.4960986 110.076988,93.3170539 109.526855,93.9941406 C108.976723,94.6712273 108.346195,95.19173 107.635254,95.5556641 C106.924313,95.9195982 106.171065,96.1015625 105.375488,96.1015625 C104.774574,96.1015625 104.218102,96.0275073 103.706055,95.8793945 C103.194008,95.7312818 102.753908,95.494305 102.385742,95.168457 C102.017576,94.842609 101.729819,94.4194362 101.522461,93.8989258 C101.315103,93.3784154 101.211426,92.745772 101.211426,92.0009766 C101.211426,91.4931615 101.264322,90.9155306 101.370117,90.2680664 C101.475912,89.6206022 101.645181,88.954105 101.87793,88.2685547 C102.110678,87.5830044 102.411131,86.9122754 102.779297,86.2563477 C103.147463,85.6004199 103.596026,85.0143255 104.125,84.4980469 C104.653974,83.9817683 105.265459,83.564943 105.959473,83.2475586 C106.653487,82.9301742 107.44482,82.7714844 108.333496,82.7714844 C110.559419,82.7714844 111.672363,84.1552596 111.672363,86.9228516 L111.672363,86.9482422 C111.714681,86.9651694 111.754883,86.9736328 111.792969,86.9736328 L111.95166,86.9736328 C112.256349,86.9736328 112.584308,86.9291997 112.935547,86.840332 C113.286786,86.7514644 113.640135,86.6350919 113.995605,86.4912109 C114.351076,86.34733 114.698078,86.1801767 115.036621,85.9897461 C115.375164,85.7993155 115.684081,85.6067718 115.963379,85.4121094 L116.191895,86.1230469 Z M109.425293,88.3574219 C109.154458,88.2897132 108.970378,88.1564138 108.873047,87.9575195 C108.775716,87.7586253 108.727051,87.5279961 108.727051,87.265625 C108.727051,86.9016909 108.801106,86.603354 108.949219,86.3706055 C109.097331,86.1378569 109.294107,85.9664719 109.539551,85.8564453 C109.522624,85.577147 109.493002,85.3422861 109.450684,85.1518555 C109.408366,84.9614248 109.349121,84.8048509 109.272949,84.6821289 C109.196777,84.5594069 109.101563,84.4726565 108.987305,84.421875 C108.873046,84.3710935 108.727052,84.3457031 108.549316,84.3457031 C108.236164,84.3457031 107.935711,84.4663074 107.647949,84.7075195 C107.360187,84.9487317 107.087241,85.2682272 106.829102,85.6660156 C106.570962,86.0638041 106.333985,86.5187149 106.118164,87.0307617 C105.902343,87.5428085 105.718262,88.0696588 105.565918,88.6113281 C105.413573,89.1529975 105.295085,89.6883112 105.210449,90.2172852 C105.125813,90.7462592 105.083496,91.2265603 105.083496,91.6582031 C105.083496,92.0898459 105.106771,92.4410794 105.15332,92.7119141 C105.19987,92.9827487 105.276041,93.196451 105.381836,93.3530273 C105.487631,93.5096036 105.625162,93.6175127 105.794434,93.6767578 C105.963705,93.7360029 106.17106,93.765625 106.416504,93.765625 C106.729657,93.765625 107.04492,93.625978 107.362305,93.3466797 C107.679689,93.0673814 107.973794,92.6865258 108.244629,92.2041016 C108.515464,91.7216773 108.754556,91.1503939 108.961914,90.4902344 C109.169272,89.8300748 109.32373,89.1191444 109.425293,88.3574219 Z M115.772949,78.3154297 L119.619629,77.7949219 L118.375488,83.6474609 C118.637859,83.4866528 118.87272,83.3575851 119.080078,83.2602539 C119.287436,83.1629227 119.475748,83.0888674 119.64502,83.0380859 C119.814291,82.9873044 119.968749,82.9555665 120.108398,82.9428711 C120.248048,82.9301757 120.381347,82.9238281 120.508301,82.9238281 C120.965334,82.9238281 121.38216,82.9999992 121.758789,83.1523438 C122.135419,83.3046883 122.459146,83.5564761 122.72998,83.9077148 C123.000815,84.2589536 123.210286,84.7180961 123.358398,85.2851562 C123.506511,85.8522164 123.580566,86.5462199 123.580566,87.3671875 C123.580566,87.8750025 123.531902,88.44417 123.43457,89.074707 C123.337239,89.705244 123.178549,90.3463509 122.958496,90.9980469 C122.738443,91.6497428 122.446454,92.2845021 122.08252,92.9023438 C121.718585,93.5201854 121.274254,94.0703101 120.749512,94.5527344 C120.22477,95.0351587 119.606937,95.4223618 118.895996,95.7143555 C118.185055,96.0063491 117.368331,96.1523438 116.445801,96.1523438 C115.243972,96.1523438 114.338382,95.8603545 113.729004,95.2763672 C113.119626,94.6923799 112.814941,93.8756563 112.814941,92.8261719 C112.814941,92.5807279 112.827637,92.3331718 112.853027,92.0834961 C112.878418,91.8338204 112.924967,91.5862642 112.992676,91.3408203 L115.772949,78.3154297 Z M116.61084,91.8359375 C116.560058,92.0559907 116.534668,92.2548819 116.534668,92.4326172 C116.534668,93.2366577 116.991695,93.6386719 117.905762,93.6386719 C118.18506,93.6386719 118.455891,93.543458 118.718262,93.3530273 C118.980633,93.1625967 119.223957,92.908693 119.448242,92.5913086 C119.672527,92.2739242 119.877766,91.9015321 120.063965,91.4741211 C120.250164,91.0467101 120.408854,90.5981469 120.540039,90.128418 C120.671225,89.6586891 120.772786,89.1783879 120.844727,88.6875 C120.916667,88.1966121 120.952637,87.7226585 120.952637,87.265625 C120.952637,86.9524724 120.92513,86.6456721 120.870117,86.3452148 C120.815104,86.0447576 120.730469,85.7760429 120.616211,85.5390625 C120.501953,85.3020821 120.358074,85.1137702 120.18457,84.9741211 C120.011067,84.834472 119.805828,84.7646484 119.568848,84.7646484 C119.475748,84.7646484 119.35726,84.770996 119.213379,84.7836914 C119.069498,84.7963868 118.921387,84.8217772 118.769043,84.8598633 C118.616698,84.8979494 118.474936,84.9466143 118.34375,85.0058594 C118.212564,85.0651045 118.108887,85.1412756 118.032715,85.234375 L116.61084,91.8359375 Z M130.956543,79.546875 C130.956543,79.8346369 130.90153,80.1033516 130.791504,80.3530273 C130.681477,80.6027031 130.531251,80.8185212 130.34082,81.0004883 C130.15039,81.1824553 129.93034,81.3263341 129.680664,81.4321289 C129.430988,81.5379237 129.162274,81.5908203 128.874512,81.5908203 C128.58675,81.5908203 128.318035,81.5379237 128.068359,81.4321289 C127.818684,81.3263341 127.60075,81.1824553 127.414551,81.0004883 C127.228352,80.8185212 127.082357,80.6027031 126.976562,80.3530273 C126.870768,80.1033516 126.817871,79.8346369 126.817871,79.546875 C126.817871,79.2591131 126.870768,78.9903984 126.976562,78.7407227 C127.082357,78.4910469 127.228352,78.270997 127.414551,78.0805664 C127.60075,77.8901358 127.818684,77.7399094 128.068359,77.6298828 C128.318035,77.5198562 128.58675,77.4648438 128.874512,77.4648438 C129.162274,77.4648438 129.430988,77.5198562 129.680664,77.6298828 C129.93034,77.7399094 130.15039,77.8901358 130.34082,78.0805664 C130.531251,78.270997 130.681477,78.4910469 130.791504,78.7407227 C130.90153,78.9903984 130.956543,79.2591131 130.956543,79.546875 Z M132.568848,91.3408203 C132.323404,92.0432978 132.050457,92.6526667 131.75,93.1689453 C131.449543,93.6852239 131.136395,94.121092 130.810547,94.4765625 C130.484699,94.832033 130.150392,95.1197906 129.807617,95.3398438 C129.464842,95.5598969 129.132651,95.7291661 128.811035,95.8476562 C128.489419,95.9661464 128.182619,96.0465493 127.890625,96.0888672 C127.598631,96.1311851 127.33838,96.1523438 127.109863,96.1523438 C126.720538,96.1523438 126.35661,96.0930996 126.018066,95.9746094 C125.679523,95.8561192 125.385418,95.6699231 125.135742,95.4160156 C124.886066,95.1621081 124.689291,94.8404967 124.54541,94.4511719 C124.401529,94.061847 124.32959,93.5921251 124.32959,93.0419922 C124.32959,92.8050118 124.346517,92.5447605 124.380371,92.2612305 C124.414225,91.9777004 124.465006,91.6709001 124.532715,91.3408203 L126.297363,83 L130.04248,83 L128.17627,91.8359375 C128.133952,91.9798184 128.106445,92.1215813 128.09375,92.2612305 C128.081055,92.4008796 128.074707,92.5384108 128.074707,92.6738281 C128.074707,93.0377622 128.159342,93.2895501 128.328613,93.4291992 C128.497885,93.5688484 128.764484,93.6386719 129.128418,93.6386719 C129.382325,93.6386719 129.629882,93.5815435 129.871094,93.4672852 C130.112306,93.3530268 130.334472,93.194337 130.537598,92.9912109 C130.740724,92.7880849 130.922688,92.5447605 131.083496,92.2612305 C131.244304,91.9777004 131.375488,91.6709001 131.477051,91.3408203 L132.568848,91.3408203 Z M130.486816,96 L133.241699,83 L136.986816,83 L136.70752,84.3457031 C136.986818,84.0325505 137.263996,83.7807627 137.539062,83.590332 C137.814129,83.3999014 138.082844,83.2539068 138.345215,83.1523438 C138.607586,83.0507807 138.855142,82.9830731 139.087891,82.9492188 C139.320639,82.9153644 139.538573,82.8984375 139.741699,82.8984375 C140.156415,82.8984375 140.541502,82.95345 140.896973,83.0634766 C141.252443,83.1735032 141.559244,83.347004 141.817383,83.5839844 C142.075522,83.8209647 142.276529,84.1256492 142.42041,84.4980469 C142.564291,84.8704446 142.63623,85.3147761 142.63623,85.8310547 C142.63623,86.1780616 142.604493,86.5525696 142.541016,86.9545898 C142.477539,87.3566101 142.399252,87.7670877 142.306152,88.1860352 C142.213053,88.6049826 142.113607,89.0218078 142.007812,89.4365234 C141.902018,89.8512391 141.802572,90.2490215 141.709473,90.6298828 C141.616373,91.0107441 141.538086,91.3640934 141.474609,91.6899414 C141.411132,92.0157894 141.379395,92.3014311 141.379395,92.546875 C141.379395,92.8684912 141.45345,93.1308584 141.601562,93.3339844 C141.749675,93.5371104 142.022622,93.6386719 142.42041,93.6386719 C142.852053,93.6386719 143.13981,93.5836594 143.283691,93.4736328 C143.224446,93.9475935 143.105958,94.3517236 142.928223,94.6860352 C142.750487,95.0203467 142.534669,95.2975249 142.280762,95.5175781 C142.026854,95.7376313 141.739097,95.898437 141.41748,96 C141.095864,96.101563 140.765789,96.1523438 140.427246,96.1523438 C139.927895,96.1523438 139.508954,96.069825 139.17041,95.9047852 C138.831867,95.7397453 138.561036,95.5196954 138.35791,95.2446289 C138.154784,94.9695624 138.010905,94.6564145 137.92627,94.3051758 C137.841634,93.953937 137.799316,93.5921243 137.799316,93.2197266 C137.799316,92.7796202 137.860676,92.2654652 137.983398,91.6772461 C138.10612,91.089027 138.23942,90.4860057 138.383301,89.8681641 C138.527182,89.2503224 138.660481,88.6536487 138.783203,88.078125 C138.905925,87.5026013 138.967285,87.0074891 138.967285,86.5927734 C138.967285,85.7040971 138.654137,85.2597656 138.027832,85.2597656 C137.790852,85.2597656 137.570802,85.3232416 137.367676,85.4501953 C137.16455,85.5771491 136.978354,85.7485341 136.809082,85.9643555 C136.63981,86.1801769 136.487468,86.4340806 136.352051,86.7260742 C136.216633,87.0180679 136.098145,87.3290999 135.996582,87.6591797 L134.231934,96 L130.486816,96 Z M151.370605,96 L155.128418,78.3408203 C153.977371,78.814781 153.084476,79.5257114 152.449707,80.4736328 C151.814938,81.4215542 151.497559,82.6022065 151.497559,84.015625 C151.497559,84.3457048 151.516601,84.6144195 151.554688,84.8217773 C151.592774,85.0291352 151.632975,85.1941726 151.675293,85.3168945 C151.717611,85.4396165 151.757812,85.5348304 151.795898,85.6025391 C151.833985,85.6702477 151.853027,85.7294919 151.853027,85.7802734 C151.404457,85.7802734 151.006675,85.7358403 150.659668,85.6469727 C150.312661,85.558105 150.022788,85.4163421 149.790039,85.2216797 C149.557291,85.0270173 149.379558,84.7688818 149.256836,84.4472656 C149.134114,84.1256494 149.072754,83.727867 149.072754,83.2539062 C149.072754,82.6783825 149.19759,82.1113309 149.447266,81.5527344 C149.696941,80.9941378 150.039711,80.4651718 150.475586,79.9658203 C150.911461,79.4664689 151.4235,79.0052104 152.011719,78.5820312 C152.599938,78.1588521 153.230465,77.7928075 153.90332,77.4838867 C154.576175,77.1749659 155.278642,76.9337574 156.010742,76.7602539 C156.742842,76.5867504 157.472815,76.5 158.200684,76.5 C158.395346,76.5 158.575194,76.5042317 158.740234,76.5126953 C158.905274,76.5211589 159.072428,76.5338541 159.241699,76.5507812 L155.103027,96 L151.370605,96 Z M172.88916,91.3408203 C172.525226,92.4072319 172.133791,93.2578093 171.714844,93.8925781 C171.295896,94.5273469 170.872723,95.0118798 170.445312,95.3461914 C170.017902,95.680503 169.59896,95.898437 169.188477,96 C168.777993,96.101563 168.399253,96.1523438 168.052246,96.1523438 C167.476722,96.1523438 166.994305,96.069825 166.60498,95.9047852 C166.215656,95.7397453 165.902508,95.5196954 165.665527,95.2446289 C165.428547,94.9695624 165.257162,94.6564145 165.151367,94.3051758 C165.045572,93.953937 164.992676,93.5921243 164.992676,93.2197266 C164.992676,92.7796202 165.054036,92.2654652 165.176758,91.6772461 C165.29948,91.089027 165.432779,90.4860057 165.57666,89.8681641 C165.720541,89.2503224 165.853841,88.6536487 165.976562,88.078125 C166.099284,87.5026013 166.160645,87.0074891 166.160645,86.5927734 C166.160645,85.7040971 165.847497,85.2597656 165.221191,85.2597656 C164.984211,85.2597656 164.764161,85.3232416 164.561035,85.4501953 C164.357909,85.5771491 164.171713,85.7485341 164.002441,85.9643555 C163.83317,86.1801769 163.680828,86.4340806 163.54541,86.7260742 C163.409993,87.0180679 163.291504,87.3290999 163.189941,87.6591797 L161.425293,96 L157.680176,96 L160.435059,83 L164.180176,83 L163.900879,84.3457031 C164.180177,84.0325505 164.457355,83.7807627 164.732422,83.590332 C165.007488,83.3999014 165.276203,83.2539068 165.538574,83.1523438 C165.800945,83.0507807 166.048501,82.9830731 166.28125,82.9492188 C166.513999,82.9153644 166.731933,82.8984375 166.935059,82.8984375 C167.349774,82.8984375 167.734862,82.95345 168.090332,83.0634766 C168.445803,83.1735032 168.752603,83.347004 169.010742,83.5839844 C169.268881,83.8209647 169.469889,84.1256492 169.61377,84.4980469 C169.75765,84.8704446 169.82959,85.3147761 169.82959,85.8310547 C169.82959,86.1780616 169.797852,86.5525696 169.734375,86.9545898 C169.670898,87.3566101 169.592611,87.7670877 169.499512,88.1860352 C169.406412,88.6049826 169.306967,89.0218078 169.201172,89.4365234 C169.095377,89.8512391 168.995931,90.2490215 168.902832,90.6298828 C168.809733,91.0107441 168.731446,91.3640934 168.667969,91.6899414 C168.604492,92.0157894 168.572754,92.3014311 168.572754,92.546875 C168.572754,92.8684912 168.646809,93.1308584 168.794922,93.3339844 C168.943035,93.5371104 169.215981,93.6386719 169.61377,93.6386719 C169.893068,93.6386719 170.138508,93.5836594 170.350098,93.4736328 C170.561687,93.3636062 170.752115,93.2070323 170.921387,93.0039062 C171.090658,92.8007802 171.245116,92.5574558 171.384766,92.2739258 C171.524415,91.9903957 171.661946,91.6793637 171.797363,91.3408203 L172.88916,91.3408203 Z M181.077637,98.0820312 C180.891438,99.0130255 180.622723,99.7662732 180.271484,100.341797 C179.920246,100.917321 179.528811,101.365884 179.097168,101.6875 C178.665525,102.009116 178.214846,102.224934 177.745117,102.334961 C177.275388,102.444988 176.824709,102.5 176.393066,102.5 C175.995278,102.5 175.62077,102.447103 175.269531,102.341309 C174.918293,102.235514 174.611492,102.07894 174.349121,101.871582 C174.08675,101.664224 173.877279,101.401857 173.720703,101.084473 C173.564127,100.767088 173.48584,100.396812 173.48584,99.9736328 C173.48584,99.4319634 173.614908,98.9537781 173.873047,98.5390625 C174.131186,98.1243469 174.463377,97.7625341 174.869629,97.4536133 C175.275881,97.1446925 175.730792,96.8802094 176.234375,96.6601562 C176.737958,96.4401031 177.235186,96.253907 177.726074,96.1015625 L178.043457,94.7304688 C177.662596,95.1367208 177.216148,95.4752591 176.704102,95.7460938 C176.192055,96.0169284 175.597497,96.1523438 174.92041,96.1523438 C174.47184,96.1523438 174.040204,96.0804044 173.625488,95.9365234 C173.210773,95.7926425 172.842612,95.5556657 172.520996,95.2255859 C172.19938,94.8955062 171.941244,94.4638699 171.746582,93.9306641 C171.55192,93.3974583 171.45459,92.7457721 171.45459,91.9755859 C171.45459,91.3831351 171.513834,90.7483758 171.632324,90.0712891 C171.750814,89.3942023 171.932779,88.7171258 172.178223,88.0400391 C172.423667,87.3629523 172.730467,86.713382 173.098633,86.0913086 C173.466799,85.4692352 173.898435,84.9191105 174.393555,84.440918 C174.888674,83.9627255 175.449378,83.5818699 176.075684,83.2983398 C176.701989,83.0148098 177.391761,82.8730469 178.14502,82.8730469 C178.881351,82.8730469 179.416665,82.9999987 179.750977,83.2539062 C180.085288,83.5078138 180.252441,83.8209617 180.252441,84.1933594 L180.252441,84.3457031 L180.531738,83 L184.276855,83 L181.699707,95.0605469 C182.097495,94.9251295 182.457192,94.762208 182.778809,94.5717773 C183.100425,94.3813467 183.39453,94.1401382 183.661133,93.8481445 C183.927736,93.5561509 184.168944,93.2070333 184.384766,92.8007812 C184.600587,92.3945292 184.797362,91.9078804 184.975098,91.3408203 L186.066895,91.3408203 C185.804523,92.2041059 185.493491,92.9234997 185.133789,93.4990234 C184.774087,94.0745471 184.391115,94.5463849 183.984863,94.9145508 C183.578611,95.2827167 183.15967,95.5641266 182.728027,95.7587891 C182.296385,95.9534515 181.877443,96.101562 181.471191,96.203125 L181.077637,98.0820312 Z M180.01123,85.4501953 C180.01123,85.3740231 179.994304,85.280925 179.960449,85.1708984 C179.926595,85.0608718 179.869467,84.9550786 179.789062,84.8535156 C179.708658,84.7519526 179.600749,84.6652022 179.465332,84.5932617 C179.329915,84.5213213 179.156414,84.4853516 178.944824,84.4853516 C178.58089,84.4853516 178.236004,84.60384 177.910156,84.8408203 C177.584308,85.0778007 177.285971,85.3930644 177.015137,85.7866211 C176.744302,86.1801777 176.503094,86.6266251 176.291504,87.1259766 C176.079914,87.625328 175.900066,88.139483 175.751953,88.668457 C175.60384,89.197431 175.4917,89.7179336 175.415527,90.2299805 C175.339355,90.7420273 175.30127,91.2011698 175.30127,91.6074219 C175.30127,92.1067733 175.347819,92.4918606 175.440918,92.7626953 C175.534017,93.03353 175.646158,93.2345371 175.777344,93.3657227 C175.908529,93.4969082 176.050292,93.5751952 176.202637,93.6005859 C176.354981,93.6259767 176.490397,93.6386719 176.608887,93.6386719 C176.786622,93.6386719 176.97705,93.5942387 177.180176,93.5053711 C177.383302,93.4165035 177.584309,93.2874357 177.783203,93.1181641 C177.982097,92.9488924 178.161946,92.737306 178.322754,92.4833984 C178.483562,92.2294909 178.606282,91.9375017 178.690918,91.6074219 L180.01123,85.4501953 Z M177.459473,97.4091797 C177.120929,97.5361334 176.799318,97.6736646 176.494629,97.8217773 C176.18994,97.9698901 175.921225,98.1328116 175.688477,98.3105469 C175.455728,98.4882821 175.269532,98.6850575 175.129883,98.9008789 C174.990234,99.1167003 174.92041,99.355793 174.92041,99.6181641 C174.92041,99.7112635 174.937337,99.8085932 174.971191,99.9101562 C175.005046,100.011719 175.057942,100.104817 175.129883,100.189453 C175.201823,100.274089 175.292805,100.341797 175.402832,100.392578 C175.512859,100.44336 175.644042,100.46875 175.796387,100.46875 C176.067221,100.46875 176.3444,100.280438 176.62793,99.9038086 C176.91146,99.5271791 177.137857,98.9453164 177.307129,98.1582031 L177.459473,97.4091797 Z M195.842285,91.3408203 C195.478351,91.9501984 195.061526,92.5426404 194.591797,93.1181641 C194.122068,93.6936878 193.593102,94.2057269 193.004883,94.6542969 C192.416664,95.1028668 191.764978,95.4646796 191.049805,95.7397461 C190.334632,96.0148126 189.549646,96.1523438 188.694824,96.1523438 C188.076983,96.1523438 187.518394,96.0740568 187.019043,95.9174805 C186.519692,95.7609042 186.092287,95.5175798 185.736816,95.1875 C185.381346,94.8574202 185.108399,94.4321315 184.917969,93.9116211 C184.727538,93.3911107 184.632324,92.762699 184.632324,92.0263672 C184.632324,91.5270157 184.683105,90.9515007 184.784668,90.2998047 C184.886231,89.6481087 185.047037,88.9794956 185.26709,88.2939453 C185.487143,87.608395 185.779132,86.9355502 186.143066,86.2753906 C186.507001,85.6152311 186.9471,85.0249049 187.463379,84.5043945 C187.979658,83.9838841 188.584795,83.564943 189.278809,83.2475586 C189.972822,82.9301742 190.764156,82.7714844 191.652832,82.7714844 C192.236819,82.7714844 192.712889,82.8413079 193.081055,82.980957 C193.449221,83.1206062 193.74121,83.3046864 193.957031,83.5332031 C194.172853,83.7617199 194.320963,84.0262029 194.401367,84.3266602 C194.481771,84.6271174 194.521973,84.9381494 194.521973,85.2597656 C194.521973,86.0130246 194.356935,86.7133757 194.026855,87.3608398 C193.696776,88.008304 193.25456,88.5732398 192.700195,89.0556641 C192.145831,89.5380883 191.508955,89.9274074 190.789551,90.2236328 C190.070146,90.5198583 189.32113,90.6933591 188.54248,90.7441406 C188.525553,90.9388031 188.510742,91.1228832 188.498047,91.2963867 C188.485351,91.4698902 188.479004,91.6328117 188.479004,91.7851562 C188.479004,92.2252626 188.519205,92.5870754 188.599609,92.8706055 C188.680013,93.1541355 188.798502,93.3763013 188.955078,93.5371094 C189.111654,93.6979175 189.306314,93.8100583 189.539062,93.8735352 C189.771811,93.937012 190.044758,93.96875 190.35791,93.96875 C190.874189,93.96875 191.341795,93.9010423 191.760742,93.765625 C192.17969,93.6302077 192.571124,93.4440116 192.935059,93.2070312 C193.298993,92.9700509 193.643879,92.6907568 193.969727,92.3691406 C194.295575,92.0475244 194.623534,91.7047544 194.953613,91.3408203 L195.842285,91.3408203 Z M188.745605,89.5 C189.236493,89.4661457 189.710447,89.3264986 190.16748,89.0810547 C190.624514,88.8356108 191.026528,88.5161152 191.373535,88.1225586 C191.720542,87.7290019 191.99772,87.2804387 192.205078,86.7768555 C192.412436,86.2732722 192.516113,85.7506537 192.516113,85.2089844 C192.516113,84.8873682 192.469564,84.6292327 192.376465,84.4345703 C192.283365,84.2399079 192.114096,84.1425781 191.868652,84.1425781 C191.538573,84.1425781 191.214845,84.3012679 190.897461,84.6186523 C190.580077,84.9360367 190.28174,85.3486303 190.002441,85.8564453 C189.723143,86.3642604 189.475587,86.9376596 189.259766,87.5766602 C189.043944,88.2156607 188.872559,88.8567676 188.745605,89.5 Z M197.733887,78.3154297 L201.580566,77.7949219 L200.336426,83.6474609 C200.598797,83.4866528 200.833658,83.3575851 201.041016,83.2602539 C201.248373,83.1629227 201.436685,83.0888674 201.605957,83.0380859 C201.775229,82.9873044 201.929687,82.9555665 202.069336,82.9428711 C202.208985,82.9301757 202.342285,82.9238281 202.469238,82.9238281 C202.926272,82.9238281 203.343097,82.9999992 203.719727,83.1523438 C204.096356,83.3046883 204.420083,83.5564761 204.690918,83.9077148 C204.961753,84.2589536 205.171223,84.7180961 205.319336,85.2851562 C205.467449,85.8522164 205.541504,86.5462199 205.541504,87.3671875 C205.541504,87.8750025 205.492839,88.44417 205.395508,89.074707 C205.298177,89.705244 205.139487,90.3463509 204.919434,90.9980469 C204.69938,91.6497428 204.407391,92.2845021 204.043457,92.9023438 C203.679523,93.5201854 203.235191,94.0703101 202.710449,94.5527344 C202.185707,95.0351587 201.567875,95.4223618 200.856934,95.7143555 C200.145993,96.0063491 199.329269,96.1523438 198.406738,96.1523438 C197.204909,96.1523438 196.299319,95.8603545 195.689941,95.2763672 C195.080563,94.6923799 194.775879,93.8756563 194.775879,92.8261719 C194.775879,92.5807279 194.788574,92.3331718 194.813965,92.0834961 C194.839356,91.8338204 194.885905,91.5862642 194.953613,91.3408203 L197.733887,78.3154297 Z M198.571777,91.8359375 C198.520996,92.0559907 198.495605,92.2548819 198.495605,92.4326172 C198.495605,93.2366577 198.952632,93.6386719 199.866699,93.6386719 C200.145997,93.6386719 200.416828,93.543458 200.679199,93.3530273 C200.94157,93.1625967 201.184895,92.908693 201.40918,92.5913086 C201.633465,92.2739242 201.838703,91.9015321 202.024902,91.4741211 C202.211101,91.0467101 202.369791,90.5981469 202.500977,90.128418 C202.632162,89.6586891 202.733724,89.1783879 202.805664,88.6875 C202.877605,88.1966121 202.913574,87.7226585 202.913574,87.265625 C202.913574,86.9524724 202.886068,86.6456721 202.831055,86.3452148 C202.776041,86.0447576 202.691407,85.7760429 202.577148,85.5390625 C202.46289,85.3020821 202.319011,85.1137702 202.145508,84.9741211 C201.972004,84.834472 201.766766,84.7646484 201.529785,84.7646484 C201.436686,84.7646484 201.318197,84.770996 201.174316,84.7836914 C201.030435,84.7963868 200.882325,84.8217772 200.72998,84.8598633 C200.577636,84.8979494 200.435873,84.9466143 200.304688,85.0058594 C200.173502,85.0651045 200.069825,85.1412756 199.993652,85.234375 L198.571777,91.8359375 Z M205.503418,96 L208.258301,83 L212.003418,83 L211.67334,84.6123047 C211.901857,84.4091787 212.134602,84.2102874 212.371582,84.015625 C212.608562,83.8209626 212.856119,83.6495776 213.114258,83.5014648 C213.372397,83.3533521 213.641112,83.2327479 213.92041,83.1396484 C214.199708,83.046549 214.495929,83 214.809082,83 C215.105307,83 215.365559,83.0550125 215.589844,83.1650391 C215.814129,83.2750657 216.002441,83.4189444 216.154785,83.5966797 C216.30713,83.774415 216.421386,83.9817696 216.497559,84.21875 C216.573731,84.4557304 216.611816,84.7011706 216.611816,84.9550781 C216.611816,85.1835949 216.573731,85.4099924 216.497559,85.6342773 C216.421386,85.8585623 216.305014,86.0595694 216.148438,86.2373047 C215.991861,86.41504 215.795086,86.5610346 215.558105,86.675293 C215.321125,86.7895514 215.046063,86.8466797 214.73291,86.8466797 C214.487466,86.8466797 214.299154,86.8043624 214.167969,86.7197266 C214.036783,86.6350907 213.937338,86.5292975 213.869629,86.4023438 C213.80192,86.27539 213.753255,86.1378588 213.723633,85.9897461 C213.69401,85.8416334 213.662272,85.7041022 213.628418,85.5771484 C213.594564,85.4501947 213.55013,85.3444015 213.495117,85.2597656 C213.440104,85.1751298 213.349122,85.1328125 213.222168,85.1328125 C212.82438,85.1328125 212.490073,85.2237947 212.219238,85.4057617 C211.948404,85.5877288 211.652183,85.8268214 211.330566,86.1230469 L209.248535,96 L205.503418,96 Z M222.692871,79.546875 C222.692871,79.8346369 222.637859,80.1033516 222.527832,80.3530273 C222.417805,80.6027031 222.267579,80.8185212 222.077148,81.0004883 C221.886718,81.1824553 221.666668,81.3263341 221.416992,81.4321289 C221.167316,81.5379237 220.898602,81.5908203 220.61084,81.5908203 C220.323078,81.5908203 220.054363,81.5379237 219.804688,81.4321289 C219.555012,81.3263341 219.337078,81.1824553 219.150879,81.0004883 C218.96468,80.8185212 218.818685,80.6027031 218.712891,80.3530273 C218.607096,80.1033516 218.554199,79.8346369 218.554199,79.546875 C218.554199,79.2591131 218.607096,78.9903984 218.712891,78.7407227 C218.818685,78.4910469 218.96468,78.270997 219.150879,78.0805664 C219.337078,77.8901358 219.555012,77.7399094 219.804688,77.6298828 C220.054363,77.5198562 220.323078,77.4648438 220.61084,77.4648438 C220.898602,77.4648438 221.167316,77.5198562 221.416992,77.6298828 C221.666668,77.7399094 221.886718,77.8901358 222.077148,78.0805664 C222.267579,78.270997 222.417805,78.4910469 222.527832,78.7407227 C222.637859,78.9903984 222.692871,79.2591131 222.692871,79.546875 Z M224.305176,91.3408203 C224.059732,92.0432978 223.786785,92.6526667 223.486328,93.1689453 C223.185871,93.6852239 222.872723,94.121092 222.546875,94.4765625 C222.221027,94.832033 221.88672,95.1197906 221.543945,95.3398438 C221.20117,95.5598969 220.868979,95.7291661 220.547363,95.8476562 C220.225747,95.9661464 219.918947,96.0465493 219.626953,96.0888672 C219.334959,96.1311851 219.074708,96.1523438 218.846191,96.1523438 C218.456867,96.1523438 218.092938,96.0930996 217.754395,95.9746094 C217.415851,95.8561192 217.121746,95.6699231 216.87207,95.4160156 C216.622395,95.1621081 216.425619,94.8404967 216.281738,94.4511719 C216.137857,94.061847 216.065918,93.5921251 216.065918,93.0419922 C216.065918,92.8050118 216.082845,92.5447605 216.116699,92.2612305 C216.150554,91.9777004 216.201334,91.6709001 216.269043,91.3408203 L218.033691,83 L221.778809,83 L219.912598,91.8359375 C219.87028,91.9798184 219.842774,92.1215813 219.830078,92.2612305 C219.817383,92.4008796 219.811035,92.5384108 219.811035,92.6738281 C219.811035,93.0377622 219.89567,93.2895501 220.064941,93.4291992 C220.234213,93.5688484 220.500812,93.6386719 220.864746,93.6386719 C221.118654,93.6386719 221.36621,93.5815435 221.607422,93.4672852 C221.848634,93.3530268 222.0708,93.194337 222.273926,92.9912109 C222.477052,92.7880849 222.659016,92.5447605 222.819824,92.2612305 C222.980632,91.9777004 223.111816,91.6709001 223.213379,91.3408203 L224.305176,91.3408203 Z M232.493652,98.0820312 C232.307453,99.0130255 232.038739,99.7662732 231.6875,100.341797 C231.336261,100.917321 230.944826,101.365884 230.513184,101.6875 C230.081541,102.009116 229.630862,102.224934 229.161133,102.334961 C228.691404,102.444988 228.240725,102.5 227.809082,102.5 C227.411294,102.5 227.036786,102.447103 226.685547,102.341309 C226.334308,102.235514 226.027508,102.07894 225.765137,101.871582 C225.502766,101.664224 225.293295,101.401857 225.136719,101.084473 C224.980142,100.767088 224.901855,100.396812 224.901855,99.9736328 C224.901855,99.4319634 225.030923,98.9537781 225.289062,98.5390625 C225.547202,98.1243469 225.879392,97.7625341 226.285645,97.4536133 C226.691897,97.1446925 227.146807,96.8802094 227.650391,96.6601562 C228.153974,96.4401031 228.651202,96.253907 229.14209,96.1015625 L229.459473,94.7304688 C229.078611,95.1367208 228.632164,95.4752591 228.120117,95.7460938 C227.60807,96.0169284 227.013512,96.1523438 226.336426,96.1523438 C225.887856,96.1523438 225.45622,96.0804044 225.041504,95.9365234 C224.626788,95.7926425 224.258628,95.5556657 223.937012,95.2255859 C223.615396,94.8955062 223.35726,94.4638699 223.162598,93.9306641 C222.967935,93.3974583 222.870605,92.7457721 222.870605,91.9755859 C222.870605,91.3831351 222.92985,90.7483758 223.04834,90.0712891 C223.16683,89.3942023 223.348794,88.7171258 223.594238,88.0400391 C223.839682,87.3629523 224.146483,86.713382 224.514648,86.0913086 C224.882814,85.4692352 225.314451,84.9191105 225.80957,84.440918 C226.30469,83.9627255 226.865394,83.5818699 227.491699,83.2983398 C228.118004,83.0148098 228.807776,82.8730469 229.561035,82.8730469 C230.297367,82.8730469 230.832681,82.9999987 231.166992,83.2539062 C231.501304,83.5078138 231.668457,83.8209617 231.668457,84.1933594 L231.668457,84.3457031 L231.947754,83 L235.692871,83 L233.115723,95.0605469 C233.513511,94.9251295 233.873208,94.762208 234.194824,94.5717773 C234.51644,94.3813467 234.810546,94.1401382 235.077148,93.8481445 C235.343751,93.5561509 235.58496,93.2070333 235.800781,92.8007812 C236.016603,92.3945292 236.213378,91.9078804 236.391113,91.3408203 L237.48291,91.3408203 C237.220539,92.2041059 236.909507,92.9234997 236.549805,93.4990234 C236.190102,94.0745471 235.807131,94.5463849 235.400879,94.9145508 C234.994627,95.2827167 234.575686,95.5641266 234.144043,95.7587891 C233.7124,95.9534515 233.293459,96.101562 232.887207,96.203125 L232.493652,98.0820312 Z M231.427246,85.4501953 C231.427246,85.3740231 231.410319,85.280925 231.376465,85.1708984 C231.342611,85.0608718 231.285482,84.9550786 231.205078,84.8535156 C231.124674,84.7519526 231.016765,84.6652022 230.881348,84.5932617 C230.74593,84.5213213 230.572429,84.4853516 230.36084,84.4853516 C229.996906,84.4853516 229.65202,84.60384 229.326172,84.8408203 C229.000324,85.0778007 228.701987,85.3930644 228.431152,85.7866211 C228.160318,86.1801777 227.919109,86.6266251 227.70752,87.1259766 C227.49593,87.625328 227.316081,88.139483 227.167969,88.668457 C227.019856,89.197431 226.907715,89.7179336 226.831543,90.2299805 C226.755371,90.7420273 226.717285,91.2011698 226.717285,91.6074219 C226.717285,92.1067733 226.763834,92.4918606 226.856934,92.7626953 C226.950033,93.03353 227.062174,93.2345371 227.193359,93.3657227 C227.324545,93.4969082 227.466308,93.5751952 227.618652,93.6005859 C227.770997,93.6259767 227.906412,93.6386719 228.024902,93.6386719 C228.202638,93.6386719 228.393065,93.5942387 228.596191,93.5053711 C228.799317,93.4165035 229.000325,93.2874357 229.199219,93.1181641 C229.398113,92.9488924 229.577961,92.737306 229.73877,92.4833984 C229.899578,92.2294909 230.022298,91.9375017 230.106934,91.6074219 L231.427246,85.4501953 Z M228.875488,97.4091797 C228.536945,97.5361334 228.215334,97.6736646 227.910645,97.8217773 C227.605956,97.9698901 227.337241,98.1328116 227.104492,98.3105469 C226.871744,98.4882821 226.685548,98.6850575 226.545898,98.9008789 C226.406249,99.1167003 226.336426,99.355793 226.336426,99.6181641 C226.336426,99.7112635 226.353353,99.8085932 226.387207,99.9101562 C226.421061,100.011719 226.473958,100.104817 226.545898,100.189453 C226.617839,100.274089 226.708821,100.341797 226.818848,100.392578 C226.928874,100.44336 227.060058,100.46875 227.212402,100.46875 C227.483237,100.46875 227.760415,100.280438 228.043945,99.9038086 C228.327475,99.5271791 228.553873,98.9453164 228.723145,98.1582031 L228.875488,97.4091797 Z M244.427246,91.3408203 C244.181802,92.0432978 243.908856,92.6526667 243.608398,93.1689453 C243.307941,93.6852239 242.994793,94.121092 242.668945,94.4765625 C242.343097,94.832033 242.008791,95.1197906 241.666016,95.3398438 C241.32324,95.5598969 240.99105,95.7291661 240.669434,95.8476562 C240.347817,95.9661464 240.041017,96.0465493 239.749023,96.0888672 C239.45703,96.1311851 239.196778,96.1523438 238.968262,96.1523438 C238.578937,96.1523438 238.215008,96.0930996 237.876465,95.9746094 C237.537921,95.8561192 237.243816,95.6699231 236.994141,95.4160156 C236.744465,95.1621081 236.54769,94.8404967 236.403809,94.4511719 C236.259928,94.061847 236.187988,93.5921251 236.187988,93.0419922 C236.187988,92.8050118 236.204915,92.5447605 236.23877,92.2612305 C236.272624,91.9777004 236.323405,91.6709001 236.391113,91.3408203 L237.952637,84.0410156 L237.089355,84.0410156 L237.305176,83 L238.155762,83 L238.942871,79.4072266 L242.789551,78.8867188 L241.900879,83 L243.462402,83 L243.259277,84.0410156 L241.697754,84.0410156 L240.034668,91.8359375 C239.99235,91.9798184 239.964844,92.1215813 239.952148,92.2612305 C239.939453,92.4008796 239.933105,92.5384108 239.933105,92.6738281 C239.933105,93.0377622 240.01774,93.2895501 240.187012,93.4291992 C240.356283,93.5688484 240.622882,93.6386719 240.986816,93.6386719 C241.240724,93.6386719 241.48828,93.5815435 241.729492,93.4672852 C241.970704,93.3530268 242.19287,93.194337 242.395996,92.9912109 C242.599122,92.7880849 242.781086,92.5447605 242.941895,92.2612305 C243.102703,91.9777004 243.233886,91.6709001 243.335449,91.3408203 L244.427246,91.3408203 Z M254.35498,91.3408203 C253.677894,92.1279336 252.998701,92.777504 252.317383,93.2895508 C251.636064,93.8015976 250.990726,94.2353498 250.381348,94.5908203 C250.110513,94.8785822 249.807944,95.1219066 249.473633,95.3208008 C249.139321,95.519695 248.79232,95.6805007 248.432617,95.8032227 C248.072915,95.9259446 247.708986,96.0148109 247.34082,96.0698242 C246.972654,96.1248375 246.623537,96.1523438 246.293457,96.1523438 C245.641761,96.1523438 245.076825,96.0528981 244.598633,95.8540039 C244.12044,95.6551097 243.724774,95.3969742 243.411621,95.0795898 C243.098468,94.7622054 242.867839,94.4067402 242.719727,94.0131836 C242.571614,93.6196269 242.497559,93.2239603 242.497559,92.8261719 C242.497559,92.5214829 242.53776,92.2400729 242.618164,91.9819336 C242.698568,91.7237943 242.802245,91.4931651 242.929199,91.2900391 C243.056153,91.086913 243.202148,90.9112963 243.367188,90.7631836 C243.532227,90.6150709 243.703612,90.4986983 243.881348,90.4140625 C244.609216,89.1106706 245.222817,87.8221092 245.722168,86.5483398 C246.221519,85.2745705 246.674314,83.9944726 247.080566,82.7080078 L250.927246,82.2001953 C250.978028,83.325852 251.026692,84.3012654 251.073242,85.1264648 C251.119792,85.9516643 251.164225,86.6668264 251.206543,87.2719727 C251.248861,87.8771189 251.286946,88.3912739 251.320801,88.8144531 C251.354655,89.2376323 251.386393,89.6121403 251.416016,89.9379883 C251.445638,90.2638363 251.466797,90.5600573 251.479492,90.8266602 C251.492188,91.0932631 251.498535,91.3704413 251.498535,91.6582031 C251.498535,91.8528656 251.492188,92.0305982 251.479492,92.1914062 C251.466797,92.3522143 251.439291,92.5045566 251.396973,92.6484375 C251.777834,92.4283843 252.12272,92.2104503 252.431641,91.9946289 C252.740561,91.7788075 253.01774,91.5608735 253.263184,91.3408203 L254.35498,91.3408203 Z M243.881348,92.2802734 C243.881348,92.8896515 244.001952,93.3445623 244.243164,93.6450195 C244.484376,93.9454768 244.892738,94.0957031 245.468262,94.0957031 C245.756024,94.0957031 246.035318,94.0555017 246.306152,93.9750977 C246.576987,93.8946936 246.818196,93.7592783 247.029785,93.5688477 C247.241375,93.378417 247.410644,93.1308609 247.537598,92.8261719 C247.664551,92.5214829 247.728027,92.1406273 247.728027,91.6835938 C247.728027,91.4635406 247.72168,91.2498383 247.708984,91.0424805 C247.696289,90.8351227 247.681478,90.6150728 247.664551,90.3823242 C247.647624,90.1495757 247.624349,89.8893244 247.594727,89.6015625 C247.565104,89.3138006 247.53125,88.9794941 247.493164,88.5986328 C247.455078,88.2177715 247.414877,87.7776718 247.372559,87.2783203 C247.330241,86.7789689 247.283692,86.1949903 247.23291,85.5263672 C246.970539,86.3727256 246.661623,87.1936809 246.306152,87.9892578 C245.950682,88.7848347 245.557131,89.6015583 245.125488,90.4394531 C245.29476,90.5325525 245.436523,90.6510409 245.550781,90.7949219 C245.66504,90.9388028 245.722168,91.1207671 245.722168,91.3408203 C245.722168,91.5016284 245.696778,91.6582024 245.645996,91.8105469 C245.595215,91.9628914 245.519043,92.1004226 245.41748,92.2231445 C245.315917,92.3458665 245.195313,92.4431963 245.055664,92.5151367 C244.916015,92.5870772 244.757325,92.6230469 244.57959,92.6230469 C244.435709,92.6230469 244.300294,92.6018882 244.17334,92.5595703 C244.046386,92.5172524 243.949056,92.4241544 243.881348,92.2802734 Z M264.130371,91.3408203 C263.766437,91.9501984 263.349612,92.5426404 262.879883,93.1181641 C262.410154,93.6936878 261.881188,94.2057269 261.292969,94.6542969 C260.70475,95.1028668 260.053063,95.4646796 259.337891,95.7397461 C258.622718,96.0148126 257.837732,96.1523438 256.98291,96.1523438 C256.365069,96.1523438 255.80648,96.0740568 255.307129,95.9174805 C254.807777,95.7609042 254.380373,95.5175798 254.024902,95.1875 C253.669432,94.8574202 253.396485,94.4321315 253.206055,93.9116211 C253.015624,93.3911107 252.92041,92.762699 252.92041,92.0263672 C252.92041,91.5270157 252.971191,90.9515007 253.072754,90.2998047 C253.174317,89.6481087 253.335123,88.9794956 253.555176,88.2939453 C253.775229,87.608395 254.067218,86.9355502 254.431152,86.2753906 C254.795086,85.6152311 255.235186,85.0249049 255.751465,84.5043945 C256.267743,83.9838841 256.872881,83.564943 257.566895,83.2475586 C258.260908,82.9301742 259.052242,82.7714844 259.940918,82.7714844 C260.524905,82.7714844 261.000975,82.8413079 261.369141,82.980957 C261.737307,83.1206062 262.029296,83.3046864 262.245117,83.5332031 C262.460939,83.7617199 262.609049,84.0262029 262.689453,84.3266602 C262.769857,84.6271174 262.810059,84.9381494 262.810059,85.2597656 C262.810059,86.0130246 262.645021,86.7133757 262.314941,87.3608398 C261.984862,88.008304 261.542646,88.5732398 260.988281,89.0556641 C260.433916,89.5380883 259.797041,89.9274074 259.077637,90.2236328 C258.358232,90.5198583 257.609216,90.6933591 256.830566,90.7441406 C256.813639,90.9388031 256.798828,91.1228832 256.786133,91.2963867 C256.773437,91.4698902 256.76709,91.6328117 256.76709,91.7851562 C256.76709,92.2252626 256.807291,92.5870754 256.887695,92.8706055 C256.968099,93.1541355 257.086588,93.3763013 257.243164,93.5371094 C257.39974,93.6979175 257.5944,93.8100583 257.827148,93.8735352 C258.059897,93.937012 258.332843,93.96875 258.645996,93.96875 C259.162275,93.96875 259.629881,93.9010423 260.048828,93.765625 C260.467776,93.6302077 260.85921,93.4440116 261.223145,93.2070312 C261.587079,92.9700509 261.931965,92.6907568 262.257812,92.3691406 C262.58366,92.0475244 262.911619,91.7047544 263.241699,91.3408203 L264.130371,91.3408203 Z M257.033691,89.5 C257.524579,89.4661457 257.998533,89.3264986 258.455566,89.0810547 C258.9126,88.8356108 259.314614,88.5161152 259.661621,88.1225586 C260.008628,87.7290019 260.285806,87.2804387 260.493164,86.7768555 C260.700522,86.2732722 260.804199,85.7506537 260.804199,85.2089844 C260.804199,84.8873682 260.75765,84.6292327 260.664551,84.4345703 C260.571451,84.2399079 260.402182,84.1425781 260.156738,84.1425781 C259.826659,84.1425781 259.502931,84.3012679 259.185547,84.6186523 C258.868162,84.9360367 258.569826,85.3486303 258.290527,85.8564453 C258.011229,86.3642604 257.763673,86.9376596 257.547852,87.5766602 C257.33203,88.2156607 257.160645,88.8567676 257.033691,89.5 Z M262.251465,96 L265.006348,83 L268.751465,83 L268.472168,84.3457031 C268.751466,84.0325505 269.028644,83.7807627 269.303711,83.590332 C269.578777,83.3999014 269.847492,83.2539068 270.109863,83.1523438 C270.372234,83.0507807 270.619791,82.9830731 270.852539,82.9492188 C271.085288,82.9153644 271.303222,82.8984375 271.506348,82.8984375 C271.921063,82.8984375 272.306151,82.95345 272.661621,83.0634766 C273.017092,83.1735032 273.323892,83.347004 273.582031,83.5839844 C273.840171,83.8209647 274.041178,84.1256492 274.185059,84.4980469 C274.32894,84.8704446 274.400879,85.3147761 274.400879,85.8310547 C274.400879,86.1780616 274.369141,86.5525696 274.305664,86.9545898 C274.242187,87.3566101 274.1639,87.7670877 274.070801,88.1860352 C273.977701,88.6049826 273.878256,89.0218078 273.772461,89.4365234 C273.666666,89.8512391 273.567221,90.2490215 273.474121,90.6298828 C273.381022,91.0107441 273.302735,91.3640934 273.239258,91.6899414 C273.175781,92.0157894 273.144043,92.3014311 273.144043,92.546875 C273.144043,92.8684912 273.218098,93.1308584 273.366211,93.3339844 C273.514324,93.5371104 273.78727,93.6386719 274.185059,93.6386719 C274.616701,93.6386719 274.904459,93.5836594 275.04834,93.4736328 C274.989095,93.9475935 274.870606,94.3517236 274.692871,94.6860352 C274.515136,95.0203467 274.299318,95.2975249 274.04541,95.5175781 C273.791503,95.7376313 273.503745,95.898437 273.182129,96 C272.860513,96.101563 272.530438,96.1523438 272.191895,96.1523438 C271.692543,96.1523438 271.273602,96.069825 270.935059,95.9047852 C270.596515,95.7397453 270.325685,95.5196954 270.122559,95.2446289 C269.919433,94.9695624 269.775554,94.6564145 269.690918,94.3051758 C269.606282,93.953937 269.563965,93.5921243 269.563965,93.2197266 C269.563965,92.7796202 269.625325,92.2654652 269.748047,91.6772461 C269.870769,91.089027 270.004068,90.4860057 270.147949,89.8681641 C270.29183,89.2503224 270.42513,88.6536487 270.547852,88.078125 C270.670574,87.5026013 270.731934,87.0074891 270.731934,86.5927734 C270.731934,85.7040971 270.418786,85.2597656 269.79248,85.2597656 C269.5555,85.2597656 269.33545,85.3232416 269.132324,85.4501953 C268.929198,85.5771491 268.743002,85.7485341 268.57373,85.9643555 C268.404459,86.1801769 268.252117,86.4340806 268.116699,86.7260742 C267.981282,87.0180679 267.862793,87.3290999 267.76123,87.6591797 L265.996582,96 L262.251465,96 Z" id="path-3"></path>
        <filter x="-50%" y="-50%" width="200%" height="200%" filterUnits="objectBoundingBox" id="filter-4">
            <feOffset dx="0" dy="2" in="SourceAlpha" result="shadowOffsetOuter1"></feOffset>
            <feGaussianBlur stdDeviation="0.5" in="shadowOffsetOuter1" result="shadowBlurOuter1"></feGaussianBlur>
            <feColorMatrix values="0 0 0 0 0   0 0 0 0 0   0 0 0 0 0  0 0 0 0.5 0" type="matrix" in="shadowBlurOuter1" result="shadowMatrixOuter1"></feColorMatrix>
            <feOffset dx="0" dy="2" in="SourceAlpha" result="shadowOffsetOuter2"></feOffset>
            <feGaussianBlur stdDeviation="0.5" in="shadowOffsetOuter2" result="shadowBlurOuter2"></feGaussianBlur>
            <feColorMatrix values="0 0 0 0 0   0 0 0 0 0   0 0 0 0 0  0 0 0 0.5 0" type="matrix" in="shadowBlurOuter2" result="shadowMatrixOuter2"></feColorMatrix>
            <feMerge>
                <feMergeNode in="shadowMatrixOuter1"></feMergeNode>
                <feMergeNode in="shadowMatrixOuter2"></feMergeNode>
            </feMerge>
        </filter>
    </defs>
    <g id="Page-1" stroke="none" stroke-width="1" fill="none" fill-rule="evenodd">
        <g id="PINK" transform="translate(-168.000000, -15282.000000)">
            <g id="11_robin" transform="translate(168.000000, 15281.000000)">
                <g id="VISUAL-SUGAR-DADDY">
                    <use fill="black" fill-opacity="1" filter="url(#filter-2)" xlink:href="#path-1"></use>
                    <use fill="#FFF6EB" fill-rule="evenodd" xlink:href="#path-1"></use>
                </g>
                <g id="Robin-Ingebrigtsen">
                    <use fill="black" fill-opacity="1" filter="url(#filter-4)" xlink:href="#path-3"></use>
                    <use fill="#FFF6EB" fill-rule="evenodd" xlink:href="#path-3"></use>
                </g>
                <path d="M0.5,1.5 L345.744841,1.5" id="Line" stroke="#FFF6EB" stroke-linecap="square" stroke-dasharray="8,9"></path>
                <path d="M0.5,124.5 L345.744841,124.5" id="Line-Copy-16" stroke="#FFF6EB" stroke-linecap="square" stroke-dasharray="8,9"></path>
            </g>
        </g>
    </g>
</svg>