<?xml version="1.0" encoding="UTF-8"?>
<svg width="300px" height="23px" viewBox="0 0 300 23" version="1.1" xmlns="http://www.w3.org/2000/svg" xmlns:xlink="http://www.w3.org/1999/xlink">
    <!-- Generator: Sketch 42 (36781) - http://www.bohemiancoding.com/sketch -->
    <title>Diabetesforbundet</title>
    <desc>Created with Sketch.</desc>
    <defs></defs>
    <g id="Page-1" stroke="none" stroke-width="1" fill="none" fill-rule="evenodd">
        <g id="Artboard" transform="translate(-7607.000000, -16133.000000)">
            <g id="10_kilder-copy" transform="translate(7119.000000, 15829.000000)">
                <g id="Diabetesforbundet" transform="translate(488.000000, 299.000000)">
                    <rect id="Rectangle-path" x="0.3" y="0.5" width="299.2" height="26.5"></rect>
                    <g id="Shadow" transform="translate(0.000000, 5.000000)" fill-rule="nonzero" fill="#3A5D81">
                        <path d="M7.7,1 C14.1,1 18.3,5.1 18.3,11.3 C18.3,17.5 14.1,21.6 7.7,21.6 L0.7,21.6 C0.5,21.6 0.3,21.4 0.3,21.1 L0.3,1.3 C0.3,1.1 0.5,0.8 0.7,0.8 L7.7,0.8 L7.7,1 Z M8,16.3 C10.3,16.3 11.9,14.3 11.9,11.4 C11.9,8.5 10.3,6.4 8,6.4 L6.4,6.4 L6.4,16.3 L8,16.3 Z" id="Shape"></path>
                        <path d="M25.7,1 C26,1 26.2,1.2 26.2,1.5 L26.2,21.3 C26.2,21.5 26,21.7 25.7,21.7 L20.4,21.7 C20.2,21.7 20,21.5 20,21.3 L20,1.5 C20,1.3 20.2,1 20.4,1 L25.7,1 Z" id="Shape"></path>
                        <path d="M47.8,21.3 C47.9,21.5 47.8,21.7 47.5,21.7 L41.6,21.7 C41.3,21.7 41.1,21.5 41,21.3 L40.1,18.2 L34.5,18.2 L33.6,21.3 C33.5,21.5 33.2,21.7 33,21.7 L27,21.7 C26.8,21.7 26.6,21.5 26.7,21.3 L33.5,1.4 C33.6,1.2 33.9,1 34.2,1 L40.3,1 C40.6,1 40.9,1.2 41,1.4 L47.8,21.3 Z M37.3,8.1 L35.7,13.8 L38.9,13.8 L37.3,8.1 Z" id="Shape"></path>
                        <path d="M57.9,1 C61.8,1 64.4,3.3 64.4,6.8 C64.4,9 63.4,10.6 61.7,11 C63.6,11.5 64.8,13.3 64.8,15.8 C64.8,19.3 62.2,21.6 58.3,21.6 L48.8,21.6 C48.6,21.6 48.4,21.4 48.4,21.2 L48.4,1.4 C48.4,1.2 48.6,0.9 48.8,0.9 L57.9,0.9 L57.9,1 Z M56.5,9.1 C57.4,9.1 58,8.6 58,7.7 C58,6.9 57.4,6.3 56.5,6.3 L54.6,6.3 L54.6,9.1 L56.5,9.1 L56.5,9.1 Z M57,16.3 C57.9,16.3 58.5,15.7 58.5,14.9 C58.5,14 57.9,13.5 57,13.5 L54.6,13.5 L54.6,16.4 L57,16.4 L57,16.3 Z" id="Shape"></path>
                        <path d="M81,16.3 C81.2,16.3 81.5,16.5 81.5,16.7 L81.5,21.3 C81.5,21.5 81.3,21.7 81,21.7 L67,21.7 C66.8,21.7 66.6,21.5 66.5,21.2 L66.5,1.4 C66.5,1.1 66.6,1 66.9,1 L80.5,1 C80.8,1 81,1.2 81,1.4 L81,5.9 C81,6.2 80.8,6.4 80.5,6.4 L72.7,6.4 L72.7,8.8 L79.1,8.8 C79.4,8.8 79.5,9 79.5,9.2 L79.1,13.4 C79.1,13.6 78.9,13.8 78.6,13.8 L72.8,13.8 L72.8,16.3 L81,16.3 L81,16.3 Z" id="Shape"></path>
                        <path d="M98.6,1 C98.9,1 99,1.2 99,1.4 L98.5,6 C98.5,6.2 98.2,6.4 98,6.4 L93.5,6.4 L93.5,21.3 C93.5,21.5 93.3,21.7 93.1,21.7 L87.8,21.7 C87.6,21.7 87.3,21.5 87.3,21.3 L87.3,6.4 L82.3,6.4 C82.1,6.4 81.9,6.2 81.9,6 L81.9,1.5 C81.9,1.3 82.1,1 82.3,1 L98.6,1 Z" id="Shape"></path>
                        <path d="M114.4,16.3 C114.6,16.3 114.9,16.5 114.9,16.7 L114.9,21.3 C114.9,21.5 114.7,21.7 114.4,21.7 L100.5,21.7 C100.3,21.7 100.1,21.5 100,21.2 L100,1.4 C100,1.1 100.1,1 100.4,1 L114,1 C114.3,1 114.5,1.2 114.5,1.4 L114.5,5.9 C114.5,6.2 114.3,6.4 114,6.4 L106.2,6.4 L106.2,8.8 L112.6,8.8 C112.9,8.8 113,9 113,9.2 L112.6,13.4 C112.6,13.6 112.4,13.8 112.1,13.8 L106.3,13.8 L106.3,16.3 L114.4,16.3 L114.4,16.3 Z" id="Shape"></path>
                        <path d="M118.2,15.4 C118.3,15.1 118.5,15 118.7,15.2 C120.1,16 121.7,16.5 122.9,16.6 C123.9,16.6 124.5,16.1 124.5,15.5 C124.5,13.7 116.1,13.8 116.1,7.3 C116.1,3.3 119.1,0.6 123.7,0.6 C125.8,0.6 128.5,1.5 130.4,2.8 C130.6,2.9 130.7,3.2 130.6,3.3 L128.7,7.5 C128.6,7.8 128.4,7.9 128.2,7.7 C126.7,6.9 125,6.2 124,6.1 C123.1,6.1 122.5,6.5 122.5,7.2 C122.5,9 131,8.9 131,15.4 C131,19.4 127.9,22.1 123.3,22.1 C120.8,22.1 118.1,21.3 116.6,20.1 C116.4,19.9 116.3,19.7 116.4,19.6 L118.2,15.4 Z" id="Shape"></path>
                        <path d="M146.4,1 C146.7,1 146.9,1.2 146.9,1.4 L146.9,5.9 C146.9,6.2 146.7,6.4 146.4,6.4 L138.8,6.4 L138.8,9.1 L144.8,9.1 C145.1,9.1 145.2,9.3 145.2,9.5 L144.8,13.7 C144.8,13.9 144.6,14.1 144.3,14.1 L138.8,14.1 L138.8,21.3 C138.8,21.5 138.6,21.7 138.3,21.7 L133,21.7 C132.8,21.7 132.6,21.5 132.6,21.2 L132.6,1.4 C132.6,1.2 132.8,1 133,1 L146.4,1 L146.4,1 Z" id="Shape"></path>
                        <path d="M158.5,22.1 C152.1,22.1 147.8,17.8 147.8,11.3 C147.8,4.8 152.1,0.5 158.5,0.5 C164.9,0.5 169.1,4.8 169.1,11.3 C169.1,17.8 164.9,22.1 158.5,22.1 Z M158.5,6.5 C156,6.5 154.4,8.4 154.4,11.3 C154.4,14.1 156.1,16.1 158.5,16.1 C160.9,16.1 162.6,14.2 162.6,11.3 C162.6,8.5 160.9,6.5 158.5,6.5 Z" id="Shape"></path>
                        <path d="M188.1,21.2 C188.3,21.5 188,21.7 187.8,21.7 L181.4,21.7 C181.1,21.7 180.8,21.5 180.7,21.2 L177.6,14.7 L177.2,14.7 L177.2,21.3 C177.2,21.5 177,21.7 176.7,21.7 L171.4,21.7 C171.2,21.7 171,21.5 171,21.3 L171,1.5 C171,1.3 171.2,1 171.4,1 L179.3,1 C183.9,1 187,3.7 187,7.8 C187,10.2 185.6,12.6 183.3,13.5 L188.1,21.2 Z M179,9.5 C180,9.5 180.7,8.9 180.7,7.9 C180.7,6.9 180,6.3 179,6.3 L177.2,6.3 L177.2,9.5 L179,9.5 L179,9.5 Z" id="Shape"></path>
                        <path d="M198.7,1 C202.6,1 205.2,3.3 205.2,6.8 C205.2,9 204.2,10.6 202.5,11 C204.4,11.5 205.6,13.3 205.6,15.8 C205.6,19.3 203,21.6 199.1,21.6 L189.6,21.6 C189.4,21.6 189.2,21.4 189.2,21.2 L189.2,1.4 C189.2,1.2 189.4,0.9 189.6,0.9 L198.7,0.9 L198.7,1 Z M197.3,9.1 C198.2,9.1 198.8,8.6 198.8,7.7 C198.8,6.9 198.2,6.3 197.3,6.3 L195.4,6.3 L195.4,9.1 L197.3,9.1 L197.3,9.1 Z M197.9,16.3 C198.8,16.3 199.4,15.7 199.4,14.9 C199.4,14 198.8,13.5 197.9,13.5 L195.5,13.5 L195.5,16.4 L197.9,16.4 L197.9,16.3 Z" id="Shape"></path>
                        <path d="M223.3,1 C223.6,1 223.8,1.2 223.8,1.5 L223.8,14 C223.8,19.3 221,22.1 215.5,22.1 C210.1,22.1 207.3,19.3 207.2,14 L207.2,1.5 C207.2,1.2 207.4,1 207.7,1 L212.9,1 C213.2,1 213.4,1.2 213.4,1.5 L213.4,14.5 C213.4,15.9 214.2,16.7 215.5,16.7 C216.8,16.7 217.6,15.9 217.6,14.5 L217.6,1.4 C217.6,1.1 217.8,0.9 218.1,0.9 L223.3,0.9 L223.3,1 Z" id="Shape"></path>
                        <path d="M243,1 C243.3,1 243.5,1.2 243.5,1.5 L243.5,21.3 C243.5,21.5 243.3,21.7 243,21.7 L237.8,21.7 C237.6,21.7 237.3,21.5 237.2,21.3 L232,12 L232,21.3 C232,21.5 231.8,21.7 231.5,21.7 L226.2,21.7 C226,21.7 225.8,21.5 225.8,21.3 L225.8,1.5 C225.8,1.3 226,1 226.2,1 L231.4,1 C231.7,1 232,1.1 232.1,1.4 L237.3,10.7 L237.3,1.4 C237.3,1.2 237.5,0.9 237.7,0.9 L243,0.9 L243,1 Z" id="Shape"></path>
                        <path d="M253,1 C259.4,1 263.6,5.1 263.6,11.3 C263.6,17.5 259.4,21.6 253,21.6 L246,21.6 C245.8,21.6 245.6,21.4 245.6,21.1 L245.6,1.3 C245.6,1.1 245.8,0.8 246,0.8 L253,0.8 L253,1 Z M253.4,16.3 C255.7,16.3 257.3,14.3 257.3,11.4 C257.3,8.5 255.7,6.4 253.4,6.4 L251.8,6.4 L251.8,16.3 L253.4,16.3 Z" id="Shape"></path>
                        <path d="M279.6,16.3 C279.8,16.3 280.1,16.5 280.1,16.7 L280.1,21.3 C280.1,21.5 279.9,21.7 279.6,21.7 L265.7,21.7 C265.5,21.7 265.3,21.5 265.2,21.2 L265.2,1.4 C265.2,1.1 265.4,1 265.6,1 L279.2,1 C279.5,1 279.7,1.2 279.7,1.4 L279.7,5.9 C279.7,6.2 279.5,6.4 279.2,6.4 L271.4,6.4 L271.4,8.8 L277.8,8.8 C278.1,8.8 278.2,9 278.2,9.2 L277.8,13.4 C277.8,13.6 277.6,13.8 277.3,13.8 L271.5,13.8 L271.5,16.3 L279.6,16.3 L279.6,16.3 Z" id="Shape"></path>
                        <path d="M297.3,1 C297.6,1 297.8,1.2 297.7,1.4 L297.2,6 C297.2,6.2 296.9,6.4 296.7,6.4 L292.2,6.4 L292.2,21.3 C292.2,21.5 292,21.7 291.8,21.7 L286.5,21.7 C286.3,21.7 286,21.5 286,21.3 L286,6.4 L281,6.4 C280.8,6.4 280.6,6.2 280.6,6 L280.6,1.5 C280.6,1.3 280.8,1 281,1 L297.3,1 Z" id="Shape"></path>
                    </g>
                    <g id="Group" transform="translate(2.000000, 5.000000)" fill-rule="nonzero" fill="#FFF6EB">
                        <path d="M7.5,1 C13.9,1 18.1,5.1 18.1,11.3 C18.1,17.5 13.9,21.6 7.5,21.6 L0.5,21.6 C0.3,21.6 0.1,21.4 0.1,21.1 L0.1,1.3 C0.1,1.1 0.3,0.8 0.5,0.8 L7.5,0.8 L7.5,1 Z M7.8,16.3 C10.1,16.3 11.7,14.3 11.7,11.4 C11.7,8.5 10.1,6.4 7.8,6.4 L6.2,6.4 L6.2,16.3 L7.8,16.3 Z" id="Shape"></path>
                        <path d="M25.5,1 C25.8,1 26,1.2 26,1.5 L26,21.3 C26,21.5 25.8,21.7 25.5,21.7 L20.2,21.7 C20,21.7 19.8,21.5 19.8,21.3 L19.8,1.5 C19.8,1.3 20,1 20.2,1 L25.5,1 Z" id="Shape"></path>
                        <path d="M47.7,21.3 C47.8,21.5 47.7,21.7 47.4,21.7 L41.5,21.7 C41.2,21.7 41,21.5 40.9,21.3 L40,18.2 L34.4,18.2 L33.5,21.3 C33.4,21.5 33.1,21.7 32.9,21.7 L27,21.7 C26.8,21.7 26.6,21.5 26.7,21.3 L33.5,1.4 C33.6,1.2 33.9,1 34.2,1 L40.3,1 C40.6,1 40.9,1.2 41,1.4 L47.7,21.3 Z M37.1,8.1 L35.5,13.8 L38.7,13.8 L37.1,8.1 Z" id="Shape"></path>
                        <path d="M57.7,1 C61.6,1 64.2,3.3 64.2,6.8 C64.2,9 63.2,10.6 61.5,11 C63.4,11.5 64.6,13.3 64.6,15.8 C64.6,19.3 62,21.6 58.1,21.6 L48.6,21.6 C48.4,21.6 48.2,21.4 48.2,21.2 L48.2,1.4 C48.2,1.2 48.4,0.9 48.6,0.9 L57.7,0.9 L57.7,1 Z M56.3,9.1 C57.2,9.1 57.8,8.6 57.8,7.7 C57.8,6.9 57.2,6.3 56.3,6.3 L54.4,6.3 L54.4,9.1 L56.3,9.1 L56.3,9.1 Z M56.9,16.3 C57.8,16.3 58.4,15.7 58.4,14.9 C58.4,14 57.8,13.5 56.9,13.5 L54.5,13.5 L54.5,16.4 L56.9,16.4 L56.9,16.3 Z" id="Shape"></path>
                        <path d="M80.8,16.3 C81,16.3 81.3,16.5 81.3,16.7 L81.3,21.3 C81.3,21.5 81.1,21.7 80.8,21.7 L66.9,21.7 C66.7,21.7 66.5,21.5 66.4,21.2 L66.4,1.4 C66.4,1.1 66.5,1 66.8,1 L80.4,1 C80.7,1 80.9,1.2 80.9,1.4 L80.9,5.9 C80.9,6.2 80.7,6.4 80.4,6.4 L72.6,6.4 L72.6,8.8 L79,8.8 C79.3,8.8 79.4,9 79.4,9.2 L79,13.4 C79,13.6 78.8,13.8 78.5,13.8 L72.7,13.8 L72.7,16.3 L80.8,16.3 L80.8,16.3 Z" id="Shape"></path>
                        <path d="M98.4,1 C98.7,1 98.8,1.2 98.8,1.4 L98.3,6 C98.3,6.2 98,6.4 97.8,6.4 L93.3,6.4 L93.3,21.3 C93.3,21.5 93.1,21.7 92.9,21.7 L87.6,21.7 C87.4,21.7 87.1,21.5 87.1,21.3 L87.1,6.4 L82.1,6.4 C81.9,6.4 81.7,6.2 81.7,6 L81.7,1.5 C81.7,1.3 81.9,1 82.1,1 L98.4,1 Z" id="Shape"></path>
                        <path d="M114.3,16.3 C114.5,16.3 114.8,16.5 114.8,16.7 L114.8,21.3 C114.8,21.5 114.6,21.7 114.3,21.7 L100.4,21.7 C100.2,21.7 100,21.5 99.9,21.2 L99.9,1.4 C99.9,1.1 100,1 100.3,1 L113.9,1 C114.2,1 114.4,1.2 114.4,1.4 L114.4,5.9 C114.4,6.2 114.2,6.4 113.9,6.4 L106.1,6.4 L106.1,8.8 L112.5,8.8 C112.8,8.8 112.9,9 112.9,9.2 L112.5,13.4 C112.5,13.6 112.3,13.8 112,13.8 L106.2,13.8 L106.2,16.3 L114.3,16.3 L114.3,16.3 Z" id="Shape"></path>
                        <path d="M118,15.4 C118.1,15.1 118.3,15 118.5,15.2 C119.9,16 121.5,16.5 122.7,16.6 C123.7,16.6 124.3,16.1 124.3,15.5 C124.3,13.7 115.9,13.8 115.9,7.3 C115.9,3.3 118.9,0.6 123.5,0.6 C125.6,0.6 128.3,1.5 130.2,2.8 C130.4,2.9 130.5,3.2 130.4,3.3 L128.5,7.5 C128.4,7.8 128.2,7.9 128,7.7 C126.5,6.9 124.8,6.2 123.8,6.1 C122.9,6.1 122.3,6.5 122.3,7.2 C122.3,9 130.8,8.9 130.8,15.4 C130.8,19.4 127.7,22.1 123.1,22.1 C120.6,22.1 117.9,21.3 116.4,20.1 C116.2,19.9 116.1,19.7 116.2,19.6 L118,15.4 Z" id="Shape"></path>
                        <path d="M146.2,1 C146.5,1 146.7,1.2 146.7,1.4 L146.7,5.9 C146.7,6.2 146.5,6.4 146.2,6.4 L138.6,6.4 L138.6,9.1 L144.6,9.1 C144.9,9.1 145,9.3 145,9.5 L144.6,13.7 C144.6,13.9 144.4,14.1 144.1,14.1 L138.6,14.1 L138.6,21.3 C138.6,21.5 138.4,21.7 138.1,21.7 L132.8,21.7 C132.6,21.7 132.4,21.5 132.4,21.2 L132.4,1.4 C132.4,1.2 132.6,1 132.8,1 L146.2,1 L146.2,1 Z" id="Shape"></path>
                        <path d="M158.3,22.1 C151.9,22.1 147.6,17.8 147.6,11.3 C147.6,4.8 151.9,0.5 158.3,0.5 C164.7,0.5 168.9,4.8 168.9,11.3 C168.9,17.8 164.7,22.1 158.3,22.1 Z M158.3,6.5 C155.8,6.5 154.2,8.4 154.2,11.3 C154.2,14.1 155.9,16.1 158.3,16.1 C160.7,16.1 162.4,14.2 162.4,11.3 C162.4,8.5 160.8,6.5 158.3,6.5 Z" id="Shape"></path>
                        <path d="M188,21.2 C188.2,21.5 187.9,21.7 187.7,21.7 L181.3,21.7 C181,21.7 180.7,21.5 180.6,21.2 L177.5,14.7 L177,14.7 L177,21.3 C177,21.5 176.8,21.7 176.5,21.7 L171.2,21.7 C171,21.7 170.8,21.5 170.8,21.3 L170.8,1.5 C170.8,1.3 171,1 171.2,1 L179.1,1 C183.7,1 186.8,3.7 186.8,7.8 C186.8,10.2 185.4,12.6 183.1,13.5 L188,21.2 Z M178.8,9.5 C179.8,9.5 180.5,8.9 180.5,7.9 C180.5,6.9 179.8,6.3 178.8,6.3 L177,6.3 L177,9.5 L178.8,9.5 L178.8,9.5 Z" id="Shape"></path>
                        <path d="M198.6,1 C202.5,1 205.1,3.3 205.1,6.8 C205.1,9 204.1,10.6 202.4,11 C204.3,11.5 205.5,13.3 205.5,15.8 C205.5,19.3 202.9,21.6 199,21.6 L189.5,21.6 C189.3,21.6 189.1,21.4 189.1,21.2 L189.1,1.4 C189.1,1.2 189.3,0.9 189.5,0.9 L198.6,0.9 L198.6,1 Z M197.2,9.1 C198.1,9.1 198.7,8.6 198.7,7.7 C198.7,6.9 198.1,6.3 197.2,6.3 L195.3,6.3 L195.3,9.1 L197.2,9.1 L197.2,9.1 Z M197.7,16.3 C198.6,16.3 199.2,15.7 199.2,14.9 C199.2,14 198.6,13.5 197.7,13.5 L195.3,13.5 L195.3,16.4 L197.7,16.4 L197.7,16.3 Z" id="Shape"></path>
                        <path d="M223.1,1 C223.4,1 223.6,1.2 223.6,1.5 L223.6,14 C223.6,19.3 220.8,22.1 215.3,22.1 C209.9,22.1 207.1,19.3 207,14 L207,1.5 C207,1.2 207.2,1 207.5,1 L212.7,1 C213,1 213.2,1.2 213.2,1.5 L213.2,14.5 C213.2,15.9 214,16.7 215.3,16.7 C216.6,16.7 217.4,15.9 217.4,14.5 L217.4,1.4 C217.4,1.1 217.6,0.9 217.9,0.9 L223.1,0.9 L223.1,1 Z" id="Shape"></path>
                        <path d="M242.8,1 C243.1,1 243.3,1.2 243.3,1.5 L243.3,21.3 C243.3,21.5 243.1,21.7 242.8,21.7 L237.6,21.7 C237.4,21.7 237.1,21.5 237,21.3 L231.8,12 L231.8,21.3 C231.8,21.5 231.6,21.7 231.3,21.7 L226,21.7 C225.8,21.7 225.6,21.5 225.6,21.3 L225.6,1.5 C225.6,1.3 225.8,1 226,1 L231.2,1 C231.5,1 231.8,1.1 231.9,1.4 L237.1,10.7 L237.1,1.4 C237.1,1.2 237.3,0.9 237.5,0.9 L242.8,0.9 L242.8,1 Z" id="Shape"></path>
                        <path d="M252.8,1 C259.2,1 263.4,5.1 263.4,11.3 C263.4,17.5 259.2,21.6 252.8,21.6 L245.8,21.6 C245.6,21.6 245.4,21.4 245.4,21.1 L245.4,1.3 C245.4,1.1 245.6,0.8 245.8,0.8 L252.8,0.8 L252.8,1 Z M253.2,16.3 C255.5,16.3 257.1,14.3 257.1,11.4 C257.1,8.5 255.5,6.4 253.2,6.4 L251.6,6.4 L251.6,16.3 L253.2,16.3 Z" id="Shape"></path>
                        <path d="M279.5,16.3 C279.7,16.3 280,16.5 280,16.7 L280,21.3 C280,21.5 279.8,21.7 279.5,21.7 L265.6,21.7 C265.4,21.7 265.2,21.5 265.1,21.2 L265.1,1.4 C265.1,1.1 265.3,1 265.5,1 L279.1,1 C279.4,1 279.6,1.2 279.6,1.4 L279.6,5.9 C279.6,6.2 279.4,6.4 279.1,6.4 L271.3,6.4 L271.3,8.8 L277.7,8.8 C278,8.8 278.1,9 278.1,9.2 L277.7,13.4 C277.7,13.6 277.5,13.8 277.2,13.8 L271.4,13.8 L271.4,16.3 L279.5,16.3 L279.5,16.3 Z" id="Shape"></path>
                        <path d="M297.1,1 C297.4,1 297.6,1.2 297.5,1.4 L297,6 C297,6.2 296.7,6.4 296.5,6.4 L292,6.4 L292,21.3 C292,21.5 291.8,21.7 291.6,21.7 L286.3,21.7 C286.1,21.7 285.8,21.5 285.8,21.3 L285.8,6.4 L280.8,6.4 C280.6,6.4 280.4,6.2 280.4,6 L280.4,1.5 C280.4,1.3 280.6,1 280.8,1 L297.1,1 Z" id="Shape"></path>
                    </g>
                </g>
            </g>
        </g>
    </g>
</svg>