<?xml version="1.0" encoding="UTF-8"?>
<svg width="343px" height="23px" viewBox="0 0 343 23" version="1.1" xmlns="http://www.w3.org/2000/svg" xmlns:xlink="http://www.w3.org/1999/xlink">
    <!-- Generator: Sketch 42 (36781) - http://www.bohemiancoding.com/sketch -->
    <title>Folkehelseinstituttet</title>
    <desc>Created with Sketch.</desc>
    <defs></defs>
    <g id="Page-1" stroke="none" stroke-width="1" fill="none" fill-rule="evenodd">
        <g id="Artboard" transform="translate(-7564.000000, -15942.000000)">
            <g id="10_kilder-copy" transform="translate(7119.000000, 15829.000000)">
                <g id="Folkehelseinstituttet" transform="translate(445.000000, 85.000000)">
                    <rect id="Rectangle-path" x="0.2" y="0.5" width="342" height="49.7"></rect>
                    <g id="Shadow" transform="translate(0.000000, 28.000000)" fill-rule="nonzero" fill="#3A5D81">
                        <path d="M14,1.2 C14.3,1.2 14.5,1.4 14.5,1.6 L14.5,6.1 C14.5,6.4 14.3,6.6 14,6.6 L6.4,6.6 L6.4,9.3 L12.4,9.3 C12.7,9.3 12.8,9.5 12.8,9.7 L12.4,13.9 C12.4,14.1 12.2,14.3 11.9,14.3 L6.4,14.3 L6.4,21.5 C6.4,21.7 6.2,21.9 5.9,21.9 L0.6,21.9 C0.4,21.9 0.2,21.7 0.2,21.4 L0.2,1.6 C0.2,1.4 0.4,1.2 0.6,1.2 L14,1.2 L14,1.2 Z" id="Shape"></path>
                        <path d="M26,22.3 C19.6,22.3 15.3,18 15.3,11.5 C15.3,5 19.6,0.7 26,0.7 C32.4,0.7 36.6,5 36.6,11.5 C36.7,18 32.4,22.3 26,22.3 Z M26,6.7 C23.5,6.7 21.9,8.6 21.9,11.5 C21.9,14.4 23.6,16.3 26,16.3 C28.4,16.3 30.1,14.4 30.1,11.5 C30.1,8.6 28.5,6.7 26,6.7 Z" id="Shape"></path>
                        <path d="M50.4,16.5 C50.6,16.5 50.8,16.7 50.8,16.9 L50.4,21.5 C50.4,21.7 50.2,21.9 49.9,21.9 L39,21.9 C38.8,21.9 38.6,21.7 38.6,21.5 L38.6,1.7 C38.6,1.5 38.8,1.2 39,1.2 L44.3,1.2 C44.5,1.2 44.7,1.4 44.7,1.7 L44.7,16.5 L50.4,16.5 Z" id="Shape"></path>
                        <path d="M69.7,21.5 C69.9,21.7 69.7,21.9 69.5,21.9 L62.5,21.9 C62.3,21.9 62,21.8 61.9,21.5 L58.2,14 L58.2,21.4 C58.2,21.6 58,21.8 57.7,21.8 L52.4,21.8 C52.2,21.8 52,21.6 52,21.4 L52,1.6 C52,1.4 52.2,1.1 52.4,1.1 L57.7,1.1 C58,1.1 58.2,1.3 58.2,1.6 L58.2,8.3 L61.8,1.5 C61.9,1.3 62.2,1.1 62.5,1.1 L69.1,1.1 C69.3,1.1 69.4,1.2 69.3,1.5 L63.4,11 L69.7,21.5 Z" id="Shape"></path>
                        <path d="M85.2,16.5 C85.4,16.5 85.7,16.7 85.7,16.9 L85.7,21.5 C85.7,21.7 85.5,21.9 85.2,21.9 L71.3,21.9 C71.1,21.9 70.9,21.7 70.8,21.4 L70.8,1.6 C70.8,1.3 70.9,1.2 71.2,1.2 L84.8,1.2 C85.1,1.2 85.3,1.4 85.3,1.6 L85.3,6.1 C85.3,6.4 85.1,6.6 84.8,6.6 L77,6.6 L77,9 L83.4,9 C83.7,9 83.8,9.2 83.8,9.4 L83.4,13.6 C83.4,13.8 83.2,14 82.9,14 L77,14 L77,16.5 L85.2,16.5 L85.2,16.5 Z" id="Shape"></path>
                        <path d="M104.1,1.2 C104.4,1.2 104.6,1.4 104.6,1.7 L104.6,21.5 C104.6,21.7 104.4,21.9 104.1,21.9 L98.5,21.9 C98.3,21.9 98.1,21.7 98.1,21.5 L98.1,14.8 L93.9,14.8 L93.9,21.5 C93.9,21.7 93.7,21.9 93.4,21.9 L87.8,21.9 C87.6,21.9 87.4,21.7 87.4,21.5 L87.4,1.7 C87.4,1.5 87.6,1.2 87.8,1.2 L93.4,1.2 C93.7,1.2 93.9,1.4 93.9,1.7 L93.9,9.5 L98.1,9.5 L98.1,1.7 C98.1,1.5 98.3,1.2 98.5,1.2 L104.1,1.2 Z" id="Shape"></path>
                        <path d="M121.1,16.5 C121.3,16.5 121.6,16.7 121.6,16.9 L121.6,21.5 C121.6,21.7 121.4,21.9 121.1,21.9 L107.2,21.9 C107,21.9 106.8,21.7 106.7,21.4 L106.7,1.6 C106.7,1.3 106.8,1.2 107.1,1.2 L120.7,1.2 C121,1.2 121.2,1.4 121.2,1.6 L121.2,6.1 C121.2,6.4 121,6.6 120.7,6.6 L112.9,6.6 L112.9,9 L119.3,9 C119.6,9 119.7,9.2 119.7,9.4 L119.3,13.6 C119.3,13.8 119.1,14 118.8,14 L113,14 L113,16.5 L121.1,16.5 L121.1,16.5 Z" id="Shape"></path>
                        <path d="M135,16.5 C135.2,16.5 135.4,16.7 135.4,16.9 L135,21.5 C135,21.7 134.8,21.9 134.5,21.9 L123.7,21.9 C123.5,21.9 123.3,21.7 123.3,21.5 L123.3,1.7 C123.3,1.5 123.5,1.2 123.7,1.2 L129,1.2 C129.2,1.2 129.4,1.4 129.4,1.7 L129.4,16.5 L135,16.5 Z" id="Shape"></path>
                        <path d="M138.3,15.6 C138.4,15.3 138.6,15.2 138.8,15.4 C140.2,16.2 141.8,16.7 143,16.8 C144,16.8 144.6,16.3 144.6,15.7 C144.6,13.9 136.2,14 136.2,7.5 C136.2,3.5 139.2,0.8 143.8,0.8 C145.9,0.8 148.6,1.7 150.5,3 C150.7,3.1 150.8,3.4 150.7,3.5 L148.8,7.7 C148.7,8 148.5,8.1 148.3,7.9 C146.8,7.1 145.1,6.4 144.1,6.3 C143.2,6.3 142.6,6.7 142.6,7.4 C142.6,9.2 151.1,9 151.1,15.6 C151.1,19.6 148,22.3 143.4,22.3 C140.9,22.3 138.2,21.5 136.7,20.3 C136.5,20.1 136.4,19.9 136.5,19.8 L138.3,15.6 Z" id="Shape"></path>
                        <path d="M167,16.5 C167.2,16.5 167.5,16.7 167.5,16.9 L167.5,21.5 C167.5,21.7 167.3,21.9 167,21.9 L153.1,21.9 C152.9,21.9 152.7,21.7 152.6,21.4 L152.6,1.6 C152.6,1.3 152.7,1.2 153,1.2 L166.6,1.2 C166.9,1.2 167.1,1.4 167.1,1.6 L167.1,6.1 C167.1,6.4 166.9,6.6 166.6,6.6 L158.8,6.6 L158.8,9 L165.2,9 C165.5,9 165.6,9.2 165.6,9.4 L165.2,13.6 C165.2,13.8 165,14 164.7,14 L158.9,14 L158.9,16.5 L167,16.5 L167,16.5 Z" id="Shape"></path>
                        <path d="M174.9,1.2 C175.2,1.2 175.4,1.4 175.4,1.7 L175.4,21.5 C175.4,21.7 175.2,21.9 174.9,21.9 L169.6,21.9 C169.4,21.9 169.2,21.7 169.2,21.5 L169.2,1.7 C169.2,1.5 169.4,1.2 169.6,1.2 L174.9,1.2 Z" id="Shape"></path>
                        <path d="M194.7,1.2 C195,1.2 195.2,1.4 195.2,1.7 L195.2,21.5 C195.2,21.7 195,21.9 194.7,21.9 L189.5,21.9 C189.3,21.9 189,21.8 188.9,21.5 L183.7,12.2 L183.7,21.5 C183.7,21.7 183.5,21.9 183.2,21.9 L177.9,21.9 C177.7,21.9 177.5,21.7 177.5,21.5 L177.5,1.7 C177.5,1.5 177.7,1.2 177.9,1.2 L183.1,1.2 C183.4,1.2 183.7,1.3 183.8,1.6 L189,10.9 L189,1.6 C189,1.4 189.2,1.1 189.4,1.1 L194.7,1.1 L194.7,1.2 Z" id="Shape"></path>
                        <path d="M199,15.6 C199.1,15.3 199.3,15.2 199.5,15.4 C200.9,16.2 202.5,16.7 203.7,16.8 C204.7,16.8 205.3,16.3 205.3,15.7 C205.3,13.9 196.9,14 196.9,7.5 C196.9,3.5 199.9,0.8 204.5,0.8 C206.6,0.8 209.3,1.7 211.2,3 C211.4,3.1 211.5,3.4 211.4,3.5 L209.5,7.7 C209.4,8 209.2,8.1 209,7.9 C207.5,7.1 205.8,6.4 204.8,6.3 C203.9,6.3 203.3,6.7 203.3,7.4 C203.3,9.2 211.8,9 211.8,15.6 C211.8,19.6 208.7,22.3 204.1,22.3 C201.6,22.3 198.9,21.5 197.4,20.3 C197.2,20.1 197.1,19.9 197.2,19.8 L199,15.6 Z" id="Shape"></path>
                        <path d="M228.9,1.2 C229.2,1.2 229.4,1.4 229.3,1.6 L228.8,6.2 C228.8,6.4 228.5,6.6 228.3,6.6 L223.8,6.6 L223.8,21.5 C223.8,21.7 223.6,21.9 223.4,21.9 L218.1,21.9 C217.9,21.9 217.6,21.7 217.6,21.5 L217.6,6.6 L212.6,6.6 C212.4,6.6 212.2,6.4 212.2,6.2 L212.2,1.7 C212.2,1.5 212.4,1.2 212.6,1.2 L228.9,1.2 L228.9,1.2 Z" id="Shape"></path>
                        <path d="M236.1,1.2 C236.4,1.2 236.6,1.4 236.6,1.7 L236.6,21.5 C236.6,21.7 236.4,21.9 236.1,21.9 L230.8,21.9 C230.6,21.9 230.4,21.7 230.4,21.5 L230.4,1.7 C230.4,1.5 230.6,1.2 230.8,1.2 L236.1,1.2 Z" id="Shape"></path>
                        <path d="M254.2,1.2 C254.5,1.2 254.7,1.4 254.6,1.6 L254.1,6.2 C254.1,6.4 253.8,6.6 253.6,6.6 L249.1,6.6 L249.1,21.5 C249.1,21.7 248.9,21.9 248.7,21.9 L243.4,21.9 C243.2,21.9 242.9,21.7 242.9,21.5 L242.9,6.6 L237.9,6.6 C237.7,6.6 237.5,6.4 237.5,6.2 L237.5,1.7 C237.5,1.5 237.7,1.2 237.9,1.2 L254.2,1.2 L254.2,1.2 Z" id="Shape"></path>
                        <path d="M271.6,1.2 C271.9,1.2 272.1,1.4 272.1,1.7 L272.1,14.2 C272.1,19.5 269.3,22.3 263.8,22.3 C258.4,22.3 255.6,19.5 255.5,14.2 L255.5,1.7 C255.5,1.4 255.7,1.2 256,1.2 L261.2,1.2 C261.5,1.2 261.7,1.4 261.7,1.7 L261.7,14.7 C261.7,16.1 262.5,16.9 263.8,16.9 C265.1,16.9 265.9,16.1 265.9,14.7 L265.9,1.6 C265.9,1.3 266.1,1.1 266.4,1.1 L271.6,1.1 L271.6,1.2 Z" id="Shape"></path>
                        <path d="M289.5,1.2 C289.8,1.2 290,1.4 289.9,1.6 L289.4,6.2 C289.4,6.4 289.1,6.6 288.9,6.6 L284.4,6.6 L284.4,21.5 C284.4,21.7 284.2,21.9 284,21.9 L278.7,21.9 C278.5,21.9 278.2,21.7 278.2,21.5 L278.2,6.6 L273.2,6.6 C273,6.6 272.8,6.4 272.8,6.2 L272.8,1.7 C272.8,1.5 273,1.2 273.2,1.2 L289.5,1.2 L289.5,1.2 Z" id="Shape"></path>
                        <path d="M306.5,1.2 C306.8,1.2 307,1.4 306.9,1.6 L306.4,6.2 C306.4,6.4 306.1,6.6 305.9,6.6 L301.4,6.6 L301.4,21.5 C301.4,21.7 301.2,21.9 301,21.9 L295.7,21.9 C295.5,21.9 295.2,21.7 295.2,21.5 L295.2,6.6 L290.2,6.6 C290,6.6 289.8,6.4 289.8,6.2 L289.8,1.7 C289.8,1.5 290,1.2 290.2,1.2 L306.5,1.2 L306.5,1.2 Z" id="Shape"></path>
                        <path d="M322.4,16.5 C322.6,16.5 322.9,16.7 322.9,16.9 L322.9,21.5 C322.9,21.7 322.7,21.9 322.4,21.9 L308.5,21.9 C308.3,21.9 308.1,21.7 308,21.4 L308,1.6 C308,1.3 308.2,1.2 308.4,1.2 L322,1.2 C322.3,1.2 322.5,1.4 322.5,1.6 L322.5,6.1 C322.5,6.4 322.3,6.6 322,6.6 L314.2,6.6 L314.2,9 L320.6,9 C320.9,9 321,9.2 321,9.4 L320.6,13.6 C320.6,13.8 320.4,14 320.1,14 L314.3,14 L314.3,16.5 L322.4,16.5 L322.4,16.5 Z" id="Shape"></path>
                        <path d="M340,1.2 C340.3,1.2 340.5,1.4 340.4,1.6 L339.9,6.2 C339.9,6.4 339.6,6.6 339.4,6.6 L335,6.6 L335,21.5 C335,21.7 334.8,21.9 334.6,21.9 L329.3,21.9 C329.1,21.9 328.8,21.7 328.8,21.5 L328.8,6.6 L323.8,6.6 C323.6,6.6 323.4,6.4 323.4,6.2 L323.4,1.7 C323.4,1.5 323.6,1.2 323.8,1.2 L340,1.2 L340,1.2 Z" id="Shape"></path>
                    </g>
                    <g id="Group" transform="translate(2.000000, 28.000000)" fill-rule="nonzero" fill="#FFF6EB">
                        <path d="M13.8,1.2 C14.1,1.2 14.3,1.4 14.3,1.6 L14.3,6.1 C14.3,6.4 14.1,6.6 13.8,6.6 L6.2,6.6 L6.2,9.3 L12.2,9.3 C12.5,9.3 12.6,9.5 12.6,9.7 L12.2,13.9 C12.2,14.1 12,14.3 11.7,14.3 L6.2,14.3 L6.2,21.5 C6.2,21.7 6,21.9 5.7,21.9 L0.4,21.9 C0.2,21.9 0,21.7 0,21.4 L0,1.6 C0,1.4 0.2,1.2 0.4,1.2 L13.8,1.2 L13.8,1.2 Z" id="Shape"></path>
                        <path d="M25.9,22.3 C19.5,22.3 15.2,18 15.2,11.5 C15.2,5 19.5,0.7 25.9,0.7 C32.3,0.7 36.5,5 36.5,11.5 C36.5,18 32.3,22.3 25.9,22.3 Z M25.9,6.7 C23.4,6.7 21.8,8.6 21.8,11.5 C21.8,14.4 23.5,16.3 25.9,16.3 C28.3,16.3 30,14.4 30,11.5 C30,8.6 28.3,6.7 25.9,6.7 Z" id="Shape"></path>
                        <path d="M50.2,16.5 C50.4,16.5 50.6,16.7 50.6,16.9 L50.2,21.5 C50.2,21.7 50,21.9 49.7,21.9 L38.9,21.9 C38.7,21.9 38.5,21.7 38.5,21.5 L38.5,1.7 C38.5,1.5 38.7,1.2 38.9,1.2 L44.2,1.2 C44.4,1.2 44.6,1.4 44.6,1.7 L44.6,16.5 L50.2,16.5 Z" id="Shape"></path>
                        <path d="M69.5,21.5 C69.7,21.7 69.5,21.9 69.3,21.9 L62.3,21.9 C62.1,21.9 61.8,21.8 61.7,21.5 L58,14 L58,21.4 C58,21.6 57.8,21.8 57.5,21.8 L52.2,21.8 C52,21.8 51.8,21.6 51.8,21.4 L51.8,1.6 C51.8,1.4 52,1.1 52.2,1.1 L57.5,1.1 C57.8,1.1 58,1.3 58,1.6 L58,8.3 L61.6,1.5 C61.7,1.3 62,1.1 62.3,1.1 L68.9,1.1 C69.1,1.1 69.2,1.2 69.1,1.5 L63.2,11 L69.5,21.5 Z" id="Shape"></path>
                        <path d="M85.1,16.5 C85.3,16.5 85.6,16.7 85.6,16.9 L85.6,21.5 C85.6,21.7 85.4,21.9 85.1,21.9 L71.2,21.9 C71,21.9 70.8,21.7 70.7,21.4 L70.7,1.6 C70.7,1.3 70.8,1.2 71.1,1.2 L84.7,1.2 C85,1.2 85.2,1.4 85.2,1.6 L85.2,6.1 C85.2,6.4 85,6.6 84.7,6.6 L76.9,6.6 L76.9,9 L83.3,9 C83.6,9 83.7,9.2 83.7,9.4 L83.3,13.6 C83.3,13.8 83.1,14 82.8,14 L77,14 L77,16.5 L85.1,16.5 L85.1,16.5 Z" id="Shape"></path>
                        <path d="M103.9,1.2 C104.2,1.2 104.4,1.4 104.4,1.7 L104.4,21.5 C104.4,21.7 104.2,21.9 103.9,21.9 L98.3,21.9 C98.1,21.9 97.9,21.7 97.9,21.5 L97.9,14.8 L93.7,14.8 L93.7,21.5 C93.7,21.7 93.5,21.9 93.2,21.9 L87.6,21.9 C87.4,21.9 87.2,21.7 87.2,21.5 L87.2,1.7 C87.2,1.5 87.4,1.2 87.6,1.2 L93.2,1.2 C93.5,1.2 93.7,1.4 93.7,1.7 L93.7,9.5 L97.9,9.5 L97.9,1.7 C97.9,1.5 98.1,1.2 98.3,1.2 L103.9,1.2 Z" id="Shape"></path>
                        <path d="M120.9,16.5 C121.1,16.5 121.4,16.7 121.4,16.9 L121.4,21.5 C121.4,21.7 121.2,21.9 120.9,21.9 L107,21.9 C106.8,21.9 106.6,21.7 106.5,21.4 L106.5,1.6 C106.5,1.3 106.6,1.2 106.9,1.2 L120.5,1.2 C120.8,1.2 121,1.4 121,1.6 L121,6.1 C121,6.4 120.8,6.6 120.5,6.6 L112.7,6.6 L112.7,9 L119.1,9 C119.4,9 119.5,9.2 119.5,9.4 L119.1,13.6 C119.1,13.8 118.9,14 118.6,14 L112.8,14 L112.8,16.5 L120.9,16.5 L120.9,16.5 Z" id="Shape"></path>
                        <path d="M134.8,16.5 C135,16.5 135.2,16.7 135.2,16.9 L134.8,21.5 C134.8,21.7 134.6,21.9 134.3,21.9 L123.5,21.9 C123.3,21.9 123.1,21.7 123.1,21.5 L123.1,1.7 C123.1,1.5 123.3,1.2 123.5,1.2 L128.8,1.2 C129,1.2 129.2,1.4 129.2,1.7 L129.2,16.5 L134.8,16.5 Z" id="Shape"></path>
                        <path d="M138.1,15.6 C138.2,15.3 138.4,15.2 138.6,15.4 C140,16.2 141.6,16.7 142.8,16.8 C143.8,16.8 144.4,16.3 144.4,15.7 C144.4,13.9 136,14 136,7.5 C136,3.5 139,0.8 143.6,0.8 C145.7,0.8 148.4,1.7 150.3,3 C150.5,3.1 150.6,3.4 150.5,3.5 L148.6,7.7 C148.5,8 148.3,8.1 148.1,7.9 C146.6,7.1 144.9,6.4 143.9,6.3 C143,6.3 142.4,6.7 142.4,7.4 C142.4,9.2 150.9,9 150.9,15.6 C150.9,19.6 147.8,22.3 143.2,22.3 C140.7,22.3 138,21.5 136.5,20.3 C136.3,20.1 136.2,19.9 136.3,19.8 L138.1,15.6 Z" id="Shape"></path>
                        <path d="M166.9,16.5 C167.1,16.5 167.4,16.7 167.4,16.9 L167.4,21.5 C167.4,21.7 167.2,21.9 166.9,21.9 L153,21.9 C152.8,21.9 152.6,21.7 152.5,21.4 L152.5,1.6 C152.5,1.3 152.6,1.2 152.9,1.2 L166.5,1.2 C166.8,1.2 167,1.4 167,1.6 L167,6.1 C167,6.4 166.8,6.6 166.5,6.6 L158.7,6.6 L158.7,9 L165.1,9 C165.4,9 165.5,9.2 165.5,9.4 L165.1,13.6 C165.1,13.8 164.9,14 164.6,14 L158.8,14 L158.8,16.5 L166.9,16.5 L166.9,16.5 Z" id="Shape"></path>
                        <path d="M174.7,1.2 C175,1.2 175.2,1.4 175.2,1.7 L175.2,21.5 C175.2,21.7 175,21.9 174.7,21.9 L169.4,21.9 C169.2,21.9 169,21.7 169,21.5 L169,1.7 C169,1.5 169.2,1.2 169.4,1.2 L174.7,1.2 Z" id="Shape"></path>
                        <path d="M194.6,1.2 C194.9,1.2 195.1,1.4 195.1,1.7 L195.1,21.5 C195.1,21.7 194.9,21.9 194.6,21.9 L189.4,21.9 C189.2,21.9 188.9,21.8 188.8,21.5 L183.6,12.2 L183.6,21.5 C183.6,21.7 183.4,21.9 183.1,21.9 L177.8,21.9 C177.6,21.9 177.4,21.7 177.4,21.5 L177.4,1.7 C177.4,1.5 177.6,1.2 177.8,1.2 L183,1.2 C183.3,1.2 183.6,1.3 183.7,1.6 L188.9,10.9 L188.9,1.6 C188.9,1.4 189.1,1.1 189.3,1.1 L194.6,1.1 L194.6,1.2 Z" id="Shape"></path>
                        <path d="M198.8,15.6 C198.9,15.3 199.1,15.2 199.3,15.4 C200.7,16.2 202.3,16.7 203.5,16.8 C204.5,16.8 205.1,16.3 205.1,15.7 C205.1,13.9 196.7,14 196.7,7.5 C196.7,3.5 199.7,0.8 204.3,0.8 C206.4,0.8 209.1,1.7 211,3 C211.2,3.1 211.3,3.4 211.2,3.5 L209.3,7.7 C209.2,8 209,8.1 208.8,7.9 C207.3,7.1 205.6,6.4 204.6,6.3 C203.7,6.3 203.1,6.7 203.1,7.4 C203.1,9.2 211.6,9 211.6,15.6 C211.6,19.6 208.5,22.3 203.9,22.3 C201.4,22.3 198.7,21.5 197.2,20.3 C197,20.1 196.9,19.9 197,19.8 L198.8,15.6 Z" id="Shape"></path>
                        <path d="M228.7,1.2 C229,1.2 229.2,1.4 229.1,1.6 L228.6,6.2 C228.6,6.4 228.3,6.6 228.1,6.6 L223.6,6.6 L223.6,21.5 C223.6,21.7 223.4,21.9 223.2,21.9 L218,21.9 C217.8,21.9 217.5,21.7 217.5,21.5 L217.5,6.6 L212.5,6.6 C212.3,6.6 212.1,6.4 212.1,6.2 L212.1,1.7 C212.1,1.5 212.3,1.2 212.5,1.2 L228.7,1.2 L228.7,1.2 Z" id="Shape"></path>
                        <path d="M235.9,1.2 C236.2,1.2 236.4,1.4 236.4,1.7 L236.4,21.5 C236.4,21.7 236.2,21.9 235.9,21.9 L230.6,21.9 C230.4,21.9 230.2,21.7 230.2,21.5 L230.2,1.7 C230.2,1.5 230.4,1.2 230.6,1.2 L235.9,1.2 Z" id="Shape"></path>
                        <path d="M254,1.2 C254.3,1.2 254.5,1.4 254.4,1.6 L253.9,6.2 C253.9,6.4 253.6,6.6 253.4,6.6 L249,6.6 L249,21.5 C249,21.7 248.8,21.9 248.6,21.9 L243.3,21.9 C243.1,21.9 242.8,21.7 242.8,21.5 L242.8,6.6 L237.8,6.6 C237.6,6.6 237.4,6.4 237.4,6.2 L237.4,1.7 C237.4,1.5 237.6,1.2 237.8,1.2 L254,1.2 L254,1.2 Z" id="Shape"></path>
                        <path d="M271.4,1.2 C271.7,1.2 271.9,1.4 271.9,1.7 L271.9,14.2 C271.9,19.5 269.1,22.3 263.6,22.3 C258.2,22.3 255.4,19.5 255.3,14.2 L255.3,1.7 C255.3,1.4 255.5,1.2 255.8,1.2 L261,1.2 C261.3,1.2 261.5,1.4 261.5,1.7 L261.5,14.7 C261.5,16.1 262.3,16.9 263.6,16.9 C264.9,16.9 265.7,16.1 265.7,14.7 L265.7,1.6 C265.7,1.3 265.9,1.1 266.2,1.1 L271.4,1.1 L271.4,1.2 Z" id="Shape"></path>
                        <path d="M289.4,1.2 C289.7,1.2 289.9,1.4 289.8,1.6 L289.3,6.2 C289.3,6.4 289,6.6 288.8,6.6 L284.3,6.6 L284.3,21.5 C284.3,21.7 284.1,21.9 283.9,21.9 L278.6,21.9 C278.4,21.9 278.1,21.7 278.1,21.5 L278.1,6.6 L273.1,6.6 C272.9,6.6 272.7,6.4 272.7,6.2 L272.7,1.7 C272.7,1.5 272.9,1.2 273.1,1.2 L289.4,1.2 L289.4,1.2 Z" id="Shape"></path>
                        <path d="M306.3,1.2 C306.6,1.2 306.8,1.4 306.7,1.6 L306.2,6.2 C306.2,6.4 305.9,6.6 305.7,6.6 L301.2,6.6 L301.2,21.5 C301.2,21.7 301,21.9 300.8,21.9 L295.5,21.9 C295.3,21.9 295,21.7 295,21.5 L295,6.6 L290,6.6 C289.8,6.6 289.6,6.4 289.6,6.2 L289.6,1.7 C289.6,1.5 289.8,1.2 290,1.2 L306.3,1.2 L306.3,1.2 Z" id="Shape"></path>
                        <path d="M322.2,16.5 C322.4,16.5 322.7,16.7 322.7,16.9 L322.7,21.5 C322.7,21.7 322.5,21.9 322.2,21.9 L308.3,21.9 C308.1,21.9 307.9,21.7 307.8,21.4 L307.8,1.6 C307.8,1.3 308,1.2 308.2,1.2 L321.8,1.2 C322.1,1.2 322.3,1.4 322.3,1.6 L322.3,6.1 C322.3,6.4 322.1,6.6 321.8,6.6 L314,6.6 L314,9 L320.4,9 C320.7,9 320.8,9.2 320.8,9.4 L320.4,13.6 C320.4,13.8 320.2,14 319.9,14 L314,14 L314,16.5 L322.2,16.5 L322.2,16.5 Z" id="Shape"></path>
                        <path d="M339.8,1.2 C340.1,1.2 340.3,1.4 340.2,1.6 L339.7,6.2 C339.7,6.4 339.4,6.6 339.2,6.6 L334.7,6.6 L334.7,21.5 C334.7,21.7 334.5,21.9 334.3,21.9 L329,21.9 C328.8,21.9 328.5,21.7 328.5,21.5 L328.5,6.6 L323.5,6.6 C323.3,6.6 323.1,6.4 323.1,6.2 L323.1,1.7 C323.1,1.5 323.3,1.2 323.5,1.2 L339.8,1.2 L339.8,1.2 Z" id="Shape"></path>
                    </g>
                </g>
            </g>
        </g>
    </g>
</svg>