<?xml version="1.0" encoding="UTF-8"?>
<svg width="429px" height="53px" viewBox="0 0 429 53" version="1.1" xmlns="http://www.w3.org/2000/svg" xmlns:xlink="http://www.w3.org/1999/xlink">
    <!-- Generator: Sketch 42 (36781) - http://www.bohemiancoding.com/sketch -->
    <title>Helsenorge</title>
    <desc>Created with Sketch.</desc>
    <defs></defs>
    <g id="Page-1" stroke="none" stroke-width="1" fill="none" fill-rule="evenodd">
        <g id="Artboard" transform="translate(-7120.000000, -15913.000000)" fill-rule="nonzero">
            <g id="10_kilder-copy" transform="translate(7119.000000, 15829.000000)">
                <g id="Helsenorge" transform="translate(1.000000, 84.000000)">
                    <g id="Shadow" fill="#3A5D81">
                        <path d="M40.4,1.6 C41,1.6 41.5,2.1 41.5,2.7 L41.5,50.3 C41.5,50.8 41.1,51.3 40.4,51.3 L26.9,51.3 C26.3,51.3 25.9,50.8 25.9,50.3 L25.9,34.2 L15.8,34.2 L15.8,50.3 C15.8,50.8 15.4,51.3 14.7,51.3 L1.3,51.3 C0.8,51.3 0.3,50.8 0.3,50.3 L0.3,2.7 C0.3,2.1 0.8,1.6 1.3,1.6 L14.8,1.6 C15.4,1.6 15.9,2.1 15.9,2.7 L15.9,21.5 L26,21.5 L26,2.7 C26,2.1 26.4,1.6 27,1.6 L40.4,1.6 L40.4,1.6 Z" id="Shape"></path>
                        <path d="M81.1,38.3 C81.7,38.3 82.2,38.7 82.2,39.2 L82.2,50.2 C82.2,50.7 81.7,51.2 81.1,51.2 L47.6,51.2 C47.1,51.2 46.6,50.6 46.4,50.1 L46.4,2.6 C46.4,2 46.8,1.6 47.4,1.6 L80.2,1.6 C80.8,1.6 81.4,2.1 81.4,2.6 L81.4,13.5 C81.4,14.1 80.9,14.6 80.2,14.6 L61.5,14.6 L61.5,20.3 L76.8,20.3 C77.4,20.3 77.8,20.8 77.7,21.2 L76.7,31.3 C76.6,31.7 76.1,32.2 75.5,32.2 L61.5,32.2 L61.5,38.3 L81.1,38.3 Z" id="Shape"></path>
                        <path d="M114.5,38.3 C115,38.3 115.4,38.7 115.4,39.3 L114.4,50.2 C114.3,50.7 113.8,51.2 113.2,51.2 L87.2,51.2 C86.6,51.2 86.1,50.7 86.1,50.2 L86.1,2.7 C86.1,2.1 86.6,1.6 87.2,1.6 L100,1.6 C100.6,1.6 101.1,2.1 101.1,2.7 L101.1,38.3 L114.5,38.3 L114.5,38.3 Z" id="Shape"></path>
                        <path d="M122.4,36.1 C122.6,35.4 123.1,35.2 123.7,35.5 C127,37.4 131,38.7 133.7,39 C136,39 137.5,37.9 137.5,36.3 C137.5,32.1 117.3,32.3 117.3,16.6 C117.3,7 124.6,0.5 135.5,0.5 C140.6,0.5 147.1,2.6 151.6,5.7 C152.2,6.1 152.4,6.6 152.2,7 L147.7,17.2 C147.5,17.9 147,18.1 146.4,17.8 C142.9,15.8 138.8,14.3 136.2,14.1 C134,14.1 132.5,15.1 132.5,16.7 C132.5,20.9 152.9,20.7 152.9,36.5 C152.9,46.1 145.5,52.5 134.4,52.5 C128.4,52.5 122,50.6 118.4,47.7 C117.8,47.3 117.6,46.8 117.8,46.4 L122.4,36.1 Z" id="Shape"></path>
                        <path d="M191.5,38.3 C192.1,38.3 192.6,38.7 192.6,39.2 L192.6,50.2 C192.6,50.7 192.1,51.2 191.5,51.2 L158,51.2 C157.5,51.2 157,50.6 156.8,50.1 L156.8,2.6 C156.8,2 157.2,1.6 157.8,1.6 L190.6,1.6 C191.2,1.6 191.8,2.1 191.8,2.6 L191.8,13.5 C191.8,14.1 191.3,14.6 190.6,14.6 L171.8,14.6 L171.8,20.3 L187.1,20.3 C187.7,20.3 188.1,20.8 188,21.2 L187,31.3 C186.9,31.7 186.4,32.2 185.8,32.2 L171.8,32.2 L171.8,38.3 L191.5,38.3 Z" id="Shape"></path>
                        <path d="M237.9,1.6 C238.5,1.6 239,2.1 239,2.7 L239,50.3 C239,50.8 238.6,51.3 237.9,51.3 L225.4,51.3 C224.9,51.3 224.2,50.9 223.9,50.4 L211.4,28 L211.4,50.3 C211.4,50.8 211,51.3 210.3,51.3 L197.6,51.3 C197,51.3 196.6,50.8 196.6,50.3 L196.6,2.7 C196.6,2.1 197,1.6 197.6,1.6 L210.1,1.6 C210.7,1.6 211.5,2 211.8,2.5 L224.3,24.9 L224.3,2.7 C224.3,2.1 224.8,1.6 225.3,1.6 L237.9,1.6 L237.9,1.6 Z" id="Shape"></path>
                        <path d="M269,52.3 C253.7,52.3 243.4,41.9 243.4,26.4 C243.4,10.8 253.6,0.4 269,0.4 C284.3,0.4 294.6,10.8 294.6,26.4 C294.6,41.9 284.4,52.3 269,52.3 Z M269,15 C263.1,15 259.1,19.6 259.1,26.4 C259.1,33.2 263.1,37.8 269,37.8 C274.9,37.8 278.9,33.2 278.9,26.4 C278.9,19.6 274.9,15 269,15 Z" id="Shape"></path>
                        <path d="M340.2,50.1 C340.6,50.7 340.1,51.3 339.4,51.3 L324,51.3 C323.3,51.3 322.6,50.8 322.3,50.1 L314.8,34.4 L314,34.4 L314,50.2 C314,50.7 313.5,51.2 312.8,51.2 L300.1,51.2 C299.5,51.2 299,50.7 299,50.2 L299,2.7 C299,2.1 299.5,1.6 300.1,1.6 L319.1,1.6 C330.2,1.6 337.5,8.1 337.5,17.9 C337.5,23.6 334,29.3 328.6,31.7 L340.2,50.1 Z M318.3,22.2 C320.7,22.2 322.4,20.7 322.4,18.4 C322.4,16.1 320.7,14.6 318.3,14.6 L314,14.6 L314,22.2 L318.3,22.2 Z" id="Shape"></path>
                        <path d="M385.4,20.8 C386,20.8 386.5,21.3 386.5,21.8 L386.5,44.7 C386.5,45.3 386.1,46 385.6,46.4 C381.3,50.1 374.7,52.2 367.7,52.2 C352.1,52.2 341.8,41.8 341.8,26.3 C341.8,10.8 352.2,0.4 367.7,0.4 C373,0.4 378.6,2 382.8,4.6 C383.4,4.9 383.6,5.5 383.4,5.9 L379.8,16.5 C379.6,17 379.1,17.2 378.4,17.1 C375.4,15.5 371.6,14.6 368,14.6 C361.4,14.6 356.9,19.4 356.9,26.4 C356.9,33.6 361.4,38.4 368,38.4 C370.7,38.4 372.5,37.9 373.3,37 L373.3,32.8 L366.7,32.8 C366.1,32.8 365.6,32.5 365.5,32 L364.6,22.1 C364.5,21.4 365,20.9 365.8,20.9 L385.4,20.9 L385.4,20.8 Z M373.9,35.9 L373.9,36.2 L373.9,35.9 Z" id="Shape"></path>
                        <path d="M425.7,38.3 C426.3,38.3 426.8,38.7 426.8,39.2 L426.8,50.2 C426.8,50.7 426.3,51.2 425.7,51.2 L392.2,51.2 C391.7,51.2 391.2,50.6 391,50.1 L391,2.6 C391,2 391.4,1.6 392,1.6 L424.8,1.6 C425.4,1.6 426,2.1 426,2.6 L426,13.5 C426,14.1 425.5,14.6 424.8,14.6 L406,14.6 L406,20.3 L421.3,20.3 C421.9,20.3 422.3,20.8 422.2,21.2 L421.2,31.3 C421.1,31.7 420.6,32.2 420,32.2 L406,32.2 L406,38.3 L425.7,38.3 Z" id="Shape"></path>
                    </g>
                    <g id="Group" transform="translate(2.000000, 0.000000)" fill="#FFF6EB">
                        <path d="M40.2,1.6 C40.8,1.6 41.3,2.1 41.3,2.7 L41.3,50.3 C41.3,50.8 40.9,51.3 40.2,51.3 L26.7,51.3 C26.1,51.3 25.7,50.8 25.7,50.3 L25.7,34.2 L15.6,34.2 L15.6,50.3 C15.6,50.8 15.2,51.3 14.5,51.3 L1.1,51.3 C0.6,51.3 0.1,50.8 0.1,50.3 L0.1,2.7 C0.1,2.1 0.6,1.6 1.1,1.6 L14.6,1.6 C15.2,1.6 15.7,2.1 15.7,2.7 L15.7,21.5 L25.8,21.5 L25.8,2.7 C25.8,2.1 26.2,1.6 26.8,1.6 L40.2,1.6 L40.2,1.6 Z" id="Shape"></path>
                        <path d="M80.9,38.3 C81.5,38.3 82,38.7 82,39.2 L82,50.2 C82,50.7 81.5,51.2 80.9,51.2 L47.4,51.2 C46.9,51.2 46.4,50.6 46.2,50.1 L46.2,2.6 C46.2,2 46.6,1.6 47.2,1.6 L80,1.6 C80.6,1.6 81.2,2.1 81.2,2.6 L81.2,13.5 C81.2,14.1 80.7,14.6 80,14.6 L61.3,14.6 L61.3,20.3 L76.6,20.3 C77.2,20.3 77.6,20.8 77.5,21.2 L76.5,31.3 C76.4,31.7 75.9,32.2 75.3,32.2 L61.3,32.2 L61.3,38.3 L80.9,38.3 Z" id="Shape"></path>
                        <path d="M114.3,38.3 C114.8,38.3 115.2,38.7 115.2,39.3 L114.2,50.2 C114.1,50.7 113.6,51.2 113,51.2 L87,51.2 C86.4,51.2 85.9,50.7 85.9,50.2 L85.9,2.7 C85.9,2.1 86.4,1.6 87,1.6 L99.7,1.6 C100.3,1.6 100.8,2.1 100.8,2.7 L100.8,38.3 L114.3,38.3 L114.3,38.3 Z" id="Shape"></path>
                        <path d="M122.3,36.1 C122.5,35.4 123,35.2 123.6,35.5 C126.9,37.4 130.9,38.7 133.6,39 C135.9,39 137.4,37.9 137.4,36.3 C137.4,32.1 117.2,32.3 117.2,16.6 C117.2,7 124.5,0.5 135.4,0.5 C140.5,0.5 147,2.6 151.5,5.7 C152.1,6.1 152.3,6.6 152.1,7 L147.6,17.2 C147.4,17.9 146.9,18.1 146.3,17.8 C142.8,15.8 138.7,14.3 136.1,14.1 C133.9,14.1 132.4,15.1 132.4,16.7 C132.4,20.9 152.8,20.7 152.8,36.5 C152.8,46.1 145.4,52.5 134.3,52.5 C128.3,52.5 121.9,50.6 118.3,47.7 C117.7,47.3 117.5,46.8 117.7,46.4 L122.3,36.1 Z" id="Shape"></path>
                        <path d="M191.3,38.3 C191.9,38.3 192.4,38.7 192.4,39.2 L192.4,50.2 C192.4,50.7 191.9,51.2 191.3,51.2 L157.8,51.2 C157.3,51.2 156.8,50.6 156.6,50.1 L156.6,2.6 C156.6,2 157,1.6 157.6,1.6 L190.4,1.6 C191,1.6 191.6,2.1 191.6,2.6 L191.6,13.5 C191.6,14.1 191.1,14.6 190.4,14.6 L171.6,14.6 L171.6,20.3 L186.9,20.3 C187.5,20.3 187.9,20.8 187.8,21.2 L186.8,31.3 C186.7,31.7 186.2,32.2 185.6,32.2 L171.6,32.2 L171.6,38.3 L191.3,38.3 Z" id="Shape"></path>
                        <path d="M237.7,1.6 C238.3,1.6 238.8,2.1 238.8,2.7 L238.8,50.3 C238.8,50.8 238.4,51.3 237.7,51.3 L225.2,51.3 C224.7,51.3 224,50.9 223.7,50.4 L211.2,28 L211.2,50.3 C211.2,50.8 210.8,51.3 210.1,51.3 L197.4,51.3 C196.8,51.3 196.4,50.8 196.4,50.3 L196.4,2.7 C196.4,2.1 196.8,1.6 197.4,1.6 L209.9,1.6 C210.5,1.6 211.3,2 211.6,2.5 L224.1,24.9 L224.1,2.7 C224.1,2.1 224.6,1.6 225.1,1.6 L237.7,1.6 L237.7,1.6 Z" id="Shape"></path>
                        <path d="M268.8,52.3 C253.5,52.3 243.2,41.9 243.2,26.4 C243.2,10.8 253.4,0.4 268.8,0.4 C284.1,0.4 294.4,10.8 294.4,26.4 C294.4,41.9 284.2,52.3 268.8,52.3 Z M268.8,15 C262.9,15 258.9,19.6 258.9,26.4 C258.9,33.2 262.9,37.8 268.8,37.8 C274.7,37.8 278.7,33.2 278.7,26.4 C278.7,19.6 274.8,15 268.8,15 Z" id="Shape"></path>
                        <path d="M340.1,50.1 C340.5,50.7 340,51.3 339.3,51.3 L323.9,51.3 C323.2,51.3 322.5,50.8 322.2,50.1 L314.7,34.4 L313.8,34.4 L313.8,50.2 C313.8,50.7 313.3,51.2 312.6,51.2 L300,51.2 C299.4,51.2 298.9,50.7 298.9,50.2 L298.9,2.7 C298.9,2.1 299.4,1.6 300,1.6 L319,1.6 C330.1,1.6 337.4,8.1 337.4,17.9 C337.4,23.6 333.9,29.3 328.5,31.7 L340.1,50.1 Z M318.1,22.2 C320.5,22.2 322.2,20.7 322.2,18.4 C322.2,16.1 320.5,14.6 318.1,14.6 L313.9,14.6 L313.9,22.2 L318.1,22.2 Z" id="Shape"></path>
                        <path d="M385.2,20.8 C385.8,20.8 386.3,21.3 386.3,21.8 L386.3,44.7 C386.3,45.3 385.9,46 385.4,46.4 C381.1,50.1 374.5,52.2 367.5,52.2 C351.9,52.2 341.6,41.8 341.6,26.3 C341.6,10.8 352,0.4 367.5,0.4 C372.8,0.4 378.4,2 382.6,4.6 C383.2,4.9 383.4,5.5 383.2,5.9 L379.6,16.5 C379.4,17 378.9,17.2 378.2,17.1 C375.2,15.5 371.4,14.6 367.8,14.6 C361.2,14.6 356.7,19.4 356.7,26.4 C356.7,33.6 361.2,38.4 367.8,38.4 C370.5,38.4 372.3,37.9 373.1,37 L373.1,32.8 L366.5,32.8 C365.9,32.8 365.4,32.5 365.3,32 L364.4,22.1 C364.3,21.4 364.8,20.9 365.6,20.9 L385.2,20.9 L385.2,20.8 Z M373.7,35.9 L373.7,36.2 L373.7,35.9 Z" id="Shape"></path>
                        <path d="M425.5,38.3 C426.1,38.3 426.6,38.7 426.6,39.2 L426.6,50.2 C426.6,50.7 426.1,51.2 425.5,51.2 L392,51.2 C391.5,51.2 391,50.6 390.8,50.1 L390.8,2.6 C390.8,2 391.2,1.6 391.8,1.6 L424.6,1.6 C425.2,1.6 425.8,2.1 425.8,2.6 L425.8,13.5 C425.8,14.1 425.3,14.6 424.6,14.6 L405.8,14.6 L405.8,20.3 L421.1,20.3 C421.7,20.3 422.1,20.8 422,21.2 L421,31.3 C420.9,31.7 420.4,32.2 419.8,32.2 L405.8,32.2 L405.8,38.3 L425.5,38.3 Z" id="Shape"></path>
                    </g>
                </g>
            </g>
        </g>
    </g>
</svg>