<?xml version="1.0" encoding="UTF-8"?>
<svg width="473px" height="29px" viewBox="0 0 473 29" version="1.1" xmlns="http://www.w3.org/2000/svg" xmlns:xlink="http://www.w3.org/1999/xlink">
    <!-- Generator: Sketch 42 (36781) - http://www.bohemiancoding.com/sketch -->
    <title>Norsk Helseinfo</title>
    <desc>Created with Sketch.</desc>
    <defs></defs>
    <g id="Page-1" stroke="none" stroke-width="1" fill="none" fill-rule="evenodd">
        <g id="Artboard" transform="translate(-7120.000000, -16127.000000)" fill-rule="nonzero">
            <g id="10_kilder-copy" transform="translate(7119.000000, 15829.000000)">
                <g id="Norsk-Helseinfo" transform="translate(1.000000, 298.000000)">
                    <g id="Shadow" fill="#3A5D81">
                        <path d="M22,1.4 C22.3,1.4 22.6,1.7 22.6,2 L22.6,27.1 C22.6,27.4 22.4,27.6 22,27.6 L15.4,27.6 C15.1,27.6 14.8,27.4 14.6,27.1 L8,15.4 L8,27.2 C8,27.5 7.8,27.7 7.4,27.7 L0.7,27.7 C0.4,27.7 0.2,27.4 0.2,27.2 L0.2,2 C0.2,1.7 0.4,1.4 0.7,1.4 L7.3,1.4 C7.6,1.4 8,1.6 8.2,1.9 L14.8,13.7 L14.8,2 C14.8,1.7 15.1,1.4 15.3,1.4 L22,1.4 Z" id="Shape"></path>
                        <path d="M38.4,28.2 C30.3,28.2 24.9,22.7 24.9,14.6 C24.9,6.4 30.3,0.9 38.4,0.9 C46.5,0.9 51.9,6.4 51.9,14.6 C51.9,22.7 46.5,28.2 38.4,28.2 Z M38.4,8.5 C35.3,8.5 33.2,10.9 33.2,14.5 C33.2,18.1 35.3,20.5 38.4,20.5 C41.5,20.5 43.6,18.1 43.6,14.5 C43.6,10.9 41.5,8.5 38.4,8.5 Z" id="Shape"></path>
                        <path d="M76,27.1 C76.2,27.4 75.9,27.7 75.6,27.7 L67.5,27.7 C67.1,27.7 66.8,27.4 66.6,27.1 L62.6,18.8 L62.1,18.8 L62.1,27.2 C62.1,27.5 61.8,27.7 61.5,27.7 L54.8,27.7 C54.5,27.7 54.2,27.4 54.2,27.2 L54.2,2 C54.2,1.7 54.5,1.4 54.8,1.4 L64.8,1.4 C70.7,1.4 74.5,4.8 74.5,10 C74.5,13 72.7,16 69.8,17.3 L76,27.1 Z M64.4,12.3 C65.7,12.3 66.6,11.5 66.6,10.3 C66.6,9.1 65.7,8.3 64.4,8.3 L62.2,8.3 L62.2,12.3 L64.4,12.3 Z" id="Shape"></path>
                        <path d="M79.5,19.7 C79.6,19.3 79.9,19.2 80.2,19.4 C81.9,20.4 84,21.1 85.5,21.2 C86.7,21.2 87.5,20.6 87.5,19.8 C87.5,17.6 76.8,17.7 76.8,9.4 C76.8,4.3 80.6,0.9 86.4,0.9 C89.1,0.9 92.5,2 94.9,3.6 C95.2,3.8 95.3,4.1 95.2,4.3 L92.8,9.7 C92.7,10.1 92.4,10.2 92.1,10 C90.2,8.9 88.1,8.1 86.7,8 C85.5,8 84.8,8.5 84.8,9.4 C84.8,11.6 95.6,11.5 95.6,19.8 C95.6,24.9 91.7,28.2 85.8,28.2 C82.6,28.2 79.3,27.2 77.4,25.7 C77.1,25.5 77,25.2 77.1,25 L79.5,19.7 Z" id="Shape"></path>
                        <path d="M120.2,27.2 C120.4,27.5 120.2,27.7 119.9,27.7 L111.1,27.7 C110.8,27.7 110.5,27.5 110.3,27.2 L105.6,17.7 L105.6,27.1 C105.6,27.4 105.4,27.6 105,27.6 L98.3,27.6 C98,27.6 97.8,27.3 97.8,27.1 L97.8,2 C97.8,1.7 98.1,1.4 98.3,1.4 L105,1.4 C105.3,1.4 105.6,1.7 105.6,2 L105.6,10.5 L110.2,1.9 C110.4,1.6 110.7,1.4 111.1,1.4 L119.4,1.4 C119.7,1.4 119.8,1.6 119.7,1.9 L112.2,13.9 L120.2,27.2 Z" id="Shape"></path>
                        <path d="M147.8,1.4 C148.1,1.4 148.4,1.7 148.4,2 L148.4,27.1 C148.4,27.4 148.2,27.6 147.8,27.6 L140.7,27.6 C140.4,27.6 140.2,27.3 140.2,27.1 L140.2,18.6 L134.9,18.6 L134.9,27.1 C134.9,27.4 134.7,27.6 134.3,27.6 L127.2,27.6 C126.9,27.6 126.7,27.3 126.7,27.1 L126.7,2 C126.7,1.7 127,1.4 127.2,1.4 L134.3,1.4 C134.6,1.4 134.9,1.7 134.9,2 L134.9,11.9 L140.2,11.9 L140.2,2 C140.2,1.7 140.4,1.4 140.7,1.4 L147.8,1.4 Z" id="Shape"></path>
                        <path d="M169.3,20.8 C169.6,20.8 169.9,21 169.9,21.3 L169.9,27.1 C169.9,27.4 169.6,27.6 169.3,27.6 L151.6,27.6 C151.3,27.6 151.1,27.3 151,27 L151,2 C151,1.7 151.2,1.5 151.5,1.5 L168.8,1.5 C169.1,1.5 169.4,1.8 169.4,2 L169.4,7.7 C169.4,8 169.1,8.3 168.8,8.3 L158.9,8.3 L158.9,11.3 L167,11.3 C167.3,11.3 167.5,11.6 167.5,11.8 L167,17.1 C167,17.3 166.7,17.6 166.4,17.6 L159,17.6 L159,20.8 L169.3,20.8 Z" id="Shape"></path>
                        <path d="M186.9,20.8 C187.2,20.8 187.4,21 187.4,21.3 L186.9,27.1 C186.9,27.4 186.6,27.6 186.3,27.6 L172.6,27.6 C172.3,27.6 172,27.3 172,27.1 L172,2 C172,1.7 172.3,1.4 172.6,1.4 L179.3,1.4 C179.6,1.4 179.9,1.7 179.9,2 L179.9,20.8 L186.9,20.8 Z" id="Shape"></path>
                        <path d="M191.1,19.7 C191.2,19.3 191.5,19.2 191.8,19.4 C193.5,20.4 195.6,21.1 197.1,21.2 C198.3,21.2 199.1,20.6 199.1,19.8 C199.1,17.6 188.4,17.7 188.4,9.4 C188.4,4.3 192.2,0.9 198,0.9 C200.7,0.9 204.1,2 206.5,3.6 C206.8,3.8 206.9,4.1 206.8,4.3 L204.4,9.7 C204.3,10.1 204,10.2 203.7,10 C201.8,8.9 199.7,8.1 198.3,8 C197.1,8 196.4,8.5 196.4,9.4 C196.4,11.6 207.2,11.5 207.2,19.8 C207.2,24.9 203.3,28.2 197.4,28.2 C194.2,28.2 190.9,27.2 189,25.7 C188.7,25.5 188.6,25.2 188.7,25 L191.1,19.7 Z" id="Shape"></path>
                        <path d="M227.5,20.8 C227.8,20.8 228.1,21 228.1,21.3 L228.1,27.1 C228.1,27.4 227.8,27.6 227.5,27.6 L209.8,27.6 C209.5,27.6 209.3,27.3 209.2,27 L209.2,2 C209.2,1.7 209.4,1.5 209.7,1.5 L227,1.5 C227.3,1.5 227.6,1.8 227.6,2 L227.6,7.7 C227.6,8 227.3,8.3 227,8.3 L217.1,8.3 L217.1,11.3 L225.2,11.3 C225.5,11.3 225.7,11.6 225.7,11.8 L225.2,17.1 C225.2,17.3 224.9,17.6 224.6,17.6 L217.2,17.6 L217.2,20.8 L227.5,20.8 Z" id="Shape"></path>
                        <path d="M237.5,1.4 C237.8,1.4 238.1,1.7 238.1,2 L238.1,27.1 C238.1,27.4 237.9,27.6 237.5,27.6 L230.8,27.6 C230.5,27.6 230.3,27.3 230.3,27.1 L230.3,2 C230.3,1.7 230.6,1.4 230.8,1.4 L237.5,1.4 Z" id="Shape"></path>
                        <path d="M262.6,1.4 C262.9,1.4 263.2,1.7 263.2,2 L263.2,27.1 C263.2,27.4 263,27.6 262.6,27.6 L256,27.6 C255.7,27.6 255.4,27.4 255.2,27.1 L248.6,15.3 L248.6,27.1 C248.6,27.4 248.4,27.6 248,27.6 L241.3,27.6 C241,27.6 240.8,27.3 240.8,27.1 L240.8,2 C240.8,1.7 241,1.4 241.3,1.4 L247.9,1.4 C248.2,1.4 248.6,1.6 248.8,1.9 L255.4,13.7 L255.4,2 C255.4,1.7 255.7,1.4 255.9,1.4 L262.6,1.4 Z" id="Shape"></path>
                        <path d="M283.4,1.4 C283.7,1.4 284,1.7 284,1.9 L284,7.6 C284,7.9 283.8,8.2 283.4,8.2 L273.7,8.2 L273.7,11.7 L281.3,11.7 C281.6,11.7 281.8,12 281.8,12.2 L281.3,17.5 C281.3,17.7 281,18 280.7,18 L273.7,18 L273.7,27.1 C273.7,27.4 273.4,27.6 273.1,27.6 L266.4,27.6 C266.1,27.6 265.9,27.3 265.9,27 L265.9,2 C265.9,1.7 266.1,1.5 266.4,1.5 L283.4,1.5 L283.4,1.4 Z" id="Shape"></path>
                        <path d="M298.6,28.2 C290.5,28.2 285.1,22.7 285.1,14.6 C285.1,6.4 290.5,0.9 298.6,0.9 C306.7,0.9 312.1,6.4 312.1,14.6 C312.1,22.7 306.7,28.2 298.6,28.2 Z M298.6,8.5 C295.5,8.5 293.4,10.9 293.4,14.5 C293.4,18.1 295.5,20.5 298.6,20.5 C301.7,20.5 303.8,18.1 303.8,14.5 C303.9,10.9 301.8,8.5 298.6,8.5 Z" id="Shape"></path>
                        <path d="M336.2,27.1 C336.4,27.4 336.1,27.7 335.8,27.7 L327.7,27.7 C327.3,27.7 327,27.4 326.8,27.1 L322.8,18.8 L322.3,18.8 L322.3,27.2 C322.3,27.5 322,27.7 321.7,27.7 L315,27.7 C314.7,27.7 314.4,27.4 314.4,27.2 L314.4,2 C314.4,1.7 314.7,1.4 315,1.4 L325,1.4 C330.9,1.4 334.7,4.8 334.7,10 C334.7,13 332.9,16 330,17.3 L336.2,27.1 Z M324.6,12.3 C325.9,12.3 326.8,11.5 326.8,10.3 C326.8,9.1 325.9,8.3 324.6,8.3 L322.4,8.3 L322.4,12.3 L324.6,12.3 Z" id="Shape"></path>
                        <path d="M367.2,1.4 C367.5,1.4 367.7,1.7 367.7,2 L367.7,27.1 C367.7,27.4 367.5,27.6 367.2,27.6 L360.2,27.6 C359.9,27.6 359.6,27.3 359.6,27.1 L359.6,16 L355.8,27.1 C355.7,27.4 355.2,27.7 354.8,27.7 L350.6,27.7 C350.3,27.7 349.8,27.4 349.6,27.1 L345.8,16 L345.8,27.2 C345.8,27.5 345.5,27.7 345.2,27.7 L338.2,27.7 C337.9,27.7 337.7,27.4 337.7,27.2 L337.7,2 C337.7,1.7 337.9,1.4 338.2,1.4 L346.1,1.4 C346.6,1.4 347.2,1.7 347.4,2.2 L352.6,16.7 L357.8,2.2 C358,1.8 358.6,1.4 359.1,1.4 L367.2,1.4 Z" id="Shape"></path>
                        <path d="M395.2,27.2 C395.3,27.4 395.2,27.7 394.9,27.7 L387.4,27.7 C387.1,27.7 386.8,27.5 386.6,27.2 L385.5,23.2 L378.4,23.2 L377.3,27.2 C377.1,27.5 376.8,27.7 376.5,27.7 L369,27.7 C368.7,27.7 368.5,27.4 368.7,27.2 L377.3,2 C377.4,1.8 377.8,1.5 378.2,1.5 L386,1.5 C386.4,1.5 386.8,1.8 386.9,2 L395.2,27.2 Z M381.8,10.5 L379.7,17.7 L383.8,17.7 L381.8,10.5 Z" id="Shape"></path>
                        <path d="M412.2,1.4 C412.5,1.4 412.8,1.7 412.7,1.9 L412.1,7.7 C412.1,8 411.8,8.2 411.5,8.2 L405.8,8.2 L405.8,27 C405.8,27.3 405.6,27.5 405.3,27.5 L398.6,27.5 C398.3,27.5 398,27.2 398,27 L398,8.2 L391.7,8.2 C391.4,8.2 391.2,8 391.2,7.7 L391.2,2 C391.2,1.7 391.5,1.4 391.7,1.4 L412.2,1.4 Z" id="Shape"></path>
                        <path d="M421.3,1.4 C421.6,1.4 421.9,1.7 421.9,2 L421.9,27.1 C421.9,27.4 421.7,27.6 421.3,27.6 L414.6,27.6 C414.3,27.6 414.1,27.3 414.1,27.1 L414.1,2 C414.1,1.7 414.4,1.4 414.6,1.4 L421.3,1.4 Z" id="Shape"></path>
                        <path d="M447,27.2 C447.2,27.5 447,27.7 446.7,27.7 L438,27.7 C437.7,27.7 437.4,27.5 437.2,27.2 L432.5,17.7 L432.5,27.1 C432.5,27.4 432.3,27.6 431.9,27.6 L425.2,27.6 C424.9,27.6 424.7,27.3 424.7,27.1 L424.7,2 C424.7,1.7 425,1.4 425.2,1.4 L431.9,1.4 C432.2,1.4 432.5,1.7 432.5,2 L432.5,10.5 L437.1,1.9 C437.3,1.6 437.6,1.4 438,1.4 L446.3,1.4 C446.6,1.4 446.7,1.6 446.6,1.9 L439.1,13.9 L447,27.2 Z" id="Shape"></path>
                        <path d="M470.9,27.2 C471.1,27.5 470.9,27.7 470.6,27.7 L461.8,27.7 C461.5,27.7 461.2,27.5 461,27.2 L456.3,17.7 L456.3,27.1 C456.3,27.4 456.1,27.6 455.7,27.6 L449,27.6 C448.7,27.6 448.5,27.3 448.5,27.1 L448.5,2 C448.5,1.7 448.8,1.4 449,1.4 L455.7,1.4 C456,1.4 456.3,1.7 456.3,2 L456.3,10.5 L460.9,1.9 C461.1,1.6 461.4,1.4 461.8,1.4 L470.1,1.4 C470.4,1.4 470.5,1.6 470.4,1.9 L462.9,13.9 L470.9,27.2 Z" id="Shape"></path>
                    </g>
                    <g id="Group" transform="translate(2.000000, 0.000000)" fill="#FFF6EB">
                        <path d="M21.8,1.4 C22.1,1.4 22.4,1.7 22.4,2 L22.4,27.1 C22.4,27.4 22.2,27.6 21.8,27.6 L15.2,27.6 C14.9,27.6 14.6,27.4 14.4,27.1 L7.8,15.3 L7.8,27.1 C7.8,27.4 7.6,27.6 7.2,27.6 L0.6,27.6 C0.3,27.6 0.1,27.3 0.1,27.1 L0.1,2 C0.1,1.7 0.3,1.4 0.6,1.4 L7.2,1.4 C7.5,1.4 7.9,1.6 8.1,1.9 L14.7,13.7 L14.7,2 C14.7,1.7 15,1.4 15.2,1.4 L21.8,1.4 Z" id="Shape"></path>
                        <path d="M38.3,28.2 C30.2,28.2 24.8,22.7 24.8,14.6 C24.8,6.4 30.2,0.9 38.3,0.9 C46.4,0.9 51.8,6.4 51.8,14.6 C51.7,22.7 46.3,28.2 38.3,28.2 Z M38.3,8.5 C35.2,8.5 33.1,10.9 33.1,14.5 C33.1,18.1 35.2,20.5 38.3,20.5 C41.4,20.5 43.5,18.1 43.5,14.5 C43.5,10.9 41.4,8.5 38.3,8.5 Z" id="Shape"></path>
                        <path d="M75.8,27.1 C76,27.4 75.7,27.7 75.4,27.7 L67.3,27.7 C66.9,27.7 66.6,27.4 66.4,27.1 L62.4,18.8 L62,18.8 L62,27.2 C62,27.5 61.7,27.7 61.4,27.7 L54.7,27.7 C54.4,27.7 54.1,27.4 54.1,27.2 L54.1,2 C54.1,1.7 54.4,1.4 54.7,1.4 L64.7,1.4 C70.6,1.4 74.4,4.8 74.4,10 C74.4,13 72.6,16 69.7,17.3 L75.8,27.1 Z M64.2,12.3 C65.5,12.3 66.4,11.5 66.4,10.3 C66.4,9.1 65.5,8.3 64.2,8.3 L62,8.3 L62,12.3 L64.2,12.3 Z" id="Shape"></path>
                        <path d="M79.4,19.7 C79.5,19.3 79.8,19.2 80.1,19.4 C81.8,20.4 83.9,21.1 85.4,21.2 C86.6,21.2 87.4,20.6 87.4,19.8 C87.4,17.6 76.7,17.7 76.7,9.4 C76.7,4.3 80.5,0.9 86.3,0.9 C89,0.9 92.4,2 94.8,3.6 C95.1,3.8 95.2,4.1 95.1,4.3 L92.7,9.7 C92.6,10.1 92.3,10.2 92,10 C90.1,8.9 88,8.1 86.6,8 C85.4,8 84.7,8.5 84.7,9.4 C84.7,11.6 95.5,11.5 95.5,19.8 C95.5,24.9 91.6,28.2 85.7,28.2 C82.5,28.2 79.2,27.2 77.3,25.7 C77,25.5 76.9,25.2 77,25 L79.4,19.7 Z" id="Shape"></path>
                        <path d="M120,27.2 C120.2,27.5 120,27.7 119.7,27.7 L110.9,27.7 C110.6,27.7 110.3,27.5 110.1,27.2 L105.4,17.7 L105.4,27.1 C105.4,27.4 105.2,27.6 104.8,27.6 L98.1,27.6 C97.8,27.6 97.6,27.3 97.6,27.1 L97.6,2 C97.6,1.7 97.9,1.4 98.1,1.4 L104.8,1.4 C105.1,1.4 105.4,1.7 105.4,2 L105.4,10.5 L110,1.9 C110.2,1.6 110.5,1.4 110.9,1.4 L119.2,1.4 C119.5,1.4 119.6,1.6 119.5,1.9 L112,13.9 L120,27.2 Z" id="Shape"></path>
                        <path d="M147.6,1.4 C147.9,1.4 148.2,1.7 148.2,2 L148.2,27.1 C148.2,27.4 148,27.6 147.6,27.6 L140.5,27.6 C140.2,27.6 140,27.3 140,27.1 L140,18.6 L134.7,18.6 L134.7,27.1 C134.7,27.4 134.5,27.6 134.1,27.6 L127,27.6 C126.7,27.6 126.5,27.3 126.5,27.1 L126.5,2 C126.5,1.7 126.8,1.4 127,1.4 L134.1,1.4 C134.4,1.4 134.7,1.7 134.7,2 L134.7,11.9 L140,11.9 L140,2 C140,1.7 140.2,1.4 140.5,1.4 L147.6,1.4 Z" id="Shape"></path>
                        <path d="M169.1,20.8 C169.4,20.8 169.7,21 169.7,21.3 L169.7,27.1 C169.7,27.4 169.4,27.6 169.1,27.6 L151.4,27.6 C151.1,27.6 150.9,27.3 150.8,27 L150.8,2 C150.8,1.7 151,1.5 151.3,1.5 L168.6,1.5 C168.9,1.5 169.2,1.8 169.2,2 L169.2,7.7 C169.2,8 168.9,8.3 168.6,8.3 L158.7,8.3 L158.7,11.3 L166.8,11.3 C167.1,11.3 167.3,11.6 167.3,11.8 L166.8,17.1 C166.8,17.3 166.5,17.6 166.2,17.6 L158.8,17.6 L158.8,20.8 L169.1,20.8 Z" id="Shape"></path>
                        <path d="M186.7,20.8 C187,20.8 187.2,21 187.2,21.3 L186.7,27.1 C186.7,27.4 186.4,27.6 186.1,27.6 L172.4,27.6 C172.1,27.6 171.8,27.3 171.8,27.1 L171.8,2 C171.8,1.7 172.1,1.4 172.4,1.4 L179.1,1.4 C179.4,1.4 179.7,1.7 179.7,2 L179.7,20.8 L186.7,20.8 Z" id="Shape"></path>
                        <path d="M190.9,19.7 C191,19.3 191.3,19.2 191.6,19.4 C193.3,20.4 195.4,21.1 196.9,21.2 C198.1,21.2 198.9,20.6 198.9,19.8 C198.9,17.6 188.2,17.7 188.2,9.4 C188.2,4.3 192,0.9 197.8,0.9 C200.5,0.9 203.9,2 206.3,3.6 C206.6,3.8 206.7,4.1 206.6,4.3 L204.2,9.7 C204.1,10.1 203.8,10.2 203.5,10 C201.6,8.9 199.5,8.1 198.1,8 C196.9,8 196.2,8.5 196.2,9.4 C196.2,11.6 207,11.5 207,19.8 C207,24.9 203.1,28.2 197.2,28.2 C194,28.2 190.7,27.2 188.8,25.7 C188.5,25.5 188.4,25.2 188.5,25 L190.9,19.7 Z" id="Shape"></path>
                        <path d="M227.3,20.8 C227.6,20.8 227.9,21 227.9,21.3 L227.9,27.1 C227.9,27.4 227.6,27.6 227.3,27.6 L209.6,27.6 C209.3,27.6 209.1,27.3 209,27 L209,2 C209,1.7 209.2,1.5 209.5,1.5 L226.8,1.5 C227.1,1.5 227.4,1.8 227.4,2 L227.4,7.7 C227.4,8 227.1,8.3 226.8,8.3 L217,8.3 L217,11.3 L225.1,11.3 C225.4,11.3 225.6,11.6 225.6,11.8 L225.1,17.1 C225.1,17.3 224.8,17.6 224.5,17.6 L217,17.6 L217,20.8 L227.3,20.8 Z" id="Shape"></path>
                        <path d="M237.3,1.4 C237.6,1.4 237.9,1.7 237.9,2 L237.9,27.1 C237.9,27.4 237.7,27.6 237.3,27.6 L230.6,27.6 C230.3,27.6 230.1,27.3 230.1,27.1 L230.1,2 C230.1,1.7 230.4,1.4 230.6,1.4 L237.3,1.4 Z" id="Shape"></path>
                        <path d="M262.4,1.4 C262.7,1.4 263,1.7 263,2 L263,27.1 C263,27.4 262.8,27.6 262.4,27.6 L255.8,27.6 C255.5,27.6 255.2,27.4 255,27.1 L248.4,15.3 L248.4,27.1 C248.4,27.4 248.2,27.6 247.8,27.6 L241.1,27.6 C240.8,27.6 240.6,27.3 240.6,27.1 L240.6,2 C240.6,1.7 240.8,1.4 241.1,1.4 L247.7,1.4 C248,1.4 248.4,1.6 248.6,1.9 L255.2,13.7 L255.2,2 C255.2,1.7 255.5,1.4 255.7,1.4 L262.4,1.4 Z" id="Shape"></path>
                        <path d="M283.2,1.4 C283.5,1.4 283.8,1.7 283.8,1.9 L283.8,7.6 C283.8,7.9 283.6,8.2 283.2,8.2 L273.5,8.2 L273.5,11.7 L281.1,11.7 C281.4,11.7 281.6,12 281.6,12.2 L281.1,17.5 C281.1,17.7 280.8,18 280.5,18 L273.5,18 L273.5,27.1 C273.5,27.4 273.2,27.6 272.9,27.6 L266.2,27.6 C265.9,27.6 265.7,27.3 265.7,27 L265.7,2 C265.7,1.7 265.9,1.5 266.2,1.5 L283.2,1.5 L283.2,1.4 Z" id="Shape"></path>
                        <path d="M298.5,28.2 C290.4,28.2 285,22.7 285,14.6 C285,6.4 290.4,0.9 298.5,0.9 C306.6,0.9 312,6.4 312,14.6 C312,22.7 306.6,28.2 298.5,28.2 Z M298.5,8.5 C295.4,8.5 293.3,10.9 293.3,14.5 C293.3,18.1 295.4,20.5 298.5,20.5 C301.6,20.5 303.7,18.1 303.7,14.5 C303.7,10.9 301.6,8.5 298.5,8.5 Z" id="Shape"></path>
                        <path d="M336.1,27.1 C336.3,27.4 336,27.7 335.7,27.7 L327.6,27.7 C327.2,27.7 326.9,27.4 326.7,27.1 L322.7,18.8 L322.2,18.8 L322.2,27.2 C322.2,27.5 321.9,27.7 321.6,27.7 L314.9,27.7 C314.6,27.7 314.3,27.4 314.3,27.2 L314.3,2 C314.3,1.7 314.6,1.4 314.9,1.4 L324.9,1.4 C330.8,1.4 334.6,4.8 334.6,10 C334.6,13 332.8,16 329.9,17.3 L336.1,27.1 Z M324.5,12.3 C325.8,12.3 326.7,11.5 326.7,10.3 C326.7,9.1 325.8,8.3 324.5,8.3 L322.3,8.3 L322.3,12.3 L324.5,12.3 Z" id="Shape"></path>
                        <path d="M367,1.4 C367.3,1.4 367.5,1.7 367.5,2 L367.5,27.1 C367.5,27.4 367.3,27.6 367,27.6 L360,27.6 C359.7,27.6 359.4,27.3 359.4,27.1 L359.4,16 L355.6,27.1 C355.5,27.4 355,27.7 354.6,27.7 L350.4,27.7 C350.1,27.7 349.6,27.4 349.4,27.1 L345.6,16 L345.6,27.2 C345.6,27.5 345.3,27.7 345,27.7 L338,27.7 C337.7,27.7 337.5,27.4 337.5,27.2 L337.5,2 C337.5,1.7 337.7,1.4 338,1.4 L345.9,1.4 C346.4,1.4 347,1.7 347.2,2.2 L352.4,16.7 L357.6,2.2 C357.8,1.8 358.4,1.4 358.9,1.4 L367,1.4 Z" id="Shape"></path>
                        <path d="M395,27.2 C395.1,27.4 395,27.7 394.7,27.7 L387.2,27.7 C386.9,27.7 386.6,27.5 386.4,27.2 L385.3,23.2 L378.2,23.2 L377.1,27.2 C376.9,27.5 376.6,27.7 376.3,27.7 L368.8,27.7 C368.5,27.7 368.3,27.4 368.5,27.2 L377.1,2 C377.2,1.8 377.6,1.5 378,1.5 L385.8,1.5 C386.2,1.5 386.6,1.8 386.7,2 L395,27.2 Z M381.7,10.5 L379.6,17.7 L383.7,17.7 L381.7,10.5 Z" id="Shape"></path>
                        <path d="M412,1.4 C412.3,1.4 412.6,1.7 412.5,1.9 L411.9,7.7 C411.9,8 411.6,8.2 411.3,8.2 L405.6,8.2 L405.6,27 C405.6,27.3 405.4,27.5 405.1,27.5 L398.4,27.5 C398.1,27.5 397.8,27.2 397.8,27 L397.8,8.2 L391.5,8.2 C391.2,8.2 391,8 391,7.7 L391,2 C391,1.7 391.3,1.4 391.5,1.4 L412,1.4 Z" id="Shape"></path>
                        <path d="M421.1,1.4 C421.4,1.4 421.7,1.7 421.7,2 L421.7,27.1 C421.7,27.4 421.5,27.6 421.1,27.6 L414.4,27.6 C414.1,27.6 413.9,27.3 413.9,27.1 L413.9,2 C413.9,1.7 414.2,1.4 414.4,1.4 L421.1,1.4 Z" id="Shape"></path>
                        <path d="M446.9,27.2 C447.1,27.5 446.9,27.7 446.6,27.7 L437.8,27.7 C437.5,27.7 437.2,27.5 437,27.2 L432.3,17.7 L432.3,27.1 C432.3,27.4 432.1,27.6 431.7,27.6 L425,27.6 C424.7,27.6 424.5,27.3 424.5,27.1 L424.5,2 C424.5,1.7 424.8,1.4 425,1.4 L431.7,1.4 C432,1.4 432.3,1.7 432.3,2 L432.3,10.5 L436.9,1.9 C437.1,1.6 437.4,1.4 437.8,1.4 L446.1,1.4 C446.4,1.4 446.5,1.6 446.4,1.9 L438.9,13.9 L446.9,27.2 Z" id="Shape"></path>
                        <path d="M470.7,27.2 C470.9,27.5 470.7,27.7 470.4,27.7 L461.6,27.7 C461.3,27.7 461,27.5 460.8,27.2 L456.1,17.7 L456.1,27.1 C456.1,27.4 455.9,27.6 455.5,27.6 L448.8,27.6 C448.5,27.6 448.3,27.3 448.3,27.1 L448.3,2 C448.3,1.7 448.6,1.4 448.8,1.4 L455.5,1.4 C455.8,1.4 456.1,1.7 456.1,2 L456.1,10.5 L460.7,1.9 C460.9,1.6 461.2,1.4 461.6,1.4 L469.9,1.4 C470.2,1.4 470.3,1.6 470.2,1.9 L462.7,13.9 L470.7,27.2 Z" id="Shape"></path>
                    </g>
                </g>
            </g>
        </g>
    </g>
</svg>