<?xml version="1.0" encoding="UTF-8"?>
<svg width="790px" height="61px" viewBox="0 0 790 61" version="1.1" xmlns="http://www.w3.org/2000/svg" xmlns:xlink="http://www.w3.org/1999/xlink">
    <!-- Generator: Sketch 42 (36781) - http://www.bohemiancoding.com/sketch -->
    <title>SSB</title>
    <desc>Created with Sketch.</desc>
    <defs></defs>
    <g id="Page-1" stroke="none" stroke-width="1" fill="none" fill-rule="evenodd">
        <g id="Artboard" transform="translate(-7119.000000, -16037.000000)" fill-rule="nonzero">
            <g id="10_kilder-copy" transform="translate(7119.000000, 15829.000000)">
                <g id="SSB" transform="translate(0.000000, 208.000000)">
                    <g id="Shadow" fill="#3A5D81">
                        <path d="M4.8,45.6 C5,44.9 5.5,44.7 6,45.1 C9.1,46.9 12.8,48.2 15.4,48.4 C17.6,48.4 19,47.4 19,45.8 C19,41.8 0,42 0,27.2 C0,18.1 6.8,12.1 17.1,12.1 C21.9,12.1 28,14.1 32.3,17 C32.8,17.3 33,17.9 32.8,18.2 L28.5,27.8 C28.3,28.5 27.8,28.7 27.3,28.3 C24,26.4 20.1,25 17.7,24.8 C15.6,24.8 14.2,25.7 14.2,27.2 C14.2,31.2 33.4,30.9 33.4,45.8 C33.4,54.8 26.4,60.8 16,60.8 C10.3,60.8 4.3,59 1,56.3 C0.5,55.9 0.3,55.4 0.5,55.1 L4.8,45.6 Z" id="Shape"></path>
                        <path d="M72.3,13.1 C72.9,13.1 73.3,13.6 73.2,14 L72.2,24.3 C72.1,24.8 71.6,25.2 71.1,25.2 L61.1,25.2 L61.1,58.8 C61.1,59.3 60.7,59.7 60.2,59.7 L48.2,59.7 C47.7,59.7 47.2,59.2 47.2,58.8 L47.2,25.2 L35.9,25.2 C35.4,25.2 35,24.8 35,24.3 L35,14.1 C35,13.6 35.5,13.1 35.9,13.1 L72.3,13.1 L72.3,13.1 Z" id="Shape"></path>
                        <path d="M113.1,58.9 C113.3,59.3 113,59.8 112.5,59.8 L99.1,59.8 C98.5,59.8 97.9,59.5 97.7,58.9 L95.7,51.8 L82.9,51.8 L80.9,58.9 C80.6,59.4 80.1,59.8 79.5,59.8 L66,59.8 C65.5,59.8 65.2,59.3 65.4,58.9 L80.7,13.9 C80.9,13.5 81.6,13 82.3,13 L96.1,13 C96.8,13 97.5,13.5 97.7,13.9 L113.1,58.9 Z M89.3,29.3 L85.6,42.2 L92.9,42.2 L89.3,29.3 Z" id="Shape"></path>
                        <path d="M143.3,13.1 C143.9,13.1 144.3,13.6 144.2,14 L143.2,24.3 C143.1,24.8 142.6,25.2 142.1,25.2 L132,25.2 L132,58.8 C132,59.3 131.6,59.7 131.1,59.7 L119.1,59.7 C118.6,59.7 118.1,59.2 118.1,58.8 L118.1,25.2 L106.9,25.2 C106.4,25.2 106,24.8 106,24.3 L106,14.1 C106,13.6 106.5,13.1 106.9,13.1 L143.3,13.1 L143.3,13.1 Z" id="Shape"></path>
                        <path d="M159.7,13.1 C160.3,13.1 160.7,13.6 160.7,14.1 L160.7,58.9 C160.7,59.4 160.3,59.8 159.7,59.8 L147.7,59.8 C147.2,59.8 146.8,59.3 146.8,58.9 L146.8,14.1 C146.8,13.6 147.3,13.1 147.7,13.1 L159.7,13.1 L159.7,13.1 Z" id="Shape"></path>
                        <path d="M169.3,45.6 C169.5,44.9 170,44.7 170.5,45.1 C173.6,46.9 177.3,48.2 179.9,48.4 C182.1,48.4 183.5,47.4 183.5,45.8 C183.5,41.8 164.5,42 164.5,27.2 C164.5,18.1 171.3,12.1 181.6,12.1 C186.4,12.1 192.5,14.1 196.8,17 C197.3,17.3 197.5,17.9 197.3,18.2 L193,27.8 C192.8,28.5 192.3,28.7 191.8,28.3 C188.5,26.4 184.6,25 182.2,24.8 C180.1,24.8 178.7,25.7 178.7,27.2 C178.7,31.2 197.9,30.9 197.9,45.8 C197.9,54.8 190.9,60.8 180.5,60.8 C174.8,60.8 168.8,59 165.5,56.3 C165,55.9 164.8,55.4 165,55.1 L169.3,45.6 Z" id="Shape"></path>
                        <path d="M236.8,13.1 C237.4,13.1 237.8,13.6 237.7,14 L236.7,24.3 C236.6,24.8 236.1,25.2 235.6,25.2 L225.5,25.2 L225.5,58.8 C225.5,59.3 225.1,59.7 224.6,59.7 L212.6,59.7 C212.1,59.7 211.6,59.2 211.6,58.8 L211.6,25.2 L200.4,25.2 C199.9,25.2 199.5,24.8 199.5,24.3 L199.5,14.1 C199.5,13.6 200,13.1 200.4,13.1 L236.8,13.1 L236.8,13.1 Z" id="Shape"></path>
                        <path d="M253.1,13.1 C253.7,13.1 254.1,13.6 254.1,14.1 L254.1,58.9 C254.1,59.4 253.7,59.8 253.1,59.8 L241.1,59.8 C240.6,59.8 240.2,59.3 240.2,58.9 L240.2,14.1 C240.2,13.6 240.7,13.1 241.1,13.1 L253.1,13.1 L253.1,13.1 Z" id="Shape"></path>
                        <path d="M262.7,45.6 C262.9,44.9 263.4,44.7 263.9,45.1 C267,46.9 270.7,48.2 273.3,48.4 C275.5,48.4 276.9,47.4 276.9,45.8 C276.9,41.8 257.9,42 257.9,27.2 C257.9,18.1 264.7,12.1 275,12.1 C279.8,12.1 285.9,14.1 290.2,17 C290.7,17.3 290.9,17.9 290.7,18.2 L286.4,27.8 C286.2,28.5 285.7,28.7 285.2,28.3 C281.9,26.4 278,25 275.6,24.8 C273.5,24.8 272.1,25.7 272.1,27.2 C272.1,31.2 291.3,30.9 291.3,45.8 C291.3,54.8 284.3,60.8 273.9,60.8 C268.2,60.8 262.2,59 258.9,56.3 C258.4,55.9 258.2,55.4 258.4,55.1 L262.7,45.6 Z" id="Shape"></path>
                        <path d="M335.3,59 C335.6,59.5 335.4,59.8 334.8,59.8 L319.1,59.8 C318.6,59.8 317.9,59.5 317.7,59 L309.3,42.1 L309.3,58.9 C309.3,59.4 308.9,59.8 308.3,59.8 L296.3,59.8 C295.8,59.8 295.4,59.3 295.4,58.9 L295.4,14.1 C295.4,13.6 295.9,13.1 296.3,13.1 L308.3,13.1 C308.9,13.1 309.3,13.6 309.3,14.1 L309.3,29.3 L317.4,13.9 C317.7,13.4 318.3,13.1 319,13.1 L333.8,13.1 C334.3,13.1 334.5,13.4 334.3,13.9 L320.9,35.4 L335.3,59 Z" id="Shape"></path>
                        <path d="M350.4,45.6 C350.6,44.9 351.1,44.7 351.6,45.1 C354.7,46.9 358.4,48.2 361,48.4 C363.2,48.4 364.6,47.4 364.6,45.8 C364.6,41.8 345.6,42 345.6,27.2 C345.6,18.1 352.4,12.1 362.7,12.1 C367.5,12.1 373.6,14.1 377.9,17 C378.4,17.3 378.6,17.9 378.4,18.2 L374.1,27.8 C373.9,28.5 373.4,28.7 372.9,28.3 C369.6,26.4 365.7,25 363.3,24.8 C361.2,24.8 359.8,25.7 359.8,27.2 C359.8,31.2 379,30.9 379,45.8 C379,54.8 372,60.8 361.6,60.8 C355.9,60.8 349.9,59 346.6,56.3 C346.1,55.9 345.9,55.4 346.1,55.1 L350.4,45.6 Z" id="Shape"></path>
                        <path d="M415.4,47.6 C415.9,47.6 416.4,48 416.4,48.5 L416.4,58.9 C416.4,59.4 415.9,59.8 415.4,59.8 L383.9,59.8 C383.4,59.8 383,59.3 382.8,58.8 L382.8,14 C382.8,13.4 383.1,13.1 383.7,13.1 L414.5,13.1 C415.1,13.1 415.6,13.6 415.6,14 L415.6,24.2 C415.6,24.8 415.1,25.2 414.5,25.2 L396.8,25.2 L396.8,30.6 L411.2,30.6 C411.8,30.6 412.1,31.1 412.1,31.5 L411.2,41 C411.1,41.4 410.7,41.9 410,41.9 L396.9,41.9 L396.9,47.7 L415.4,47.7 L415.4,47.6 Z" id="Shape"></path>
                        <path d="M459.1,13.1 C459.7,13.1 460.1,13.6 460.1,14.1 L460.1,58.9 C460.1,59.4 459.7,59.8 459.1,59.8 L447.4,59.8 C446.9,59.8 446.3,59.5 446,58.9 L434.2,37.8 L434.2,58.8 C434.2,59.3 433.8,59.7 433.2,59.7 L421.2,59.7 C420.7,59.7 420.3,59.2 420.3,58.8 L420.3,14 C420.3,13.5 420.7,13 421.2,13 L432.9,13 C433.5,13 434.2,13.3 434.5,13.9 L446.2,35 L446.2,14.1 C446.2,13.6 446.7,13.1 447.1,13.1 L459.1,13.1 L459.1,13.1 Z" id="Shape"></path>
                        <path d="M499.9,13.1 C500.5,13.1 500.9,13.6 500.8,14 L499.8,24.3 C499.7,24.8 499.2,25.2 498.7,25.2 L488.6,25.2 L488.6,58.8 C488.6,59.3 488.2,59.7 487.7,59.7 L475.7,59.7 C475.2,59.7 474.7,59.2 474.7,58.8 L474.7,25.2 L463.5,25.2 C463,25.2 462.6,24.8 462.6,24.3 L462.6,14.1 C462.6,13.6 463.1,13.1 463.5,13.1 L499.9,13.1 L499.9,13.1 Z" id="Shape"></path>
                        <path d="M542,58.7 C542.3,59.3 541.9,59.8 541.3,59.8 L526.8,59.8 C526.1,59.8 525.5,59.3 525.2,58.7 L518.2,43.9 L517.4,43.9 L517.4,58.8 C517.4,59.3 516.9,59.7 516.3,59.7 L504.4,59.7 C503.9,59.7 503.4,59.2 503.4,58.8 L503.4,14 C503.4,13.5 503.9,13 504.4,13 L522.3,13 C532.7,13 539.6,19.1 539.6,28.3 C539.6,33.7 536.3,39.1 531.3,41.2 L542,58.7 Z M521.4,32.4 C523.7,32.4 525.3,31 525.3,28.8 C525.3,26.6 523.7,25.2 521.4,25.2 L517.4,25.2 L517.4,32.4 L521.4,32.4 Z" id="Shape"></path>
                        <path d="M588.8,58.9 C589,59.3 588.7,59.8 588.2,59.8 L574.8,59.8 C574.2,59.8 573.6,59.5 573.4,58.9 L571.4,51.8 L558.7,51.8 L556.7,58.9 C556.4,59.4 555.9,59.8 555.3,59.8 L541.9,59.8 C541.4,59.8 541.1,59.3 541.3,58.9 L556.6,13.9 C556.8,13.5 557.5,13 558.2,13 L572,13 C572.7,13 573.4,13.5 573.6,13.9 L588.8,58.9 Z M564.9,29.3 L561.2,42.2 L568.5,42.2 L564.9,29.3 Z" id="Shape"></path>
                        <path d="M616.8,47.6 C617.3,47.6 617.7,48 617.7,48.5 L616.8,58.8 C616.7,59.3 616.3,59.7 615.7,59.7 L591.2,59.7 C590.7,59.7 590.2,59.2 590.2,58.8 L590.2,14 C590.2,13.5 590.7,13 591.2,13 L603.2,13 C603.7,13 604.2,13.5 604.2,14 L604.2,47.5 L616.8,47.5 L616.8,47.6 Z" id="Shape"></path>
                        <path d="M641.8,13.1 C650.7,13.1 656.6,18.4 656.6,26.3 C656.6,31.2 654.2,34.8 650.6,35.9 C654.9,37 657.6,41.1 657.6,46.7 C657.6,54.6 651.7,59.9 642.9,59.9 L621.4,59.9 C620.9,59.9 620.5,59.4 620.5,59 L620.5,14.2 C620.5,13.7 620.9,13.2 621.4,13.2 L641.8,13.2 L641.8,13.1 Z M638.7,31.4 C640.7,31.4 642.1,30.2 642.1,28.3 C642.1,26.4 640.7,25.2 638.7,25.2 L634.4,25.2 L634.4,31.4 L638.7,31.4 Z M639.9,47.7 C641.9,47.7 643.2,46.4 643.2,44.4 C643.2,42.4 641.8,41.1 639.9,41.1 L634.4,41.1 L634.4,47.6 L639.9,47.6 L639.9,47.7 Z" id="Shape"></path>
                        <path d="M699.2,13.1 C699.8,13.1 700.3,13.6 699.9,14.2 L684.9,41.2 L684.9,59 C684.9,59.5 684.4,59.9 683.9,59.9 L672,59.9 C671.5,59.9 671,59.4 671,59 L671,41.2 L656,14.2 C655.7,13.6 656.1,13.1 656.7,13.1 L670.8,13.1 C671.5,13.1 672.1,13.6 672.4,14.2 L678,26.4 L683.6,14.2 C683.9,13.6 684.5,13.1 685.2,13.1 L699.2,13.1 Z" id="Shape"></path>
                        <path d="M740.6,58.7 C740.9,59.3 740.5,59.8 739.9,59.8 L725.4,59.8 C724.7,59.8 724.1,59.3 723.8,58.7 L716.8,43.9 L716,43.9 L716,58.8 C716,59.3 715.5,59.7 714.9,59.7 L703,59.7 C702.5,59.7 702,59.2 702,58.8 L702,14 C702,13.5 702.5,13 703,13 L720.9,13 C731.3,13 738.2,19.1 738.2,28.3 C738.2,33.7 734.9,39.1 729.9,41.2 L740.6,58.7 Z M719.9,32.4 C722.2,32.4 723.8,31 723.8,28.8 C723.8,26.6 722.2,25.2 719.9,25.2 L715.9,25.2 L715.9,32.4 L719.9,32.4 Z" id="Shape"></path>
                        <path d="M787.4,58.9 C787.6,59.3 787.3,59.8 786.8,59.8 L773.4,59.8 C772.8,59.8 772.2,59.5 772,58.9 L770,51.8 L757.3,51.8 L755.3,58.9 C755,59.4 754.5,59.8 753.9,59.8 L740.5,59.8 C740,59.8 739.7,59.3 739.9,58.9 L755.2,13.9 C755.4,13.5 756.1,13 756.8,13 L762.4,13 C759.6,12.4 757.4,9.9 757.4,6.9 C757.4,3.4 760.2,0.5 763.7,0.5 C767.2,0.5 770,3.3 770,6.9 C770,9.9 767.8,12.4 765,13 L770.6,13 C771.3,13 772,13.5 772.2,13.9 L787.4,58.9 Z M763.5,29.3 L759.8,42.2 L767.1,42.2 L763.5,29.3 Z M763.5,9.3 C764.9,9.3 766.1,8.2 766.1,6.9 C766.1,5.5 764.9,4.4 763.5,4.4 C762.1,4.4 761,5.5 761,6.9 C761,8.2 762.1,9.3 763.5,9.3 Z" id="Shape"></path>
                    </g>
                    <g id="Group" transform="translate(1.000000, 0.000000)" fill="#FFF6EB">
                        <path d="M5.6,45.6 C5.8,44.9 6.3,44.7 6.8,45.1 C9.9,46.9 13.6,48.2 16.2,48.4 C18.4,48.4 19.8,47.4 19.8,45.8 C19.8,41.8 0.8,42 0.8,27.2 C0.8,18.1 7.6,12.1 17.9,12.1 C22.7,12.1 28.8,14.1 33.1,17 C33.6,17.3 33.8,17.9 33.6,18.2 L29.3,27.8 C29.1,28.5 28.6,28.7 28.1,28.3 C24.8,26.4 20.9,25 18.5,24.8 C16.4,24.8 15,25.7 15,27.2 C15,31.2 34.2,30.9 34.2,45.8 C34.2,54.8 27.2,60.8 16.8,60.8 C11.1,60.8 5.1,59 1.8,56.3 C1.3,55.9 1.1,55.4 1.3,55.1 L5.6,45.6 Z" id="Shape"></path>
                        <path d="M73.1,13.1 C73.7,13.1 74.1,13.6 74,14 L73,24.3 C72.9,24.8 72.4,25.2 71.9,25.2 L61.9,25.2 L61.9,58.8 C61.9,59.3 61.5,59.7 61,59.7 L49,59.7 C48.5,59.7 48,59.2 48,58.8 L48,25.2 L36.7,25.2 C36.2,25.2 35.8,24.8 35.8,24.3 L35.8,14.1 C35.8,13.6 36.3,13.1 36.7,13.1 L73.1,13.1 L73.1,13.1 Z" id="Shape"></path>
                        <path d="M113.9,58.9 C114.1,59.3 113.8,59.8 113.3,59.8 L99.9,59.8 C99.3,59.8 98.7,59.5 98.5,58.9 L96.5,51.8 L83.7,51.8 L81.7,58.9 C81.4,59.4 80.9,59.8 80.3,59.8 L66.8,59.8 C66.3,59.8 66,59.3 66.2,58.9 L81.5,13.9 C81.7,13.5 82.4,13 83.1,13 L97,13 C97.7,13 98.4,13.5 98.6,13.9 L113.9,58.9 Z M90.1,29.3 L86.4,42.2 L93.7,42.2 L90.1,29.3 Z" id="Shape"></path>
                        <path d="M144.2,13.1 C144.8,13.1 145.2,13.6 145.1,14 L144.1,24.3 C144,24.8 143.5,25.2 143,25.2 L132.9,25.2 L132.9,58.8 C132.9,59.3 132.5,59.7 132,59.7 L120,59.7 C119.5,59.7 119,59.2 119,58.8 L119,25.2 L107.8,25.2 C107.3,25.2 106.9,24.8 106.9,24.3 L106.9,14.1 C106.9,13.6 107.4,13.1 107.8,13.1 L144.2,13.1 L144.2,13.1 Z" id="Shape"></path>
                        <path d="M160.5,13.1 C161.1,13.1 161.5,13.6 161.5,14.1 L161.5,58.9 C161.5,59.4 161.1,59.8 160.5,59.8 L148.5,59.8 C148,59.8 147.6,59.3 147.6,58.9 L147.6,14.1 C147.6,13.6 148.1,13.1 148.5,13.1 L160.5,13.1 L160.5,13.1 Z" id="Shape"></path>
                        <path d="M170.1,45.6 C170.3,44.9 170.8,44.7 171.3,45.1 C174.4,46.9 178.1,48.2 180.7,48.4 C182.9,48.4 184.3,47.4 184.3,45.8 C184.3,41.8 165.3,42 165.3,27.2 C165.3,18.1 172.1,12.1 182.4,12.1 C187.2,12.1 193.3,14.1 197.6,17 C198.1,17.3 198.3,17.9 198.1,18.2 L193.8,27.8 C193.6,28.5 193.1,28.7 192.6,28.3 C189.3,26.4 185.4,25 183,24.8 C180.9,24.8 179.5,25.7 179.5,27.2 C179.5,31.2 198.7,30.9 198.7,45.8 C198.7,54.8 191.7,60.8 181.3,60.8 C175.6,60.8 169.6,59 166.3,56.3 C165.8,55.9 165.6,55.4 165.8,55.1 L170.1,45.6 Z" id="Shape"></path>
                        <path d="M237.6,13.1 C238.2,13.1 238.6,13.6 238.5,14 L237.5,24.3 C237.4,24.8 236.9,25.2 236.4,25.2 L226.3,25.2 L226.3,58.8 C226.3,59.3 225.9,59.7 225.4,59.7 L213.4,59.7 C212.9,59.7 212.4,59.2 212.4,58.8 L212.4,25.2 L201.2,25.2 C200.7,25.2 200.3,24.8 200.3,24.3 L200.3,14.1 C200.3,13.6 200.8,13.1 201.2,13.1 L237.6,13.1 L237.6,13.1 Z" id="Shape"></path>
                        <path d="M253.9,13.1 C254.5,13.1 254.9,13.6 254.9,14.1 L254.9,58.9 C254.9,59.4 254.5,59.8 253.9,59.8 L241.9,59.8 C241.4,59.8 241,59.3 241,58.9 L241,14.1 C241,13.6 241.5,13.1 241.9,13.1 L253.9,13.1 L253.9,13.1 Z" id="Shape"></path>
                        <path d="M263.6,45.6 C263.8,44.9 264.3,44.7 264.8,45.1 C267.9,46.9 271.6,48.2 274.2,48.4 C276.4,48.4 277.8,47.4 277.8,45.8 C277.8,41.8 258.8,42 258.8,27.2 C258.8,18.1 265.6,12.1 275.9,12.1 C280.7,12.1 286.8,14.1 291.1,17 C291.6,17.3 291.8,17.9 291.6,18.2 L287.3,27.8 C287.1,28.5 286.6,28.7 286.1,28.3 C282.8,26.4 278.9,25 276.5,24.8 C274.4,24.8 273,25.7 273,27.2 C273,31.2 292.2,30.9 292.2,45.8 C292.2,54.8 285.2,60.8 274.8,60.8 C269.1,60.8 263.1,59 259.8,56.3 C259.3,55.9 259.1,55.4 259.3,55.1 L263.6,45.6 Z" id="Shape"></path>
                        <path d="M336.1,59 C336.4,59.5 336.2,59.8 335.6,59.8 L319.9,59.8 C319.4,59.8 318.7,59.5 318.5,59 L310.1,42.1 L310.1,58.9 C310.1,59.4 309.7,59.8 309.1,59.8 L297.1,59.8 C296.6,59.8 296.2,59.3 296.2,58.9 L296.2,14.1 C296.2,13.6 296.7,13.1 297.1,13.1 L309.1,13.1 C309.7,13.1 310.1,13.6 310.1,14.1 L310.1,29.3 L318.2,13.9 C318.5,13.4 319.1,13.1 319.8,13.1 L334.6,13.1 C335.1,13.1 335.3,13.4 335.1,13.9 L321.7,35.4 L336.1,59 Z" id="Shape"></path>
                        <path d="M351.2,45.6 C351.4,44.9 351.9,44.7 352.4,45.1 C355.5,46.9 359.2,48.2 361.8,48.4 C364,48.4 365.4,47.4 365.4,45.8 C365.4,41.8 346.4,42 346.4,27.2 C346.4,18.1 353.2,12.1 363.5,12.1 C368.3,12.1 374.4,14.1 378.7,17 C379.2,17.3 379.4,17.9 379.2,18.2 L374.9,27.8 C374.7,28.5 374.2,28.7 373.7,28.3 C370.4,26.4 366.5,25 364.1,24.8 C362,24.8 360.6,25.7 360.6,27.2 C360.6,31.2 379.8,30.9 379.8,45.8 C379.8,54.8 372.8,60.8 362.4,60.8 C356.7,60.8 350.7,59 347.4,56.3 C346.9,55.9 346.7,55.4 346.9,55.1 L351.2,45.6 Z" id="Shape"></path>
                        <path d="M416.2,47.6 C416.7,47.6 417.2,48 417.2,48.5 L417.2,58.9 C417.2,59.4 416.7,59.8 416.2,59.8 L384.7,59.8 C384.2,59.8 383.8,59.3 383.6,58.8 L383.6,14 C383.6,13.4 383.9,13.1 384.5,13.1 L415.3,13.1 C415.9,13.1 416.4,13.6 416.4,14 L416.4,24.2 C416.4,24.8 415.9,25.2 415.3,25.2 L397.6,25.2 L397.6,30.6 L412,30.6 C412.6,30.6 412.9,31.1 412.9,31.5 L412,41 C411.9,41.4 411.5,41.9 410.8,41.9 L397.7,41.9 L397.7,47.7 L416.2,47.7 L416.2,47.6 Z" id="Shape"></path>
                        <path d="M459.9,13.1 C460.5,13.1 460.9,13.6 460.9,14.1 L460.9,58.9 C460.9,59.4 460.5,59.8 459.9,59.8 L448.2,59.8 C447.7,59.8 447.1,59.5 446.8,58.9 L435,37.9 L435,58.9 C435,59.4 434.6,59.8 434,59.8 L422,59.8 C421.5,59.8 421.1,59.3 421.1,58.9 L421.1,14.1 C421.1,13.6 421.5,13.1 422,13.1 L433.7,13.1 C434.3,13.1 435,13.4 435.3,14 L447,35.1 L447,14.2 C447,13.7 447.5,13.2 447.9,13.2 L459.9,13.2 L459.9,13.1 Z" id="Shape"></path>
                        <path d="M500.8,13.1 C501.4,13.1 501.8,13.6 501.7,14 L500.7,24.3 C500.6,24.8 500.1,25.2 499.6,25.2 L489.5,25.2 L489.5,58.8 C489.5,59.3 489.1,59.7 488.6,59.7 L476.6,59.7 C476.1,59.7 475.6,59.2 475.6,58.8 L475.6,25.2 L464.4,25.2 C463.9,25.2 463.5,24.8 463.5,24.3 L463.5,14.1 C463.5,13.6 464,13.1 464.4,13.1 L500.8,13.1 L500.8,13.1 Z" id="Shape"></path>
                        <path d="M542.8,58.7 C543.1,59.3 542.7,59.8 542.1,59.8 L527.6,59.8 C526.9,59.8 526.3,59.3 526,58.7 L519,43.9 L518.2,43.9 L518.2,58.8 C518.2,59.3 517.7,59.7 517.1,59.7 L505.2,59.7 C504.7,59.7 504.2,59.2 504.2,58.8 L504.2,14 C504.2,13.5 504.7,13 505.2,13 L523.1,13 C533.5,13 540.4,19.1 540.4,28.3 C540.4,33.7 537.1,39.1 532.1,41.2 L542.8,58.7 Z M522.2,32.4 C524.5,32.4 526.1,31 526.1,28.8 C526.1,26.6 524.5,25.2 522.2,25.2 L518.2,25.2 L518.2,32.4 L522.2,32.4 Z" id="Shape"></path>
                        <path d="M589.6,58.9 C589.8,59.3 589.5,59.8 589,59.8 L575.6,59.8 C575,59.8 574.4,59.5 574.2,58.9 L572.2,51.8 L559.5,51.8 L557.5,58.9 C557.2,59.4 556.7,59.8 556.1,59.8 L542.7,59.8 C542.2,59.8 541.9,59.3 542.1,58.9 L557.4,13.9 C557.6,13.5 558.3,13 559,13 L572.8,13 C573.5,13 574.2,13.5 574.4,13.9 L589.6,58.9 Z M565.8,29.3 L562.1,42.2 L569.4,42.2 L565.8,29.3 Z" id="Shape"></path>
                        <path d="M617.6,47.6 C618.1,47.6 618.5,48 618.5,48.5 L617.6,58.8 C617.5,59.3 617.1,59.7 616.5,59.7 L592,59.7 C591.5,59.7 591,59.2 591,58.8 L591,14 C591,13.5 591.5,13 592,13 L604,13 C604.5,13 605,13.5 605,14 L605,47.5 L617.6,47.5 L617.6,47.6 Z" id="Shape"></path>
                        <path d="M642.7,13.1 C651.6,13.1 657.5,18.4 657.5,26.3 C657.5,31.2 655.1,34.8 651.5,35.9 C655.8,37 658.5,41.1 658.5,46.7 C658.5,54.6 652.6,59.9 643.8,59.9 L622.3,59.9 C621.8,59.9 621.4,59.4 621.4,59 L621.4,14.2 C621.4,13.7 621.8,13.2 622.3,13.2 L642.7,13.2 L642.7,13.1 Z M639.6,31.4 C641.6,31.4 643,30.2 643,28.3 C643,26.4 641.6,25.2 639.6,25.2 L635.3,25.2 L635.3,31.4 L639.6,31.4 Z M640.8,47.7 C642.8,47.7 644.1,46.4 644.1,44.4 C644.1,42.4 642.7,41.1 640.8,41.1 L635.3,41.1 L635.3,47.6 L640.8,47.6 L640.8,47.7 Z" id="Shape"></path>
                        <path d="M700.1,13.1 C700.7,13.1 701.2,13.6 700.8,14.2 L685.8,41.2 L685.8,59 C685.8,59.5 685.3,59.9 684.8,59.9 L672.9,59.9 C672.4,59.9 671.9,59.4 671.9,59 L671.9,41.2 L656.9,14.2 C656.6,13.6 657,13.1 657.6,13.1 L671.7,13.1 C672.4,13.1 673,13.6 673.3,14.2 L678.9,26.4 L684.5,14.2 C684.8,13.6 685.4,13.1 686.1,13.1 L700.1,13.1 Z" id="Shape"></path>
                        <path d="M741.4,58.7 C741.7,59.3 741.3,59.8 740.7,59.8 L726.2,59.8 C725.5,59.8 724.9,59.3 724.6,58.7 L717.6,43.9 L716.8,43.9 L716.8,58.8 C716.8,59.3 716.3,59.7 715.7,59.7 L703.8,59.7 C703.3,59.7 702.8,59.2 702.8,58.8 L702.8,14 C702.8,13.5 703.3,13 703.8,13 L721.7,13 C732.1,13 739,19.1 739,28.3 C739,33.7 735.7,39.1 730.7,41.2 L741.4,58.7 Z M720.7,32.4 C723,32.4 724.6,31 724.6,28.8 C724.6,26.6 723,25.2 720.7,25.2 L716.7,25.2 L716.7,32.4 L720.7,32.4 Z" id="Shape"></path>
                        <path d="M788.2,58.9 C788.4,59.3 788.1,59.8 787.6,59.8 L774.2,59.8 C773.6,59.8 773,59.5 772.8,58.9 L770.8,51.8 L758.1,51.8 L756.1,58.9 C755.8,59.4 755.3,59.8 754.7,59.8 L741.3,59.8 C740.8,59.8 740.5,59.3 740.7,58.9 L756,13.9 C756.2,13.5 756.9,13 757.6,13 L763.2,13 C760.4,12.4 758.2,9.9 758.2,6.9 C758.2,3.4 761,0.5 764.5,0.5 C768,0.5 770.8,3.3 770.8,6.9 C770.8,9.9 768.6,12.4 765.8,13 L771.4,13 C772.1,13 772.8,13.5 773,13.9 L788.2,58.9 Z M764.3,29.3 L760.6,42.2 L767.9,42.2 L764.3,29.3 Z M764.3,9.3 C765.7,9.3 766.9,8.2 766.9,6.9 C766.9,5.5 765.7,4.4 764.3,4.4 C762.9,4.4 761.8,5.5 761.8,6.9 C761.8,8.2 762.9,9.3 764.3,9.3 Z" id="Shape"></path>
                    </g>
                </g>
            </g>
        </g>
    </g>
</svg>