<?xml version="1.0" encoding="UTF-8"?>
<svg width="236px" height="25px" viewBox="0 0 236 25" version="1.1" xmlns="http://www.w3.org/2000/svg" xmlns:xlink="http://www.w3.org/1999/xlink">
    <!-- Generator: Sketch 42 (36781) - http://www.bohemiancoding.com/sketch -->
    <title>Sugar Coated</title>
    <desc>Created with Sketch.</desc>
    <defs></defs>
    <g id="Page-1" stroke="none" stroke-width="1" fill="none" fill-rule="evenodd">
        <g id="Artboard" transform="translate(-7397.000000, -15995.000000)">
            <g id="10_kilder-copy" transform="translate(7119.000000, 15829.000000)">
                <g id="Sugar-Coated" transform="translate(278.000000, 135.000000)">
                    <rect id="Rectangle-path" x="1" y="0.3" width="234.2" height="85.8"></rect>
                    <g id="Shadow" transform="translate(0.000000, 31.000000)" fill-rule="nonzero" fill="#3A5D81">
                        <path d="M3.4,17.2 C3.5,16.9 3.7,16.8 4,16.9 C5.6,17.8 7.4,18.4 8.7,18.5 C9.8,18.5 10.5,18 10.5,17.2 C10.5,15.2 0.9,15.3 0.9,7.9 C0.9,3.3 4.3,0.3 9.5,0.3 C11.9,0.3 15,1.3 17.1,2.7 C17.4,2.9 17.5,3.1 17.4,3.3 L15.3,8.1 C15.2,8.4 15,8.5 14.7,8.4 C13,7.4 11.1,6.7 9.9,6.6 C8.8,6.6 8.2,7.1 8.2,7.8 C8.2,9.8 17.8,9.7 17.8,17.1 C17.8,21.6 14.3,24.6 9.1,24.6 C6.2,24.6 3.3,23.7 1.6,22.4 C1.3,22.2 1.2,22 1.3,21.8 L3.4,17.2 Z" id="Shape"></path>
                        <path d="M37.8,0.9 C38.1,0.9 38.4,1.2 38.4,1.5 L38.4,15.7 C38.4,21.7 35.2,24.9 29,24.9 C22.9,24.9 19.7,21.7 19.6,15.7 L19.6,1.5 C19.6,1.2 19.9,0.9 20.2,0.9 L26,0.9 C26.3,0.9 26.6,1.2 26.6,1.5 L26.6,16.3 C26.6,17.9 27.5,18.8 29,18.8 C30.5,18.8 31.4,17.9 31.4,16.4 L31.4,1.6 C31.4,1.3 31.7,1 32,1 L37.8,1 L37.8,0.9 Z" id="Shape"></path>
                        <path d="M60.6,10 C60.9,10 61.1,10.2 61.1,10.5 L61.1,21.3 C61.1,21.6 60.9,21.9 60.7,22.1 C58.7,23.8 55.5,24.9 52.3,24.9 C45,24.9 40.1,20 40.1,12.7 C40.1,5.4 45,0.5 52.3,0.5 C54.8,0.5 57.5,1.2 59.4,2.5 C59.7,2.6 59.8,2.9 59.7,3.1 L58,8.1 C57.9,8.3 57.7,8.4 57.4,8.4 C56,7.7 54.2,7.2 52.5,7.2 C49.4,7.2 47.3,9.4 47.3,12.8 C47.3,16.2 49.4,18.4 52.5,18.4 C53.8,18.4 54.6,18.2 55,17.8 L55,15.8 L51.9,15.8 C51.6,15.8 51.4,15.7 51.4,15.4 L51,10.7 C51,10.4 51.2,10.1 51.5,10.1 L60.6,10.1 L60.6,10 Z M55.2,17.1 L55.2,17.2 L55.2,17.1 Z" id="Shape"></path>
                        <path d="M85.5,23.9 C85.6,24.1 85.5,24.3 85.2,24.3 L78.5,24.3 C78.2,24.3 77.9,24.1 77.8,23.9 L76.8,20.3 L70.4,20.3 L69.4,23.9 C69.3,24.2 69,24.3 68.7,24.3 L62,24.3 C61.7,24.3 61.6,24.1 61.7,23.9 L69.4,1.3 C69.5,1.1 69.9,0.9 70.2,0.9 L77.1,0.9 C77.4,0.9 77.8,1.1 77.9,1.3 L85.5,23.9 Z M73.6,9 L71.8,15.5 L75.5,15.5 L73.6,9 Z" id="Shape"></path>
                        <path d="M105.6,23.8 C105.8,24.1 105.5,24.3 105.2,24.3 L98,24.3 C97.7,24.3 97.4,24.1 97.2,23.8 L93.7,16.4 L93.3,16.4 L93.3,23.9 C93.3,24.1 93.1,24.4 92.8,24.4 L86.8,24.4 C86.5,24.4 86.3,24.2 86.3,23.9 L86.3,1.4 C86.3,1.1 86.5,0.9 86.8,0.9 L95.8,0.9 C101,0.9 104.5,4 104.5,8.6 C104.5,11.3 102.9,14 100.3,15.1 L105.6,23.8 Z M95.2,10.6 C96.4,10.6 97.1,9.9 97.1,8.8 C97.1,7.7 96.3,7 95.2,7 L93.2,7 L93.2,10.6 L95.2,10.6 L95.2,10.6 Z" id="Shape"></path>
                        <path d="M129.9,22.3 C130,22.5 129.9,22.8 129.6,22.9 C127.6,24.1 125,24.9 122.5,24.9 C115.5,24.9 110.8,20 110.8,12.7 C110.8,5.4 115.5,0.5 122.5,0.5 C125,0.5 127.7,1.2 129.6,2.5 C129.9,2.6 130,2.9 129.9,3.1 L127.7,7.8 C127.6,8.1 127.3,8.2 127.1,8.1 C125.8,7.4 124.6,7.1 123.2,7.1 C120.1,7.1 118.1,9.3 118.1,12.7 C118.1,16.1 120.1,18.3 123.2,18.3 C124.7,18.3 125.9,18.1 127.1,17.3 C127.4,17.2 127.6,17.3 127.7,17.6 L129.9,22.3 Z" id="Shape"></path>
                        <path d="M142.5,24.8 C135.3,24.8 130.4,19.9 130.4,12.6 C130.4,5.2 135.2,0.3 142.5,0.3 C149.8,0.3 154.6,5.2 154.6,12.6 C154.6,19.9 149.7,24.8 142.5,24.8 Z M142.5,7.2 C139.7,7.2 137.8,9.4 137.8,12.6 C137.8,15.8 139.7,18 142.5,18 C145.3,18 147.2,15.8 147.2,12.6 C147.2,9.4 145.3,7.2 142.5,7.2 Z" id="Shape"></path>
                        <path d="M177.5,23.9 C177.6,24.1 177.5,24.3 177.2,24.3 L170.5,24.3 C170.2,24.3 169.9,24.1 169.8,23.9 L168.8,20.3 L162.4,20.3 L161.4,23.9 C161.3,24.2 161,24.3 160.7,24.3 L154,24.3 C153.7,24.3 153.6,24.1 153.7,23.9 L161.4,1.3 C161.5,1.1 161.9,0.9 162.2,0.9 L169.1,0.9 C169.4,0.9 169.8,1.1 169.9,1.3 L177.5,23.9 Z M165.6,9 L163.8,15.5 L167.5,15.5 L165.6,9 Z" id="Shape"></path>
                        <path d="M192.7,0.9 C193,0.9 193.2,1.1 193.2,1.4 L192.7,6.6 C192.7,6.9 192.4,7.1 192.2,7.1 L187,7.1 L187,24 C187,24.2 186.8,24.5 186.5,24.5 L180.5,24.5 C180.2,24.5 180,24.3 180,24 L180,7 L174.4,7 C174.2,7 173.9,6.8 173.9,6.5 L173.9,1.4 C173.9,1.1 174.1,0.9 174.4,0.9 L192.7,0.9 Z" id="Shape"></path>
                        <path d="M210.7,18.2 C211,18.2 211.2,18.4 211.2,18.6 L211.2,23.8 C211.2,24 211,24.3 210.7,24.3 L194.9,24.3 C194.7,24.3 194.4,24 194.4,23.8 L194.4,1.3 C194.4,1 194.6,0.8 194.9,0.8 L210.4,0.8 C210.7,0.8 210.9,1 210.9,1.3 L210.9,6.4 C210.9,6.7 210.7,6.9 210.4,6.9 L201.5,6.9 L201.5,9.6 L208.7,9.6 C209,9.6 209.2,9.8 209.1,10 L208.6,14.8 C208.6,15 208.3,15.2 208,15.2 L201.4,15.2 L201.4,18.1 L210.7,18.1 L210.7,18.2 Z" id="Shape"></path>
                        <path d="M221.5,0.9 C228.7,0.9 233.5,5.6 233.5,12.6 C233.5,19.6 228.7,24.3 221.5,24.3 L213.6,24.3 C213.4,24.3 213.1,24.1 213.1,23.8 L213.1,1.4 C213.1,1.1 213.3,0.9 213.6,0.9 L221.5,0.9 L221.5,0.9 Z M221.9,18.2 C224.5,18.2 226.3,16 226.3,12.6 C226.3,9.2 224.5,7 221.9,7 L220.1,7 L220.1,18.2 L221.9,18.2 Z" id="Shape"></path>
                    </g>
                    <g id="Group" transform="translate(2.000000, 31.000000)" fill-rule="nonzero" fill="#FFF6EB">
                        <path d="M3.3,17.2 C3.4,16.9 3.6,16.8 3.9,16.9 C5.5,17.8 7.3,18.4 8.6,18.5 C9.7,18.5 10.4,18 10.4,17.2 C10.4,15.2 0.8,15.3 0.8,7.9 C0.8,3.3 4.2,0.3 9.4,0.3 C11.8,0.3 14.9,1.3 17,2.7 C17.3,2.9 17.4,3.1 17.3,3.3 L15.2,8.1 C15.1,8.4 14.9,8.5 14.6,8.4 C12.9,7.4 11,6.7 9.8,6.6 C8.7,6.6 8.1,7.1 8.1,7.8 C8.1,9.8 17.7,9.7 17.7,17.1 C17.7,21.6 14.2,24.6 9,24.6 C6.1,24.6 3.2,23.7 1.5,22.4 C1.2,22.2 1.1,22 1.2,21.8 L3.3,17.2 Z" id="Shape"></path>
                        <path d="M37.6,0.9 C37.9,0.9 38.2,1.2 38.2,1.5 L38.2,15.7 C38.2,21.7 35,24.9 28.8,24.9 C22.7,24.9 19.5,21.7 19.4,15.7 L19.4,1.5 C19.4,1.2 19.7,0.9 20,0.9 L25.8,0.9 C26.1,0.9 26.4,1.2 26.4,1.5 L26.4,16.3 C26.4,17.9 27.3,18.8 28.8,18.8 C30.3,18.8 31.2,17.9 31.2,16.4 L31.2,1.6 C31.2,1.3 31.5,1 31.8,1 L37.6,1 L37.6,0.9 Z" id="Shape"></path>
                        <path d="M60.4,10 C60.7,10 60.9,10.2 60.9,10.5 L60.9,21.3 C60.9,21.6 60.7,21.9 60.5,22.1 C58.5,23.8 55.3,24.9 52.1,24.9 C44.8,24.9 39.9,20 39.9,12.7 C39.9,5.4 44.8,0.5 52.1,0.5 C54.6,0.5 57.3,1.2 59.2,2.5 C59.5,2.6 59.6,2.9 59.5,3.1 L57.8,8.1 C57.7,8.3 57.5,8.4 57.2,8.4 C55.8,7.7 54,7.2 52.3,7.2 C49.2,7.2 47.1,9.4 47.1,12.8 C47.1,16.2 49.2,18.4 52.3,18.4 C53.6,18.4 54.4,18.2 54.8,17.8 L54.8,15.8 L51.7,15.8 C51.4,15.8 51.2,15.7 51.2,15.4 L50.8,10.7 C50.8,10.4 51,10.1 51.3,10.1 L60.4,10.1 L60.4,10 Z M55,17.1 L55,17.2 L55,17.1 Z" id="Shape"></path>
                        <path d="M85.3,23.9 C85.4,24.1 85.3,24.3 85,24.3 L78.3,24.3 C78,24.3 77.7,24.1 77.6,23.9 L76.6,20.3 L70.2,20.3 L69.2,23.9 C69.1,24.2 68.8,24.3 68.5,24.3 L61.8,24.3 C61.5,24.3 61.4,24.1 61.5,23.9 L69.2,1.3 C69.3,1.1 69.7,0.9 70,0.9 L76.9,0.9 C77.2,0.9 77.6,1.1 77.7,1.3 L85.3,23.9 Z M73.4,9 L71.6,15.5 L75.3,15.5 L73.4,9 Z" id="Shape"></path>
                        <path d="M105.4,23.8 C105.6,24.1 105.3,24.3 105,24.3 L97.7,24.3 C97.4,24.3 97.1,24.1 96.9,23.8 L93.4,16.4 L93,16.4 L93,23.9 C93,24.1 92.8,24.4 92.5,24.4 L86.5,24.4 C86.2,24.4 86,24.2 86,23.9 L86,1.4 C86,1.1 86.2,0.9 86.5,0.9 L95.5,0.9 C100.7,0.9 104.2,4 104.2,8.6 C104.2,11.3 102.6,14 100,15.1 L105.4,23.8 Z M95.1,10.6 C96.3,10.6 97,9.9 97,8.8 C97,7.7 96.2,7 95.1,7 L93.1,7 L93.1,10.6 L95.1,10.6 L95.1,10.6 Z" id="Shape"></path>
                        <path d="M129.7,22.3 C129.8,22.5 129.7,22.8 129.4,22.9 C127.4,24.1 124.8,24.9 122.3,24.9 C115.3,24.9 110.6,20 110.6,12.7 C110.6,5.4 115.3,0.5 122.3,0.5 C124.8,0.5 127.5,1.2 129.4,2.5 C129.7,2.6 129.8,2.9 129.7,3.1 L127.5,7.8 C127.4,8.1 127.1,8.2 126.9,8.1 C125.6,7.4 124.4,7.1 123,7.1 C119.9,7.1 117.9,9.3 117.9,12.7 C117.9,16.1 119.9,18.3 123,18.3 C124.5,18.3 125.7,18.1 126.9,17.3 C127.2,17.2 127.4,17.3 127.5,17.6 L129.7,22.3 Z" id="Shape"></path>
                        <path d="M142.3,24.8 C135.1,24.8 130.2,19.9 130.2,12.6 C130.2,5.2 135,0.3 142.3,0.3 C149.6,0.3 154.4,5.2 154.4,12.6 C154.4,19.9 149.6,24.8 142.3,24.8 Z M142.3,7.2 C139.5,7.2 137.6,9.4 137.6,12.6 C137.6,15.8 139.5,18 142.3,18 C145.1,18 147,15.8 147,12.6 C147,9.4 145.1,7.2 142.3,7.2 Z" id="Shape"></path>
                        <path d="M177.3,23.9 C177.4,24.1 177.3,24.3 177,24.3 L170.3,24.3 C170,24.3 169.7,24.1 169.6,23.9 L168.6,20.3 L162.2,20.3 L161.2,23.9 C161.1,24.2 160.8,24.3 160.5,24.3 L153.8,24.3 C153.5,24.3 153.4,24.1 153.5,23.9 L161.2,1.3 C161.3,1.1 161.7,0.9 162,0.9 L168.9,0.9 C169.2,0.9 169.6,1.1 169.7,1.3 L177.3,23.9 Z M165.4,9 L163.6,15.5 L167.3,15.5 L165.4,9 Z" id="Shape"></path>
                        <path d="M192.5,0.9 C192.8,0.9 193,1.1 193,1.4 L192.5,6.6 C192.5,6.9 192.2,7.1 192,7.1 L186.9,7.1 L186.9,24 C186.9,24.2 186.7,24.5 186.4,24.5 L180.4,24.5 C180.1,24.5 179.9,24.3 179.9,24 L179.9,7 L174.3,7 C174.1,7 173.8,6.8 173.8,6.5 L173.8,1.4 C173.8,1.1 174,0.9 174.3,0.9 L192.5,0.9 Z" id="Shape"></path>
                        <path d="M210.5,18.2 C210.8,18.2 211,18.4 211,18.6 L211,23.8 C211,24 210.8,24.3 210.5,24.3 L194.7,24.3 C194.5,24.3 194.2,24 194.2,23.8 L194.2,1.3 C194.2,1 194.4,0.8 194.7,0.8 L210.2,0.8 C210.5,0.8 210.7,1 210.7,1.3 L210.7,6.4 C210.7,6.7 210.5,6.9 210.2,6.9 L201.3,6.9 L201.3,9.6 L208.5,9.6 C208.8,9.6 209,9.8 208.9,10 L208.4,14.8 C208.4,15 208.1,15.2 207.8,15.2 L201.2,15.2 L201.2,18.1 L210.5,18.1 L210.5,18.2 Z" id="Shape"></path>
                        <path d="M221.3,0.9 C228.5,0.9 233.3,5.6 233.3,12.6 C233.3,19.6 228.5,24.3 221.3,24.3 L213.4,24.3 C213.2,24.3 212.9,24.1 212.9,23.8 L212.9,1.4 C212.9,1.1 213.1,0.9 213.4,0.9 L221.3,0.9 L221.3,0.9 Z M221.7,18.2 C224.3,18.2 226.1,16 226.1,12.6 C226.1,9.2 224.3,7 221.7,7 L219.9,7 L219.9,18.2 L221.7,18.2 Z" id="Shape"></path>
                    </g>
                </g>
            </g>
        </g>
    </g>
</svg>