<?xml version="1.0" encoding="UTF-8"?>
<svg width="587px" height="56px" viewBox="0 0 587 56" version="1.1" xmlns="http://www.w3.org/2000/svg" xmlns:xlink="http://www.w3.org/1999/xlink">
    <!-- Generator: Sketch 42 (36781) - http://www.bohemiancoding.com/sketch -->
    <title>That Sugar Film</title>
    <desc>Created with Sketch.</desc>
    <defs></defs>
    <g id="Page-1" stroke="none" stroke-width="1" fill="none" fill-rule="evenodd">
        <g id="Artboard" transform="translate(-7322.000000, -15829.000000)" fill-rule="nonzero">
            <g id="10_kilder-copy" transform="translate(7119.000000, 15829.000000)">
                <g id="That-Sugar-Film" transform="translate(203.000000, 0.000000)">
                    <g id="Shadow" fill="#3A5D81">
                        <path d="M42,2.2 C42.7,2.2 43.1,2.7 43,3.3 L41.9,14.7 C41.8,15.3 41.2,15.7 40.7,15.7 L29.5,15.7 L29.5,52.9 C29.5,53.4 29.1,53.9 28.5,53.9 L15.2,53.9 C14.6,53.9 14.1,53.4 14.1,52.9 L14.1,15.7 L1.7,15.7 C1.2,15.7 0.7,15.3 0.7,14.7 L0.7,3.3 C0.7,2.7 1.2,2.2 1.7,2.2 L42,2.2 L42,2.2 Z" id="Shape"></path>
                        <path d="M87.5,2.2 C88.2,2.2 88.6,2.7 88.6,3.3 L88.6,52.9 C88.6,53.4 88.1,53.9 87.5,53.9 L73.5,53.9 C72.9,53.9 72.5,53.4 72.5,52.9 L72.5,36.1 L62,36.1 L62,52.9 C62,53.4 61.5,53.9 60.9,53.9 L46.9,53.9 C46.4,53.9 45.8,53.4 45.8,52.9 L45.8,3.3 C45.8,2.7 46.3,2.2 46.9,2.2 L60.9,2.2 C61.6,2.2 62,2.7 62,3.3 L62,22.9 L72.5,22.9 L72.5,3.3 C72.5,2.7 72.9,2.2 73.5,2.2 L87.5,2.2 L87.5,2.2 Z" id="Shape"></path>
                        <path d="M142.9,53 C143.1,53.5 142.8,54 142.2,54 L127.4,54 C126.7,54 126.1,53.6 125.8,53 L123.6,45.1 L109.5,45.1 L107.3,53 C107,53.6 106.4,54 105.7,54 L90.9,54 C90.3,54 90,53.5 90.2,53 L107.1,3.2 C107.3,2.7 108.1,2.2 108.9,2.2 L124.2,2.2 C125,2.2 125.8,2.7 126,3.2 L142.9,53 Z M116.5,20.1 L112.5,34.3 L120.6,34.3 L116.5,20.1 Z" id="Shape"></path>
                        <path d="M176.4,2.2 C177.1,2.2 177.5,2.7 177.4,3.3 L176.3,14.7 C176.2,15.3 175.6,15.7 175.1,15.7 L163.9,15.7 L163.9,52.9 C163.9,53.4 163.5,53.9 162.9,53.9 L149.6,53.9 C149,53.9 148.5,53.4 148.5,52.9 L148.5,15.7 L136,15.7 C135.5,15.7 135,15.3 135,14.7 L135,3.3 C135,2.7 135.5,2.2 136,2.2 L176.4,2.2 L176.4,2.2 Z" id="Shape"></path>
                        <path d="M194,38.2 C194.2,37.4 194.8,37.2 195.4,37.6 C198.9,39.5 203,41 205.8,41.2 C208.2,41.2 209.8,40.1 209.8,38.4 C209.8,34 188.7,34.2 188.7,17.9 C188.7,7.9 196.3,1.2 207.7,1.2 C213,1.2 219.8,3.4 224.5,6.6 C225.1,7 225.3,7.6 225.1,8 L220.4,18.6 C220.2,19.4 219.6,19.6 219.1,19.2 C215.4,17.1 211.1,15.5 208.5,15.3 C206.2,15.3 204.7,16.4 204.7,18 C204.7,22.4 225.9,22.1 225.9,38.6 C225.9,48.6 218.2,55.2 206.6,55.2 C200.3,55.2 193.7,53.2 190,50.3 C189.4,49.8 189.2,49.3 189.4,48.9 L194,38.2 Z" id="Shape"></path>
                        <path d="M269.7,2.2 C270.5,2.2 271,2.8 271,3.5 L271,34.8 C271,48 263.8,55 250.3,55 C236.9,55 229.8,48 229.6,34.8 L229.6,3.5 C229.6,2.8 230.2,2.2 230.9,2.2 L243.8,2.2 C244.5,2.2 245.1,2.8 245.1,3.5 L245.1,36.1 C245.1,39.5 247.1,41.6 250.3,41.6 C253.5,41.6 255.5,39.6 255.5,36.2 L255.5,3.5 C255.5,2.8 256.1,2.2 256.8,2.2 L269.7,2.2 Z" id="Shape"></path>
                        <path d="M320.1,22.2 C320.7,22.2 321.2,22.7 321.2,23.2 L321.2,47 C321.2,47.7 320.8,48.4 320.3,48.8 C315.8,52.6 308.9,54.9 301.7,54.9 C285.5,54.9 274.7,44.1 274.7,27.9 C274.7,11.7 285.5,0.9 301.7,0.9 C307.2,0.9 313.1,2.5 317.4,5.2 C318,5.5 318.2,6.1 318.1,6.6 L314.3,17.6 C314.1,18.1 313.6,18.4 312.9,18.2 C309.8,16.6 305.9,15.6 302.1,15.6 C295.2,15.6 290.6,20.5 290.6,27.9 C290.6,35.4 295.2,40.3 302.1,40.3 C304.9,40.3 306.7,39.8 307.6,38.9 L307.6,34.5 L300.7,34.5 C300,34.5 299.6,34.2 299.5,33.7 L298.5,23.4 C298.4,22.6 298.9,22.1 299.7,22.1 L320.1,22.1 L320.1,22.2 Z M308.1,37.9 L308.1,38.2 L308.1,37.9 Z" id="Shape"></path>
                        <path d="M375.1,53 C375.3,53.5 375,54 374.4,54 L359.6,54 C358.9,54 358.3,53.6 358,53 L355.8,45.1 L341.7,45.1 L339.5,53 C339.2,53.6 338.6,54 337.9,54 L323.1,54 C322.5,54 322.2,53.5 322.4,53 L339.3,3.2 C339.5,2.7 340.4,2.2 341.1,2.2 L356.4,2.2 C357.2,2.2 358,2.7 358.2,3.2 L375.1,53 Z M348.7,20.1 L344.7,34.3 L352.8,34.3 L348.7,20.1 Z" id="Shape"></path>
                        <path d="M419.4,52.7 C419.8,53.4 419.2,53.9 418.6,53.9 L402.6,53.9 C401.8,53.9 401.2,53.4 400.9,52.7 L393,36.4 L392.1,36.4 L392.1,52.9 C392.1,53.4 391.6,53.9 390.9,53.9 L377.7,53.9 C377.1,53.9 376.6,53.4 376.6,52.9 L376.6,3.3 C376.6,2.7 377.1,2.2 377.7,2.2 L397.5,2.2 C409,2.2 416.7,9 416.7,19.1 C416.7,25 413.1,31 407.5,33.4 L419.4,52.7 Z M396.5,23.6 C399,23.6 400.8,22 400.8,19.6 C400.8,17.2 399.1,15.6 396.5,15.6 L392.1,15.6 L392.1,23.5 L396.5,23.5 L396.5,23.6 Z" id="Shape"></path>
                        <path d="M466.5,2.2 C467.2,2.2 467.6,2.7 467.6,3.3 L467.6,14.6 C467.6,15.3 467.1,15.7 466.5,15.7 L447.5,15.7 L447.5,22.5 L462.6,22.5 C463.3,22.5 463.6,23 463.6,23.5 L462.6,34 C462.5,34.5 462,35 461.3,35 L447.6,35 L447.6,52.9 C447.6,53.4 447.1,53.9 446.5,53.9 L433,53.9 C432.4,53.9 432,53.3 432,52.8 L432,3.2 C432,2.7 432.4,2.1 433,2.1 L466.5,2.1 L466.5,2.2 Z" id="Shape"></path>
                        <path d="M485.1,2.2 C485.8,2.2 486.2,2.7 486.2,3.3 L486.2,52.9 C486.2,53.4 485.7,53.9 485.1,53.9 L471.8,53.9 C471.3,53.9 470.8,53.4 470.8,52.9 L470.8,3.3 C470.8,2.7 471.3,2.2 471.8,2.2 L485.1,2.2 L485.1,2.2 Z" id="Shape"></path>
                        <path d="M521.1,40.4 C521.6,40.4 522.1,40.9 522.1,41.4 L521.1,52.8 C521,53.3 520.5,53.8 519.9,53.8 L492.8,53.8 C492.2,53.8 491.7,53.3 491.7,52.8 L491.7,3.3 C491.7,2.7 492.2,2.2 492.8,2.2 L506,2.2 C506.6,2.2 507.1,2.7 507.1,3.3 L507.1,40.4 L521.1,40.4 Z" id="Shape"></path>
                        <path d="M583.4,2.2 C584,2.2 584.4,2.7 584.4,3.3 L584.4,52.9 C584.4,53.4 583.9,53.9 583.4,53.9 L569.5,53.9 C568.9,53.9 568.4,53.4 568.4,52.9 L568.4,30.9 L560.8,52.9 C560.6,53.5 559.6,54 558.9,54 L550.7,54 C550,54 549,53.5 548.8,52.9 L541.2,30.9 L541.2,52.9 C541.2,53.4 540.7,53.9 540.1,53.9 L526.2,53.9 C525.6,53.9 525.2,53.4 525.2,52.9 L525.2,3.3 C525.2,2.7 525.6,2.2 526.2,2.2 L541.9,2.2 C542.9,2.2 544,2.9 544.4,3.7 L554.7,32.3 L565,3.7 C565.5,2.9 566.6,2.2 567.6,2.2 L583.4,2.2 L583.4,2.2 Z" id="Shape"></path>
                    </g>
                    <g id="Group" transform="translate(2.000000, 0.000000)" fill="#FFF6EB">
                        <path d="M41.8,2.2 C42.5,2.2 42.9,2.7 42.8,3.3 L41.7,14.7 C41.6,15.3 41,15.7 40.5,15.7 L29.3,15.7 L29.3,52.9 C29.3,53.4 28.9,53.9 28.3,53.9 L15,53.9 C14.4,53.9 13.9,53.4 13.9,52.9 L13.9,15.7 L1.5,15.7 C1,15.7 0.5,15.3 0.5,14.7 L0.5,3.3 C0.5,2.7 1,2.2 1.5,2.2 L41.8,2.2 L41.8,2.2 Z" id="Shape"></path>
                        <path d="M87.3,2.2 C88,2.2 88.4,2.7 88.4,3.3 L88.4,52.9 C88.4,53.4 87.9,53.9 87.3,53.9 L73.3,53.9 C72.7,53.9 72.3,53.4 72.3,52.9 L72.3,36.1 L61.8,36.1 L61.8,52.9 C61.8,53.4 61.3,53.9 60.7,53.9 L46.7,53.9 C46.2,53.9 45.6,53.4 45.6,52.9 L45.6,3.3 C45.6,2.7 46.1,2.2 46.7,2.2 L60.7,2.2 C61.4,2.2 61.8,2.7 61.8,3.3 L61.8,22.9 L72.3,22.9 L72.3,3.3 C72.3,2.7 72.7,2.2 73.3,2.2 L87.3,2.2 L87.3,2.2 Z" id="Shape"></path>
                        <path d="M142.8,53 C143,53.5 142.7,54 142.1,54 L127.3,54 C126.6,54 126,53.6 125.7,53 L123.5,45.1 L109.4,45.1 L107.2,53 C106.9,53.6 106.3,54 105.6,54 L90.8,54 C90.2,54 89.9,53.5 90.1,53 L107,3.2 C107.2,2.7 108,2.2 108.8,2.2 L124,2.2 C124.8,2.2 125.6,2.7 125.8,3.2 L142.8,53 Z M116.4,20.1 L112.4,34.3 L120.5,34.3 L116.4,20.1 Z" id="Shape"></path>
                        <path d="M176.2,2.2 C176.9,2.2 177.3,2.7 177.2,3.3 L176.1,14.7 C176,15.3 175.4,15.7 174.9,15.7 L163.7,15.7 L163.7,52.9 C163.7,53.4 163.3,53.9 162.7,53.9 L149.4,53.9 C148.8,53.9 148.3,53.4 148.3,52.9 L148.3,15.7 L135.9,15.7 C135.4,15.7 134.9,15.3 134.9,14.7 L134.9,3.3 C134.9,2.7 135.4,2.2 135.9,2.2 L176.2,2.2 L176.2,2.2 Z" id="Shape"></path>
                        <path d="M193.8,38.2 C194,37.4 194.6,37.2 195.2,37.6 C198.7,39.5 202.8,41 205.6,41.2 C208,41.2 209.6,40.1 209.6,38.4 C209.6,34 188.5,34.2 188.5,17.9 C188.5,7.9 196.1,1.2 207.5,1.2 C212.8,1.2 219.6,3.4 224.3,6.6 C224.9,7 225.1,7.6 224.9,8 L220.2,18.6 C220,19.4 219.4,19.6 218.9,19.2 C215.2,17.1 210.9,15.5 208.3,15.3 C206,15.3 204.5,16.4 204.5,18 C204.5,22.4 225.7,22.1 225.7,38.6 C225.7,48.6 218,55.2 206.4,55.2 C200.1,55.2 193.5,53.2 189.8,50.3 C189.2,49.8 189,49.3 189.2,48.9 L193.8,38.2 Z" id="Shape"></path>
                        <path d="M269.5,2.2 C270.3,2.2 270.8,2.8 270.8,3.5 L270.8,34.8 C270.8,48.1 263.7,55 250.1,55 C236.7,55 229.6,48 229.4,34.8 L229.4,3.5 C229.4,2.8 230,2.2 230.7,2.2 L243.6,2.2 C244.3,2.2 244.9,2.8 244.9,3.5 L244.9,36.1 C244.9,39.5 246.9,41.6 250.1,41.6 C253.3,41.6 255.3,39.6 255.3,36.2 L255.3,3.5 C255.3,2.8 255.9,2.2 256.6,2.2 L269.5,2.2 Z" id="Shape"></path>
                        <path d="M319.9,22.2 C320.5,22.2 321,22.7 321,23.2 L321,47 C321,47.7 320.6,48.4 320.1,48.8 C315.6,52.6 308.7,54.9 301.5,54.9 C285.3,54.9 274.5,44.1 274.5,27.9 C274.5,11.7 285.3,0.9 301.5,0.9 C307,0.9 312.9,2.5 317.2,5.2 C317.8,5.5 318,6.1 317.9,6.6 L314.1,17.6 C313.9,18.1 313.4,18.4 312.7,18.2 C309.6,16.6 305.7,15.6 301.9,15.6 C295,15.6 290.4,20.5 290.4,27.9 C290.4,35.4 295,40.3 301.9,40.3 C304.7,40.3 306.5,39.8 307.4,38.9 L307.4,34.5 L300.5,34.5 C299.8,34.5 299.4,34.2 299.3,33.7 L298.3,23.4 C298.2,22.6 298.7,22.1 299.5,22.1 L319.9,22.1 L319.9,22.2 Z M307.9,37.9 L307.9,38.2 L307.9,37.9 Z" id="Shape"></path>
                        <path d="M374.9,53 C375.1,53.5 374.8,54 374.2,54 L359.4,54 C358.7,54 358.1,53.6 357.8,53 L355.6,45.1 L341.5,45.1 L339.3,53 C339,53.6 338.4,54 337.7,54 L322.9,54 C322.3,54 322,53.5 322.2,53 L339,3.2 C339.2,2.7 340.1,2.2 340.8,2.2 L356.1,2.2 C356.9,2.2 357.7,2.7 357.9,3.2 L374.9,53 Z M348.5,20.1 L344.5,34.3 L352.6,34.3 L348.5,20.1 Z" id="Shape"></path>
                        <path d="M419.2,52.7 C419.6,53.4 419,53.9 418.4,53.9 L402.4,53.9 C401.6,53.9 401,53.4 400.7,52.7 L392.9,36.4 L392,36.4 L392,52.9 C392,53.4 391.5,53.9 390.8,53.9 L377.6,53.9 C377,53.9 376.5,53.4 376.5,52.9 L376.5,3.3 C376.5,2.7 377,2.2 377.6,2.2 L397.4,2.2 C408.9,2.2 416.6,9 416.6,19.1 C416.6,25 413,31 407.4,33.4 L419.2,52.7 Z M396.3,23.6 C398.8,23.6 400.6,22 400.6,19.6 C400.6,17.2 398.9,15.6 396.3,15.6 L391.9,15.6 L391.9,23.5 L396.3,23.5 L396.3,23.6 Z" id="Shape"></path>
                        <path d="M466.3,2.2 C467,2.2 467.4,2.7 467.4,3.3 L467.4,14.6 C467.4,15.3 466.9,15.7 466.3,15.7 L447.3,15.7 L447.3,22.5 L462.4,22.5 C463.1,22.5 463.4,23 463.4,23.5 L462.4,34 C462.3,34.5 461.8,35 461.1,35 L447.4,35 L447.4,52.9 C447.4,53.4 446.9,53.9 446.3,53.9 L433,53.9 C432.4,53.9 432,53.3 432,52.8 L432,3.2 C432,2.7 432.4,2.1 433,2.1 L466.3,2.1 L466.3,2.2 Z" id="Shape"></path>
                        <path d="M484.9,2.2 C485.6,2.2 486,2.7 486,3.3 L486,52.9 C486,53.4 485.5,53.9 484.9,53.9 L471.6,53.9 C471.1,53.9 470.6,53.4 470.6,52.9 L470.6,3.3 C470.6,2.7 471.1,2.2 471.6,2.2 L484.9,2.2 L484.9,2.2 Z" id="Shape"></path>
                        <path d="M520.9,40.4 C521.4,40.4 521.9,40.9 521.9,41.4 L520.9,52.8 C520.8,53.3 520.3,53.8 519.7,53.8 L492.6,53.8 C492,53.8 491.5,53.3 491.5,52.8 L491.5,3.3 C491.5,2.7 492,2.2 492.6,2.2 L505.9,2.2 C506.5,2.2 507,2.7 507,3.3 L507,40.4 L520.9,40.4 Z" id="Shape"></path>
                        <path d="M583.2,2.2 C583.8,2.2 584.2,2.7 584.2,3.3 L584.2,52.9 C584.2,53.4 583.7,53.9 583.2,53.9 L569.3,53.9 C568.7,53.9 568.2,53.4 568.2,52.9 L568.2,30.9 L560.6,52.9 C560.4,53.5 559.4,54 558.7,54 L550.5,54 C549.8,54 548.8,53.5 548.6,52.9 L541,30.9 L541,52.9 C541,53.4 540.5,53.9 539.9,53.9 L526,53.9 C525.4,53.9 525,53.4 525,52.9 L525,3.3 C525,2.7 525.4,2.2 526,2.2 L541.7,2.2 C542.7,2.2 543.8,2.9 544.2,3.7 L554.5,32.3 L565,3.7 C565.5,2.9 566.6,2.2 567.6,2.2 L583.2,2.2 L583.2,2.2 Z" id="Shape"></path>
                    </g>
                </g>
            </g>
        </g>
    </g>
</svg>