<?xml version="1.0" encoding="UTF-8"?>
<svg width="187px" height="23px" viewBox="0 0 187 23" version="1.1" xmlns="http://www.w3.org/2000/svg" xmlns:xlink="http://www.w3.org/1999/xlink">
    <!-- Generator: Sketch 42 (36781) - http://www.bohemiancoding.com/sketch -->
    <title>Worldatlas</title>
    <desc>Created with Sketch.</desc>
    <defs></defs>
    <g id="Page-1" stroke="none" stroke-width="1" fill="none" fill-rule="evenodd">
        <g id="Artboard" transform="translate(-7120.000000, -15861.000000)">
            <g id="10_kilder-copy" transform="translate(7119.000000, 15829.000000)">
                <g id="Worldatlas" transform="translate(1.000000, 2.000000)">
                    <rect id="Rectangle-path" x="0.3" y="0.2" width="185.8" height="52.2"></rect>
                    <g id="Shadow" transform="translate(0.000000, 30.000000)" fill-rule="nonzero" fill="#3A5D81">
                        <path d="M29.4,1.2 C29.7,1.2 29.9,1.4 29.8,1.7 L24.3,21.4 C24.2,21.7 23.9,21.9 23.6,21.9 L18.4,21.9 C18.1,21.9 17.8,21.7 17.7,21.4 L15,10.9 L12.3,21.5 C12.2,21.8 11.9,22 11.6,22 L6.4,22 C6.1,22 5.8,21.8 5.7,21.5 L0.3,1.7 C0.2,1.4 0.4,1.2 0.7,1.2 L7.4,1.2 C7.7,1.2 8,1.4 8.1,1.7 L9.8,10.7 L12.1,1.7 C12.2,1.4 12.6,1.2 12.9,1.2 L17.2,1.2 C17.6,1.2 17.9,1.4 18,1.7 L20.3,10.7 L22,1.7 C22.1,1.4 22.4,1.2 22.7,1.2 L29.4,1.2 Z" id="Shape"></path>
                        <path d="M39.5,22.3 C33.1,22.3 28.9,18 28.9,11.5 C28.9,5 33.2,0.7 39.5,0.7 C45.8,0.7 50.1,5 50.1,11.5 C50.2,18 45.9,22.3 39.5,22.3 Z M39.5,6.8 C37,6.8 35.4,8.7 35.4,11.6 C35.4,14.5 37,16.4 39.5,16.4 C42,16.4 43.6,14.5 43.6,11.6 C43.6,8.7 42,6.8 39.5,6.8 Z" id="Shape"></path>
                        <path d="M69.2,21.4 C69.3,21.7 69.1,21.9 68.9,21.9 L62.5,21.9 C62.2,21.9 61.9,21.7 61.8,21.4 L58.7,14.9 L58.3,14.9 L58.3,21.5 C58.3,21.7 58.1,21.9 57.8,21.9 L52.5,21.9 C52.3,21.9 52.1,21.7 52.1,21.5 L52.1,1.7 C52.1,1.5 52.3,1.2 52.5,1.2 L60.4,1.2 C65,1.2 68.1,3.9 68.1,8 C68.1,10.4 66.7,12.8 64.4,13.7 L69.2,21.4 Z M60.1,9.8 C61.1,9.8 61.8,9.2 61.8,8.2 C61.8,7.2 61.1,6.6 60.1,6.6 L58.3,6.6 L58.3,9.8 L60.1,9.8 Z" id="Shape"></path>
                        <path d="M82.1,16.5 C82.3,16.5 82.5,16.7 82.5,16.9 L82.1,21.5 C82.1,21.7 81.9,21.9 81.6,21.9 L70.8,21.9 C70.6,21.9 70.4,21.7 70.4,21.5 L70.4,1.7 C70.4,1.5 70.6,1.2 70.8,1.2 L76.1,1.2 C76.3,1.2 76.5,1.4 76.5,1.7 L76.5,16.5 L82.1,16.5 Z" id="Shape"></path>
                        <path d="M91.2,1.2 C97.6,1.2 101.8,5.3 101.8,11.5 C101.8,17.7 97.6,21.8 91.2,21.8 L84.2,21.8 C84,21.8 83.8,21.6 83.8,21.3 L83.8,1.7 C83.8,1.5 84,1.2 84.2,1.2 L91.2,1.2 Z M91.5,16.5 C93.8,16.5 95.4,14.5 95.4,11.6 C95.4,8.7 93.8,6.7 91.5,6.7 L90,6.7 L90,16.6 L91.5,16.6 L91.5,16.5 Z" id="Shape"></path>
                        <path d="M121.8,21.5 C121.9,21.7 121.8,21.9 121.5,21.9 L115.6,21.9 C115.3,21.9 115.1,21.8 115,21.5 L114.1,18.4 L108.5,18.4 L107.6,21.5 C107.5,21.7 107.2,21.9 107,21.9 L101.1,21.9 C100.9,21.9 100.7,21.7 100.8,21.5 L107.6,1.6 C107.7,1.4 108,1.2 108.3,1.2 L114.4,1.2 C114.7,1.2 115,1.4 115.1,1.6 L121.8,21.5 Z M111.2,8.4 L109.6,14.1 L112.8,14.1 L111.2,8.4 Z" id="Shape"></path>
                        <path d="M135.2,1.2 C135.5,1.2 135.6,1.4 135.6,1.6 L135.1,6.2 C135.1,6.4 134.8,6.6 134.6,6.6 L130.1,6.6 L130.1,21.5 C130.1,21.7 129.9,21.9 129.7,21.9 L124.4,21.9 C124.2,21.9 124,21.7 124,21.5 L124,6.6 L119,6.6 C118.8,6.6 118.6,6.4 118.6,6.2 L118.6,1.7 C118.6,1.5 118.8,1.2 119,1.2 L135.2,1.2 Z" id="Shape"></path>
                        <path d="M148.5,16.5 C148.7,16.5 148.9,16.7 148.9,16.9 L148.5,21.5 C148.5,21.7 148.3,21.9 148,21.9 L137.2,21.9 C137,21.9 136.8,21.7 136.8,21.5 L136.8,1.7 C136.8,1.5 137,1.2 137.2,1.2 L142.5,1.2 C142.7,1.2 142.9,1.4 142.9,1.7 L142.9,16.5 L148.5,16.5 Z" id="Shape"></path>
                        <path d="M169.7,21.5 C169.8,21.7 169.7,21.9 169.4,21.9 L163.5,21.9 C163.2,21.9 163,21.8 162.9,21.5 L162,18.4 L156.4,18.4 L155.5,21.5 C155.4,21.7 155.1,21.9 154.9,21.9 L149,21.9 C148.8,21.9 148.6,21.7 148.7,21.5 L155.5,1.6 C155.6,1.4 155.9,1.2 156.2,1.2 L162.3,1.2 C162.6,1.2 162.9,1.4 163,1.6 L169.7,21.5 Z M159.1,8.4 L157.5,14.1 L160.7,14.1 L159.1,8.4 Z" id="Shape"></path>
                        <path d="M171.4,15.6 C171.5,15.3 171.7,15.2 171.9,15.4 C173.3,16.2 174.9,16.7 176.1,16.8 C177.1,16.8 177.7,16.3 177.7,15.7 C177.7,13.9 169.3,14 169.3,7.5 C169.3,3.5 172.3,0.8 176.9,0.8 C179,0.8 181.7,1.7 183.6,3 C183.8,3.1 183.9,3.4 183.8,3.5 L181.9,7.7 C181.8,8 181.6,8.1 181.4,7.9 C179.9,7.1 178.2,6.4 177.2,6.3 C176.3,6.3 175.7,6.7 175.7,7.4 C175.7,9.2 184.2,9 184.2,15.6 C184.2,19.6 181.1,22.3 176.5,22.3 C174,22.3 171.3,21.5 169.8,20.3 C169.6,20.1 169.5,19.9 169.6,19.8 L171.4,15.6 Z" id="Shape"></path>
                    </g>
                    <g id="Group" transform="translate(2.000000, 30.000000)" fill-rule="nonzero" fill="#FFF6EB">
                        <path d="M29.2,1.2 C29.5,1.2 29.7,1.4 29.6,1.7 L24.1,21.4 C24,21.7 23.7,21.9 23.4,21.9 L18.2,21.9 C17.9,21.9 17.6,21.7 17.5,21.4 L14.8,10.8 L12.1,21.4 C12,21.7 11.7,21.9 11.4,21.9 L6.2,21.9 C5.9,21.9 5.6,21.7 5.5,21.4 L0.1,1.7 C-2.83842394e-13,1.4 0.2,1.2 0.5,1.2 L7.2,1.2 C7.5,1.2 7.8,1.4 7.9,1.7 L9.6,10.7 L11.9,1.7 C12,1.4 12.4,1.2 12.7,1.2 L17,1.2 C17.4,1.2 17.7,1.4 17.8,1.7 L20.1,10.7 L21.8,1.7 C21.9,1.4 22.2,1.2 22.5,1.2 L29.2,1.2 Z" id="Shape"></path>
                        <path d="M39.4,22.3 C33,22.3 28.8,18 28.8,11.5 C28.8,5 33.1,0.7 39.4,0.7 C45.7,0.7 50,5.1 50,11.6 C50,18 45.7,22.3 39.4,22.3 Z M39.4,6.8 C36.9,6.8 35.3,8.7 35.3,11.6 C35.3,14.5 36.9,16.4 39.4,16.4 C41.9,16.4 43.5,14.5 43.5,11.6 C43.5,8.7 41.8,6.8 39.4,6.8 Z" id="Shape"></path>
                        <path d="M69,21.4 C69.1,21.7 68.9,21.9 68.7,21.9 L62.3,21.9 C62,21.9 61.7,21.7 61.6,21.4 L58.5,14.9 L58.1,14.9 L58.1,21.5 C58.1,21.7 57.9,21.9 57.6,21.9 L52.3,21.9 C52.1,21.9 51.9,21.7 51.9,21.5 L51.9,1.7 C51.9,1.5 52.1,1.2 52.3,1.2 L60.2,1.2 C64.8,1.2 67.9,3.9 67.9,8 C67.9,10.4 66.5,12.8 64.2,13.7 L69,21.4 Z M59.9,9.8 C60.9,9.8 61.6,9.2 61.6,8.2 C61.6,7.2 60.9,6.6 59.9,6.6 L58.1,6.6 L58.1,9.8 L59.9,9.8 Z" id="Shape"></path>
                        <path d="M82,16.5 C82.2,16.5 82.4,16.7 82.4,16.9 L82,21.5 C82,21.7 81.8,21.9 81.5,21.9 L70.6,21.9 C70.4,21.9 70.2,21.7 70.2,21.5 L70.2,1.7 C70.2,1.5 70.4,1.2 70.6,1.2 L75.9,1.2 C76.1,1.2 76.3,1.4 76.3,1.7 L76.3,16.5 L82,16.5 Z" id="Shape"></path>
                        <path d="M91,1.2 C97.4,1.2 101.6,5.3 101.6,11.5 C101.6,17.7 97.4,21.8 91,21.8 L84,21.8 C83.8,21.8 83.6,21.6 83.6,21.3 L83.6,1.7 C83.6,1.5 83.8,1.2 84,1.2 L91,1.2 Z M91.3,16.5 C93.6,16.5 95.2,14.5 95.2,11.6 C95.2,8.7 93.6,6.7 91.3,6.7 L89.7,6.7 L89.7,16.6 L91.3,16.6 L91.3,16.5 Z" id="Shape"></path>
                        <path d="M121.6,21.5 C121.7,21.7 121.6,21.9 121.3,21.9 L115.4,21.9 C115.1,21.9 114.9,21.8 114.8,21.5 L113.9,18.4 L108.3,18.4 L107.4,21.5 C107.3,21.7 107,21.9 106.8,21.9 L100.9,21.9 C100.7,21.9 100.5,21.7 100.6,21.5 L107.4,1.6 C107.5,1.4 107.8,1.2 108.1,1.2 L114.2,1.2 C114.5,1.2 114.8,1.4 114.9,1.6 L121.6,21.5 Z M111.1,8.4 L109.5,14.1 L112.7,14.1 L111.1,8.4 Z" id="Shape"></path>
                        <path d="M135,1.2 C135.3,1.2 135.4,1.4 135.4,1.6 L134.9,6.2 C134.9,6.4 134.6,6.6 134.4,6.6 L130,6.6 L130,21.5 C130,21.7 129.8,21.9 129.6,21.9 L124.3,21.9 C124.1,21.9 123.9,21.7 123.9,21.5 L123.9,6.6 L118.9,6.6 C118.7,6.6 118.5,6.4 118.5,6.2 L118.5,1.7 C118.5,1.5 118.7,1.2 118.9,1.2 L135,1.2 Z" id="Shape"></path>
                        <path d="M148.3,16.5 C148.5,16.5 148.7,16.7 148.7,16.9 L148.3,21.5 C148.3,21.7 148.1,21.9 147.8,21.9 L137,21.9 C136.8,21.9 136.6,21.7 136.6,21.5 L136.6,1.7 C136.6,1.5 136.8,1.2 137,1.2 L142.3,1.2 C142.5,1.2 142.7,1.4 142.7,1.7 L142.7,16.5 L148.3,16.5 Z" id="Shape"></path>
                        <path d="M169.5,21.5 C169.6,21.7 169.5,21.9 169.2,21.9 L163.3,21.9 C163,21.9 162.8,21.8 162.7,21.5 L161.8,18.4 L156.2,18.4 L155.3,21.5 C155.2,21.7 154.9,21.9 154.7,21.9 L148.8,21.9 C148.6,21.9 148.4,21.7 148.5,21.5 L155.3,1.6 C155.4,1.4 155.7,1.2 156,1.2 L162.1,1.2 C162.4,1.2 162.7,1.4 162.8,1.6 L169.5,21.5 Z M158.9,8.4 L157.3,14.1 L160.5,14.1 L158.9,8.4 Z" id="Shape"></path>
                        <path d="M171.3,15.6 C171.4,15.3 171.6,15.2 171.8,15.4 C173.2,16.2 174.8,16.7 176,16.8 C177,16.8 177.6,16.3 177.6,15.7 C177.6,13.9 169.2,14 169.2,7.5 C169.2,3.5 172.2,0.8 176.8,0.8 C178.9,0.8 181.6,1.7 183.5,3 C183.7,3.1 183.8,3.4 183.7,3.5 L181.8,7.7 C181.7,8 181.5,8.1 181.3,7.9 C179.8,7.1 178.1,6.4 177.1,6.3 C176.2,6.3 175.6,6.7 175.6,7.4 C175.6,9.2 184.1,9 184.1,15.6 C184.1,19.6 181,22.3 176.4,22.3 C173.9,22.3 171.2,21.5 169.7,20.3 C169.5,20.1 169.4,19.9 169.5,19.8 L171.3,15.6 Z" id="Shape"></path>
                    </g>
                </g>
            </g>
        </g>
    </g>
</svg>