<?xml version="1.0" encoding="UTF-8"?>
<svg width="1439px" height="1019px" viewBox="0 0 1439 1019" version="1.1" xmlns="http://www.w3.org/2000/svg" xmlns:xlink="http://www.w3.org/1999/xlink">
    <!-- Generator: Sketch 42 (36781) - http://www.bohemiancoding.com/sketch -->
    <title>factory</title>
    <desc>Created with Sketch.</desc>
    <defs></defs>
    <g id="Page-1" stroke="none" stroke-width="1" fill="none" fill-rule="evenodd" opacity="0.154325181">
        <g id="PINK" transform="translate(-1.000000, -2185.000000)">
            <g id="factory" transform="translate(0.000000, 2170.000000)">
                <g id="Group">
                    <g transform="translate(0.293484, 0.000000)">
                        <polyline id="Shape" stroke="#EF7DA4" stroke-width="6" points="1215.01225 893.539159 1341.57603 893.539159 1341.57603 991.133857"></polyline>
                        <g fill-rule="nonzero">
                            <path d="M634.257106,524.752115 C633.106526,501.720918 632.531236,468.901462 632.243591,431.763657 L434.631514,431.763657 C433.193289,474.371371 431.467419,511.797067 429.453904,536.555603 C400.68941,874.250531 276.426793,990.845967 276.426793,990.845967 L807.131719,990.845967 C807.419364,990.845967 654.679897,900.160628 634.257106,524.752115 Z" id="Shape" fill="#A1BCD1"></path>
                            <rect id="Rectangle-path" fill="#A1BCD1" x="421.112201" y="404.98989" width="222.061898" height="40.304595"></rect>
                            <rect id="Rectangle-path" fill="#A1BCD1" x="256.579292" y="972.421009" width="562.34587" height="23.0311971"></rect>
                            <rect id="Rectangle-path" fill="#18343F" x="427.152745" y="459.401093" width="211.419035" height="22.7433072"></rect>
                            <rect id="Rectangle-path" fill="#18343F" x="427.152745" y="499.705688" width="211.419035" height="22.7433072"></rect>
                            <g transform="translate(487.190354, 0.000000)" id="Oval" fill="#D7E5EF">
                                <g transform="translate(0.000000, 148.687332)">
                                    <ellipse cx="46.9663113" cy="146.328592" rx="46.8861262" ry="46.9260641"></ellipse>
                                    <ellipse cx="86.0860239" cy="101.993537" rx="49.4749307" ry="49.5170738"></ellipse>
                                    <ellipse cx="75.7308059" cy="65.7194018" rx="44.2973217" ry="44.3350545"></ellipse>
                                    <ellipse cx="127.506896" cy="39.809305" rx="38.8320677" ry="38.8651452"></ellipse>
                                </g>
                                <g transform="translate(70.840842, 150.495162)">
                                    <ellipse cx="47.1737712" cy="145.960212" rx="46.8861262" ry="46.9260641"></ellipse>
                                    <ellipse cx="86.0058389" cy="101.913047" rx="49.4749307" ry="49.5170738"></ellipse>
                                    <ellipse cx="75.6506208" cy="65.3510218" rx="44.2973217" ry="44.3350545"></ellipse>
                                    <ellipse cx="127.714356" cy="39.4409251" rx="38.8320677" ry="38.8651452"></ellipse>
                                </g>
                                <g transform="translate(73.717291, 54.754714)">
                                    <ellipse transform="translate(63.844407, 119.453023) rotate(-63.473385) translate(-63.844407, -119.453023) " cx="63.8444066" cy="119.453023" rx="46.8847114" ry="46.9246481"></ellipse>
                                    <ellipse transform="translate(118.424489, 97.248013) rotate(-63.473385) translate(-118.424489, -97.248013) " cx="118.424489" cy="97.2480126" rx="49.4734378" ry="49.5155796"></ellipse>
                                    <ellipse transform="translate(125.429247, 60.113604) rotate(-63.473385) translate(-125.429247, -60.113604) " cx="125.429247" cy="60.1136043" rx="44.295985" ry="44.3337166"></ellipse>
                                    <ellipse transform="translate(183.568964, 60.086715) rotate(-63.473385) translate(-183.568964, -60.086715) " cx="183.568964" cy="60.0867154" rx="38.8308959" ry="38.8639724"></ellipse>
                                </g>
                                <g transform="translate(142.016418, 100.746038)">
                                    <ellipse transform="translate(63.452556, 118.656565) rotate(-63.473385) translate(-63.452556, -118.656565) " cx="63.4525559" cy="118.656565" rx="46.8847114" ry="46.9246481"></ellipse>
                                    <ellipse transform="translate(117.912805, 96.715751) rotate(-63.473385) translate(-117.912805, -96.715751) " cx="117.912805" cy="96.7157515" rx="49.4734378" ry="49.5155796"></ellipse>
                                    <ellipse transform="translate(124.657043, 59.449029) rotate(-63.473385) translate(-124.657043, -59.449029) " cx="124.657043" cy="59.449029" rx="44.295985" ry="44.3337166"></ellipse>
                                    <ellipse transform="translate(182.792446, 59.420988) rotate(-63.473385) translate(-182.792446, -59.420988) " cx="182.792446" cy="59.4209885" rx="38.8308959" ry="38.8639724"></ellipse>
                                </g>
                                <g transform="translate(171.516573, 140.050633)">
                                    <ellipse transform="translate(63.900267, 119.273384) rotate(-63.473385) translate(-63.900267, -119.273384) " cx="63.9002672" cy="119.273384" rx="46.8847114" ry="46.9246481"></ellipse>
                                    <ellipse transform="translate(118.489554, 97.074995) rotate(-63.473385) translate(-118.489554, -97.074995) " cx="118.489554" cy="97.0749948" rx="49.4734378" ry="49.5155796"></ellipse>
                                    <ellipse transform="translate(125.502654, 59.946920) rotate(-63.473385) translate(-125.502654, -59.946920) " cx="125.502654" cy="59.9469201" rx="44.295985" ry="44.3337166"></ellipse>
                                    <ellipse transform="translate(183.615045, 59.901030) rotate(-63.473385) translate(-183.615045, -59.901030) " cx="183.615045" cy="59.9010304" rx="38.8308959" ry="38.8639724"></ellipse>
                                </g>
                                <g transform="translate(174.393022, 35.339176)">
                                    <ellipse transform="translate(63.143560, 118.854738) rotate(-63.473385) translate(-63.143560, -118.854738) " cx="63.1435597" cy="118.854738" rx="46.8847114" ry="46.9246481"></ellipse>
                                    <ellipse transform="translate(117.594029, 96.906439) rotate(-63.473385) translate(-117.594029, -96.906439) " cx="117.594029" cy="96.9064393" rx="49.4734378" ry="49.5155796"></ellipse>
                                    <ellipse transform="translate(124.723223, 59.510138) rotate(-63.473385) translate(-124.723223, -59.510138) " cx="124.723223" cy="59.5101375" rx="44.295985" ry="44.3337166"></ellipse>
                                    <ellipse transform="translate(182.718082, 59.730748) rotate(-63.473385) translate(-182.718082, -59.730748) " cx="182.718082" cy="59.7307476" rx="38.8308959" ry="38.8639724"></ellipse>
                                </g>
                                <g transform="translate(154.257876, 0.000000)">
                                    <ellipse transform="translate(63.044984, 118.800118) rotate(-63.473385) translate(-63.044984, -118.800118) " cx="63.0449838" cy="118.800118" rx="46.8847114" ry="46.9246481"></ellipse>
                                    <ellipse transform="translate(117.633407, 96.600289) rotate(-63.473385) translate(-117.633407, -96.600289) " cx="117.633407" cy="96.6002891" rx="49.4734378" ry="49.5155796"></ellipse>
                                    <ellipse transform="translate(124.646795, 59.469048) rotate(-63.473385) translate(-124.646795, -59.469048) " cx="124.646795" cy="59.4690476" rx="44.295985" ry="44.3337166"></ellipse>
                                    <ellipse transform="translate(182.502118, 59.298617) rotate(-63.473385) translate(-182.502118, -59.298617) " cx="182.502118" cy="59.2986167" rx="38.8308959" ry="38.8639724"></ellipse>
                                </g>
                            </g>
                            <g transform="translate(1003.880862, 646.736970)">
                                <path d="M261.756901,362.246065 L147.561857,362.246065 C183.517476,263.787697 181.503961,150.071161 181.503961,150.071161 L230.115957,150.071161 C230.115957,149.783271 224.075413,307.834862 261.756901,362.246065 Z" id="Shape" fill="#18343F"></path>
                                <path d="M155.903561,362.246065 L16.6834069,360.230835 C20.1351462,205.921814 19.2722114,0.656269874 19.2722114,0.656269874 L101.826311,0.656269874 C102.113956,0.656269874 92.0463827,269.545496 155.903561,362.246065 Z" id="Shape" fill="#18343F"></path>
                                <rect id="Rectangle-path" fill="#18343F" x="0" y="94.7962881" width="162.807039" height="268.601336"></rect>
                                <g transform="translate(28.028835, 126.671584)" id="Rectangle-path" fill="#A1BCD1">
                                    <rect x="0.448015041" y="0.0804899456" width="18.6969215" height="26.4858767"></rect>
                                    <rect x="28.3495748" y="0.0804899456" width="18.6969215" height="26.4858767"></rect>
                                    <rect x="0.448015041" y="37.5061853" width="18.6969215" height="26.4858767"></rect>
                                    <rect x="28.3495748" y="37.5061853" width="18.6969215" height="26.4858767"></rect>
                                    <rect x="0.448015041" y="74.6439906" width="18.6969215" height="26.4858767"></rect>
                                    <rect x="28.3495748" y="74.6439906" width="18.6969215" height="26.4858767"></rect>
                                    <rect x="0.448015041" y="112.069686" width="18.6969215" height="26.4858767"></rect>
                                    <rect x="28.3495748" y="112.069686" width="18.6969215" height="26.4858767"></rect>
                                    <rect x="57.6893593" y="0.0804899456" width="18.6969215" height="26.4858767"></rect>
                                    <rect x="85.5909191" y="0.0804899456" width="18.6969215" height="26.4858767"></rect>
                                    <rect x="57.6893593" y="37.5061853" width="18.6969215" height="26.4858767"></rect>
                                    <rect x="85.5909191" y="37.5061853" width="18.6969215" height="26.4858767"></rect>
                                    <rect x="57.6893593" y="74.6439906" width="18.6969215" height="26.4858767"></rect>
                                    <rect x="85.5909191" y="74.6439906" width="18.6969215" height="26.4858767"></rect>
                                    <rect x="57.6893593" y="112.069686" width="18.6969215" height="26.4858767"></rect>
                                    <rect x="85.5909191" y="112.069686" width="18.6969215" height="26.4858767"></rect>
                                    <rect x="0.448015041" y="149.495381" width="18.6969215" height="26.4858767"></rect>
                                    <rect x="28.3495748" y="149.495381" width="18.6969215" height="26.4858767"></rect>
                                    <rect x="0.448015041" y="186.633187" width="18.6969215" height="26.4858767"></rect>
                                    <rect x="28.3495748" y="186.633187" width="18.6969215" height="26.4858767"></rect>
                                    <rect x="57.6893593" y="149.495381" width="18.6969215" height="26.4858767"></rect>
                                    <rect x="85.5909191" y="149.495381" width="18.6969215" height="26.4858767"></rect>
                                    <rect x="57.6893593" y="186.633187" width="18.6969215" height="26.4858767"></rect>
                                    <rect x="85.5909191" y="186.633187" width="18.6969215" height="26.4858767"></rect>
                                </g>
                                <ellipse id="Oval" fill="#FCDA87" cx="60.4054387" cy="37.7940752" rx="18.4092765" ry="18.4249577"></ellipse>
                                <rect id="Rectangle-path" fill="#A1BCD1" x="179.202801" y="165.329329" width="52.9266701" height="6.62146917"></rect>
                                <rect id="Rectangle-path" fill="#A1BCD1" x="179.202801" y="179.723828" width="52.9266701" height="6.62146917"></rect>
                            </g>
                            <rect id="Rectangle-path" fill="#18343F" x="1053.35579" y="945.647242" width="39.4073576" height="65.3510218"></rect>
                            <path d="M899.753391,932.404304 C899.753391,946.223022 888.535238,957.450731 874.728281,957.450731 L874.728281,957.450731 C860.921324,957.450731 849.703171,946.223022 849.703171,932.404304 L849.703171,835.097496 C849.703171,821.278778 860.921324,810.051069 874.728281,810.051069 L874.728281,810.051069 C888.535238,810.051069 899.753391,821.278778 899.753391,835.097496 L899.753391,932.404304 Z" id="Shape" fill="#18343F"></path>
                            <path d="M983.745716,932.404304 C983.745716,946.223022 972.527563,957.450731 958.720605,957.450731 L958.720605,957.450731 C944.913648,957.450731 933.695495,946.223022 933.695495,932.404304 L933.695495,835.097496 C933.695495,821.278778 944.913648,810.051069 958.720605,810.051069 L958.720605,810.051069 C972.527563,810.051069 983.745716,821.278778 983.745716,835.097496 L983.745716,932.404304 Z" id="Shape" fill="#F3A0BB"></path>
                            <rect id="Rectangle-path" fill="#18343F" x="871.564187" y="807.74795" width="5.17760903" height="5.18201935"></rect>
                            <rect id="Rectangle-path" fill="#F3A0BB" x="955.556511" y="807.74795" width="5.17760903" height="5.18201935"></rect>
                            <rect id="Rectangle-path" fill="#FCDA87" x="822.952191" y="894.114939" width="237.88237" height="117.171215"></rect>
                            <rect id="Rectangle-path" fill="#A1BCD1" x="840.210887" y="911.100447" width="202.789687" height="8.63669892"></rect>
                            <rect id="Rectangle-path" fill="#A1BCD1" x="840.210887" y="935.283204" width="202.789687" height="8.63669892"></rect>
                            <rect id="Rectangle-path" fill="#A1BCD1" x="840.210887" y="959.465961" width="202.789687" height="8.63669892"></rect>
                            <rect id="Rectangle-path" fill="#A1BCD1" x="840.210887" y="983.360828" width="202.789687" height="8.63669892"></rect>
                            <g transform="translate(215.733710, 593.845706)">
                                <polygon id="Shape" fill="#F3A0BB" points="227.527152 295.087213 189.558019 295.087213 195.310918 50.9565236 223.212478 50.9565236"></polygon>
                                <polygon id="Shape" fill="#FCDA87" points="328.202883 297.678223 290.233751 297.678223 295.699005 6.33357921 323.888209 6.33357921"></polygon>
                                <path d="M226.376573,54.4112032 C226.376573,58.1537727 223.500123,61.0326724 219.760739,61.0326724 L196.173853,61.0326724 C192.434469,61.0326724 189.558019,58.1537727 189.558019,54.4112032 L189.558019,54.4112032 C189.558019,50.6686337 192.434469,47.789734 196.173853,47.789734 L219.760739,47.789734 C223.500123,47.789734 226.376573,50.6686337 226.376573,54.4112032 L226.376573,54.4112032 Z" id="Shape" fill="#F3A0BB"></path>
                                <path d="M327.915239,6.90935914 C327.915239,10.6519287 325.038789,13.5308283 321.299405,13.5308283 L297.712519,13.5308283 C293.973135,13.5308283 291.096685,10.6519287 291.096685,6.90935914 L291.096685,6.90935914 C291.096685,3.1667896 293.973135,0.287889964 297.712519,0.287889964 L321.299405,0.287889964 C325.038789,0.287889964 327.915239,3.45467957 327.915239,6.90935914 L327.915239,6.90935914 Z" id="Shape" fill="#FCDA87"></path>
                                <polygon id="Shape" fill="#FCDA87" points="132.891965 298.829783 94.9228322 298.829783 100.388086 109.110296 128.577291 109.110296"></polygon>
                                <path d="M132.60432,108.534516 C132.60432,112.277086 129.727871,115.155986 125.988486,115.155986 L102.401601,115.155986 C98.6622165,115.155986 95.785767,112.277086 95.785767,108.534516 L95.785767,108.534516 C95.785767,104.791947 98.6622165,101.913047 102.401601,101.913047 L125.988486,101.913047 C129.440226,101.913047 132.60432,105.079837 132.60432,108.534516 L132.60432,108.534516 Z" id="Shape" fill="#FCDA87"></path>
                                <polygon id="Shape" fill="#18343F" points="145.835988 306.314922 78.5270703 306.314922 88.3069984 211.599124 138.357219 211.599124"></polygon>
                                <polygon id="Shape" fill="#18343F" points="242.772334 306.314922 175.463417 306.314922 185.243345 211.599124 235.005921 211.599124"></polygon>
                                <polygon id="Shape" fill="#18343F" points="343.448066 306.314922 276.139148 306.314922 285.919076 211.599124 335.681652 211.599124"></polygon>
                                <rect id="Rectangle-path" fill="#18343F" x="30.7780092" y="275.798586" width="354.666219" height="71.6846011"></rect>
                                <rect id="Rectangle-path" fill="#18343F" x="0.575289892" y="336.255478" width="626.203048" height="83.2001996"></rect>
                                <rect id="Rectangle-path" fill="#A1BCD1" x="27.0386249" y="366.196034" width="83.1293894" height="26.4858767"></rect>
                                <rect id="Rectangle-path" fill="#A1BCD1" x="125.125552" y="366.196034" width="83.1293894" height="26.4858767"></rect>
                                <rect id="Rectangle-path" fill="#A1BCD1" x="223.212478" y="366.196034" width="83.1293894" height="26.4858767"></rect>
                                <rect id="Rectangle-path" fill="#A1BCD1" x="321.299405" y="366.196034" width="83.1293894" height="26.4858767"></rect>
                                <rect id="Rectangle-path" fill="#A1BCD1" x="419.386331" y="366.196034" width="83.1293894" height="26.4858767"></rect>
                                <rect id="Rectangle-path" fill="#A1BCD1" x="517.473258" y="366.196034" width="83.1293894" height="26.4858767"></rect>
                            </g>
                            <g transform="translate(639.642175, 683.091595)">
                                <rect id="Rectangle-path" fill="#18343F" x="0.943119886" y="240.38812" width="184.9557" height="12.0913785"></rect>
                                <g transform="translate(10.435403, 0.000000)">
                                    <rect id="Rectangle-path" fill="#FCDA87" x="75.0753309" y="0.287889964" width="16.3957619" height="14.1066082"></rect>
                                    <path d="M133.17961,148.839111 C133.17961,177.052328 110.455659,199.795635 82.2664546,199.795635 L82.2664546,199.795635 C54.0772499,199.795635 31.3532991,177.052328 31.3532991,148.839111 L31.3532991,59.3053326 C31.3532991,31.0921161 54.0772499,8.34880896 82.2664546,8.34880896 L82.2664546,8.34880896 C110.455659,8.34880896 133.17961,31.0921161 133.17961,59.3053326 L133.17961,148.839111 Z" id="Shape" fill="#FCDA87"></path>
                                    <path d="M2.01351462,252.479499 L0.575289892,244.41858 C53.214315,234.918211 50.0502206,143.657092 50.0502206,142.793422 L58.1042791,142.505532 C58.1042791,143.369202 58.9672139,167.264069 52.9266701,192.598386 C44.5849666,227.145182 27.0386249,247.873259 2.01351462,252.479499 Z" id="Shape" fill="#18343F"></path>
                                    <path d="M165.971134,252.479499 C140.946024,248.161149 123.399682,227.433072 115.057978,192.886276 C109.017435,167.551959 109.880369,143.657092 109.880369,142.793422 L117.934428,143.081312 C117.934428,143.944982 114.770333,235.206101 167.409359,244.706469 L165.971134,252.479499 Z" id="Shape" fill="#18343F"></path>
                                    <rect id="Rectangle-path" fill="#18343F" x="27.6139148" y="134.444613" width="110.455659" height="20.4401875"></rect>
                                    <rect id="Rectangle-path" fill="#18343F" x="31.0656542" y="86.9427692" width="103.839826" height="9.21247885"></rect>
                                    <rect id="Rectangle-path" fill="#18343F" x="31.0656542" y="100.473597" width="103.839826" height="6.90935914"></rect>
                                </g>
                            </g>
                            <g transform="translate(741.388301, 452.779624)" id="Oval" fill="#D7E5EF">
                                <g transform="translate(0.000000, 59.720133)">
                                    <ellipse transform="translate(40.842052, 79.049164) rotate(-71.276971) translate(-40.842052, -79.049164) " cx="40.8420523" cy="79.0491636" rx="29.9156639" ry="29.9411462"></ellipse>
                                    <ellipse transform="translate(36.215916, 98.029979) rotate(-71.282398) translate(-36.215916, -98.029979) " cx="36.2159162" cy="98.0299793" rx="21.5731037" ry="21.5914798"></ellipse>
                                    <ellipse transform="translate(17.114393, 117.099235) rotate(-71.282398) translate(-17.114393, -117.099235) " cx="17.1143933" cy="117.099235" rx="12.9438622" ry="12.9548879"></ellipse>
                                    <ellipse transform="translate(73.637201, 60.497160) rotate(-71.276971) translate(-73.637201, -60.497160) " cx="73.6372005" cy="60.4971601" rx="31.3539169" ry="31.3806244"></ellipse>
                                    <ellipse transform="translate(74.640765, 36.368296) rotate(-71.282398) translate(-74.640765, -36.368296) " cx="74.640765" cy="36.3682961" rx="28.1888554" ry="28.2128669"></ellipse>
                                    <ellipse transform="translate(111.194081, 31.410169) rotate(-71.276971) translate(-111.194081, -31.410169) " cx="111.194081" cy="31.4101688" rx="24.7379528" ry="24.7590248"></ellipse>
                                </g>
                                <g transform="translate(59.335044, 61.527962)">
                                    <ellipse transform="translate(38.264016, 79.893722) rotate(-71.282398) translate(-38.264016, -79.893722) " cx="38.2640161" cy="79.8937217" rx="29.9147037" ry="29.9401853"></ellipse>
                                    <ellipse transform="translate(70.836700, 61.255380) rotate(-71.276971) translate(-70.836700, -61.255380) " cx="70.8366997" cy="61.25538" rx="31.3539169" ry="31.3806244"></ellipse>
                                    <ellipse transform="translate(72.195160, 37.263379) rotate(-71.276971) translate(-72.195160, -37.263379) " cx="72.1951605" cy="37.2633789" rx="28.1897602" ry="28.2137724"></ellipse>
                                    <ellipse transform="translate(108.773300, 32.007141) rotate(-71.276971) translate(-108.773300, -32.007141) " cx="108.7733" cy="32.0071415" rx="24.7379528" ry="24.7590248"></ellipse>
                                </g>
                                <g transform="translate(93.852437, 0.000000)">
                                    <ellipse transform="translate(42.906807, 64.737039) rotate(-45.757633) translate(-42.906807, -64.737039) " cx="42.9068069" cy="64.7370389" rx="29.9152875" ry="29.9407696"></ellipse>
                                    <ellipse transform="translate(80.256410, 61.812422) rotate(-45.765735) translate(-80.256410, -61.812422) " cx="80.2564101" cy="61.8124224" rx="31.3535815" ry="31.3802887"></ellipse>
                                    <ellipse transform="translate(91.492512, 40.691980) rotate(-45.765735) translate(-91.492512, -40.691980) " cx="91.492512" cy="40.6919797" rx="28.1894586" ry="28.2134705"></ellipse>
                                    <ellipse transform="translate(127.018619, 52.006775) rotate(-45.765735) translate(-127.018619, -52.006775) " cx="127.018619" cy="52.006775" rx="24.7376881" ry="24.7587599"></ellipse>
                                </g>
                            </g>
                            <polygon id="Shape" fill="#18343F" points="1403.70734 1010.13459 1210.98522 1010.13459 1210.98522 932.116414 1403.70734 998.331106"></polygon>
                            <polygon id="Shape" fill="#18343F" points="38.5444228 1010.13459 231.266537 1010.13459 231.266537 932.116414 38.5444228 998.331106"></polygon>
                            <rect id="Rectangle-path" fill="#D7E5EF" x="0.862934838" y="999.482666" width="1448.2923" height="33.9710158"></rect>
                        </g>
                        <rect id="Rectangle-path" fill="#FCDA87" fill-rule="nonzero" x="426.28981" y="510.357617" width="211.994325" height="12.0913785"></rect>
                        <rect id="Rectangle-path" fill="#F3A0BB" fill-rule="nonzero" x="426.28981" y="474.083481" width="211.994325" height="8.06091899"></rect>
                    </g>
                </g>
            </g>
        </g>
    </g>
</svg>