<?xml version="1.0" encoding="UTF-8"?>
<svg width="584px" height="327px" viewBox="0 0 584 327" version="1.1" xmlns="http://www.w3.org/2000/svg" xmlns:xlink="http://www.w3.org/1999/xlink">
    <!-- Generator: Sketch 42 (36781) - http://www.bohemiancoding.com/sketch -->
    <title>Eisenhower</title>
    <desc>Created with Sketch.</desc>
    <defs>
        <filter x="-50%" y="-50%" width="200%" height="200%" filterUnits="objectBoundingBox" id="filter-1">
            <feOffset dx="0" dy="1" in="SourceAlpha" result="shadowOffsetOuter1"></feOffset>
            <feColorMatrix values="0 0 0 0 0   0 0 0 0 0   0 0 0 0 0  0 0 0 0.5 0" type="matrix" in="shadowOffsetOuter1" result="shadowMatrixOuter1"></feColorMatrix>
            <feMerge>
                <feMergeNode in="shadowMatrixOuter1"></feMergeNode>
                <feMergeNode in="SourceGraphic"></feMergeNode>
            </feMerge>
        </filter>
        <polygon id="path-2" points="0 292.935759 584 292.935759 584 0 0 0"></polygon>
        <polygon id="path-4" points="434 19.9003106 425.965558 24 427.5 15.3167184 421 9.16718427 429.982779 7.90031056 434 0 438.017221 7.90031056 447 9.16718427 440.5 15.3167184 442.034442 24"></polygon>
        <filter x="-50%" y="-50%" width="200%" height="200%" filterUnits="objectBoundingBox" id="filter-5">
            <feOffset dx="0" dy="1" in="SourceAlpha" result="shadowOffsetOuter1"></feOffset>
            <feColorMatrix values="0 0 0 0 0   0 0 0 0 0   0 0 0 0 0  0 0 0 0.5 0" type="matrix" in="shadowOffsetOuter1"></feColorMatrix>
        </filter>
        <polygon id="path-6" points="219 74.9003106 210.965558 79 212.5 70.3167184 206 64.1671843 214.982779 62.9003106 219 55 223.017221 62.9003106 232 64.1671843 225.5 70.3167184 227.034442 79"></polygon>
        <filter x="-50%" y="-50%" width="200%" height="200%" filterUnits="objectBoundingBox" id="filter-7">
            <feOffset dx="0" dy="1" in="SourceAlpha" result="shadowOffsetOuter1"></feOffset>
            <feColorMatrix values="0 0 0 0 0   0 0 0 0 0   0 0 0 0 0  0 0 0 0.5 0" type="matrix" in="shadowOffsetOuter1"></feColorMatrix>
        </filter>
        <polygon id="path-8" points="452 207.900311 443.965558 212 445.5 203.316718 439 197.167184 447.982779 195.900311 452 188 456.017221 195.900311 465 197.167184 458.5 203.316718 460.034442 212"></polygon>
        <filter x="-50%" y="-50%" width="200%" height="200%" filterUnits="objectBoundingBox" id="filter-9">
            <feOffset dx="0" dy="1" in="SourceAlpha" result="shadowOffsetOuter1"></feOffset>
            <feColorMatrix values="0 0 0 0 0   0 0 0 0 0   0 0 0 0 0  0 0 0 0.5 0" type="matrix" in="shadowOffsetOuter1"></feColorMatrix>
        </filter>
        <polygon id="path-10" points="32 52.9003106 23.9655581 57 25.5 48.3167184 19 42.1671843 27.9827791 40.9003106 32 33 36.0172209 40.9003106 45 42.1671843 38.5 48.3167184 40.0344419 57"></polygon>
        <filter x="-50%" y="-50%" width="200%" height="200%" filterUnits="objectBoundingBox" id="filter-11">
            <feOffset dx="0" dy="1" in="SourceAlpha" result="shadowOffsetOuter1"></feOffset>
            <feColorMatrix values="0 0 0 0 0   0 0 0 0 0   0 0 0 0 0  0 0 0 0.5 0" type="matrix" in="shadowOffsetOuter1"></feColorMatrix>
        </filter>
    </defs>
    <g id="Page-1" stroke="none" stroke-width="1" fill="none" fill-rule="evenodd">
        <g id="PINK" transform="translate(-730.000000, -1267.000000)">
            <g id="Eisenhower" transform="translate(730.000000, 1267.000000)">
                <g id="Page-1" filter="url(#filter-1)" transform="translate(0.000000, 33.000000)">
                    <path d="M275.968732,269.620167 C279.741309,263.064488 287.60501,259.120739 290.618699,269.620167 C293.632389,280.118028 293.440325,284.539664 285.991983,286.69721 C282.918956,287.587178 280.248796,290.962161 274.582122,292.265776 C269.296453,293.481648 260.975234,293.813819 263.478314,285.706964 C265.03825,280.653889 271.281117,276.623964 275.968732,269.620167 Z" id="Fill-1" fill="#1E0F06"></path>
                    <path d="M323.559266,269.620167 C328.246881,276.623964 334.491309,280.653889 336.051245,285.706964 C338.640207,294.100552 329.510133,293.517686 324.246325,292.09029 C319.052785,290.681696 316.479437,287.548006 313.536015,286.69721 C306.089234,284.539664 305.895609,280.118028 308.91086,269.620167 C311.92455,259.120739 319.786689,263.064488 323.559266,269.620167" id="Fill-3" fill="#1E0F06"></path>
                    <path d="M280.267378,179.150228 L332.981966,179.150228 L328.63788,275.473586 L306.741003,275.473586 L311.08665,205.523361 C311.458287,199.541148 302.990287,199.578752 302.162693,205.523361 L292.436126,275.473586 L270.540811,275.473586 L280.267378,179.150228 Z" id="Fill-5" fill="#101010"></path>
                    <mask id="mask-3" fill="white">
                        <use xlink:href="#path-2"></use>
                    </mask>
                    <g id="Clip-8"></g>
                    <polygon id="Fill-7" fill="#212121" mask="url(#mask-3)" points="280.268471 186.385604 332.981497 186.385604 332.981497 102.985583 280.268471 102.985583"></polygon>
                    <path d="M306.625296,63.671877 L306.625296,63.671877 C313.171093,63.671877 318.530152,69.0477219 318.530152,75.6175027 L318.530152,102.985583 C318.530152,109.55693 313.171093,114.932775 306.625296,114.932775 C300.079499,114.932775 294.720441,109.55693 294.720441,102.985583 L294.720441,75.6175027 C294.720441,69.0477219 300.079499,63.671877 306.625296,63.671877" id="Fill-9" fill="#FCD9BD" mask="url(#mask-3)"></path>
                    <path d="M318.530152,94.0799497 L318.530152,94.0799497 C318.530152,104.33965 294.720441,104.33965 294.720441,94.0799497 C294.720441,83.8202492 318.530152,83.8202492 318.530152,94.0799497" id="Fill-10" fill="#DFBA9A" mask="url(#mask-3)"></path>
                    <path d="M306.625296,-0.000313368984 C239.546494,-0.000313368984 255.709553,97.6940342 306.625296,97.6940342 C357.54104,97.6940342 373.704098,-0.000313368984 306.625296,-0.000313368984" id="Fill-11" fill="#FCD9BD" mask="url(#mask-3)"></path>
                    <path d="M290.828877,115.512351 L276.694203,155.575009 C274.893797,160.678223 269.259914,163.37633 264.174118,161.569758 C259.086759,159.761619 256.399422,154.108442 258.199829,149.005228 L272.334503,108.942571 C276.441241,97.3024797 294.723251,104.473929 290.828877,115.512351" id="Fill-12" fill="#212121" mask="url(#mask-3)"></path>
                    <path d="M275.025587,185.516945 L275.025587,185.516945 C276.337245,185.513812 277.413117,186.588667 277.414678,187.90325 L277.425609,193.709978 C277.428732,195.026127 276.357544,196.105683 275.045887,196.108817 L275.045887,196.108817 C273.734229,196.110384 272.658357,195.035528 272.656796,193.719379 L272.645865,187.912651 C272.644304,186.596502 273.713929,185.518512 275.025587,185.516945" id="Fill-13" fill="#FCD9BD" mask="url(#mask-3)"></path>
                    <path d="M277.415147,187.904034 L277.358933,184.688868 L258.150954,184.843986 L258.205606,188.060718 C258.430462,202.268868 277.696216,204.340237 277.415147,187.904034" id="Fill-14" fill="#FCD9BD" mask="url(#mask-3)"></path>
                    <path d="M277.359401,184.689181 L277.242289,153.928882 C277.221989,148.516999 272.660856,144.164304 267.265882,144.258315 C261.870909,144.350759 257.53307,148.857005 257.626759,154.268887 L258.149861,184.844299 L277.359401,184.689181 Z" id="Fill-15" fill="#212121" mask="url(#mask-3)"></path>
                    <path d="M260.022096,43.0152203 C263.410545,42.1471882 267.526652,46.8242203 269.214631,53.4613754 C270.904171,60.0969636 269.52693,66.1810225 266.138481,67.0490545 C262.751594,67.9170866 258.635487,63.2400545 256.947508,56.6044663 C255.257968,49.9673112 256.635209,43.8832524 260.022096,43.0152203" id="Fill-16" fill="#FCD9BD" mask="url(#mask-3)"></path>
                    <path d="M353.262849,43.0152203 C349.875961,42.1471882 345.761416,46.8242203 344.071876,53.4613754 C342.382336,60.0969636 343.759576,66.1810225 347.148026,67.0490545 C350.534913,67.9170866 354.65102,63.2400545 356.34056,56.6044663 C358.030101,49.9673112 356.65286,43.8832524 353.262849,43.0152203" id="Fill-17" fill="#FCD9BD" mask="url(#mask-3)"></path>
                    <path d="M306.100789,114.09702 L306.100789,114.09702 C306.780041,114.09702 307.329688,114.650117 307.329688,115.331694 C307.329688,116.011705 306.780041,116.564801 306.100789,116.564801 C305.421538,116.564801 304.871891,116.011705 304.871891,115.331694 C304.871891,114.650117 305.421538,114.09702 306.100789,114.09702" id="Fill-18" fill="#EBE0D2" mask="url(#mask-3)"></path>
                    <path d="M296.268197,117.797595 L307.329844,147.398429 L318.393052,114.096707 L311.043084,113.214573 L306.68963,115.079119 C306.316432,115.238937 305.891705,115.224835 305.529437,115.043081 L301.18379,112.8636 L296.268197,116.564488" id="Fill-19" fill="#EBE0D2" mask="url(#mask-3)"></path>
                    <polygon id="Fill-20" fill="#FFF6EB" mask="url(#mask-3)" points="294.305707 98.8898503 290.416017 103.394529 295.203568 122.315749 303.284317 112.704722"></polygon>
                    <polygon id="Fill-21" fill="#FFF6EB" mask="url(#mask-3)" points="319.747027 98.8898503 323.638278 103.394529 318.850727 122.315749 310.768417 112.704722"></polygon>
                    <path d="M306.625296,114.932462 L303.283692,112.705975 L302.154729,114.051895 C303.494494,114.741307 305.045061,114.932462 306.625296,114.932462 L306.625296,114.932462 Z M311.682986,113.791799 C310.229232,114.730339 308.428826,114.932462 306.625296,114.932462 L310.767949,112.705975 L311.682986,113.791799 Z" id="Fill-22" fill="#FFF6EB" mask="url(#mask-3)"></path>
                    <polygon id="Fill-23" fill="#FFF6EB" mask="url(#mask-3)" points="258.150329 184.843829 258.080062 180.665053 277.344255 180.497401 277.35987 184.688711"></polygon>
                    <path d="M323.226824,117.264397 L344.133711,154.226269 C346.794503,158.934638 352.812513,160.600194 357.503251,157.927157 C362.197112,155.255686 363.858545,149.218633 361.194631,144.510264 L340.289305,107.548392 C334.21508,96.8092369 317.468021,107.079905 323.226824,117.264397" id="Fill-24" fill="#212121" mask="url(#mask-3)"></path>
                    <path d="M372.040479,183.716014 L369.823153,181.39395 L383.576821,167.934752 L385.794148,170.256816 C395.601912,180.508682 383.372265,195.587998 372.040479,183.716014" id="Fill-25" fill="#FCD9BD" mask="url(#mask-3)"></path>
                    <path d="M369.823309,181.393323 L348.327737,159.465328 C344.54579,155.607756 344.731609,149.291804 348.629106,145.548612 C352.525042,141.803852 358.766347,141.938601 362.498325,145.847879 L383.576978,167.934125 L369.823309,181.393323 Z" id="Fill-26" fill="#212121" mask="url(#mask-3)"></path>
                    <polygon id="Fill-27" fill="#FFF6EB" mask="url(#mask-3)" points="369.817219 181.39489 366.883166 178.427286 380.668064 164.924216 383.572449 167.938826"></polygon>
                    <polygon id="Fill-28" fill="#C33E3E" mask="url(#mask-3)" transform="translate(306.716800, 117.181041) rotate(-6.000000) translate(-306.716800, -117.181041) " points="306.555185 119.792188 304.114565 117.018873 306.876853 114.569894 309.319035 117.341643"></polygon>
                    <polygon id="Fill-29" fill="#C33E3E" mask="url(#mask-3)" points="307.059861 147.949488 301.519668 131.887761 306.877166 119.503419 312.601615 131.270424"></polygon>
                    <path d="M288.997397,46.432039 C288.997397,47.2264294 288.091728,47.8704027 286.972135,47.8704027 C285.855664,47.8704027 284.949996,47.2264294 284.949996,46.432039 L284.949996,41.9586968 C284.949996,41.1643064 285.855664,40.5203332 286.972135,40.5203332 C288.091728,40.5203332 288.997397,41.1643064 288.997397,41.9586968 L288.997397,46.432039 Z" id="Fill-30" fill="#28252A" mask="url(#mask-3)"></path>
                    <path d="M324.9668,46.432039 C324.9668,47.2264294 324.061132,47.8704027 322.943099,47.8704027 C321.825067,47.8704027 320.92096,47.2264294 320.92096,46.432039 L320.92096,41.9586968 C320.92096,41.1643064 321.825067,40.5203332 322.943099,40.5203332 C324.061132,40.5203332 324.9668,41.1643064 324.9668,41.9586968 L324.9668,46.432039 Z" id="Fill-31" fill="#28252A" mask="url(#mask-3)"></path>
                    <path d="M300.350419,59.6109283 C302.567745,60.3708481 304.169842,61.028923 305.493991,61.0304898 C306.146697,61.0242225 306.819703,61.0116877 307.622312,60.6983187 C308.039232,60.6074417 308.449906,60.3755487 308.930847,60.2235647 C309.399296,60.0261422 309.859938,59.7848481 310.46736,59.6109283 C310.411147,60.2063294 310.231574,60.756292 310.017649,61.3078214 C309.706911,61.7872759 309.452387,62.3560406 308.973007,62.7555861 C308.145414,63.6627893 306.746312,64.2064845 305.392494,64.1626128 C304.021499,64.120308 302.797286,63.5014043 301.943147,62.6803775 C301.098376,61.8389818 300.481585,60.8236663 300.350419,59.6109283" id="Fill-32" fill="#DFAD8B" mask="url(#mask-3)"></path>
                    <path d="M294.025106,77.7719144 C296.393897,78.6806845 298.536272,79.4312032 300.642732,79.9811658 C302.744507,80.5295615 304.782261,80.8100267 306.791908,80.7990588 C308.792186,80.7504866 310.82994,80.5922353 312.895801,79.948262 C313.97948,79.7712086 314.966347,79.2557166 316.109363,78.9736845 C317.216464,78.6054759 318.273598,78.0946845 319.557149,77.7719144 C318.959095,78.8828075 318.22363,79.9263262 317.383544,80.8930695 C316.932272,81.3349198 316.460699,81.7705027 315.971951,82.1935508 C315.498817,82.6432353 314.964785,83.0083102 314.391716,83.3248128 C312.210304,84.788246 309.469876,85.4713904 306.777855,85.4980267 C304.067095,85.5089947 301.393812,84.717738 299.174924,83.3577166 C296.973213,81.978893 295.085363,80.1221818 294.025106,77.7719144" id="Fill-33" fill="#28252A" mask="url(#mask-3)"></path>
                    <polygon id="Fill-34" fill="#D9D9DB" mask="url(#mask-3)" points="25.9114866 121.652973 191.751872 121.652973 191.751872 85.2520321 25.9114866 85.2520321"></polygon>
                    <polygon id="Fill-35" fill="#C8C7CC" mask="url(#mask-3)" points="108.831679 121.652973 191.751872 121.652973 191.751872 85.2520321 108.831679 85.2520321"></polygon>
                    <polygon id="Fill-36" fill="#F9F9FA" mask="url(#mask-3)" points="101.058545 54.0514492 139.927337 54.0514492 139.927337 22.8492995 101.058545 22.8492995"></polygon>
                    <polygon id="Fill-37" fill="#B34848" mask="url(#mask-3)" points="101.058545 54.0514492 139.927337 54.0514492 139.927337 43.6507326 101.058545 43.6507326"></polygon>
                    <polygon id="Fill-38" fill="#B34848" mask="url(#mask-3)" points="101.058545 33.250016 139.927337 33.250016 139.927337 22.8492995 101.058545 22.8492995"></polygon>
                    <polygon id="Fill-39" fill="#476D95" mask="url(#mask-3)" points="101.058545 38.4503743 119.196898 38.4503743 119.196898 22.8492995 101.058545 22.8492995"></polygon>
                    <polygon id="Fill-40" fill="#D9D9DB" mask="url(#mask-3)" points="101.058545 69.6525241 116.606374 69.6525241 116.606374 54.0514492 101.058545 54.0514492"></polygon>
                    <polyline id="Fill-41" fill="#F9F9FA" mask="url(#mask-3)" points="46.6420813 121.654383 0.000156149733 121.654383 0.000156149733 230.858774 217.663514 230.858774 217.663514 121.654383 171.021589 121.654383"></polyline>
                    <polyline id="Fill-42" fill="#EEEEEE" mask="url(#mask-3)" points="132.15311 121.654383 108.832148 121.654383 108.832148 230.858774 217.663827 230.858774 217.663827 121.654383 194.342864 121.654383"></polyline>
                    <polygon id="Fill-43" fill="#434247" mask="url(#mask-3)" points="178.794567 168.456198 194.342396 168.456198 194.342396 147.656332 178.794567 147.656332"></polygon>
                    <polygon id="Fill-44" fill="#434247" mask="url(#mask-3)" points="178.794567 204.857139 194.342396 204.857139 194.342396 184.057273 178.794567 184.057273"></polygon>
                    <polygon id="Fill-45" fill="#434247" mask="url(#mask-3)" points="23.3209626 168.456198 38.8687914 168.456198 38.8687914 147.656332 23.3209626 147.656332"></polygon>
                    <polygon id="Fill-46" fill="#434247" mask="url(#mask-3)" points="23.3209626 204.857139 38.8687914 204.857139 38.8687914 184.057273 23.3209626 184.057273"></polygon>
                    <polygon id="Fill-47" fill="#F9F9FA" mask="url(#mask-3)" points="171.022058 106.053152 108.832304 64.4518524 46.6425497 106.053152 46.6425497 126.854585 171.022058 126.854585"></polygon>
                    <polygon id="Fill-48" fill="#EEEEEE" mask="url(#mask-3)" points="171.022058 106.053152 108.832304 64.4518524 108.830742 64.4518524 108.830742 126.854585 171.022058 126.854585"></polygon>
                    <polygon id="Fill-49" fill="#EEEEEE" mask="url(#mask-3)" points="98.4680214 230.85893 119.196898 230.85893 119.196898 121.65454 98.4680214 121.65454"></polygon>
                    <polygon id="Fill-50" fill="#D9D9DB" mask="url(#mask-3)" points="108.831679 230.85893 119.196898 230.85893 119.196898 121.65454 108.831679 121.65454"></polygon>
                    <polygon id="Fill-51" fill="#EEEEEE" mask="url(#mask-3)" points="62.189754 230.85893 82.918631 230.85893 82.918631 121.65454 62.189754 121.65454"></polygon>
                    <polygon id="Fill-52" fill="#D9D9DB" mask="url(#mask-3)" points="134.744727 230.85893 155.475166 230.85893 155.475166 121.65454 134.744727 121.65454"></polygon>
                    <path d="M581.755348,89.8706209 L583.754064,85.817193 C584.330257,84.6514604 583.863369,83.2193642 582.664139,82.6239631 L463.348567,23.3455193 C462.175882,22.7642198 460.745551,23.2201717 460.158428,24.4109738 L458.15815,28.4644016 L455.106984,34.6471717 L452.055818,40.8283749 L448.993722,47.0362144 L445.942556,53.2174176 L442.867968,59.4503267 L440.866128,63.5053214 L436.765636,71.8158668 L433.728524,77.9720005 L430.666428,84.1798401 L427.60277,90.3876797 L424.539112,96.5939524 L422.540396,100.64738 C421.964203,101.813113 422.432652,103.245209 423.630321,103.84061 L542.970877,163.131589 C544.321572,163.675284 545.61293,163.180161 546.162578,162.066134 L548.162856,158.012706 L551.201529,151.792332 L554.276118,145.623664 L557.325722,139.37822 L560.401872,133.207984 L563.428053,127.01268 L566.502642,120.844011 L569.553807,114.598567 L572.628396,108.429899 L575.66707,102.209525 L578.741658,96.0408561 L581.755348,89.8706209 Z" id="Fill-53" fill="#FFF6EB" mask="url(#mask-3)"></path>
                    <path d="M583.754533,85.8165663 C584.330725,84.6508337 583.862276,83.2203043 582.664607,82.6249032 L463.349035,23.3464594 C462.176351,22.763593 460.746019,23.2195449 460.158896,24.4119139 L458.157057,28.4637749 L581.755816,89.8699941 L583.754533,85.8165663 Z" id="Fill-54" fill="#D46453" mask="url(#mask-3)"></path>
                    <polygon id="Fill-55" fill="#D46453" mask="url(#mask-3)" points="449.006682 47.0111449 572.628864 108.429899 569.57926 114.611102 445.955517 53.1923481"></polygon>
                    <polygon id="Fill-56" fill="#D46453" mask="url(#mask-3)" points="455.106359 34.647015 578.730103 96.065769 575.680498 102.246972 452.056755 40.8282182"></polygon>
                    <path d="M440.866753,63.505008 C440.292122,64.6707406 440.760571,66.1012701 441.95824,66.6966711 L563.439609,127.051537 L566.490774,120.868767 L442.867031,59.4515802 L440.866753,63.505008 Z" id="Fill-57" fill="#D46453" mask="url(#mask-3)"></path>
                    <polygon id="Fill-58" fill="#D46453" mask="url(#mask-3)" points="430.66674 84.1793701 554.288922 145.598124 551.239318 151.779327 427.615574 90.3621401"></polygon>
                    <path d="M422.540552,100.648007 C421.964359,101.81374 422.432809,103.244269 423.630477,103.83967 L542.971033,163.130649 C544.143718,163.713515 545.588103,163.232494 546.162734,162.066761 L548.163012,158.013333 L424.539268,96.5945791 L422.540552,100.648007 Z" id="Fill-59" fill="#D46453" mask="url(#mask-3)"></path>
                    <polygon id="Fill-60" fill="#D46453" mask="url(#mask-3)" points="436.780002 71.7898572 560.402184 133.208611 557.35258 139.389814 433.728836 77.9710604"></polygon>
                    <path d="M520.062462,51.459261 L465.235168,24.219662 C464.035938,23.624261 462.555639,24.119384 461.966954,25.3101861 L442.114077,65.5436299 C441.526954,66.7359989 442.007895,68.2041326 443.232109,68.8120684 L498.059403,96.0516674 C499.257072,96.6470684 500.726441,96.1785818 501.326056,94.9611433 L521.178933,54.7276995 C521.780109,53.5118278 521.26013,52.054662 520.062462,51.459261" id="Fill-61" fill="#434B9B" mask="url(#mask-3)"></path>
                    <path d="M466.748883,31.1874214 L466.520905,32.8717797 L468.049611,33.6316995 C468.252605,33.7335444 468.20576,34.0249775 467.988712,34.0751166 L466.316349,34.3790845 L466.061825,36.050908 C466.024349,36.2545979 465.73391,36.3298064 465.643343,36.1276834 L464.831365,34.6203786 L463.144948,34.8867422 C462.931022,34.9368813 462.788926,34.6454481 462.951322,34.5059989 L464.122445,33.2901273 L463.299536,31.7452182 C463.207407,31.5430952 463.410402,31.3268706 463.613397,31.4287155 L465.143664,32.1886353 L466.339771,30.9852984 C466.50529,30.8458492 466.759814,30.9711968 466.748883,31.1874214" id="Fill-62" fill="#FFF6EB" mask="url(#mask-3)"></path>
                    <path d="M463.009878,38.7621765 L462.781899,40.4481016 L464.310605,41.2080214 C464.515161,41.3082995 464.466755,41.5997326 464.251268,41.6498717 L462.578905,41.9554064 L462.324381,43.6272299 C462.286905,43.8293529 461.996466,43.9061283 461.905899,43.7024385 L461.093921,42.1951337 L459.407504,42.4614973 C459.192017,42.5132032 459.049921,42.2217701 459.213878,42.0823209 L460.385001,40.8648824 L459.61206,39.3466096 C459.521493,39.1429198 459.724488,38.9266952 459.925921,39.0285401 L461.456188,39.7884599 L462.652295,38.585123 C462.778776,38.3955348 463.034862,38.5224492 463.009878,38.7621765" id="Fill-63" fill="#FFF6EB" mask="url(#mask-3)"></path>
                    <path d="M459.272278,46.3378717 L459.044299,48.0222299 L460.573005,48.7837166 C460.777561,48.8839947 460.729155,49.1754278 460.513668,49.2255668 L458.839743,49.5311016 L458.586781,51.2013583 C458.549305,51.4050481 458.258866,51.4818235 458.166738,51.2781337 L457.354759,49.7708289 L455.668342,50.0371925 C455.454417,50.0888984 455.312321,49.7974652 455.474717,49.658016 L456.647401,48.4405775 L455.872898,46.9223048 C455.783893,46.718615 455.985326,46.5023904 456.188321,46.6042353 L457.718588,47.3641551 L458.914695,46.1608182 C459.028684,45.9962995 459.283209,46.1232139 459.272278,46.3378717" id="Fill-64" fill="#FFF6EB" mask="url(#mask-3)"></path>
                    <path d="M455.534834,53.9135668 L455.306856,55.5979251 L456.835561,56.3594118 C457.038556,56.4596898 456.991711,56.751123 456.774663,56.801262 L455.102299,57.1067968 L454.847775,58.7770535 C454.810299,58.9807433 454.519861,59.0575187 454.429294,58.8538289 L453.617316,57.3465241 L451.930898,57.6128877 C451.716973,57.6645936 451.574877,57.3731604 451.737273,57.2337112 L452.908396,56.0162727 L452.135455,54.498 C452.046449,54.2943102 452.247882,54.0780856 452.450877,54.1799305 L453.981144,54.9398503 L455.177251,53.7365134 C455.303733,53.5469251 455.558257,53.6738396 455.534834,53.9135668" id="Fill-65" fill="#FFF6EB" mask="url(#mask-3)"></path>
                    <path d="M451.808009,61.4638791 L451.58003,63.1482374 L453.110297,63.9081572 C453.313292,64.0100021 453.264886,64.3014353 453.049399,64.3515743 L451.377035,64.6571091 L451.122511,66.3273658 C451.085035,66.5310556 450.794597,66.6062642 450.70403,66.4041412 L449.892051,64.8968364 L448.205634,65.1632 C447.991709,65.2149059 447.848051,64.9234727 448.012009,64.7840235 L449.183132,63.566585 L448.41019,62.0467455 C448.321185,61.8446225 448.522618,61.6283979 448.725613,61.7302428 L450.254319,62.4901626 L451.450426,61.2868257 C451.564415,61.122307 451.820501,61.2492214 451.808009,61.4638791" id="Fill-66" fill="#FFF6EB" mask="url(#mask-3)"></path>
                    <path d="M470.823455,37.8494893 L470.595476,39.5338476 L472.125743,40.2937674 C472.328738,40.3956123 472.280332,40.6870455 472.064845,40.7371845 L470.392481,41.0411524 L470.137957,42.7129759 C470.100481,42.9166658 469.810043,42.9918743 469.719476,42.7897513 L468.907497,41.2824465 L467.22108,41.5488102 C467.005594,41.5989492 466.863497,41.3090829 467.027455,41.1696337 L468.198578,39.9521952 L467.425636,38.4323556 C467.336631,38.2302326 467.538064,38.014008 467.739497,38.1158529 L469.269765,38.8757727 L470.465872,37.6724358 C470.593914,37.4828476 470.848439,37.6081952 470.823455,37.8494893" id="Fill-67" fill="#FFF6EB" mask="url(#mask-3)"></path>
                    <path d="M467.09819,45.3999583 L466.870212,47.0843166 L468.398918,47.8442364 C468.603474,47.9460813 468.555067,48.2375144 468.339581,48.2876535 L466.665656,48.5916214 L466.412693,50.2634449 C466.375217,50.4671348 466.084779,50.5423433 465.994212,50.3402203 L465.182233,48.8329155 L463.495816,49.0992791 C463.280329,49.1494182 463.138233,48.857985 463.30219,48.7185358 L464.473313,47.5026642 L463.700372,45.9828246 C463.609805,45.7807016 463.8128,45.564477 464.014233,45.6663219 L465.544501,46.4262417 L466.740607,45.2229048 C466.854597,45.0583861 467.109121,45.1837337 467.09819,45.3999583" id="Fill-68" fill="#FFF6EB" mask="url(#mask-3)"></path>
                    <path d="M463.348411,53.000723 L463.120432,54.6850813 L464.649138,55.4450011 C464.853694,55.546846 464.805288,55.8382791 464.58824,55.8884182 L462.88933,56.1798513 L462.636368,57.8516749 C462.600453,58.0553647 462.308453,58.1305733 462.216325,57.9284503 L461.405908,56.4211455 L459.719491,56.6875091 C459.504004,56.7376481 459.361908,56.446215 459.527427,56.3067658 L460.69855,55.0908941 L459.925609,53.5710545 C459.83348,53.3673647 460.034913,53.152707 460.23947,53.2545519 L461.768175,54.0144717 L462.965844,52.8095679 C463.117309,52.6340813 463.371833,52.7594289 463.348411,53.000723" id="Fill-69" fill="#FFF6EB" mask="url(#mask-3)"></path>
                    <path d="M459.623147,60.5504086 L459.395168,62.2363337 L460.923874,62.9962535 C461.126868,63.0965316 461.080024,63.3879647 460.862975,63.4381037 L459.190612,63.7436385 L458.936088,65.415462 C458.898612,65.617585 458.608173,65.6943604 458.517606,65.4906706 L457.705628,63.9833658 L456.019211,64.2497294 C455.805286,64.3014353 455.663189,64.0100021 455.825585,63.8705529 L456.996708,62.6531144 L456.223767,61.1348417 C456.134761,60.9311519 456.336195,60.7149273 456.539189,60.8167722 L458.069457,61.576692 L459.265564,60.3733551 C459.379553,60.2088364 459.634077,60.3357508 459.623147,60.5504086" id="Fill-70" fill="#FFF6EB" mask="url(#mask-3)"></path>
                    <path d="M478.550056,37.050085 L478.322077,38.7344433 L479.850783,39.4959299 C480.055339,39.596208 480.006933,39.8876412 479.791446,39.9377802 L478.117521,40.243315 L477.864558,41.9135717 C477.827082,42.1172615 477.536644,42.1940369 477.444516,41.9903471 L476.632537,40.4830422 L474.94612,40.7494059 C474.732195,40.8011118 474.590098,40.5096786 474.752494,40.3702294 L475.925179,39.1527909 L475.127253,37.6204166 C475.035125,37.4182936 475.236558,37.2036358 475.441114,37.3039139 L476.96982,38.0638337 L478.167489,36.8604968 C478.306462,36.7085128 478.58597,36.847962 478.550056,37.050085" id="Fill-71" fill="#FFF6EB" mask="url(#mask-3)"></path>
                    <path d="M474.81105,44.6256235 L474.583072,46.3099818 L476.113339,47.0699016 C476.316334,47.1717465 476.267927,47.4631797 476.052441,47.5133187 L474.380077,47.8188535 L474.125553,49.4891102 C474.088077,49.6928 473.797639,49.7695754 473.707072,49.5658856 L472.895093,48.0585807 L471.208676,48.3249444 C470.994751,48.3766503 470.851093,48.0852171 471.01505,47.9457679 L472.186173,46.7283294 L471.413232,45.2084898 C471.324227,45.0063668 471.52566,44.7901422 471.728655,44.8919872 L473.25736,45.651907 L474.453467,44.4485701 C474.58151,44.2589818 474.861018,44.3968642 474.81105,44.6256235" id="Fill-72" fill="#FFF6EB" mask="url(#mask-3)"></path>
                    <path d="M471.073606,52.2013187 L470.845628,53.885677 L472.374334,54.6455968 C472.57889,54.7474417 472.530483,55.0388749 472.314997,55.0890139 L470.641072,55.3945487 L470.388109,57.0648053 C470.350633,57.2684952 470.060195,57.3437037 469.969628,57.1415807 L469.156088,55.6342759 L467.45874,55.9257091 C467.243253,55.977415 467.101157,55.6859818 467.265114,55.5465326 L468.437799,54.3290941 L467.661735,52.8092545 C467.572729,52.6071316 467.774163,52.3924738 467.978719,52.4927519 L469.507425,53.2526717 L470.705093,52.0493348 C470.830013,51.8597465 471.109521,51.9991957 471.073606,52.2013187" id="Fill-73" fill="#FFF6EB" mask="url(#mask-3)"></path>
                    <path d="M467.336006,59.7770139 L467.108028,61.4613722 L468.636734,62.221292 C468.84129,62.3231369 468.792883,62.6145701 468.577397,62.6647091 L466.903472,62.968677 L466.650509,64.6405005 C466.613033,64.8441904 466.322595,64.9193989 466.230466,64.7172759 L465.418488,63.2099711 L463.732071,63.4763348 C463.518145,63.5280406 463.376049,63.2366075 463.538445,63.0971583 L464.711129,61.8797198 L463.936627,60.3598802 C463.847621,60.1577572 464.049055,59.9415326 464.252049,60.0433775 L465.782317,60.8032973 L466.978424,59.5999604 C467.104905,59.4103722 467.384413,59.5482545 467.336006,59.7770139" id="Fill-74" fill="#FFF6EB" mask="url(#mask-3)"></path>
                    <path d="M463.610742,67.3273262 L463.382764,69.0116845 L464.91147,69.7716043 C465.116026,69.8734492 465.067619,70.1648824 464.850571,70.2150214 L463.178207,70.5189893 L462.923683,72.1908128 C462.887769,72.3945027 462.595769,72.4697112 462.505202,72.2675882 L461.693224,70.7602834 L460.006806,71.0266471 C459.792881,71.0767861 459.650785,70.7869198 459.813181,70.6459037 L460.984304,69.4300321 L460.211363,67.9101925 C460.122357,67.7080695 460.32379,67.4918449 460.526785,67.5936898 L462.057052,68.3536096 L463.253159,67.1502727 C463.367149,66.985754 463.646657,67.1252032 463.610742,67.3273262" id="Fill-75" fill="#FFF6EB" mask="url(#mask-3)"></path>
                    <path d="M482.626188,43.7129364 L482.39821,45.3972947 L483.926916,46.1572144 C484.12991,46.2590594 484.083065,46.5504925 483.866017,46.6006316 L482.193653,46.9045995 L481.939129,48.576423 C481.901653,48.7801128 481.611215,48.8553214 481.520648,48.6531984 L480.70867,47.1458936 L479.022252,47.4122572 C478.808327,47.4623963 478.666231,47.1709631 478.828627,47.0315139 L479.99975,45.8156422 L479.226809,44.2958027 C479.137803,44.0936797 479.339236,43.8774551 479.542231,43.9793 L481.072498,44.7392198 L482.268605,43.5358829 C482.395087,43.3447278 482.674595,43.484177 482.626188,43.7129364" id="Fill-76" fill="#FFF6EB" mask="url(#mask-3)"></path>
                    <path d="M478.899363,51.2626219 L478.671384,52.9485471 L480.201651,53.7084668 C480.404646,53.8087449 480.35624,54.1001781 480.140753,54.1503171 L478.468389,54.4558519 L478.213865,56.1261086 C478.176389,56.3297984 477.885951,56.4065738 477.795384,56.202884 L476.983405,54.6955791 L475.296988,54.9619428 C475.083063,55.0136487 474.939405,54.7222155 475.103363,54.5827663 L476.274486,53.3653278 L475.501544,51.8470551 C475.412539,51.6433652 475.613972,51.4271406 475.816967,51.5289856 L477.345673,52.2889053 L478.54178,51.0855684 C478.655769,50.9210497 478.935277,51.0604989 478.899363,51.2626219" id="Fill-77" fill="#FFF6EB" mask="url(#mask-3)"></path>
                    <path d="M475.149583,58.8633866 L474.921604,60.5493118 L476.45031,61.3092316 C476.654866,61.4095096 476.60646,61.7009428 476.390973,61.7510818 L474.717048,62.0566166 L474.464086,63.7268733 C474.42661,63.9305631 474.136171,64.0073385 474.044043,63.8036487 L473.232064,62.2963439 L471.545647,62.5627075 C471.331722,62.6144134 471.189626,62.3229802 471.352021,62.183531 L472.524706,60.9660925 L471.750203,59.4478198 C471.661198,59.2441299 471.862631,59.0279053 472.065626,59.1297503 L473.595893,59.8896701 L474.792,58.6863332 C474.918481,58.4967449 475.197989,58.6346273 475.149583,58.8633866" id="Fill-78" fill="#FFF6EB" mask="url(#mask-3)"></path>
                    <path d="M471.424319,66.4138556 L471.19634,68.0982139 L472.725046,68.8581337 C472.929602,68.9599786 472.881196,69.2514118 472.665709,69.3015508 L470.991784,69.6070856 L470.738821,71.2773422 C470.701345,71.4810321 470.410907,71.5578075 470.318779,71.3541176 L469.469324,69.8593476 L467.782907,70.1257112 C467.56742,70.1758503 467.425324,69.885984 467.589281,69.7449679 L468.761966,68.5306631 L467.987463,67.0092567 C467.896896,66.8071337 468.098329,66.5924759 468.302886,66.692754 L469.831591,67.4526738 L471.02926,66.2493369 C471.180725,66.0722834 471.460233,66.2117326 471.424319,66.4138556" id="Fill-79" fill="#FFF6EB" mask="url(#mask-3)"></path>
                    <path d="M490.401664,42.9387583 L490.173686,44.6231166 L491.703953,45.3830364 C491.906948,45.4848813 491.858541,45.7763144 491.643055,45.8264535 L489.970691,46.1319882 L489.716167,47.8022449 C489.678691,48.0059348 489.388252,48.0827102 489.297686,47.8790203 L488.485707,46.3717155 L486.79929,46.6380791 C486.585365,46.689785 486.441707,46.3983519 486.605664,46.2589027 L487.776787,45.0414642 L486.953878,43.4965551 C486.86175,43.2944321 487.063183,43.0782075 487.267739,43.1800524 L488.798006,43.9399722 L489.994113,42.7366353 C490.158071,42.5971861 490.414156,42.7241005 490.401664,42.9387583" id="Fill-80" fill="#FFF6EB" mask="url(#mask-3)"></path>
                    <path d="M486.664064,50.5142968 L486.436086,52.1986551 L487.964791,52.9585749 C488.169348,53.0604198 488.120941,53.3518529 487.905455,53.401992 L486.231529,53.7075267 L485.978567,55.3777834 C485.941091,55.5814733 485.650652,55.6566818 485.560086,55.4545588 L484.746545,53.947254 L483.060128,54.2136176 C482.846203,54.2653235 482.704107,53.9738904 482.868064,53.8344412 L484.039187,52.6170027 L483.266246,51.0971631 C483.175679,50.8950401 483.377112,50.6788155 483.580107,50.7806604 L485.110374,51.5405802 L486.306481,50.3372433 C486.432963,50.1476551 486.687487,50.2730027 486.664064,50.5142968" id="Fill-81" fill="#FFF6EB" mask="url(#mask-3)"></path>
                    <path d="M482.92662,58.089992 L482.698642,59.7743503 L484.227348,60.5342701 C484.431904,60.636115 484.383497,60.9275481 484.168011,60.9776872 L482.494086,61.2816551 L482.241123,62.9534786 C482.203647,63.1571684 481.913209,63.232377 481.82108,63.030254 L481.009102,61.5229492 L479.322684,61.7893128 C479.108759,61.8410187 478.966663,61.5495856 479.129059,61.4101364 L480.301743,60.1926979 L479.527241,58.6728583 C479.438235,58.4707353 479.639668,58.2545107 479.842663,58.3563556 L481.37293,59.1162754 L482.569037,57.9129385 C482.683027,57.7484198 482.937551,57.8737674 482.92662,58.089992" id="Fill-82" fill="#FFF6EB" mask="url(#mask-3)"></path>
                    <path d="M479.187615,65.6656872 L478.959636,67.3500455 L480.489904,68.1099652 C480.692898,68.2118102 480.644492,68.5032433 480.429005,68.5533824 L478.756642,68.8573503 L478.502118,70.5291738 C478.464642,70.7328636 478.174203,70.8080722 478.083636,70.6059492 L477.271658,69.0986444 L475.585241,69.365008 C475.371316,69.4151471 475.227658,69.1252807 475.391615,68.9858316 L476.562738,67.768393 L475.789797,66.2485535 C475.700791,66.0464305 475.902225,65.8302059 476.105219,65.9320508 L477.633925,66.6919706 L478.830032,65.4886337 C478.958075,65.2990455 479.212599,65.424393 479.187615,65.6656872" id="Fill-83" fill="#FFF6EB" mask="url(#mask-3)"></path>
                    <path d="M475.462195,73.2159995 L475.234216,74.9003578 L476.762922,75.6602775 C476.967478,75.7621225 476.919072,76.0535556 476.703585,76.1036947 L475.031221,76.4076626 L474.776697,78.0794861 C474.739221,78.2831759 474.448783,78.3583845 474.358216,78.1562615 L473.546237,76.6489567 L471.85982,76.9153203 C471.644334,76.9654594 471.502237,76.6740262 471.666195,76.534577 L472.837318,75.3187053 L472.064376,73.7988658 C471.975371,73.5967428 472.176804,73.3805182 472.378237,73.4823631 L473.908505,74.2422829 L475.104612,73.038946 C475.218601,72.8744273 475.473125,72.9997749 475.462195,73.2159995" id="Fill-84" fill="#FFF6EB" mask="url(#mask-3)"></path>
                    <path d="M494.477641,49.6008262 L494.249662,51.2867513 L495.778368,52.0466711 C495.982924,52.1469492 495.934518,52.4383824 495.719031,52.4885214 L494.045106,52.7940561 L493.792143,54.4658797 C493.754667,54.6680027 493.464229,54.7447781 493.373662,54.5410882 L492.561683,53.0337834 L490.875266,53.3001471 C490.65978,53.3518529 490.517683,53.0604198 490.681641,52.9209706 L491.852764,51.7035321 L491.079822,50.1852594 C490.989256,49.9815695 491.19225,49.7653449 491.393683,49.8671898 L492.923951,50.6271096 L494.120058,49.4237727 C494.246539,49.2341845 494.502625,49.3610989 494.477641,49.6008262" id="Fill-85" fill="#FFF6EB" mask="url(#mask-3)"></path>
                    <path d="M490.752376,57.1512952 L490.524398,58.8356535 L492.053104,59.5955733 C492.25766,59.6974182 492.209253,59.9888513 491.993767,60.0389904 L490.319842,60.3445251 L490.066879,62.0147818 C490.029403,62.2184717 489.738965,62.2952471 489.648398,62.0915572 L488.834858,60.5842524 L487.148441,60.850616 C486.934516,60.9023219 486.792419,60.6108888 486.956376,60.4714396 L488.127499,59.2540011 L487.354558,57.7341615 C487.263991,57.5320385 487.465425,57.3158139 487.668419,57.4176588 L489.198687,58.1775786 L490.394794,56.9742417 C490.508783,56.809723 490.763307,56.9366374 490.752376,57.1512952" id="Fill-86" fill="#FFF6EB" mask="url(#mask-3)"></path>
                    <path d="M487.002597,64.7520599 L486.774618,66.4364182 L488.303324,67.1979048 C488.506319,67.2981829 488.459474,67.589616 488.242426,67.6397551 L486.570062,67.9452898 L486.315538,69.6155465 C486.278062,69.8192364 485.987624,69.8960118 485.897057,69.6923219 L485.085078,68.1850171 L483.398661,68.4513807 C483.184736,68.5030866 483.04264,68.2116535 483.205035,68.0722043 L484.376158,66.8547658 L483.603217,65.3349262 C483.514212,65.1328032 483.715645,64.9165786 483.91864,65.0184235 L485.448907,65.7783433 L486.645014,64.5750064 C486.771495,64.3854182 487.026019,64.5123326 487.002597,64.7520599" id="Fill-87" fill="#FFF6EB" mask="url(#mask-3)"></path>
                    <path d="M483.275771,72.3025289 L483.047793,73.9868872 L484.57806,74.746807 C484.781055,74.8486519 484.732648,75.140085 484.517161,75.1902241 L482.844798,75.494192 L482.590274,77.1660155 C482.552798,77.3697053 482.262359,77.4449139 482.171793,77.2427909 L481.359814,75.7354861 L479.673397,76.0018497 C479.459472,76.0535556 479.315814,75.7621225 479.479771,75.6226733 L480.650894,74.4052348 L479.877953,72.8853952 C479.788948,72.6832722 479.990381,72.4670476 480.193375,72.5688925 L481.722081,73.3288123 L482.918188,72.1254754 C483.032178,71.9609567 483.288263,72.0878711 483.275771,72.3025289" id="Fill-88" fill="#FFF6EB" mask="url(#mask-3)"></path>
                    <path d="M502.204398,48.8022053 L501.976419,50.4865636 L503.505125,51.2464834 C503.709681,51.3483283 503.661275,51.6397615 503.444227,51.6899005 L501.771863,51.9938684 L501.517339,53.665692 C501.481425,53.8693818 501.189425,53.9445904 501.098858,53.7424674 L500.286879,52.2351626 L498.600462,52.5015262 C498.386537,52.5532321 498.244441,52.2617989 498.406836,52.1223497 L499.577959,50.9049112 L498.805018,49.3850717 C498.716013,49.1829487 498.917446,48.9667241 499.120441,49.068569 L500.650708,49.8284888 L501.846815,48.6251519 C501.960804,48.4606332 502.240312,48.6000824 502.204398,48.8022053" id="Fill-89" fill="#FFF6EB" mask="url(#mask-3)"></path>
                    <path d="M498.465393,56.3777439 L498.237414,58.0621021 L499.76612,58.8220219 C499.970676,58.9238668 499.92227,59.2153 499.706783,59.265439 L498.034419,59.569407 L497.779895,61.2412305 C497.742419,61.4449203 497.451981,61.5201289 497.361414,61.3180059 L496.549435,59.8107011 L494.863018,60.0770647 C494.647532,60.1272037 494.505435,59.8373374 494.669393,59.6963214 L495.840516,58.4804497 L495.067574,56.9606102 C494.978569,56.7584872 495.180002,56.5422626 495.381435,56.6441075 L496.911703,57.4040273 L498.10781,56.2006904 C498.235852,56.0111021 498.513799,56.1489845 498.465393,56.3777439" id="Fill-90" fill="#FFF6EB" mask="url(#mask-3)"></path>
                    <path d="M494.727793,63.953439 L494.499814,65.6377973 L496.02852,66.3977171 C496.233076,66.499562 496.18467,66.7909952 495.969183,66.8411342 L494.295258,67.1451021 L494.042295,68.8169257 C494.004819,69.0206155 493.714381,69.0958241 493.622252,68.8937011 L492.810274,67.3863963 L491.123857,67.6527599 C490.909932,67.7028989 490.767835,67.4130326 490.931793,67.2720166 L492.102916,66.0561449 L491.329974,64.5363053 C491.239407,64.3341824 491.440841,64.1179578 491.643835,64.2198027 L493.174103,64.9797225 L494.37021,63.7763856 C494.484199,63.6118668 494.763707,63.751316 494.727793,63.953439" id="Fill-91" fill="#FFF6EB" mask="url(#mask-3)"></path>
                    <path d="M490.990193,71.5289775 L490.762214,73.2133358 L492.29092,73.9732556 C492.495476,74.0751005 492.44707,74.3665337 492.230021,74.4166727 L490.557658,74.7206406 L490.303134,76.3924642 C490.267219,76.596154 489.975219,76.6713626 489.884652,76.4692396 L489.072674,74.9619348 L487.386257,75.2282984 C487.172332,75.2784374 487.030235,74.9870043 487.192631,74.8475551 L488.363754,73.6316834 L487.590813,72.1118439 C487.501807,71.9097209 487.703241,71.6934963 487.906235,71.7953412 L489.436503,72.555261 L490.63261,71.3519241 C490.759091,71.160769 491.038599,71.3002182 490.990193,71.5289775" id="Fill-92" fill="#FFF6EB" mask="url(#mask-3)"></path>
                    <path d="M487.263367,79.0786631 L487.035388,80.7630214 L488.565656,81.524508 C488.76865,81.6247861 488.721805,81.9162193 488.504757,81.9663583 L486.832394,82.271893 L486.57787,83.9421497 C486.540394,84.1458396 486.249955,84.222615 486.159388,84.0189251 L485.34741,82.5116203 L483.660993,82.777984 C483.447067,82.8296898 483.304971,82.5382567 483.467367,82.3988075 L484.63849,81.181369 L483.865549,79.6630963 C483.776543,79.4594064 483.977976,79.2431818 484.180971,79.3450267 L485.711239,80.1049465 L486.905784,78.9016096 C487.021335,78.7370909 487.299281,78.8765401 487.263367,79.0786631" id="Fill-93" fill="#FFF6EB" mask="url(#mask-3)"></path>
                    <path d="M506.278969,55.4642733 L506.05099,57.1486316 L507.581258,57.9085513 C507.784252,58.0103963 507.735846,58.3018294 507.520359,58.3519684 L505.847996,58.6575032 L505.593472,60.3277599 C505.555996,60.5314497 505.265557,60.6082251 505.17499,60.4045353 L504.363012,58.8972305 L502.676595,59.1635941 C502.46267,59.2153 502.319012,58.9238668 502.482969,58.7844176 L503.654092,57.5669791 L502.881151,56.0471396 C502.792145,55.8450166 502.993579,55.628792 503.196573,55.7306369 L504.725279,56.4905567 L505.921386,55.2872198 C506.049429,55.0976316 506.328937,55.2355139 506.278969,55.4642733" id="Fill-94" fill="#FFF6EB" mask="url(#mask-3)"></path>
                    <path d="M502.553549,63.0147422 L502.32557,64.6991005 L503.854276,65.4590203 C504.058832,65.5608652 504.010426,65.8522984 503.794939,65.9024374 L502.122575,66.2064053 L501.868051,67.8782289 C501.830575,68.0819187 501.540137,68.1571273 501.44957,67.9550043 L500.637591,66.4476995 L498.951174,66.7140631 C498.735688,66.765769 498.593591,66.4743358 498.757549,66.3348866 L499.928672,65.1174481 L499.15573,63.5976086 C499.066725,63.3954856 499.268158,63.179261 499.469591,63.2811059 L500.999859,64.0410257 L502.195966,62.8376888 C502.309955,62.6731701 502.589463,62.8126193 502.553549,63.0147422" id="Fill-95" fill="#FFF6EB" mask="url(#mask-3)"></path>
                    <path d="M498.803925,70.615507 L498.575947,72.2998652 L500.104652,73.059785 C500.309209,73.1616299 500.260802,73.4530631 500.045316,73.5032021 L498.37139,73.8071701 L498.118428,75.4789936 C498.080952,75.6826834 497.790513,75.757892 497.698385,75.555769 L496.886406,74.0484642 L495.199989,74.3148278 C494.986064,74.3665337 494.843968,74.0751005 495.006364,73.9356513 L496.179048,72.7182128 L495.404545,71.1983733 C495.31554,70.9962503 495.516973,70.7800257 495.719968,70.8818706 L497.250235,71.6417904 L498.446342,70.4384535 C498.572824,70.2488652 498.852332,70.3867476 498.803925,70.615507" id="Fill-96" fill="#FFF6EB" mask="url(#mask-3)"></path>
                    <path d="M495.078505,78.1659759 L494.850526,79.8503342 L496.379232,80.610254 C496.583788,80.7120989 496.535382,81.0035321 496.318334,81.0536711 L494.64597,81.357639 L494.391446,83.0294626 C494.355532,83.2331524 494.063532,83.308361 493.972965,83.106238 L493.160986,81.5989332 L491.474569,81.8652968 C491.260644,81.9154358 491.118548,81.6255695 491.280943,81.4845535 L492.452066,80.2686818 L491.679125,78.7488422 C491.59012,78.5467193 491.791553,78.3304947 491.994548,78.4323396 L493.524815,79.1922594 L494.720922,77.9889225 C494.834911,77.8244037 495.114419,77.9638529 495.078505,78.1659759" id="Fill-97" fill="#FFF6EB" mask="url(#mask-3)"></path>
                    <path d="M514.031491,54.6778738 L513.803512,56.3622321 L515.332218,57.1221519 C515.535213,57.2239968 515.488368,57.5154299 515.27132,57.565569 L513.598956,57.8711037 L513.344432,59.5413604 C513.306956,59.7450503 513.016518,59.8218257 512.925951,59.6181358 L512.113972,58.110831 L510.427555,58.3771947 C510.21363,58.4289005 510.071534,58.1374674 510.233929,57.9980182 L511.405052,56.7805797 L510.632111,55.2607401 C510.543106,55.0586171 510.744539,54.8423925 510.947534,54.9442374 L512.477801,55.7041572 L513.673908,54.5008203 C513.787897,54.3363016 514.042421,54.463216 514.031491,54.6778738" id="Fill-98" fill="#FFF6EB" mask="url(#mask-3)"></path>
                    <path d="M510.292486,62.2534123 L510.064507,63.9377706 L511.593213,64.6976904 C511.797769,64.7995353 511.749363,65.0909684 511.533876,65.1411075 L509.861512,65.4466422 L509.606988,67.1168989 C509.569512,67.3205888 509.279074,67.3957973 509.188507,67.1936743 L508.376528,65.6863695 L506.690111,65.9527332 C506.474625,66.004439 506.332528,65.7130059 506.496486,65.5735567 L507.667609,64.3561182 L506.894667,62.8362786 C506.805662,62.6341556 507.007095,62.417931 507.208528,62.5197759 L508.738796,63.2796957 L509.934903,62.0763588 C510.061384,61.8867706 510.31747,62.0121182 510.292486,62.2534123" id="Fill-99" fill="#FFF6EB" mask="url(#mask-3)"></path>
                    <path d="M506.554886,69.8291075 L506.326907,71.5134658 L507.855613,72.2733856 C508.060169,72.3752305 508.011763,72.6666636 507.796276,72.7168027 L506.122351,73.0207706 L505.869388,74.6925941 C505.831912,74.896284 505.541474,74.9714925 505.449345,74.7693695 L504.637367,73.2620647 L502.913474,73.5409631 C502.697987,73.5911021 502.555891,73.299669 502.72141,73.1602198 L503.892533,71.945915 L503.119591,70.4245086 C503.027463,70.2223856 503.228896,70.006161 503.433452,70.1080059 L504.962158,70.8679257 L506.159827,69.6645888 C506.311292,69.4875353 506.565816,69.6128829 506.554886,69.8291075" id="Fill-100" fill="#FFF6EB" mask="url(#mask-3)"></path>
                    <path d="M502.817442,77.404646 L502.589463,79.0890043 L504.118169,79.8489241 C504.321164,79.950769 504.274319,80.2422021 504.057271,80.2923412 L502.384907,80.5963091 L502.130383,82.2681326 C502.092907,82.4718225 501.802468,82.547031 501.711902,82.344908 L500.899923,80.8376032 L499.213506,81.1039668 C498.999581,81.1541059 498.857484,80.8642396 499.01988,80.7247904 L500.191003,79.5073519 L499.418062,77.9875123 C499.329057,77.7853893 499.53049,77.5691647 499.733484,77.6710096 L501.263752,78.4309294 L502.459859,77.2275925 C502.58634,77.0380043 502.840864,77.1633519 502.817442,77.404646" id="Fill-101" fill="#FFF6EB" mask="url(#mask-3)"></path>
                    <path d="M499.09046,84.955115 L498.862481,86.6394733 L500.392749,87.399393 C500.595743,87.501238 500.547337,87.7926711 500.33185,87.8428102 L498.659487,88.1467781 L498.404963,89.8186016 C498.367487,90.0222914 498.077048,90.0975 497.986481,89.895377 L497.174503,88.3880722 L495.488086,88.6544358 C495.27416,88.7045749 495.130503,88.4131417 495.29446,88.2736925 L496.465583,87.0578209 L495.692642,85.5379813 C495.603636,85.3358583 495.80507,85.1196337 496.008064,85.2214786 L497.53677,85.9813984 L498.732877,84.7780615 C498.846866,84.6135428 499.102952,84.7388904 499.09046,84.955115" id="Fill-102" fill="#FFF6EB" mask="url(#mask-3)"></path>
                    <path d="M370.512554,200.876413 L370.512554,200.876413 C367.862693,199.560263 367.406736,195.016413 369.500704,190.773397 L454.24941,19.0189904 C456.323078,14.8167123 460.154993,12.4539102 462.77987,13.7575251 L462.831399,13.7825947 C465.48126,15.1003112 465.937217,19.6441615 463.844811,23.8871775 L379.133581,195.558541 C377.041174,199.801557 373.163976,202.194129 370.512554,200.876413" id="Fill-103" fill="#292C2F" mask="url(#mask-3)"></path>
                </g>
                <g id="Star-Copy">
                    <use fill="black" fill-opacity="1" filter="url(#filter-5)" xlink:href="#path-4"></use>
                    <use fill="#D45353" fill-rule="evenodd" xlink:href="#path-4"></use>
                </g>
                <g id="Star-Copy-5">
                    <use fill="black" fill-opacity="1" filter="url(#filter-7)" xlink:href="#path-6"></use>
                    <use fill="#FFF6EB" fill-rule="evenodd" xlink:href="#path-6"></use>
                </g>
                <g id="Star-Copy-6">
                    <use fill="black" fill-opacity="1" filter="url(#filter-9)" xlink:href="#path-8"></use>
                    <use fill="#D45353" fill-rule="evenodd" xlink:href="#path-8"></use>
                </g>
                <g id="Star-Copy-7">
                    <use fill="black" fill-opacity="1" filter="url(#filter-11)" xlink:href="#path-10"></use>
                    <use fill="#D45353" fill-rule="evenodd" xlink:href="#path-10"></use>
                </g>
            </g>
        </g>
    </g>
</svg>