<?xml version="1.0" encoding="UTF-8"?>
<svg width="282px" height="329px" viewBox="0 0 282 329" version="1.1" xmlns="http://www.w3.org/2000/svg" xmlns:xlink="http://www.w3.org/1999/xlink">
    <!-- Generator: Sketch 42 (36781) - http://www.bohemiancoding.com/sketch -->
    <title>Page 1</title>
    <desc>Created with Sketch.</desc>
    <defs>
        <filter x="-50%" y="-50%" width="200%" height="200%" filterUnits="objectBoundingBox" id="filter-1">
            <feOffset dx="0" dy="1" in="SourceAlpha" result="shadowOffsetOuter1"></feOffset>
            <feGaussianBlur stdDeviation="0.5" in="shadowOffsetOuter1" result="shadowBlurOuter1"></feGaussianBlur>
            <feColorMatrix values="0 0 0 0 0   0 0 0 0 0   0 0 0 0 0  0 0 0 0.5 0" type="matrix" in="shadowBlurOuter1" result="shadowMatrixOuter1"></feColorMatrix>
            <feMerge>
                <feMergeNode in="shadowMatrixOuter1"></feMergeNode>
                <feMergeNode in="SourceGraphic"></feMergeNode>
            </feMerge>
        </filter>
        <polygon id="path-2" points="197.449675 197.085268 0.313638006 197.085268 0.313638006 0.100481178 197.449675 0.100481178 197.449675 197.085268"></polygon>
        <polygon id="path-4" points="0.26044888 197.085268 98.830084 197.085268 98.830084 0.100481178 0.26044888 0.100481178 0.26044888 197.085268"></polygon>
    </defs>
    <g id="Page-1" stroke="none" stroke-width="1" fill="none" fill-rule="evenodd">
        <g id="PINK" transform="translate(-890.000000, -2440.000000)">
            <g id="Page-1" filter="url(#filter-1)" transform="translate(891.875000, 2440.000000)">
                <g id="Group-3" transform="translate(40.417269, 129.266935)">
                    <mask id="mask-3" fill="white">
                        <use xlink:href="#path-2"></use>
                    </mask>
                    <g id="Clip-2"></g>
                    <path d="M182.417684,197.085591 L15.3440119,197.085591 C7.04230491,197.085591 0.313638006,190.362076 0.313638006,182.065109 L0.313638006,0.100481178 L197.449675,0.100481178 L197.449675,182.065109 C197.448058,190.36046 190.719391,197.085591 182.417684,197.085591" id="Fill-1" fill="#00A5DE" mask="url(#mask-3)"></path>
                </g>
                <g id="Group-6" transform="translate(139.035405, 129.266935)">
                    <mask id="mask-5" fill="white">
                        <use xlink:href="#path-4"></use>
                    </mask>
                    <g id="Clip-5"></g>
                    <path d="M0.26044888,0.100481178 L0.26044888,197.085591 L83.7997101,197.085591 C92.1014171,197.085591 98.830084,190.362076 98.830084,182.065109 L98.830084,0.100481178 L0.26044888,0.100481178 Z" id="Fill-4" fill="#0082C6" mask="url(#mask-5)"></path>
                </g>
                <path d="M237.865165,209.471916 L184.178099,209.471916 C176.928857,191.824707 159.568832,179.393796 139.297147,179.393796 C119.023845,179.393796 101.665436,191.824707 94.4178116,209.471916 L40.7291284,209.471916 L40.7291284,248.523877 L95.4185432,248.523877 C103.181892,264.95465 119.908175,276.327439 139.297147,276.327439 C158.687736,276.327439 175.414018,264.953034 183.177367,248.523877 L237.865165,248.523877 L237.865165,209.471916 Z" id="Fill-7" fill="#FFDB73"></path>
                <path d="M266.348185,141.604796 L12.2480491,141.604796 C5.48381503,141.604796 0,136.125179 0,129.366124 C0,122.608684 5.48381503,117.129067 12.2480491,117.129067 L266.348185,117.129067 C273.112419,117.129067 278.596234,122.607068 278.596234,129.366124 C278.594617,136.125179 273.114035,141.604796 266.348185,141.604796" id="Fill-9" fill="#0082C6"></path>
                <path d="M184.178099,209.471916 C176.930474,191.824707 159.570449,179.393796 139.297147,179.393796 L139.29553,179.393796 L139.29553,276.325824 L139.297147,276.325824 C158.686119,276.325824 175.414018,264.953034 183.177367,248.522262 L237.865165,248.522262 L237.865165,209.4703 L184.178099,209.471916 Z" id="Fill-11" fill="#FFC800"></path>
                <path d="M266.348185,117.129229 L139.295692,117.129229 L139.295692,141.604958 L266.348185,141.604958 C273.112419,141.604958 278.596234,136.125341 278.596234,129.366285 C278.594617,122.608845 273.114035,117.129229 266.348185,117.129229" id="Fill-13" fill="#006EAA"></path>
                <polygon id="Fill-15" fill="#FFF6EB" points="123.351564 17.947683 123.395215 0 112.910975 6.74128545 110.393788 24.8327438"></polygon>
                <polygon id="Fill-17" fill="#D4C9BB" points="123.351564 17.947683 141.264498 25.8730955 140.341367 8.8575289 123.395215 0"></polygon>
                <polygon id="Fill-19" fill="#EBE0D2" points="110.394435 24.8330669 123.352211 17.9480061 141.265145 25.8734186 126.62116 31.398268"></polygon>
                <polygon id="Fill-21" fill="#FFF6EB" points="77.6808589 48.3715097 77.7245096 30.4222112 67.2418867 37.1634967 64.7246992 55.2565705"></polygon>
                <polygon id="Fill-23" fill="#D4C9BB" points="77.6808589 48.3715097 95.5937924 56.2969222 94.670662 39.2797401 77.7245096 30.4222112"></polygon>
                <polygon id="Fill-25" fill="#EBE0D2" points="64.7245376 55.2568936 77.6806973 48.3718328 95.5936308 56.2972453 80.9512626 61.8204792"></polygon>
                <polygon id="Fill-27" fill="#FFF6EB" points="128.851385 62.7606729 144.504184 53.9580694 133.47027 48.1618239 116.472383 54.8837239"></polygon>
                <polygon id="Fill-29" fill="#D4C9BB" points="128.851385 62.7606729 130.770396 82.2414208 145.136311 73.0575704 144.504184 53.9580694"></polygon>
                <polygon id="Fill-31" fill="#EBE0D2" points="116.472707 54.8837239 128.851708 62.7606729 130.77072 82.2414208 118.747391 72.228843"></polygon>
                <polygon id="Fill-33" fill="#FFF6EB" points="182.668756 60.4439517 195.626533 72.8748627 197.990135 60.6458833 186.637732 46.3265078"></polygon>
                <polygon id="Fill-35" fill="#D4C9BB" points="182.668756 60.4439517 164.560203 67.9105755 177.509896 78.9974296 195.626533 72.8748627"></polygon>
                <polygon id="Fill-37" fill="#EBE0D2" points="186.637732 46.3269924 182.668756 60.4444363 164.560203 67.9094447 170.677761 53.5141429"></polygon>
                <polygon id="Fill-39" fill="#FFF6EB" points="175.200938 16.5420774 191.474548 24.1395529 189.770555 11.7991073 174.40876 1.8996112"></polygon>
                <polygon id="Fill-41" fill="#D4C9BB" points="175.200938 16.5420774 160.464802 29.4382388 176.300288 35.7675837 191.474548 24.1395529"></polygon>
                <polygon id="Fill-43" fill="#EBE0D2" points="174.408437 1.8996112 175.200615 16.5420774 160.464479 29.4382388 161.615563 13.8410399"></polygon>
                <polygon id="Fill-45" fill="#FFF6EB" points="215.686108 96.678886 197.942927 93.876075 202.996702 105.263403 220.50223 110.52978"></polygon>
                <polygon id="Fill-47" fill="#D4C9BB" points="215.686108 96.678886 226.277049 80.2109579 209.308263 78.506655 197.942927 93.876075"></polygon>
                <polygon id="Fill-49" fill="#EBE0D2" points="220.503038 110.530103 215.686917 96.6792091 226.276241 80.211281 229.490222 95.5176983"></polygon>
                <polygon id="Fill-51" fill="#FFF6EB" points="166.653333 97.9725408 162.983445 115.542208 174.613918 111.054479 180.733092 93.8418274"></polygon>
                <polygon id="Fill-53" fill="#D4C9BB" points="166.653333 97.9725408 150.709529 86.5981361 148.176174 103.450542 162.983445 115.542208"></polygon>
                <polygon id="Fill-55" fill="#EBE0D2" points="180.733092 93.842312 166.653333 97.9730254 150.709529 86.5986207 166.166709 84.1399012"></polygon>
                <polygon id="Fill-57" fill="#FFF6EB" points="102.191022 94.0308354 85.5714415 100.838354 95.8067106 107.949579 113.504624 103.371385"></polygon>
                <polygon id="Fill-59" fill="#D4C9BB" points="102.191022 94.0308354 102.688963 74.462853 87.2996839 81.8083179 85.5714415 100.838354"></polygon>
                <polygon id="Fill-61" fill="#EBE0D2" points="113.503816 103.371869 102.190214 94.03132 102.688155 74.4617222 113.385798 85.8781286"></polygon>
                <polygon id="Fill-63" fill="#FFF6EB" points="58.4360956 86.3543642 72.5692061 97.4315255 73.7008896 85.0264618 60.9743 71.9122142"></polygon>
                <polygon id="Fill-65" fill="#D4C9BB" points="58.4360956 86.3543642 41.1617549 95.5899091 55.15583 105.331091 72.5692061 97.4315255"></polygon>
                <polygon id="Fill-67" fill="#EBE0D2" points="60.974785 71.911568 58.4365806 86.353718 41.1622399 95.5892629 45.8118425 80.6560152"></polygon>
            </g>
        </g>
    </g>
</svg>