<?xml version="1.0" encoding="UTF-8"?>
<svg width="507px" height="442px" viewBox="0 0 507 442" version="1.1" xmlns="http://www.w3.org/2000/svg" xmlns:xlink="http://www.w3.org/1999/xlink">
    <!-- Generator: Sketch 42 (36781) - http://www.bohemiancoding.com/sketch -->
    <title>Fett vs Sukker</title>
    <desc>Created with Sketch.</desc>
    <defs>
        <filter x="-50%" y="-50%" width="200%" height="200%" filterUnits="objectBoundingBox" id="filter-1">
            <feOffset dx="0" dy="1" in="SourceAlpha" result="shadowOffsetOuter1"></feOffset>
            <feColorMatrix values="0 0 0 0 0   0 0 0 0 0   0 0 0 0 0  0 0 0 0.5 0" type="matrix" in="shadowOffsetOuter1" result="shadowMatrixOuter1"></feColorMatrix>
            <feMerge>
                <feMergeNode in="shadowMatrixOuter1"></feMergeNode>
                <feMergeNode in="SourceGraphic"></feMergeNode>
            </feMerge>
        </filter>
        <polygon id="path-2" points="0.606925493 0.133322197 203.932049 0.133322197 203.932049 203.601484 0.606925493 203.601484 0.606925493 0.133322197"></polygon>
        <polygon id="path-4" points="0 441.429046 291.362868 441.429046 291.362868 1.03468976 0 1.03468976"></polygon>
        <polygon id="path-6" points="0.00104269294 0.762678311 226.672061 0.762678311 226.672061 209.144314 0.00104269294 209.144314 0.00104269294 0.762678311"></polygon>
        <polygon id="path-8" points="13.2380296 0.689330664 13.2380296 21.9033182 0.947390805 21.9033182 0.947390805 0.689330664 13.2380296 0.689330664"></polygon>
        <polygon id="path-10" points="276.522167 439.300747 506.640328 439.300747 506.640328 2.46111515 276.522167 2.46111515"></polygon>
        <filter x="-50%" y="-50%" width="200%" height="200%" filterUnits="objectBoundingBox" id="filter-12">
            <feOffset dx="0" dy="1" in="SourceAlpha" result="shadowOffsetOuter1"></feOffset>
            <feGaussianBlur stdDeviation="0.5" in="shadowOffsetOuter1" result="shadowBlurOuter1"></feGaussianBlur>
            <feColorMatrix values="0 0 0 0 0   0 0 0 0 0   0 0 0 0 0  0 0 0 0.5 0" type="matrix" in="shadowBlurOuter1" result="shadowMatrixOuter1"></feColorMatrix>
            <feMerge>
                <feMergeNode in="shadowMatrixOuter1"></feMergeNode>
                <feMergeNode in="SourceGraphic"></feMergeNode>
            </feMerge>
        </filter>
        <filter x="-50%" y="-50%" width="200%" height="200%" filterUnits="objectBoundingBox" id="filter-13">
            <feOffset dx="0" dy="1" in="SourceAlpha" result="shadowOffsetOuter1"></feOffset>
            <feGaussianBlur stdDeviation="0.5" in="shadowOffsetOuter1" result="shadowBlurOuter1"></feGaussianBlur>
            <feColorMatrix values="0 0 0 0 0   0 0 0 0 0   0 0 0 0 0  0 0 0 0.5 0" type="matrix" in="shadowBlurOuter1" result="shadowMatrixOuter1"></feColorMatrix>
            <feMerge>
                <feMergeNode in="shadowMatrixOuter1"></feMergeNode>
                <feMergeNode in="SourceGraphic"></feMergeNode>
            </feMerge>
        </filter>
        <filter x="-50%" y="-50%" width="200%" height="200%" filterUnits="objectBoundingBox" id="filter-14">
            <feOffset dx="0" dy="1" in="SourceAlpha" result="shadowOffsetOuter1"></feOffset>
            <feGaussianBlur stdDeviation="0.5" in="shadowOffsetOuter1" result="shadowBlurOuter1"></feGaussianBlur>
            <feColorMatrix values="0 0 0 0 0   0 0 0 0 0   0 0 0 0 0  0 0 0 0.5 0" type="matrix" in="shadowBlurOuter1" result="shadowMatrixOuter1"></feColorMatrix>
            <feMerge>
                <feMergeNode in="shadowMatrixOuter1"></feMergeNode>
                <feMergeNode in="SourceGraphic"></feMergeNode>
            </feMerge>
        </filter>
    </defs>
    <g id="Page-1" stroke="none" stroke-width="1" fill="none" fill-rule="evenodd">
        <g id="PINK" transform="translate(-144.000000, -1789.000000)">
            <g id="Fett-vs-Sukker" filter="url(#filter-1)" transform="translate(144.000000, 1788.000000)">
                <g id="Page-1">
                    <g id="Group-3" transform="translate(56.931034, 0.901368)">
                        <mask id="mask-3" fill="white">
                            <use xlink:href="#path-2"></use>
                        </mask>
                        <g id="Clip-2"></g>
                        <path d="M203.932049,101.866996 C203.932049,158.052919 158.415687,203.601484 102.269487,203.601484 C46.1232876,203.601484 0.606925493,158.052919 0.606925493,101.866996 C0.606925493,45.6810733 46.1232876,0.132508321 102.269487,0.132508321 C158.415687,0.132508321 203.932049,45.6810733 203.932049,101.866996" id="Fill-1" fill="#FFF6EB" mask="url(#mask-3)"></path>
                    </g>
                    <path d="M40.8520837,326.043824 C40.8520837,326.043824 45.3394692,343.617439 46.2584988,349.672676 C47.4479507,357.504197 47.8688337,381.348726 47.8688337,381.348726 L58.2526478,381.348726 C58.2526478,381.348726 59.411601,364.200361 55.8737438,349.454964 C54.4301355,343.438387 52.4863473,334.394191 48.0782586,330.005365 C45.1259778,327.069308 40.8520837,326.043824 40.8520837,326.043824" id="Fill-4" fill="#80415C"></path>
                    <path d="M58.2528511,381.347913 C58.2528511,381.347913 57.0532329,390.630167 52.4377526,392.007652 L48.0784619,392.007652 L47.8690371,381.347913" id="Fill-6" fill="#F6C9A4"></path>
                    <g id="Group-10" transform="translate(0.000000, 325.451729)" fill="#80415C">
                        <path d="M12.1763283,24.2209469 C10.9868764,32.0524678 10.5659933,55.8969971 10.5659933,55.8969971 L0.180146059,55.8969971 C0.180146059,55.8969971 -0.97474064,38.7486318 2.56108325,24.0032351 C4.00469163,17.9866575 5.9484798,8.9424615 10.3565685,4.55363568 C13.3088493,1.61757836 17.5827433,0.59209472 17.5827433,0.59209472 C17.5827433,0.59209472 13.0953579,18.1657102 12.1763283,24.2209469 Z" id="Fill-8"></path>
                    </g>
                    <path d="M0.181162685,381.347913 C0.181162685,381.347913 1.38281416,390.630167 5.99626121,392.007652 L10.3575851,392.007652 L10.56701,381.347913" id="Fill-11" fill="#F6C9A4"></path>
                    <path d="M56.6831812,286.245089 C56.6831812,301.169538 44.4064102,308.66737 29.2607218,308.66737 C14.1130001,308.66737 2.1066516,300.369905 2.1066516,285.443421 L1.83419594,279.662867 C1.83419594,264.738418 9.91230308,252.640153 29.2607218,252.640153 C49.066622,252.640153 56.6831812,264.738418 56.6831812,279.662867 L56.6831812,286.245089 Z" id="Fill-13" fill="#542810"></path>
                    <path d="M26.7840185,252.639949 C26.7840185,252.639949 36.6290209,252.410029 38.3572845,249.874806 C38.3572845,249.874806 39.0262241,251.78538 38.3572845,252.639949 C38.3572845,252.639949 41.1204729,253.101824 41.2932993,251.25636 C41.2932993,251.25636 42.2733264,252.973638 41.2932993,254.53628" id="Fill-15" fill="#542810"></path>
                    <path d="M10.4724638,367.220451 L10.7184872,413.5951 L10.4724638,426.352605 L23.8471904,426.352605 L23.5584687,385.416682 C23.5584687,385.416682 25.8052113,386.800271 30.4044256,386.627322 C36.1686929,386.411645 37.205651,385.416682 37.205651,385.416682 L37.3215463,426.352605 L50.6962729,426.352605 L50.4502495,371.841232" id="Fill-17" fill="#A7875A"></path>
                    <path d="M41.2939092,326.043824 C47.9162085,336.577413 50.4496395,371.840621 50.4496395,371.840621 C34.5943464,381.639687 10.5877491,373.177412 10.5877491,373.177412 C8.84118633,342.79746 17.5821334,326.043824 17.5821334,326.043824 L41.2939092,326.043824 Z" id="Fill-19" fill="#DC709F"></path>
                    <path d="M52.7527032,300.534512 C49.2982094,313.914631 42.5152833,321.182543 29.6041379,321.182543 C16.6950259,321.182543 9.22079433,315.157827 5.99605788,300.534512 L5.99605788,289.817801 C5.99605788,277.304459 10.8331626,265.82067 26.7840185,267.719035 L29.3743805,267.159495 C42.2875591,267.159495 52.7527032,277.304459 52.7527032,289.817801 L52.7527032,300.534512 Z" id="Fill-21" fill="#F6C9A4"></path>
                    <path d="M10.8337725,297.583804 C10.8337725,300.257387 8.66835998,302.424331 5.99666786,302.424331 C3.32700899,302.424331 1.15956318,300.257387 1.15956318,297.583804 L1.15956318,297.12193 C1.15956318,294.450382 3.32700899,292.283438 5.99666786,292.283438 C8.66835998,292.283438 10.8337725,294.450382 10.8337725,297.12193 L10.8337725,297.583804 Z" id="Fill-23" fill="#F6C9A4"></path>
                    <path d="M57.5896046,297.583804 C57.5896046,300.257387 55.424192,302.424331 52.7524999,302.424331 C50.082841,302.424331 47.9153952,300.257387 47.9153952,297.583804 L47.9153952,297.12193 C47.9153952,294.450382 50.082841,292.283438 52.7524999,292.283438 C55.424192,292.283438 57.5896046,294.450382 57.5896046,297.12193 L57.5896046,297.583804 Z" id="Fill-25" fill="#F6C9A4"></path>
                    <path d="M46.0870957,276.90627 C46.0870957,276.90627 43.1246486,274.08212 46.0870957,276.90627 C49.9482398,280.584989 48.4924319,284.819178 49.1817041,296.085255 L51.585007,298.524848 L55.0557669,280.652134 L46.939028,263.768278 L28.050124,261.090626 L14.5127373,263.926984 L3.40508584,277.416977 L6.91041096,298.227784 L9.62480135,295.049598 C9.62480135,295.049598 7.28452919,281.728484 10.228677,276.552234 C11.4181289,274.462607 46.1318272,286.784689 46.0870957,276.90627" id="Fill-27" fill="#542810"></path>
                    <path d="M4.57806847,296.085662 C5.41170148,297.615749 6.03590961,297.601506 6.03387635,297.396003 C6.03387635,297.314615 5.84478399,297.320719 5.68009064,297.593368 C5.49099828,297.880259 5.33647118,298.325856 5.07621502,299.198738 C4.33407833,299.703341 3.7139367,299.754208 3.15275936,299.554808 C2.60784803,299.353374 2.15646626,298.797904 2.03447118,298.122387 C1.9043431,297.444835 2.1463,296.72659 2.61191453,296.33186 C3.09379507,295.943234 3.73223596,295.758077 4.57806847,296.085662" id="Fill-29" fill="#DFAD8B"></path>
                    <path d="M54.4832033,297.873951 C53.6495703,296.343865 53.0233289,296.358107 53.0273954,296.563611 C53.0273954,296.644999 53.2144546,296.63686 53.3811812,296.364211 C53.5702735,296.079355 53.7248006,295.633758 53.9850568,294.760876 C54.7271935,294.256273 55.3473351,294.205406 55.9064792,294.40277 C56.4534238,294.606239 56.9048055,295.16171 57.0247674,295.835192 C57.1569287,296.512744 56.9149718,297.233024 56.4493573,297.627754 C55.9674767,298.014345 55.3290358,298.201536 54.4832033,297.873951" id="Fill-31" fill="#DFAD8B"></path>
                    <path d="M23.8473937,426.351588 L10.4726671,426.351588 C10.4726671,426.351588 0.12341835,428.148219 0.180349384,435.340847 L23.8473937,435.340847 L23.8473937,426.351588 Z" id="Fill-33" fill="#542810"></path>
                    <mask id="mask-5" fill="white">
                        <use xlink:href="#path-4"></use>
                    </mask>
                    <g id="Clip-36"></g>
                    <polygon id="Fill-35" fill="#471F0F" mask="url(#mask-5)" points="0.18095936 436.490854 16.1318153 436.490854 16.1318153 435.341254 0.18095936 435.341254"></polygon>
                    <polygon id="Fill-37" fill="#471F0F" mask="url(#mask-5)" points="19.1267943 436.490854 23.8480037 436.490854 23.8480037 435.341254 19.1267943 435.341254"></polygon>
                    <path d="M37.320733,426.351588 L50.6974929,426.351588 C50.6974929,426.351588 61.0447084,428.148219 60.9877773,435.340847 L37.320733,435.340847 L37.320733,426.351588 Z" id="Fill-38" fill="#542810" mask="url(#mask-5)"></path>
                    <polygon id="Fill-39" fill="#471F0F" mask="url(#mask-5)" points="45.0365148 436.490854 60.9873707 436.490854 60.9873707 435.341254 45.0365148 435.341254"></polygon>
                    <polygon id="Fill-40" fill="#471F0F" mask="url(#mask-5)" points="37.3203264 436.490854 42.0415357 436.490854 42.0415357 435.341254 37.3203264 435.341254"></polygon>
                    <polygon id="Fill-41" fill="#F6C9A4" mask="url(#mask-5)" points="23.8473937 318.598487 23.8473937 326.043417 29.7214565 329.431176 35.5934861 326.043417 35.5934861 318.598487"></polygon>
                    <path d="M20.96831,293.770796 C20.96831,294.177734 20.5026954,294.505319 19.9313518,294.505319 C19.357975,294.505319 18.8943937,294.177734 18.8943937,293.770796 L18.8943937,291.485839 C18.8943937,291.078901 19.357975,290.751316 19.9313518,290.751316 C20.5026954,290.751316 20.96831,291.078901 20.96831,291.485839 L20.96831,293.770796 Z" id="Fill-42" fill="#28252A" mask="url(#mask-5)"></path>
                    <path d="M39.3936326,293.770796 C39.3936326,294.177734 38.9300514,294.505319 38.3566745,294.505319 C37.7853309,294.505319 37.3197164,294.177734 37.3197164,293.770796 L37.3197164,291.485839 C37.3197164,291.078901 37.7853309,290.751316 38.3566745,290.751316 C38.9300514,290.751316 39.3936326,291.078901 39.3936326,291.485839 L39.3936326,293.770796 Z" id="Fill-43" fill="#28252A" mask="url(#mask-5)"></path>
                    <path d="M26.7840185,300.504805 C27.7579458,300.368481 28.3475887,300.293197 28.7888042,300.197567 C29.2218867,300.116179 29.4048793,299.998167 29.4597771,299.996133 C29.5167081,299.973751 29.5736392,300.17722 29.9762229,300.250469 C30.3828732,300.378654 30.9623498,300.394932 31.9667759,300.504805 C32.3185283,301.420415 32.2066995,302.230222 31.7349852,302.919982 C31.2998695,303.61788 30.2974766,304.106206 29.3255825,304.063477 C28.3435222,304.030922 27.5220887,303.526319 27.0808732,302.889461 C26.6538904,302.230222 26.456665,301.455005 26.7840185,300.504805" id="Fill-44" fill="#DFAD8B" mask="url(#mask-5)"></path>
                    <path d="M22.8108422,307.969878 L29.7259297,307.821346 C30.5473632,307.786756 31.3809962,307.900699 32.4565861,307.86204 C33.0136969,307.929185 33.5789408,307.82745 34.2783792,307.890525 C34.9798509,307.919011 35.6752228,307.843728 36.6288176,307.969878 C36.4803903,309.735989 35.6650565,311.198931 34.4044408,312.250866 C33.1804235,313.349598 31.427761,313.917277 29.7096637,313.923381 C27.9753004,313.929485 26.2856686,313.30687 25.0392856,312.265108 C23.8112018,311.20707 22.8881058,309.786856 22.8108422,307.969878" id="Fill-45" fill="#28252A" mask="url(#mask-5)"></path>
                    <path d="M23.8484103,332.511492 C23.8484103,332.511492 29.6045446,337.368297 35.5497712,332.399584 L29.7102736,329.341446 L23.8484103,332.511492 Z" id="Fill-46" fill="#FFFFFF" mask="url(#mask-5)"></path>
                    <polygon id="Fill-47" fill="#F2F2F2" mask="url(#mask-5)" points="22.2480383 325.115802 22.2480383 333.567903 29.7202366 329.425275"></polygon>
                    <polygon id="Fill-48" fill="#F2F2F2" mask="url(#mask-5)" points="37.2621754 325.072056 37.2621754 333.611649 29.7127135 329.426292"></polygon>
                    <polygon id="Fill-49" fill="#CDCCC9" mask="url(#mask-5)" points="22.2480383 325.115802 23.848207 325.115802 23.848207 326.039551"></polygon>
                    <polygon id="Fill-50" fill="#CDCCC9" mask="url(#mask-5)" points="37.1499399 325.115802 35.5497712 325.115802 35.5497712 326.039551"></polygon>
                    <path d="M78.8712385,270.335239 L75.8762595,326.968794 C75.8762595,326.968794 94.4601757,329.556919 109.805123,329.556919 C126.12603,329.556919 141.859328,324.991076 141.859328,324.991076 L139.399094,271.934505" id="Fill-51" fill="#DA5A1B" mask="url(#mask-5)"></path>
                    <path d="M139.398281,273.162644 C139.398281,288.772784 125.846662,301.42652 109.13537,301.42652 C92.4220447,301.42652 78.8704252,288.772784 78.8704252,273.162644 L78.8704252,271.933691 C78.8704252,256.323552 92.4220447,243.667781 109.13537,243.667781 C125.846662,243.667781 139.398281,256.323552 139.398281,271.933691 L139.398281,273.162644 Z" id="Fill-52" fill="#DA5A1B" mask="url(#mask-5)"></path>
                    <path d="M109.805936,318.628194 L109.805936,367.192169 L97.5901627,367.192169 C97.6531935,364.915351 100.544477,343.958047 100.353351,340.804277 C100.160192,337.650508 98.3424656,334.295305 96.9191898,331.947273 C93.6131233,326.496339 99.6112144,318.628194 99.6112144,318.628194" id="Fill-53" fill="#4B413C" mask="url(#mask-5)"></path>
                    <path d="M109.805936,318.628194 L109.805936,367.192169 L120.691963,367.192169 C120.628932,364.915351 118.203264,343.852243 118.396423,340.698474 C118.587548,337.544704 121.747221,334.486566 122.690649,331.947273 C125.435538,324.589835 119.313419,318.628194 119.313419,318.628194" id="Fill-54" fill="#4B413C" mask="url(#mask-5)"></path>
                    <path d="M98.3200999,325.342263 C88.1599435,339.426386 88.7536528,364.81321 88.7536528,364.81321 L85.0124706,364.81321 L85.0124706,351.673183 C87.6861959,325.342263 99.6112144,318.627787 99.6112144,318.627787" id="Fill-55" fill="#4B413C" mask="url(#mask-5)"></path>
                    <path d="M119.353677,318.628194 C119.353677,318.628194 131.278696,325.34267 133.952421,351.67359 L133.962587,364.813617 L130.219372,364.813617 C130.219372,364.813617 130.802915,339.426792 120.644792,325.34267" id="Fill-56" fill="#4B413C" mask="url(#mask-5)"></path>
                    <path d="M85.0116573,364.814024 C85.0116573,364.814024 83.8832028,369.095011 84.3589836,371.711622 C84.3589836,371.711622 85.0706216,373.972162 86.8537829,372.781869 L86.8537829,368.144811 C86.8537829,368.144811 87.4474922,367.656485 87.6853826,368.972929 C87.923273,370.285304 87.5674541,370.63934 88.5190156,370.582369 C89.4665107,370.523363 88.7548728,364.814024 88.7548728,364.814024" id="Fill-57" fill="#F6C9A4" mask="url(#mask-5)"></path>
                    <path d="M133.962587,364.814024 C133.962587,364.814024 135.091042,369.095011 134.617294,371.711622 C134.617294,371.711622 133.903623,373.972162 132.120462,372.781869 L132.120462,368.144811 C132.120462,368.144811 131.526752,367.656485 131.288862,368.972929 C131.050972,370.285304 131.406791,370.63934 130.457262,370.582369 C129.507734,370.523363 130.219372,364.814024 130.219372,364.814024" id="Fill-58" fill="#F6C9A4" mask="url(#mask-5)"></path>
                    <polygon id="Fill-59" fill="#F2F2F2" mask="url(#mask-5)" points="106.460221 322.622086 106.460221 367.191965 112.956459 367.191965 112.956459 322.141899 109.806953 329.556309"></polygon>
                    <path d="M90.0024757,288.212227 C90.0024757,290.969232 87.7658994,293.20739 85.010844,293.20739 C82.2537553,293.20739 80.0192122,290.969232 80.0192122,288.212227 L80.0192122,287.736109 C80.0192122,284.97707 82.2537553,282.740946 85.010844,282.740946 C87.7658994,282.740946 90.0024757,284.97707 90.0024757,287.736109 L90.0024757,288.212227 Z" id="Fill-60" fill="#F6C9A4" mask="url(#mask-5)"></path>
                    <path d="M138.248478,288.212227 C138.248478,290.969232 136.011901,293.20739 133.256846,293.20739 C130.499757,293.20739 128.265214,290.969232 128.265214,288.212227 L128.265214,287.736109 C128.265214,284.97707 130.499757,282.740946 133.256846,282.740946 C136.011901,282.740946 138.248478,284.97707 138.248478,287.736109 L138.248478,288.212227 Z" id="Fill-61" fill="#F6C9A4" mask="url(#mask-5)"></path>
                    <path d="M83.5473097,286.665252 C84.36671,288.209582 84.9848183,288.215686 84.9868516,288.028494 C84.9868516,287.95728 84.8018257,287.973558 84.6432321,288.25231 C84.4602395,288.545306 84.3118122,288.997007 84.059689,289.878027 C83.3114526,290.374492 82.683178,290.419255 82.1159009,290.213751 C81.5648898,290.004178 81.1074083,289.438534 80.9854132,288.754879 C80.8532518,288.067154 81.0952087,287.338735 81.5648898,286.933831 C82.0508368,286.539101 82.6953775,286.343771 83.5473097,286.665252" id="Fill-62" fill="#DFAD8B" mask="url(#mask-5)"></path>
                    <path d="M135.041837,288.509292 C134.222437,286.964962 133.604328,286.958858 133.602295,287.146049 C133.602295,287.217264 133.785288,287.200986 133.945915,286.922234 C134.128907,286.629238 134.277335,286.177537 134.529458,285.296516 C135.277694,284.800052 135.905969,284.755289 136.473246,284.960793 C137.024257,285.170366 137.479705,285.736009 137.603734,286.419665 C137.735895,287.10739 137.493938,287.835809 137.024257,288.240713 C136.53831,288.637477 135.891736,288.830773 135.041837,288.509292" id="Fill-63" fill="#DFAD8B" mask="url(#mask-5)"></path>
                    <path d="M133.257659,291.256326 C129.69337,305.061696 116.71716,311.753791 109.46862,311.538114 C100.55688,311.753791 88.3370397,306.345586 85.0106406,291.256326 L85.0106406,280.199822 C85.0106406,267.287681 90.0022724,255.435613 106.459408,257.392985 L109.135167,256.817167 C122.457029,256.817167 133.257659,267.287681 133.257659,280.199822 L133.257659,291.256326 Z" id="Fill-64" fill="#F6C9A4" mask="url(#mask-5)"></path>
                    <polygon id="Fill-65" fill="#F6C9A4" mask="url(#mask-5)" points="114.448255 318.628194 109.806343 329.556512 104.534122 318.628194 104.534122 309.893271 114.448255 309.893271"></polygon>
                    <path d="M100.45969,285.537627 C100.45969,285.956773 99.9818761,286.296566 99.3902,286.296566 C98.8005571,286.296566 98.3207099,285.956773 98.3207099,285.537627 L98.3207099,283.177387 C98.3207099,282.758241 98.8005571,282.420482 99.3902,282.420482 C99.9818761,282.420482 100.45969,282.758241 100.45969,283.177387 L100.45969,285.537627 Z" id="Fill-66" fill="#28252A" mask="url(#mask-5)"></path>
                    <path d="M119.472826,285.537627 C119.472826,285.956773 118.995012,286.296566 118.403336,286.296566 C117.811659,286.296566 117.333845,285.956773 117.333845,285.537627 L117.333845,283.177387 C117.333845,282.758241 117.811659,282.420482 118.403336,282.420482 C118.995012,282.420482 119.472826,282.758241 119.472826,283.177387 L119.472826,285.537627 Z" id="Fill-67" fill="#28252A" mask="url(#mask-5)"></path>
                    <path d="M106.460221,292.484262 C107.421949,292.278758 107.997359,292.158711 108.438575,292.03663 C108.869624,291.930826 109.083115,291.827057 109.21121,291.827057 C109.341338,291.814849 109.453167,291.975589 109.845584,292.083428 C110.248168,292.240099 110.815445,292.305209 111.807672,292.484262 C112.098427,293.418184 111.9256,294.223921 111.413221,294.870953 C110.925241,295.528157 109.985879,295.933061 109.089215,295.894402 C108.182385,295.869985 107.38535,295.438631 106.911603,294.836363 C106.452088,294.211713 106.195899,293.452774 106.460221,292.484262" id="Fill-68" fill="#DFAD8B" mask="url(#mask-5)"></path>
                    <path d="M102.36078,300.188818 L109.497492,300.131846 C110.357557,300.097257 111.233888,300.205095 112.346077,300.146089 C112.921487,300.209165 113.502997,300.091153 114.220734,300.146089 C114.940505,300.162367 115.65011,300.074875 116.622004,300.188818 C116.441045,301.981379 115.593179,303.466703 114.293932,304.534915 C113.031283,305.65196 111.239988,306.227777 109.479193,306.233881 C107.704164,306.239985 105.973867,305.609231 104.690886,304.551193 C103.426204,303.474842 102.466509,302.032247 102.36078,300.188818" id="Fill-69" fill="#CB2232" mask="url(#mask-5)"></path>
                    <path d="M102.36078,300.188818 C102.36078,300.188818 108.488999,301.023041 109.469026,301.694488 C109.469026,301.694488 110.442954,300.819572 116.622004,300.188818 C116.622004,300.188818 110.001738,305.769972 102.36078,300.188818" id="Fill-70" fill="#CB2232" mask="url(#mask-5)"></path>
                    <path d="M91.8441947,266.766597 C91.8441947,266.766597 88.6357243,282.285176 85.9619989,282.740946 C83.2882735,283.196717 80.9703671,282.740946 80.9703671,282.740946 L83.5078647,266.410526 L87.8935876,260.168098 L93.8062821,254.460793 L111.808689,254.460793 L129.099457,259.097851 L134.528238,277.82717 L133.257456,282.740946 C129.929024,281.009425 128.265824,265.962894 128.265824,265.962894 L127.474889,278.860793 C122.66625,278.527104 113.187233,276.921733 111.070618,276.339812 C103.112473,274.148451 101.780693,273.739479 91.8441947,266.766597" id="Fill-71" fill="#DA5A1B" mask="url(#mask-5)"></path>
                    <path d="M119.02795,393.238233 L99.2423826,393.238233 C99.2423826,393.238233 97.813007,382.690401 97.5893494,379.591568 C97.3656917,376.494771 97.5893494,367.192169 97.5893494,367.192169 L120.721649,367.192169 C120.721649,367.192169 121.032736,376.490701 120.721649,379.591568 C120.408528,382.688366 119.02795,393.238233 119.02795,393.238233" id="Fill-72" fill="#071E21" mask="url(#mask-5)"></path>
                    <polyline id="Fill-73" fill="#F6C9A4" mask="url(#mask-5)" points="99.2415693 393.238233 102.659465 431.614516 106.817463 431.614516 107.750726 393.238233"></polyline>
                    <polyline id="Fill-74" fill="#F6C9A4" mask="url(#mask-5)" points="118.70324 393.238233 115.285345 431.614516 111.127346 431.614516 110.194084 393.238233"></polyline>
                    <path d="M107.749709,431.615127 L101.780083,431.615127 L94.0435626,438.366227 C94.0435626,438.366227 105.692059,438.561557 106.403697,436.05075 L106.281702,438.366227 L107.749709,438.366227 L107.749709,431.615127 Z" id="Fill-75" fill="#4B413C" mask="url(#mask-5)"></path>
                    <path d="M110.1951,431.615127 L116.166759,431.615127 L123.90328,438.366227 C123.90328,438.366227 112.252751,438.561557 111.541113,436.05075 L111.663108,438.366227 L110.1951,438.366227 L110.1951,431.615127 Z" id="Fill-76" fill="#4B413C" mask="url(#mask-5)"></path>
                    <polyline id="Fill-77" fill="#F6C9A4" mask="url(#mask-5)" points="170.283164 392.477259 173.5323 428.987732 177.489006 428.987732 178.375504 392.477259"></polyline>
                    <polyline id="Fill-78" fill="#F6C9A4" mask="url(#mask-5)" points="188.79795 392.477259 185.546781 428.987732 181.590074 428.987732 180.703577 392.477259"></polyline>
                    <path d="M189.107614,392.477259 L170.283774,392.477259 C170.283774,392.477259 168.923529,382.444203 168.710038,379.493903 C168.496546,376.549707 168.710038,367.698807 168.710038,367.698807 L190.717949,367.698807 C190.717949,367.698807 191.01277,376.545638 190.717949,379.493903 C190.421094,382.440134 189.107614,392.477259 189.107614,392.477259" id="Fill-79" fill="#A7875A" mask="url(#mask-5)"></path>
                    <path d="M197.739985,372.489891 C197.739985,370.451132 199.43775,368.798963 201.531999,368.798963 C203.626248,368.798963 205.324012,370.451132 205.324012,372.489891" id="Stroke-80" stroke="#985E36" stroke-width="3.75" mask="url(#mask-5)"></path>
                    <polygon id="Fill-81" fill="#985E36" mask="url(#mask-5)" points="186.215314 394.07978 217.34439 394.07978 217.34439 372.489687 186.215314 372.489687"></polygon>
                    <path d="M186.214704,379.82393 L189.264581,379.82393" id="Stroke-82" stroke="#87522D" stroke-width="1.25" mask="url(#mask-5)"></path>
                    <path d="M194.270242,379.82393 L211.790768,379.82393" id="Stroke-83" stroke="#87522D" stroke-width="1.25" stroke-dasharray="3.077499866485596,3.077499866485596" mask="url(#mask-5)"></path>
                    <path d="M214.293904,379.82393 L217.34378,379.82393" id="Stroke-84" stroke="#87522D" stroke-width="1.25" mask="url(#mask-5)"></path>
                    <path d="M199.779133,379.82393 C199.779133,378.792342 200.614799,377.958119 201.643624,377.958119 C202.674483,377.958119 203.510149,378.792342 203.510149,379.82393 C203.510149,380.855518 202.674483,381.691775 201.643624,381.691775 C200.614799,381.691775 199.779133,380.855518 199.779133,379.82393" id="Fill-85" fill="#82471F" mask="url(#mask-5)"></path>
                    <path d="M192.59342,334.168544 C195.200048,327.169211 189.376816,321.496496 189.376816,321.496496 L180.332915,321.496496 L170.634307,321.496496 C170.634307,321.496496 164.92697,328.984154 168.07241,334.168544 C169.424522,336.402633 171.156852,339.595061 171.339845,342.594194 C171.520804,345.595361 168.769815,365.533286 168.710851,367.698196 L180.332915,367.698196 L190.688263,367.698196 C190.629299,365.533286 188.321559,345.493627 188.506585,342.49246 C188.689577,339.491292 191.69269,336.58372 192.59342,334.168544" id="Fill-86" fill="#0570BB" mask="url(#mask-5)"></path>
                    <path d="M203.31455,364.50414 L203.306417,352.934894 C200.76282,327.883794 189.417278,321.496903 189.417278,321.496903 L190.645362,327.883794 C199.185017,339.723654 199.744161,359.94847 199.758394,364.498036 C198.945093,364.79917 198.337151,365.928423 198.337151,367.287596 C198.337151,368.874654 199.164684,370.158543 200.185377,370.158543 L202.877401,370.158543 C203.900127,370.158543 204.72766,368.874654 204.72766,367.287596 C204.72766,365.934527 204.123784,364.809344 203.31455,364.50414" id="Fill-87" fill="#F6C9A4" mask="url(#mask-5)"></path>
                    <path d="M156.743337,352.935912 L156.743337,365.43908 C156.743337,365.43908 155.669781,369.510494 156.123196,371.99892 C156.123196,371.99892 156.800268,374.149587 158.496,373.016265 L158.496,368.605057 C158.496,368.605057 159.061244,368.141148 159.288968,369.392482 C159.514659,370.641782 159.175106,370.981575 160.079903,370.924604 C160.982666,370.867633 160.305594,365.43908 160.305594,365.43908 C160.305594,365.43908 159.74035,341.281209 169.406426,327.882777 L170.63451,321.49792 C170.63451,321.49792 159.288968,327.882777 156.743337,352.935912" id="Fill-88" fill="#F6C9A4" mask="url(#mask-5)"></path>
                    <path d="M170.633697,321.497513 C170.633697,321.497513 169.405613,321.497513 165.619699,325.613691 C163.267227,328.169261 158.751376,336.34261 157.74695,345.997213 L162.20587,345.997213 C162.20587,345.997213 166.239841,330.761456 169.802097,327.707386" id="Fill-89" fill="#0570BB" mask="url(#mask-5)"></path>
                    <path d="M189.416465,321.497513 C189.416465,321.497513 190.644549,321.497513 194.430462,325.613691 C196.782934,328.169261 201.300818,336.34261 202.303211,345.997213 L197.842258,345.997213 C197.842258,345.997213 193.810321,330.761456 190.248065,327.707386" id="Fill-90" fill="#0570BB" mask="url(#mask-5)"></path>
                    <path d="M150.901807,275.552998 L149.565961,314.759435 C149.565961,314.759435 165.732341,317.524578 180.333118,317.524578 C195.861058,317.524578 210.614329,314.759435 210.614329,314.759435 L208.485515,277.072911" id="Fill-91" fill="#542810" mask="url(#mask-5)"></path>
                    <path d="M208.486125,278.241433 C208.486125,293.092634 195.595312,305.131893 179.693254,305.131893 C163.793229,305.131893 150.902417,293.092634 150.902417,278.241433 L150.902417,277.073521 C150.902417,262.220286 163.793229,250.181027 179.693254,250.181027 C195.595312,250.181027 208.486125,262.220286 208.486125,277.073521 L208.486125,278.241433 Z" id="Fill-92" fill="#542810" mask="url(#mask-5)"></path>
                    <path d="M161.491996,292.559749 C161.491996,295.184498 159.367248,297.310749 156.744354,297.310749 C154.12146,297.310749 151.996712,295.184498 151.996712,292.559749 L151.996712,292.106013 C151.996712,289.483298 154.12146,287.355012 156.744354,287.355012 C159.367248,287.355012 161.491996,289.483298 161.491996,292.106013 L161.491996,292.559749 Z" id="Fill-93" fill="#F6C9A4" mask="url(#mask-5)"></path>
                    <path d="M207.392032,292.559749 C207.392032,295.184498 205.267285,297.310749 202.644391,297.310749 C200.021497,297.310749 197.894716,295.184498 197.894716,292.559749 L197.894716,292.106013 C197.894716,289.483298 200.021497,287.355012 202.644391,287.355012 C205.267285,287.355012 207.392032,289.483298 207.392032,292.106013 L207.392032,292.559749 Z" id="Fill-94" fill="#F6C9A4" mask="url(#mask-5)"></path>
                    <path d="M155.35056,291.088464 C156.192326,292.610412 156.820601,292.583961 156.816534,292.368284 C156.816534,292.280793 156.623376,292.282827 156.454616,292.551406 C156.261457,292.832193 156.102863,293.273721 155.838541,294.144568 C155.10047,294.651206 154.484395,294.704108 153.929318,294.512847 C153.38644,294.313448 152.937091,293.762047 152.817129,293.092634 C152.687001,292.421186 152.928958,291.709045 153.392539,291.318384 C153.872387,290.935863 154.508794,290.754775 155.35056,291.088464" id="Fill-95" fill="#DFAD8B" mask="url(#mask-5)"></path>
                    <path d="M204.342155,292.84196 C203.502423,291.320012 202.870082,291.346463 202.876181,291.564175 C202.876181,291.649632 203.06934,291.647597 203.2381,291.379018 C203.429226,291.098231 203.589852,290.656703 203.854175,289.787891 C204.592245,289.279218 205.206287,289.226316 205.763398,289.417577 C206.306276,289.616977 206.755625,290.168378 206.875586,290.835756 C207.005715,291.509238 206.763758,292.22138 206.300176,292.61204 C205.820329,292.994562 205.183921,293.175649 204.342155,292.84196" id="Fill-96" fill="#DFAD8B" mask="url(#mask-5)"></path>
                    <path d="M202.643374,295.455926 C199.251911,308.589848 186.908043,314.956393 180.013288,314.752924 C171.532597,314.956393 159.9085,309.810662 156.742727,295.455926 L156.742727,284.93658 C156.742727,272.651123 161.492402,261.376907 177.15047,263.240683 L179.692034,262.691317 C192.369356,262.691317 202.643374,272.651123 202.643374,284.93658 L202.643374,295.455926 Z" id="Fill-97" fill="#F6C9A4" mask="url(#mask-5)"></path>
                    <polygon id="Fill-98" fill="#F6C9A4" mask="url(#mask-5)" points="184.750153 321.497513 180.331898 331.890709 175.315867 321.497513 175.315867 313.18784 184.750153 313.18784"></polygon>
                    <path d="M171.440694,290.014352 C171.440694,290.413151 170.985246,290.734632 170.424068,290.734632 C169.860858,290.734632 169.405409,290.413151 169.405409,290.014352 L169.405409,287.770089 C169.405409,287.373324 169.860858,287.047774 170.424068,287.047774 C170.985246,287.047774 171.440694,287.373324 171.440694,287.770089 L171.440694,290.014352 Z" id="Fill-99" fill="#28252A" mask="url(#mask-5)"></path>
                    <path d="M189.528497,290.014352 C189.528497,290.413151 189.073049,290.734632 188.511871,290.734632 C187.950694,290.734632 187.495246,290.413151 187.495246,290.014352 L187.495246,287.770089 C187.495246,287.373324 187.950694,287.047774 188.511871,287.047774 C189.073049,287.047774 189.528497,287.373324 189.528497,287.770089 L189.528497,290.014352 Z" id="Fill-100" fill="#28252A" mask="url(#mask-5)"></path>
                    <path d="M177.150267,296.624245 C178.093695,296.402464 178.648773,296.264105 179.069656,296.13185 C179.478339,296.011803 179.665399,295.899895 179.769094,295.90193 C179.874823,295.887687 179.962253,296.054532 180.332305,296.174578 C180.712523,296.341423 181.261501,296.424845 182.237461,296.624245 C182.546516,297.54189 182.387922,298.329315 181.897908,298.964138 C181.432294,299.605065 180.519364,300.003864 179.649133,299.96724 C178.766701,299.942824 177.994066,299.519608 177.542684,298.929548 C177.105535,298.319141 176.869678,297.574445 177.150267,296.624245" id="Fill-101" fill="#DFAD8B" mask="url(#mask-5)"></path>
                    <path d="M173.249678,303.954215 L180.040737,303.750746 C180.835738,303.718191 181.649038,303.834168 182.702263,303.809752 C183.247174,303.878931 183.804285,303.783301 184.493557,303.85248 C185.184862,303.88707 185.872101,303.82196 186.817563,303.954215 C186.685402,305.704048 185.8904,307.152747 184.648084,308.194508 C183.446433,309.283067 181.718169,309.846676 180.022437,309.85278 C178.31044,309.858884 176.645207,309.244408 175.42119,308.210786 C174.213439,307.160886 173.308642,305.75288 173.249678,303.954215" id="Fill-102" fill="#CB2232" mask="url(#mask-5)"></path>
                    <path d="M173.249678,303.954215 C173.249678,303.954215 179.079009,304.747744 180.012271,305.384602 C180.012271,305.384602 180.9374,304.552413 186.817563,303.954215 C186.817563,303.954215 180.520584,309.264755 173.249678,303.954215" id="Fill-103" fill="#CB2232" mask="url(#mask-5)"></path>
                    <path d="M152.900289,287.354809 C152.900289,287.354809 155.104334,287.788198 157.647931,287.354809 C160.193561,286.92142 163.245472,272.157711 163.245472,272.157711 C163.245472,272.157711 162.566366,279.964815 162.397606,282.847971 L172.232442,281.999505 L172.698057,270.120986 L173.482892,281.830626 L187.494026,281.533561 L188.512685,270.2919 L189.52931,281.661747 C189.52931,281.661747 196.822582,282.339298 197.839208,282.510212 L197.894106,272.666383 C197.894106,272.666383 199.478008,285.708745 202.643781,287.354809 L203.853565,282.679092 L198.687074,264.861313 L182.238071,260.448071 L165.109963,260.448071 L159.48599,265.878658 L155.313758,271.817918 L152.900289,287.354809 Z" id="Fill-104" fill="#542810" mask="url(#mask-5)"></path>
                    <path d="M178.376521,428.988342 L172.69765,428.988342 L165.33728,435.409823 C165.33728,435.409823 176.4185,435.597014 177.097606,433.206254 L176.98171,435.409823 L178.376521,435.409823 L178.376521,428.988342 Z" id="Fill-105" fill="#4B413C" mask="url(#mask-5)"></path>
                    <path d="M180.70256,428.988342 L186.381431,428.988342 L193.743833,435.409823 C193.743833,435.409823 182.660581,435.597014 181.983508,433.206254 L182.099404,435.409823 L180.70256,435.409823 L180.70256,428.988342 Z" id="Fill-106" fill="#4B413C" mask="url(#mask-5)"></path>
                    <path d="M268.349921,327.263824 L275.901416,353.446212 C276.863144,356.783103 280.376602,358.724197 283.709101,357.759754 C287.041599,356.799381 288.981321,353.281402 288.019593,349.946545 L280.470131,323.762123 C278.276253,316.156453 266.269905,320.048814 268.349921,327.263824" id="Fill-107" fill="#DDA87E" mask="url(#mask-5)"></path>
                    <path d="M277.769567,426.478756 C280.782845,430.969316 284.798517,433.553372 285.800909,436.792598 C287.411244,441.993265 282.059727,441.779623 278.660131,441.000337 C275.016545,440.164079 273.300481,437.999169 271.326194,437.429456 C266.535854,436.045867 266.413859,433.211544 268.351547,426.478756 C270.287203,419.743933 275.343898,422.277121 277.769567,426.478756" id="Fill-108" fill="#8599B4" mask="url(#mask-5)"></path>
                    <path d="M247.169543,426.478756 C244.156264,430.969316 240.140593,433.553372 239.1382,436.792598 C237.472968,442.176387 243.344997,441.802004 246.728327,440.886394 C250.066926,439.985026 251.721992,437.974753 253.612916,437.429456 C258.403256,436.045867 258.527284,433.211544 256.589596,426.478756 C254.651907,419.743933 249.595211,422.277121 247.169543,426.478756" id="Fill-109" fill="#8599B4" mask="url(#mask-5)"></path>
                    <path d="M237.981077,366.960011 L237.981077,366.960011 C238.57682,366.361812 239.55278,366.359777 240.148523,366.957976 L242.783617,369.58883 C243.379359,370.182959 243.381392,371.15961 242.78565,371.755775 C242.189907,372.353973 241.213947,372.356008 240.616171,371.759844 L237.98311,369.12899 C237.387368,368.532826 237.385334,367.556175 237.981077,366.960011" id="Fill-110" fill="#DDA87E" mask="url(#mask-5)"></path>
                    <path d="M275.005565,368.466292 L241.111267,368.466292 L243.904955,430.231334 L257.983186,430.231334 L255.189499,385.378633 C254.951608,381.541208 260.394622,381.565624 260.927334,385.378633 L267.181615,430.231334 L281.259846,430.231334 L275.005565,368.466292 Z" id="Fill-111" fill="#E7962D" mask="url(#mask-5)"></path>
                    <path d="M247.383847,328.781906 L233.942024,352.481972 C232.230026,355.503487 228.362782,356.571699 225.345437,354.856455 C222.328092,353.145281 221.258602,349.271232 222.972633,346.253787 L236.412424,322.551686 C240.318299,315.666296 251.086398,322.252587 247.383847,328.781906" id="Fill-112" fill="#DDA87E" mask="url(#mask-5)"></path>
                    <path d="M238.581903,344.30252 L228.212322,337.014261 L236.412424,322.551686 C240.318299,315.666296 251.086398,322.252587 247.383847,328.781906 L238.581903,344.30252 Z" id="Fill-113" fill="#8599B4" mask="url(#mask-5)"></path>
                    <path d="M268.349921,327.263824 L272.941002,343.187306 L285.118144,339.880935 L280.470131,323.762123 C278.276253,316.156453 266.269905,320.048814 268.349921,327.263824" id="Fill-114" fill="#8599B4" mask="url(#mask-5)"></path>
                    <polygon id="Fill-115" fill="#415155" mask="url(#mask-5)" points="241.111064 373.106198 275.005362 373.106198 275.005362 319.628447 241.111064 319.628447"></polygon>
                    <path d="M248.63877,319.627633 L267.478876,319.627633 L267.478876,320.811823 C267.478876,325.996212 263.239547,330.23854 258.058823,330.23854 C252.878099,330.23854 248.63877,325.996212 248.63877,320.811823 L248.63877,319.627633 Z" id="Fill-116" fill="#8599B4" mask="url(#mask-5)"></path>
                    <path d="M258.058416,294.416606 L258.058416,294.416606 C253.849586,294.416606 250.403225,297.863371 250.403225,302.077213 L250.403225,319.628447 C250.403225,323.840255 253.849586,327.287019 258.058416,327.287019 C262.267246,327.287019 265.713607,323.840255 265.713607,319.628447 L265.713607,302.077213 C265.713607,297.863371 262.267246,294.416606 258.058416,294.416606" id="Fill-117" fill="#DDA87E" mask="url(#mask-5)"></path>
                    <path d="M250.404039,313.915038 L250.404039,313.915038 C250.404039,320.49319 265.712387,320.49319 265.712387,313.915038 C265.712387,307.336886 250.404039,307.336886 250.404039,313.915038" id="Fill-118" fill="#B9875F" mask="url(#mask-5)"></path>
                    <path d="M239.316517,309.239728 C244.342714,309.239728 248.443781,305.135759 248.443781,300.106006 C248.443781,295.074218 244.342714,290.970249 239.316517,290.970249 C234.288286,290.970249 230.189252,295.074218 230.189252,300.106006 C230.189252,305.135759 234.288286,309.239728 239.316517,309.239728" id="Fill-119" fill="#6B503F" mask="url(#mask-5)"></path>
                    <path d="M275.039317,309.543711 C280.067548,309.543711 284.166582,305.439742 284.166582,300.409989 C284.166582,295.378201 280.067548,291.274232 275.039317,291.274232 C270.011087,291.274232 265.912053,295.378201 265.912053,300.409989 C265.912053,305.439742 270.011087,309.543711 275.039317,309.543711" id="Fill-120" fill="#6B503F" mask="url(#mask-5)"></path>
                    <path d="M232.554533,302.318934 C237.582763,302.318934 241.681798,298.214965 241.681798,293.185212 C241.681798,288.153424 237.582763,284.049455 232.554533,284.049455 C227.526303,284.049455 223.427268,288.153424 223.427268,293.185212 C223.427268,298.214965 227.526303,302.318934 232.554533,302.318934" id="Fill-121" fill="#6B503F" mask="url(#mask-5)"></path>
                    <path d="M280.90972,301.675159 C285.937951,301.675159 290.036985,297.573224 290.036985,292.541436 C290.036985,287.511683 285.937951,283.407714 280.90972,283.407714 C275.88149,283.407714 271.782456,287.511683 271.782456,292.541436 C271.782456,297.573224 275.88149,301.675159 280.90972,301.675159" id="Fill-122" fill="#6B503F" mask="url(#mask-5)"></path>
                    <path d="M231.244916,293.591947 C236.271113,293.591947 240.372181,289.487977 240.372181,284.458224 C240.372181,279.428471 236.271113,275.322467 231.244916,275.322467 C226.216685,275.322467 222.115618,279.428471 222.115618,284.458224 C222.115618,289.487977 226.216685,293.591947 231.244916,293.591947" id="Fill-123" fill="#6B503F" mask="url(#mask-5)"></path>
                    <path d="M282.23418,292.175192 C287.26241,292.175192 291.361445,288.071223 291.361445,283.04147 C291.361445,278.009682 287.26241,273.905713 282.23418,273.905713 C277.20595,273.905713 273.106915,278.009682 273.106915,283.04147 C273.106915,288.071223 277.20595,292.175192 282.23418,292.175192" id="Fill-124" fill="#6B503F" mask="url(#mask-5)"></path>
                    <path d="M258.058416,253.587708 C301.187742,253.587708 290.795794,316.231736 258.058416,316.231736 C225.321038,316.231736 214.929091,253.587708 258.058416,253.587708" id="Fill-125" fill="#DDA87E" mask="url(#mask-5)"></path>
                    <path d="M240.640773,368.806085 L240.05113,366.830401 L233.654522,366.899581 L228.185076,370.256819 L228.772686,372.232502 C231.365081,380.96946 243.652018,378.90832 240.640773,368.806085" id="Fill-126" fill="#DDA87E" mask="url(#mask-5)"></path>
                    <path d="M240.052147,366.831011 L234.670131,347.857529 C233.722636,344.518604 230.146147,342.622273 226.821781,343.613167 C223.497415,344.606095 221.588192,348.138317 222.582452,351.465034 L228.184059,370.257429 L240.052147,366.831011 Z" id="Fill-127" fill="#DDA87E" mask="url(#mask-5)"></path>
                    <path d="M277.974925,372.865494 L277.974925,372.865494 C277.131126,372.883807 276.456087,373.587809 276.476419,374.43424 L276.555716,378.155688 C276.574015,379.000084 277.279554,379.675601 278.123353,379.655254 C278.965119,379.636942 279.640158,378.930905 279.621859,378.088543 L279.542562,374.365061 C279.524263,373.522699 278.818725,372.847182 277.974925,372.865494" id="Fill-128" fill="#DDA87E" mask="url(#mask-5)"></path>
                    <path d="M276.475809,374.433223 L276.461577,372.370047 L282.046918,370.386225 L288.811545,372.178787 L288.825777,374.239927 C288.894908,383.353303 276.54494,384.972916 276.475809,374.433223" id="Fill-129" fill="#DDA87E" mask="url(#mask-5)"></path>
                    <path d="M276.461983,372.370658 L276.073632,352.650445 C276.002468,349.181299 278.871386,346.320525 282.340113,346.300178 C285.808839,346.277796 288.663524,349.097876 288.68589,352.571092 L288.811951,372.177362 L276.461983,372.370658 Z" id="Fill-130" fill="#DDA87E" mask="url(#mask-5)"></path>
                    <path d="M288.02305,281.171183 C285.845438,280.615713 283.198145,283.612811 282.112388,287.869382 C281.026632,292.123918 281.91313,296.026453 284.088709,296.581923 C286.268354,297.139428 288.913614,294.140296 290.001403,289.885759 C291.087159,285.629188 290.200662,281.726653 288.02305,281.171183" id="Fill-131" fill="#DDA87E" mask="url(#mask-5)"></path>
                    <path d="M228.071011,281.171183 C230.248623,280.615713 232.895916,283.612811 233.981672,287.869382 C235.067428,292.123918 234.180931,296.026453 232.003318,296.581923 C229.825706,297.139428 227.180447,294.140296 226.092657,289.885759 C225.006901,285.629188 225.893399,281.726653 228.071011,281.171183" id="Fill-132" fill="#DDA87E" mask="url(#mask-5)"></path>
                    <path d="M249.110281,290.952344 C250.255001,290.952344 251.188264,289.24117 251.188264,287.143404 C251.188264,285.045639 250.255001,283.334465 249.110281,283.334465 C247.967594,283.334465 247.034332,285.045639 247.034332,287.143404 C247.034332,289.24117 247.967594,290.952344 249.110281,290.952344" id="Fill-133" fill="#415155" mask="url(#mask-5)"></path>
                    <path d="M267.006552,290.952344 C268.149239,290.952344 269.082501,289.24117 269.082501,287.143404 C269.082501,285.045639 268.149239,283.334465 267.006552,283.334465 C265.863865,283.334465 264.930602,285.045639 264.930602,287.143404 C264.930602,289.24117 265.863865,290.952344 267.006552,290.952344" id="Fill-134" fill="#415155" mask="url(#mask-5)"></path>
                    <path d="M247.252906,303.411766 C252.285203,304.842153 263.091933,305.108698 268.864333,303.411766 L247.252906,303.411766 Z" id="Fill-135" fill="#A06F48" mask="url(#mask-5)"></path>
                    <path d="M253.856906,295.261003 C255.469274,299.375145 260.647965,299.301896 262.260333,295.261003 C259.899729,297.5073 256.345606,297.613104 253.856906,295.261003" id="Fill-136" fill="#B9875F" mask="url(#mask-5)"></path>
                    <path d="M253.037912,305.605365 C254.908504,308.146693 261.093654,308.108034 263.078107,305.605365 C260.184791,306.783451 255.931229,306.789555 253.037912,305.605365" id="Fill-137" fill="#B9875F" mask="url(#mask-5)"></path>
                    <path d="M264.958458,278.202774 C266.583025,276.994168 269.360447,277.742934 270.783723,279.256743 C271.49536,280.013648 270.897585,280.086897 270.415704,279.657577 C268.8623,278.273988 266.922578,278.273988 265.314277,279.075656 C264.462344,279.498871 264.055694,278.874222 264.958458,278.202774" id="Fill-138" fill="#6B503F" mask="url(#mask-5)"></path>
                    <path d="M251.577428,278.203588 C249.893896,277.07637 247.15714,277.967564 245.813161,279.548518 C245.138121,280.340012 245.739964,280.382741 246.199479,279.93104 C247.681719,278.470132 249.619407,278.372467 251.264307,279.092747 C252.136572,279.473234 252.51069,278.828238 251.577428,278.203588" id="Fill-139" fill="#6B503F" mask="url(#mask-5)"></path>
                    <path d="M239.506016,272.849709 C244.534246,272.849709 248.63328,268.74574 248.63328,263.715986 C248.63328,258.684199 244.534246,254.580229 239.506016,254.580229 C234.479818,254.580229 230.378751,258.684199 230.378751,263.715986 C230.378751,268.74574 234.479818,272.849709 239.506016,272.849709" id="Fill-140" fill="#6B503F" mask="url(#mask-5)"></path>
                    <path d="M248.476923,268.834045 C253.505154,268.834045 257.604188,264.730076 257.604188,259.698288 C257.604188,254.668535 253.505154,250.564566 248.476923,250.564566 C243.448693,250.564566 239.349658,254.668535 239.349658,259.698288 C239.349658,264.730076 243.448693,268.834045 248.476923,268.834045" id="Fill-141" fill="#6B503F" mask="url(#mask-5)"></path>
                    <path d="M262.168634,267.416273 C267.196864,267.416273 271.295899,263.312304 271.295899,258.282551 C271.295899,253.250763 267.196864,249.146794 262.168634,249.146794 C257.140403,249.146794 253.041369,253.250763 253.041369,258.282551 C253.041369,263.312304 257.140403,267.416273 262.168634,267.416273" id="Fill-142" fill="#6B503F" mask="url(#mask-5)"></path>
                    <path d="M274.443575,271.904799 C279.471805,271.904799 283.57084,267.80083 283.57084,262.771077 C283.57084,257.739289 279.471805,253.63532 274.443575,253.63532 C269.415344,253.63532 265.31631,257.739289 265.31631,262.771077 C265.31631,267.80083 269.415344,271.904799 274.443575,271.904799" id="Fill-143" fill="#6B503F" mask="url(#mask-5)"></path>
                    <path d="M281.526202,282.063394 C286.554432,282.063394 290.653467,277.959425 290.653467,272.927637 C290.653467,267.897884 286.554432,263.793915 281.526202,263.793915 C276.497972,263.793915 272.398937,267.897884 272.398937,272.927637 C272.398937,277.959425 276.497972,282.063394 281.526202,282.063394" id="Fill-144" fill="#6B503F" mask="url(#mask-5)"></path>
                    <path d="M231.71663,282.299825 C236.74486,282.299825 240.843895,278.195856 240.843895,273.164068 C240.843895,268.134315 236.74486,264.030346 231.71663,264.030346 C226.6884,264.030346 222.589365,268.134315 222.589365,273.164068 C222.589365,278.195856 226.6884,282.299825 231.71663,282.299825" id="Fill-145" fill="#6B503F" mask="url(#mask-5)"></path>
                    <path d="M259.571562,272.480209 C264.599792,272.480209 268.698827,268.37624 268.698827,263.344452 C268.698827,258.314699 264.599792,254.21073 259.571562,254.21073 C254.543332,254.21073 250.444297,258.314699 250.444297,263.344452 C250.444297,268.37624 254.543332,272.480209 259.571562,272.480209" id="Fill-146" fill="#6B503F" mask="url(#mask-5)"></path>
                    <path d="M247.060154,273.276994 C252.088384,273.276994 256.187419,269.173024 256.187419,264.143271 C256.187419,259.111484 252.088384,255.007514 247.060154,255.007514 C242.031924,255.007514 237.932889,259.111484 237.932889,264.143271 C237.932889,269.173024 242.031924,273.276994 247.060154,273.276994" id="Fill-147" fill="#6B503F" mask="url(#mask-5)"></path>
                    <path d="M272.426183,274.043868 C277.454413,274.043868 281.553448,269.939899 281.553448,264.910146 C281.553448,259.880393 277.454413,255.774389 272.426183,255.774389 C267.397953,255.774389 263.298918,259.880393 263.298918,264.910146 C263.298918,269.939899 267.397953,274.043868 272.426183,274.043868" id="Fill-148" fill="#6B503F" mask="url(#mask-5)"></path>
                    <path d="M272.426183,274.043868 C277.454413,274.043868 281.553448,269.939899 281.553448,264.910146 C281.553448,259.880393 277.454413,255.774389 272.426183,255.774389 C267.397953,255.774389 263.298918,259.880393 263.298918,264.910146 C263.298918,269.939899 267.397953,274.043868 272.426183,274.043868 Z" id="Stroke-149" stroke="#6B503F" stroke-width="0.5" mask="url(#mask-5)"></path>
                    <path d="M278.902291,277.856877 C283.178219,277.856877 286.665245,274.365349 286.665245,270.086397 C286.665245,265.807444 283.178219,262.315916 278.902291,262.315916 C274.624331,262.315916 271.137305,265.807444 271.137305,270.086397 C271.137305,274.365349 274.624331,277.856877 278.902291,277.856877" id="Fill-150" fill="#6B503F" mask="url(#mask-5)"></path>
                    <path d="M237.363579,276.883278 C242.391809,276.883278 246.490843,272.779309 246.490843,267.749555 C246.490843,262.717768 242.391809,258.613798 237.363579,258.613798 C232.335348,258.613798 228.236314,262.717768 228.236314,267.749555 C228.236314,272.779309 232.335348,276.883278 237.363579,276.883278" id="Fill-151" fill="#6B503F" mask="url(#mask-5)"></path>
                    <path d="M232.014298,284.663524 C235.560288,284.663524 238.453605,281.770196 238.453605,278.219662 C238.453605,274.671163 235.560288,271.777834 232.014298,271.777834 C228.468308,271.777834 225.574991,274.671163 225.574991,278.219662 C225.574991,281.770196 228.468308,284.663524 232.014298,284.663524" id="Fill-152" fill="#6B503F" mask="url(#mask-5)"></path>
                    <path d="M282.556857,284.630563 C285.988985,284.630563 288.786739,281.828795 288.786739,278.396273 C288.786739,274.961717 285.988985,272.159949 282.556857,272.159949 C279.126762,272.159949 276.326975,274.961717 276.326975,278.396273 C276.326975,281.828795 279.126762,284.630563 282.556857,284.630563" id="Fill-153" fill="#6B503F" mask="url(#mask-5)"></path>
                    <path d="M281.476591,289.675576 C283.672502,289.675576 285.463796,287.883014 285.463796,285.685549 C285.463796,283.48605 283.672502,281.695523 281.476591,281.695523 C279.280679,281.695523 277.489385,283.48605 277.489385,285.685549 C277.489385,287.883014 279.280679,289.675576 281.476591,289.675576" id="Fill-154" fill="#6B503F" mask="url(#mask-5)"></path>
                    <path d="M231.350238,289.195796 C233.54615,289.195796 235.337444,287.403234 235.337444,285.205769 C235.337444,283.00627 233.54615,281.215743 231.350238,281.215743 C229.152294,281.215743 227.363033,283.00627 227.363033,285.205769 C227.363033,287.403234 229.152294,289.195796 231.350238,289.195796" id="Fill-155" fill="#6B503F" mask="url(#mask-5)"></path>
                    <path d="M280.528486,294.170205 C282.073757,294.170205 283.336406,292.908698 283.336406,291.362334 C283.336406,289.813935 282.073757,288.552427 280.528486,288.552427 C278.983215,288.552427 277.720566,289.813935 277.720566,291.362334 C277.720566,292.908698 278.983215,294.170205 280.528486,294.170205" id="Fill-156" fill="#6B503F" mask="url(#mask-5)"></path>
                    <path d="M231.821749,293.141873 C233.36702,293.141873 234.627636,291.878331 234.627636,290.331967 C234.627636,288.785602 233.36702,287.52206 231.821749,287.52206 C230.274445,287.52206 229.013829,288.785602 229.013829,290.331967 C229.013829,291.878331 230.274445,293.141873 231.821749,293.141873" id="Fill-157" fill="#6B503F" mask="url(#mask-5)"></path>
                    <path d="M285.349528,435.712381 C285.524387,436.054209 285.670781,436.400106 285.780577,436.754142 C287.405145,442.005677 281.909267,441.749306 278.511704,440.929326 C274.955547,440.074756 273.257783,437.954609 271.303828,437.388966 C268.735832,436.648339 267.509781,435.488565 267.223093,433.535263 C269.949683,435.65541 274.073116,437.393035 278.444607,438.833595 C280.305031,436.772455 282.99299,435.746971 285.349528,435.712381" id="Fill-158" fill="#A5B8CE" mask="url(#mask-5)"></path>
                    <path d="M279.51186,430.059403 C279.278036,430.130617 279.056412,430.222178 278.853087,430.330016 L278.792089,430.323912 C277.480642,430.220143 276.124464,430.346294 275.132237,430.893626 C274.939078,430.999429 274.867914,431.243592 274.975677,431.436888 C275.081406,431.630183 275.323363,431.703432 275.518555,431.595594 C276.14073,431.251731 276.958097,431.107268 277.818162,431.093025 C277.275284,431.628149 276.886933,432.248729 276.581945,432.773679 C276.437584,432.893726 276.392853,433.103299 276.486382,433.274213 C276.592111,433.467508 276.836101,433.538722 277.02926,433.430884 C277.639236,433.097195 278.383406,432.901864 279.154008,432.818442 C278.639595,433.365774 278.269544,433.98025 277.978789,434.480784 C277.86696,434.672044 277.934057,434.916207 278.12315,435.02608 C278.314275,435.137988 278.560299,435.072878 278.670094,434.881617 C278.891718,434.499096 279.164174,434.043325 279.51186,433.62011 L279.51186,431.986254 C278.956783,432.022878 278.399672,432.104266 277.875093,432.24466 C278.088584,431.961838 278.332574,431.68512 278.619263,431.447061 C278.745324,431.339223 278.881552,431.239523 279.027946,431.149996 C279.190606,431.168309 279.353267,431.188656 279.51186,431.213072 L279.51186,430.059403 Z M283.466534,433.498028 C283.64546,433.630283 283.893517,433.591624 284.025678,433.412571 C284.155806,433.237588 284.117174,432.985287 283.938248,432.855066 C283.625127,432.625147 283.13918,432.421678 282.549537,432.267041 L282.55767,432.269076 C282.673566,432.279249 282.783361,432.236521 282.862658,432.165307 C282.903323,432.138856 282.941955,432.104266 282.972454,432.061537 C283.102582,431.884519 283.06395,431.634253 282.887057,431.504032 C282.496673,431.217141 281.776902,430.918042 280.908704,430.688122 C280.971734,430.692191 281.034765,430.694226 281.099829,430.70033 C281.31942,430.720677 281.512579,430.557902 281.532912,430.34019 C281.553244,430.120443 281.390584,429.927148 281.170993,429.906801 C280.544752,429.847795 279.995774,429.91087 279.51186,430.059403 L279.51186,431.213072 C280.105569,431.300564 280.66878,431.432818 281.148627,431.583385 C280.805008,431.672912 280.49392,431.805167 280.209265,431.967942 C279.979508,431.965907 279.745684,431.972011 279.51186,431.986254 L279.51186,433.62011 C279.678587,433.418676 279.861579,433.22538 280.064904,433.052431 C280.1808,432.952732 280.302795,432.859136 280.432923,432.773679 C281.748436,432.814373 282.941955,433.115507 283.466534,433.498028 L283.466534,433.498028 Z" id="Fill-159" fill="#A5B8CE" mask="url(#mask-5)"></path>
                    <path d="M239.564573,435.712381 C239.38768,436.054209 239.243319,436.400106 239.133524,436.754142 C237.506923,442.005677 243.002801,441.749306 246.400364,440.929326 C249.95652,440.074756 251.656318,437.954609 253.608239,437.388966 C256.176236,436.648339 257.402286,435.488565 257.688975,433.535263 C254.964418,435.65541 250.838951,437.393035 246.467461,438.833595 C244.607036,436.772455 241.921111,435.746971 239.564573,435.712381" id="Fill-160" fill="#A5B8CE" mask="url(#mask-5)"></path>
                    <path d="M241.545163,433.498842 C241.36827,433.629062 241.11818,433.592438 240.986019,433.413385 C240.855891,433.236367 240.894523,432.986101 241.073449,432.85588 C241.384536,432.623926 241.872517,432.422491 242.464193,432.267855 L242.454026,432.26989 C242.338131,432.278028 242.228336,432.237335 242.149039,432.166121 C242.106341,432.13967 242.069742,432.103045 242.039243,432.062351 C241.909115,431.885333 241.947747,431.635067 242.12464,431.504846 C242.515024,431.217955 243.234795,430.916821 244.102993,430.686901 C244.039962,430.69097 243.976932,430.69504 243.911868,430.701144 C243.692276,430.721491 243.497084,430.558716 243.478785,430.338969 C243.458453,430.121257 243.621113,429.925927 243.838671,429.90558 C244.466945,429.848609 245.015923,429.90965 245.499837,430.060217 L245.499837,431.213886 C244.904094,431.301377 244.342917,431.431598 243.86307,431.584199 C244.204656,431.673726 244.515743,431.80598 244.800398,431.968756 C245.032189,431.966721 245.266013,431.972825 245.499837,431.987068 L245.499837,433.622958 C245.33311,433.419489 245.148084,433.224159 244.946792,433.051211 C244.830897,432.951511 244.708902,432.85995 244.578774,432.774493 C243.26326,432.815187 242.069742,433.116321 241.545163,433.498842 L241.545163,433.498842 Z M245.499837,430.060217 C245.735694,430.131431 245.953252,430.222992 246.15861,430.328796 L246.219608,430.322692 C247.531055,430.220957 248.8852,430.345073 249.877427,430.894439 C250.070586,430.998209 250.143783,431.244406 250.03602,431.435667 C249.930291,431.630997 249.686301,431.702211 249.493142,431.594373 C248.870967,431.252545 248.0536,431.106047 247.191502,431.091804 C247.736413,431.626928 248.124764,432.249543 248.429752,432.774493 C248.574113,432.892505 248.618844,433.104113 248.525315,433.275026 C248.417552,433.466287 248.175595,433.539536 247.982437,433.431698 C247.374494,433.098008 246.628291,432.902678 245.857689,432.819256 C246.372102,433.366587 246.744187,433.979029 247.032908,434.479563 C247.142704,434.670824 247.07764,434.914986 246.886514,435.026894 C246.697422,435.138802 246.451398,435.071658 246.341603,434.882431 C246.119978,434.497875 245.847523,434.044139 245.499837,433.622958 L245.499837,431.987068 C246.054914,432.021658 246.612025,432.103045 247.136604,432.245473 C246.923113,431.960617 246.677089,431.683899 246.392434,431.44584 C246.266373,431.338002 246.130145,431.240337 245.983751,431.15081 C245.821091,431.167088 245.65843,431.187435 245.499837,431.213886 L245.499837,430.060217 Z" id="Fill-161" fill="#A5B8CE" mask="url(#mask-5)"></path>
                    <path d="M220.364988,102.709765 C220.364988,136.02781 193.375612,163.034247 160.083156,163.034247 C126.788667,163.034247 99.7992901,136.02781 99.7992901,102.709765 C99.7992901,69.39172 126.788667,42.3852828 160.083156,42.3852828 C193.375612,42.3852828 220.364988,69.39172 220.364988,102.709765" id="Fill-162" fill="#272827" mask="url(#mask-5)"></path>
                    <path d="M170.99937,92.0312601 C177.934563,104.46084 182.378079,114.478238 177.179692,120.303287 C178.190197,115.205053 176.119563,104.384095 170.99937,92.0312601 M172.005364,88.7538238 C166.092706,77.9614576 163.37547,69.2803141 161.777007,64 C161.769489,64.0240767 161.76197,64.0496581 161.754451,64.0737348 C160.152981,69.3615729 157.434241,78.0111157 151.548651,88.7538238 C145.380359,100.01418 141,107.605854 141,113.05922 C141,124.534761 150.290031,133.868984 161.754451,133.868984 L161.777007,133.868984 C173.251954,133.868984 182.554015,124.542285 182.554015,113.05922 C182.554015,107.605854 178.173656,100.01418 172.005364,88.7538238" id="Fill-163" fill="#F39921" mask="url(#mask-5)"></path>
                    <path d="M160.539824,45.6867704 C129.022397,45.6867704 103.379032,71.346243 103.379032,102.888004 C103.379032,134.42773 129.022397,160.087202 160.539824,160.087202 C192.057251,160.087202 217.700616,134.42773 217.700616,102.888004 C217.700616,71.346243 192.057251,45.6867704 160.539824,45.6867704 M160.539824,165.470991 C152.097765,165.470991 143.907829,163.814754 136.195707,160.551112 C128.747908,157.399377 122.060545,152.886435 116.318643,147.140471 C110.574708,141.392473 106.06699,134.700378 102.917484,127.24731 C99.654116,119.529731 98.0010828,111.334001 98.0010828,102.888004 C98.0010828,94.4399718 99.654116,86.2442414 102.917484,78.5266632 C106.06699,71.0735946 110.574708,64.3815 116.318643,58.6335014 C122.060545,52.8875375 128.747908,48.3745956 136.195707,45.2228612 C143.907829,41.9592188 152.097765,40.3029813 160.539824,40.3029813 C168.981883,40.3029813 177.171819,41.9592188 184.883941,45.2228612 C192.329707,48.3745956 199.019104,52.8875375 204.761005,58.6335014 C210.502907,64.3815 215.012658,71.0735946 218.162164,78.5266632 C221.423499,86.2442414 223.078566,94.4399718 223.078566,102.888004 C223.078566,111.334001 221.423499,119.529731 218.162164,127.24731 C215.012658,134.700378 210.502907,141.392473 204.761005,147.140471 C199.019104,152.886435 192.329707,157.399377 184.883941,160.551112 C177.171819,163.814754 168.981883,165.470991 160.539824,165.470991" id="Fill-164" fill="#D45353" mask="url(#mask-5)"></path>
                    <polygon id="Fill-165" fill="#D45353" mask="url(#mask-5)" points="200.183343 145.965845 111.773513 69.4106426 116.824109 63.5670136 205.235973 140.122216"></polygon>
                    <path d="M246.630325,204.502852 C246.630325,207.874333 243.899668,210.606921 240.530571,210.606921 C237.161474,210.606921 234.430817,207.874333 234.430817,204.502852 C234.430817,201.131371 237.161474,198.398783 240.530571,198.398783 C243.899668,198.398783 246.630325,201.131371 246.630325,204.502852" id="Fill-166" fill="#EBE0D2" mask="url(#mask-5)"></path>
                    <path d="M268.996088,222.009323 C268.996088,225.380804 266.265432,228.113392 262.896334,228.113392 C259.527237,228.113392 256.796581,225.380804 256.796581,222.009323 C256.796581,218.637842 259.527237,215.905253 262.896334,215.905253 C266.265432,215.905253 268.996088,218.637842 268.996088,222.009323" id="Fill-167" fill="#EBE0D2" mask="url(#mask-5)"></path>
                    <path d="M187.666039,217.939943 C187.666039,221.311424 184.935382,224.044012 181.566285,224.044012 C178.197188,224.044012 175.466531,221.311424 175.466531,217.939943 C175.466531,214.568462 178.197188,211.835874 181.566285,211.835874 C184.935382,211.835874 187.666039,214.568462 187.666039,217.939943" id="Fill-168" fill="#EBE0D2" mask="url(#mask-5)"></path>
                    <path d="M114.468994,217.939943 C114.468994,214.568462 117.199651,211.835874 120.568748,211.835874 C123.937845,211.835874 126.668502,214.568462 126.668502,217.939943 C126.668502,221.311424 123.937845,224.044012 120.568748,224.044012 C117.199651,224.044012 114.468994,221.311424 114.468994,217.939943" id="Fill-169" fill="#EBE0D2" mask="url(#mask-5)"></path>
                    <path d="M61.6044624,198.398783 C61.6044624,201.770264 58.873806,204.502852 55.5047087,204.502852 C52.1356115,204.502852 49.404955,201.770264 49.404955,198.398783 C49.404955,195.027302 52.1356115,192.294713 55.5047087,192.294713 C58.873806,192.294713 61.6044624,195.027302 61.6044624,198.398783" id="Fill-170" fill="#EBE0D2" mask="url(#mask-5)"></path>
                    <path d="M41.2719501,222.009323 C41.2719501,225.380804 38.5412937,228.113392 35.1721964,228.113392 C31.8030991,228.113392 29.0724427,225.380804 29.0724427,222.009323 C29.0724427,218.637842 31.8030991,215.905253 35.1721964,215.905253 C38.5412937,215.905253 41.2719501,218.637842 41.2719501,222.009323" id="Fill-171" fill="#EBE0D2" mask="url(#mask-5)"></path>
                </g>
                <g id="Group-3" transform="translate(276.522167, 1.698437)">
                    <mask id="mask-7" fill="white">
                        <use xlink:href="#path-6"></use>
                    </mask>
                    <g id="Clip-2"></g>
                    <path d="M217.715328,105.717864 C217.715328,162.992686 171.219498,209.423995 113.862156,209.423995 C56.5067252,209.423995 10.0108949,162.992686 10.0108949,105.717864 C10.0108949,48.443042 56.5067252,2.01173301 113.862156,2.01173301 C171.219498,2.01173301 217.715328,48.443042 217.715328,105.717864" id="Fill-1" fill="#FFF6EB" mask="url(#mask-7)"></path>
                </g>
                <path d="M443.361588,367.621697 L443.61809,415.857974 L443.361588,429.127743 L457.294051,429.127743 L456.993755,386.551122 C456.993755,386.551122 459.331473,387.986875 464.12369,387.80975 C470.127516,387.582613 471.209831,386.551122 471.209831,386.551122 L471.326612,429.127743 L485.261161,429.127743 L485.004658,372.429071" id="Fill-4" fill="#11656B"></path>
                <path d="M475.467146,324.793559 C482.365603,335.748203 485.003616,372.427612 485.003616,372.427612 C468.48736,382.621662 443.481498,373.81752 443.481498,373.81752 C441.660956,342.22055 450.767836,324.793559 450.767836,324.793559 L475.467146,324.793559 Z" id="Fill-6" fill="#F2F2F2"></path>
                <path d="M491.49855,282.31842 C491.49855,297.842883 478.708878,305.640539 462.932934,305.640539 C447.152819,305.640539 434.64676,297.007271 434.64676,281.484892 L434.365233,275.473069 C434.365233,259.95069 442.77768,247.364414 462.932934,247.364414 C483.563657,247.364414 491.49855,259.95069 491.49855,275.473069 L491.49855,282.31842 Z" id="Fill-8" fill="#83451D"></path>
                <path d="M460.352061,247.364623 C460.352061,247.364623 470.610074,247.124983 472.407677,244.48895 C472.407677,244.48895 473.104195,246.474831 472.407677,247.364623 C472.407677,247.364623 475.285509,247.843901 475.466938,245.926787 C475.466938,245.926787 476.486691,247.712621 475.466938,249.335917" id="Fill-10" fill="#83451D"></path>
                <path d="M487.403061,298.3082 C483.801599,312.678226 476.742568,320.486302 463.289744,320.486302 C449.84109,320.486302 442.05843,314.011871 438.700959,298.3082 L438.700959,286.801343 C438.700959,273.362784 443.739251,261.028651 460.351435,263.066627 L463.049924,262.468571 C476.498578,262.468571 487.403061,273.362784 487.403061,286.801343 L487.403061,298.3082 Z" id="Fill-12" fill="#F6C9A4"></path>
                <polygon id="Fill-14" fill="#F6C9A4" points="457.293217 317.048414 457.293217 324.793975 463.411739 328.315632 469.528176 324.793975 469.528176 317.048414"></polygon>
                <path d="M454.293598,290.147959 C454.293598,290.56889 453.811874,290.910637 453.213368,290.910637 C452.619033,290.910637 452.135223,290.56889 452.135223,290.147959 L452.135223,287.768236 C452.135223,287.347304 452.619033,287.005557 453.213368,287.005557 C453.811874,287.005557 454.293598,287.347304 454.293598,287.768236 L454.293598,290.147959 Z" id="Fill-16" fill="#28252A"></path>
                <path d="M473.487698,290.147959 C473.487698,290.56889 473.005974,290.910637 472.407468,290.910637 C471.811048,290.910637 471.327238,290.56889 471.327238,290.147959 L471.327238,287.768236 C471.327238,287.347304 471.811048,287.005557 472.407468,287.005557 C473.005974,287.005557 473.487698,287.347304 473.487698,287.768236 L473.487698,290.147959 Z" id="Fill-18" fill="#28252A"></path>
                <path d="M460.352061,297.150429 C461.355131,297.019148 461.966149,296.948298 462.42702,296.852443 C462.877463,296.773258 463.073489,296.658647 463.138136,296.656564 C463.204869,296.631558 463.271601,296.837856 463.692849,296.906622 C464.116182,297.033735 464.716773,297.044154 465.751125,297.150429 C466.10564,298.096484 465.986773,298.930012 465.496708,299.642678 C465.044179,300.36368 464.005657,300.861713 463.002586,300.820037 C461.984918,300.786696 461.13408,300.267825 460.675296,299.611421 C460.229023,298.930012 460.02257,298.129825 460.352061,297.150429" id="Fill-20" fill="#DFAD8B"></path>
                <path d="M449.016946,302.624417 C449.016946,302.624417 463.291412,308.377846 477.565878,300.828164 C477.565878,300.828164 476.126962,307.123386 470.250345,310.655462 C466.30688,313.024765 459.262447,313.874964 454.292972,310.055321 C451.17532,307.658928 449.016946,302.624417 449.016946,302.624417" id="Fill-22" fill="#28252A"></path>
                <path d="M439.653146,294.783626 L442.476759,291.476603 C442.476759,291.476603 440.041028,277.62128 443.106545,272.236688 C444.34735,270.063263 446.762227,266.681222 446.762227,266.681222 C446.762227,266.681222 453.335363,272.536758 458.13175,273.497399 C458.13175,273.497399 455.253918,269.900725 455.135051,267.741887 C455.135051,267.741887 464.070929,274.214233 472.408302,274.574734 C472.408302,274.574734 470.368795,273.316107 468.838122,271.248957 C467.094739,268.887988 466.229304,266.572863 466.229304,266.572863 C466.229304,266.572863 475.922177,267.921095 479.006463,270.859282 C483.027087,274.685177 482.966611,280.836615 483.683984,292.556022 L486.186447,295.092031 L489.802506,276.502268 L480.236841,257.006043 L461.038778,250.187783 L449.256348,257.006043 L435.99955,273.136898 L439.653146,294.783626 Z" id="Fill-24" fill="#83451D"></path>
                <path d="M443.738209,294.114094 C443.738209,296.893911 441.481821,299.148605 438.699916,299.148605 C435.918011,299.148605 433.661624,296.893911 433.661624,294.114094 L433.661624,293.634815 C433.661624,290.854999 435.918011,288.600305 438.699916,288.600305 C441.481821,288.600305 443.738209,290.854999 443.738209,293.634815 L443.738209,294.114094 Z" id="Fill-26" fill="#F6C9A4"></path>
                <path d="M492.441353,294.114094 C492.441353,296.893911 490.184966,299.148605 487.403061,299.148605 C484.621156,299.148605 482.364768,296.893911 482.364768,294.114094 L482.364768,293.634815 C482.364768,290.854999 484.621156,288.600305 487.403061,288.600305 C490.184966,288.600305 492.441353,290.854999 492.441353,293.634815 L492.441353,294.114094 Z" id="Fill-28" fill="#F6C9A4"></path>
                <path d="M437.221378,292.555396 C438.068044,294.128681 438.706172,294.124513 438.706172,293.922383 C438.708258,293.845281 438.516402,293.857784 438.349571,294.141184 C438.157716,294.435003 438.001312,294.895527 437.738553,295.793654 C436.975302,296.306273 436.335089,296.354201 435.757437,296.147903 C435.194383,295.937437 434.729342,295.362303 434.604218,294.66839 C434.468668,293.968227 434.718915,293.22847 435.196468,292.817958 C435.69279,292.417864 436.351772,292.221985 437.221378,292.555396" id="Fill-30" fill="#DFAD8B"></path>
                <path d="M489.20546,295.493792 C488.358793,293.918423 487.71858,293.922591 487.720665,294.124722 C487.71858,294.203907 487.910435,294.191404 488.077266,293.908004 C488.269122,293.612102 488.42344,293.153661 488.686199,292.253451 C489.451535,291.740831 490.091749,291.692903 490.669401,291.899201 C491.232455,292.109667 491.697496,292.684802 491.822619,293.378714 C491.958169,294.078878 491.707923,294.820718 491.230369,295.229147 C490.734048,295.631324 490.075066,295.825119 489.20546,295.493792" id="Fill-32" fill="#DFAD8B"></path>
                <path d="M480.381149,326.726719 C484.595714,330.719319 491.427438,344.8247 491.894565,346.902269 L494.753629,324.792933 L506.250361,324.792933 C506.250361,324.792933 505.518391,359.482294 497.958867,364.877305 C495.890164,366.356818 489.794581,368.730289 483.621839,358.713364 C477.447011,348.694355 470.788374,324.792933 470.788374,324.792933 C470.788374,324.792933 477.565878,324.061512 480.381149,326.726719" id="Fill-34" fill="#E5E5E5"></path>
                <g id="Group-38" transform="translate(493.402299, 302.890240)">
                    <mask id="mask-9" fill="white">
                        <use xlink:href="#path-8"></use>
                    </mask>
                    <g id="Clip-37"></g>
                    <path d="M12.848688,21.9033182 C12.848688,21.9033182 14.1854204,14.5182583 11.9060936,14.5182583 L4.94716092,14.5182583 L4.94716092,2.06743064 C4.94716092,2.06743064 2.34251396,-1.0332943 0.947390805,2.06743064 L1.34987028,21.9033182" id="Fill-36" fill="#F6C9A4" mask="url(#mask-9)"></path>
                </g>
                <path d="M450.768253,324.793559 C450.768253,324.793559 446.094903,343.070748 445.135626,349.372222 C443.896906,357.517876 443.458975,382.317424 443.458975,382.317424 L432.642079,382.317424 C432.642079,382.317424 431.43464,364.482004 435.119517,349.147169 C436.625166,342.887372 438.64799,333.478923 443.242095,328.915356 C446.315954,325.860475 450.768253,324.793559 450.768253,324.793559" id="Fill-39" fill="#E5E5E5"></path>
                <path d="M432.641245,382.318258 C432.641245,382.318258 433.894562,391.970514 438.699291,393.404183 L443.497764,393.404183 L443.458141,382.318258" id="Fill-41" fill="#F6C9A4"></path>
                <path d="M457.293217,429.12691 L443.360754,429.12691 C443.360754,429.12691 432.579309,430.996097 432.64187,438.474929 L457.293217,438.474929 L457.293217,429.12691 Z" id="Fill-43" fill="#071E21"></path>
                <mask id="mask-11" fill="white">
                    <use xlink:href="#path-10"></use>
                </mask>
                <g id="Clip-46"></g>
                <polygon id="Fill-45" fill="#071E21" mask="url(#mask-11)" points="432.640411 439.300747 449.256765 439.300747 449.256765 438.10255 432.640411 438.10255"></polygon>
                <polygon id="Fill-47" fill="#071E21" mask="url(#mask-11)" points="452.376502 439.300747 457.293842 439.300747 457.293842 438.10255 452.376502 438.10255"></polygon>
                <path d="M471.326821,429.12691 L485.261369,429.12691 C485.261369,429.12691 496.042814,430.996097 495.980253,438.474929 L471.326821,438.474929 L471.326821,429.12691 Z" id="Fill-48" fill="#071E21" mask="url(#mask-11)"></path>
                <polygon id="Fill-49" fill="#071E21" mask="url(#mask-11)" points="479.367652 439.300747 495.981921 439.300747 495.981921 438.10255 479.367652 438.10255"></polygon>
                <polygon id="Fill-50" fill="#071E21" mask="url(#mask-11)" points="471.326404 439.300747 476.245829 439.300747 476.245829 438.10255 471.326404 438.10255"></polygon>
                <polygon id="Fill-51" fill="#E5E5E5" mask="url(#mask-11)" points="457.293217 324.793559 457.293217 331.701424 463.411739 328.315215"></polygon>
                <polygon id="Fill-52" fill="#E5E5E5" mask="url(#mask-11)" points="469.528593 324.701871 469.528593 331.609736 463.410071 328.223527"></polygon>
                <path d="M466.983796,334.670243 C467.436325,333.949241 466.983796,330.29422 466.983796,330.29422 L463.41153,328.224986 L459.839264,330.29422 C459.839264,330.29422 459.38465,333.949241 459.839264,334.670243 C460.293878,335.389161 461.524256,336.108079 461.524256,336.108079 C461.524256,336.108079 458.613057,356.606621 458.375323,358.763376 L463.41153,362.720551 L468.447737,358.402875 C468.210003,356.24612 465.298805,336.108079 465.298805,336.108079 C465.298805,336.108079 466.529182,335.389161 466.983796,334.670243 Z" id="Fill-53" fill="#B74343" mask="url(#mask-11)"></path>
                <path d="M454.880008,108.176873 C454.880008,143.228818 426.441601,171.643794 391.365411,171.643794 C356.287135,171.643794 327.848727,143.228818 327.848727,108.176873 C327.848727,73.1249278 356.287135,44.7099511 391.365411,44.7099511 C426.441601,44.7099511 454.880008,73.1249278 454.880008,108.176873" id="Fill-54" fill="#272827" mask="url(#mask-11)"></path>
                <path d="M391.365411,47.3126429 C358.15564,47.3126429 331.139466,74.3085378 331.139466,107.491296 C331.139466,140.676138 358.15564,167.672033 391.365411,167.672033 C424.573095,167.672033 451.589269,140.676138 451.589269,107.491296 C451.589269,74.3085378 424.573095,47.3126429 391.365411,47.3126429 M391.365411,173.333773 C382.469154,173.333773 373.841913,171.593783 365.715164,168.159647 C357.869943,164.842204 350.823424,160.095261 344.771634,154.050098 C338.721929,148.002851 333.97142,140.961621 330.653571,133.122288 C327.21477,125.00164 325.473473,116.380874 325.473473,107.491296 C325.473473,98.6038013 327.21477,89.9830358 330.653571,81.8623872 C333.97142,74.0209706 338.721929,66.979741 344.771634,60.9345777 C350.823424,54.8894144 357.869943,50.1424712 365.715164,46.8250289 C373.841913,43.3908927 382.469154,41.6509026 391.365411,41.6509026 C400.259581,41.6509026 408.886823,43.3908927 417.013571,46.8250289 C424.860878,50.1424712 431.905312,54.8894144 437.957102,60.9345777 C444.006806,66.979741 448.757315,74.0209706 452.075164,81.8623872 C455.513966,89.9830358 457.257348,98.6038013 457.257348,107.491296 C457.257348,116.380874 455.513966,125.00164 452.075164,133.122288 C448.757315,140.961621 444.006806,148.002851 437.957102,154.050098 C431.905312,160.095261 424.860878,164.842204 417.013571,168.159647 C408.886823,171.593783 400.259581,173.333773 391.365411,173.333773" id="Fill-64" fill="#D45353" mask="url(#mask-11)"></path>
                <path d="M475.359123,200.423648 C475.359123,203.876539 472.55845,206.67511 469.102966,206.67511 C465.647481,206.67511 462.846808,203.876539 462.846808,200.423648 C462.846808,196.970757 465.647481,194.172186 469.102966,194.172186 C472.55845,194.172186 475.359123,196.970757 475.359123,200.423648" id="Fill-66" fill="#EBE0D2" mask="url(#mask-11)"></path>
                <path d="M489.956824,217.094212 C489.956824,220.547103 487.156151,223.345674 483.700667,223.345674 C480.245182,223.345674 477.444509,220.547103 477.444509,217.094212 C477.444509,213.641322 480.245182,210.842751 483.700667,210.842751 C487.156151,210.842751 489.956824,213.641322 489.956824,217.094212" id="Fill-67" fill="#EBE0D2" mask="url(#mask-11)"></path>
                <g id="SugarCube-Copy-3" filter="url(#filter-12)" mask="url(#mask-11)" fill-rule="nonzero">
                    <g transform="translate(358.522167, 97.498943)" id="Shape">
                        <polygon fill="#FFF6EB" points="0 5.72553864 18.2304838 12.5809508 35.4460486 5.52241532 17.2155647 0.0253904152"></polygon>
                        <polygon fill="#D4C9BB" points="18.2304838 36.930359 18.2304838 12.5809508 35.4460486 5.52241532 34.2281457 27.8405903"></polygon>
                        <polygon fill="#EBE0D2" points="0 5.72553864 18.2304838 12.5809508 18.2304838 36.930359 0.608951443 27.5612958"></polygon>
                    </g>
                </g>
                <g id="SugarCube-Copy-4" filter="url(#filter-13)" mask="url(#mask-11)" fill-rule="nonzero">
                    <g transform="translate(388.522167, 97.498943)" id="Shape">
                        <polygon fill="#FFF6EB" points="0 5.72553864 18.2304838 12.5809508 35.4460486 5.52241532 17.2155647 0.0253904152"></polygon>
                        <polygon fill="#D4C9BB" points="18.2304838 36.930359 18.2304838 12.5809508 35.4460486 5.52241532 34.2281457 27.8405903"></polygon>
                        <polygon fill="#EBE0D2" points="0 5.72553864 18.2304838 12.5809508 18.2304838 36.930359 0.608951443 27.5612958"></polygon>
                    </g>
                </g>
                <g id="SugarCube-Copy-5" filter="url(#filter-14)" mask="url(#mask-11)" fill-rule="nonzero">
                    <g transform="translate(370.522167, 72.498943)" id="Shape">
                        <polygon fill="#FFF6EB" points="0 5.72553864 18.2304838 12.5809508 35.4460486 5.52241532 17.2155647 0.0253904152"></polygon>
                        <polygon fill="#D4C9BB" points="18.2304838 36.930359 18.2304838 12.5809508 35.4460486 5.52241532 34.2281457 27.8405903"></polygon>
                        <polygon fill="#EBE0D2" points="0 5.72553864 18.2304838 12.5809508 18.2304838 36.930359 0.608951443 27.5612958"></polygon>
                    </g>
                </g>
                <polygon id="Fill-65" fill="#D45353" mask="url(#mask-11)" points="433.13423 152.814184 339.982128 72.2724368 345.308204 66.1230824 438.45822 146.666913"></polygon>
            </g>
        </g>
    </g>
</svg>