<?xml version="1.0" encoding="UTF-8"?>
<svg width="148px" height="155px" viewBox="0 0 148 155" version="1.1" xmlns="http://www.w3.org/2000/svg" xmlns:xlink="http://www.w3.org/1999/xlink">
    <!-- Generator: Sketch 42 (36781) - http://www.bohemiancoding.com/sketch -->
    <title>4_fruktosemat</title>
    <desc>Created with Sketch.</desc>
    <defs>
        <filter x="-50%" y="-50%" width="200%" height="200%" filterUnits="objectBoundingBox" id="filter-1">
            <feOffset dx="0" dy="1" in="SourceAlpha" result="shadowOffsetOuter1"></feOffset>
            <feColorMatrix values="0 0 0 0 0   0 0 0 0 0   0 0 0 0 0  0 0 0 0.5 0" type="matrix" in="shadowOffsetOuter1" result="shadowMatrixOuter1"></feColorMatrix>
            <feMerge>
                <feMergeNode in="shadowMatrixOuter1"></feMergeNode>
                <feMergeNode in="SourceGraphic"></feMergeNode>
            </feMerge>
        </filter>
    </defs>
    <g id="Page-1" stroke="none" stroke-width="1" fill="none" fill-rule="evenodd">
        <g id="PINK" transform="translate(-1090.000000, -5242.000000)" fill-rule="nonzero">
            <g id="4_fruktosemat" filter="url(#filter-1)" transform="translate(1090.000000, 5241.000000)">
                <g id="Group" transform="translate(0.000000, 49.955556)">
                    <g>
                        <path d="M23.8584527,58.4083333 L23.3604585,58.4083333 C10.7747851,58.0461111 -1.72034384,44.9608333 0.769627507,29.2494444 C3.39541547,12.5419444 10.9106017,0.4075 23.3604585,0.0905555556 L23.8584527,0.0905555556 C36.6252149,0.0905555556 44.8647564,13.9908333 46.087106,30.0191667 C47.6716332,50.53 36.6252149,58.4083333 23.8584527,58.4083333 Z" id="Shape" fill="#D1B264"></path>
                        <ellipse id="Oval" fill="#BC9C53" cx="15.8" cy="9.64416667" rx="1.08653295" ry="1.17722222"></ellipse>
                        <ellipse id="Oval" fill="#BC9C53" cx="8.87335244" cy="24.8575" rx="1.08653295" ry="1.17722222"></ellipse>
                        <ellipse id="Oval" fill="#BC9C53" cx="21.0968481" cy="22.1408333" rx="1.08653295" ry="1.17722222"></ellipse>
                        <ellipse id="Oval" fill="#BC9C53" cx="32.2790831" cy="13.5380556" rx="1.08653295" ry="1.17722222"></ellipse>
                        <ellipse id="Oval" fill="#BC9C53" cx="38.3002865" cy="27.1666667" rx="1.08653295" ry="1.17722222"></ellipse>
                        <ellipse id="Oval" fill="#BC9C53" cx="18.9690544" cy="41.4744444" rx="1.08653295" ry="1.17722222"></ellipse>
                        <ellipse id="Oval" fill="#BC9C53" cx="29.4722063" cy="37.3541667" rx="1.08653295" ry="1.17722222"></ellipse>
                        <ellipse id="Oval" fill="#BC9C53" cx="27.2991404" cy="52.2052778" rx="1.08653295" ry="1.17722222"></ellipse>
                    </g>
                    <path d="M23.3604585,0.0905555556 L23.3604585,58.4083333 C10.7747851,58.0461111 -1.72034384,44.9608333 0.769627507,29.2494444 C3.39541547,12.5419444 10.9106017,0.4075 23.3604585,0.0905555556 Z" id="Shape" fill="#FFFFFF" opacity="0.5"></path>
                </g>
                <g id="Group" transform="translate(34.406877, 0.602778)">
                    <g>
                        <ellipse id="Oval" fill="#FDB422" cx="25.1260745" cy="53.8805556" rx="16.2074499" ry="53.0202778"></ellipse>
                        <path d="M19.3312321,19.7863889 C19.3312321,21.0541667 18.2899713,22.0955556 17.0223496,22.0955556 L13.3553009,22.0955556 C12.0876791,22.0955556 11.0464183,21.0541667 11.0464183,19.7863889 L11.0464183,19.7863889 C11.0464183,18.5186111 12.0876791,17.4772222 13.3553009,17.4772222 L17.0223496,17.4772222 C18.2899713,17.4772222 19.3312321,18.5186111 19.3312321,19.7863889 L19.3312321,19.7863889 Z" id="Shape" fill="#FDDB22"></path>
                        <path d="M27.9329513,19.7863889 C27.9329513,21.0541667 26.8916905,22.0955556 25.6240688,22.0955556 L21.9570201,22.0955556 C20.6893983,22.0955556 19.6481375,21.0541667 19.6481375,19.7863889 L19.6481375,19.7863889 C19.6481375,18.5186111 20.6893983,17.4772222 21.9570201,17.4772222 L25.6240688,17.4772222 C26.8916905,17.4772222 27.9329513,18.5186111 27.9329513,19.7863889 L27.9329513,19.7863889 Z" id="Shape" fill="#FDDB22"></path>
                        <path d="M36.5346705,19.7863889 C36.5346705,21.0541667 35.4934097,22.0955556 34.225788,22.0955556 L30.5587393,22.0955556 C29.2911175,22.0955556 28.2498567,21.0541667 28.2498567,19.7863889 L28.2498567,19.7863889 C28.2498567,18.5186111 29.2911175,17.4772222 30.5587393,17.4772222 L34.225788,17.4772222 C35.4934097,17.4772222 36.5346705,18.5186111 36.5346705,19.7863889 L36.5346705,19.7863889 Z" id="Shape" fill="#FDDB22"></path>
                        <path d="M19.7386819,15.2133333 C19.7386819,16.3 18.87851,17.1602778 17.7919771,17.1602778 L14.713467,17.1602778 C13.6269341,17.1602778 12.7667622,16.3 12.7667622,15.2133333 L12.7667622,15.2133333 C12.7667622,14.1266667 13.6269341,13.2663889 14.713467,13.2663889 L17.7919771,13.2663889 C18.8332378,13.2663889 19.7386819,14.1266667 19.7386819,15.2133333 L19.7386819,15.2133333 Z" id="Shape" fill="#FDDB22"></path>
                        <path d="M27.2538682,15.2133333 C27.2538682,16.3 26.3936963,17.1602778 25.3071633,17.1602778 L22.2286533,17.1602778 C21.1421203,17.1602778 20.2819484,16.3 20.2819484,15.2133333 L20.2819484,15.2133333 C20.2819484,14.1266667 21.1421203,13.2663889 22.2286533,13.2663889 L25.3071633,13.2663889 C26.3936963,13.2663889 27.2538682,14.1266667 27.2538682,15.2133333 L27.2538682,15.2133333 Z" id="Shape" fill="#FDDB22"></path>
                        <path d="M34.7237822,15.2133333 C34.7237822,16.3 33.8636103,17.1602778 32.7770774,17.1602778 L29.6985673,17.1602778 C28.6120344,17.1602778 27.7518625,16.3 27.7518625,15.2133333 L27.7518625,15.2133333 C27.7518625,14.1266667 28.6120344,13.2663889 29.6985673,13.2663889 L32.7770774,13.2663889 C33.8636103,13.2663889 34.7237822,14.1266667 34.7237822,15.2133333 L34.7237822,15.2133333 Z" id="Shape" fill="#FDDB22"></path>
                        <path d="M20.5988539,11.41 C20.5988539,12.3155556 19.8292264,13.0852778 18.9237822,13.0852778 L16.2527221,13.0852778 C15.3472779,13.0852778 14.5776504,12.3155556 14.5776504,11.41 L14.5776504,11.41 C14.5776504,10.5044444 15.3472779,9.73472222 16.2527221,9.73472222 L18.9237822,9.73472222 C19.8292264,9.73472222 20.5988539,10.5044444 20.5988539,11.41 L20.5988539,11.41 Z" id="Shape" fill="#FDDB22"></path>
                        <path d="M26.982235,11.41 C26.982235,12.3155556 26.2126074,13.0852778 25.3071633,13.0852778 L22.6361032,13.0852778 C21.730659,13.0852778 20.9610315,12.3155556 20.9610315,11.41 L20.9610315,11.41 C20.9610315,10.5044444 21.730659,9.73472222 22.6361032,9.73472222 L25.3071633,9.73472222 C26.2126074,9.73472222 26.982235,10.5044444 26.982235,11.41 L26.982235,11.41 Z" id="Shape" fill="#FDDB22"></path>
                        <path d="M33.4561605,11.41 C33.4561605,12.3155556 32.686533,13.0852778 31.7810888,13.0852778 L29.1100287,13.0852778 C28.2045845,13.0852778 27.434957,12.3155556 27.434957,11.41 L27.434957,11.41 C27.434957,10.5044444 28.2045845,9.73472222 29.1100287,9.73472222 L31.7810888,9.73472222 C32.686533,9.73472222 33.4561605,10.5044444 33.4561605,11.41 L33.4561605,11.41 Z" id="Shape" fill="#FDDB22"></path>
                        <path d="M21.3684814,8.01416667 C21.3684814,8.82916667 20.6893983,9.50833333 19.8744986,9.50833333 L17.4750716,9.50833333 C16.6601719,9.50833333 15.9810888,8.82916667 15.9810888,8.01416667 L15.9810888,8.01416667 C15.9810888,7.19916667 16.6601719,6.52 17.4750716,6.52 L19.8744986,6.52 C20.7346705,6.52 21.3684814,7.19916667 21.3684814,8.01416667 L21.3684814,8.01416667 Z" id="Shape" fill="#FDDB22"></path>
                        <path d="M27.3444126,8.01416667 C27.3444126,8.82916667 26.6653295,9.50833333 25.8504298,9.50833333 L23.4510029,9.50833333 C22.6361032,9.50833333 21.9570201,8.82916667 21.9570201,8.01416667 L21.9570201,8.01416667 C21.9570201,7.19916667 22.6361032,6.52 23.4510029,6.52 L25.8504298,6.52 C26.7106017,6.52 27.3444126,7.19916667 27.3444126,8.01416667 L27.3444126,8.01416667 Z" id="Shape" fill="#FDDB22"></path>
                        <path d="M33.2750716,8.01416667 C33.2750716,8.82916667 32.5959885,9.50833333 31.7810888,9.50833333 L29.4269341,9.50833333 C28.6120344,9.50833333 27.9329513,8.82916667 27.9329513,8.01416667 L27.9329513,8.01416667 C27.9329513,7.19916667 28.6120344,6.52 29.4269341,6.52 L31.826361,6.52 C32.6412607,6.52 33.2750716,7.19916667 33.2750716,8.01416667 L33.2750716,8.01416667 Z" id="Shape" fill="#FDDB22"></path>
                        <path d="M22.9530086,4.84472222 C22.9530086,5.61444444 22.3191977,6.24833333 21.5495702,6.24833333 L19.3312321,6.24833333 C18.5616046,6.24833333 17.9277937,5.61444444 17.9277937,4.84472222 L17.9277937,4.84472222 C17.9277937,4.075 18.5616046,3.44111111 19.3312321,3.44111111 L21.5495702,3.44111111 C22.3191977,3.44111111 22.9530086,4.075 22.9530086,4.84472222 L22.9530086,4.84472222 Z" id="Shape" fill="#FDDB22"></path>
                        <path d="M28.3404011,4.84472222 C28.3404011,5.61444444 27.7065903,6.24833333 26.9369628,6.24833333 L24.7186246,6.24833333 C23.9489971,6.24833333 23.3151862,5.61444444 23.3151862,4.84472222 L23.3151862,4.84472222 C23.3151862,4.075 23.9489971,3.44111111 24.7186246,3.44111111 L26.9369628,3.44111111 C27.7065903,3.44111111 28.3404011,4.075 28.3404011,4.84472222 L28.3404011,4.84472222 Z" id="Shape" fill="#FDDB22"></path>
                        <path d="M33.6372493,4.84472222 C33.6372493,5.61444444 33.0034384,6.24833333 32.2338109,6.24833333 L30.0154728,6.24833333 C29.2458453,6.24833333 28.6120344,5.61444444 28.6120344,4.84472222 L28.6120344,4.84472222 C28.6120344,4.075 29.2458453,3.44111111 30.0154728,3.44111111 L32.2338109,3.44111111 C33.0034384,3.44111111 33.6372493,4.075 33.6372493,4.84472222 L33.6372493,4.84472222 Z" id="Shape" fill="#FDDB22"></path>
                        <path d="M24.7638968,1.81111111 C24.7638968,2.58083333 24.130086,3.21472222 23.3604585,3.21472222 L21.1421203,3.21472222 C20.3724928,3.21472222 19.7386819,2.58083333 19.7386819,1.81111111 L19.7386819,1.81111111 C19.7386819,1.04138889 20.3724928,0.4075 21.1421203,0.4075 L23.3604585,0.4075 C24.130086,0.362222222 24.7638968,0.996111111 24.7638968,1.81111111 L24.7638968,1.81111111 Z" id="Shape" fill="#FDDB22"></path>
                        <path d="M30.3323782,1.81111111 C30.3323782,2.58083333 29.6985673,3.21472222 28.9289398,3.21472222 L26.7106017,3.21472222 C25.9409742,3.21472222 25.3071633,2.58083333 25.3071633,1.81111111 L25.3071633,1.81111111 C25.3071633,1.04138889 25.9409742,0.4075 26.7106017,0.4075 L28.9289398,0.4075 C29.6985673,0.362222222 30.3323782,0.996111111 30.3323782,1.81111111 L30.3323782,1.81111111 Z" id="Shape" fill="#FDDB22"></path>
                        <path d="M18.2446991,24.8122222 C18.2446991,26.08 17.2034384,27.1213889 15.9358166,27.1213889 L12.2687679,27.1213889 C11.0011461,27.1213889 9.95988539,26.08 9.95988539,24.8122222 L9.95988539,24.8122222 C9.95988539,23.5444444 11.0011461,22.5030556 12.2687679,22.5030556 L15.9358166,22.5030556 C17.2034384,22.5483333 18.2446991,23.5444444 18.2446991,24.8122222 L18.2446991,24.8122222 Z" id="Shape" fill="#FDDB22"></path>
                        <path d="M26.9369628,24.8122222 C26.9369628,26.08 25.895702,27.1213889 24.6280802,27.1213889 L20.9610315,27.1213889 C19.6934097,27.1213889 18.652149,26.08 18.652149,24.8122222 L18.652149,24.8122222 C18.652149,23.5444444 19.6934097,22.5030556 20.9610315,22.5030556 L24.6280802,22.5030556 C25.9409742,22.5483333 26.9369628,23.5444444 26.9369628,24.8122222 L26.9369628,24.8122222 Z" id="Shape" fill="#FDDB22"></path>
                        <path d="M35.6744986,24.8122222 C35.6744986,26.08 34.6332378,27.1213889 33.365616,27.1213889 L29.6985673,27.1213889 C28.4309456,27.1213889 27.3896848,26.08 27.3896848,24.8122222 L27.3896848,24.8122222 C27.3896848,23.5444444 28.4309456,22.5030556 29.6985673,22.5030556 L33.365616,22.5030556 C34.6332378,22.5483333 35.6744986,23.5444444 35.6744986,24.8122222 L35.6744986,24.8122222 Z" id="Shape" fill="#FDDB22"></path>
                        <path d="M17.1581662,29.9286111 C17.1581662,31.1963889 16.1169054,32.2377778 14.8492837,32.2377778 L11.182235,32.2377778 C9.91461318,32.2377778 8.87335244,31.1963889 8.87335244,29.9286111 L8.87335244,29.9286111 C8.87335244,28.6608333 9.91461318,27.6194444 11.182235,27.6194444 L14.8492837,27.6194444 C16.1169054,27.6194444 17.1581662,28.6608333 17.1581662,29.9286111 L17.1581662,29.9286111 Z" id="Shape" fill="#FDDB22"></path>
                        <path d="M25.8051576,29.9286111 C25.8051576,31.1963889 24.7638968,32.2377778 23.4962751,32.2377778 L19.8292264,32.2377778 C18.5616046,32.2377778 17.5203438,31.1963889 17.5203438,29.9286111 L17.5203438,29.9286111 C17.5203438,28.6608333 18.5616046,27.6194444 19.8292264,27.6194444 L23.4962751,27.6194444 C24.8091691,27.6194444 25.8051576,28.6608333 25.8051576,29.9286111 L25.8051576,29.9286111 Z" id="Shape" fill="#FDDB22"></path>
                        <path d="M34.4974212,29.9286111 C34.4974212,31.1963889 33.4561605,32.2377778 32.1885387,32.2377778 L28.52149,32.2377778 C27.2538682,32.2377778 26.2126074,31.1963889 26.2126074,29.9286111 L26.2126074,29.9286111 C26.2126074,28.6608333 27.2538682,27.6194444 28.52149,27.6194444 L32.1885387,27.6194444 C33.4561605,27.6194444 34.4974212,28.6608333 34.4974212,29.9286111 L34.4974212,29.9286111 Z" id="Shape" fill="#FDDB22"></path>
                        <path d="M16.4790831,34.9997222 C16.4790831,36.2675 15.4378223,37.3088889 14.1702006,37.3088889 L10.5031519,37.3088889 C9.23553009,37.3088889 8.19426934,36.2675 8.19426934,34.9997222 L8.19426934,34.9997222 C8.19426934,33.7319444 9.23553009,32.6905556 10.5031519,32.6905556 L14.1702006,32.6905556 C15.4378223,32.6905556 16.4790831,33.7319444 16.4790831,34.9997222 L16.4790831,34.9997222 Z" id="Shape" fill="#FDDB22"></path>
                        <path d="M25.1260745,34.9997222 C25.1260745,36.2675 24.0848138,37.3088889 22.817192,37.3088889 L19.1501433,37.3088889 C17.8825215,37.3088889 16.8412607,36.2675 16.8412607,34.9997222 L16.8412607,34.9997222 C16.8412607,33.7319444 17.8825215,32.6905556 19.1501433,32.6905556 L22.817192,32.6905556 C24.130086,32.6905556 25.1260745,33.7319444 25.1260745,34.9997222 L25.1260745,34.9997222 Z" id="Shape" fill="#FDDB22"></path>
                        <path d="M33.8183381,34.9997222 C33.8183381,36.2675 32.7770774,37.3088889 31.5094556,37.3088889 L27.8424069,37.3088889 C26.5747851,37.3088889 25.5335244,36.2675 25.5335244,34.9997222 L25.5335244,34.9997222 C25.5335244,33.7319444 26.5747851,32.6905556 27.8424069,32.6905556 L31.5094556,32.6905556 C32.7770774,32.6905556 33.8183381,33.7319444 33.8183381,34.9997222 L33.8183381,34.9997222 Z" id="Shape" fill="#FDDB22"></path>
                        <path d="M15.573639,40.0708333 C15.573639,41.3386111 14.5323782,42.38 13.2647564,42.38 L9.59770774,42.38 C8.33008596,42.38 7.28882521,41.3386111 7.28882521,40.0708333 L7.28882521,40.0708333 C7.28882521,38.8030556 8.33008596,37.7616667 9.59770774,37.7616667 L13.2647564,37.7616667 C14.5323782,37.7616667 15.573639,38.8030556 15.573639,40.0708333 L15.573639,40.0708333 Z" id="Shape" fill="#FDDB22"></path>
                        <path d="M24.356447,40.0708333 C24.356447,41.3386111 23.3151862,42.38 22.0475645,42.38 L18.3805158,42.38 C17.112894,42.38 16.0716332,41.3386111 16.0716332,40.0708333 L16.0716332,40.0708333 C16.0716332,38.8030556 17.112894,37.7616667 18.3805158,37.7616667 L22.0475645,37.7616667 C23.3151862,37.7616667 24.356447,38.8030556 24.356447,40.0708333 L24.356447,40.0708333 Z" id="Shape" fill="#FDDB22"></path>
                        <path d="M33.139255,40.0708333 C33.139255,41.3386111 32.0979943,42.38 30.8303725,42.38 L27.1633238,42.38 C25.895702,42.38 24.8544413,41.3386111 24.8544413,40.0708333 L24.8544413,40.0708333 C24.8544413,38.8030556 25.895702,37.7616667 27.1633238,37.7616667 L30.8303725,37.7616667 C32.0979943,37.7616667 33.139255,38.8030556 33.139255,40.0708333 L33.139255,40.0708333 Z" id="Shape" fill="#FDDB22"></path>
                        <path d="M15.2114613,45.0966667 C15.2114613,46.3644444 14.1702006,47.4058333 12.9025788,47.4058333 L9.23553009,47.4058333 C7.96790831,47.4058333 6.92664756,46.3644444 6.92664756,45.0966667 L6.92664756,45.0966667 C6.92664756,43.8288889 7.96790831,42.7875 9.23553009,42.7875 L12.9025788,42.7875 C14.2154728,42.7875 15.2114613,43.8288889 15.2114613,45.0966667 L15.2114613,45.0966667 Z" id="Shape" fill="#FDDB22"></path>
                        <path d="M23.8131805,45.0966667 C23.8131805,46.3644444 22.7719198,47.4058333 21.504298,47.4058333 L17.8372493,47.4058333 C16.5696275,47.4058333 15.5283668,46.3644444 15.5283668,45.0966667 L15.5283668,45.0966667 C15.5283668,43.8288889 16.5696275,42.7875 17.8372493,42.7875 L21.504298,42.7875 C22.7719198,42.7875 23.8131805,43.8288889 23.8131805,45.0966667 L23.8131805,45.0966667 Z" id="Shape" fill="#FDDB22"></path>
                        <path d="M32.3696275,45.0966667 C32.3696275,46.3644444 31.3283668,47.4058333 30.060745,47.4058333 L26.3936963,47.4058333 C25.1260745,47.4058333 24.0848138,46.3644444 24.0848138,45.0966667 L24.0848138,45.0966667 C24.0848138,43.8288889 25.1260745,42.7875 26.3936963,42.7875 L30.060745,42.7875 C31.3283668,42.7875 32.3696275,43.8288889 32.3696275,45.0966667 L32.3696275,45.0966667 Z" id="Shape" fill="#FDDB22"></path>
                        <path d="M14.9851003,50.1677778 C14.9851003,51.4355556 13.9438395,52.4769444 12.6762178,52.4769444 L9.00916905,52.4769444 C7.74154728,52.4769444 6.70028653,51.4355556 6.70028653,50.1677778 L6.70028653,50.1677778 C6.70028653,48.9 7.74154728,47.8586111 9.00916905,47.8586111 L12.6762178,47.8586111 C13.9438395,47.8586111 14.9851003,48.9 14.9851003,50.1677778 L14.9851003,50.1677778 Z" id="Shape" fill="#FDDB22"></path>
                        <path d="M23.4962751,50.1677778 C23.4962751,51.4355556 22.4550143,52.4769444 21.1873926,52.4769444 L17.5203438,52.4769444 C16.2527221,52.4769444 15.2114613,51.4355556 15.2114613,50.1677778 L15.2114613,50.1677778 C15.2114613,48.9 16.2527221,47.8586111 17.5203438,47.8586111 L21.1873926,47.8586111 C22.4550143,47.8586111 23.4962751,48.9 23.4962751,50.1677778 L23.4962751,50.1677778 Z" id="Shape" fill="#FDDB22"></path>
                        <path d="M32.2338109,50.1677778 C32.2338109,51.4355556 31.1925501,52.4769444 29.9249284,52.4769444 L26.2578797,52.4769444 C24.9902579,52.4769444 23.9489971,51.4355556 23.9489971,50.1677778 L23.9489971,50.1677778 C23.9489971,48.9 24.9902579,47.8586111 26.2578797,47.8586111 L29.9249284,47.8586111 C31.1925501,47.8586111 32.2338109,48.9 32.2338109,50.1677778 L32.2338109,50.1677778 Z" id="Shape" fill="#FDDB22"></path>
                        <path d="M14.7587393,55.1936111 C14.7587393,56.4613889 13.7174785,57.5027778 12.4498567,57.5027778 L8.78280802,57.5027778 C7.51518625,57.5027778 6.4739255,56.4613889 6.4739255,55.1936111 L6.4739255,55.1936111 C6.4739255,53.9258333 7.51518625,52.8844444 8.78280802,52.8844444 L12.4498567,52.8844444 C13.7174785,52.9297222 14.7587393,53.9258333 14.7587393,55.1936111 L14.7587393,55.1936111 Z" id="Shape" fill="#FDDB22"></path>
                        <path d="M23.4962751,55.1936111 C23.4962751,56.4613889 22.4550143,57.5027778 21.1873926,57.5027778 L17.5203438,57.5027778 C16.2527221,57.5027778 15.2114613,56.4613889 15.2114613,55.1936111 L15.2114613,55.1936111 C15.2114613,53.9258333 16.2527221,52.8844444 17.5203438,52.8844444 L21.1873926,52.8844444 C22.4550143,52.9297222 23.4962751,53.9258333 23.4962751,55.1936111 L23.4962751,55.1936111 Z" id="Shape" fill="#FDDB22"></path>
                        <path d="M32.2338109,55.1936111 C32.2338109,56.4613889 31.1925501,57.5027778 29.9249284,57.5027778 L26.2578797,57.5027778 C24.9902579,57.5027778 23.9489971,56.4613889 23.9489971,55.1936111 L23.9489971,55.1936111 C23.9489971,53.9258333 24.9902579,52.8844444 26.2578797,52.8844444 L29.9249284,52.8844444 C31.1925501,52.9297222 32.2338109,53.9258333 32.2338109,55.1936111 L32.2338109,55.1936111 Z" id="Shape" fill="#FDDB22"></path>
                        <path d="M14.7587393,60.2647222 C14.7587393,61.5325 13.7174785,62.5738889 12.4498567,62.5738889 L8.78280802,62.5738889 C7.51518625,62.5738889 6.4739255,61.5325 6.4739255,60.2647222 L6.4739255,60.2647222 C6.4739255,58.9969444 7.51518625,57.9555556 8.78280802,57.9555556 L12.4498567,57.9555556 C13.7174785,57.9555556 14.7587393,58.9969444 14.7587393,60.2647222 L14.7587393,60.2647222 Z" id="Shape" fill="#FDDB22"></path>
                        <path d="M23.4962751,60.2647222 C23.4962751,61.5325 22.4550143,62.5738889 21.1873926,62.5738889 L17.5203438,62.5738889 C16.2527221,62.5738889 15.2114613,61.5325 15.2114613,60.2647222 L15.2114613,60.2647222 C15.2114613,58.9969444 16.2527221,57.9555556 17.5203438,57.9555556 L21.1873926,57.9555556 C22.4550143,57.9555556 23.4962751,58.9969444 23.4962751,60.2647222 L23.4962751,60.2647222 Z" id="Shape" fill="#FDDB22"></path>
                        <path d="M32.2338109,60.2647222 C32.2338109,61.5325 31.1925501,62.5738889 29.9249284,62.5738889 L26.2578797,62.5738889 C24.9902579,62.5738889 23.9489971,61.5325 23.9489971,60.2647222 L23.9489971,60.2647222 C23.9489971,58.9969444 24.9902579,57.9555556 26.2578797,57.9555556 L29.9249284,57.9555556 C31.1925501,57.9555556 32.2338109,58.9969444 32.2338109,60.2647222 L32.2338109,60.2647222 Z" id="Shape" fill="#FDDB22"></path>
                        <path d="M14.7587393,65.3358333 C14.7587393,66.6036111 13.7174785,67.645 12.4498567,67.645 L8.78280802,67.645 C7.51518625,67.645 6.4739255,66.6036111 6.4739255,65.3358333 L6.4739255,65.3358333 C6.4739255,64.0680556 7.51518625,63.0266667 8.78280802,63.0266667 L12.4498567,63.0266667 C13.7174785,63.0266667 14.7587393,64.0680556 14.7587393,65.3358333 L14.7587393,65.3358333 Z" id="Shape" fill="#FDDB22"></path>
                        <path d="M23.4962751,65.3358333 C23.4962751,66.6036111 22.4550143,67.645 21.1873926,67.645 L17.5203438,67.645 C16.2527221,67.645 15.2114613,66.6036111 15.2114613,65.3358333 L15.2114613,65.3358333 C15.2114613,64.0680556 16.2527221,63.0266667 17.5203438,63.0266667 L21.1873926,63.0266667 C22.4550143,63.0266667 23.4962751,64.0680556 23.4962751,65.3358333 L23.4962751,65.3358333 Z" id="Shape" fill="#FDDB22"></path>
                        <path d="M32.2338109,65.3358333 C32.2338109,66.6036111 31.1925501,67.645 29.9249284,67.645 L26.2578797,67.645 C24.9902579,67.645 23.9489971,66.6036111 23.9489971,65.3358333 L23.9489971,65.3358333 C23.9489971,64.0680556 24.9902579,63.0266667 26.2578797,63.0266667 L29.9249284,63.0266667 C31.1925501,63.0266667 32.2338109,64.0680556 32.2338109,65.3358333 L32.2338109,65.3358333 Z" id="Shape" fill="#FDDB22"></path>
                        <path d="M14.7587393,70.4069444 C14.7587393,71.6747222 13.7174785,72.7161111 12.4498567,72.7161111 L8.78280802,72.7161111 C7.51518625,72.7161111 6.4739255,71.6747222 6.4739255,70.4069444 L6.4739255,70.4069444 C6.4739255,69.1391667 7.51518625,68.0977778 8.78280802,68.0977778 L12.4498567,68.0977778 C13.7174785,68.0977778 14.7587393,69.1391667 14.7587393,70.4069444 L14.7587393,70.4069444 Z" id="Shape" fill="#FDDB22"></path>
                        <path d="M23.4962751,70.4069444 C23.4962751,71.6747222 22.4550143,72.7161111 21.1873926,72.7161111 L17.5203438,72.7161111 C16.2527221,72.7161111 15.2114613,71.6747222 15.2114613,70.4069444 L15.2114613,70.4069444 C15.2114613,69.1391667 16.2527221,68.0977778 17.5203438,68.0977778 L21.1873926,68.0977778 C22.4550143,68.0977778 23.4962751,69.1391667 23.4962751,70.4069444 L23.4962751,70.4069444 Z" id="Shape" fill="#FDDB22"></path>
                        <path d="M32.2338109,70.4069444 C32.2338109,71.6747222 31.1925501,72.7161111 29.9249284,72.7161111 L26.2578797,72.7161111 C24.9902579,72.7161111 23.9489971,71.6747222 23.9489971,70.4069444 L23.9489971,70.4069444 C23.9489971,69.1391667 24.9902579,68.0977778 26.2578797,68.0977778 L29.9249284,68.0977778 C31.1925501,68.0977778 32.2338109,69.1391667 32.2338109,70.4069444 L32.2338109,70.4069444 Z" id="Shape" fill="#FDDB22"></path>
                        <path d="M14.7587393,75.4780556 C14.7587393,76.7458333 13.7174785,77.7872222 12.4498567,77.7872222 L8.78280802,77.7872222 C7.51518625,77.7872222 6.4739255,76.7458333 6.4739255,75.4780556 L6.4739255,75.4780556 C6.4739255,74.2102778 7.51518625,73.1688889 8.78280802,73.1688889 L12.4498567,73.1688889 C13.7174785,73.1688889 14.7587393,74.2102778 14.7587393,75.4780556 L14.7587393,75.4780556 Z" id="Shape" fill="#FDDB22"></path>
                        <path d="M23.4962751,75.4780556 C23.4962751,76.7458333 22.4550143,77.7872222 21.1873926,77.7872222 L17.5203438,77.7872222 C16.2527221,77.7872222 15.2114613,76.7458333 15.2114613,75.4780556 L15.2114613,75.4780556 C15.2114613,74.2102778 16.2527221,73.1688889 17.5203438,73.1688889 L21.1873926,73.1688889 C22.4550143,73.1688889 23.4962751,74.2102778 23.4962751,75.4780556 L23.4962751,75.4780556 Z" id="Shape" fill="#FDDB22"></path>
                        <path d="M23.8131805,80.9113889 C23.8131805,82.1791667 22.7719198,83.2205556 21.504298,83.2205556 L17.8372493,83.2205556 C16.5696275,83.2205556 15.5283668,82.1791667 15.5283668,80.9113889 L15.5283668,80.9113889 C15.5283668,79.6436111 16.5696275,78.6022222 17.8372493,78.6022222 L21.504298,78.6022222 C22.7719198,78.6022222 23.8131805,79.6436111 23.8131805,80.9113889 L23.8131805,80.9113889 Z" id="Shape" fill="#FDDB22"></path>
                        <path d="M25.5787966,86.2541667 C25.5787966,87.5219444 24.5375358,88.5633333 23.269914,88.5633333 L19.6028653,88.5633333 C18.3352436,88.5633333 17.2939828,87.5219444 17.2939828,86.2541667 L17.2939828,86.2541667 C17.2939828,84.9863889 18.3352436,83.945 19.6028653,83.945 L23.269914,83.945 C24.5375358,83.945 25.5787966,84.9863889 25.5787966,86.2541667 L25.5787966,86.2541667 Z" id="Shape" fill="#FDDB22"></path>
                        <path d="M27.0727794,91.5969444 C27.0727794,92.8647222 26.0315186,93.9061111 24.7638968,93.9061111 L21.0968481,93.9061111 C19.8292264,93.9061111 18.7879656,92.8647222 18.7879656,91.5969444 L18.7879656,91.5969444 C18.7879656,90.3291667 19.8292264,89.2877778 21.0968481,89.2877778 L24.7638968,89.2877778 C26.0315186,89.2877778 27.0727794,90.3291667 27.0727794,91.5969444 L27.0727794,91.5969444 Z" id="Shape" fill="#FDDB22"></path>
                        <path d="M32.2338109,75.4780556 C32.2338109,76.7458333 31.1925501,77.7872222 29.9249284,77.7872222 L26.2578797,77.7872222 C24.9902579,77.7872222 23.9489971,76.7458333 23.9489971,75.4780556 L23.9489971,75.4780556 C23.9489971,74.2102778 24.9902579,73.1688889 26.2578797,73.1688889 L29.9249284,73.1688889 C31.1925501,73.1688889 32.2338109,74.2102778 32.2338109,75.4780556 L32.2338109,75.4780556 Z" id="Shape" fill="#FDDB22"></path>
                        <path d="M32.912894,80.0511111 C32.912894,81.3188889 31.8716332,82.3602778 30.6040115,82.3602778 L26.9369628,82.3602778 C25.669341,82.3602778 24.6280802,81.3188889 24.6280802,80.0511111 L24.6280802,80.0511111 C24.6280802,78.7833333 25.669341,77.7419444 26.9369628,77.7419444 L30.6040115,77.7419444 C31.8716332,77.7872222 32.912894,78.7833333 32.912894,80.0511111 L32.912894,80.0511111 Z" id="Shape" fill="#FDDB22"></path>
                        <path d="M24.6733524,110.115556 C24.6733524,110.115556 23.7226361,20.1033333 34.7237822,0.4075 C34.7237822,0.362222222 58.7180516,87.9747222 24.6733524,110.115556 Z" id="Shape" fill="#69BC1B"></path>
                        <path d="M24.6733524,110.115556 C24.6733524,110.115556 -1.62979943,92.8647222 0.543266476,60.2647222 C0.543266476,60.2647222 27.3896848,78.1494444 24.6733524,110.115556 Z" id="Shape" fill="#69BC1B"></path>
                    </g>
                    <path d="M24.6733524,110.115556 C24.6733524,110.115556 21.0063037,84.0355556 0.543266476,60.2647222 C0.543266476,60.2647222 15.2567335,79.4625 24.6733524,110.115556 Z" id="Shape" fill="#A1CC29" opacity="0.2"></path>
                    <path d="M0.543266476,60.2647222 C0.543266476,60.2647222 6.56446991,87.9747222 24.6733524,110.115556 C24.6733524,110.115556 4.61776504,78.8738889 0.543266476,60.2647222 Z" id="Shape" fill="#A1CC29" opacity="0.2"></path>
                    <path d="M34.7237822,0.362222222 C34.7237822,0.362222222 46.5851003,91.0988889 25.1260745,109.798611 C25.1260745,109.798611 42.782235,101.06 34.7237822,0.362222222 Z" id="Shape" fill="#A1CC29" opacity="0.2"></path>
                    <path d="M34.7237822,0.362222222 C34.7237822,0.362222222 32.0074499,104.546389 24.6733524,110.070278 C24.6733524,110.115556 31.3283668,84.3525 34.7237822,0.362222222 Z" id="Shape" fill="#A1CC29" opacity="0.2"></path>
                </g>
                <g id="Group" transform="translate(23.994269, 72.594444)">
                    <g transform="translate(15.392550, 0.000000)" id="Shape">
                        <path d="M14.3060172,2.94305556 C10.6842407,5.07111111 9.00916905,9.05555556 10.095702,12.4061111 C11.9065903,9.59888889 14.5776504,7.01805556 18.0183381,5.07111111 C21.8664756,2.8525 25.895702,1.85638889 29.5174785,1.90166667 C26.1673352,2.0375 22.5002865,3.03361111 19.0143266,5.02583333 C16.1621777,6.65583333 13.8080229,8.73861111 12.0424069,11.0025 L12.0424069,11.0025 C11.1369628,11.8627778 10.2315186,13.4022222 9.68825215,14.4888889 C9.91461318,14.7605556 10.1862464,15.0775 10.4578797,15.4397222 C10.4126074,15.3944444 10.3673352,15.3038889 10.322063,15.2586111 C10.5484241,14.8511111 10.7295129,14.4888889 10.9558739,14.1266667 C13.174212,17.3413889 17.8825215,18.2016667 21.7759312,15.9377778 C27.208596,12.7230556 27.8876791,2.62611111 33.6825215,2.30916667 C33.6825215,2.30916667 24.5375358,-3.03361111 14.3060172,2.94305556 Z" fill="#609340"></path>
                        <path d="M9.73352436,14.5341667 C7.10773639,11.7269444 4.43667622,11.0025 4.16504298,10.8666667 C2.80687679,10.2780556 1.17707736,10.9119444 0.588538682,12.2702778 C-4.22439861e-14,13.6286111 0.633810888,15.2586111 1.99197708,15.8472222 C2.08252149,15.8925 7.56045845,17.0697222 9.14498567,25.5819444 C10.0504298,25.5366667 10.8200573,25.5819444 11.3180516,25.7630556 C11.3180516,25.7630556 12.5404011,24.9480556 14.3512894,23.9066667 C13.4911175,20.0580556 12.0424069,17.3866667 10.5031519,15.4397222 C10.2315186,15.1227778 9.95988539,14.8058333 9.73352436,14.5341667 L9.73352436,14.5341667 Z" fill="#522D1B"></path>
                    </g>
                    <g transform="translate(0.000000, 18.111111)" id="Shape">
                        <path d="M26.7106017,7.69722222 C26.2126074,7.51611111 25.4429799,7.51611111 24.5375358,7.51611111 L24.5375358,7.51611111 C23.4510029,7.56138889 22.0928367,7.69722222 20.5988539,7.87833333 C19.5575931,8.01416667 18.5616046,8.19527778 17.7919771,8.33111111 C10.6842407,9.68944444 1.90143266,13.1305556 0.407449857,22.005 C-2.1277937,37.3541667 7.8773639,54.3333333 21.5495702,58.9063889 C33.7730659,62.9813889 40.6091691,58.0913889 41.922063,57.0047222 L26.982235,7.56138889 C26.8011461,7.60666667 26.7106017,7.69722222 26.7106017,7.69722222 Z" fill="#D0442E"></path>
                        <path d="M57.6767908,4.66361111 C54.5077364,1.26777778 50.5237822,0.135833333 46.4945559,0.226388889 C46.5851003,0.271666667 46.6756447,0.271666667 46.7209169,0.271666667 C46.6303725,0.226388889 46.5398281,0.226388889 46.4945559,0.226388889 C39.930086,0.4075 33.2297994,3.75805556 29.7438395,5.84083333 L29.7438395,5.79555556 C28.4309456,6.56527778 27.434957,7.19916667 26.982235,7.47083333 L41.922063,56.9141667 C42.0578797,56.7783333 42.1936963,56.6877778 42.1936963,56.6877778 C42.1936963,56.6877778 51.7008596,58.4536111 60.5289398,47.0436111 C69.3570201,35.7241667 68.2704871,16.0736111 57.6767908,4.66361111 Z" fill="#C73C27"></path>
                    </g>
                </g>
                <g id="Group" transform="translate(77.000000, 13.000000)">
                    <g transform="translate(0.000000, 5.093750)" id="Shape">
                        <path d="M3.38260258,14.8284722 C-2.59332865,31.58125 -0.732897227,65.8225694 15.9546089,71.821875 C16.3492458,71.9350694 16.6875061,72.0482639 17.0821431,72.1614583 L41.2113748,4.24479167 C24.5238687,-1.75451389 9.35853382,-1.92430556 3.38260258,14.8284722 Z" fill="#D32027"></path>
                        <path d="M63.8184354,36.5052083 C69.7943667,19.7524306 57.8988809,10.2440972 41.2113748,4.24479167 L17.0821431,72.1614583 C33.7696491,76.6892361 58.0116343,52.9184028 63.8184354,36.5052083 Z" fill="#B7202A"></path>
                    </g>
                    <g transform="translate(2.818835, 0.000000)">
                        <ellipse id="Oval" fill="#E8A922" transform="translate(17.772707, 66.924778) rotate(-70.349259) translate(-17.772707, -66.924778) " cx="17.772707" cy="66.9247777" rx="3.72102085" ry="1.58478952"></ellipse>
                        <ellipse id="Oval" fill="#E8A922" transform="translate(46.392321, 21.024221) rotate(-70.349259) translate(-46.392321, -21.024221) " cx="46.3923212" cy="21.0242211" rx="3.72102085" ry="1.58478952"></ellipse>
                        <ellipse id="Oval" fill="#E8A922" transform="translate(41.095538, 35.746149) rotate(-70.349259) translate(-41.095538, -35.746149) " cx="41.0955376" cy="35.746149" rx="3.72102085" ry="1.58478952"></ellipse>
                        <ellipse id="Oval" fill="#E8A922" transform="translate(35.899781, 51.017342) rotate(-70.349259) translate(-35.899781, -51.017342) " cx="35.8997811" cy="51.0173417" rx="3.72102085" ry="1.58478952"></ellipse>
                        <ellipse id="Oval" fill="#E8A922" transform="translate(30.498937, 65.798578) rotate(-70.349259) translate(-30.498937, -65.798578) " cx="30.4989374" cy="65.7985779" rx="3.72102085" ry="1.58478952"></ellipse>
                        <ellipse id="Oval" fill="#E8A922" transform="translate(55.869596, 28.808660) rotate(-81.749159) translate(-55.869596, -28.808660) " cx="55.8695956" cy="28.8086596" rx="3.72067756" ry="1.58464331"></ellipse>
                        <ellipse id="Oval" fill="#E8A922" transform="translate(53.415952, 42.899347) rotate(-63.429824) translate(-53.415952, -42.899347) " cx="53.4159515" cy="42.8993474" rx="3.72091614" ry="1.58474492"></ellipse>
                        <ellipse id="Oval" fill="#E8A922" transform="translate(44.307369, 58.259358) rotate(-60.117242) translate(-44.307369, -58.259358) " cx="44.3073695" cy="58.2593581" rx="3.72066236" ry="1.58463684"></ellipse>
                        <ellipse id="Oval" fill="#E8A922" transform="translate(33.738259, 22.116434) rotate(-70.349259) translate(-33.738259, -22.116434) " cx="33.7382586" cy="22.1164343" rx="3.72102085" ry="1.58478952"></ellipse>
                        <ellipse id="Oval" fill="#E8A922" transform="translate(28.369758, 36.872575) rotate(-70.349259) translate(-28.369758, -36.872575) " cx="28.3697582" cy="36.8725752" rx="3.72102085" ry="1.58478952"></ellipse>
                        <ellipse id="Oval" fill="#E8A922" transform="translate(23.245888, 52.110517) rotate(-70.349259) translate(-23.245888, -52.110517) " cx="23.2458877" cy="52.110517" rx="3.72102085" ry="1.58478952"></ellipse>
                        <ellipse id="Oval" fill="#E8A922" transform="translate(23.855822, 13.474497) rotate(-70.349259) translate(-23.855822, -13.474497) " cx="23.8558216" cy="13.4744969" rx="3.72102085" ry="1.58478952"></ellipse>
                        <ellipse id="Oval" fill="#E8A922" transform="translate(18.559545, 28.195859) rotate(-70.349259) translate(-18.559545, -28.195859) " cx="18.5595455" cy="28.1958589" rx="3.72102085" ry="1.58478952"></ellipse>
                        <ellipse id="Oval" fill="#E8A922" transform="translate(13.363789, 43.468636) rotate(-70.349259) translate(-13.363789, -43.468636) " cx="13.363789" cy="43.4686363" rx="3.72102085" ry="1.58478952"></ellipse>
                        <ellipse id="Oval" fill="#E8A922" transform="translate(7.962833, 58.248684) rotate(-70.349259) translate(-7.962833, -58.248684) " cx="7.96283253" cy="58.2486839" rx="3.72102085" ry="1.58478952"></ellipse>
                        <ellipse id="Oval" fill="#E8A922" transform="translate(10.926021, 14.194131) rotate(-65.695451) translate(-10.926021, -14.194131) " cx="10.9260206" cy="14.1941306" rx="3.72098288" ry="1.58477334"></ellipse>
                        <ellipse id="Oval" fill="#E8A922" transform="translate(5.395691, 28.496769) rotate(-75.120251) translate(-5.395691, -28.496769) " cx="5.39569086" cy="28.4967693" rx="3.72099026" ry="1.58477649"></ellipse>
                        <ellipse id="Oval" fill="#E8A922" transform="translate(2.184247, 43.874920) rotate(-85.407075) translate(-2.184247, -43.874920) " cx="2.1842474" cy="43.8749198" rx="3.72090475" ry="1.58474007"></ellipse>
                        <path d="M58.6317781,13.8097222 C58.857285,13.753125 58.9700384,13.6965278 58.9700384,13.6965278 L58.9700384,13.6965278 L58.9700384,13.6965278 L58.9700384,13.6965278 L50.4007785,11.0364583 C50.3444018,10.1875 50.0625182,8.60277778 48.8222306,7.13125 C47.1309293,4.98055556 44.2557171,3.45243056 42.8462994,3.565625 C42.6771693,3.565625 42.5080391,3.62222222 42.3952857,3.62222222 L42.2825323,3.62222222 L42.2261556,3.62222222 C41.4932584,3.79201389 40.8731146,4.13159722 40.3657242,4.64097222 C40.2529708,4.52777778 40.0838406,4.35798611 39.9147105,4.24479167 C39.9147105,4.24479167 39.9710872,4.30138889 40.0274639,4.30138889 C39.9147105,4.18819444 39.6892037,4.01840278 39.4636968,3.90520833 L39.4636968,3.90520833 C39.4073201,3.84861111 39.2945667,3.79201389 39.1818133,3.73541667 C39.1254366,3.67881944 39.1254366,3.67881944 39.0690598,3.62222222 L39.1254366,3.67881944 C38.7871763,3.28263889 38.2797859,2.94305556 37.7160188,2.60347222 C37.7160188,2.60347222 37.6596421,2.60347222 37.6596421,2.546875 C37.6032654,2.49027778 37.5468887,2.49027778 37.490512,2.43368056 C36.5884846,1.98090278 35.5173271,1.64131944 34.3334162,1.528125 C34.2206628,1.528125 34.0515327,1.47152778 33.9387793,1.47152778 C33.4313889,1.47152778 32.8112451,1.47152778 31.9655944,1.58472222 C31.5709575,1.64131944 31.0635671,1.75451389 30.6125534,1.86770833 L30.2179164,1.98090278 C29.7669027,2.0375 29.5977726,2.20729167 29.2595124,2.32048611 C29.0340055,2.43368056 28.8648754,2.546875 28.6957453,2.66006944 L21.0285127,0.396180556 L21.0285127,0.396180556 L21.0285127,0.396180556 L21.0285127,0.396180556 C21.0285127,0.396180556 21.0285127,0.509375 21.0848894,0.735763889 C21.3103963,1.47152778 22.0432935,3.33923611 23.5654647,5.32013889 C22.719814,5.20694444 21.9305401,5.09375 21.2540196,5.09375 C19.9009785,5.09375 19.1117046,5.43333333 19.1117046,5.43333333 L19.1117046,5.43333333 L19.1117046,5.43333333 L19.1117046,5.43333333 L19.1117046,5.43333333 L19.1117046,5.43333333 L19.1117046,5.43333333 L19.1117046,5.43333333 C19.1117046,5.43333333 19.224458,5.43333333 19.3935881,5.48993056 C19.4499649,5.48993056 19.5627183,5.54652778 19.6754717,5.54652778 C20.013732,5.65972222 20.4647456,5.82951389 21.0285127,6.1125 C21.8741634,6.56527778 22.8889442,7.30104167 24.0164783,8.15 C24.2983619,8.37638889 24.6366222,8.60277778 24.9748824,8.82916667 C25.7641563,9.39513889 26.7225604,9.96111111 27.9064713,10.3006944 C29.3722658,10.696875 30.2742931,10.696875 31.458204,10.6402778 C33.7132724,10.4704861 35.1790669,9.96111111 35.9683408,9.73472222 L35.9683408,9.73472222 L35.9683408,9.73472222 C36.5321079,9.45173611 37.3777586,9.16875 38.2234092,8.82916667 C36.6448613,9.84791667 35.4609504,10.4704861 35.4609504,11.4326389 L35.4609504,11.4326389 L35.4609504,11.4326389 C35.4609504,11.9986111 36.5321079,13.9229167 36.8703682,15.9604167 C37.0394983,16.4697917 37.095875,16.9791667 37.0394983,17.4319444 L36.3629778,19.9222222 L36.3629778,19.9222222 L36.3629778,19.9222222 L36.3629778,19.9222222 L36.3629778,19.9222222 L36.3629778,19.9222222 L36.3629778,19.9222222 L36.3629778,19.9222222 L36.3629778,19.9222222 L36.4193545,19.9222222 C36.5884846,19.9788194 37.095875,20.0920139 37.8851489,19.9222222 C38.843553,19.7524306 40.196594,19.1298611 41.3805049,18.2243056 C42.733546,17.2055556 43.9174569,15.7340278 44.6503541,14.3756944 C45.2141212,14.6586806 45.8906417,14.9982639 46.5671622,15.28125 C47.8638266,15.8472222 49.8933881,16.7527778 51.9793264,16.5829861 C52.2612099,16.5829861 52.5994702,16.5263889 52.8813537,16.4697917 C53.0504839,16.4131944 53.219614,16.3565972 53.3887441,16.3 C54.7417852,15.8472222 55.5874358,15.2246528 56.320333,14.7152778 C56.4894632,14.6020833 56.6585933,14.4888889 56.8277234,14.3756944 C56.8841001,14.3756944 56.8841001,14.3190972 56.9404768,14.3190972 C57.0532303,14.2625 57.1659837,14.2059028 57.2223604,14.1493056 C57.2787371,14.0927083 57.3351138,14.0927083 57.3914905,14.0927083 C57.7861275,13.8663194 58.1243877,13.6965278 58.4062713,13.5833333 L58.462648,13.5833333 C58.462648,13.8663194 58.5754014,13.8097222 58.6317781,13.8097222 Z" id="Shape" fill="#609340"></path>
                    </g>
                </g>
                <g id="Group" transform="translate(105.484241, 59.916667)">
                    <g id="Shape">
                        <path d="M28.5667622,20.1486111 C27.9782235,22.0502778 27.2538682,24.0877778 26.4842407,26.2158333 C26.3484241,26.6686111 26.1673352,27.1213889 25.9862464,27.5741667 L23.2246418,26.7591667 C23.2246418,26.7591667 23.269914,26.3516667 23.3604585,25.6272222 C23.4962751,24.2688889 23.8131805,21.8238889 24.356447,18.8355556 C24.582808,17.6130556 24.8091691,16.2547222 25.0808023,14.8963889 C25.895702,10.9119444 27.0275072,6.52 28.52149,2.76194444 L32.6412607,3.93916667 C32.1885387,6.88222222 31.373639,10.6855556 30.0154728,15.3491667 C29.6080229,16.9338889 29.1100287,18.5186111 28.5667622,20.1486111 Z" fill="#3D8205"></path>
                        <path d="M24.3111748,26.5327778 L23.9942693,26.2611111 L23.4057307,25.7177778 L19.7386819,22.3219444 C19.7386819,22.3219444 20.3724928,21.0541667 20.9157593,18.6091667 C21.730659,14.9869444 22.2739255,8.78388889 20.1008596,0.4075 L22.9982808,1.26777778 C24.1753582,3.26 25.2166189,7.24444444 25.0808023,14.9869444 C25.0808023,16.2547222 25.0355301,17.5677778 24.9449857,19.0166667 C24.8544413,20.9183333 24.6733524,23.0463889 24.4469914,25.3102778 C24.4017192,25.7177778 24.356447,26.1252778 24.3111748,26.5327778 Z" fill="#479706"></path>
                        <path d="M29.9249284,25.7177778 L26.4842407,26.2611111 L23.7226361,26.6686111 C23.8131805,26.5327778 23.8584527,26.3969444 23.9489971,26.2611111 C24.0848138,25.9441667 24.2659026,25.6272222 24.4017192,25.3555556 C26.4389685,21.3258333 28.2951289,18.0658333 29.9702006,15.485 C33.8636103,9.55361111 36.8515759,6.97277778 39.069914,5.93138889 L42.2842407,6.88222222 C31.1020057,16.6169444 29.9249284,25.7177778 29.9249284,25.7177778 Z" fill="#479706"></path>
                        <path d="M36.4441261,31.6038889 C35.765043,33.9130556 33.9088825,39.0747222 31.4641834,45.4588889 C31.0114613,46.6361111 30.5587393,47.8586111 30.060745,49.0811111 C27.2538682,56.3708333 23.9037249,64.7019444 20.9157593,71.9463889 C20.5535817,72.8972222 20.1461318,73.8027778 19.7839542,74.7083333 C16.2527221,83.13 13.4005731,89.6047222 12.6309456,90.465 C8.6469914,94.9022222 6.79083095,95.1738889 4.66303725,94.54 C2.48997135,93.9061111 1.08653295,92.7288889 0.0905444126,86.8427778 C-0.0452722063,86.1636111 0.271633238,83.4922222 0.86017192,79.5983333 C0.950716332,78.9191667 1.08653295,78.1494444 1.22234957,77.3797222 C3.03323782,65.6527778 6.65501433,45.9569444 9.19025788,33.8225 C9.46189112,32.4188889 9.77879656,31.1058333 10.0051576,29.9286111 C10.5484241,27.4836111 11.0011461,25.5819444 11.3180516,24.4047222 C12.72149,19.6505556 17.1581662,18.6091667 20.8704871,18.6544444 C22.1833811,18.6544444 23.4057307,18.7902778 24.356447,18.9713889 C24.582808,19.0166667 24.7638968,19.0619444 24.9449857,19.0619444 C25.8504298,19.2430556 26.3936963,19.3788889 26.3936963,19.3788889 C26.3936963,19.3788889 26.8011461,19.5147222 27.434957,19.7411111 C27.7518625,19.8769444 28.1593123,20.0127778 28.5667622,20.1938889 C29.3363897,20.5108333 30.287106,20.9636111 31.1925501,21.5522222 C34.452149,23.4538889 37.8475645,26.7138889 36.4441261,31.6038889 Z" fill="#F58042"></path>
                        <path d="M10.0051576,29.8833333 C10.0051576,29.8833333 14.5776504,29.9738889 20.1008596,32.7811111 C20.1008596,32.7811111 10.5936963,32.0113889 9.19025788,33.7772222 L10.0051576,29.8833333 Z" fill="#E26C39"></path>
                        <path d="M6.15702006,50.0772222 C6.15702006,50.0772222 10.7295129,50.1677778 16.2527221,52.975 C16.2527221,52.975 6.74555874,52.2052778 5.34212034,53.9711111 L6.15702006,50.0772222 Z" fill="#E26C39"></path>
                        <path d="M7.37936963,79.6436111 C7.37936963,79.6436111 3.89340974,79.3719444 0.814899713,79.5530556 C0.905444126,78.8738889 1.04126074,78.1041667 1.17707736,77.3344444 C2.8974212,77.7872222 5.07048711,78.4663889 7.37936963,79.6436111 Z" fill="#E26C39"></path>
                        <path d="M31.4641834,45.4588889 C31.4641834,45.4588889 27.5255014,43.1044444 21.3684814,42.5611111 C21.3684814,42.5611111 29.7891117,46.9983333 30.060745,49.2169444 L31.4641834,45.4588889 Z" fill="#E26C39"></path>
                        <path d="M20.9157593,71.9463889 C20.5535817,72.8972222 20.1461318,73.8027778 19.7839542,74.7083333 C17.3845272,72.4444444 12.2687679,69.7730556 12.2687679,69.7730556 C16.2074499,70.09 19.2406877,71.2219444 20.9157593,71.9463889 Z" fill="#E26C39"></path>
                    </g>
                    <path d="M30.9661891,3.53166667 L4.66303725,94.54 C2.48997135,93.9061111 1.08653295,92.7288889 0.0905444126,86.8427778 C-0.0452722063,86.1636111 0.271633238,83.4922222 0.86017192,79.5983333 C0.950716332,78.9191667 1.08653295,78.1494444 1.22234957,77.3797222 C3.03323782,65.6527778 6.65501433,45.9569444 9.19025788,33.8225 C9.46189112,32.4188889 9.77879656,31.1058333 10.0051576,29.9286111 C10.5484241,27.4836111 11.0011461,25.5819444 11.3180516,24.4047222 C12.72149,19.6505556 17.1581662,18.6091667 20.8704871,18.6544444 C21.6853868,15.0322222 22.2286533,8.82916667 20.0555874,0.452777778 L22.9530086,1.31305556 C24.130086,3.30527778 25.1713467,7.28972222 25.0355301,15.0322222 C25.8504298,11.0477778 26.982235,6.65583333 28.4762178,2.89777778 L30.9661891,3.53166667 Z" id="Shape" fill="#FFFFFF" opacity="0.5"></path>
                </g>
                <g id="Group" transform="translate(63.000000, 56.000000)">
                    <path d="M31.8815331,14.0722222 C31.8815331,14.0722222 28.5020906,13.8811966 25.5689895,15.0273504 C25.3139373,13.8811966 24.995122,13.0534188 24.995122,13.0534188 C24.995122,13.0534188 23.7198606,13.5628205 22.3170732,14.5179487 C20.7867596,11.5252137 17.7898955,9.36025641 17.7898955,9.36025641 C17.7898955,9.36025641 17.1522648,10.2517094 16.4508711,11.6525641 C13.1989547,9.23290598 8.92682927,8.34145299 8.92682927,8.34145299 C8.92682927,8.34145299 7.20522648,12.4166667 7.14146341,16.4918803 C5.54738676,16.2371795 4.3358885,16.2371795 4.3358885,16.2371795 C4.3358885,16.2371795 4.3358885,19.9303419 5.92996516,22.9230769 C4.3358885,23.4961538 3.18815331,24.2602564 3.18815331,24.2602564 C3.18815331,24.2602564 3.69825784,24.9606838 4.46341463,25.8521368 C1.84912892,27.5713675 0,30.4367521 0,30.4367521 C0,30.4367521 2.48675958,32.8564103 5.48362369,34.0025641 C4.84599303,35.0850427 4.5271777,35.9764957 4.5271777,35.9764957 C4.5271777,35.9764957 8.09790941,37.25 10.9672474,36.4222222 C13.8365854,35.5307692 14.2191638,31.4555556 14.2191638,31.4555556 L19.0651568,28.4628205 L24.3574913,26.234188 C24.3574913,26.234188 27.928223,28.2717949 30.2874564,26.4888889 C32.6466899,24.6423077 33.666899,20.9491453 33.666899,20.9491453 C33.666899,20.9491453 32.774216,20.6944444 31.4989547,20.567094 C32.3916376,17.4470085 31.8815331,14.0722222 31.8815331,14.0722222 L31.8815331,14.0722222 Z" id="Shape" fill="#5A7132"></path>
                    <path d="M43.9327526,56.5435897 C43.9327526,62.5290598 39.3418118,67.3683761 33.730662,67.3683761 C28.1195122,67.3683761 23.5285714,62.5290598 23.5285714,56.5435897 C23.5285714,50.5581197 28.1195122,45.7188034 33.730662,45.7188034 C39.4055749,45.7824786 43.9327526,50.6217949 43.9327526,56.5435897 L43.9327526,56.5435897 Z" id="Shape" fill="#454A7C"></path>
                    <path d="M59.8735192,46.8012821 C59.8735192,52.7867521 55.2825784,57.6260684 49.6714286,57.6260684 C44.0602787,57.6260684 39.469338,52.7867521 39.469338,46.8012821 C39.469338,40.815812 44.0602787,35.9764957 49.6714286,35.9764957 C55.2825784,35.9764957 59.8735192,40.815812 59.8735192,46.8012821 L59.8735192,46.8012821 Z" id="Shape" fill="#454A7C"></path>
                    <path d="M54.1986063,33.3021368 C54.1986063,39.2876068 49.6076655,44.1269231 43.9965157,44.1269231 C38.3853659,44.1269231 33.7944251,39.2876068 33.7944251,33.3021368 C33.7944251,27.3166667 38.3853659,22.4773504 43.9965157,22.4773504 C49.6076655,22.4773504 54.1986063,27.3803419 54.1986063,33.3021368 L54.1986063,33.3021368 Z" id="Shape" fill="#3C3F6D"></path>
                    <path d="M39.533101,11.4615385 C39.7881533,12.7350427 42.2111498,14.1358974 43.4864111,13.5628205 C46.2919861,12.4803419 43.4864111,6.81324786 39.533101,11.4615385 L39.533101,11.4615385 L39.533101,11.4615385 Z M31.5627178,29.3542735 C31.5627178,23.241453 32.9655052,16.2371795 36.3449477,11.2068376 C35.4522648,8.59615385 36.0898955,4.45726496 39.0867596,2.03760684 C41.1271777,0.382051282 43.6777003,-0.0636752137 46.4195122,0.636752137 C47.184669,0.827777778 47.5672474,1.65555556 47.2484321,2.41965812 L47.2484321,2.48333333 C46.9933798,3.12008547 46.2919861,3.43846154 45.6543554,3.2474359 C41.6372822,2.22863248 38.8317073,4.96666667 38.7041812,8.46880342 C42.2111498,5.53974359 46.6745645,7.06794872 47.2484321,11.0794872 C47.5672474,13.3081197 46.4832753,15.3457265 44.5066202,16.1098291 C42.2111498,17.0012821 39.5968641,15.6641026 37.9390244,13.8175214 C35.5797909,17.892735 34.2407666,23.4961538 34.2407666,29.4179487 L31.5627178,29.3542735 L31.5627178,29.3542735 Z" id="Shape" fill="#618E3D"></path>
                    <path d="M31.3714286,32.5380342 C31.3714286,38.5235043 26.7804878,43.3628205 21.169338,43.3628205 C15.5581882,43.3628205 10.9672474,38.5235043 10.9672474,32.5380342 C10.9672474,26.5525641 15.5581882,21.7132479 21.169338,21.7132479 C26.7804878,21.7769231 31.3714286,26.6162393 31.3714286,32.5380342 L31.3714286,32.5380342 Z" id="Shape" fill="#1D204B"></path>
                    <path d="M51.7756098,50.3034188 C51.7756098,56.2888889 47.184669,61.1282051 41.5735192,61.1282051 C35.9623693,61.1282051 31.3714286,56.2888889 31.3714286,50.3034188 C31.3714286,44.3179487 35.9623693,39.4786325 41.5735192,39.4786325 C47.184669,39.4786325 51.7756098,44.3179487 51.7756098,50.3034188 L51.7756098,50.3034188 Z" id="Shape" fill="#1D204B"></path>
                    <path d="M34.3682927,44.1269231 C34.3682927,50.1123932 29.7773519,54.9517094 24.1662021,54.9517094 C18.5550523,54.9517094 13.9641115,50.1123932 13.9641115,44.1269231 C13.9641115,38.141453 18.5550523,33.3021368 24.1662021,33.3021368 C29.7773519,33.3021368 34.3682927,38.141453 34.3682927,44.1269231 L34.3682927,44.1269231 Z" id="Shape" fill="#3C3F6D"></path>
                    <path d="M43.358885,35.4034188 C43.358885,41.3888889 38.7679443,46.2282051 33.1567944,46.2282051 C27.5456446,46.2282051 22.9547038,41.3888889 22.9547038,35.4034188 C22.9547038,29.4179487 27.5456446,24.5786325 33.1567944,24.5786325 C38.7679443,24.5786325 43.358885,29.4179487 43.358885,35.4034188 L43.358885,35.4034188 Z" id="Shape" fill="#454A7C"></path>
                </g>
            </g>
        </g>
    </g>
</svg>