<?xml version="1.0" encoding="UTF-8"?>
<svg width="156px" height="149px" viewBox="0 0 156 149" version="1.1" xmlns="http://www.w3.org/2000/svg" xmlns:xlink="http://www.w3.org/1999/xlink">
    <!-- Generator: Sketch 42 (36781) - http://www.bohemiancoding.com/sketch -->
    <title>4_glukosemat</title>
    <desc>Created with Sketch.</desc>
    <defs></defs>
    <g id="Page-1" stroke="none" stroke-width="1" fill="none" fill-rule="evenodd">
        <g id="PINK" transform="translate(-192.000000, -5236.000000)" fill-rule="nonzero">
            <g id="4_glukosemat" transform="translate(192.000000, 5236.000000)">
                <g id="Group" transform="translate(88.411150, 42.662393)">
                    <path d="M62.4878049,36.7405983 C61.9777003,37.1226496 61.3400697,37.3136752 60.702439,37.3136752 C59.0445993,37.3136752 57.7055749,35.9764957 57.7055749,34.3209402 C57.7055749,33.365812 58.1519164,32.5380342 58.789547,32.0286325 L33.4756098,0.127350427 L26.1428571,11.7799145 C26.9080139,12.3529915 27.3543554,13.3081197 27.3543554,14.3269231 C27.3543554,16.1098291 25.8878049,17.574359 24.102439,17.574359 C23.5923345,17.574359 23.145993,17.4470085 22.6996516,17.2559829 L12.6250871,33.3021368 C14.410453,34.4482906 15.5581882,36.4222222 15.5581882,38.7145299 C15.5581882,42.2803419 12.6888502,45.1457265 9.11811847,45.1457265 C7.90662021,45.1457265 6.75888502,44.8273504 5.80243902,44.1905983 L0.446341463,52.6594017 C0.446341463,52.6594017 15.0480836,64.057265 30.4149826,64.1846154 C51.1379791,64.375641 60.7662021,53.4235043 60.7662021,53.4235043 C60.7662021,53.4235043 62.8066202,51.3222222 64.9108014,47.8837607 C66.8236934,44.7636752 66.8874564,42.2803419 66.8874564,42.2803419 L62.4878049,36.7405983 L62.4878049,36.7405983 Z" id="Shape" fill="#FFD048"></path>
                    <path d="M62.4878049,36.7405983 C61.9777003,37.1226496 61.3400697,37.3136752 60.702439,37.3136752 C59.0445993,37.3136752 57.7055749,35.9764957 57.7055749,34.3209402 C57.7055749,33.365812 58.1519164,32.5380342 58.789547,32.0286325 L33.4756098,0.127350427 L60.7662021,53.4871795 C60.7662021,53.4871795 62.8066202,51.3858974 64.9108014,47.9474359 C66.8236934,44.8273504 66.8874564,42.3440171 66.8874564,42.3440171 L62.4878049,36.7405983 L62.4878049,36.7405983 Z" id="Shape" fill="#F2942E"></path>
                    <path d="M34.9421603,26.1068376 C34.9421603,28.7811966 32.774216,31.0098291 30.0324042,31.0098291 C27.3543554,31.0098291 25.1226481,28.8448718 25.1226481,26.1068376 C25.1226481,23.4324786 27.2905923,21.2038462 30.0324042,21.2038462 C32.710453,21.2038462 34.9421603,23.4324786 34.9421603,26.1068376 L34.9421603,26.1068376 Z" id="Shape" fill="#F2942E"></path>
                    <path d="M41.5097561,43.6175214 C41.5097561,47.5017094 38.3853659,50.6217949 34.4958188,50.6217949 C30.6062718,50.6217949 27.4818815,47.5017094 27.4818815,43.6175214 C27.4818815,39.7333333 30.6062718,36.6132479 34.4958188,36.6132479 C38.3853659,36.6132479 41.5097561,39.7333333 41.5097561,43.6175214 L41.5097561,43.6175214 Z" id="Shape" fill="#F2942E"></path>
                    <path d="M24.038676,51.9589744 C24.038676,53.8692308 22.5083624,55.3974359 20.5954704,55.3974359 C18.6825784,55.3974359 17.1522648,53.8692308 17.1522648,51.9589744 C17.1522648,50.0487179 18.6825784,48.5205128 20.5954704,48.5205128 C22.4445993,48.5205128 24.038676,50.0487179 24.038676,51.9589744 L24.038676,51.9589744 Z" id="Shape" fill="#F2942E"></path>
                    <path d="M52.5407666,50.9401709 C52.5407666,52.5320513 51.2655052,53.8055556 49.6714286,53.8055556 C48.0773519,53.8055556 46.8020906,52.5320513 46.8020906,50.9401709 C46.8020906,49.3482906 48.0773519,48.0747863 49.6714286,48.0747863 C51.2655052,48.0747863 52.5407666,49.3482906 52.5407666,50.9401709 L52.5407666,50.9401709 Z" id="Shape" fill="#F2942E"></path>
                </g>
                <g id="Group" transform="translate(0.418118, 49.666667)">
                    <g>
                        <g id="Shape">
                            <path d="M36.4087108,13.4354701 C33.1567944,4.01153846 22.9547038,-1.01880342 13.5815331,2.16495726 C4.20836237,5.34871795 -0.382578397,15.4094017 2.35923345,24.9606838 C7.07770035,41.3888889 0.956445993,47.5017094 5.03728223,59.4089744 C9.75574913,73.2901709 24.8675958,80.6764957 38.7041812,75.9645299 C52.6045296,71.2525641 60.0010453,56.1615385 55.2825784,42.3440171 C51.2017422,30.4367521 41.445993,27.9534188 36.4087108,13.4354701 Z" fill="#E8DF71"></path>
                            <path d="M47.5034843,28.7175214 C43.8052265,24.6423077 39.9794425,20.5034188 37.3651568,13.0534188 C33.9857143,3.18376068 23.145993,-2.16495726 13.2627178,1.20982906 C3.50696864,4.52094017 -1.65783972,14.9 1.33902439,25.2790598 C3.76202091,33.684188 3.25191638,39.1602564 2.80557491,44.5089744 C2.42299652,49.3482906 1.97665505,53.8692308 4.01707317,59.7910256 C8.92682927,74.1816239 24.6125436,81.8863248 39.0229965,76.9833333 C53.4334495,72.0803419 61.1487805,56.4162393 56.3027875,42.025641 C54.2623693,36.1038462 51.010453,32.5380342 47.5034843,28.7175214 Z M38.3216028,74.9457265 C24.995122,79.4666667 10.5209059,72.3350427 5.99372822,59.0269231 C4.1445993,53.5508547 4.46341463,49.4119658 4.9097561,44.6363248 C5.35609756,39.3512821 5.86620209,33.4294872 3.37944251,24.6423077 C0.701393728,15.3457265 5.22857143,6.11282051 13.9641115,3.12008547 C22.7634146,0.127350427 32.3916376,4.90299145 35.4522648,13.6901709 C38.1303136,21.5222222 42.1473868,25.915812 46.0369338,30.1183761 C49.3526132,33.7478632 52.5407666,37.1863248 54.3898955,42.5987179 C58.789547,55.9705128 51.6480836,70.4247863 38.3216028,74.9457265 Z" fill="#247026"></path>
                        </g>
                        <ellipse id="Oval" fill="#552600" transform="translate(30.542477, 52.026375) rotate(-18.777382) translate(-30.542477, -52.026375) " cx="30.5424768" cy="52.0263746" rx="12.4978725" ry="12.4806529"></ellipse>
                    </g>
                    <path d="M13.5815331,0.827777778 L38.8317073,75.0094017 C24.7400697,79.7850427 9.37317073,72.2076923 4.5271777,58.1354701 C2.55052265,52.4047009 2.93310105,47.9474359 3.37944251,43.2354701 C3.82578397,38.0141026 4.27212544,32.6017094 1.91289199,24.3876068 C-0.956445993,14.1995726 4.01707317,4.07521368 13.5815331,0.827777778 Z" id="Shape" fill="#FFFFFF" opacity="0.5"></path>
                </g>
                <g id="Group" transform="translate(66.731707, 11.461538)">
                    <path d="M29.6498258,22.2863248 C29.6498258,25.0880342 29.5860627,28.2717949 29.3947735,31.7739316 C29.3310105,32.6653846 29.2672474,33.6205128 29.2034843,34.575641 C29.2034843,35.0850427 29.1397213,35.5944444 29.0759582,36.1675214 L25.9515679,36.1675214 C25.9515679,36.1675214 25.8878049,35.7217949 25.7602787,34.9576923 C25.6965157,34.3846154 25.5689895,33.684188 25.4414634,32.792735 C25.058885,30.4367521 24.6125436,27.0619658 24.3574913,23.3051282 C23.7198606,15.4730769 23.7198606,5.98547009 26.5891986,0.70042735 C26.6529617,0.573076923 26.7167247,0.382051282 26.8442509,0.254700855 C26.8442509,0.191025641 29.5860627,5.92179487 29.6498258,22.2863248 Z" id="Shape" fill="#3D8205"></path>
                    <path d="M27.0993031,35.5307692 L26.6529617,35.3397436 L26.6529617,35.3397436 L25.8878049,34.9576923 L21.0418118,32.5380342 C21.0418118,32.5380342 21.2968641,31.3282051 21.169338,29.1632479 C21.0418118,25.0880342 19.8303136,17.7017094 14.1554007,8.53247863 C14.1554007,8.53247863 19.3839721,5.03034188 24.4212544,23.241453 C25.1864111,25.9794872 25.8878049,29.1632479 26.6529617,32.9837607 C26.7167247,33.365812 26.7804878,33.8115385 26.9080139,34.257265 C26.9080139,34.3209402 26.9080139,34.3846154 26.971777,34.4482906 C26.9080139,34.7666667 27.0355401,35.1487179 27.0993031,35.5307692 Z" id="Shape" fill="#479706"></path>
                    <path d="M32.6466899,32.9837607 C32.6466899,32.9837607 31.0526132,22.5410256 40.7445993,8.34145299 C40.7445993,8.34145299 32.1365854,3.88418803 26.5254355,35.8491453 L32.6466899,32.9837607 Z" id="Shape" fill="#479706"></path>
                    <path d="M53.3059233,66.4132479 L53.3059233,67.3047009 C53.3059233,67.6867521 53.2421603,68.1324786 53.2421603,68.5145299 C53.1783972,69.5970085 53.0508711,70.6794872 52.7958188,71.6982906 C52.6045296,72.8444444 52.2857143,73.9269231 51.966899,75.0094017 C51.4567944,76.6649573 50.7554007,78.1931624 49.9902439,79.6576923 C49.2250871,81.058547 48.3324042,82.3957265 47.3759582,83.6692308 C46.3557491,85.0700855 45.1442509,86.2799145 43.9327526,87.4260684 C43.1038328,88.1901709 42.2111498,88.9542735 41.3184669,89.5910256 C40.425784,90.2277778 39.533101,90.8645299 38.6404181,91.4376068 C38.2578397,91.6286325 37.9390244,91.8833333 37.556446,92.074359 C36.9825784,92.392735 36.4087108,92.7111111 35.7710801,92.965812 C35.4522648,93.0931624 35.1334495,93.284188 34.8146341,93.4115385 C34.1132404,93.7299145 33.4118467,93.9846154 32.774216,94.175641 C31.3714286,94.6213675 29.9686411,94.9397436 28.6933798,95.067094 L28.5658537,95.067094 L28.2470383,95.067094 C28.0557491,95.067094 27.8644599,95.067094 27.7369338,95.1307692 L27.0355401,95.1307692 L26.7167247,95.1307692 L26.3979094,95.1307692 L26.2066202,95.1307692 C15.9407666,94.6213675 0.51010453,83.732906 0.51010453,66.4132479 C0.51010453,59.1542735 3.44320557,52.5320513 8.22543554,47.7564103 C11.541115,44.4452991 15.9407666,42.917094 19.0651568,39.0965812 C21.4243902,36.2311966 20.5317073,32.474359 20.5317073,32.474359 C20.5317073,32.474359 20.0853659,29.4816239 21.0418118,29.0995726 C21.1055749,29.0995726 21.169338,29.0358974 21.2968641,29.0358974 C22.3808362,29.0358974 24.3574913,31.1371795 25.6327526,32.6653846 C26.1428571,33.2384615 26.5254355,33.7478632 26.7167247,34.0025641 C26.7804878,34.1299145 26.8442509,34.1935897 26.9080139,34.257265 L26.971777,34.3209402 L26.971777,34.3209402 C27.1630662,34.1299145 28.3108014,32.8564103 29.5222997,31.6465812 C30.6700348,30.5004274 32.0090592,29.4179487 32.710453,29.0995726 C32.8379791,29.0358974 32.9655052,29.0358974 33.0292683,29.0358974 C34.0494774,29.1632479 33.3480836,32.4106838 33.3480836,32.4106838 C33.3480836,32.4106838 32.5191638,36.1675214 34.8146341,39.032906 C37.8752613,42.7897436 42.2749129,44.3179487 45.5905923,47.692735 C49.4163763,51.5132479 52.030662,56.4799145 52.987108,62.0833333 C53.1146341,62.7837607 53.1783972,63.484188 53.2421603,64.2482906 C53.2421603,64.5666667 53.3059233,64.9487179 53.3059233,65.267094 C53.3059233,65.7128205 53.3059233,66.0311966 53.3059233,66.4132479 Z" id="Shape" fill="#873052"></path>
                    <path d="M26.8442509,95.1307692 C26.8442509,95.1307692 25.8240418,94.6850427 24.102439,93.6662393 C22.4445993,92.6474359 20.0853659,91.1192308 17.5348432,88.8905983 C14.9843206,86.6619658 12.3062718,83.732906 10.1383275,80.0397436 C9.0543554,78.1931624 8.09790941,76.2192308 7.46027875,74.0542735 C6.75888502,71.9529915 6.37630662,69.6606838 6.18501742,67.4320513 L6.12125436,65.7128205 C6.12125436,65.1397436 6.18501742,64.5666667 6.18501742,63.9935897 L6.18501742,63.5478632 C6.18501742,63.3568376 6.18501742,63.2294872 6.24878049,63.1021368 L6.31254355,62.274359 C6.37630662,61.7012821 6.50383275,61.1282051 6.63135889,60.5551282 C7.14146341,58.3264957 7.97038328,56.2888889 9.0543554,54.4423077 C11.1585366,50.7491453 13.9003484,47.8200855 16.3233449,45.5277778 C18.7463415,43.2354701 20.9780488,41.5162393 22.3808362,40.1790598 C23.08223,39.4786325 23.5923345,38.9055556 23.8473868,38.4598291 C24.102439,38.0141026 24.038676,37.6957265 24.038676,37.6957265 C24.038676,37.6957265 24.102439,38.0141026 23.8473868,38.4598291 C23.6560976,38.9692308 23.2097561,39.6059829 22.5083624,40.3064103 C21.169338,41.7709402 19.1289199,43.6175214 16.8334495,46.0371795 C15.6857143,47.2470085 14.474216,48.584188 13.2627178,50.0487179 C12.0512195,51.5132479 10.9672474,53.1688034 10.0108014,54.9517094 C9.0543554,56.7346154 8.28919861,58.708547 7.84285714,60.8098291 C7.71533101,61.3192308 7.65156794,61.8286325 7.58780488,62.3380342 L7.52404181,63.165812 C7.52404181,63.2931624 7.46027875,63.484188 7.46027875,63.5478632 L7.46027875,63.9299145 C7.46027875,64.5029915 7.39651568,65.0123932 7.39651568,65.5854701 L7.46027875,67.2410256 C7.71533101,71.5709402 9.11811847,75.8371795 11.0947735,79.4029915 C13.0714286,82.9688034 15.6219512,85.9615385 17.9811847,88.2538462 C20.3404181,90.5461538 22.5721254,92.2653846 24.1662021,93.3478632 C25.8878049,94.6213675 26.8442509,95.1307692 26.8442509,95.1307692 Z" id="Shape" fill="#B54774"></path>
                    <path d="M28.8209059,95.1307692 C28.8209059,95.1307692 27.8644599,94.6213675 26.3979094,93.5388889 C24.9313589,92.4564103 22.8271777,90.8008547 20.7229965,88.3811966 C18.6188153,86.0252137 16.387108,82.9688034 14.7292683,79.3393162 C13.9003484,77.492735 13.1989547,75.5824786 12.7526132,73.5448718 C12.2425087,71.507265 11.9874564,69.4059829 11.8599303,67.2410256 L11.7961672,65.6491453 L11.8599303,64.057265 L11.8599303,63.6752137 L11.8599303,63.2931624 L11.9236934,62.5290598 C11.9874564,62.0196581 12.0512195,61.4465812 12.1149826,60.9371795 C12.497561,58.8358974 13.1351916,56.8619658 13.9641115,55.0153846 C15.6219512,51.3222222 17.8536585,48.3294872 19.9578397,45.9735043 C21.9982578,43.5538462 23.9111498,41.7709402 25.1226481,40.3700855 C25.6965157,39.6696581 26.1428571,39.0965812 26.3341463,38.6508547 C26.3979094,38.3961538 26.4616725,38.2688034 26.4616725,38.141453 L26.4616725,37.9504274 L26.4616725,38.141453 C26.4616725,38.2688034 26.3979094,38.4598291 26.3341463,38.7145299 C26.2066202,39.1602564 25.8240418,39.8606838 25.2501742,40.5611111 C24.1662021,42.025641 22.3808362,43.9995726 20.4679443,46.482906 C18.5550523,48.9662393 16.4508711,51.9589744 14.9205575,55.5247863 C14.1554007,57.3076923 13.5815331,59.2179487 13.2627178,61.1918803 C13.1989547,61.7012821 13.1351916,62.1470085 13.0714286,62.6564103 L13.0076655,63.4205128 L13.0076655,63.8025641 L13.0076655,64.1846154 L12.9439024,65.7128205 L13.0076655,67.2410256 C13.1989547,71.3799145 14.1554007,75.391453 15.6857143,78.957265 C17.2160279,82.5230769 19.1926829,85.5794872 21.169338,87.9991453 C23.145993,90.4188034 25.058885,92.2017094 26.4616725,93.4115385 C27.928223,94.5576923 28.8209059,95.1307692 28.8209059,95.1307692 Z" id="Shape" fill="#B54774"></path>
                    <path d="M28.5658537,95.1307692 C28.5658537,95.1307692 28.3745645,94.9397436 28.0557491,94.6213675 C27.7369338,94.3029915 27.2905923,93.7935897 26.7804878,93.1568376 C26.5254355,92.8384615 26.2703833,92.4564103 25.9515679,92.074359 C25.6327526,91.6286325 25.3777003,91.182906 24.995122,90.7371795 C24.6763066,90.2277778 24.3574913,89.7183761 23.9749129,89.1452991 C23.6560976,88.5722222 23.3372822,87.9354701 22.9547038,87.2987179 C22.6358885,86.6619658 22.3170732,85.9615385 21.9344948,85.2611111 C21.6156794,84.5606838 21.2968641,83.7965812 21.0418118,83.0324786 C20.7867596,82.2683761 20.4679443,81.4405983 20.212892,80.6128205 C19.9578397,79.7850427 19.7665505,78.8935897 19.5114983,78.065812 C19.256446,77.174359 19.1289199,76.282906 18.9376307,75.391453 C18.7463415,74.5 18.6188153,73.5448718 18.4912892,72.5897436 C18.4275261,72.1440171 18.3637631,71.6346154 18.3,71.1888889 C18.2362369,70.7431624 18.2362369,70.2337607 18.1724739,69.724359 L18.0449477,68.2598291 C17.9811847,67.7504274 17.9811847,67.3047009 17.9811847,66.7952991 L17.9811847,63.9299145 C17.9811847,62.9747863 18.0449477,62.0196581 18.1724739,61.0645299 C18.3637631,59.1542735 18.7463415,57.3076923 19.1926829,55.5247863 C20.0853659,52.0226496 21.4881533,48.9025641 22.8271777,46.3555556 C24.1662021,43.808547 25.5052265,41.7709402 26.2703833,40.3064103 C26.6529617,39.5423077 26.9080139,38.9692308 27.0355401,38.5235043 C27.0993031,38.3324786 27.0993031,38.141453 27.0993031,38.0141026 L27.0993031,37.8230769 L27.0993031,38.0141026 C27.0993031,38.141453 27.0993031,38.3324786 27.0355401,38.5235043 C26.971777,38.9692308 26.7804878,39.6059829 26.3979094,40.3700855 C25.6965157,41.8982906 24.6125436,44.0632479 23.4010453,46.6102564 C22.8271777,47.8837607 22.189547,49.3482906 21.6794425,50.8764957 C21.1055749,52.4047009 20.5954704,54.0602564 20.212892,55.7794872 C19.8303136,57.4987179 19.5114983,59.2816239 19.3202091,61.1282051 C19.256446,62.0196581 19.1926829,62.9747863 19.1926829,63.9299145 L19.1926829,66.7952991 C19.1926829,67.2410256 19.1926829,67.7504274 19.256446,68.1961538 L19.3202091,69.5970085 C19.3202091,70.042735 19.3839721,70.5521368 19.3839721,70.9978632 C19.4477352,71.4435897 19.5114983,71.9529915 19.5752613,72.3987179 C19.7665505,74.2452991 20.0853659,76.0282051 20.4679443,77.8111111 C20.6592334,78.6388889 20.8505226,79.5303419 21.1055749,80.3581197 C21.3606272,81.1858974 21.6156794,81.95 21.8069686,82.7777778 C22.0620209,83.5418803 22.3808362,84.3059829 22.6358885,85.0064103 C22.9547038,85.7068376 23.2097561,86.407265 23.5285714,87.0440171 C23.8473868,87.6807692 24.102439,88.3175214 24.4212544,88.8905983 C24.7400697,89.4636752 24.995122,90.0367521 25.3139373,90.5461538 C25.6327526,91.0555556 25.8878049,91.5012821 26.1428571,91.9470085 C26.3979094,92.392735 26.6529617,92.7747863 26.9080139,93.0931624 C27.4181185,93.7935897 27.8006969,94.3029915 28.0557491,94.6850427 C28.4383275,94.9397436 28.5658537,95.1307692 28.5658537,95.1307692 Z" id="Shape" fill="#B54774"></path>
                    <path d="M27.7369338,95.5764957 C27.7369338,95.5764957 27.6731707,95.3854701 27.5456446,94.9397436 C27.4181185,94.5576923 27.2268293,93.9209402 27.0355401,93.1568376 C26.8442509,92.392735 26.5891986,91.4376068 26.3979094,90.3551282 C26.2066202,89.2726496 25.8878049,88.0628205 25.6965157,86.725641 C25.5052265,85.3884615 25.2501742,83.9239316 25.058885,82.3957265 C24.9313589,80.8675214 24.6763066,79.2119658 24.5487805,77.5564103 C24.4212544,75.8371795 24.3574913,74.1179487 24.2299652,72.3350427 C24.1662021,70.5521368 24.1662021,68.7692308 24.102439,66.9226496 L24.102439,64.1846154 C24.102439,63.2294872 24.1662021,62.4017094 24.1662021,61.5102564 C24.1662021,60.6188034 24.2299652,59.7273504 24.2937282,58.8995726 C24.3574913,58.0081197 24.4212544,57.1803419 24.4850174,56.2888889 C24.6125436,54.5696581 24.8038328,52.9777778 24.995122,51.4495726 C25.1864111,49.9213675 25.4414634,48.4568376 25.6327526,47.1196581 C26.0790941,44.4452991 26.5891986,42.2803419 26.8442509,40.6884615 C26.9080139,40.3064103 26.971777,39.924359 27.0355401,39.6696581 C27.0993031,39.3512821 27.0993031,39.0965812 27.0993031,38.9055556 C27.1630662,38.4598291 27.1630662,38.2688034 27.1630662,38.2688034 L27.1630662,38.9055556 L27.1630662,39.6696581 C27.1630662,39.9880342 27.0993031,40.3064103 27.0993031,40.6884615 C27.0355401,41.4525641 26.9080139,42.4076923 26.7804878,43.4901709 C26.6529617,44.5726496 26.5254355,45.7824786 26.3341463,47.1196581 C26.2703833,47.8200855 26.2066202,48.4568376 26.1428571,49.2209402 C26.0790941,49.9213675 25.9515679,50.6854701 25.9515679,51.4495726 C25.8240418,52.9777778 25.6965157,54.6333333 25.6327526,56.2888889 C25.5689895,57.1166667 25.5689895,57.9444444 25.5052265,58.8358974 C25.5052265,59.7273504 25.4414634,60.5551282 25.4414634,61.4465812 C25.4414634,62.3380342 25.3777003,63.2294872 25.3777003,64.1209402 C25.3777003,65.0123932 25.3777003,65.9038462 25.4414634,66.7952991 C25.4414634,68.5782051 25.4414634,70.3611111 25.5052265,72.1440171 C25.5689895,73.9269231 25.6327526,75.6461538 25.6965157,77.3017094 C25.8240418,78.957265 25.8878049,80.6128205 26.015331,82.1410256 C26.0790941,82.9051282 26.1428571,83.6692308 26.2066202,84.3696581 C26.2703833,85.0700855 26.3341463,85.7705128 26.3979094,86.4709402 C26.4616725,87.1713675 26.5254355,87.8081197 26.5891986,88.3811966 C26.6529617,89.0179487 26.7167247,89.5910256 26.7804878,90.1004274 C26.9080139,91.182906 27.0993031,92.1380342 27.2268293,92.9021368 C27.3543554,93.6662393 27.4818815,94.3029915 27.5456446,94.6850427 C27.7369338,95.3854701 27.7369338,95.5764957 27.7369338,95.5764957 Z" id="Shape" fill="#B54774"></path>
                    <path d="M28.0557491,95.1307692 C28.0557491,95.1307692 29.0121951,94.5576923 30.6062718,93.4752137 C32.2003484,92.392735 34.4320557,90.6735043 36.7912892,88.3811966 C39.1505226,86.0888889 41.7010453,83.0961538 43.6777003,79.5303419 C45.6543554,75.9645299 47.0571429,71.6982906 47.3121951,67.3683761 L47.3759582,65.7128205 C47.3759582,65.1397436 47.3759582,64.6303419 47.3121951,64.057265 L47.3121951,63.6752137 C47.3121951,63.6115385 47.3121951,63.4205128 47.2484321,63.2931624 L47.184669,62.4653846 C47.1209059,61.9559829 47.0571429,61.4465812 46.9296167,60.9371795 C46.4832753,58.8995726 45.7181185,56.8619658 44.7616725,55.0790598 C43.8052265,53.2961538 42.6574913,51.6405983 41.5097561,50.1760684 C40.2982578,48.7115385 39.0867596,47.374359 37.9390244,46.1645299 C35.643554,43.808547 33.5393728,41.8982906 32.2641115,40.4337607 C31.6264808,39.7333333 31.1163763,39.0965812 30.9250871,38.5871795 C30.7337979,38.0777778 30.797561,37.8230769 30.7337979,37.8230769 C30.7337979,37.8230769 30.7337979,38.141453 30.9250871,38.5871795 C31.1801394,39.032906 31.6902439,39.6059829 32.3916376,40.3064103 C33.7944251,41.6435897 35.9623693,43.3628205 38.4491289,45.6551282 C40.8721254,47.9474359 43.6139373,50.8128205 45.7181185,54.5696581 C46.8020906,56.4162393 47.6310105,58.5175214 48.141115,60.6824786 C48.2686411,61.2555556 48.3324042,61.8286325 48.4599303,62.4017094 L48.5236934,63.2294872 C48.5236934,63.3568376 48.5874564,63.484188 48.5874564,63.6752137 L48.5874564,64.1209402 C48.5874564,64.6940171 48.6512195,65.267094 48.6512195,65.8401709 L48.5874564,67.5594017 C48.4599303,69.8517094 48.0135889,72.0803419 47.3121951,74.1816239 C46.6108014,76.3465812 45.7181185,78.3205128 44.6341463,80.167094 C42.4662021,83.8602564 39.7881533,86.7893162 37.2376307,89.0179487 C34.687108,91.2465812 32.3278746,92.7747863 30.6700348,93.7935897 C29.0759582,94.6850427 28.0557491,95.1307692 28.0557491,95.1307692 Z" id="Shape" fill="#B54774"></path>
                    <path d="M26.0790941,95.1307692 C26.0790941,95.1307692 26.971777,94.5576923 28.3745645,93.3478632 C29.7773519,92.2017094 31.6902439,90.3551282 33.666899,87.9354701 C35.643554,85.515812 37.6202091,82.4594017 39.1505226,78.8935897 C40.6808362,75.3277778 41.6372822,71.2525641 41.8285714,67.1773504 L41.8923345,65.6491453 L41.8285714,64.1209402 L41.8285714,63.7388889 L41.8285714,63.3568376 L41.7648084,62.592735 C41.7010453,62.0833333 41.6372822,61.5739316 41.5735192,61.1282051 C41.2547038,59.1542735 40.6808362,57.2440171 39.9156794,55.4611111 C38.3853659,51.8952991 36.3449477,48.9025641 34.3682927,46.4192308 C32.4554007,43.9358974 30.6700348,41.9619658 29.5860627,40.4974359 C29.0121951,39.7333333 28.6933798,39.0965812 28.5020906,38.6508547 C28.4383275,38.3961538 28.3745645,38.2051282 28.3745645,38.0777778 L28.3745645,37.8867521 L28.3745645,38.0777778 C28.3745645,38.2051282 28.4383275,38.3961538 28.5020906,38.5871795 C28.6933798,39.032906 29.1397213,39.6059829 29.7135889,40.3064103 C30.861324,41.707265 32.774216,43.4901709 34.8783972,45.9098291 C36.9188153,48.265812 39.2142857,51.3222222 40.8721254,54.9517094 C41.7010453,56.7982906 42.338676,58.7722222 42.7212544,60.8735043 C42.7850174,61.382906 42.9125436,61.9559829 42.9125436,62.4653846 L42.9763066,63.2294872 L42.9763066,63.6115385 L42.9763066,63.9935897 L43.0400697,65.5854701 L42.9763066,67.1773504 C42.8487805,69.2786325 42.5299652,71.4435897 42.0836237,73.4811966 C41.5735192,75.5188034 40.8721254,77.492735 40.1069686,79.275641 C38.4491289,82.9051282 36.2811847,85.9615385 34.1132404,88.3175214 C32.0090592,90.6735043 29.904878,92.3290598 28.4383275,93.4752137 C27.0355401,94.6850427 26.0790941,95.1307692 26.0790941,95.1307692 Z" id="Shape" fill="#B54774"></path>
                    <path d="M26.2703833,95.1307692 C26.2703833,95.1307692 26.3979094,94.9397436 26.7167247,94.6213675 C26.971777,94.2393162 27.3543554,93.7299145 27.8644599,93.0294872 C28.1195122,92.7111111 28.3745645,92.2653846 28.6296167,91.8833333 C28.884669,91.4376068 29.1397213,90.9918803 29.4585366,90.4824786 C29.7135889,89.9730769 30.0324042,89.4 30.3512195,88.8269231 C30.6062718,88.2538462 30.9250871,87.617094 31.2439024,86.9803419 C31.4989547,86.3435897 31.81777,85.6431624 32.1365854,84.942735 C32.3916376,84.2423077 32.6466899,83.4782051 32.9655052,82.7141026 C33.2205575,81.95 33.4756098,81.1222222 33.666899,80.2944444 C33.9219512,79.4666667 34.1132404,78.6388889 34.3045296,77.7474359 C34.687108,76.0282051 35.0059233,74.1816239 35.1972125,72.3350427 C35.2609756,71.8893162 35.3247387,71.3799145 35.3885017,70.934188 C35.4522648,70.4884615 35.4522648,69.9790598 35.4522648,69.5333333 L35.5160279,68.1324786 C35.5797909,67.6867521 35.5797909,67.1773504 35.5797909,66.7316239 L35.5797909,63.8662393 C35.5797909,62.9111111 35.5160279,61.9559829 35.4522648,61.0645299 C35.2609756,59.2179487 35.0059233,57.4350427 34.5595819,55.715812 C34.1770035,53.9965812 33.666899,52.3410256 33.0930314,50.8128205 C32.5191638,49.2846154 31.9452962,47.8837607 31.3714286,46.5465812 C30.1599303,43.9358974 29.0759582,41.8346154 28.3745645,40.3064103 C28.0557491,39.5423077 27.8644599,38.9055556 27.7369338,38.4598291 C27.7369338,38.2051282 27.6731707,38.0777778 27.6731707,37.9504274 L27.6731707,37.7594017 L27.6731707,37.9504274 C27.6731707,38.0777778 27.7369338,38.2051282 27.7369338,38.4598291 C27.8644599,38.9055556 28.1195122,39.4786325 28.5020906,40.242735 C29.2672474,41.707265 30.6062718,43.7448718 31.9452962,46.2918803 C33.2843206,48.8388889 34.687108,51.9589744 35.5797909,55.4611111 C36.0261324,57.2440171 36.4087108,59.0905983 36.6,61.0008547 C36.6637631,61.9559829 36.7912892,62.9111111 36.7912892,63.8662393 L36.7912892,66.7316239 C36.7912892,67.2410256 36.7912892,67.6867521 36.7275261,68.1961538 L36.6,69.6606838 C36.5362369,70.1700855 36.5362369,70.615812 36.4724739,71.1252137 C36.4087108,71.5709402 36.3449477,72.0803419 36.2811847,72.5260684 C36.1536585,73.4811966 36.0261324,74.4363248 35.8348432,75.3277778 C35.643554,76.2192308 35.5160279,77.174359 35.2609756,78.0021368 C35.0059233,78.8935897 34.8146341,79.7213675 34.5595819,80.5491453 C34.2407666,81.3769231 33.9857143,82.2047009 33.730662,82.9688034 C33.4118467,83.732906 33.0930314,84.4970085 32.8379791,85.1974359 C32.5191638,85.8978632 32.1365854,86.5982906 31.81777,87.2350427 C31.4989547,87.8717949 31.1163763,88.4448718 30.797561,89.0816239 C30.4149826,89.6547009 30.0961672,90.1641026 29.7773519,90.6735043 C29.4585366,91.182906 29.1397213,91.6286325 28.8209059,92.0106838 C28.5020906,92.392735 28.2470383,92.7747863 27.9919861,93.0931624 C27.4818815,93.7299145 27.0355401,94.2393162 26.7167247,94.5576923 C26.4616725,95.0034188 26.2703833,95.1307692 26.2703833,95.1307692 Z" id="Shape" fill="#B54774"></path>
                    <path d="M26.5891986,95.958547 C26.5891986,95.958547 26.6529617,95.7675214 26.7804878,95.3217949 C26.9080139,94.9397436 27.0993031,94.3029915 27.2905923,93.5388889 C27.4818815,92.7747863 27.7369338,91.8196581 27.9919861,90.7371795 C28.1195122,90.2277778 28.2470383,89.5910256 28.3745645,89.0179487 C28.5020906,88.4448718 28.6296167,87.8081197 28.7571429,87.1076923 C28.884669,86.407265 28.9484321,85.7705128 29.0759582,85.0064103 C29.2034843,84.3059829 29.3310105,83.5418803 29.3947735,82.7777778 C29.5860627,81.2495726 29.7135889,79.5940171 29.904878,77.9384615 C30.0324042,76.2192308 30.0961672,74.5 30.2236934,72.717094 C30.2874564,71.825641 30.2874564,70.934188 30.2874564,70.042735 L30.2874564,67.3683761 C30.2874564,66.4769231 30.2874564,65.5854701 30.3512195,64.6940171 C30.3512195,63.8025641 30.2874564,62.9111111 30.2874564,62.0196581 C30.2236934,61.1282051 30.2236934,60.2367521 30.1599303,59.4089744 C30.0961672,58.5175214 30.0324042,57.6897436 29.9686411,56.8619658 C29.7773519,55.2064103 29.5860627,53.5508547 29.3947735,52.0226496 C29.2034843,50.4944444 28.884669,49.0299145 28.6933798,47.692735 C28.1832753,45.0183761 27.7369338,42.7897436 27.4181185,41.1978632 C27.2905923,40.4337607 27.2268293,39.7970085 27.2268293,39.3512821 L27.2268293,38.7145299 C27.2268293,38.7145299 27.2268293,38.9692308 27.2905923,39.3512821 C27.3543554,39.5423077 27.3543554,39.7970085 27.4181185,40.1153846 C27.4818815,40.4337607 27.5456446,40.7521368 27.6731707,41.134188 C28.0557491,42.6623932 28.7571429,44.8273504 29.3947735,47.5017094 C29.7135889,48.8388889 30.0324042,50.3034188 30.3512195,51.8316239 C30.6700348,53.3598291 30.9250871,55.0153846 31.1163763,56.7346154 C31.2439024,57.5623932 31.3076655,58.4538462 31.3714286,59.3452991 C31.4351916,60.2367521 31.4989547,61.1282051 31.5627178,62.0196581 C31.5627178,62.9111111 31.6264808,63.8025641 31.6264808,64.7576923 L31.6264808,67.4957265 C31.6264808,68.3871795 31.5627178,69.3423077 31.5627178,70.2337607 C31.5627178,71.1252137 31.5627178,72.0166667 31.4351916,72.9717949 C31.3076655,74.7547009 31.1163763,76.5376068 30.9888502,78.2568376 C30.797561,79.9760684 30.4787456,81.5679487 30.2874564,83.1598291 C30.0324042,84.6880342 29.6498258,86.1525641 29.3947735,87.4897436 C29.1397213,88.8269231 28.6933798,90.0367521 28.4383275,91.1192308 C28.1195122,92.2017094 27.8006969,93.0931624 27.5456446,93.857265 C27.2905923,94.6213675 27.0355401,95.1944444 26.8442509,95.5764957 C26.7167247,95.7675214 26.5891986,95.958547 26.5891986,95.958547 Z" id="Shape" fill="#B54774"></path>
                    <path d="M26.5891986,0.636752137 L26.5891986,95.1307692 L26.2703833,95.1307692 L26.0790941,95.1307692 C15.8132404,94.6213675 0.382578397,83.732906 0.382578397,66.4132479 C0.382578397,59.1542735 3.31567944,52.5320513 8.09790941,47.7564103 C11.4135889,44.4452991 15.8132404,42.917094 18.9376307,39.0965812 C21.2968641,36.2311966 20.4041812,32.474359 20.4041812,32.474359 C20.4041812,32.474359 19.9578397,29.4816239 20.9142857,29.0995726 C20.9780488,29.0995726 21.0418118,29.0358974 21.169338,29.0358974 C21.0418118,24.9606838 19.8303136,17.574359 14.1554007,8.40512821 C14.1554007,8.40512821 19.3839721,4.90299145 24.4212544,23.1141026 C23.7836237,15.4094017 23.7836237,5.92179487 26.5891986,0.636752137 Z" id="Shape" fill="#FFFFFF" opacity="0.5"></path>
                </g>
                <g id="Group" transform="translate(19.547038, 0.000000)">
                    <g id="Shape">
                        <path d="M28.0557491,27.8897436 C26.1428571,33.4931624 25.8878049,38.3324786 26.3341463,42.2166667 C26.5891986,44.3816239 27.0355401,46.2282051 27.5456446,47.7564103 C28.1195122,49.4119658 28.6933798,50.8128205 29.2034843,51.7679487 C29.2672474,51.9589744 29.3947735,52.15 29.4585366,52.2773504 L29.4585366,52.2773504 L29.4585366,52.2773504 C29.7773519,52.9777778 29.9686411,53.3598291 29.904878,53.5508547 L29.841115,53.6145299 L29.7773519,53.6145299 C29.1397213,53.6145299 28.1832753,53.2961538 26.971777,52.7230769 C25.4414634,52.0226496 23.5923345,50.9401709 21.6156794,49.6029915 C14.6655052,45.0183761 5.99372822,37.8867521 4.3358885,35.3397436 C3.50696864,34.0025641 4.01707317,33.9388889 5.41986063,33.6205128 C5.35609756,33.5568376 5.29233449,33.5568376 5.22857143,33.4931624 C2.35923345,31.7102564 0.701393728,29.0995726 1.53031359,27.7623932 C1.84912892,27.2529915 2.48675958,26.9982906 3.31567944,26.9346154 C0.828919861,25.1517094 -0.51010453,22.9230769 0.318815331,21.6495726 C0.637630662,21.0764957 1.33902439,20.8217949 2.23170732,20.8217949 C0.446341463,18.9115385 -0.318815331,16.8739316 0.51010453,15.8551282 C0.956445993,15.2820513 1.91289199,15.0910256 2.99686411,15.3457265 C1.53031359,13.0534188 1.14773519,10.7611111 2.23170732,9.86965812 C2.80557491,9.42393162 3.76202091,9.42393162 4.84599303,9.93333333 C4.5271777,7.38632479 5.1010453,5.41239316 6.31254355,5.09401709 C7.14146341,4.83931624 8.22543554,5.41239316 9.11811847,6.55854701 C9.2456446,4.90299145 9.88327526,3.69316239 10.8397213,3.50213675 C12.0512195,3.2474359 13.454007,4.58461538 14.3466899,6.68589744 C14.410453,6.74957265 14.410453,6.81324786 14.410453,6.87692308 C14.474216,6.74957265 14.6017422,6.68589744 14.6655052,6.55854701 C15.1756098,5.92179487 15.8132404,5.53974359 16.387108,5.53974359 L16.6421603,5.53974359 C17.9811847,5.73076923 18.8738676,7.8957265 18.7463415,10.6337607 C19.5752613,9.86965812 20.4679443,9.55128205 21.169338,9.86965812 C22.3808362,10.3790598 22.7634146,12.4803419 22.189547,15.0273504 C22.9547038,14.5816239 23.7198606,14.4542735 24.2937282,14.7726496 C25.6327526,15.4730769 25.5689895,18.0837607 24.3574913,20.8854701 C25.1226481,20.5034188 25.8240418,20.3760684 26.3341463,20.6944444 C27.6731707,21.3948718 27.6094077,24.1965812 26.2703833,27.0619658 C27.2905923,26.807265 28.3108014,27.0619658 28.0557491,27.8897436 Z" fill="#69BC1B"></path>
                        <path d="M18.1724739,29.9910256 C15.430662,28.3991453 13.8365854,26.1068376 14.5379791,24.7696581 C14.8567944,24.1965812 15.430662,23.9418803 16.2595819,23.8145299 C13.6452962,22.2226496 12.1787456,20.0576923 12.8801394,18.7205128 C13.1989547,18.1474359 13.8365854,17.8290598 14.7292683,17.7653846 C12.8163763,15.9824786 11.9236934,14.008547 12.6888502,12.9260684 C13.1351916,12.2893162 14.0278746,12.0982906 15.1118467,12.225641 C13.454007,9.99700855 12.9439024,7.76837607 13.9641115,6.81324786 C14.5379791,6.30384615 15.4944251,6.30384615 16.5783972,6.68589744 C16.0682927,4.32991453 16.5146341,2.35598291 17.6623693,1.8465812 C18.5550523,1.46452991 19.7665505,2.16495726 20.8505226,3.43846154 C20.9780488,1.97393162 21.4881533,0.955128205 22.3170732,0.636752137 C23.5285714,0.254700855 25.058885,1.59188034 26.1428571,3.75683761 C26.7167247,2.8017094 27.4818815,2.22863248 28.2470383,2.29230769 C29.6498258,2.41965812 30.6062718,4.52094017 30.6700348,7.25897436 C31.4351916,6.49487179 32.2641115,6.11282051 33.0292683,6.30384615 C34.3045296,6.68589744 34.8146341,8.78717949 34.4320557,11.3978632 C35.1972125,10.8884615 35.8986063,10.7611111 36.4724739,11.015812 C37.8114983,11.5888889 38.0027875,14.2632479 36.9188153,17.0649573 C37.6202091,16.6192308 38.3216028,16.4918803 38.8954704,16.7465812 C40.3620209,17.3833333 40.425784,20.4397436 39.0867596,23.5598291 C39.0229965,23.6235043 39.0229965,23.6871795 38.9592334,23.8145299 C40.2982578,23.3051282 40.7445993,23.0504274 40.8083624,24.6423077 C40.9996516,29.2269231 33.2843206,51.5132479 29.841115,53.5508547 C28.9484321,54.0602564 30.6700348,41.9619658 17.0885017,31.7739316 C16.4508711,31.2645299 17.2160279,30.4367521 18.1724739,29.9910256 Z" fill="#5DA618"></path>
                        <path d="M44.8891986,59.9183761 C46.6745645,65.6491453 44.0602787,71.6982906 38.9592334,74.4363248 C38.3853659,74.7547009 37.7477352,76.6012821 38.0027875,77.8747863 C38.2578397,79.1482906 37.7477352,79.1482906 37.7477352,79.1482906 C37.7477352,79.1482906 37.3013937,79.4029915 36.8550523,78.1931624 C36.3449477,76.9833333 34.8783972,75.8371795 34.1770035,75.9008547 L34.1770035,75.9008547 C28.4383275,76.4739316 22.8909408,72.9081197 21.1055749,67.1773504 C19.3202091,61.4465812 21.9344948,55.3974359 27.0355401,52.6594017 C27.7369338,52.2773504 28.5020906,51.9589744 29.2672474,51.7042735 L29.4585366,51.6405983 C30.2874564,51.3858974 31.0526132,51.258547 31.8815331,51.1948718 C37.556446,50.6854701 43.1038328,54.1876068 44.8891986,59.9183761 Z" fill="#992956"></path>
                    </g>
                    <path d="M29.2672474,51.7042735 L37.8114983,79.1482906 C37.8114983,79.1482906 37.3651568,79.4029915 36.9188153,78.1931624 C36.4087108,76.9833333 34.9421603,75.8371795 34.2407666,75.9008547 L34.2407666,75.9008547 C28.5020906,76.4739316 22.9547038,72.9081197 21.169338,67.1773504 C19.3839721,61.4465812 21.9982578,55.3974359 27.0993031,52.6594017 C28.6296167,51.7679487 29.2672474,51.7042735 29.2672474,51.7042735 Z" id="Shape" fill="#FFFFFF" opacity="0.5"></path>
                </g>
                <g id="Group" transform="translate(26.560976, 64.311966)">
                    <path d="M58.2794425,27.9534188 C58.4069686,27.5076923 58.2156794,27.0619658 57.769338,26.9346154 C58.0243902,26.807265 58.2156794,26.6162393 58.2794425,26.2978632 C58.3432056,25.8521368 58.0881533,25.4064103 57.6418118,25.342735 C57.8968641,25.2153846 58.0881533,24.9606838 58.0881533,24.6423077 C58.0881533,24.1965812 57.769338,23.8145299 57.3229965,23.7508547 C57.5780488,23.5598291 57.7055749,23.3051282 57.6418118,22.9867521 C57.5780488,22.5410256 57.1954704,22.2226496 56.7491289,22.2226496 C56.9404181,22.0316239 57.0679443,21.7132479 57.0041812,21.458547 C56.8766551,21.0128205 56.4940767,20.7581197 56.0477352,20.8217949 C56.2390244,20.567094 56.3027875,20.3123932 56.1752613,19.9940171 C56.0477352,19.5482906 55.5376307,19.357265 55.1550523,19.4846154 C55.2825784,19.2299145 55.3463415,18.9115385 55.1550523,18.6568376 C54.9637631,18.2747863 54.4536585,18.1474359 54.0710801,18.3384615 C54.1986063,18.0837607 54.1348432,17.7653846 54.0073171,17.5106838 C53.7522648,17.1286325 53.2421603,17.0649573 52.8595819,17.3196581 C52.9233449,17.0649573 52.8595819,16.7465812 52.6682927,16.5555556 C52.3494774,16.2371795 51.8393728,16.2371795 51.5205575,16.4918803 C51.5843206,16.2371795 51.4567944,15.9188034 51.2017422,15.7277778 C50.8829268,15.4094017 50.3090592,15.4730769 50.054007,15.8551282 C50.054007,15.6004274 49.9264808,15.2820513 49.6714286,15.1547009 C49.2888502,14.9 48.7787456,15.0273504 48.5236934,15.4094017 C48.4599303,15.1547009 48.3324042,14.9 48.0135889,14.7726496 C47.5672474,14.5816239 47.1209059,14.7726496 46.9296167,15.2183761 C46.8658537,14.9636752 46.6745645,14.7089744 46.3557491,14.6452991 C45.9094077,14.5179487 45.4630662,14.7726496 45.3355401,15.2183761 C45.2080139,14.9636752 45.0167247,14.7726496 44.6979094,14.7089744 C44.2515679,14.6452991 43.8052265,14.9636752 43.7414634,15.4094017 C43.6139373,15.1547009 43.358885,14.9636752 43.0400697,14.9636752 C42.6574913,14.9636752 42.2749129,15.2820513 42.2111498,15.6641026 L42.2111498,15.6641026 C42.2111498,15.6641026 42.2111498,15.6641026 42.1473868,15.6004274 L42.1473868,15.6004274 C42.2749129,15.3457265 42.2749129,15.0910256 42.1473868,14.9 C42.0836237,14.7089744 41.9560976,14.5816239 41.7648084,14.5179487 C41.8923345,14.5179487 42.0198606,14.4542735 42.0836237,14.3905983 C42.2111498,14.2632479 42.338676,14.1358974 42.338676,14.008547 C42.4662021,13.5628205 42.2111498,13.117094 41.8285714,12.9897436 C42.0836237,12.8623932 42.2749129,12.6713675 42.338676,12.3529915 C42.402439,11.907265 42.1473868,11.4615385 41.7010453,11.3978632 C41.9560976,11.2705128 42.1473868,11.015812 42.1473868,10.6974359 C42.1473868,10.2517094 41.8285714,9.86965812 41.38223,9.80598291 C41.6372822,9.61495726 41.7648084,9.36025641 41.7648084,9.04188034 C41.7010453,8.59615385 41.3184669,8.27777778 40.8721254,8.27777778 C41.0634146,8.08675214 41.1909408,7.76837607 41.1271777,7.51367521 C41.0634146,7.06794872 40.6170732,6.81324786 40.1707317,6.87692308 C40.3620209,6.68589744 40.425784,6.36752137 40.2982578,6.0491453 C40.1707317,5.6034188 39.6606272,5.41239316 39.2780488,5.53974359 C39.4055749,5.28504274 39.469338,4.96666667 39.2780488,4.71196581 C39.0867596,4.32991453 38.5766551,4.2025641 38.1940767,4.39358974 C38.3216028,4.13888889 38.3216028,3.82051282 38.1303136,3.56581197 C37.8752613,3.18376068 37.3651568,3.12008547 36.9825784,3.37478632 C37.0463415,3.12008547 36.9825784,2.8017094 36.7912892,2.61068376 C36.4724739,2.29230769 35.9623693,2.29230769 35.643554,2.54700855 C35.643554,2.29230769 35.5797909,1.97393162 35.3247387,1.78290598 C35.0059233,1.46452991 34.4320557,1.52820513 34.1770035,1.91025641 C34.1770035,1.65555556 34.0494774,1.33717949 33.7944251,1.20982906 C33.4118467,0.955128205 32.9017422,1.08247863 32.6466899,1.46452991 C32.5829268,1.20982906 32.4554007,0.955128205 32.1365854,0.827777778 C31.754007,0.636752137 31.2439024,0.827777778 31.0526132,1.20982906 C30.9888502,0.955128205 30.7337979,0.70042735 30.4787456,0.636752137 L30.4149826,0.636752137 C30.0324042,0.573076923 29.6498258,0.827777778 29.5222997,1.20982906 C29.3947735,0.955128205 29.2034843,0.764102564 28.884669,0.70042735 C28.4383275,0.636752137 28.0557491,0.955128205 27.928223,1.33717949 C27.8006969,1.08247863 27.5456446,0.955128205 27.2268293,0.955128205 C26.8442509,0.955128205 26.4616725,1.27350427 26.3979094,1.65555556 C26.2703833,1.52820513 26.015331,1.4008547 25.8240418,1.4008547 C25.3777003,1.4008547 24.995122,1.78290598 24.995122,2.22863248 L24.995122,2.22863248 C24.8675958,2.03760684 24.6125436,1.97393162 24.3574913,1.97393162 C23.9111498,1.97393162 23.5285714,2.35598291 23.5285714,2.8017094 C23.5285714,2.99273504 23.5923345,3.12008547 23.6560976,3.2474359 L23.6560976,3.2474359 C23.5923345,3.18376068 23.5923345,3.12008547 23.5285714,3.12008547 C23.4010453,2.99273504 23.2097561,2.92905983 23.0184669,2.92905983 C22.5721254,2.92905983 22.189547,3.31111111 22.189547,3.69316239 C22.0620209,3.69316239 21.9344948,3.75683761 21.8707317,3.82051282 C21.4881533,4.01153846 21.2968641,4.52094017 21.4881533,4.90299145 C21.233101,4.77564103 20.9142857,4.83931624 20.7229965,5.03034188 C20.3404181,5.28504274 20.2766551,5.79444444 20.5317073,6.17649573 C20.2766551,6.11282051 19.9578397,6.17649573 19.7665505,6.36752137 C19.4477352,6.68589744 19.4477352,7.19529915 19.7027875,7.51367521 C19.4477352,7.51367521 19.1289199,7.57735043 18.9376307,7.83205128 C18.6825784,8.15042735 18.6825784,8.65982906 19.0651568,8.97820513 C18.8101045,8.97820513 18.4912892,9.10555556 18.3637631,9.42393162 C18.1087108,9.80598291 18.2362369,10.3153846 18.6188153,10.5700855 C18.3637631,10.6337607 18.1087108,10.8247863 17.9811847,11.0794872 C17.7898955,11.5252137 17.9811847,11.9709402 18.3637631,12.1619658 C18.1087108,12.225641 17.8536585,12.4803419 17.7898955,12.7350427 C17.6623693,13.117094 17.8536585,13.5628205 18.2362369,13.6901709 C18.3,13.6901709 18.3,13.7538462 18.3637631,13.7538462 C18.3,13.7538462 18.3,13.8175214 18.2362369,13.8175214 C18.0449477,13.9448718 17.9174216,14.1358974 17.8536585,14.3905983 C17.8536585,14.5816239 17.9174216,14.8363248 17.9811847,14.9636752 C17.6623693,14.7726496 17.2160279,14.8363248 16.8972125,15.0910256 C16.8972125,14.8363248 16.7696864,14.5179487 16.5146341,14.3905983 C16.1320557,14.1358974 15.6219512,14.2632479 15.366899,14.6452991 C15.3031359,14.3905983 15.1118467,14.1358974 14.8567944,14.008547 C14.410453,13.8175214 13.9641115,14.008547 13.7728223,14.3905983 C13.7090592,14.1358974 13.51777,13.8811966 13.1989547,13.8175214 C12.7526132,13.6901709 12.3062718,13.9448718 12.1787456,14.3905983 C12.0512195,14.1358974 11.8599303,13.9448718 11.541115,13.8811966 C11.0947735,13.8175214 10.7121951,14.1358974 10.584669,14.5179487 C10.4571429,14.2632479 10.2020906,14.1358974 9.88327526,14.1358974 C9.50069686,14.1358974 9.11811847,14.4542735 9.0543554,14.8363248 C8.92682927,14.7089744 8.671777,14.5816239 8.4804878,14.5816239 C8.03414634,14.5816239 7.65156794,14.9636752 7.65156794,15.4094017 L7.65156794,15.4094017 C7.52404181,15.2183761 7.26898955,15.1547009 7.01393728,15.1547009 C6.56759582,15.1547009 6.18501742,15.5367521 6.18501742,15.9824786 C6.18501742,16.1098291 6.24878049,16.3008547 6.31254355,16.4282051 L6.31254355,16.4282051 C6.24878049,16.3645299 6.24878049,16.3645299 6.18501742,16.3008547 C6.05749129,16.1735043 5.86620209,16.1098291 5.67491289,16.1098291 C5.22857143,16.1098291 4.84599303,16.4918803 4.84599303,16.8739316 C4.7184669,16.8739316 4.59094077,16.9376068 4.5271777,17.0012821 C4.1445993,17.1923077 3.9533101,17.7017094 4.1445993,18.0837607 C3.88954704,17.9564103 3.57073171,18.0200855 3.37944251,18.2111111 C2.99686411,18.465812 2.93310105,18.9752137 3.18815331,19.357265 C2.93310105,19.2935897 2.61428571,19.357265 2.42299652,19.5482906 C2.10418118,19.8666667 2.10418118,20.3760684 2.35923345,20.6944444 C2.10418118,20.6944444 1.78536585,20.7581197 1.59407666,21.0128205 C1.33902439,21.3311966 1.33902439,21.8405983 1.72160279,22.1589744 C1.46655052,22.1589744 1.14773519,22.2863248 1.02020906,22.5410256 C0.765156794,22.9230769 0.892682927,23.4324786 1.27526132,23.6871795 C1.02020906,23.7508547 0.765156794,23.9418803 0.637630662,24.1965812 C0.446341463,24.6423077 0.637630662,25.0880342 1.02020906,25.2790598 C0.765156794,25.342735 0.51010453,25.5974359 0.446341463,25.8521368 C0.318815331,26.234188 0.51010453,26.6799145 0.892682927,26.807265 C0.956445993,26.807265 0.956445993,26.807265 1.02020906,26.8709402 C0.956445993,26.8709402 0.956445993,26.9346154 0.892682927,26.9346154 C0.701393728,27.0619658 0.573867596,27.2529915 0.51010453,27.5076923 C0.51010453,27.6987179 0.573867596,27.9534188 0.701393728,28.1444444 C0.828919861,28.3354701 1.02020906,28.3991453 1.21149826,28.4628205 C0.956445993,28.5901709 0.828919861,28.8448718 0.828919861,29.1632479 L0.828919861,29.2269231 C0.828919861,29.2905983 0.828919861,29.3542735 0.892682927,29.4179487 C0.956445993,29.7363248 1.21149826,29.9273504 1.53031359,29.9910256 L1.59407666,29.9910256 L1.59407666,29.9910256 C1.40278746,30.1820513 1.27526132,30.4367521 1.27526132,30.7551282 C1.33902439,31.2008547 1.72160279,31.5192308 2.16794425,31.4555556 C1.97665505,31.6465812 1.91289199,31.9649573 1.97665505,32.2196581 C2.10418118,32.6653846 2.55052265,32.9200855 2.99686411,32.792735 C2.80557491,33.0474359 2.80557491,33.3021368 2.93310105,33.6205128 C3.12439024,34.0025641 3.57073171,34.257265 4.01707317,34.0662393 C3.88954704,34.3209402 3.88954704,34.6393162 4.01707317,34.8940171 C4.27212544,35.2760684 4.7184669,35.4034188 5.16480836,35.2123932 C5.03728223,35.467094 5.1010453,35.7854701 5.29233449,36.0401709 C5.54738676,36.358547 6.05749129,36.4222222 6.44006969,36.1675214 C6.37630662,36.4222222 6.44006969,36.7405983 6.69512195,36.9316239 C7.01393728,37.25 7.52404181,37.25 7.84285714,36.9316239 C7.84285714,37.1863248 7.90662021,37.5047009 8.16167247,37.6957265 C8.54425087,37.9504274 9.0543554,37.8867521 9.30940767,37.5047009 C9.30940767,37.7594017 9.4369338,38.0777778 9.75574913,38.2051282 C10.1383275,38.3961538 10.6484321,38.2688034 10.9034843,37.8867521 C10.9672474,38.141453 11.1585366,38.3961538 11.4135889,38.5235043 C11.8599303,38.6508547 12.3062718,38.4598291 12.497561,38.0777778 C12.561324,38.3324786 12.8163763,38.5871795 13.0714286,38.6508547 C13.51777,38.7782051 13.9641115,38.4598291 14.0916376,38.0141026 C14.2191638,38.2688034 14.474216,38.4598291 14.7292683,38.4598291 C15.1756098,38.5235043 15.5581882,38.141453 15.6219512,37.6957265 C15.7494774,37.9504274 16.0682927,38.0777778 16.3233449,38.0777778 C16.7059233,38.0777778 17.0247387,37.8230769 17.0885017,37.4410256 L17.0885017,37.1863248 C17.2797909,37.3773504 17.5348432,37.5047009 17.8536585,37.4410256 C18.3,37.3773504 18.5550523,36.9952991 18.5550523,36.5495726 L18.5550523,36.4858974 C18.7463415,36.6769231 19.0651568,36.7405983 19.3839721,36.6769231 C19.8303136,36.5495726 20.0216028,36.1038462 19.8940767,35.6581197 C20.1491289,35.7854701 20.4679443,35.8491453 20.7229965,35.7217949 C21.169338,35.5307692 21.2968641,35.0213675 21.1055749,34.6393162 C21.3606272,34.7666667 21.6794425,34.7666667 21.9344948,34.575641 C22.3170732,34.3209402 22.4445993,33.8115385 22.189547,33.4294872 C22.4445993,33.4931624 22.7634146,33.4931624 22.9547038,33.3021368 C23.2735192,32.9837607 23.3372822,32.474359 23.0184669,32.1559829 C23.2735192,32.2196581 23.5923345,32.1559829 23.7836237,31.9012821 C24.102439,31.582906 24.038676,31.0735043 23.7198606,30.7551282 C23.9749129,30.7551282 24.2937282,30.6277778 24.4850174,30.3730769 C24.7400697,29.9910256 24.6125436,29.4816239 24.2299652,29.2269231 C24.4850174,29.2269231 24.8038328,29.0358974 24.9313589,28.7811966 C24.995122,28.6538462 24.995122,28.5264957 24.995122,28.3991453 L24.995122,28.2717949 C24.9313589,28.017094 24.8038328,27.7623932 24.5487805,27.6350427 C24.6763066,27.6350427 24.8038328,27.5076923 24.9313589,27.4440171 L24.9313589,27.4440171 C24.995122,27.3803419 25.1226481,27.2529915 25.1226481,27.125641 C25.2501742,26.7435897 25.1226481,26.3615385 24.8038328,26.1705128 L24.8038328,26.1705128 C24.7400697,26.1068376 24.6763066,26.1068376 24.6125436,26.0431624 C24.6763066,26.0431624 24.7400697,25.9794872 24.8038328,25.9794872 C24.995122,25.8521368 25.1226481,25.6611111 25.1226481,25.4700855 C25.1864111,25.0880342 24.995122,24.7696581 24.6763066,24.5786325 C24.6125436,24.5149573 24.5487805,24.5149573 24.4850174,24.5149573 C24.5487805,24.4512821 24.6125436,24.4512821 24.6763066,24.3876068 C24.8038328,24.2602564 24.9313589,24.0692308 24.9313589,23.8145299 L24.9313589,23.8145299 C24.995122,23.8145299 25.058885,23.7508547 25.058885,23.6871795 C25.058885,23.9418803 25.1226481,24.2602564 25.3777003,24.4512821 C25.7602787,24.7059829 26.2703833,24.6423077 26.5254355,24.2602564 C26.5254355,24.5149573 26.6529617,24.8333333 26.971777,24.9606838 C27.3543554,25.1517094 27.8644599,25.024359 28.1195122,24.6423077 C28.1832753,24.8970085 28.3745645,25.1517094 28.6296167,25.2790598 C29.0759582,25.4064103 29.5222997,25.2153846 29.7135889,24.8333333 C29.7773519,25.0880342 30.0324042,25.2790598 30.2874564,25.342735 L30.4149826,25.342735 C30.797561,25.4064103 31.1801394,25.0880342 31.3076655,24.7059829 C31.4351916,24.9606838 31.6902439,25.1517094 31.9452962,25.1517094 C32.3916376,25.2153846 32.774216,24.8333333 32.8379791,24.3876068 C32.9655052,24.6423077 33.2843206,24.7696581 33.5393728,24.7696581 C33.6031359,24.7696581 33.730662,24.7696581 33.7944251,24.7059829 C33.730662,24.7696581 33.730662,24.7696581 33.666899,24.8333333 C33.5393728,25.1517094 33.6031359,25.4700855 33.7944251,25.7247863 C33.8581882,25.7884615 33.9219512,25.8521368 34.0494774,25.915812 C33.9857143,25.915812 33.8581882,25.9794872 33.7944251,26.0431624 C33.666899,26.1705128 33.5393728,26.2978632 33.4756098,26.4888889 C33.4118467,26.807265 33.5393728,27.125641 33.7944251,27.3803419 C33.8581882,27.4440171 33.9857143,27.5076923 34.0494774,27.5076923 C33.9219512,27.5713675 33.8581882,27.6350427 33.7944251,27.6987179 L33.7944251,27.6987179 C33.666899,27.8260684 33.6031359,27.9534188 33.6031359,28.1444444 C33.6031359,28.3991453 33.666899,28.6538462 33.7944251,28.7811966 C33.9219512,28.908547 34.1132404,29.0358974 34.3045296,29.0358974 C34.0494774,29.1632479 33.9219512,29.4179487 33.9219512,29.7363248 C33.9219512,30.1820513 34.3045296,30.5641026 34.7508711,30.5641026 C34.4958188,30.7551282 34.3682927,31.0098291 34.4320557,31.3282051 C34.4958188,31.7739316 34.8783972,32.0923077 35.3885017,32.0286325 C35.1972125,32.2196581 35.0696864,32.5380342 35.1972125,32.792735 C35.3247387,33.2384615 35.7710801,33.4931624 36.2174216,33.365812 C36.0898955,33.6205128 36.0261324,33.8752137 36.1536585,34.1935897 C36.2811847,34.575641 36.6637631,34.7666667 37.0463415,34.7029915 C37.1101045,34.7029915 37.1738676,34.7029915 37.2376307,34.6393162 C37.1101045,34.8940171 37.1101045,35.2123932 37.2376307,35.467094 C37.4926829,35.8491453 37.9390244,35.9764957 38.3853659,35.7854701 C38.3216028,36.0401709 38.3216028,36.358547 38.512892,36.6132479 C38.7679443,36.9316239 39.2780488,36.9952991 39.6606272,36.7405983 C39.5968641,36.9952991 39.6606272,37.3136752 39.9156794,37.5047009 C40.2344948,37.8230769 40.7445993,37.8230769 41.0634146,37.5047009 C41.0634146,37.7594017 41.1271777,38.0777778 41.38223,38.2688034 C41.445993,38.3324786 41.5097561,38.3324786 41.6372822,38.3961538 C41.9560976,38.5235043 42.338676,38.3961538 42.5299652,38.0777778 C42.5299652,38.3324786 42.6574913,38.6508547 42.9763066,38.7782051 C43.358885,38.9692308 43.8689895,38.8418803 44.1240418,38.4598291 C44.1878049,38.7145299 44.3790941,38.9692308 44.6341463,39.0965812 C45.0804878,39.2239316 45.5268293,39.032906 45.7181185,38.6508547 C45.7818815,38.9055556 46.0369338,39.1602564 46.2919861,39.2239316 C46.7383275,39.3512821 47.184669,39.032906 47.2484321,38.5871795 C47.3759582,38.8418803 47.6310105,39.032906 47.8860627,39.032906 C48.3324042,39.0965812 48.7149826,38.7145299 48.7787456,38.3324786 C48.9062718,38.5871795 49.161324,38.7145299 49.4801394,38.7145299 C49.9264808,38.7145299 50.2452962,38.3324786 50.2452962,37.8867521 C50.4365854,38.0777778 50.6916376,38.2051282 51.010453,38.141453 C51.4567944,38.0777778 51.7118467,37.6320513 51.6480836,37.1863248 C51.8393728,37.3773504 52.1581882,37.4410256 52.4132404,37.3773504 C52.8595819,37.25 53.0508711,36.8042735 52.9233449,36.358547 C53.1783972,36.4858974 53.4334495,36.5495726 53.7522648,36.4222222 C54.1348432,36.2311966 54.3261324,35.7217949 54.1348432,35.3397436 C54.3898955,35.467094 54.7087108,35.467094 54.9637631,35.2760684 C55.3463415,35.0213675 55.4738676,34.5119658 55.2188153,34.1299145 C55.4738676,34.1935897 55.7926829,34.1935897 55.9839721,34.0025641 C56.3027875,33.684188 56.3665505,33.1747863 56.1114983,32.8564103 C56.3665505,32.9200855 56.6853659,32.8564103 56.8766551,32.6017094 C57.1954704,32.2833333 57.1317073,31.7739316 56.812892,31.4555556 C57.1317073,31.4555556 57.3867596,31.3282051 57.5780488,31.0735043 C57.833101,30.691453 57.7055749,30.1820513 57.3229965,29.9273504 C57.5780488,29.9273504 57.8968641,29.7363248 58.0243902,29.4816239 L58.0243902,29.4816239 C58.1519164,29.2269231 58.1519164,28.9722222 58.0243902,28.7811966 C57.9606272,28.5901709 57.833101,28.4628205 57.6418118,28.3991453 C57.769338,28.3991453 57.8968641,28.3354701 57.9606272,28.2081197 C58.1519164,28.2717949 58.2156794,28.1444444 58.2794425,27.9534188 Z M18.3637631,15.5367521 L18.3637631,15.5367521 C18.3637631,15.4730769 18.3,15.3457265 18.2362369,15.2820513 C18.3,15.3457265 18.4275261,15.3457265 18.4912892,15.4094017 L18.4912892,15.4094017 C18.4275261,15.4094017 18.3637631,15.4730769 18.3637631,15.5367521 Z M34.2407666,24.6423077 C34.2407666,24.5786325 34.3045296,24.5786325 34.3045296,24.5149573 C34.3682927,24.5149573 34.3682927,24.5786325 34.3682927,24.5786325 C34.3682927,24.5786325 34.3045296,24.5786325 34.2407666,24.6423077 Z" id="Shape" fill="#479706"></path>
                    <path d="M46.1644599,33.0474359 C44.6979094,34.3846154 43.4864111,35.7854701 42.4662021,37.3136752 C42.338676,37.4410256 42.2749129,37.5683761 42.2111498,37.6957265 C42.0198606,38.0141026 41.7648084,38.3324786 41.6372822,38.6508547 C41.2547038,39.2239316 40.9358885,39.8606838 40.6170732,40.4337607 C40.5533101,40.5611111 40.425784,40.7521368 40.3620209,40.8794872 C40.2344948,41.1978632 40.0432056,41.5162393 39.9156794,41.8346154 C35.8348432,51.0675214 37.6839721,60.4277778 37.6839721,60.4277778 L24.4212544,60.4277778 C24.4212544,60.4277778 25.3139373,55.3974359 23.5923345,48.2021368 C22.8271777,44.8910256 21.2968641,42.2803419 19.8940767,40.4337607 C19.7027875,40.1790598 19.4477352,39.924359 19.256446,39.6696581 C19.1289199,39.5423077 19.0013937,39.4149573 18.8738676,39.2876068 C18.1087108,38.4598291 17.4710801,37.8867521 17.0885017,37.5683761 C16.8334495,37.3773504 16.7059233,37.25 16.7059233,37.25 L16.4508711,37.0589744 L16.4508711,37.0589744 L16.387108,36.5495726 L16.2595819,35.467094 C16.6421603,35.6581197 17.0247387,35.8491453 17.4073171,36.0401709 C17.5348432,36.1038462 17.5986063,36.1675214 17.7261324,36.2311966 C17.7898955,36.2948718 17.9174216,36.358547 17.9811847,36.4222222 C18.1724739,36.5495726 18.3637631,36.6769231 18.5550523,36.8042735 L18.5550523,36.8042735 C18.6825784,36.9316239 18.8738676,36.9952991 19.0013937,37.1226496 C19.5114983,37.5047009 20.0216028,37.9504274 20.4679443,38.3961538 C20.5317073,38.4598291 20.5954704,38.5235043 20.6592334,38.5871795 C20.8505226,38.7782051 20.9780488,38.9055556 21.169338,39.0965812 C25.2501742,43.6175214 26.5891986,49.7940171 26.5891986,49.7940171 L25.6327526,36.4222222 L25.6327526,36.4222222 L25.5689895,35.467094 L25.5689895,35.2123932 L25.5689895,34.9576923 L25.2501742,31.0735043 L25.2501742,30.9461538 L25.1864111,29.8636752 L25.1864111,29.8636752 L25.1226481,29.0995726 L25.1226481,29.0995726 L25.1226481,28.8448718 L25.1226481,28.5901709 L25.1226481,28.4628205 L25.1226481,28.017094 L25.1226481,28.017094 L25.1226481,27.6350427 L25.1226481,27.6350427 L25.1226481,27.2529915 L25.058885,26.5525641 L25.058885,26.5525641 L25.058885,26.3615385 L25.058885,26.3615385 L25.058885,26.1705128 L25.058885,26.1705128 L24.9313589,24.7696581 L24.9313589,24.7696581 L24.9313589,24.5786325 L24.9313589,24.5786325 L24.8675958,24.132906 L24.8038328,23.3051282 L24.8038328,23.0504274 L24.7400697,22.4773504 L24.7400697,22.4773504 L24.4850174,19.4846154 L30.5425087,19.1662393 L34.0494774,18.9752137 L34.1132404,18.9752137 L34.1132404,19.0388889 L34.0494774,23.4961538 L34.0494774,23.8145299 L34.0494774,24.8970085 L34.0494774,24.9606838 L34.0494774,26.0431624 L34.0494774,26.0431624 L34.0494774,26.3615385 L34.0494774,27.5076923 L34.0494774,27.8897436 L34.0494774,27.9534188 L34.0494774,27.9534188 L34.0494774,28.9722222 L34.0494774,29.0358974 L34.0494774,29.9273504 L34.0494774,30.3730769 L34.0494774,30.3730769 L34.0494774,31.582906 L34.0494774,32.0286325 L34.0494774,32.0286325 L34.0494774,32.9837607 L34.0494774,32.9837607 L34.0494774,35.0850427 L34.0494774,35.5307692 L34.0494774,35.7217949 L34.0494774,36.6769231 L33.9857143,43.2354701 C34.3682927,41.3252137 35.0696864,39.4149573 35.8986063,37.6320513 L35.8986063,37.6320513 C36.0898955,37.25 36.2174216,36.9316239 36.4087108,36.6132479 C36.4724739,36.4858974 36.5362369,36.358547 36.6,36.2948718 C36.6,36.2311966 36.6637631,36.2311966 36.6637631,36.1675214 C36.7912892,35.9128205 36.9188153,35.5944444 37.1101045,35.3397436 L37.1101045,35.3397436 C37.1738676,35.2123932 37.2376307,35.0850427 37.3013937,34.9576923 L37.3013937,34.9576923 C37.3651568,34.8303419 37.4289199,34.7029915 37.556446,34.575641 L37.556446,34.575641 C37.556446,34.5119658 37.6202091,34.5119658 37.6202091,34.4482906 C37.6202091,34.3846154 37.6839721,34.3846154 37.6839721,34.3209402 C37.7477352,34.1299145 37.8752613,34.0025641 38.0027875,33.8115385 L38.0027875,33.8115385 C38.1303136,33.5568376 38.3216028,33.3021368 38.4491289,33.0474359 L38.512892,32.9837607 C38.6404181,32.792735 38.7041812,32.6653846 38.8317073,32.474359 L38.8317073,32.474359 C38.9592334,32.2196581 39.1505226,31.9649573 39.3418118,31.7739316 L39.3418118,31.7739316 L39.3418118,31.7739316 C39.5968641,31.3282051 39.9156794,30.9461538 40.1707317,30.5641026 L40.1707317,30.5641026 C40.2982578,30.3730769 40.425784,30.1820513 40.6170732,29.9910256 L40.6170732,29.9910256 C40.7445993,29.8 40.9358885,29.6089744 41.0634146,29.4179487 L41.1271777,29.3542735 C41.5097561,28.7811966 41.8923345,28.3991453 42.0836237,28.1444444 C42.1473868,28.017094 42.2111498,27.9534188 42.2749129,27.8897436 L42.2749129,27.8897436 L42.2749129,27.8897436 L42.2749129,27.8897436 L44.4428571,30.5641026 L46.1644599,33.0474359 Z" id="Shape" fill="#479706"></path>
                    <path d="M58.2794425,32.0286325 C58.4069686,31.582906 58.2156794,31.1371795 57.769338,31.0098291 C58.0243902,30.8824786 58.2156794,30.691453 58.2794425,30.3730769 C58.3432056,30.0547009 58.2156794,29.8 58.0243902,29.6089744 C57.8968641,29.4816239 57.769338,29.4179487 57.6418118,29.4179487 C57.833101,29.2905983 58.0243902,29.1632479 58.0243902,28.908547 C58.0243902,28.8448718 58.0881533,28.7811966 58.0881533,28.7175214 C58.0881533,28.5901709 58.0881533,28.4628205 58.0243902,28.3354701 C57.8968641,28.0807692 57.6418118,27.8897436 57.3229965,27.8260684 C57.5780488,27.6350427 57.7055749,27.3803419 57.6418118,27.0619658 C57.5780488,26.6162393 57.1954704,26.2978632 56.7491289,26.2978632 C56.9404181,26.1068376 57.0679443,25.7884615 57.0041812,25.5337607 C56.8766551,25.0880342 56.4940767,24.8333333 56.0477352,24.8970085 C56.2390244,24.6423077 56.3027875,24.3876068 56.1752613,24.0692308 C56.0477352,23.6235043 55.5376307,23.4324786 55.1550523,23.5598291 C55.2825784,23.3051282 55.3463415,22.9867521 55.1550523,22.7320513 C54.9637631,22.35 54.4536585,22.1589744 54.0710801,22.4136752 C54.1986063,22.1589744 54.1348432,21.8405983 54.0073171,21.5858974 C53.7522648,21.2038462 53.2421603,21.1401709 52.8595819,21.3948718 C52.9233449,21.1401709 52.8595819,20.8217949 52.6682927,20.6307692 C52.3494774,20.3123932 51.8393728,20.3123932 51.5205575,20.567094 C51.5843206,20.3123932 51.4567944,19.9940171 51.2017422,19.8029915 C50.8829268,19.5482906 50.3090592,19.6119658 50.054007,19.9303419 C50.054007,19.6119658 49.9264808,19.357265 49.6714286,19.2299145 C49.2888502,18.9752137 48.7787456,19.1025641 48.5236934,19.4846154 C48.4599303,19.2299145 48.3324042,18.9752137 48.0135889,18.8478632 C47.5672474,18.6568376 47.1209059,18.8478632 46.9296167,19.2935897 C46.8658537,19.0388889 46.6745645,18.784188 46.3557491,18.7205128 C45.9094077,18.5931624 45.4630662,18.8478632 45.3355401,19.2935897 C45.2080139,19.0388889 45.0167247,18.8478632 44.6979094,18.784188 C44.2515679,18.7205128 43.8052265,19.0388889 43.7414634,19.4846154 C43.6139373,19.2299145 43.358885,19.1025641 43.0400697,19.1025641 C42.5937282,19.1025641 42.2749129,19.4209402 42.2111498,19.8029915 C42.2111498,19.8029915 42.2111498,19.8029915 42.1473868,19.7393162 L42.1473868,19.7393162 C42.338676,19.357265 42.1473868,18.8478632 41.7648084,18.6568376 C42.0198606,18.5931624 42.2749129,18.4021368 42.402439,18.1474359 C42.5299652,17.7017094 42.2749129,17.2559829 41.8923345,17.1286325 C42.1473868,17.0012821 42.338676,16.8102564 42.402439,16.4918803 C42.4662021,16.2371795 42.338676,15.9824786 42.2111498,15.791453 C42.2111498,15.791453 42.2111498,15.791453 42.1473868,15.791453 C42.0198606,15.6641026 41.8923345,15.6004274 41.7648084,15.6004274 C41.9560976,15.4730769 42.0836237,15.3457265 42.1473868,15.0910256 C42.1473868,15.0273504 42.2111498,14.9636752 42.2111498,14.9 C42.2111498,14.7726496 42.2111498,14.6452991 42.1473868,14.5179487 C42.0198606,14.2632479 41.7648084,14.0722222 41.445993,14.008547 C41.7010453,13.8175214 41.8285714,13.5628205 41.8285714,13.2444444 C41.7648084,12.7987179 41.38223,12.4803419 40.9358885,12.4803419 C41.1271777,12.2893162 41.2547038,11.9709402 41.1909408,11.7162393 C41.1271777,11.2705128 40.6808362,11.015812 40.2344948,11.0794872 C40.425784,10.8884615 40.489547,10.5700855 40.3620209,10.2517094 C40.2344948,9.80598291 39.7243902,9.61495726 39.3418118,9.74230769 C39.469338,9.48760684 39.533101,9.16923077 39.3418118,8.91452991 C39.1505226,8.53247863 38.6404181,8.34145299 38.2578397,8.59615385 C38.3853659,8.34145299 38.3853659,8.02307692 38.1940767,7.76837607 C37.9390244,7.38632479 37.4289199,7.32264957 37.0463415,7.57735043 C37.1101045,7.32264957 37.0463415,7.0042735 36.8550523,6.81324786 C36.5362369,6.49487179 36.0261324,6.49487179 35.7073171,6.74957265 C35.7073171,6.49487179 35.643554,6.17649573 35.3885017,5.98547009 C35.0696864,5.73076923 34.4958188,5.79444444 34.2407666,6.11282051 C34.2407666,5.79444444 34.1132404,5.53974359 33.8581882,5.41239316 C33.4756098,5.15769231 32.9655052,5.28504274 32.710453,5.66709402 C32.6466899,5.41239316 32.5191638,5.15769231 32.2003484,5.03034188 C31.754007,4.83931624 31.3076655,5.03034188 31.1163763,5.47606838 C31.0526132,5.22136752 30.861324,4.96666667 30.5425087,4.90299145 L30.4787456,4.90299145 C30.0961672,4.83931624 29.7135889,5.09401709 29.5860627,5.47606838 C29.4585366,5.22136752 29.2672474,5.03034188 28.9484321,4.96666667 C28.5020906,4.90299145 28.0557491,5.22136752 27.9919861,5.66709402 C27.8644599,5.41239316 27.6094077,5.22136752 27.2905923,5.22136752 C26.9080139,5.22136752 26.5254355,5.53974359 26.4616725,5.92179487 C26.3341463,5.73076923 26.0790941,5.66709402 25.8240418,5.66709402 C25.3777003,5.66709402 24.995122,6.0491453 24.995122,6.49487179 L24.995122,6.49487179 C24.8675958,6.30384615 24.6125436,6.24017094 24.3574913,6.24017094 C23.9111498,6.24017094 23.5285714,6.62222222 23.5285714,7.06794872 C23.5285714,7.19529915 23.5923345,7.38632479 23.6560976,7.45 L23.6560976,7.57735043 C23.5285714,7.32264957 23.2735192,7.19529915 22.9547038,7.19529915 C22.5083624,7.19529915 22.125784,7.57735043 22.125784,7.95940171 C21.9982578,7.95940171 21.8707317,8.02307692 21.8069686,8.08675214 C21.4243902,8.27777778 21.233101,8.78717949 21.4881533,9.23290598 C21.233101,9.10555556 20.9142857,9.10555556 20.6592334,9.2965812 C20.2766551,9.55128205 20.212892,10.0606838 20.4679443,10.442735 C20.212892,10.3790598 19.8940767,10.442735 19.7027875,10.6337607 C19.3839721,10.9521368 19.3839721,11.4615385 19.7027875,11.7799145 C19.4477352,11.7162393 19.1289199,11.8435897 18.9376307,12.0982906 C18.6825784,12.4166667 18.6825784,12.9260684 19.0651568,13.2444444 L18.8738676,13.2444444 C18.6825784,13.3081197 18.4912892,13.4354701 18.3637631,13.6264957 C18.3637631,13.6901709 18.3,13.7538462 18.3,13.8175214 L18.3,13.9448718 C18.2362369,14.2632479 18.3637631,14.5816239 18.6825784,14.7726496 L18.6825784,14.7726496 C18.4275261,14.8363248 18.1724739,14.9636752 18.0449477,15.2820513 C17.8536585,15.7277778 18.0449477,16.1735043 18.4275261,16.3645299 C18.1724739,16.4282051 17.9174216,16.682906 17.8536585,16.9376068 C17.7261324,17.3833333 17.9811847,17.8290598 18.4275261,17.9564103 C18.1724739,18.0837607 17.9811847,18.2747863 17.9174216,18.5931624 C17.9174216,18.8478632 17.9811847,19.0388889 18.1087108,19.2299145 C17.7898955,18.9752137 17.2797909,19.0388889 17.0247387,19.357265 C17.0247387,19.0388889 16.8972125,18.784188 16.6421603,18.6568376 C16.2595819,18.4021368 15.7494774,18.5294872 15.4944251,18.9115385 C15.430662,18.6568376 15.3031359,18.4021368 14.9843206,18.2747863 C14.5379791,18.0837607 14.0916376,18.2747863 13.9003484,18.7205128 C13.8365854,18.465812 13.6452962,18.2111111 13.3264808,18.1474359 C12.8801394,18.0200855 12.4337979,18.2747863 12.3062718,18.7205128 C12.1787456,18.465812 11.9874564,18.2747863 11.6686411,18.2111111 C11.2222997,18.1474359 10.8397213,18.465812 10.7121951,18.9115385 C10.584669,18.6568376 10.3296167,18.465812 10.0108014,18.465812 C9.56445993,18.465812 9.2456446,18.784188 9.18188153,19.1662393 C9.0543554,18.9752137 8.79930314,18.9115385 8.54425087,18.9115385 C8.09790941,18.9115385 7.71533101,19.2935897 7.71533101,19.7393162 L7.71533101,19.7393162 C7.58780488,19.5482906 7.33275261,19.4846154 7.07770035,19.4846154 C6.63135889,19.4846154 6.24878049,19.8666667 6.24878049,20.3123932 C6.24878049,20.4397436 6.31254355,20.6307692 6.37630662,20.6944444 L6.37630662,20.8217949 C6.24878049,20.567094 5.99372822,20.4397436 5.67491289,20.4397436 C5.22857143,20.4397436 4.84599303,20.8217949 4.84599303,21.2038462 C4.7184669,21.2038462 4.59094077,21.2675214 4.5271777,21.3311966 C4.1445993,21.5222222 3.9533101,22.0316239 4.20836237,22.4773504 C3.9533101,22.35 3.63449477,22.35 3.37944251,22.5410256 C2.99686411,22.7957265 2.93310105,23.3051282 3.18815331,23.6871795 C2.93310105,23.6235043 2.61428571,23.6871795 2.42299652,23.8782051 C2.10418118,24.1965812 2.10418118,24.7059829 2.35923345,25.024359 C2.10418118,24.9606838 1.78536585,25.0880342 1.59407666,25.342735 C1.33902439,25.6611111 1.40278746,26.1705128 1.72160279,26.4888889 L1.59407666,26.4888889 C1.40278746,26.5525641 1.21149826,26.6799145 1.08397213,26.8709402 C1.08397213,26.9346154 1.02020906,26.9982906 1.02020906,27.0619658 L1.02020906,27.1893162 C0.956445993,27.5076923 1.08397213,27.8260684 1.40278746,28.017094 C1.21149826,28.0807692 0.956445993,28.2081197 0.828919861,28.3991453 C0.765156794,28.4628205 0.765156794,28.4628205 0.765156794,28.5264957 C0.637630662,28.8448718 0.701393728,29.2269231 0.956445993,29.4816239 C1.02020906,29.5452991 1.08397213,29.5452991 1.14773519,29.6089744 C1.08397213,29.6089744 1.02020906,29.6726496 1.02020906,29.6726496 C0.828919861,29.8 0.701393728,29.9910256 0.637630662,30.1820513 C0.51010453,30.6277778 0.765156794,31.0735043 1.21149826,31.2008547 C0.956445993,31.3282051 0.765156794,31.5192308 0.701393728,31.8376068 C0.637630662,32.2833333 0.956445993,32.6653846 1.40278746,32.792735 C1.14773519,32.9200855 1.02020906,33.1747863 1.02020906,33.4931624 C1.02020906,33.9388889 1.40278746,34.3209402 1.78536585,34.3209402 C1.59407666,34.5119658 1.46655052,34.7666667 1.46655052,35.0850427 C1.53031359,35.5307692 1.91289199,35.8491453 2.35923345,35.7854701 C2.16794425,35.9764957 2.10418118,36.2948718 2.16794425,36.5495726 C2.29547038,36.9952991 2.74181185,37.25 3.12439024,37.1226496 C2.99686411,37.3773504 2.93310105,37.6320513 3.06062718,37.9504274 C3.25191638,38.3324786 3.69825784,38.5871795 4.1445993,38.3961538 C4.01707317,38.6508547 4.01707317,38.9692308 4.1445993,39.2239316 C4.39965157,39.6059829 4.84599303,39.7333333 5.29233449,39.5423077 C5.16480836,39.7970085 5.22857143,40.1153846 5.41986063,40.3064103 C5.67491289,40.6884615 6.18501742,40.6884615 6.56759582,40.4337607 C6.50383275,40.6884615 6.63135889,41.0068376 6.82264808,41.1978632 C7.14146341,41.5162393 7.65156794,41.5162393 7.97038328,41.1978632 C7.97038328,41.4525641 8.09790941,41.7709402 8.28919861,41.8982906 C8.671777,42.1529915 9.11811847,42.0893162 9.4369338,41.7709402 C9.4369338,42.025641 9.628223,42.2803419 9.88327526,42.4713675 C10.2658537,42.6623932 10.7759582,42.5350427 10.9672474,42.1529915 C11.0310105,42.4076923 11.2222997,42.6623932 11.4773519,42.7897436 C11.9236934,42.917094 12.3700348,42.7260684 12.561324,42.3440171 C12.6250871,42.5987179 12.8801394,42.7897436 13.1351916,42.8534188 C13.5815331,42.9807692 14.0278746,42.7260684 14.0916376,42.2803419 C14.2191638,42.5350427 14.474216,42.7260684 14.7930314,42.7260684 C15.2393728,42.7897436 15.6219512,42.4713675 15.6857143,42.025641 C15.8132404,42.2803419 16.1320557,42.4076923 16.387108,42.4076923 C16.8334495,42.4076923 17.1522648,42.025641 17.1522648,41.5799145 C17.343554,41.7709402 17.5986063,41.8982906 17.9174216,41.8346154 C18.3637631,41.7709402 18.6825784,41.3252137 18.6188153,40.8794872 C18.8101045,41.0705128 19.1289199,41.134188 19.3839721,41.0068376 C19.5752613,40.9431624 19.7665505,40.815812 19.8940767,40.6247863 C19.9578397,40.4337607 20.0216028,40.242735 19.9578397,40.0517094 L19.9578397,40.0517094 C20.212892,40.1790598 20.5317073,40.242735 20.7867596,40.1153846 C21.1055749,39.9880342 21.2968641,39.6059829 21.233101,39.2876068 C21.233101,39.2239316 21.233101,39.1602564 21.169338,39.032906 C21.4243902,39.1602564 21.7432056,39.1602564 21.9982578,38.9692308 C22.3808362,38.7145299 22.5083624,38.2051282 22.2533101,37.8230769 L22.2533101,37.8230769 C22.3808362,37.8867521 22.5083624,37.8867521 22.6358885,37.8230769 C22.7634146,37.8230769 22.9547038,37.7594017 23.08223,37.6320513 C23.4010453,37.3136752 23.4648084,36.8042735 23.2097561,36.4858974 C23.4648084,36.5495726 23.7836237,36.4222222 23.9749129,36.2311966 C24.102439,36.1038462 24.1662021,35.9764957 24.1662021,35.8491453 L24.1662021,35.8491453 C24.4850174,36.1038462 24.9313589,36.1038462 25.2501742,35.7854701 C25.2501742,36.0401709 25.3777003,36.358547 25.5689895,36.5495726 C25.6327526,36.5495726 25.6965157,36.6132479 25.6965157,36.6132479 L25.6965157,36.6132479 C26.015331,36.7405983 26.4616725,36.6769231 26.6529617,36.358547 L26.6529617,36.358547 C26.6529617,36.6132479 26.7804878,36.8679487 27.0993031,37.0589744 C27.4818815,37.25 27.9919861,37.1226496 28.2470383,36.7405983 C28.3108014,36.9952991 28.5020906,37.25 28.7571429,37.3773504 C29.2034843,37.5047009 29.6498258,37.3136752 29.841115,36.9316239 C29.904878,37.1863248 30.1599303,37.3773504 30.4149826,37.4410256 L30.5425087,37.4410256 C30.9250871,37.5047009 31.3076655,37.1863248 31.4351916,36.8042735 C31.5627178,37.0589744 31.81777,37.25 32.0728223,37.25 C32.5191638,37.3136752 32.9017422,36.9316239 32.9655052,36.4858974 C33.0930314,36.7405983 33.4118467,36.8679487 33.666899,36.8679487 L33.7944251,36.8679487 C34.1770035,36.8042735 34.4320557,36.4222222 34.4320557,36.0401709 C34.5595819,36.1675214 34.6233449,36.2311966 34.7508711,36.2948718 C34.9421603,36.4858974 35.1334495,36.5495726 35.3885017,36.5495726 C35.1972125,36.7405983 35.0696864,37.0589744 35.1972125,37.3136752 C35.2609756,37.5683761 35.4522648,37.6957265 35.643554,37.8230769 C35.8348432,37.8867521 36.0261324,37.9504274 36.2174216,37.8867521 C36.0898955,38.141453 36.0261324,38.3961538 36.1536585,38.7145299 C36.3449477,39.0965812 36.7912892,39.2876068 37.2376307,39.1602564 C37.1101045,39.4149573 37.1101045,39.7333333 37.2376307,39.9880342 C37.4926829,40.3700855 37.9390244,40.4974359 38.3853659,40.3064103 C38.3216028,40.5611111 38.3216028,40.8794872 38.512892,41.134188 C38.7679443,41.5162393 39.2780488,41.5162393 39.6606272,41.2615385 C39.5968641,41.5162393 39.6606272,41.8346154 39.9156794,42.025641 L39.9156794,42.025641 C40.2344948,42.3440171 40.7445993,42.2803419 41.0634146,41.9619658 C41.0634146,42.2166667 41.1271777,42.5350427 41.38223,42.7260684 C41.7648084,42.9807692 42.2749129,42.917094 42.5299652,42.5350427 C42.5299652,42.8534188 42.6574913,43.1081197 42.9763066,43.2354701 C43.358885,43.4264957 43.8689895,43.2991453 44.1240418,42.917094 C44.1878049,43.1717949 44.3790941,43.4264957 44.6341463,43.5538462 C45.0804878,43.6811966 45.5268293,43.4901709 45.7181185,43.1081197 C45.7818815,43.3628205 46.0369338,43.6175214 46.2919861,43.6811966 C46.7383275,43.808547 47.184669,43.4901709 47.2484321,43.0444444 C47.3759582,43.2991453 47.6310105,43.4901709 47.8860627,43.4901709 C48.3324042,43.5538462 48.7149826,43.1717949 48.7787456,42.7260684 C48.9062718,42.9807692 49.161324,43.1081197 49.4801394,43.1081197 C49.9264808,43.1081197 50.2452962,42.7260684 50.2452962,42.2803419 C50.4365854,42.4713675 50.6916376,42.5987179 51.010453,42.5350427 C51.4567944,42.4713675 51.7118467,42.025641 51.6480836,41.5799145 C51.8393728,41.7709402 52.1581882,41.8346154 52.4132404,41.7709402 C52.8595819,41.6435897 53.0508711,41.1978632 52.9233449,40.7521368 C53.1783972,40.8794872 53.4334495,40.9431624 53.7522648,40.815812 C54.1348432,40.6247863 54.3261324,40.1153846 54.1348432,39.7333333 C54.3898955,39.8606838 54.7087108,39.8606838 54.9637631,39.6696581 C55.3463415,39.4149573 55.4738676,38.9055556 55.2188153,38.5235043 C55.4738676,38.5871795 55.7926829,38.5871795 55.9839721,38.3961538 C56.3027875,38.0777778 56.3665505,37.5683761 56.1114983,37.25 C56.3665505,37.3136752 56.6853659,37.25 56.8766551,36.9952991 C57.1954704,36.6769231 57.1317073,36.1675214 56.812892,35.8491453 C57.1317073,35.8491453 57.3867596,35.7217949 57.5780488,35.467094 C57.833101,35.0850427 57.7055749,34.575641 57.3229965,34.3209402 C57.5780488,34.3209402 57.8968641,34.1299145 58.0243902,33.8752137 C58.2156794,33.4931624 58.0243902,32.9837607 57.6418118,32.792735 C57.9606272,32.5380342 58.2156794,32.3470085 58.2794425,32.0286325 Z M18.5550523,19.4209402 C18.4912892,19.4846154 18.4275261,19.4846154 18.3637631,19.5482906 C18.3,19.4209402 18.2362369,19.2935897 18.1724739,19.2299145 C18.2362369,19.357265 18.3637631,19.4209402 18.5550523,19.4209402 Z" id="Shape" fill="#69BF22"></path>
                    <path d="M29.5222997,1.33717949 C29.3947735,1.08247863 29.2034843,0.891452991 28.884669,0.827777778 C28.4383275,0.764102564 28.0557491,1.08247863 27.928223,1.46452991 C27.8006969,1.20982906 27.5456446,1.08247863 27.2268293,1.08247863 C26.8442509,1.08247863 26.4616725,1.4008547 26.3979094,1.78290598 C26.2703833,1.65555556 26.015331,1.52820513 25.8240418,1.52820513 C25.3777003,1.52820513 24.995122,1.91025641 24.995122,2.35598291 L24.995122,2.35598291 C24.8675958,2.16495726 24.6125436,2.10128205 24.3574913,2.10128205 C23.9111498,2.10128205 23.5285714,2.48333333 23.5285714,2.92905983 C23.5285714,3.12008547 23.5923345,3.2474359 23.6560976,3.37478632 L23.6560976,3.37478632 C23.5923345,3.31111111 23.5923345,3.2474359 23.5285714,3.2474359 C23.4010453,3.12008547 23.2097561,3.05641026 23.0184669,3.05641026 C22.5721254,3.05641026 22.189547,3.43846154 22.189547,3.82051282 C22.0620209,3.82051282 21.9344948,3.88418803 21.8707317,3.94786325 C21.4881533,4.13888889 21.2968641,4.6482906 21.4881533,5.03034188 C21.233101,4.90299145 20.9142857,4.96666667 20.7229965,5.15769231 C20.3404181,5.41239316 20.2766551,5.92179487 20.5317073,6.30384615 C20.2766551,6.24017094 19.9578397,6.30384615 19.7665505,6.49487179 C19.4477352,6.81324786 19.4477352,7.32264957 19.7027875,7.64102564 C19.4477352,7.64102564 19.1289199,7.70470085 18.9376307,7.95940171 C18.6825784,8.27777778 18.6825784,8.78717949 19.0651568,9.10555556 C18.8101045,9.10555556 18.4912892,9.23290598 18.3637631,9.55128205 C18.1087108,9.93333333 18.2362369,10.442735 18.6188153,10.6974359 C18.3637631,10.7611111 18.1087108,10.9521368 17.9811847,11.2068376 C17.7898955,11.6525641 17.9811847,12.0982906 18.3637631,12.2893162 C18.1087108,12.3529915 17.8536585,12.6076923 17.7898955,12.8623932 C17.6623693,13.2444444 17.8536585,13.6901709 18.2362369,13.8175214 L18.2362369,13.9448718 C18.0449477,14.0722222 17.9174216,14.2632479 17.8536585,14.5179487 C17.8536585,14.7089744 17.9174216,14.9636752 17.9811847,15.0910256 C17.6623693,14.9 17.2160279,14.9636752 16.8972125,15.2183761 C16.8972125,14.9636752 16.7696864,14.6452991 16.5146341,14.5179487 C16.1320557,14.2632479 15.6219512,14.3905983 15.366899,14.7726496 C15.3031359,14.5179487 15.1118467,14.2632479 14.8567944,14.1358974 C14.410453,13.9448718 13.9641115,14.1358974 13.7728223,14.5179487 C13.7090592,14.2632479 13.51777,14.008547 13.1989547,13.9448718 C12.7526132,13.8175214 12.3062718,14.0722222 12.1787456,14.5179487 C12.0512195,14.2632479 11.8599303,14.0722222 11.541115,14.008547 C11.0947735,13.9448718 10.7121951,14.2632479 10.584669,14.6452991 C10.4571429,14.3905983 10.2020906,14.2632479 9.88327526,14.2632479 C9.50069686,14.2632479 9.11811847,14.5816239 9.0543554,14.9636752 C8.92682927,14.8363248 8.671777,14.7089744 8.4804878,14.7089744 C8.03414634,14.7089744 7.65156794,15.0910256 7.65156794,15.5367521 L7.65156794,15.5367521 C7.52404181,15.3457265 7.26898955,15.2820513 7.01393728,15.2820513 C6.56759582,15.2820513 6.18501742,15.6641026 6.18501742,16.1098291 C6.18501742,16.2371795 6.24878049,16.4282051 6.31254355,16.5555556 L6.31254355,16.5555556 C6.24878049,16.4918803 6.24878049,16.4918803 6.18501742,16.4282051 C6.05749129,16.3008547 5.86620209,16.2371795 5.67491289,16.2371795 C5.22857143,16.2371795 4.84599303,16.6192308 4.84599303,17.0012821 C4.7184669,17.0012821 4.59094077,17.0649573 4.5271777,17.1286325 C4.1445993,17.3196581 3.9533101,17.8290598 4.1445993,18.2111111 C3.88954704,18.0837607 3.57073171,18.1474359 3.37944251,18.3384615 C2.99686411,18.5931624 2.93310105,19.1025641 3.18815331,19.4846154 C2.93310105,19.4209402 2.61428571,19.4846154 2.42299652,19.675641 C2.10418118,19.9940171 2.10418118,20.5034188 2.35923345,20.8217949 C2.10418118,20.8217949 1.78536585,20.8854701 1.59407666,21.1401709 C1.33902439,21.458547 1.33902439,21.9679487 1.72160279,22.2863248 C1.46655052,22.2863248 1.14773519,22.4136752 1.02020906,22.6683761 C0.765156794,23.0504274 0.892682927,23.5598291 1.27526132,23.8145299 C1.02020906,23.8782051 0.765156794,24.0692308 0.637630662,24.3239316 C0.446341463,24.7696581 0.637630662,25.2153846 1.02020906,25.4064103 C0.765156794,25.4700855 0.51010453,25.7247863 0.446341463,25.9794872 C0.318815331,26.3615385 0.51010453,26.807265 0.892682927,26.9346154 L0.892682927,27.0619658 C0.701393728,27.1893162 0.573867596,27.3803419 0.51010453,27.6350427 C0.51010453,27.8260684 0.573867596,28.0807692 0.701393728,28.2717949 C0.637630662,28.3354701 0.637630662,28.3354701 0.637630662,28.3991453 C0.51010453,28.7175214 0.573867596,29.0995726 0.828919861,29.3542735 C0.828919861,29.4179487 0.828919861,29.4816239 0.892682927,29.5452991 C0.701393728,29.6726496 0.573867596,29.8636752 0.51010453,30.0547009 C0.382578397,30.5004274 0.637630662,30.9461538 1.08397213,31.0735043 C0.828919861,31.2008547 0.637630662,31.3918803 0.573867596,31.7102564 C0.51010453,32.1559829 0.828919861,32.5380342 1.27526132,32.6653846 C1.02020906,32.792735 0.892682927,33.0474359 0.892682927,33.365812 C0.892682927,33.8115385 1.27526132,34.1935897 1.65783972,34.1935897 C1.46655052,34.3846154 1.33902439,34.6393162 1.33902439,34.9576923 C1.40278746,35.4034188 1.78536585,35.7217949 2.23170732,35.6581197 C2.04041812,35.8491453 1.97665505,36.1675214 2.04041812,36.4222222 C2.16794425,36.8679487 2.61428571,37.1226496 2.99686411,36.9952991 C2.86933798,37.25 2.80557491,37.5047009 2.93310105,37.8230769 C3.12439024,38.2051282 3.57073171,38.4598291 4.01707317,38.2688034 C3.88954704,38.5235043 3.88954704,38.8418803 4.01707317,39.0965812 C4.27212544,39.4786325 4.7184669,39.6059829 5.16480836,39.4149573 C5.03728223,39.6696581 5.1010453,39.9880342 5.29233449,40.1790598 C5.54738676,40.5611111 6.05749129,40.5611111 6.44006969,40.3064103 C6.37630662,40.5611111 6.50383275,40.8794872 6.69512195,41.0705128 C7.01393728,41.3888889 7.52404181,41.3888889 7.84285714,41.0705128 C7.84285714,41.3252137 7.97038328,41.6435897 8.16167247,41.7709402 C8.54425087,42.025641 8.99059233,41.9619658 9.30940767,41.6435897 C9.30940767,41.8982906 9.50069686,42.1529915 9.75574913,42.3440171 C10.1383275,42.5350427 10.6484321,42.4076923 10.8397213,42.025641 C10.9034843,42.2803419 11.0947735,42.5350427 11.3498258,42.6623932 C11.7961672,42.7897436 12.2425087,42.5987179 12.4337979,42.2166667 C12.497561,42.4713675 12.7526132,42.6623932 13.0076655,42.7260684 C13.454007,42.8534188 13.9003484,42.5987179 13.9641115,42.1529915 C14.0916376,42.4076923 14.3466899,42.5987179 14.6655052,42.5987179 C15.1118467,42.6623932 15.4944251,42.3440171 15.5581882,41.8982906 C15.6857143,42.1529915 16.0045296,42.2803419 16.2595819,42.2803419 C16.7059233,42.2803419 17.0247387,41.8982906 17.0247387,41.4525641 C17.2160279,41.6435897 17.4710801,41.7709402 17.7898955,41.707265 C18.2362369,41.6435897 18.5550523,41.1978632 18.4912892,40.7521368 C18.6825784,40.9431624 19.0013937,41.0068376 19.256446,40.8794872 C19.4477352,40.815812 19.6390244,40.6884615 19.7665505,40.4974359 C21.169338,42.3440171 22.6996516,44.8910256 23.4648084,48.265812 C25.1864111,55.5247863 24.2937282,60.491453 24.2937282,60.491453 L30.3512195,60.491453 L30.3512195,0.764102564 C30.0324042,0.70042735 29.6498258,0.955128205 29.5222997,1.33717949 Z M21.169338,39.032906 C21.169338,38.9692308 21.169338,38.9055556 21.1055749,38.7782051 C21.3606272,38.9055556 21.6794425,38.9055556 21.9344948,38.7145299 C22.3170732,38.4598291 22.4445993,37.9504274 22.189547,37.5683761 L22.189547,37.5683761 C22.3170732,37.6320513 22.4445993,37.6320513 22.5721254,37.5683761 C22.6996516,37.5683761 22.8909408,37.5047009 23.0184669,37.3773504 C23.3372822,37.0589744 23.4010453,36.5495726 23.145993,36.2311966 C23.4010453,36.2948718 23.7198606,36.1675214 23.9111498,35.9764957 C24.038676,35.8491453 24.102439,35.7217949 24.102439,35.5944444 L24.102439,35.5944444 C24.4212544,35.8491453 24.8675958,35.8491453 25.1864111,35.5307692 C25.1864111,35.7854701 25.3139373,36.1038462 25.5052265,36.2948718 C25.5689895,36.2948718 25.6327526,36.358547 25.6327526,36.358547 L25.6327526,36.358547 L26.5891986,49.7303419 C26.5891986,49.7940171 25.2501742,43.6175214 21.169338,39.032906 Z" id="Shape" fill="#FFFFFF" opacity="0.5"></path>
                </g>
                <g id="Group" transform="translate(53.341463, 56.670940)">
                    <g id="Shape">
                        <path d="M38.4491289,18.5294872 L38.4491289,18.6568376 C38.4491289,18.9752137 38.4491289,19.2299145 38.3853659,19.4846154 L38.3853659,19.4846154 C37.9390244,23.1141026 34.8783972,25.915812 31.1801394,25.915812 C29.0759582,25.915812 27.2268293,25.024359 25.8878049,23.6235043 C25.8878049,23.6235043 25.8878049,23.6235043 25.8240418,23.5598291 L25.8240418,36.1038462 L19.7665505,36.1038462 L19.3202091,36.1038462 L18.8738676,36.1038462 L12.7526132,36.1038462 L12.7526132,23.6235043 C11.4135889,25.024359 9.56445993,25.8521368 7.46027875,25.8521368 C3.69825784,25.8521368 0.637630662,23.0504274 0.255052265,19.4209402 C0.191289199,19.1662393 0.191289199,18.8478632 0.191289199,18.5931624 L0.191289199,18.4021368 L0.191289199,18.0837607 C0.191289199,8.15042735 8.79930314,0.127350427 19.3202091,0.127350427 C29.904878,0.127350427 38.4491289,8.15042735 38.4491289,18.0837607 L38.4491289,18.5294872 L38.4491289,18.5294872 Z" fill="#E7E0DB"></path>
                        <path d="M12.6888502,23.6871795 L12.6250871,19.4846154 C12.6250871,19.4846154 10.8397213,17.0012821 9.8195122,18.784188 C8.92682927,20.4397436 10.5209059,22.0316239 12.6888502,23.6871795 Z" fill="#C2BFBC"></path>
                        <path d="M25.8240418,23.6871795 L25.8878049,19.4846154 C25.8878049,19.4846154 27.6731707,17.0012821 28.6933798,18.784188 C29.5860627,20.4397436 27.9919861,22.0316239 25.8240418,23.6871795 Z" fill="#C2BFBC"></path>
                    </g>
                    <path d="M19.3202091,0.191025641 L19.3202091,36.1038462 L18.8738676,36.1038462 L12.7526132,36.1038462 L12.7526132,23.6235043 C11.4135889,25.024359 9.56445993,25.8521368 7.46027875,25.8521368 C3.69825784,25.8521368 0.637630662,23.0504274 0.255052265,19.4209402 C0.191289199,19.1662393 0.191289199,18.8478632 0.191289199,18.5931624 L0.191289199,18.4021368 L0.191289199,18.0837607 C0.127526132,8.27777778 8.73554007,0.191025641 19.3202091,0.191025641 Z" id="Shape" fill="#FFFFFF" opacity="0.5"></path>
                </g>
                <g id="Group" transform="translate(66.094077, 102.517094)">
                    <path d="M20.9142857,19.0388889 C26.3979094,16.3008547 30.4149826,11.907265 32.2003484,7.25897436 C30.3512195,4.83931624 28.0557491,3.56581197 27.0993031,3.69316239 C27.0993031,3.69316239 23.6560976,0.509401709 20.9142857,0.318376068 C18.1724739,0.127350427 7.71533101,2.86538462 2.74181185,12.225641 C1.53031359,14.4542735 0.828919861,16.7465812 0.446341463,19.0388889 C5.73867596,22.4136752 13.6452962,22.6683761 20.9142857,19.0388889 Z" id="Shape" fill="#EB5903"></path>
                    <g transform="translate(0.000000, 7.004274)" id="Shape">
                        <path d="M34.1132404,3.69316239 C33.666899,2.35598291 32.9655052,1.20982906 32.2641115,0.254700855 C30.4787456,4.96666667 26.4616725,9.2965812 20.9780488,12.0346154 C13.7090592,15.6641026 5.80243902,15.4094017 0.51010453,12.0346154 C-0.573867596,18.2747863 1.08397213,24.1965812 4.01707317,27.3166667 C23.5285714,26.9982906 31.81777,9.74230769 34.1132404,3.69316239 Z" fill="#F47208"></path>
                        <path d="M34.1132404,3.69316239 C31.81777,9.67863248 23.5923345,26.9346154 3.9533101,27.3166667 C4.39965157,27.8260684 4.9097561,28.2717949 5.48362369,28.5901709 C10.5209059,31.9012821 21.8707317,32.9837607 31.1801394,18.784188 C35.2609756,12.5440171 35.3885017,7.45 34.1132404,3.69316239 Z" fill="#F59906"></path>
                    </g>
                    <ellipse id="Oval" fill="#BA6313" transform="translate(27.170922, 3.948462) rotate(-56.734244) translate(-27.170922, -3.948462) " cx="27.1709218" cy="3.94846179" rx="0.765124451" ry="2.67424593"></ellipse>
                    <path d="M28.7571429,4.83931624 C29.2672474,4.07521368 28.9484321,3.05641026 28.1832753,2.54700855 C27.3543554,2.03760684 26.3341463,2.16495726 25.8240418,2.92905983 L25.8240418,2.92905983 L28.7571429,4.83931624 C28.6933798,4.90299145 28.6933798,4.90299145 28.7571429,4.83931624 Z" id="Shape" fill="#BA6313"></path>
                </g>
                <g id="Group" transform="translate(82.034843, 88.508547)">
                    <path d="M73.5825784,15.6004274 L73.5825784,26.4252137 L42.2749129,26.4252137 L42.2749129,22.9230769 C46.228223,20.5034188 48.5874564,17.2559829 48.5874564,13.7538462 C48.5874564,6.24017094 37.6839721,0.127350427 24.2937282,0.127350427 L58.0243902,0.127350427 C60.3198606,0.127350427 62.5515679,0.636752137 64.528223,1.52820513 C67.9076655,3.05641026 70.5857143,5.73076923 72.1160279,9.10555556 C73.0724739,11.0794872 73.5825784,13.2444444 73.5825784,15.6004274 L73.5825784,15.6004274 Z" id="Shape" fill="#D88833"></path>
                    <path d="M24.3574913,0.127350427 L24.3574913,52.6594017 L8.671777,52.6594017 C7.39651568,52.6594017 6.37630662,51.6405983 6.37630662,50.367094 L6.37630662,22.9230769 C2.42299652,20.5034188 0.0637630662,17.2559829 0.0637630662,13.7538462 C0.0637630662,6.24017094 10.9672474,0.127350427 24.3574913,0.127350427 L24.3574913,0.127350427 Z" id="Shape" fill="#EFB15F"></path>
                    <path d="M18.7463415,37.5047009 C18.7463415,38.2688034 18.1087108,38.9055556 17.2797909,38.9055556 C16.5146341,38.9055556 15.8770035,38.2688034 15.8770035,37.5047009 C15.8770035,36.7405983 16.5146341,36.0401709 17.2797909,36.0401709 C18.1087108,36.0401709 18.7463415,36.6769231 18.7463415,37.5047009 L18.7463415,37.5047009 Z" id="Shape" fill="#98806A"></path>
                    <path d="M23.8473868,11.3978632 C23.8473868,12.1619658 23.2097561,12.7987179 22.4445993,12.7987179 C21.6794425,12.7987179 21.0418118,12.1619658 21.0418118,11.3978632 C21.0418118,10.6337607 21.6794425,9.99700855 22.4445993,9.99700855 C23.2097561,9.93333333 23.8473868,10.5700855 23.8473868,11.3978632 L23.8473868,11.3978632 Z" id="Shape" fill="#98806A"></path>
                    <path d="M42.338676,26.4252137 L42.338676,50.4307692 C42.338676,51.7042735 41.3184669,52.7230769 40.0432056,52.7230769 L67.2700348,52.7230769 C70.7770035,52.7230769 73.6463415,49.8576923 73.6463415,46.3555556 L73.6463415,26.4252137 L42.338676,26.4252137 L42.338676,26.4252137 Z" id="Shape" fill="#C17633"></path>
                    <path d="M42.338676,50.367094 L42.338676,26.3615385 L42.338676,22.9230769 C46.2919861,20.5034188 48.6512195,17.2559829 48.6512195,13.7538462 C48.6512195,6.24017094 37.7477352,0.127350427 24.3574913,0.127350427 L24.3574913,26.4252137 L24.3574913,52.7230769 L40.0432056,52.7230769 C41.3184669,52.6594017 42.338676,51.6405983 42.338676,50.367094 L42.338676,50.367094 Z" id="Shape" fill="#DEA254"></path>
                    <path d="M37.4289199,42.5350427 C37.4289199,43.2991453 36.7912892,43.9358974 36.0261324,43.9358974 C35.2609756,43.9358974 34.6233449,43.2991453 34.6233449,42.5350427 C34.6233449,41.7709402 35.2609756,41.134188 36.0261324,41.134188 C36.7912892,41.0705128 37.4289199,41.707265 37.4289199,42.5350427 L37.4289199,42.5350427 Z" id="Shape" fill="#98806A"></path>
                    <path d="M37.4289199,24.9606838 C37.4289199,25.7247863 36.7912892,26.3615385 36.0261324,26.3615385 C35.2609756,26.3615385 34.6233449,25.7247863 34.6233449,24.9606838 C34.6233449,24.1965812 35.2609756,23.4961538 36.0261324,23.4961538 C36.7912892,23.5598291 37.4289199,24.1965812 37.4289199,24.9606838 L37.4289199,24.9606838 Z" id="Shape" fill="#98806A"></path>
                    <path d="M25.8240418,30.3730769 C25.8240418,31.1371795 25.1864111,31.7739316 24.4212544,31.7739316 C23.6560976,31.7739316 23.0184669,31.1371795 23.0184669,30.3730769 C23.0184669,29.6089744 23.6560976,28.9722222 24.4212544,28.9722222 C25.1864111,28.9722222 25.8240418,29.6089744 25.8240418,30.3730769 L25.8240418,30.3730769 Z" id="Shape" fill="#98806A"></path>
                    <path d="M25.8240418,42.5350427 C25.8240418,43.2991453 25.1864111,43.9358974 24.4212544,43.9358974 C23.6560976,43.9358974 23.0184669,43.2991453 23.0184669,42.5350427 C23.0184669,41.7709402 23.6560976,41.134188 24.4212544,41.134188 C25.1864111,41.0705128 25.8240418,41.707265 25.8240418,42.5350427 L25.8240418,42.5350427 Z" id="Shape" fill="#98806A"></path>
                </g>
                <g id="Group" transform="translate(13.170732, 103.790598)">
                    <path d="M36.5362369,0.573076923 L36.5362369,44.4452991 C28.6296167,44.4452991 21.1055749,38.8418803 19.8940767,30.3094017 C18.1087108,17.574359 25.6327526,0.573076923 36.5362369,0.573076923 L36.5362369,0.573076923 Z" id="Shape" fill="#FCB663"></path>
                    <path d="M53.4972125,30.3094017 C52.4132404,38.141453 45.7181185,44.4452991 36.6,44.4452991 L36.6,0.573076923 C48.3961672,0.573076923 55.1550523,18.4021368 53.4972125,30.3094017 L53.4972125,30.3094017 Z" id="Shape" fill="#F9A64B"></path>
                    <path d="M20.1491289,44.2542735 C13.2627178,46.1008547 5.35609756,42.9807692 2.29547038,35.7217949 L2.29547038,35.7217949 C-0.382578397,29.3542735 -0.573867596,22.0316239 1.46655052,15.4730769 C2.80557491,11.334188 5.48362369,7.06794872 9.94703833,5.85811966 L20.1491289,44.2542735 L20.1491289,44.2542735 Z" id="Shape" fill="#FCF7C2"></path>
                    <path d="M20.1491289,44.2542735 L9.94703833,5.92179487 C10.4571429,5.92179487 16.1320557,3.56581197 23.2735192,10.9521368 C27.8006969,15.5367521 30.861324,21.5858974 31.6264808,28.017094 C32.6466899,35.7217949 27.4181185,42.4713675 20.1491289,44.2542735 L20.1491289,44.2542735 Z" id="Shape" fill="#F9F071"></path>
                    <path d="M10.9034843,20.7581197 C10.9034843,24.7059829 8.79930314,27.9534188 6.18501742,27.9534188 C3.57073171,27.9534188 1.46655052,24.7059829 1.46655052,20.7581197 C1.46655052,16.8102564 3.57073171,13.5628205 6.18501742,13.5628205 C8.79930314,13.5628205 10.9034843,16.7465812 10.9034843,20.7581197 L10.9034843,20.7581197 Z" id="Shape" fill="#FFFFFF"></path>
                </g>
            </g>
        </g>
    </g>
</svg>