<?xml version="1.0" encoding="UTF-8"?>
<svg width="486px" height="351px" viewBox="0 0 486 351" version="1.1" xmlns="http://www.w3.org/2000/svg" xmlns:xlink="http://www.w3.org/1999/xlink">
    <!-- Generator: Sketch 42 (36781) - http://www.bohemiancoding.com/sketch -->
    <title>Logo_header</title>
    <desc>Created with Sketch.</desc>
    <defs>
        <filter x="-50%" y="-50%" width="200%" height="200%" filterUnits="objectBoundingBox" id="filter-1">
            <feOffset dx="-1" dy="2" in="SourceAlpha" result="shadowOffsetOuter1"></feOffset>
            <feGaussianBlur stdDeviation="1" in="shadowOffsetOuter1" result="shadowBlurOuter1"></feGaussianBlur>
            <feColorMatrix values="0 0 0 0 0   0 0 0 0 0   0 0 0 0 0  0 0 0 0.5 0" type="matrix" in="shadowBlurOuter1" result="shadowMatrixOuter1"></feColorMatrix>
            <feMerge>
                <feMergeNode in="shadowMatrixOuter1"></feMergeNode>
                <feMergeNode in="SourceGraphic"></feMergeNode>
            </feMerge>
        </filter>
        <text id="text-2" font-family="Bevan-Regular, Bevan" font-size="27" font-weight="normal" fill="#F9F0E4">
            <tspan x="93.3375" y="219">SUKKEREFFEKTEN</tspan>
        </text>
        <filter x="-50%" y="-50%" width="200%" height="200%" filterUnits="objectBoundingBox" id="filter-3">
            <feOffset dx="-2" dy="2" in="SourceAlpha" result="shadowOffsetOuter1"></feOffset>
            <feColorMatrix values="0 0 0 0 0   0 0 0 0 0   0 0 0 0 0  0 0 0 0.5 0" type="matrix" in="shadowOffsetOuter1"></feColorMatrix>
        </filter>
        <filter x="-50%" y="-50%" width="200%" height="200%" filterUnits="objectBoundingBox" id="filter-4">
            <feOffset dx="0" dy="2" in="SourceAlpha" result="shadowOffsetOuter1"></feOffset>
            <feGaussianBlur stdDeviation="0.5" in="shadowOffsetOuter1" result="shadowBlurOuter1"></feGaussianBlur>
            <feColorMatrix values="0 0 0 0 0   0 0 0 0 0   0 0 0 0 0  0 0 0 0.5 0" type="matrix" in="shadowBlurOuter1" result="shadowMatrixOuter1"></feColorMatrix>
            <feMerge>
                <feMergeNode in="shadowMatrixOuter1"></feMergeNode>
                <feMergeNode in="SourceGraphic"></feMergeNode>
            </feMerge>
        </filter>
    </defs>
    <g id="Page-1" stroke="none" stroke-width="1" fill="none" fill-rule="evenodd">
        <g id="PINK" transform="translate(-476.000000, -279.000000)">
            <g id="Logo_header" filter="url(#filter-1)" transform="translate(479.000000, 279.000000)">
                <g id="LOGOBANNERTHING" fill-rule="nonzero">
                    <g id="Group">
                        <g transform="translate(66.637231, 0.000000)" id="Shape">
                            <polygon fill="#4692B6" points="174.244019 0 186.831052 12.829156 201.145716 2.22043085 211.758312 16.7765887 227.800609 8.38829433 235.698354 24.6714539 252.727869 18.9970195 258.157569 36.0203227 275.927498 33.0597482 278.642348 50.823195 296.659081 50.823195 296.412276 68.8333564 314.429009 71.3005018 311.467354 89.0639486 328.496869 94.4916684 322.820364 111.761686 338.86266 119.656551 330.71811 135.692996 345.279579 146.055007 334.666983 160.611165 347.50082 173.193606 334.666983 185.776048 345.279579 200.332206 330.71811 210.694216 338.86266 226.730661 322.820364 234.872241 328.496869 251.895544 311.467354 257.323264 314.429009 275.086711 296.412276 277.800571 296.659081 295.810732 278.642348 295.564018 275.927498 313.327465 258.157569 310.36689 252.727869 327.636908 235.698354 321.962473 227.800609 337.998918 211.758312 329.610624 201.145716 344.413496 186.831052 333.558057 174.244019 346.387213 161.410182 333.558057 147.095518 344.413496 136.482921 329.610624 120.68743 337.998918 112.542879 321.962473 95.5133646 327.636908 90.0836643 310.36689 72.313736 313.327465 69.5988858 295.564018 51.582153 295.810732 51.8289575 277.800571 34.0590292 275.086711 37.0206839 257.323264 19.7443648 251.895544 25.4208696 234.872241 9.37857327 226.730661 17.7699283 210.694216 2.96165472 200.332206 13.8210553 185.776048 0.740413679 173.193606 13.8210553 160.611165 2.96165472 146.055007 17.7699283 135.692996 9.37857327 119.656551 25.4208696 111.761686 19.7443648 94.4916684 37.0206839 89.0639486 34.0590292 71.3005018 51.8289575 68.8333564 51.582153 50.823195 69.5988858 50.823195 72.313736 33.0597482 90.0836643 36.0203227 95.5133646 18.9970195 112.542879 24.6714539 120.68743 8.38829433 136.482921 16.7765887 147.095518 2.22043085 161.410182 12.829156"></polygon>
                            <path d="M312.207768,173.193606 L310.726941,173.193606 C310.726941,210.940931 295.425058,244.987537 270.744602,269.658991 C246.064146,294.330445 212.005117,309.626746 174.244019,309.626746 C136.482921,309.626746 102.423892,294.330445 77.7434363,269.658991 C53.0629803,244.987537 37.7610976,210.940931 37.7610976,173.193606 C37.7610976,135.446282 53.0629803,101.399676 77.7434363,76.7282216 C102.423892,52.0567677 136.482921,36.7604663 174.244019,36.7604663 C212.005117,36.7604663 246.064146,52.0567677 270.744602,76.7282216 C295.425058,101.399676 310.726941,135.446282 310.726941,173.193606 L312.207768,173.193606 L313.688595,173.193606 C313.688595,95.9719557 251.247042,33.5531773 173.997215,33.5531773 C96.9941919,33.5531773 34.5526384,96.2186702 34.5526384,173.193606 C34.5526384,250.415257 96.9941919,312.834035 174.244019,312.834035 C251.493846,312.834035 313.9354,250.415257 313.9354,173.193606 L312.207768,173.193606 L312.207768,173.193606 Z" fill="#E8DFD4"></path>
                            <path d="M303.075999,170.973176 L303.075999,173.440321 C303.075999,175.660752 303.075999,177.634468 302.829195,179.854899 C302.829195,180.348328 303.322804,180.841757 303.816413,180.841757 C304.310022,180.841757 304.803631,180.348328 304.803631,179.854899 C304.803631,177.634468 305.050436,175.660752 305.050436,173.440321 L305.050436,170.973176 C305.050436,170.479746 304.556827,169.986317 304.063218,169.986317 C303.569608,169.739603 303.075999,170.233032 303.075999,170.973176 Z M302.088781,156.170303 C302.335586,158.14402 302.58239,160.36445 302.829195,162.338167 C302.829195,162.831596 303.322804,163.325025 304.063218,163.325025 C304.556827,163.325025 305.050436,162.831596 305.050436,162.091452 C304.803631,159.871021 304.556827,157.897305 304.310022,155.676874 C304.310022,155.183445 303.816413,154.690016 303.075999,154.690016 C302.335586,155.183445 301.841976,155.676874 302.088781,156.170303 Z M299.373931,141.86086 C299.86754,143.834576 300.361149,146.055007 300.854758,148.028723 C300.854758,148.522152 301.595172,149.015582 302.088781,148.768867 C302.58239,148.768867 303.075999,148.028723 302.829195,147.535294 C302.335586,145.314863 301.841976,143.341147 301.348367,141.367431 C301.101563,140.874002 300.607954,140.380573 300.114345,140.627287 C299.373931,140.627287 299.127126,141.367431 299.373931,141.86086 Z M294.931449,127.798131 C295.671862,129.771848 296.412276,131.745564 296.905885,133.71928 C297.15269,134.212709 297.646299,134.459424 298.139908,134.459424 C298.633517,134.212709 298.880322,133.71928 298.880322,133.225851 C298.139908,131.252135 297.399494,129.278418 296.659081,127.304702 C296.412276,126.811273 295.918667,126.564559 295.178253,126.564559 C294.931449,126.564559 294.684644,127.304702 294.931449,127.798131 Z M289.008139,114.475546 C289.995358,116.449262 290.982576,118.176264 291.72299,120.14998 C291.969794,120.64341 292.710208,120.890124 293.203817,120.64341 C293.697426,120.396695 293.944231,119.656551 293.697426,119.163122 C292.710208,117.189406 291.969794,115.21569 290.982576,113.488688 C290.735771,112.995259 289.995358,112.748544 289.501748,112.995259 C289.008139,113.241973 288.761335,113.982117 289.008139,114.475546 Z M281.604003,101.893105 C282.838025,103.620106 283.825244,105.347108 285.059266,107.320824 C285.306071,107.814254 286.046485,108.060968 286.540094,107.567539 C287.033703,107.320824 287.280507,106.580681 286.786898,106.087252 C285.79968,104.36025 284.565657,102.386534 283.331634,100.659532 C283.08483,100.166103 282.344416,100.166103 281.850807,100.412817 C281.357198,100.659532 281.110393,101.399676 281.604003,101.893105 Z M272.719038,90.0508067 C274.199866,91.531094 275.433889,93.2580957 276.667911,94.9850975 C276.914716,95.4785266 277.65513,95.4785266 278.148739,95.2318121 C278.642348,94.9850975 278.642348,94.2449539 278.395543,93.7515248 C277.161521,92.024523 275.680693,90.2975213 274.44667,88.817234 C273.953061,88.323805 273.459452,88.323805 272.965843,88.5705195 C272.472234,88.817234 272.225429,89.5573777 272.719038,90.0508067 L272.719038,90.0508067 Z M262.600051,79.4420816 C264.080879,80.9223688 265.561706,82.402656 267.042534,83.8829433 C267.536143,84.3763723 268.029752,84.3763723 268.523361,83.8829433 C269.01697,83.3895142 269.01697,82.8960851 268.523361,82.402656 C267.042534,80.9223688 265.561706,79.4420816 264.080879,77.9617943 C263.58727,77.4683652 263.093661,77.4683652 262.600051,77.9617943 C262.106442,78.2085089 262.106442,78.9486525 262.600051,79.4420816 Z M251.247042,69.8202145 C252.974674,71.0537872 254.702306,72.2873599 256.183133,73.7676472 C256.676742,74.2610762 257.417156,74.0143617 257.66396,73.5209326 C258.157569,73.0275035 257.910765,72.2873599 257.417156,72.0406454 C255.689524,70.5603582 254.208696,69.3267855 252.481065,68.0932128 C251.987455,67.8464982 251.247042,67.8464982 251.000237,68.3399273 C250.753433,68.8333564 251.000237,69.5735 251.247042,69.8202145 Z M239.153618,61.9253493 C240.88125,62.9122074 242.855687,64.1457801 244.583319,65.1326383 C245.076928,65.3793528 245.817341,65.3793528 246.064146,64.8859238 C246.310951,64.3924947 246.310951,63.6523511 245.817341,63.4056365 C244.08971,62.1720638 242.115273,61.1852057 240.387641,59.951633 C239.894032,59.7049184 239.153618,59.7049184 238.906814,60.4450621 C238.413205,60.9384911 238.660009,61.4319202 239.153618,61.9253493 Z M226.072977,55.2640567 C228.047413,56.0042004 230.02185,56.9910585 231.749482,57.9779167 C232.243091,58.2246312 232.983504,57.9779167 233.230309,57.4844876 C233.477113,56.9910585 233.230309,56.2509149 232.7367,56.0042004 C230.762263,55.0173422 228.787827,54.030484 227.060195,53.2903404 C226.566586,53.0436259 225.826172,53.2903404 225.579368,53.7837695 C225.332563,54.2771986 225.579368,55.0173422 226.072977,55.2640567 Z M212.251921,50.0830514 C214.226358,50.823195 216.200794,51.3166241 218.175231,52.0567677 C218.66884,52.3034823 219.409254,52.0567677 219.409254,51.3166241 C219.656058,50.823195 219.409254,50.0830514 218.66884,49.8363369 C216.694403,49.0961933 214.719967,48.3560496 212.498726,47.8626206 C212.005117,47.615906 211.264703,48.1093351 211.264703,48.6027642 C211.264703,49.3429078 211.758312,49.8363369 212.251921,50.0830514 Z M197.937257,46.3823333 C199.911693,46.8757624 202.132934,47.122477 204.107371,47.615906 C204.60098,47.8626206 205.341394,47.3691915 205.341394,46.8757624 C205.588198,46.3823333 205.094589,45.6421897 204.60098,45.6421897 C202.626543,45.1487606 200.405302,44.6553316 198.430866,44.408617 C197.937257,44.408617 197.196843,44.6553316 197.196843,45.1487606 C196.950039,45.8889043 197.443648,46.3823333 197.937257,46.3823333 Z M183.375788,44.6553316 C185.597029,44.9020461 187.571465,44.9020461 189.545902,45.1487606 C190.039511,45.1487606 190.53312,44.9020461 190.779925,44.1619025 C190.779925,43.6684734 190.53312,43.1750443 189.792706,42.9283298 C187.571465,42.6816152 185.597029,42.4349007 183.375788,42.4349007 C182.882179,42.4349007 182.38857,42.9283298 182.141765,43.4217589 C182.38857,44.1619025 182.882179,44.6553316 183.375788,44.6553316 L183.375788,44.6553316 Z M168.814319,44.408617 L174.244019,44.408617 L174.984433,44.408617 C175.478042,44.408617 175.971651,43.9151879 175.971651,43.4217589 C175.971651,42.9283298 175.478042,42.4349007 174.984433,42.4349007 L173.997215,42.4349007 L168.567514,42.4349007 C168.073905,42.4349007 167.580296,42.9283298 167.580296,43.4217589 C167.580296,43.9151879 168.073905,44.408617 168.814319,44.408617 Z M154.006045,45.8889043 C155.980482,45.6421897 158.201723,45.3954752 160.176159,45.1487606 C160.669768,45.1487606 161.163377,44.6553316 161.163377,43.9151879 C161.163377,43.4217589 160.669768,42.9283298 159.929355,42.9283298 C157.708114,43.1750443 155.733677,43.4217589 153.512436,43.6684734 C153.018827,43.6684734 152.525218,44.408617 152.525218,44.9020461 C153.018827,45.6421897 153.512436,45.8889043 154.006045,45.8889043 Z M139.691381,48.8494787 C141.665817,48.3560496 143.640254,47.8626206 145.861495,47.3691915 C146.355104,47.122477 146.848713,46.6290479 146.601908,46.1356188 C146.355104,45.6421897 145.861495,45.1487606 145.367886,45.3954752 C143.393449,45.8889043 141.172208,46.3823333 139.197772,46.8757624 C138.704163,47.122477 138.210553,47.615906 138.457358,48.1093351 C138.704163,48.8494787 139.197772,49.0961933 139.691381,48.8494787 Z M125.870325,53.537055 C127.844762,52.7969113 129.819198,52.0567677 131.793635,51.3166241 C132.287244,51.0699096 132.534049,50.5764805 132.534049,50.0830514 C132.287244,49.5896223 131.793635,49.3429078 131.300026,49.3429078 C129.325589,50.0830514 127.351153,50.823195 125.376716,51.5633387 C124.883107,51.8100532 124.636303,52.3034823 124.883107,53.0436259 C124.636303,53.537055 125.376716,53.7837695 125.870325,53.537055 Z M112.542879,59.951633 C114.270511,58.9647748 116.244948,57.9779167 118.219384,56.9910585 C118.712993,56.744344 118.959798,56.0042004 118.712993,55.5107713 C118.466189,55.0173422 117.725775,54.7706277 117.232166,55.0173422 C115.257729,56.0042004 113.530097,56.9910585 111.555661,57.9779167 C111.062052,58.2246312 110.815247,58.9647748 111.062052,59.4582039 C111.308856,59.951633 112.04927,60.1983475 112.542879,59.951633 Z M100.202651,67.5997837 C101.930283,66.366211 103.657915,65.1326383 105.385547,64.1457801 C105.879156,63.8990656 106.125961,63.158922 105.632352,62.6654929 C105.385547,62.1720638 104.645133,61.9253493 104.151524,62.4187784 C102.423892,63.6523511 100.449456,64.6392092 98.7218239,65.8727819 C98.2282147,66.1194965 98.2282147,66.8596401 98.4750193,67.3530691 C98.9686284,67.8464982 99.7090421,68.0932128 100.202651,67.5997837 Z M88.6028369,76.7282216 C90.0836643,75.2479344 91.8112962,74.0143617 93.2921236,72.780789 C93.7857327,72.5340745 93.7857327,71.7939309 93.5389281,71.3005018 C93.2921236,70.8070727 92.5517099,70.8070727 92.0581008,71.0537872 C90.3304688,72.2873599 88.8496415,73.7676472 87.1220096,75.2479344 C86.6284004,75.7413635 86.6284004,76.2347926 87.1220096,76.7282216 C87.3688141,76.9749362 88.1092278,77.2216507 88.6028369,76.7282216 Z M78.2370454,87.0902323 C79.7178728,85.609945 81.1987001,83.8829433 82.6795275,82.402656 C83.1731366,81.909227 83.1731366,81.4157979 82.6795275,80.9223688 C82.1859184,80.4289397 81.6923092,80.4289397 81.1987001,80.9223688 C79.7178728,82.402656 78.2370454,83.8829433 76.7562181,85.609945 C76.2626089,86.1033741 76.5094135,86.5968032 76.7562181,87.0902323 C77.0030226,87.5836613 77.7434363,87.5836613 78.2370454,87.0902323 Z M69.1052767,98.4391011 C70.3392995,96.7120993 71.5733223,94.9850975 72.8073451,93.5048103 C73.0541497,93.0113812 73.0541497,92.2712376 72.5605405,92.024523 C72.0669314,91.7778085 71.3265177,91.7778085 71.0797132,92.2712376 C69.8456904,93.9982394 68.364863,95.7252411 67.1308402,97.4522429 C66.8840357,97.945672 66.8840357,98.6858156 67.3776448,98.9325301 C68.1180585,99.1792447 68.6116676,98.9325301 69.1052767,98.4391011 Z M61.2075308,111.021543 C62.194749,109.294541 63.1819673,107.320824 64.4159901,105.593823 C64.6627946,105.100394 64.6627946,104.36025 64.1691855,104.113535 C63.6755764,103.866821 62.9351627,103.866821 62.6883582,104.36025 C61.4543354,106.087252 60.4671171,108.060968 59.4798989,109.78797 C59.2330943,110.281399 59.4798989,111.021543 59.973508,111.268257 C60.2203126,111.761686 60.9607262,111.514972 61.2075308,111.021543 Z M54.7906122,124.344128 C55.5310259,122.370411 56.5182442,120.396695 57.2586578,118.669693 C57.5054624,118.176264 57.2586578,117.436121 56.7650487,117.189406 C56.2714396,116.942691 55.5310259,117.189406 55.2842214,117.682835 C54.2970031,119.656551 53.5565894,121.630268 52.8161758,123.603984 C52.5693712,124.097413 52.8161758,124.837557 53.3097849,125.084271 C54.0501986,125.084271 54.5438077,124.837557 54.7906122,124.344128 Z M50.1013256,138.160142 C50.5949347,136.186426 51.3353484,134.212709 52.0757621,132.238993 C52.3225666,131.745564 52.0757621,131.00542 51.3353484,131.00542 C50.8417393,130.758706 50.1013256,131.00542 50.1013256,131.745564 C49.3609119,133.71928 48.8673028,135.692996 48.1268891,137.913427 C47.8800846,138.406856 48.3736937,139.147 48.8673028,139.147 C49.3609119,139.147 49.8545211,138.653571 50.1013256,138.160142 Z M46.8928663,152.469585 C47.1396709,150.495869 47.63328,148.275438 48.1268891,146.301722 C48.1268891,145.808293 47.8800846,145.068149 47.3864755,145.068149 C46.8928663,144.821434 46.1524527,145.314863 46.1524527,145.808293 C45.6588435,147.782009 45.412039,150.00244 44.9184299,151.976156 C44.9184299,152.469585 45.1652344,153.209729 45.9056481,153.209729 C46.1524527,153.456443 46.6460618,152.963014 46.8928663,152.469585 Z M45.412039,167.025743 C45.412039,164.805312 45.6588435,162.831596 45.9056481,160.857879 C45.9056481,160.36445 45.6588435,159.871021 44.9184299,159.624307 C44.4248207,159.624307 43.9312116,159.871021 43.6844071,160.611165 C43.4376025,162.831596 43.4376025,164.805312 43.1907979,167.025743 C43.1907979,167.519172 43.6844071,168.012601 44.1780162,168.012601 C44.9184299,168.012601 45.412039,167.765887 45.412039,167.025743 Z M45.412039,181.828615 C45.1652344,179.854899 45.1652344,177.634468 45.1652344,175.660752 C45.1652344,175.167323 44.6716253,174.673894 44.1780162,174.673894 C43.6844071,174.673894 43.1907979,175.167323 43.1907979,175.660752 C43.1907979,177.881183 43.1907979,179.854899 43.4376025,182.07533 C43.4376025,182.568759 43.9312116,183.062188 44.6716253,183.062188 C45.1652344,182.815473 45.412039,182.322044 45.412039,181.828615 Z M47.1396709,196.384773 C46.6460618,194.411057 46.3992572,192.190626 46.1524527,190.21691 C46.1524527,189.72348 45.6588435,189.230051 44.9184299,189.230051 C44.4248207,189.230051 43.9312116,189.72348 43.9312116,190.463624 C44.1780162,192.684055 44.4248207,194.657771 44.9184299,196.878202 C44.9184299,197.371631 45.6588435,197.86506 46.1524527,197.618346 C46.8928663,197.371631 47.3864755,196.878202 47.1396709,196.384773 Z M50.5949347,210.694216 C50.1013256,208.7205 49.3609119,206.746784 48.8673028,204.526353 C48.6204983,204.032924 48.1268891,203.539495 47.63328,203.786209 C47.1396709,204.032924 46.6460618,204.526353 46.8928663,205.019782 C47.3864755,206.993498 47.8800846,209.213929 48.6204983,211.187645 C48.8673028,211.681074 49.3609119,212.174504 49.8545211,211.927789 C50.5949347,211.681074 50.8417393,211.187645 50.5949347,210.694216 Z M55.7778305,224.263516 C55.0374168,222.2898 54.0501986,220.316083 53.3097849,218.342367 C53.0629803,217.848938 52.5693712,217.602223 51.8289575,217.848938 C51.3353484,218.095652 51.0885438,218.589082 51.0885438,219.329225 C51.8289575,221.302941 52.5693712,223.276658 53.5565894,225.250374 C53.803394,225.743803 54.2970031,225.990518 55.0374168,225.743803 C55.7778305,225.497089 56.024635,225.00366 55.7778305,224.263516 Z M62.194749,237.586101 C61.2075308,235.859099 60.2203126,233.885383 59.2330943,232.158381 C58.9862898,231.664952 58.2458761,231.418238 57.752267,231.664952 C57.2586578,231.911667 57.0118533,232.65181 57.2586578,233.145239 C58.2458761,235.118956 59.2330943,236.845957 60.2203126,238.819674 C60.4671171,239.313103 61.2075308,239.559817 61.7011399,239.313103 C62.4415536,238.572959 62.6883582,238.07953 62.194749,237.586101 Z M70.3392995,249.675113 C69.1052767,247.948112 67.8712539,246.22111 66.6372311,244.494108 C66.3904265,244.000679 65.6500129,243.753965 65.1564038,244.247394 C64.6627946,244.494108 64.4159901,245.234252 64.9095992,245.727681 C66.143622,247.454683 67.3776448,249.181684 68.6116676,250.908686 C68.8584721,251.402115 69.5988858,251.402115 70.0924949,251.155401 C70.5861041,250.908686 70.5861041,250.168543 70.3392995,249.675113 Z M79.7178728,261.023982 C78.2370454,259.543695 77.0030226,257.816693 75.5221953,256.336406 C75.0285861,255.842977 74.534977,255.842977 74.0413679,256.089691 C73.5477588,256.583121 73.5477588,257.07655 73.7945633,257.569979 C75.2753907,259.29698 76.5094135,260.777268 77.9902409,262.257555 C78.48385,262.750984 78.9774591,262.750984 79.4710682,262.257555 C79.9646773,262.257555 80.2114819,261.517411 79.7178728,261.023982 Z M90.3304688,271.139278 C88.8496415,269.658991 87.1220096,268.425418 85.6411822,266.945131 C85.1475731,266.451702 84.653964,266.451702 84.1603548,266.945131 C83.6667457,267.43856 83.6667457,267.931989 84.1603548,268.425418 C85.6411822,269.905706 87.3688141,271.385993 88.8496415,272.619566 C89.3432506,273.112995 90.0836643,272.86628 90.3304688,272.619566 C90.824078,272.372851 90.824078,271.632707 90.3304688,271.139278 Z M101.930283,280.021002 C100.202651,278.787429 98.4750193,277.553856 96.7473874,276.320284 C96.2537783,276.073569 95.5133646,276.073569 95.26656,276.566998 C95.0197555,277.060427 95.0197555,277.800571 95.5133646,278.047285 C97.2409965,279.280858 98.9686284,280.514431 100.69626,281.748004 C101.189869,281.994718 101.930283,281.994718 102.177088,281.501289 C102.670697,281.00786 102.423892,280.514431 101.930283,280.021002 Z M114.517316,287.669152 C112.542879,286.682294 110.815247,285.695436 109.087615,284.708578 C108.594006,284.461863 107.853593,284.461863 107.606788,285.202007 C107.359983,285.695436 107.359983,286.43558 108.100397,286.682294 C109.828029,287.669152 111.802466,288.902725 113.776902,289.889583 C114.270511,290.136298 115.010925,289.889583 115.257729,289.396154 C115.257729,288.656011 115.010925,287.915867 114.517316,287.669152 Z M128.091566,293.590301 C126.11713,292.850158 124.142694,292.110014 122.168257,291.123156 C121.674648,290.876441 120.934234,291.123156 120.68743,291.616585 C120.440625,292.110014 120.68743,292.850158 121.181039,293.096872 C123.155475,293.837016 125.129912,294.823874 127.104348,295.564018 C127.597957,295.810732 128.338371,295.564018 128.585176,295.070589 C128.83198,294.57716 128.585176,293.837016 128.091566,293.590301 Z M141.912622,298.031163 C139.938185,297.537734 137.963749,297.044305 135.742508,296.304161 C135.248899,296.057447 134.508485,296.550876 134.508485,297.044305 C134.26168,297.537734 134.75529,298.277878 135.248899,298.277878 C137.223335,299.018021 139.444576,299.51145 141.419013,300.004879 C141.912622,300.251594 142.653035,299.758165 142.653035,299.264736 C142.89984,298.771307 142.653035,298.277878 141.912622,298.031163 Z M156.474091,300.991738 C154.499654,300.745023 152.278413,300.251594 150.303977,300.004879 C149.810368,300.004879 149.069954,300.251594 149.069954,300.745023 C149.069954,301.238452 149.316759,301.978596 149.810368,301.978596 C151.784804,302.472025 154.006045,302.718739 156.227286,302.965454 C156.720895,302.965454 157.461309,302.718739 157.461309,301.978596 C157.461309,301.485167 156.9677,300.991738 156.474091,300.991738 Z M171.03556,302.22531 C168.814319,302.22531 166.839882,301.978596 164.865446,301.978596 C164.371837,301.978596 163.878228,302.472025 163.631423,302.965454 C163.631423,303.458883 164.125032,303.952312 164.618641,304.199027 C166.839882,304.445741 168.814319,304.445741 171.03556,304.445741 C171.529169,304.445741 172.022778,303.952312 172.022778,303.458883 C172.022778,302.718739 171.775974,302.22531 171.03556,302.22531 Z M185.843833,301.731881 C183.869397,301.978596 181.648156,301.978596 179.673719,302.22531 C179.18011,302.22531 178.686501,302.718739 178.686501,303.212168 C178.686501,303.705598 179.18011,304.199027 179.673719,304.199027 C181.89496,304.199027 183.869397,303.952312 186.090638,303.705598 C186.584247,303.705598 187.077856,303.212168 187.077856,302.472025 C186.831052,301.978596 186.337443,301.485167 185.843833,301.731881 Z M200.405302,299.51145 C198.430866,300.004879 196.209625,300.251594 194.235188,300.745023 C193.741579,300.745023 193.24797,301.485167 193.24797,301.978596 C193.24797,302.472025 193.988384,302.965454 194.481993,302.965454 C196.703234,302.718739 198.677671,302.22531 200.898912,301.731881 C201.392521,301.731881 201.88613,300.991738 201.639325,300.498309 C201.392521,299.758165 200.898912,299.51145 200.405302,299.51145 Z M214.473162,295.810732 C212.498726,296.550876 210.524289,297.044305 208.549853,297.537734 C208.056244,297.784449 207.562635,298.277878 207.809439,298.771307 C208.056244,299.264736 208.549853,299.758165 209.043462,299.51145 C211.017899,299.018021 213.23914,298.277878 215.213576,297.784449 C215.707185,297.537734 215.95399,297.044305 215.95399,296.550876 C215.707185,295.810732 214.966771,295.564018 214.473162,295.810732 Z M228.047413,290.383012 C226.072977,291.369871 224.345345,292.110014 222.370908,292.850158 C221.877299,293.096872 221.630495,293.590301 221.877299,294.330445 C222.124104,294.823874 222.617713,295.070589 223.358126,294.823874 C225.332563,294.08373 227.306999,293.096872 229.281436,292.356729 C229.775045,292.110014 230.02185,291.369871 229.775045,290.876441 C229.281436,290.383012 228.541022,290.136298 228.047413,290.383012 Z M241.128055,283.475005 C239.400423,284.461863 237.425986,285.695436 235.698354,286.682294 C235.204745,286.929009 234.957941,287.669152 235.204745,288.162582 C235.45155,288.656011 236.191964,288.902725 236.685573,288.656011 C238.660009,287.669152 240.387641,286.682294 242.115273,285.448722 C242.608882,285.202007 242.855687,284.461863 242.362078,283.968434 C242.115273,283.228291 241.621664,283.228291 241.128055,283.475005 L241.128055,283.475005 Z M253.221478,275.086711 C251.493846,276.320284 249.766214,277.553856 248.038582,278.787429 C247.544973,279.034144 247.544973,279.774287 247.791778,280.267716 C248.038582,280.761145 248.778996,280.761145 249.272605,280.514431 C251.000237,279.280858 252.727869,278.047285 254.455501,276.813713 C254.94911,276.566998 254.94911,275.826855 254.702306,275.333426 C254.208696,274.839996 253.715087,274.839996 253.221478,275.086711 Z M264.327683,265.464844 C262.846856,266.945131 261.366029,268.425418 259.638397,269.658991 C259.144788,270.15242 259.144788,270.645849 259.638397,271.139278 C260.132006,271.632707 260.625615,271.632707 261.119224,271.139278 C262.600051,269.658991 264.327683,268.178704 265.808511,266.698417 C266.30212,266.204988 266.30212,265.711559 265.808511,265.218129 C265.314902,265.218129 264.574488,265.218129 264.327683,265.464844 Z M274.199866,254.609404 C272.965843,256.336406 271.485016,257.816693 270.004188,259.29698 C269.510579,259.79041 269.757384,260.283839 270.004188,260.777268 C270.497797,261.270697 270.991407,261.023982 271.485016,260.777268 C272.965843,259.29698 274.199866,257.569979 275.680693,255.842977 C276.174302,255.349548 275.927498,254.609404 275.433889,254.36269 C275.187084,254.115975 274.44667,254.115975 274.199866,254.609404 Z M282.838025,242.767106 C281.604003,244.494108 280.616784,246.22111 279.382762,247.948112 C279.135957,248.441541 279.135957,249.181684 279.629566,249.428399 C280.123175,249.675113 280.863589,249.675113 281.110393,249.181684 C282.344416,247.454683 283.578439,245.727681 284.812462,244.000679 C285.059266,243.50725 285.059266,242.767106 284.565657,242.520392 C283.825244,242.273677 283.08483,242.273677 282.838025,242.767106 L282.838025,242.767106 Z M289.995358,229.93795 C289.008139,231.911667 288.020921,233.638668 287.033703,235.612385 C286.786898,236.105814 287.033703,236.845957 287.527312,237.092672 C288.020921,237.339387 288.761335,237.092672 289.008139,236.599243 C289.995358,234.625527 290.982576,232.898525 291.969794,230.924809 C292.216599,230.431379 291.969794,229.691236 291.476185,229.444521 C290.982576,229.197807 290.242162,229.444521 289.995358,229.93795 Z M295.671862,216.368651 C294.931449,218.342367 294.191035,220.316083 293.450621,222.2898 C293.203817,222.783229 293.450621,223.523372 293.944231,223.770087 C294.43784,224.016801 295.178253,223.770087 295.425058,223.276658 C296.165472,221.302941 296.905885,219.329225 297.646299,217.355509 C297.893104,216.86208 297.646299,216.121936 296.905885,216.121936 C296.412276,215.628507 295.918667,215.875222 295.671862,216.368651 Z M299.86754,202.305922 C299.373931,204.279638 298.880322,206.500069 298.386713,208.473785 C298.139908,208.967215 298.633517,209.707358 299.127126,209.707358 C299.620735,209.954073 300.361149,209.460644 300.361149,208.967215 C300.854758,206.993498 301.595172,204.773067 301.841976,202.799351 C302.088781,202.305922 301.595172,201.565778 301.101563,201.565778 C300.607954,201.319064 299.86754,201.812493 299.86754,202.305922 Z M302.335586,187.996479 C302.088781,189.970195 301.841976,192.190626 301.595172,194.164342 C301.595172,194.657771 301.841976,195.397915 302.58239,195.397915 C303.075999,195.397915 303.816413,195.1512 303.816413,194.411057 C304.063218,192.43734 304.556827,190.21691 304.803631,187.996479 C304.803631,187.50305 304.556827,187.009621 303.816413,186.762906 C302.829195,187.009621 302.335586,187.256335 302.335586,187.996479 Z" fill="#E8DFD4"></path>
                        </g>
                        <g transform="translate(0.000000, 167.033741)">
                            <polygon id="Shape" fill="#B74343" points="0.24680456 14.0547305 23.9400423 55.7494876 0 97.4442447 0 97.4442447 81.6923092 97.4442447 81.6923092 14.0547305"></polygon>
                            <path d="M42.6971888,20.222594 L47.3864755,20.222594 C47.8800846,20.222594 48.3736937,19.9758794 48.3736937,19.4824504 C48.3736937,18.9890213 47.8800846,18.7423067 47.3864755,18.7423067 L42.6971888,18.7423067 C42.2035797,18.7423067 41.7099706,19.2357358 41.7099706,19.4824504 C41.7099706,19.9758794 41.9567751,20.222594 42.6971888,20.222594 Z M33.3186156,20.222594 L38.0079022,20.222594 C38.5015113,20.222594 38.9951204,19.9758794 38.9951204,19.4824504 C38.9951204,18.9890213 38.5015113,18.7423067 38.0079022,18.7423067 L33.3186156,18.7423067 C32.8250064,18.7423067 32.3313973,19.2357358 32.3313973,19.4824504 C32.5782019,19.9758794 32.8250064,20.222594 33.3186156,20.222594 Z M24.1868468,20.222594 L28.8761335,20.222594 C29.3697426,20.222594 29.8633517,19.9758794 29.8633517,19.4824504 C29.8633517,18.9890213 29.3697426,18.7423067 28.8761335,18.7423067 L24.1868468,18.7423067 C23.6932377,18.7423067 23.1996286,19.2357358 23.1996286,19.4824504 C23.4464332,19.9758794 23.6932377,20.222594 24.1868468,20.222594 Z M15.0550781,20.222594 L19.7443648,20.222594 C20.2379739,20.222594 20.731583,19.9758794 20.731583,19.4824504 C20.731583,18.9890213 20.2379739,18.7423067 19.7443648,18.7423067 L15.0550781,18.7423067 C14.561469,18.7423067 14.0678599,19.2357358 14.0678599,19.4824504 C14.0678599,19.9758794 14.561469,20.222594 15.0550781,20.222594 Z M5.92330943,20.222594 L10.6125961,20.222594 C11.1062052,20.222594 11.5998143,19.9758794 11.5998143,19.4824504 C11.5998143,18.9890213 11.1062052,18.7423067 10.6125961,18.7423067 L5.92330943,18.7423067 C5.42970031,18.7423067 4.93609119,19.2357358 4.93609119,19.4824504 C4.93609119,19.9758794 5.42970031,20.222594 5.92330943,20.222594 Z" id="Shape" fill="#FFFFFF"></path>
                            <path d="M70.0924949,92.7566684 L74.7817816,92.7566684 C75.2753907,92.7566684 75.7689998,92.2632394 75.7689998,92.0165248 C75.7689998,91.5230957 75.2753907,91.2763812 74.7817816,91.2763812 L70.0924949,91.2763812 C69.5988858,91.2763812 69.1052767,91.7698103 69.1052767,92.0165248 C69.1052767,92.5099539 69.5988858,92.7566684 70.0924949,92.7566684 Z M60.9607262,92.7566684 L65.6500129,92.7566684 C66.143622,92.7566684 66.6372311,92.2632394 66.6372311,92.0165248 C66.6372311,91.5230957 66.143622,91.2763812 65.6500129,91.2763812 L60.9607262,91.2763812 C60.4671171,91.2763812 59.973508,91.7698103 59.973508,92.0165248 C59.973508,92.5099539 60.4671171,92.7566684 60.9607262,92.7566684 Z M51.8289575,92.7566684 L56.5182442,92.7566684 C57.0118533,92.7566684 57.5054624,92.2632394 57.5054624,92.0165248 C57.5054624,91.5230957 57.0118533,91.2763812 56.5182442,91.2763812 L51.8289575,91.2763812 C51.3353484,91.2763812 50.8417393,91.7698103 50.8417393,92.0165248 C50.8417393,92.5099539 51.3353484,92.7566684 51.8289575,92.7566684 Z M42.6971888,92.7566684 L47.3864755,92.7566684 C47.8800846,92.7566684 48.3736937,92.2632394 48.3736937,92.0165248 C48.3736937,91.5230957 47.8800846,91.2763812 47.3864755,91.2763812 L42.6971888,91.2763812 C42.2035797,91.2763812 41.7099706,91.7698103 41.7099706,92.0165248 C41.7099706,92.5099539 41.9567751,92.7566684 42.6971888,92.7566684 Z M33.3186156,92.7566684 L38.0079022,92.7566684 C38.5015113,92.7566684 38.9951204,92.2632394 38.9951204,92.0165248 C38.9951204,91.5230957 38.5015113,91.2763812 38.0079022,91.2763812 L33.3186156,91.2763812 C32.8250064,91.2763812 32.3313973,91.7698103 32.3313973,92.0165248 C32.5782019,92.5099539 32.8250064,92.7566684 33.3186156,92.7566684 Z M24.1868468,92.7566684 L28.8761335,92.7566684 C29.3697426,92.7566684 29.8633517,92.2632394 29.8633517,92.0165248 C29.8633517,91.5230957 29.3697426,91.2763812 28.8761335,91.2763812 L24.1868468,91.2763812 C23.6932377,91.2763812 23.1996286,91.7698103 23.1996286,92.0165248 C23.4464332,92.5099539 23.6932377,92.7566684 24.1868468,92.7566684 Z M15.0550781,92.7566684 L19.7443648,92.7566684 C20.2379739,92.7566684 20.731583,92.2632394 20.731583,92.0165248 C20.731583,91.5230957 20.2379739,91.2763812 19.7443648,91.2763812 L15.0550781,91.2763812 C14.561469,91.2763812 14.0678599,91.7698103 14.0678599,92.0165248 C14.0678599,92.5099539 14.561469,92.7566684 15.0550781,92.7566684 Z M5.92330943,92.7566684 L10.6125961,92.7566684 C11.1062052,92.7566684 11.5998143,92.2632394 11.5998143,92.0165248 C11.5998143,91.5230957 11.1062052,91.2763812 10.6125961,91.2763812 L5.92330943,91.2763812 C5.42970031,91.2763812 4.93609119,91.7698103 4.93609119,92.0165248 C4.93609119,92.5099539 5.42970031,92.7566684 5.92330943,92.7566684 Z" id="Shape" fill="#FFFFFF"></path>
                            <polygon id="Shape" fill="#B74343" points="481.515696 14.0547305 457.575654 55.7494876 481.515696 97.4442447 481.515696 97.4442447 399.823387 97.4442447 399.823387 14.0547305"></polygon>
                            <path d="M471.396709,92.7566684 L476.085996,92.7566684 C476.579605,92.7566684 477.073214,92.2632394 477.073214,92.0165248 C477.073214,91.5230957 476.579605,91.2763812 476.085996,91.2763812 L471.396709,91.2763812 C470.9031,91.2763812 470.409491,91.7698103 470.409491,92.0165248 C470.656295,92.5099539 470.9031,92.7566684 471.396709,92.7566684 Z M462.26494,92.7566684 L466.954227,92.7566684 C467.447836,92.7566684 467.941445,92.2632394 467.941445,92.0165248 C467.941445,91.5230957 467.447836,91.2763812 466.954227,91.2763812 L462.26494,91.2763812 C461.771331,91.2763812 461.277722,91.7698103 461.277722,92.0165248 C461.277722,92.5099539 461.771331,92.7566684 462.26494,92.7566684 Z M453.133172,92.7566684 L457.822458,92.7566684 C458.316067,92.7566684 458.809676,92.2632394 458.809676,92.0165248 C458.809676,91.5230957 458.316067,91.2763812 457.822458,91.2763812 L453.133172,91.2763812 C452.639562,91.2763812 452.145953,91.7698103 452.145953,92.0165248 C452.145953,92.5099539 452.639562,92.7566684 453.133172,92.7566684 Z M444.001403,92.7566684 L448.690689,92.7566684 C449.184299,92.7566684 449.677908,92.2632394 449.677908,92.0165248 C449.677908,91.5230957 449.184299,91.2763812 448.690689,91.2763812 L444.001403,91.2763812 C443.507794,91.2763812 443.014185,91.7698103 443.014185,92.0165248 C443.014185,92.5099539 443.507794,92.7566684 444.001403,92.7566684 Z M434.869634,92.7566684 L439.558921,92.7566684 C440.05253,92.7566684 440.546139,92.2632394 440.546139,92.0165248 C440.546139,91.5230957 440.05253,91.2763812 439.558921,91.2763812 L434.869634,91.2763812 C434.376025,91.2763812 433.882416,91.7698103 433.882416,92.0165248 C433.882416,92.5099539 434.376025,92.7566684 434.869634,92.7566684 Z M425.737865,92.7566684 L430.427152,92.7566684 C430.920761,92.7566684 431.41437,92.2632394 431.41437,92.0165248 C431.41437,91.5230957 430.920761,91.2763812 430.427152,91.2763812 L425.737865,91.2763812 C425.244256,91.2763812 424.750647,91.7698103 424.750647,92.0165248 C424.750647,92.5099539 425.244256,92.7566684 425.737865,92.7566684 Z M416.359292,92.7566684 L421.048579,92.7566684 C421.542188,92.7566684 422.035797,92.2632394 422.035797,92.0165248 C422.035797,91.5230957 421.542188,91.2763812 421.048579,91.2763812 L416.359292,91.2763812 C415.865683,91.2763812 415.372074,91.7698103 415.372074,92.0165248 C415.618878,92.5099539 415.865683,92.7566684 416.359292,92.7566684 Z M407.227523,92.7566684 L411.91681,92.7566684 C412.410419,92.7566684 412.904028,92.2632394 412.904028,92.0165248 C412.904028,91.5230957 412.410419,91.2763812 411.91681,91.2763812 L407.227523,91.2763812 C406.733914,91.2763812 406.240305,91.7698103 406.240305,92.0165248 C406.48711,92.5099539 406.733914,92.7566684 407.227523,92.7566684 Z" id="Shape" fill="#FFFFFF"></path>
                            <path d="M471.149904,20.222594 L475.839191,20.222594 C476.3328,20.222594 476.826409,19.9758794 476.826409,19.4824504 C476.826409,18.9890213 476.3328,18.7423067 475.839191,18.7423067 L471.149904,18.7423067 C470.656295,18.7423067 470.162686,19.2357358 470.162686,19.4824504 C470.162686,19.9758794 470.656295,20.222594 471.149904,20.222594 Z M462.018136,20.222594 L466.707422,20.222594 C467.201031,20.222594 467.694641,19.9758794 467.694641,19.4824504 C467.694641,18.9890213 467.201031,18.7423067 466.707422,18.7423067 L462.018136,18.7423067 C461.524527,18.7423067 461.030917,19.2357358 461.030917,19.4824504 C461.030917,19.9758794 461.524527,20.222594 462.018136,20.222594 Z M452.639562,20.222594 L457.328849,20.222594 C457.822458,20.222594 458.316067,19.9758794 458.316067,19.4824504 C458.316067,18.9890213 457.822458,18.7423067 457.328849,18.7423067 L452.639562,18.7423067 C452.145953,18.7423067 451.652344,19.2357358 451.652344,19.4824504 C451.899149,19.9758794 452.145953,20.222594 452.639562,20.222594 Z M443.507794,20.222594 L448.19708,20.222594 C448.690689,20.222594 449.184299,19.9758794 449.184299,19.4824504 C449.184299,18.9890213 448.690689,18.7423067 448.19708,18.7423067 L443.507794,18.7423067 C443.014185,18.7423067 442.520575,19.2357358 442.520575,19.4824504 C442.76738,19.9758794 443.014185,20.222594 443.507794,20.222594 Z M434.376025,20.222594 L439.065312,20.222594 C439.558921,20.222594 440.05253,19.9758794 440.05253,19.4824504 C440.05253,18.9890213 439.558921,18.7423067 439.065312,18.7423067 L434.376025,18.7423067 C433.882416,18.7423067 433.388807,19.2357358 433.388807,19.4824504 C433.388807,19.9758794 433.882416,20.222594 434.376025,20.222594 Z" id="Shape" fill="#FFFFFF"></path>
                            <rect id="Rectangle-path" fill="#D45353" x="47.3864755" y="0.485430851" width="387.236354" height="83.3895142"></rect>
                            <polygon id="Shape" fill="#842828" points="81.6923092 97.4442447 47.3864755 83.874945 81.6923092 83.874945"></polygon>
                            <polygon id="Shape" fill="#842828" points="399.823387 97.4442447 434.12922 83.874945 399.823387 83.874945"></polygon>
                            <g transform="translate(49.360912, 4.934291)" id="Shape" fill="#FFFFFF">
                                <path d="M377.364172,73.5129344 L382.053458,73.5129344 C382.547067,73.5129344 383.040677,73.0195053 383.040677,72.7727908 C383.040677,72.2793617 382.547067,72.0326472 382.053458,72.0326472 L377.364172,72.0326472 C376.870563,72.0326472 376.376953,72.2793617 376.376953,72.7727908 C376.623758,73.2662199 376.870563,73.5129344 377.364172,73.5129344 Z M368.232403,73.5129344 L372.92169,73.5129344 C373.415299,73.5129344 373.908908,73.0195053 373.908908,72.7727908 C373.908908,72.2793617 373.415299,72.0326472 372.92169,72.0326472 L368.232403,72.0326472 C367.738794,72.0326472 367.245185,72.2793617 367.245185,72.7727908 C367.245185,73.2662199 367.738794,73.5129344 368.232403,73.5129344 Z M359.100634,73.5129344 L363.789921,73.5129344 C364.28353,73.5129344 364.777139,73.0195053 364.777139,72.7727908 C364.777139,72.2793617 364.28353,72.0326472 363.789921,72.0326472 L359.100634,72.0326472 C358.607025,72.0326472 358.113416,72.2793617 358.113416,72.7727908 C358.113416,73.2662199 358.607025,73.5129344 359.100634,73.5129344 Z M349.968866,73.5129344 L354.658152,73.5129344 C355.151761,73.5129344 355.64537,73.0195053 355.64537,72.7727908 C355.64537,72.2793617 355.151761,72.0326472 354.658152,72.0326472 L349.968866,72.0326472 C349.475256,72.0326472 348.981647,72.2793617 348.981647,72.7727908 C348.981647,73.2662199 349.475256,73.5129344 349.968866,73.5129344 Z M340.837097,73.5129344 L345.526384,73.5129344 C346.019993,73.5129344 346.513602,73.0195053 346.513602,72.7727908 C346.513602,72.2793617 346.019993,72.0326472 345.526384,72.0326472 L340.837097,72.0326472 C340.343488,72.0326472 339.849879,72.2793617 339.849879,72.7727908 C339.849879,73.2662199 340.343488,73.5129344 340.837097,73.5129344 Z M331.705328,73.5129344 L336.394615,73.5129344 C336.888224,73.5129344 337.381833,73.0195053 337.381833,72.7727908 C337.381833,72.2793617 336.888224,72.0326472 336.394615,72.0326472 L331.705328,72.0326472 C331.211719,72.0326472 330.71811,72.2793617 330.71811,72.7727908 C330.71811,73.2662199 331.211719,73.5129344 331.705328,73.5129344 Z M322.326755,73.5129344 L327.016042,73.5129344 C327.509651,73.5129344 328.00326,73.0195053 328.00326,72.7727908 C328.00326,72.2793617 327.509651,72.0326472 327.016042,72.0326472 L322.326755,72.0326472 C321.833146,72.0326472 321.339537,72.2793617 321.339537,72.7727908 C321.586341,73.2662199 321.833146,73.5129344 322.326755,73.5129344 Z M313.194986,73.5129344 L317.884273,73.5129344 C318.377882,73.5129344 318.871491,73.0195053 318.871491,72.7727908 C318.871491,72.2793617 318.377882,72.0326472 317.884273,72.0326472 L313.194986,72.0326472 C312.701377,72.0326472 312.207768,72.2793617 312.207768,72.7727908 C312.454573,73.2662199 312.701377,73.5129344 313.194986,73.5129344 Z M304.063218,73.5129344 L308.752504,73.5129344 C309.246113,73.5129344 309.739722,73.0195053 309.739722,72.7727908 C309.739722,72.2793617 309.246113,72.0326472 308.752504,72.0326472 L304.063218,72.0326472 C303.569608,72.0326472 303.075999,72.2793617 303.075999,72.7727908 C303.075999,73.2662199 303.569608,73.5129344 304.063218,73.5129344 Z M294.931449,73.5129344 L299.620735,73.5129344 C300.114345,73.5129344 300.607954,73.0195053 300.607954,72.7727908 C300.607954,72.2793617 300.114345,72.0326472 299.620735,72.0326472 L294.931449,72.0326472 C294.43784,72.0326472 293.944231,72.2793617 293.944231,72.7727908 C293.944231,73.2662199 294.43784,73.5129344 294.931449,73.5129344 Z M285.79968,73.5129344 L290.488967,73.5129344 C290.982576,73.5129344 291.476185,73.0195053 291.476185,72.7727908 C291.476185,72.2793617 290.982576,72.0326472 290.488967,72.0326472 L285.79968,72.0326472 C285.306071,72.0326472 284.812462,72.2793617 284.812462,72.7727908 C284.812462,73.2662199 285.306071,73.5129344 285.79968,73.5129344 Z M276.667911,73.5129344 L281.357198,73.5129344 C281.850807,73.5129344 282.344416,73.0195053 282.344416,72.7727908 C282.344416,72.2793617 281.850807,72.0326472 281.357198,72.0326472 L276.667911,72.0326472 C276.174302,72.0326472 275.680693,72.2793617 275.680693,72.7727908 C275.680693,73.2662199 276.174302,73.5129344 276.667911,73.5129344 Z M267.536143,73.5129344 L272.225429,73.5129344 C272.719038,73.5129344 273.212648,73.0195053 273.212648,72.7727908 C273.212648,72.2793617 272.719038,72.0326472 272.225429,72.0326472 L267.536143,72.0326472 C267.042534,72.0326472 266.548924,72.2793617 266.548924,72.7727908 C266.548924,73.2662199 267.042534,73.5129344 267.536143,73.5129344 Z M258.157569,73.5129344 L262.846856,73.5129344 C263.340465,73.5129344 263.834074,73.0195053 263.834074,72.7727908 C263.834074,72.2793617 263.340465,72.0326472 262.846856,72.0326472 L258.157569,72.0326472 C257.66396,72.0326472 257.170351,72.2793617 257.170351,72.7727908 C257.417156,73.2662199 257.66396,73.5129344 258.157569,73.5129344 Z M249.025801,73.5129344 L253.715087,73.5129344 C254.208696,73.5129344 254.702306,73.0195053 254.702306,72.7727908 C254.702306,72.2793617 254.208696,72.0326472 253.715087,72.0326472 L249.025801,72.0326472 C248.532192,72.0326472 248.038582,72.2793617 248.038582,72.7727908 C248.285387,73.2662199 248.532192,73.5129344 249.025801,73.5129344 Z M239.894032,73.5129344 L244.583319,73.5129344 C245.076928,73.5129344 245.570537,73.0195053 245.570537,72.7727908 C245.570537,72.2793617 245.076928,72.0326472 244.583319,72.0326472 L239.894032,72.0326472 C239.400423,72.0326472 238.906814,72.2793617 238.906814,72.7727908 C238.906814,73.2662199 239.400423,73.5129344 239.894032,73.5129344 Z M230.762263,73.5129344 L235.45155,73.5129344 C235.945159,73.5129344 236.438768,73.0195053 236.438768,72.7727908 C236.438768,72.2793617 235.945159,72.0326472 235.45155,72.0326472 L230.762263,72.0326472 C230.268654,72.0326472 229.775045,72.2793617 229.775045,72.7727908 C229.775045,73.2662199 230.268654,73.5129344 230.762263,73.5129344 Z M221.630495,73.5129344 L226.319781,73.5129344 C226.81339,73.5129344 227.306999,73.0195053 227.306999,72.7727908 C227.306999,72.2793617 226.81339,72.0326472 226.319781,72.0326472 L221.630495,72.0326472 C221.136885,72.0326472 220.643276,72.2793617 220.643276,72.7727908 C220.643276,73.2662199 221.136885,73.5129344 221.630495,73.5129344 Z M212.498726,73.5129344 L217.188013,73.5129344 C217.681622,73.5129344 218.175231,73.0195053 218.175231,72.7727908 C218.175231,72.2793617 217.681622,72.0326472 217.188013,72.0326472 L212.498726,72.0326472 C212.005117,72.0326472 211.511508,72.2793617 211.511508,72.7727908 C211.511508,73.2662199 212.005117,73.5129344 212.498726,73.5129344 Z M203.366957,73.5129344 L208.056244,73.5129344 C208.549853,73.5129344 209.043462,73.0195053 209.043462,72.7727908 C209.043462,72.2793617 208.549853,72.0326472 208.056244,72.0326472 L203.366957,72.0326472 C202.873348,72.0326472 202.379739,72.2793617 202.379739,72.7727908 C202.379739,73.2662199 202.873348,73.5129344 203.366957,73.5129344 Z M193.988384,73.5129344 L198.677671,73.5129344 C199.17128,73.5129344 199.664889,73.0195053 199.664889,72.7727908 C199.664889,72.2793617 199.17128,72.0326472 198.677671,72.0326472 L193.988384,72.0326472 C193.494775,72.0326472 193.001166,72.2793617 193.001166,72.7727908 C193.24797,73.2662199 193.494775,73.5129344 193.988384,73.5129344 Z M184.856615,73.5129344 L189.545902,73.5129344 C190.039511,73.5129344 190.53312,73.0195053 190.53312,72.7727908 C190.53312,72.2793617 190.039511,72.0326472 189.545902,72.0326472 L184.856615,72.0326472 C184.363006,72.0326472 183.869397,72.2793617 183.869397,72.7727908 C184.116202,73.2662199 184.363006,73.5129344 184.856615,73.5129344 Z M175.724846,73.5129344 L180.414133,73.5129344 C180.907742,73.5129344 181.401351,73.0195053 181.401351,72.7727908 C181.401351,72.2793617 180.907742,72.0326472 180.414133,72.0326472 L175.724846,72.0326472 C175.231237,72.0326472 174.737628,72.2793617 174.737628,72.7727908 C174.737628,73.2662199 175.231237,73.5129344 175.724846,73.5129344 Z M166.593078,73.5129344 L171.282364,73.5129344 C171.775974,73.5129344 172.269583,73.0195053 172.269583,72.7727908 C172.269583,72.2793617 171.775974,72.0326472 171.282364,72.0326472 L166.593078,72.0326472 C166.099469,72.0326472 165.60586,72.2793617 165.60586,72.7727908 C165.60586,73.2662199 166.099469,73.5129344 166.593078,73.5129344 Z M157.461309,73.5129344 L162.150596,73.5129344 C162.644205,73.5129344 163.137814,73.0195053 163.137814,72.7727908 C163.137814,72.2793617 162.644205,72.0326472 162.150596,72.0326472 L157.461309,72.0326472 C156.9677,72.0326472 156.474091,72.2793617 156.474091,72.7727908 C156.474091,73.2662199 156.9677,73.5129344 157.461309,73.5129344 Z M148.32954,73.5129344 L153.018827,73.5129344 C153.512436,73.5129344 154.006045,73.0195053 154.006045,72.7727908 C154.006045,72.2793617 153.512436,72.0326472 153.018827,72.0326472 L148.32954,72.0326472 C147.835931,72.0326472 147.342322,72.2793617 147.342322,72.7727908 C147.342322,73.2662199 147.835931,73.5129344 148.32954,73.5129344 Z M139.197772,73.5129344 L143.887058,73.5129344 C144.380667,73.5129344 144.874277,73.0195053 144.874277,72.7727908 C144.874277,72.2793617 144.380667,72.0326472 143.887058,72.0326472 L139.197772,72.0326472 C138.704163,72.0326472 138.210553,72.2793617 138.210553,72.7727908 C138.210553,73.2662199 138.704163,73.5129344 139.197772,73.5129344 Z M130.066003,73.5129344 L134.75529,73.5129344 C135.248899,73.5129344 135.742508,73.0195053 135.742508,72.7727908 C135.742508,72.2793617 135.248899,72.0326472 134.75529,72.0326472 L130.066003,72.0326472 C129.572394,72.0326472 129.078785,72.2793617 129.078785,72.7727908 C129.078785,73.2662199 129.325589,73.5129344 130.066003,73.5129344 Z M120.68743,73.5129344 L125.376716,73.5129344 C125.870325,73.5129344 126.363935,73.0195053 126.363935,72.7727908 C126.363935,72.2793617 125.870325,72.0326472 125.376716,72.0326472 L120.68743,72.0326472 C120.193821,72.0326472 119.700211,72.2793617 119.700211,72.7727908 C119.947016,73.2662199 120.193821,73.5129344 120.68743,73.5129344 Z M111.555661,73.5129344 L116.244948,73.5129344 C116.738557,73.5129344 117.232166,73.0195053 117.232166,72.7727908 C117.232166,72.2793617 116.738557,72.0326472 116.244948,72.0326472 L111.555661,72.0326472 C111.062052,72.0326472 110.568443,72.2793617 110.568443,72.7727908 C110.815247,73.2662199 111.062052,73.5129344 111.555661,73.5129344 Z M102.423892,73.5129344 L107.113179,73.5129344 C107.606788,73.5129344 108.100397,73.0195053 108.100397,72.7727908 C108.100397,72.2793617 107.606788,72.0326472 107.113179,72.0326472 L102.423892,72.0326472 C101.930283,72.0326472 101.436674,72.2793617 101.436674,72.7727908 C101.436674,73.2662199 101.930283,73.5129344 102.423892,73.5129344 Z M93.2921236,73.5129344 L97.9814102,73.5129344 C98.4750193,73.5129344 98.9686284,73.0195053 98.9686284,72.7727908 C98.9686284,72.2793617 98.4750193,72.0326472 97.9814102,72.0326472 L93.2921236,72.0326472 C92.7985144,72.0326472 92.3049053,72.2793617 92.3049053,72.7727908 C92.3049053,73.2662199 92.7985144,73.5129344 93.2921236,73.5129344 Z M84.1603548,73.5129344 L88.8496415,73.5129344 C89.3432506,73.5129344 89.8368597,73.0195053 89.8368597,72.7727908 C89.8368597,72.2793617 89.3432506,72.0326472 88.8496415,72.0326472 L84.1603548,72.0326472 C83.6667457,72.0326472 83.1731366,72.2793617 83.1731366,72.7727908 C83.1731366,73.2662199 83.6667457,73.5129344 84.1603548,73.5129344 Z M75.0285861,73.5129344 L79.7178728,73.5129344 C80.2114819,73.5129344 80.705091,73.0195053 80.705091,72.7727908 C80.705091,72.2793617 80.2114819,72.0326472 79.7178728,72.0326472 L75.0285861,72.0326472 C74.534977,72.0326472 74.0413679,72.2793617 74.0413679,72.7727908 C74.0413679,73.2662199 74.534977,73.5129344 75.0285861,73.5129344 Z M65.8968174,73.5129344 L70.5861041,73.5129344 C71.0797132,73.5129344 71.5733223,73.0195053 71.5733223,72.7727908 C71.5733223,72.2793617 71.0797132,72.0326472 70.5861041,72.0326472 L65.8968174,72.0326472 C65.4032083,72.0326472 64.9095992,72.2793617 64.9095992,72.7727908 C64.9095992,73.2662199 65.4032083,73.5129344 65.8968174,73.5129344 Z M56.5182442,73.5129344 L61.2075308,73.5129344 C61.7011399,73.5129344 62.194749,73.0195053 62.194749,72.7727908 C62.194749,72.2793617 61.7011399,72.0326472 61.2075308,72.0326472 L56.5182442,72.0326472 C56.024635,72.0326472 55.5310259,72.2793617 55.5310259,72.7727908 C55.7778305,73.2662199 56.024635,73.5129344 56.5182442,73.5129344 Z M47.3864755,73.5129344 L52.0757621,73.5129344 C52.5693712,73.5129344 53.0629803,73.0195053 53.0629803,72.7727908 C53.0629803,72.2793617 52.5693712,72.0326472 52.0757621,72.0326472 L47.3864755,72.0326472 C46.8928663,72.0326472 46.3992572,72.2793617 46.3992572,72.7727908 C46.6460618,73.2662199 46.8928663,73.5129344 47.3864755,73.5129344 Z M38.2547067,73.5129344 L42.9439934,73.5129344 C43.4376025,73.5129344 43.9312116,73.0195053 43.9312116,72.7727908 C43.9312116,72.2793617 43.4376025,72.0326472 42.9439934,72.0326472 L38.2547067,72.0326472 C37.7610976,72.0326472 37.2674885,72.2793617 37.2674885,72.7727908 C37.2674885,73.2662199 37.7610976,73.5129344 38.2547067,73.5129344 Z M29.122938,73.5129344 L33.8122247,73.5129344 C34.3058338,73.5129344 34.7994429,73.0195053 34.7994429,72.7727908 C34.7994429,72.2793617 34.3058338,72.0326472 33.8122247,72.0326472 L29.122938,72.0326472 C28.6293289,72.0326472 28.1357198,72.2793617 28.1357198,72.7727908 C28.1357198,73.2662199 28.6293289,73.5129344 29.122938,73.5129344 Z M19.9911693,73.5129344 L24.680456,73.5129344 C25.1740651,73.5129344 25.6676742,73.0195053 25.6676742,72.7727908 C25.6676742,72.2793617 25.1740651,72.0326472 24.680456,72.0326472 L19.9911693,72.0326472 C19.4975602,72.0326472 19.0039511,72.2793617 19.0039511,72.7727908 C19.0039511,73.2662199 19.4975602,73.5129344 19.9911693,73.5129344 Z M10.8594006,73.5129344 L15.5486873,73.5129344 C16.0422964,73.5129344 16.5359055,73.0195053 16.5359055,72.7727908 C16.5359055,72.2793617 16.0422964,72.0326472 15.5486873,72.0326472 L10.8594006,72.0326472 C10.3657915,72.0326472 9.87218239,72.2793617 9.87218239,72.7727908 C9.87218239,73.2662199 10.3657915,73.5129344 10.8594006,73.5129344 Z M1.72763192,73.5129344 L6.41691855,73.5129344 C6.91052767,73.5129344 7.40413679,73.0195053 7.40413679,72.7727908 C7.40413679,72.2793617 6.91052767,72.0326472 6.41691855,72.0326472 L1.72763192,72.0326472 C1.2340228,72.0326472 0.740413679,72.2793617 0.740413679,72.7727908 C0.740413679,73.2662199 1.2340228,73.5129344 1.72763192,73.5129344 Z"></path>
                                <path d="M377.364172,1.71900355 L382.053458,1.71900355 C382.547067,1.71900355 383.040677,1.22557447 383.040677,0.978859929 C383.040677,0.485430851 382.547067,0.238716312 382.053458,0.238716312 L377.364172,0.238716312 C376.870563,0.238716312 376.376953,0.73214539 376.376953,0.978859929 C376.623758,1.22557447 376.870563,1.71900355 377.364172,1.71900355 Z M368.232403,1.71900355 L372.92169,1.71900355 C373.415299,1.71900355 373.908908,1.22557447 373.908908,0.978859929 C373.908908,0.485430851 373.415299,0.238716312 372.92169,0.238716312 L368.232403,0.238716312 C367.738794,0.238716312 367.245185,0.73214539 367.245185,0.978859929 C367.245185,1.22557447 367.738794,1.71900355 368.232403,1.71900355 Z M359.100634,1.71900355 L363.789921,1.71900355 C364.28353,1.71900355 364.777139,1.22557447 364.777139,0.978859929 C364.777139,0.485430851 364.28353,0.238716312 363.789921,0.238716312 L359.100634,0.238716312 C358.607025,0.238716312 358.113416,0.73214539 358.113416,0.978859929 C358.113416,1.22557447 358.607025,1.71900355 359.100634,1.71900355 Z M349.968866,1.71900355 L354.658152,1.71900355 C355.151761,1.71900355 355.64537,1.22557447 355.64537,0.978859929 C355.64537,0.485430851 355.151761,0.238716312 354.658152,0.238716312 L349.968866,0.238716312 C349.475256,0.238716312 348.981647,0.73214539 348.981647,0.978859929 C348.981647,1.22557447 349.475256,1.71900355 349.968866,1.71900355 Z M340.837097,1.71900355 L345.526384,1.71900355 C346.019993,1.71900355 346.513602,1.22557447 346.513602,0.978859929 C346.513602,0.485430851 346.019993,0.238716312 345.526384,0.238716312 L340.837097,0.238716312 C340.343488,0.238716312 339.849879,0.73214539 339.849879,0.978859929 C339.849879,1.22557447 340.343488,1.71900355 340.837097,1.71900355 Z M331.705328,1.71900355 L336.394615,1.71900355 C336.888224,1.71900355 337.381833,1.22557447 337.381833,0.978859929 C337.381833,0.485430851 336.888224,0.238716312 336.394615,0.238716312 L331.705328,0.238716312 C331.211719,0.238716312 330.71811,0.73214539 330.71811,0.978859929 C330.71811,1.22557447 331.211719,1.71900355 331.705328,1.71900355 Z M322.326755,1.71900355 L327.016042,1.71900355 C327.509651,1.71900355 328.00326,1.22557447 328.00326,0.978859929 C328.00326,0.485430851 327.509651,0.238716312 327.016042,0.238716312 L322.326755,0.238716312 C321.833146,0.238716312 321.339537,0.73214539 321.339537,0.978859929 C321.586341,1.22557447 321.833146,1.71900355 322.326755,1.71900355 Z M313.194986,1.71900355 L317.884273,1.71900355 C318.377882,1.71900355 318.871491,1.22557447 318.871491,0.978859929 C318.871491,0.485430851 318.377882,0.238716312 317.884273,0.238716312 L313.194986,0.238716312 C312.701377,0.238716312 312.207768,0.73214539 312.207768,0.978859929 C312.454573,1.22557447 312.701377,1.71900355 313.194986,1.71900355 Z M304.063218,1.71900355 L308.752504,1.71900355 C309.246113,1.71900355 309.739722,1.22557447 309.739722,0.978859929 C309.739722,0.485430851 309.246113,0.238716312 308.752504,0.238716312 L304.063218,0.238716312 C303.569608,0.238716312 303.075999,0.73214539 303.075999,0.978859929 C303.075999,1.22557447 303.569608,1.71900355 304.063218,1.71900355 Z M294.931449,1.71900355 L299.620735,1.71900355 C300.114345,1.71900355 300.607954,1.22557447 300.607954,0.978859929 C300.607954,0.485430851 300.114345,0.238716312 299.620735,0.238716312 L294.931449,0.238716312 C294.43784,0.238716312 293.944231,0.73214539 293.944231,0.978859929 C293.944231,1.22557447 294.43784,1.71900355 294.931449,1.71900355 Z M285.79968,1.71900355 L290.488967,1.71900355 C290.982576,1.71900355 291.476185,1.22557447 291.476185,0.978859929 C291.476185,0.485430851 290.982576,0.238716312 290.488967,0.238716312 L285.79968,0.238716312 C285.306071,0.238716312 284.812462,0.73214539 284.812462,0.978859929 C284.812462,1.22557447 285.306071,1.71900355 285.79968,1.71900355 Z M276.667911,1.71900355 L281.357198,1.71900355 C281.850807,1.71900355 282.344416,1.22557447 282.344416,0.978859929 C282.344416,0.485430851 281.850807,0.238716312 281.357198,0.238716312 L276.667911,0.238716312 C276.174302,0.238716312 275.680693,0.73214539 275.680693,0.978859929 C275.680693,1.22557447 276.174302,1.71900355 276.667911,1.71900355 Z M267.536143,1.71900355 L272.225429,1.71900355 C272.719038,1.71900355 273.212648,1.22557447 273.212648,0.978859929 C273.212648,0.485430851 272.719038,0.238716312 272.225429,0.238716312 L267.536143,0.238716312 C267.042534,0.238716312 266.548924,0.73214539 266.548924,0.978859929 C266.548924,1.22557447 267.042534,1.71900355 267.536143,1.71900355 Z M258.157569,1.71900355 L262.846856,1.71900355 C263.340465,1.71900355 263.834074,1.22557447 263.834074,0.978859929 C263.834074,0.485430851 263.340465,0.238716312 262.846856,0.238716312 L258.157569,0.238716312 C257.66396,0.238716312 257.170351,0.73214539 257.170351,0.978859929 C257.417156,1.22557447 257.66396,1.71900355 258.157569,1.71900355 Z M249.025801,1.71900355 L253.715087,1.71900355 C254.208696,1.71900355 254.702306,1.22557447 254.702306,0.978859929 C254.702306,0.485430851 254.208696,0.238716312 253.715087,0.238716312 L249.025801,0.238716312 C248.532192,0.238716312 248.038582,0.73214539 248.038582,0.978859929 C248.285387,1.22557447 248.532192,1.71900355 249.025801,1.71900355 Z M239.894032,1.71900355 L244.583319,1.71900355 C245.076928,1.71900355 245.570537,1.22557447 245.570537,0.978859929 C245.570537,0.485430851 245.076928,0.238716312 244.583319,0.238716312 L239.894032,0.238716312 C239.400423,0.238716312 238.906814,0.73214539 238.906814,0.978859929 C238.906814,1.22557447 239.400423,1.71900355 239.894032,1.71900355 Z M230.762263,1.71900355 L235.45155,1.71900355 C235.945159,1.71900355 236.438768,1.22557447 236.438768,0.978859929 C236.438768,0.485430851 235.945159,0.238716312 235.45155,0.238716312 L230.762263,0.238716312 C230.268654,0.238716312 229.775045,0.73214539 229.775045,0.978859929 C229.775045,1.22557447 230.268654,1.71900355 230.762263,1.71900355 Z M221.630495,1.71900355 L226.319781,1.71900355 C226.81339,1.71900355 227.306999,1.22557447 227.306999,0.978859929 C227.306999,0.485430851 226.81339,0.238716312 226.319781,0.238716312 L221.630495,0.238716312 C221.136885,0.238716312 220.643276,0.73214539 220.643276,0.978859929 C220.643276,1.22557447 221.136885,1.71900355 221.630495,1.71900355 Z M212.498726,1.71900355 L217.188013,1.71900355 C217.681622,1.71900355 218.175231,1.22557447 218.175231,0.978859929 C218.175231,0.485430851 217.681622,0.238716312 217.188013,0.238716312 L212.498726,0.238716312 C212.005117,0.238716312 211.511508,0.73214539 211.511508,0.978859929 C211.511508,1.22557447 212.005117,1.71900355 212.498726,1.71900355 Z M203.366957,1.71900355 L208.056244,1.71900355 C208.549853,1.71900355 209.043462,1.22557447 209.043462,0.978859929 C209.043462,0.485430851 208.549853,0.238716312 208.056244,0.238716312 L203.366957,0.238716312 C202.873348,0.238716312 202.379739,0.73214539 202.379739,0.978859929 C202.379739,1.22557447 202.873348,1.71900355 203.366957,1.71900355 Z M193.988384,1.71900355 L198.677671,1.71900355 C199.17128,1.71900355 199.664889,1.22557447 199.664889,0.978859929 C199.664889,0.485430851 199.17128,0.238716312 198.677671,0.238716312 L193.988384,0.238716312 C193.494775,0.238716312 193.001166,0.73214539 193.001166,0.978859929 C193.24797,1.22557447 193.494775,1.71900355 193.988384,1.71900355 Z M184.856615,1.71900355 L189.545902,1.71900355 C190.039511,1.71900355 190.53312,1.22557447 190.53312,0.978859929 C190.53312,0.485430851 190.039511,0.238716312 189.545902,0.238716312 L184.856615,0.238716312 C184.363006,0.238716312 183.869397,0.73214539 183.869397,0.978859929 C184.116202,1.22557447 184.363006,1.71900355 184.856615,1.71900355 Z M175.724846,1.71900355 L180.414133,1.71900355 C180.907742,1.71900355 181.401351,1.22557447 181.401351,0.978859929 C181.401351,0.485430851 180.907742,0.238716312 180.414133,0.238716312 L175.724846,0.238716312 C175.231237,0.238716312 174.737628,0.73214539 174.737628,0.978859929 C174.737628,1.22557447 175.231237,1.71900355 175.724846,1.71900355 Z M166.593078,1.71900355 L171.282364,1.71900355 C171.775974,1.71900355 172.269583,1.22557447 172.269583,0.978859929 C172.269583,0.485430851 171.775974,0.238716312 171.282364,0.238716312 L166.593078,0.238716312 C166.099469,0.238716312 165.60586,0.73214539 165.60586,0.978859929 C165.60586,1.22557447 166.099469,1.71900355 166.593078,1.71900355 Z M157.461309,1.71900355 L162.150596,1.71900355 C162.644205,1.71900355 163.137814,1.22557447 163.137814,0.978859929 C163.137814,0.485430851 162.644205,0.238716312 162.150596,0.238716312 L157.461309,0.238716312 C156.9677,0.238716312 156.474091,0.73214539 156.474091,0.978859929 C156.474091,1.22557447 156.9677,1.71900355 157.461309,1.71900355 Z M148.32954,1.71900355 L153.018827,1.71900355 C153.512436,1.71900355 154.006045,1.22557447 154.006045,0.978859929 C154.006045,0.485430851 153.512436,0.238716312 153.018827,0.238716312 L148.32954,0.238716312 C147.835931,0.238716312 147.342322,0.73214539 147.342322,0.978859929 C147.342322,1.22557447 147.835931,1.71900355 148.32954,1.71900355 Z M139.197772,1.71900355 L143.887058,1.71900355 C144.380667,1.71900355 144.874277,1.22557447 144.874277,0.978859929 C144.874277,0.485430851 144.380667,0.238716312 143.887058,0.238716312 L139.197772,0.238716312 C138.704163,0.238716312 138.210553,0.73214539 138.210553,0.978859929 C138.210553,1.22557447 138.704163,1.71900355 139.197772,1.71900355 Z M130.066003,1.71900355 L134.75529,1.71900355 C135.248899,1.71900355 135.742508,1.22557447 135.742508,0.978859929 C135.742508,0.485430851 135.248899,0.238716312 134.75529,0.238716312 L130.066003,0.238716312 C129.572394,0.238716312 129.078785,0.73214539 129.078785,0.978859929 C129.078785,1.22557447 129.325589,1.71900355 130.066003,1.71900355 Z M120.68743,1.71900355 L125.376716,1.71900355 C125.870325,1.71900355 126.363935,1.22557447 126.363935,0.978859929 C126.363935,0.485430851 125.870325,0.238716312 125.376716,0.238716312 L120.68743,0.238716312 C120.193821,0.238716312 119.700211,0.73214539 119.700211,0.978859929 C119.947016,1.22557447 120.193821,1.71900355 120.68743,1.71900355 Z M111.555661,1.71900355 L116.244948,1.71900355 C116.738557,1.71900355 117.232166,1.22557447 117.232166,0.978859929 C117.232166,0.485430851 116.738557,0.238716312 116.244948,0.238716312 L111.555661,0.238716312 C111.062052,0.238716312 110.568443,0.73214539 110.568443,0.978859929 C110.815247,1.22557447 111.062052,1.71900355 111.555661,1.71900355 Z M102.423892,1.71900355 L107.113179,1.71900355 C107.606788,1.71900355 108.100397,1.22557447 108.100397,0.978859929 C108.100397,0.485430851 107.606788,0.238716312 107.113179,0.238716312 L102.423892,0.238716312 C101.930283,0.238716312 101.436674,0.73214539 101.436674,0.978859929 C101.436674,1.22557447 101.930283,1.71900355 102.423892,1.71900355 Z M93.2921236,1.71900355 L97.9814102,1.71900355 C98.4750193,1.71900355 98.9686284,1.22557447 98.9686284,0.978859929 C98.9686284,0.485430851 98.4750193,0.238716312 97.9814102,0.238716312 L93.2921236,0.238716312 C92.7985144,0.238716312 92.3049053,0.73214539 92.3049053,0.978859929 C92.3049053,1.22557447 92.7985144,1.71900355 93.2921236,1.71900355 Z M84.1603548,1.71900355 L88.8496415,1.71900355 C89.3432506,1.71900355 89.8368597,1.22557447 89.8368597,0.978859929 C89.8368597,0.485430851 89.3432506,0.238716312 88.8496415,0.238716312 L84.1603548,0.238716312 C83.6667457,0.238716312 83.1731366,0.73214539 83.1731366,0.978859929 C83.1731366,1.22557447 83.6667457,1.71900355 84.1603548,1.71900355 Z M75.0285861,1.71900355 L79.7178728,1.71900355 C80.2114819,1.71900355 80.705091,1.22557447 80.705091,0.978859929 C80.705091,0.485430851 80.2114819,0.238716312 79.7178728,0.238716312 L75.0285861,0.238716312 C74.534977,0.238716312 74.0413679,0.73214539 74.0413679,0.978859929 C74.0413679,1.22557447 74.534977,1.71900355 75.0285861,1.71900355 Z M65.8968174,1.71900355 L70.5861041,1.71900355 C71.0797132,1.71900355 71.5733223,1.22557447 71.5733223,0.978859929 C71.5733223,0.485430851 71.0797132,0.238716312 70.5861041,0.238716312 L65.8968174,0.238716312 C65.4032083,0.238716312 64.9095992,0.73214539 64.9095992,0.978859929 C64.9095992,1.22557447 65.4032083,1.71900355 65.8968174,1.71900355 Z M56.5182442,1.71900355 L61.2075308,1.71900355 C61.7011399,1.71900355 62.194749,1.22557447 62.194749,0.978859929 C62.194749,0.485430851 61.7011399,0.238716312 61.2075308,0.238716312 L56.5182442,0.238716312 C56.024635,0.238716312 55.5310259,0.73214539 55.5310259,0.978859929 C55.7778305,1.22557447 56.024635,1.71900355 56.5182442,1.71900355 Z M47.3864755,1.71900355 L52.0757621,1.71900355 C52.5693712,1.71900355 53.0629803,1.22557447 53.0629803,0.978859929 C53.0629803,0.485430851 52.5693712,0.238716312 52.0757621,0.238716312 L47.3864755,0.238716312 C46.8928663,0.238716312 46.3992572,0.73214539 46.3992572,0.978859929 C46.6460618,1.22557447 46.8928663,1.71900355 47.3864755,1.71900355 Z M38.2547067,1.71900355 L42.9439934,1.71900355 C43.4376025,1.71900355 43.9312116,1.22557447 43.9312116,0.978859929 C43.9312116,0.485430851 43.4376025,0.238716312 42.9439934,0.238716312 L38.2547067,0.238716312 C37.7610976,0.238716312 37.2674885,0.73214539 37.2674885,0.978859929 C37.2674885,1.22557447 37.7610976,1.71900355 38.2547067,1.71900355 Z M29.122938,1.71900355 L33.8122247,1.71900355 C34.3058338,1.71900355 34.7994429,1.22557447 34.7994429,0.978859929 C34.7994429,0.485430851 34.3058338,0.238716312 33.8122247,0.238716312 L29.122938,0.238716312 C28.6293289,0.238716312 28.1357198,0.73214539 28.1357198,0.978859929 C28.1357198,1.22557447 28.6293289,1.71900355 29.122938,1.71900355 Z M19.9911693,1.71900355 L24.680456,1.71900355 C25.1740651,1.71900355 25.6676742,1.22557447 25.6676742,0.978859929 C25.6676742,0.485430851 25.1740651,0.238716312 24.680456,0.238716312 L19.9911693,0.238716312 C19.4975602,0.238716312 19.0039511,0.73214539 19.0039511,0.978859929 C19.0039511,1.22557447 19.4975602,1.71900355 19.9911693,1.71900355 Z M10.8594006,1.71900355 L15.5486873,1.71900355 C16.0422964,1.71900355 16.5359055,1.22557447 16.5359055,0.978859929 C16.5359055,0.485430851 16.0422964,0.238716312 15.5486873,0.238716312 L10.8594006,0.238716312 C10.3657915,0.238716312 9.87218239,0.73214539 9.87218239,0.978859929 C9.87218239,1.22557447 10.3657915,1.71900355 10.8594006,1.71900355 Z M1.72763192,1.71900355 L6.41691855,1.71900355 C6.91052767,1.71900355 7.40413679,1.22557447 7.40413679,0.978859929 C7.40413679,0.485430851 6.91052767,0.238716312 6.41691855,0.238716312 L1.72763192,0.238716312 C1.2340228,0.238716312 0.740413679,0.73214539 0.740413679,0.978859929 C0.740413679,1.22557447 1.2340228,1.71900355 1.72763192,1.71900355 Z"></path>
                            </g>
                        </g>
                    </g>
                </g>
                <g id="SUKKEREFFEKTEN" fill-opacity="1" fill="#F9F0E4">
                    <use filter="url(#filter-3)" xlink:href="#text-2"></use>
                    <use xlink:href="#text-2"></use>
                </g>
                <g id="SugarCube-Copy" filter="url(#filter-4)" transform="translate(209.000000, 72.000000)" fill-rule="nonzero">
                    <polygon id="Shape" fill="#FFF6EB" points="0 10.5388316 33.3589286 23.1573883 64.8607143 10.1649485 31.5017857 0.0467353952"></polygon>
                    <polygon id="Shape" fill="#D4C9BB" points="33.3589286 67.9766323 33.3589286 23.1573883 64.8607143 10.1649485 62.6321429 51.2453608"></polygon>
                    <polygon id="Shape" fill="#EBE0D2" points="0 10.5388316 33.3589286 23.1573883 33.3589286 67.9766323 1.11428571 50.7312715"></polygon>
                </g>
            </g>
        </g>
    </g>
</svg>