<?xml version="1.0" encoding="UTF-8"?>
<svg width="101px" height="133px" viewBox="0 0 101 133" version="1.1" xmlns="http://www.w3.org/2000/svg" xmlns:xlink="http://www.w3.org/1999/xlink">
    <!-- Generator: Sketch 42 (36781) - http://www.bohemiancoding.com/sketch -->
    <title>7_liksomsunt_lunsj</title>
    <desc>Created with Sketch.</desc>
    <defs>
        <filter x="-50%" y="-50%" width="200%" height="200%" filterUnits="objectBoundingBox" id="filter-1">
            <feOffset dx="-1" dy="2" in="SourceAlpha" result="shadowOffsetOuter1"></feOffset>
            <feGaussianBlur stdDeviation="0.5" in="shadowOffsetOuter1" result="shadowBlurOuter1"></feGaussianBlur>
            <feColorMatrix values="0 0 0 0 0   0 0 0 0 0   0 0 0 0 0  0 0 0 0.5 0" type="matrix" in="shadowBlurOuter1" result="shadowMatrixOuter1"></feColorMatrix>
            <feMerge>
                <feMergeNode in="shadowMatrixOuter1"></feMergeNode>
                <feMergeNode in="SourceGraphic"></feMergeNode>
            </feMerge>
        </filter>
        <polygon id="path-2" points="5.67005549e-16 27.2955937 5.67005549e-16 0.46828125 34.6519125 0.46828125 34.6519125 27.2955937 0 27.2955937"></polygon>
        <polygon id="path-4" points="13.8682688 0.18675 0.45433125 0.18675 0.45433125 12.4822688 13.8682687 12.4822688 13.8682687 0.18675"></polygon>
        <polygon id="path-6" points="0 114.56325 98.7159375 114.56325 98.7159375 0.5625 0 0.5625"></polygon>
        <text id="text-8" font-family="RobotoCondensed-Bold, Roboto Condensed" font-size="22" font-style="condensed" font-weight="bold" fill="#FFF6EB">
            <tspan x="44.3569336" y="24">x 21</tspan>
        </text>
        <filter x="-50%" y="-50%" width="200%" height="200%" filterUnits="objectBoundingBox" id="filter-9">
            <feOffset dx="-1" dy="1" in="SourceAlpha" result="shadowOffsetOuter1"></feOffset>
            <feColorMatrix values="0 0 0 0 0   0 0 0 0 0   0 0 0 0 0  0 0 0 0.5 0" type="matrix" in="shadowOffsetOuter1"></feColorMatrix>
        </filter>
        <filter x="-50%" y="-50%" width="200%" height="200%" filterUnits="objectBoundingBox" id="filter-10">
            <feOffset dx="0" dy="1" in="SourceAlpha" result="shadowOffsetOuter1"></feOffset>
            <feGaussianBlur stdDeviation="0.5" in="shadowOffsetOuter1" result="shadowBlurOuter1"></feGaussianBlur>
            <feColorMatrix values="0 0 0 0 0   0 0 0 0 0   0 0 0 0 0  0 0 0 0.5 0" type="matrix" in="shadowBlurOuter1" result="shadowMatrixOuter1"></feColorMatrix>
            <feMerge>
                <feMergeNode in="shadowMatrixOuter1"></feMergeNode>
                <feMergeNode in="SourceGraphic"></feMergeNode>
            </feMerge>
        </filter>
    </defs>
    <g id="Page-1" stroke="none" stroke-width="1" fill="none" fill-rule="evenodd">
        <g id="PINK" transform="translate(-1022.000000, -9675.000000)">
            <g id="7_liksomsunt_lunsj" transform="translate(1024.000000, 9675.000000)">
                <g id="Page-1" filter="url(#filter-1)">
                    <path d="M94.2686437,86.4567562 L93.7742063,92.1661312 L92.9934563,100.977694 C92.8792687,102.462131 91.6428937,103.584881 90.1578937,103.584881 L55.9016438,103.584881 C54.4172063,103.584881 53.1808313,102.462131 53.0660813,100.977694 L52.2858938,92.1661312 L51.7914563,86.4567562 L94.2686437,86.4567562 Z" id="Fill-1" fill="#D0ECFF"></path>
                    <path d="M98.703,36.2714625 L97.0284375,55.302525 L96.49575,61.2594 C95.8483125,61.031025 95.22,60.7644 94.5928125,60.4600875 C93.43125,59.88915 92.194875,59.546025 90.93825,59.47065 C89.168625,59.3182125 87.341625,59.64165 85.723875,60.4600875 C81.993375,62.3439 77.6165625,62.7247125 73.0299375,60.9933375 C72.5540625,60.821775 72.0590625,60.612525 71.564625,60.38415 C68.6908125,59.0139 65.475,59.1663375 62.886375,60.4600875 C60.6976875,61.5637125 58.29975,62.0969625 55.9018125,62.0969625 C55.7116875,62.0969625 55.5406875,62.0969625 55.35,62.077275 C53.3514375,62.0204625 51.3534375,61.5834 49.507875,60.7267125 L48.9555,54.350775 L47.356875,36.2714625 C47.2809375,35.47215 47.547,34.6914 48.08025,34.1019 C48.6315,33.5118375 49.393125,33.169275 50.1924375,33.169275 L95.8674375,33.169275 C96.66675,33.169275 97.428375,33.5118375 97.9801875,34.1019 C98.512875,34.6914 98.7789375,35.47215 98.703,36.2714625" id="Fill-3" fill="#D0ECFF"></path>
                    <path d="M97.0284375,55.3028063 L96.49575,61.2596813 L94.2688125,86.4568688 L93.7738125,92.1662438 L52.2860625,92.1662438 L51.7910625,86.4568688 L49.5073125,60.7269938 L48.9555,54.3516188 C49.8121875,54.6176813 50.6491875,54.9405563 51.4670625,55.3601813 C52.6854375,55.9688063 53.80875,56.2736813 54.855,56.3687438 C57.843,56.6921813 60.1261875,55.4169938 61.5346875,54.8460563 C65.208375,53.3807438 69.071625,53.3807438 72.5158125,54.5985563 C72.66825,54.6559313 72.8398125,54.7127438 73.0299375,54.8078063 C75.06675,55.6448063 78.663375,57.6056813 83.1735,55.3601813 C85.743,54.0658688 88.61625,53.5331813 91.4326875,53.7801188 C93.3553125,53.9319938 95.25825,54.4269938 97.0284375,55.3028063" id="Fill-5" fill="#FF6D77"></path>
                    <path d="M65.4174562,65.5223062 C66.9941437,65.5223062 68.2721437,66.8003062 68.2721437,68.3769937 C68.2721437,69.9536812 66.9941437,71.2316812 65.4174562,71.2316812 C63.8407687,71.2316812 62.5627687,69.9536812 62.5627687,68.3769937 C62.5627687,66.8003062 63.8407687,65.5223062 65.4174562,65.5223062" id="Fill-7" fill="#D0ECFF"></path>
                    <path d="M80.6423063,75.0381187 C82.2189938,75.0381187 83.4969938,76.3161187 83.4969938,77.8928062 C83.4969938,79.4694937 82.2189938,80.7474937 80.6423063,80.7474937 C79.0656188,80.7474937 77.7876188,79.4694937 77.7876188,77.8928062 C77.7876188,76.3161187 79.0656188,75.0381187 80.6423063,75.0381187" id="Fill-9" fill="#AFDFFF"></path>
                    <path d="M38.3452313,48.6275063 L24.9312938,41.9208188 L24.9312938,73.2194438 L38.3452313,66.5121938 C40.1559188,65.3073188 41.3585438,63.2508188 41.3585438,60.9231938 L41.3585438,54.2170688 C41.3585438,51.8894438 40.1559188,49.8329438 38.3452313,48.6275063" id="Fill-11" fill="#00C7FF"></path>
                    <g id="Group-15" transform="translate(0.000000, 43.688250)">
                        <mask id="mask-3" fill="white">
                            <use xlink:href="#path-2"></use>
                        </mask>
                        <g id="Clip-14"></g>
                        <path d="M34.6519125,10.5285937 L34.6519125,17.2352812 C34.6519125,19.5629062 33.4492875,21.6194062 31.6380375,22.8237187 L17.3246625,27.2955937 L3.0112875,22.8237187 C1.2006,21.6194062 -0.0003375,19.5629062 -0.0003375,17.2352812 L-0.0003375,10.5285937 C-0.0003375,8.20096875 1.2006,6.14446875 3.0112875,4.93903125 L17.3246625,0.46828125 L31.6380375,4.93903125 C33.4492875,6.14446875 34.6519125,8.20096875 34.6519125,10.5285937" id="Fill-13" fill="#74DAFF" mask="url(#mask-3)"></path>
                    </g>
                    <path d="M38.3452312,66.5121937 L31.6385437,66.5121937 L27.7572937,102.282131 L34.4639812,102.282131 C38.2715437,102.282131 41.3585437,99.1968187 41.3585437,95.3898187 L41.3585437,72.1017562 C41.3585437,69.7741312 40.1559187,67.7176312 38.3452312,66.5121937" id="Fill-16" fill="#74DAFF"></path>
                    <path d="M39.2101312,30.403125 L30.1803187,19.564875 L23.4736312,19.564875 L31.6383187,48.6275625 L38.3450062,48.6275625 C40.1556937,47.4226875 41.3583187,45.3661875 41.3583187,43.0385625 L41.3583187,36.3324375 C41.3583187,34.4874375 40.3930687,31.818375 39.2101312,30.403125" id="Fill-18" fill="#74DAFF"></path>
                    <g id="Group-22" transform="translate(16.312500, 0.375750)">
                        <mask id="mask-5" fill="white">
                            <use xlink:href="#path-4"></use>
                        </mask>
                        <g id="Clip-21"></g>
                        <polygon id="Fill-20" fill="#BFEDFF" mask="url(#mask-5)" points="13.8682687 0.18658125 13.8682687 12.4822688 7.16158125 12.4822688 0.45433125 6.33470625 7.16158125 0.18658125"></polygon>
                    </g>
                    <path d="M34.6519125,72.101475 L34.6519125,95.3895375 C34.6519125,99.1971 31.56435,102.28185 27.75735,102.28185 L6.8925375,102.28185 C3.0855375,102.28185 0.000225,99.1971 0.000225,95.3895375 L0.000225,72.101475 C0.000225,69.77385 1.2006,67.71735 3.0112875,66.5119125 L31.6380375,66.5119125 C33.4492875,67.71735 34.6519125,69.77385 34.6519125,72.101475" id="Fill-23" fill="#BFEDFF"></path>
                    <path d="M34.6519125,36.3319313 L34.6519125,43.0386188 C34.6519125,45.3662438 33.4492875,47.4227438 31.6380375,48.6276188 L3.0112875,48.6276188 C1.2006,47.4227438 0.000225,45.3662438 0.000225,43.0386188 L0.000225,36.3319313 C0.000225,34.4874938 0.9660375,31.8184313 2.1461625,30.4031813 L11.178225,19.5649313 L23.4739125,19.5649313 L32.503725,30.4031813 C33.6861,31.8184313 34.6519125,34.4874938 34.6519125,36.3319313" id="Fill-25" fill="#BFEDFF"></path>
                    <mask id="mask-7" fill="white">
                        <use xlink:href="#path-6"></use>
                    </mask>
                    <g id="Clip-28"></g>
                    <polygon id="Fill-27" fill="#E9F9FF" mask="url(#mask-7)" points="11.178 12.8581875 23.4736875 12.8581875 23.4736875 0.5625 11.178 0.5625"></polygon>
                    <path d="M30.7386,14.534775 L10.6185375,14.534775 C9.6921,14.534775 8.941725,13.7844 8.941725,12.8579625 C8.941725,11.9320875 9.6921,11.1817125 10.6185375,11.1817125 L30.7386,11.1817125 C31.664475,11.1817125 32.4154125,11.9320875 32.4154125,12.8579625 C32.4154125,13.7844 31.664475,14.534775 30.7386,14.534775" id="Fill-29" fill="#74DAFF" mask="url(#mask-7)"></path>
                    <path d="M19.8203625,54.5189625 C19.3467375,54.6359625 18.851175,54.6359625 18.3781125,54.5189625 C15.9121125,53.9092125 13.847175,54.14265 13.8708,58.7928375 C13.883175,61.175025 16.11405,64.26315 18.45855,63.7349625 C18.8787375,63.6404625 19.319175,63.6404625 19.7393625,63.7349625 C22.0838625,64.26315 24.3147375,61.175025 24.3271125,58.7928375 C24.3507375,54.1432125 22.2863625,53.9092125 19.8203625,54.5189625" id="Fill-30" fill="#F33530" mask="url(#mask-7)"></path>
                    <path d="M15.0174,57.6050062 C14.890275,57.6050062 14.7879,57.5020687 14.7879,57.3755062 C14.7879,56.1115687 15.713775,55.0833187 16.8517125,55.0833187 C16.978275,55.0833187 17.08065,55.1856937 17.08065,55.3122562 C17.08065,55.4388187 16.978275,55.5417562 16.8517125,55.5417562 C15.9663375,55.5417562 15.2469,56.3641312 15.2469,57.3755062 C15.2469,57.5020687 15.1439625,57.6050062 15.0174,57.6050062" id="Fill-31" fill="#FF5A56" mask="url(#mask-7)"></path>
                    <path d="M19.0826438,55.3868437 C18.9594563,55.3868437 18.8576438,55.2889687 18.8537063,55.1646562 C18.8227688,54.1949062 18.4498313,52.9765312 17.4963938,52.4680312 C17.3844563,52.4084062 17.3422688,52.2694687 17.4018938,52.1575312 C17.4615188,52.0461562 17.5998938,52.0034062 17.7118313,52.0630312 C18.8385188,52.6637812 19.2772688,54.0514687 19.3121438,55.1500312 C19.3166438,55.2771562 19.2170813,55.3823437 19.0905188,55.3862812 C19.0877063,55.3868437 19.0848938,55.3868437 19.0826438,55.3868437" id="Fill-32" fill="#532D27" mask="url(#mask-7)"></path>
                    <path d="M19.0622812,56.2102875 C18.6769687,56.2102875 18.3147187,56.0601 18.0419062,55.7872875 C17.9524687,55.6984125 17.9524687,55.552725 18.0419062,55.4632875 C18.1319062,55.37385 18.2764687,55.37385 18.3664687,55.4632875 C18.5520937,55.649475 18.7995937,55.7524125 19.0622812,55.7524125 C19.3249687,55.7524125 19.5719062,55.649475 19.7580937,55.4632875 C19.8475312,55.37385 19.9926562,55.37385 20.0820937,55.4632875 C20.1720937,55.552725 20.1720937,55.69785 20.0820937,55.7872875 C19.8098437,56.0601 19.4475937,56.2102875 19.0622812,56.2102875" id="Fill-33" fill="#B0432A" mask="url(#mask-7)"></path>
                    <path d="M18.86265,53.7910875 L19.00215,52.854525 C19.149525,51.86565 19.9263375,51.0888375 20.915775,50.9414625 L21.851775,50.8019625 L21.712275,51.738525 C21.5649,52.7279625 20.7880875,53.5042125 19.7992125,53.65215 L18.86265,53.7910875 Z" id="Fill-34" fill="#3D9E24" mask="url(#mask-7)"></path>
                    <path d="M74.9948062,95.7929625 L80.5646812,96.2913375 C81.2109937,96.3487125 81.8297437,96.0157125 82.1379937,95.444775 L83.3496187,93.1959 C83.7743062,92.4067125 83.4801187,91.4223375 82.6903687,90.9970875 L80.9274937,90.047025 C80.1388687,89.6223375 79.8429937,88.6379625 80.2682437,87.848775 L81.2183062,86.0853375 C81.6429937,85.297275 81.3488062,84.3123375 80.5596187,83.8870875 L78.7961812,82.9375875 C78.0075562,82.5123375 77.7122437,81.528525 78.1369312,80.7382125 L79.0869937,78.9759 C79.5116812,78.1867125 79.2174937,77.2023375 78.4283062,76.776525 L76.6648687,75.827025 C75.8768062,75.4023375 75.5809312,74.4179625 76.0061812,73.628775 L76.9551187,71.8664625 C77.3820562,71.0778375 77.0873062,70.0934625 76.2975562,69.668775 L74.0475562,68.456025 C73.4760562,68.1483375 72.7763062,68.2113375 72.2678062,68.61465 L67.8915562,72.0948375 C51.8130562,78.632775 35.1495562,83.6272125 18.1254937,87.011775 L12.5145562,86.5094625 C11.8924312,86.453775 11.2989937,86.773275 11.0031187,87.3217125 L9.74030625,89.666775 C9.33193125,90.4244625 9.61486875,91.370025 10.3731187,91.7778375 L12.2501812,92.789775 C13.0084312,93.19815 13.2913687,94.14315 12.8835562,94.9008375 L11.8716187,96.7784625 C11.4632437,97.5367125 11.7467437,98.4817125 12.5044312,98.8900875 L14.3820562,99.9014625 C15.1397437,100.309838 15.4232437,101.254838 15.0148687,102.013088 L14.0034937,103.890713 C13.5951187,104.6484 13.8786187,105.5934 14.6363062,106.001213 L16.5139312,107.01315 C17.2716187,107.421525 17.5551187,108.367088 17.1467437,109.124775 L16.1348062,111.001838 C15.7269937,111.760088 16.0099312,112.705088 16.7681812,113.113463 L19.1126812,114.376838 C19.6611187,114.67215 20.3327437,114.612525 20.8209937,114.225525 L25.2309937,110.7189 C41.3072437,104.172525 57.9718687,99.1780875 74.9948062,95.7929625" id="Fill-35" fill="#792F0A" mask="url(#mask-7)"></path>
                    <path d="M67.5416812,78.2785125 C67.2626812,78.128325 67.0416187,77.8712625 66.9437437,77.54445 C66.7474312,76.8891375 67.1181187,76.2012 67.7734312,76.0048875 L70.1426812,75.29445 C70.7979937,75.0981375 71.4864937,75.468825 71.6828062,76.1241375 C71.8791187,76.77945 71.5084312,77.46795 70.8531187,77.6637 L68.4833062,78.3741375 C68.1553687,78.4720125 67.8195562,78.4281375 67.5416812,78.2785125" id="Fill-36" fill="#B66F38" mask="url(#mask-7)"></path>
                    <path d="M68.961375,83.0185875 C68.682375,82.8684 68.4613125,82.6113375 68.3634375,82.284525 C68.1665625,81.6303375 68.5378125,80.941275 69.193125,80.7449625 L71.5629375,80.0334 C72.21825,79.8370875 72.90675,80.207775 73.1030625,80.8630875 C73.2999375,81.517275 72.9286875,82.2069 72.273375,82.40265 L69.9035625,83.1142125 C69.575625,83.2120875 69.240375,83.168775 68.961375,83.0185875" id="Fill-37" fill="#B66F38" mask="url(#mask-7)"></path>
                    <path d="M70.3830375,87.7581 C70.1040375,87.6079125 69.882975,87.35085 69.7851,87.0240375 C69.5887875,86.368725 69.959475,85.6807875 70.6147875,85.484475 L72.9840375,84.7740375 C73.63935,84.577725 74.32785,84.9484125 74.5241625,85.603725 C74.720475,86.2590375 74.3497875,86.9475375 73.694475,87.1432875 L71.3246625,87.853725 C70.9972875,87.9532875 70.6620375,87.90885 70.3830375,87.7581" id="Fill-38" fill="#B66F38" mask="url(#mask-7)"></path>
                    <path d="M71.803575,92.49705 C71.524575,92.3468625 71.3035125,92.0898 71.2056375,91.7629875 C71.0087625,91.107675 71.3800125,90.4197375 72.035325,90.223425 L74.404575,89.5129875 C75.0598875,89.316675 75.747825,89.6873625 75.9447,90.342675 C76.1410125,90.9979875 75.770325,91.6864875 75.1150125,91.8822375 L72.7452,92.592675 C72.417825,92.6922375 72.082575,92.6478 71.803575,92.49705" id="Fill-39" fill="#B66F38" mask="url(#mask-7)"></path>
                    <path d="M17.7747188,93.1946625 C17.4957188,93.044475 17.2746563,92.7874125 17.1767813,92.4606 C16.9804688,91.8052875 17.3511563,91.11735 18.0064688,90.9210375 L20.3762813,90.2106 C21.0310313,90.0142875 21.7195313,90.384975 21.9158438,91.0402875 C22.1121563,91.6956 21.7414688,92.3841 21.0861563,92.57985 L18.7169063,93.2902875 C18.3895313,93.38985 18.0537188,93.3454125 17.7747188,93.1946625" id="Fill-40" fill="#B66F38" mask="url(#mask-7)"></path>
                    <path d="M19.1958188,97.9352437 C18.9168188,97.7850562 18.6957563,97.5279937 18.5978813,97.2011812 C18.4015688,96.5458687 18.7722563,95.8579312 19.4275688,95.6616187 L21.7968188,94.9511812 C22.4521313,94.7548687 23.1406313,95.1261187 23.3369438,95.7808687 C23.5332563,96.4361812 23.1625688,97.1246812 22.5072563,97.3204312 L20.1374438,98.0308687 C19.8089438,98.1298687 19.4736938,98.0854312 19.1958188,97.9352437" id="Fill-41" fill="#B66F38" mask="url(#mask-7)"></path>
                    <path d="M20.6157938,102.675319 C20.3367938,102.525131 20.1157313,102.268069 20.0178563,101.941256 C19.8209813,101.285944 20.1922313,100.598006 20.8475438,100.401694 L23.2167938,99.6912562 C23.8721063,99.4949437 24.5600438,99.8656312 24.7563563,100.520944 C24.9526688,101.176256 24.5819813,101.864756 23.9272313,102.060506 L21.5574188,102.770944 C21.2294813,102.868819 20.8936688,102.824944 20.6157938,102.675319" id="Fill-42" fill="#B66F38" mask="url(#mask-7)"></path>
                    <path d="M22.0371188,107.414831 C21.7581188,107.264644 21.5370563,107.007581 21.4391813,106.680769 C21.2428688,106.025456 21.6135563,105.338081 22.2688688,105.141206 L24.6381188,104.430769 C25.2934313,104.235019 25.9819313,104.605706 26.1782438,105.260456 C26.3745563,105.915769 26.0038688,106.604269 25.3485563,106.800581 L22.9787438,107.510456 C22.6513688,107.608331 22.3161188,107.565581 22.0371188,107.414831" id="Fill-43" fill="#B66F38" mask="url(#mask-7)"></path>
                    <path d="M41.1539063,104.822606 C49.4085938,102.047231 57.7915313,99.6695437 66.2757188,97.6923562 L51.9674063,77.9812312 C43.7127188,80.7560437 35.3297813,83.1342937 26.8455938,85.1109187 L41.1539063,104.822606 Z" id="Fill-44" fill="#FFD800" mask="url(#mask-7)"></path>
                </g>
                <g id="Group-17-Copy-12" transform="translate(0.000000, 95.000000)">
                    <g id="x-21" fill-opacity="1" fill="#FFF6EB">
                        <use filter="url(#filter-9)" xlink:href="#text-8"></use>
                        <use xlink:href="#text-8"></use>
                    </g>
                    <g id="SugarCube-Copy" filter="url(#filter-10)" fill-rule="nonzero">
                        <polygon id="Shape" fill="#FFF6EB" points="0 5.57938144 17.4492857 12.2597938 33.9271429 5.3814433 16.4778571 0.024742268"></polygon>
                        <polygon id="Shape" fill="#D4C9BB" points="17.4492857 35.9876289 17.4492857 12.2597938 33.9271429 5.3814433 32.7614286 27.1298969"></polygon>
                        <polygon id="Shape" fill="#EBE0D2" points="0 5.57938144 17.4492857 12.2597938 17.4492857 35.9876289 0.582857143 26.857732"></polygon>
                    </g>
                </g>
            </g>
        </g>
    </g>
</svg>