<?xml version="1.0" encoding="UTF-8"?>
<svg width="130px" height="101px" viewBox="0 0 130 101" version="1.1" xmlns="http://www.w3.org/2000/svg" xmlns:xlink="http://www.w3.org/1999/xlink">
    <!-- Generator: Sketch 42 (36781) - http://www.bohemiancoding.com/sketch -->
    <title>7_liksomsunt_middag</title>
    <desc>Created with Sketch.</desc>
    <defs>
        <filter x="-50%" y="-50%" width="200%" height="200%" filterUnits="objectBoundingBox" id="filter-1">
            <feOffset dx="-1" dy="2" in="SourceAlpha" result="shadowOffsetOuter1"></feOffset>
            <feGaussianBlur stdDeviation="0.5" in="shadowOffsetOuter1" result="shadowBlurOuter1"></feGaussianBlur>
            <feColorMatrix values="0 0 0 0 0   0 0 0 0 0   0 0 0 0 0  0 0 0 0.5 0" type="matrix" in="shadowBlurOuter1" result="shadowMatrixOuter1"></feColorMatrix>
            <feMerge>
                <feMergeNode in="shadowMatrixOuter1"></feMergeNode>
                <feMergeNode in="SourceGraphic"></feMergeNode>
            </feMerge>
        </filter>
        <text id="text-2" font-family="RobotoCondensed-Bold, Roboto Condensed" font-size="22" font-style="condensed" font-weight="bold" fill="#FFF6EB">
            <tspan x="44.3569336" y="24">x 15</tspan>
        </text>
        <filter x="-50%" y="-50%" width="200%" height="200%" filterUnits="objectBoundingBox" id="filter-3">
            <feOffset dx="-1" dy="1" in="SourceAlpha" result="shadowOffsetOuter1"></feOffset>
            <feColorMatrix values="0 0 0 0 0   0 0 0 0 0   0 0 0 0 0  0 0 0 0.5 0" type="matrix" in="shadowOffsetOuter1"></feColorMatrix>
        </filter>
        <filter x="-50%" y="-50%" width="200%" height="200%" filterUnits="objectBoundingBox" id="filter-4">
            <feOffset dx="0" dy="1" in="SourceAlpha" result="shadowOffsetOuter1"></feOffset>
            <feGaussianBlur stdDeviation="0.5" in="shadowOffsetOuter1" result="shadowBlurOuter1"></feGaussianBlur>
            <feColorMatrix values="0 0 0 0 0   0 0 0 0 0   0 0 0 0 0  0 0 0 0.5 0" type="matrix" in="shadowBlurOuter1" result="shadowMatrixOuter1"></feColorMatrix>
            <feMerge>
                <feMergeNode in="shadowMatrixOuter1"></feMergeNode>
                <feMergeNode in="SourceGraphic"></feMergeNode>
            </feMerge>
        </filter>
    </defs>
    <g id="Page-1" stroke="none" stroke-width="1" fill="none" fill-rule="evenodd">
        <g id="PINK" transform="translate(-1022.000000, -9944.000000)">
            <g id="7_liksomsunt_middag" transform="translate(1024.000000, 9944.000000)">
                <g id="Page-1" filter="url(#filter-1)">
                    <polygon id="Fill-1" fill="#C9CAC9" points="26.5456857 63.492155 4.89977549 63.492155 4.89977549 79.6006822 43.136159 79.6006822 43.136159 63.492155"></polygon>
                    <polygon id="Fill-2" fill="#F3F3F3" points="0 0.000434108526 4.89946602 69.8813643 43.1358495 69.8813643 47.8044539 0.000434108526"></polygon>
                    <g id="Group-139" transform="translate(1.237864, 8.282791)">
                        <path d="M44.9167027,8.68272868 L42.0139114,61.5980775 L3.77752791,61.5980775 L0.406205097,3.04365891 C4.3549915,0.465674419 14.022091,-1.63293023 20.4354648,3.39528682 C24.532176,6.60706977 27.3272731,10.8650543 44.9167027,8.68272868" id="Fill-3" fill="#74DAFF"></path>
                        <path d="M79.7703131,23.5700465 L62.7849612,17.756093 C62.7991966,17.7151628 62.813432,17.6742326 62.8270485,17.6339225 C63.7226432,15.0633798 65.1659927,12.7886512 69.7324733,14.352062 C74.3348519,15.927876 79.6861383,23.4509767 79.7696942,23.568186 C79.7703131,23.5694264 79.7703131,23.5700465 79.7703131,23.5700465" id="Fill-5" fill="#FFE59A"></path>
                        <path d="M100.230102,17.5332713 L85.648682,28.0207132 C85.6233058,27.9853643 85.5985485,27.9506357 85.5744102,27.9152868 C84.0047985,25.6932713 82.9928447,23.195907 86.9125413,20.3766822 C90.8644223,17.5345116 100.084653,17.5332713 100.228245,17.5332713 L100.230102,17.5332713 Z" id="Fill-7" fill="#FFE59A"></path>
                        <path d="M56.2859272,15.0526512 L41.7045073,25.540093 C41.6791311,25.5047442 41.6543738,25.4700155 41.6302354,25.4346667 C40.0606238,23.2126512 39.0486699,20.7152868 42.9683665,17.896062 C46.9202476,15.0538915 56.1404782,15.0526512 56.2840704,15.0526512 L56.2859272,15.0526512 Z" id="Fill-9" fill="#FFE59A"></path>
                        <path d="M27.2161129,15.2845891 C26.8057609,14.9993178 26.2920473,14.9869147 25.8686978,15.1965271 C25.6520716,14.8070698 25.3500328,14.4604031 24.9613434,14.1900155 C23.5792682,13.2300155 21.6673871,13.5940465 20.6913313,15.0042791 C20.4363313,15.3726512 20.2729333,15.7763721 20.1918532,16.1887752 C19.4219017,16.2117209 18.6668046,16.5906357 18.1889891,17.2821085 C17.6468046,18.064124 17.6010036,19.0414884 17.9841226,19.8303256 C17.4462706,20.0324961 16.960409,20.395907 16.6057609,20.9075349 C15.6909794,22.2297054 15.9998265,24.0312558 17.2964891,24.9323411 C17.3930425,24.9993178 17.4939284,25.0576124 17.5954333,25.1115659 C17.2618289,26.2712558 17.6659915,27.551876 18.6946566,28.2675349 C19.4967925,28.8244341 20.4889405,28.9050543 21.3455425,28.5726512 C21.5083216,29.0563721 21.8177876,29.4917209 22.2652755,29.8024186 C23.3886371,30.5831938 24.9421566,30.2867597 25.7343896,29.1419535 C26.0667561,28.6619535 26.2103483,28.1106357 26.185591,27.5723411 C27.1430789,27.5524961 28.0850934,27.0842791 28.6798871,26.2253643 C29.3081032,25.3174574 29.3922779,24.1980775 29.0054454,23.2585426 C29.7265012,23.3087752 30.4599357,22.983814 30.9068046,22.3376124 C31.5777269,21.3683101 31.3511978,20.0473798 30.4011371,19.3869147 C30.1876056,19.2386977 29.9555061,19.1388527 29.7172172,19.079938 C29.8917561,18.2687752 29.5860036,17.4024186 28.8736129,16.9075349 C28.5362949,16.6731163 28.152557,16.5552868 27.7682002,16.5422636 C27.825142,16.064124 27.6332731,15.5742016 27.2161129,15.2845891" id="Fill-11" fill="#67C24D"></path>
                        <path d="M26.1320534,28.1818915 C26.0664466,28.5155349 25.9408034,28.8429767 25.7340801,29.1425116 C24.9418471,30.287938 23.3883277,30.5837519 22.264966,29.8029767 C21.8174782,29.4916589 21.5080121,29.0563101 21.345233,28.5732093 C20.4886311,28.9056124 19.496483,28.8249922 18.6943471,28.2674729 C18.3056578,27.9977054 18.0073325,27.6460775 17.803085,27.2516589 C16.9235825,27.6541395 16.382017,28.6116589 16.5516044,29.6057674 C16.5670777,29.6938295 16.5887403,29.7775504 16.6134976,29.860031 C15.8367379,30.3034419 15.3774903,31.2026667 15.5359369,32.1297984 C15.6603422,32.8528992 16.1307306,33.4215814 16.7471869,33.6987907 C16.5782184,34.0435969 16.5113738,34.4404961 16.5806942,34.8442171 C16.7546141,35.8569302 17.7121019,36.5223566 18.7191044,36.3301085 C19.141216,36.2501085 19.5039102,36.0305736 19.7706699,35.7304186 C20.2763374,36.2277829 21.007915,36.4764651 21.7630121,36.3325891 C22.5614345,36.180031 23.1890316,35.6268527 23.4786917,34.9192558 C23.8252937,35.327938 24.3736675,35.5431318 24.942466,35.4352248 C25.7947354,35.2733643 26.3666286,34.4466977 26.2199417,33.5896434 C26.1865194,33.3973953 26.1190558,33.2212713 26.026216,33.0631318 C26.5393107,32.7214264 26.8326845,32.0963101 26.7231335,31.4544496 C26.6711432,31.1499535 26.5337403,30.883907 26.3418714,30.6736744 C26.6216286,30.447938 26.7775995,30.0845271 26.7132306,29.7087132 C26.6494806,29.3384806 26.390767,29.0594109 26.0621141,28.9471628 C26.1308155,28.7028217 26.1462888,28.4442171 26.1320534,28.1818915" id="Fill-13" fill="#3D9E24"></path>
                        <path d="M32.4600765,12.6035349 C32.372807,12.6196589 32.2892512,12.6432248 32.2069333,12.6692713 C31.7798701,11.8934574 30.8954163,11.4457054 29.9732075,11.6212093 C29.2533896,11.7582636 28.6814964,12.2426047 28.3967876,12.8689612 C28.0569939,12.7052403 27.664591,12.6432248 27.2635231,12.720124 C26.2559017,12.9123721 25.5800279,13.8884961 25.7539478,14.9018295 C25.7650886,14.968186 25.7855133,15.0308217 25.8040813,15.0934574 C25.8245061,15.128186 25.8492633,15.1616744 25.8690692,15.1970233 C26.2924187,14.9867907 26.8061323,14.999814 27.2164842,15.2844651 C27.6336444,15.5746977 27.8255133,16.0646202 27.7679527,16.5427597 C28.1523095,16.5564031 28.5354284,16.6729922 28.8733653,16.9074109 C29.5851371,17.4029147 29.8915085,18.2698915 29.7169697,19.0804341 C29.9558774,19.1393488 30.187358,19.2391938 30.4002706,19.3867907 C31.3509502,20.047876 31.5774794,21.3688062 30.906557,22.3381085 C30.7493483,22.5650853 30.5556226,22.7498915 30.3408532,22.8956279 C30.3804648,22.8906667 30.4176007,22.8987287 30.4565934,22.8912868 C30.7586323,22.8329922 31.025392,22.6915969 31.2376857,22.4943876 C31.4567876,22.7722171 31.8145303,22.924155 32.1889842,22.8522171 C32.5566299,22.7821395 32.8382439,22.516093 32.9552221,22.1830698 C33.2733532,22.2692713 33.6162415,22.2891163 33.9647002,22.2221395 C35.20504,21.9858605 36.0362658,20.784 35.8227342,19.5374884 C35.7670303,19.2112868 35.6438629,18.9167132 35.4717998,18.659969 C35.8716299,18.2395039 36.0771153,17.6435349 35.9725158,17.0326822 C35.8536808,16.339969 35.369057,15.8109767 34.7526007,15.6063256 C34.9345667,15.2162481 35.005125,14.7709767 34.9271396,14.3182636 C34.7272245,13.1498915 33.6224308,12.3827597 32.4600765,12.6035349" id="Fill-15" fill="#3D9E24"></path>
                        <path d="M32.9550983,22.1831938 C32.8381201,22.5162171 32.557125,22.7822636 32.1888604,22.8523411 C31.9703774,22.8938915 31.7562269,22.8597829 31.573642,22.7673798 C31.4715182,22.7171473 31.3601104,22.6867597 31.2480837,22.6780775 C31.7952197,25.4545116 34.0846493,28.7196279 34.0846493,28.7196279 C32.5490789,26.8566822 30.5870643,25.6194729 29.2025133,24.903814 C29.1344308,25.3633488 28.9629867,25.816062 28.6795158,26.2266047 C28.4034721,26.6253643 28.0500619,26.936062 27.65704,27.1605581 C30.7102318,28.2111008 34.5903167,31.5183876 34.5903167,31.5183876 C30.9639939,30.1453643 27.8538604,30.5044341 26.5231566,30.7717209 C26.5287269,30.8597829 26.5448192,30.947845 26.5850498,31.0297054 C26.6494187,31.159938 26.6964575,31.3025736 26.7230716,31.4551318 C26.8332415,32.0976124 26.5392488,32.7227287 26.0261541,33.063814 C26.1189939,33.2219535 26.1864575,33.3980775 26.2198799,33.5909457 C26.2588726,33.8197829 26.2433993,34.0455194 26.1883143,34.2582326 C27.6242367,32.183814 33.3914454,32.6675349 37.9987755,35.4148217 C38.3379502,35.6169922 38.7767731,35.5196279 39.0014454,35.1946667 L40.4311784,33.1289302 C40.6508993,32.8114109 40.5964333,32.3804031 40.3061541,32.1255194 C38.7656323,30.7748217 32.1795765,25.3317209 34.4300133,22.0802481 C34.2827075,22.1428837 34.1279745,22.191876 33.9651954,22.2228837 C33.6167367,22.2886202 33.2738483,22.2693953 32.9550983,22.1831938" id="Fill-17" fill="#206B05"></path>
                        <path d="M21.6278374,24.6631938 C21.5931772,24.7134264 21.549233,24.7574574 21.4953859,24.7940465 C20.3701675,25.551876 18.8383107,25.2511008 18.0819757,24.1236589 C17.3262597,22.9962171 17.624585,21.463814 18.7510413,20.7028837 C18.980665,20.547845 19.2926068,20.6092403 19.4467209,20.839938 C19.6020728,21.0700155 19.5407985,21.3813333 19.3105558,21.5376124 C18.643966,21.9872248 18.4663325,22.8945116 18.9144393,23.5624186 C19.3625461,24.2303256 20.2686626,24.4083101 20.9346335,23.9586977 C21.1642573,23.8042791 21.476818,23.8650543 21.630932,24.0957519 C21.7503859,24.2731163 21.7417209,24.4982326 21.6278374,24.6631938" id="Fill-19" fill="#3D9E24"></path>
                        <path d="M33.268216,17.0802481 C33.095534,17.3295504 32.876432,17.5466047 32.6177184,17.7208682 C32.0724393,18.088 31.4176092,18.2207132 30.772682,18.0942016 C30.5009709,18.0408682 30.3239563,17.776062 30.3771845,17.5044341 C30.4316505,17.2297054 30.6946966,17.0535814 30.9657888,17.1075349 C31.3476699,17.1825736 31.7351214,17.103814 32.0582039,16.8867597 C32.3812864,16.6684651 32.5997694,16.3385426 32.6752791,15.9565271 C32.7501699,15.5732713 32.6715655,15.1850543 32.4543204,14.8619535 C32.2370752,14.5382326 31.9078034,14.3186977 31.5259223,14.2442791 C31.2542112,14.1915659 31.0765777,13.9267597 31.1304248,13.6545116 C31.1848908,13.3804031 31.447318,13.2042791 31.7190291,13.2576124 C32.3639563,13.384124 32.9209951,13.7543566 33.2874029,14.3013333 C33.6544296,14.8470698 33.7868811,15.503814 33.66,16.1500155 C33.5925364,16.4892403 33.459466,16.8042791 33.268216,17.0802481" id="Fill-21" fill="#67C24D"></path>
                        <path d="M28.3342755,22.0287752 C27.8447002,22.7357519 26.999858,23.1667597 26.0856954,23.0817984 C25.8096517,23.0563721 25.606642,22.812031 25.6320182,22.5348217 C25.6567755,22.2594729 25.9012536,22.0554419 26.1772973,22.0808682 C26.5647488,22.1168372 26.9422973,21.9990078 27.2418604,21.7503256 C27.5395667,21.5010233 27.7246274,21.1506357 27.7605255,20.7624186 C27.7964235,20.3742016 27.6794454,19.995907 27.4306347,19.6951318 C27.181824,19.3962171 26.8315085,19.2114109 26.444676,19.1754419 C26.1686323,19.1500155 25.9650036,18.9056744 25.9903799,18.6290853 C26.0157561,18.3531163 26.2602342,18.1484651 26.5362779,18.1745116 C27.1904891,18.2346667 27.7815692,18.5466047 28.201824,19.0532713 C28.62146,19.559938 28.8195182,20.1993178 28.7594818,20.8542016 C28.7198701,21.292031 28.5676129,21.692031 28.3342755,22.0287752" id="Fill-23" fill="#3D9E24"></path>
                        <path d="M25.1054308,21.9330853 C24.9005643,22.2288992 24.6288532,22.4831628 24.2952488,22.6716899 C23.1143265,23.3395969 21.6109405,22.9203721 20.9449697,21.7371163 C20.8094235,21.4952558 20.8935983,21.1888992 21.1349818,21.051845 C21.3763653,20.9154109 21.6827367,21.0009922 21.8189017,21.2422326 C22.2131614,21.9430078 23.1031857,22.1910698 23.8025789,21.7954109 C24.5001153,21.4003721 24.7495449,20.5092093 24.3546663,19.8084341 C24.2185012,19.5671938 24.302676,19.2602171 24.5446784,19.1231628 C24.7860619,18.9867287 25.0924333,19.0723101 25.2285983,19.3135504 C25.7070328,20.1644031 25.6259527,21.1808372 25.1054308,21.9330853" id="Fill-25" fill="#3D9E24"></path>
                        <path d="M25.2462379,26.6811163 C25.0556068,26.9564651 24.808034,27.192124 24.5146602,27.3732093 C23.3609709,28.0863876 21.8427306,27.7254574 21.1309587,26.5682481 C20.9861286,26.3325891 21.0573058,26.0243721 21.2943568,25.8773953 C21.5301699,25.7316589 21.8396359,25.8048372 21.984466,26.0417364 C22.4065777,26.7257674 23.305267,26.9397209 23.988568,26.5173953 C24.3196966,26.312124 24.5511772,25.9915039 24.6409223,25.611969 C24.7306675,25.2330543 24.6681553,24.8417364 24.4639078,24.5099535 C24.3190777,24.2736744 24.3908738,23.9654574 24.6273058,23.8184806 C24.8631189,23.672124 25.172585,23.7465426 25.318034,23.9822016 C25.6627791,24.5422016 25.7698544,25.2032868 25.6175971,25.843907 C25.545801,26.1490233 25.4189199,26.431814 25.2462379,26.6811163" id="Fill-27" fill="#3D9E24"></path>
                        <path d="M23.9280364,18.9595039 C23.8828544,19.0246202 23.8345777,19.0884961 23.7825874,19.1505116 C23.358,19.6528372 22.7644442,19.959814 22.1096141,20.0143876 C21.8335704,20.0379535 21.590949,19.832062 21.5680485,19.5554729 C21.5445291,19.2776434 21.7500146,19.0357829 22.0260583,19.0128372 C22.4135097,18.979969 22.7650631,18.7982636 23.0163495,18.5012093 C23.2725874,18.2004341 23.3877087,17.8252403 23.3555243,17.4376434 C23.2886796,16.6357829 22.5830971,16.0379535 21.7834369,16.1049302 C21.5067743,16.1291163 21.2647718,15.9232248 21.2412524,15.6460155 C21.2183519,15.368186 21.4244563,15.1263256 21.6992621,15.1027597 C23.0510097,14.9898915 24.2424539,15.9995039 24.3557184,17.3526822 C24.4033762,17.9288062 24.2523568,18.4906667 23.9280364,18.9595039" id="Fill-29" fill="#3D9E24"></path>
                        <path d="M21.6064223,32.9596279 C21.4312646,33.2126512 21.2059733,33.4371473 20.9330243,33.6163721 C19.7985218,34.3593178 18.2709976,34.0386977 17.5288981,32.9013333 C17.3772597,32.6693953 17.4422476,32.3580775 17.6743471,32.2055194 C17.9064466,32.0535814 18.2171505,32.1193178 18.3694078,32.3512558 C18.8082306,33.024124 19.7118714,33.2138915 20.3840316,32.7735814 C21.0580485,32.3326512 21.2462039,31.4272248 20.8061432,30.7543566 C20.6538859,30.5217984 20.7201117,30.2098605 20.9515922,30.0585426 C21.1836917,29.9066047 21.4943956,29.9717209 21.646034,30.2042791 C22.2092621,31.0687752 22.1603665,32.1590078 21.6064223,32.9596279" id="Fill-31" fill="#67C24D"></path>
                        <path d="M72.3543313,26.1493953 C72.6291371,25.732031 72.630375,25.2173023 72.411892,24.7974574 C72.7950109,24.5717209 73.1348046,24.2616434 73.395375,23.8659845 C74.3225352,22.460093 73.9152779,20.5531163 72.4867828,19.6073798 C72.1135667,19.3605581 71.7069284,19.2055194 71.2934818,19.1335814 C71.2532512,18.3621085 70.8577536,17.6148217 70.1577415,17.1515659 C69.3642706,16.6269147 68.3894527,16.6021085 67.6102172,17.003969 C67.3960667,16.4706357 67.0228507,15.9912558 66.5041857,15.6476899 C65.1641978,14.7614884 63.3736274,15.1112558 62.5040279,16.4297054 C62.43904,16.5283101 62.3833362,16.6306357 62.3325837,16.7335814 C61.1677536,16.4259845 59.898324,16.860093 59.2082148,17.9062946 C58.6703629,18.7224186 58.6121833,19.7183876 58.9631177,20.5686202 C58.4846833,20.7422636 58.0570012,21.0622636 57.7568192,21.5174574 C57.0035789,22.6604031 57.3334697,24.2095504 58.4945862,24.9779225 C58.9804478,25.2997829 59.534392,25.4312558 60.0703871,25.3940465 C60.1118556,26.3534264 60.600193,27.2861395 61.4710303,27.8628837 C62.3907633,28.4712558 63.5091735,28.5307907 64.4375716,28.1221085 C64.4041493,28.8452093 64.7451808,29.5726512 65.4000109,30.0061395 C66.3822561,30.656062 67.6956299,30.3993178 68.3325109,29.4324961 C68.4754842,29.2148217 68.5701808,28.9804031 68.623409,28.7410233 C69.4366857,28.8973023 70.2945255,28.5711008 70.772341,27.8461395 C70.9982512,27.5031938 71.1071833,27.1162171 71.1115158,26.7304806 C71.5899502,26.7769922 72.074574,26.5742016 72.3543313,26.1493953" id="Fill-33" fill="#67C24D"></path>
                        <path d="M59.4609867,25.3548527 C59.1261444,25.2965581 58.7968726,25.1781085 58.4942148,24.9784186 C57.3330983,24.2094264 57.0025886,22.6596589 57.7564478,21.5179535 C58.0560109,21.0615194 58.4843119,20.7427597 58.9627464,20.567876 C58.6118119,19.7176434 58.6699915,18.7222946 59.2078434,17.9055504 C59.4684138,17.5111318 59.81254,17.2029147 60.2012294,16.9902016 C59.7797367,16.1176434 58.8117269,15.5973333 57.8239114,15.7902016 C57.7372609,15.8069457 57.6537051,15.8311318 57.5720061,15.8577984 C57.1121396,15.0888062 56.2041663,14.6491163 55.2831954,14.8289612 C54.5639964,14.9697364 54.0069575,15.4540775 53.7445303,16.0779535 C53.3966905,15.9167132 52.9993362,15.8584186 52.5982682,15.9365581 C51.5918847,16.1337674 50.9494333,17.108031 51.1635837,18.1126822 C51.2533289,18.5337674 51.479858,18.8915969 51.7862294,19.1526822 C51.3009867,19.6705116 51.0695061,20.4084961 51.2298095,21.1619845 C51.4000158,21.9582636 51.9663386,22.5746977 52.6787294,22.848186 C52.2788993,23.2047752 52.0765085,23.7591938 52.1965813,24.3266357 C52.3785473,25.1768682 53.2153434,25.7306667 54.0676129,25.5644651 C54.2582439,25.5266357 54.4327828,25.4546977 54.5881347,25.3585736 C54.940307,25.8646202 55.5709988,26.1443101 56.2091177,26.0202791 C56.5111566,25.9613643 56.7735837,25.8181085 56.9796881,25.6215194 C57.2111687,25.8956279 57.5769575,26.043845 57.9514114,25.9712868 C58.3184381,25.8993488 58.5913871,25.6333023 58.6959867,25.3021395 C58.9410837,25.3653953 59.1997973,25.3746977 59.4609867,25.3548527" id="Fill-35" fill="#3D9E24"></path>
                        <path d="M75.1473859,31.3420155 C75.128818,31.2551938 75.1040607,31.172093 75.0755898,31.0896124 C75.8405898,30.6443411 76.2682718,29.7488372 76.0714515,28.8285271 C75.9185752,28.1110078 75.4221917,27.5485271 74.7908811,27.2775194 C74.9468519,26.9339535 74.9994612,26.5395349 74.9140485,26.1389147 C74.6992791,25.1336434 73.7102257,24.4793798 72.7026044,24.675969 C72.6369976,24.6889922 72.5751044,24.7106977 72.5132112,24.7305426 C72.478551,24.7522481 72.4457476,24.7776744 72.4117063,24.7981395 C72.6308083,25.2173643 72.6289515,25.7327132 72.3541456,26.1500775 C72.0743883,26.5748837 71.5897646,26.7776744 71.1113301,26.7305426 C71.1063786,27.1156589 70.9980655,27.5026357 70.7715364,27.8455814 C70.2937209,28.5705426 69.4365,28.8967442 68.6226044,28.7404651 C68.5699951,28.9804651 68.4752985,29.2148837 68.3323252,29.431938 C67.6948252,30.3987597 66.3820704,30.656124 65.3992063,30.0055814 C65.1695825,29.8536434 64.9808083,29.6632558 64.8310267,29.4511628 C64.8359782,29.4908527 64.8297888,29.528062 64.837835,29.5671318 C64.9022039,29.8685271 65.0501286,30.132093 65.2512816,30.3404651 C64.9783325,30.5662016 64.8353592,30.9283721 64.9152015,31.3017054 C64.9931869,31.6682171 65.265517,31.9448062 65.6003592,32.0533333 C65.5217549,32.3751938 65.5099951,32.7187597 65.584267,33.0660465 C65.848551,34.3026357 67.0659903,35.1088372 68.3050922,34.8669767 C68.6287937,34.8037209 68.9203107,34.6734884 69.172835,34.496124 C69.6011359,34.8868217 70.2002621,35.0790698 70.8080534,34.9606202 C71.4956869,34.8260465 72.0131141,34.328062 72.2037451,33.7066667 C72.5961481,33.8796899 73.0423981,33.9404651 73.4929806,33.8524031 C74.6534782,33.6254264 75.3943398,32.5017054 75.1473859,31.3420155" id="Fill-37" fill="#3D9E24"></path>
                        <path d="M65.6004211,32.0535814 C65.2655789,31.943814 64.9938677,31.6684651 64.9152633,31.3013333 C64.8682245,31.0836589 64.8985522,30.8684651 64.9858216,30.6830388 C65.0340983,30.5794729 65.0619502,30.4672248 65.0681396,30.3555969 C62.3101784,30.9658295 59.1034915,33.3329612 59.1034915,33.3329612 C60.9274842,31.7528062 62.1183095,29.7596279 62.8009915,28.3562171 C62.341125,28.2979225 61.8849721,28.1373023 61.4696687,27.8619535 C61.0655061,27.5946667 60.747375,27.2473798 60.5146566,26.8591628 C59.5355061,29.9413333 56.3232488,33.9016434 56.3232488,33.9016434 C57.6112464,30.2390078 57.1823265,27.1314109 56.885858,25.8048992 C56.7979697,25.8123411 56.7107002,25.8303256 56.6302391,25.871876 C56.5015012,25.940093 56.3597658,25.9909457 56.2087464,26.020093 C55.5700085,26.1453643 54.9393167,25.8650543 54.5877633,25.3583876 C54.4324114,25.4545116 54.2578726,25.5270698 54.0666226,25.5642791 C53.8388556,25.6083101 53.6129454,25.5983876 53.3994138,25.548155 C55.501926,26.9397829 55.1491347,32.7270698 52.5118653,37.4048992 C52.3181396,37.7497054 52.4245959,38.1862946 52.7538677,38.403969 L54.8470959,39.7900155 C55.1695595,40.0027287 55.5978604,39.9388527 55.8454333,39.6424186 C57.159426,38.067845 62.441392,31.347845 65.7359672,33.5289302 C65.6709794,33.3825736 65.6183701,33.2293953 65.583091,33.0669147 C65.510057,32.7190078 65.5218167,32.3754419 65.6004211,32.0535814" id="Fill-39" fill="#206B05"></path>
                        <path d="M62.87025,20.7630388 C62.8194976,20.7295504 62.7743155,20.6861395 62.7371796,20.6334264 C61.9554684,19.5233488 62.2209903,17.9822636 63.3288786,17.1990078 C64.4361481,16.4163721 65.9723374,16.6811783 66.7565243,17.791876 C66.9162087,18.0182326 66.8629806,18.3326512 66.6358325,18.492031 C66.4093034,18.6526512 66.0973617,18.5986977 65.9364393,18.3717209 C65.4734782,17.7137364 64.5630291,17.5562171 63.9075801,18.020093 C63.2508932,18.483969 63.0943034,19.3962171 63.5572646,20.0529612 C63.716949,20.279938 63.6631019,20.5943566 63.4365728,20.7531163 C63.262034,20.8777674 63.0373617,20.8740465 62.87025,20.7630388" id="Fill-41" fill="#3D9E24"></path>
                        <path d="M70.6988119,32.2528372 C70.4462876,32.0847752 70.22471,31.8708217 70.0446007,31.615938 C69.6664333,31.0770233 69.5191274,30.4246202 69.6311541,29.775938 C69.678193,29.5018295 69.9381444,29.3188837 70.2110934,29.3660155 C70.4858993,29.4143876 70.6672464,29.6742326 70.6202075,29.9471008 C70.5539818,30.3309767 70.6412512,30.7173333 70.8653046,31.036093 C71.0899769,31.3554729 71.4242002,31.5663256 71.8073192,31.6326822 C72.1904381,31.6990388 72.5766517,31.6122171 72.8941638,31.3871008 C73.2122949,31.1619845 73.4233507,30.8277209 73.4889575,30.4432248 C73.5359964,30.1697364 73.7959478,29.9861705 74.0688968,30.0339225 C74.3430837,30.0816744 74.5256687,30.3408992 74.4780109,30.6143876 C74.3659842,31.2630698 74.0094794,31.8292713 73.4722464,32.2094264 C72.9356323,32.5889612 72.2838968,32.735938 71.6364939,32.6243101 C71.2960813,32.564155 70.9785692,32.4376434 70.6988119,32.2528372" id="Fill-43" fill="#67C24D"></path>
                        <path d="M65.6499976,27.4218295 C64.9338932,26.9474109 64.4851675,26.1108217 64.5489175,25.1929922 C64.5674854,24.9157829 64.8070121,24.7067907 65.0836748,24.7260155 C65.3597184,24.7446202 65.5689175,24.9852403 65.5491117,25.2624496 C65.5224976,25.6512868 65.6481408,26.0271008 65.9037597,26.3210543 C66.1581408,26.6137674 66.5127888,26.7911318 66.9008592,26.8184186 C67.2889296,26.8457054 67.6640024,26.719814 67.9579951,26.4636899 C68.2513689,26.2075659 68.4271456,25.8528372 68.4543786,25.4646202 C68.4735655,25.1867907 68.7130922,24.9784186 68.9897549,24.9976434 C69.2651796,25.0162481 69.4749976,25.2568682 69.4551917,25.5334574 C69.4100097,26.1908217 69.1123034,26.7892713 68.6159199,27.2221395 C68.1201553,27.6537674 67.4863689,27.8664806 66.8309199,27.8212093 C66.3945728,27.7914419 65.9916481,27.6475659 65.6499976,27.4218295" id="Fill-45" fill="#3D9E24"></path>
                        <path d="M65.67296,24.1853643 C65.3733968,23.9869147 65.1134454,23.7202481 64.9172439,23.3903256 C64.224659,22.2219535 64.6090158,20.7075349 65.7750837,20.0123411 C66.0127536,19.8715659 66.3203629,19.9490853 66.4627172,20.187845 C66.6038337,20.4266047 66.5258483,20.7354419 66.2881784,20.8774574 C65.5980692,21.288 65.3696833,22.1847442 65.7806541,22.8768372 C66.1910061,23.5670698 67.0853629,23.7965271 67.7754721,23.3853643 C68.0137609,23.2433488 68.3207512,23.3202481 68.4637245,23.5602481 C68.604841,23.7990078 68.5268556,24.1072248 68.2891857,24.2498605 C67.4511517,24.747845 66.4354842,24.6895504 65.67296,24.1853643" id="Fill-47" fill="#3D9E24"></path>
                        <path d="M60.9381917,24.4330543 C60.6590534,24.2482481 60.4182888,24.0063876 60.2307524,23.7167752 C59.4942233,22.5763101 59.8197816,21.0476279 60.9579976,20.3084031 C61.1894782,20.1577054 61.4989442,20.2222016 61.6512015,20.4566202 C61.8022209,20.6891783 61.7359951,21.0011163 61.5032767,21.151814 C60.8298786,21.5896434 60.6367718,22.4950698 61.0731189,23.1697984 C61.2854126,23.4972403 61.6109709,23.7223566 61.9916141,23.8023566 C62.3716383,23.8842171 62.7603277,23.8122791 63.0871238,23.600186 C63.3192233,23.4501085 63.6286893,23.515845 63.7809466,23.7484031 C63.9313471,23.9815814 63.8651214,24.2928992 63.6330218,24.4442171 C63.0821723,24.8026667 62.4242476,24.9242171 61.7817961,24.7859225 C61.4760437,24.7214264 61.191335,24.6011163 60.9381917,24.4330543" id="Fill-49" fill="#3D9E24"></path>
                        <path d="M68.6131966,22.9384186 C68.5469709,22.8950078 68.4826019,22.847876 68.4194709,22.7970233 C67.908233,22.3833798 67.5888641,21.7954729 67.5195437,21.1412093 C67.489835,20.8646202 67.68975,20.6171783 67.9651748,20.588031 C68.2418374,20.5582636 68.4875534,20.7585736 68.5172621,21.0345426 C68.5587306,21.4221395 68.7475049,21.7700465 69.0501626,22.0150078 C69.355915,22.2649302 69.7334636,22.3715969 70.1190583,22.3312868 C70.9174806,22.2457054 71.4980388,21.5257054 71.4126262,20.7263256 C71.3835364,20.4497364 71.5828325,20.2022946 71.8588762,20.1725271 C72.1355388,20.1427597 72.3812549,20.3436899 72.4109636,20.6196589 C72.5545558,21.9697364 71.5741675,23.1864806 70.2261335,23.3309767 C69.6523835,23.3911318 69.0879175,23.2528372 68.6131966,22.9384186" id="Fill-51" fill="#3D9E24"></path>
                        <path d="M54.5917245,20.9289922 C54.3348677,20.7590698 54.1064818,20.5382946 53.92204,20.2691473 C53.1545643,19.1491473 53.439892,17.6117829 54.5576833,16.8427907 C54.7860692,16.6852713 55.097392,16.744186 55.2558386,16.9730233 C55.4124284,17.2018605 55.3542488,17.5144186 55.1258629,17.671938 C54.4642245,18.1265116 54.2952561,19.0368992 54.7495522,19.7010853 C55.2044672,20.3658915 56.1130595,20.5333333 56.7740789,20.0775194 C57.0030837,19.92 57.3156444,19.9795349 57.4716153,20.2077519 C57.628824,20.4365891 57.5706444,20.7497674 57.3422585,20.9066667 C56.4918459,21.4896124 55.4031444,21.4654264 54.5917245,20.9289922" id="Fill-53" fill="#67C24D"></path>
                        <path d="M26.0919046,36.9557642 C26.2243324,36.5187831 26.3191966,36.2682171 26.3191966,36.2682171 C26.3191966,36.2682171 26.0467008,36.5202925 25.5691966,36.8735001 C25.7398248,36.9021793 25.9117263,36.9293491 26.0919046,36.9557642" id="Fill-55" fill="#FF6807"></path>
                        <path d="M21.603699,33.304186 C21.4390631,34.0589147 21.5479951,34.7708527 21.7968058,35.4232558 C23.0130073,35.7581395 24.491017,36.0508527 26.2982985,36.267907 C26.9766481,38.1668217 27.7107015,39.6582946 28.4540388,40.8409302 C29.2895971,41.015814 30.1777646,41.0003101 31.02075,40.5662016 C33.6685413,39.2043411 43.5924976,20.0049612 45.0785534,13.5683721 C45.218432,12.9624806 44.7071942,12.5686822 44.1594393,12.8595349 C38.3303374,15.9472868 22.2399612,30.391938 21.603699,33.304186" id="Fill-57" fill="#FF9000"></path>
                        <path d="M40.7241189,19.1896434 C41.1635607,19.3335194 41.5968131,19.5226667 42.0127354,19.7515039 C42.3122985,19.9177054 42.6879903,19.8073178 42.8526262,19.5077829 C43.0172621,19.2076279 42.9083301,18.8305736 42.608767,18.6656124 C42.126,18.3995659 41.6215704,18.1787907 41.1090947,18.0113488 C41.0187306,17.9815814 40.9258908,17.9735194 40.8367646,17.9853023 C40.6077597,18.0150698 40.40475,18.1725891 40.3280024,18.4076279 C40.222165,18.7332093 40.3997985,19.0835969 40.7241189,19.1896434" id="Fill-59" fill="#FB7000"></path>
                        <path d="M23.2649745,33.3708527 C24.5832998,33.6865116 25.8607755,34.3965891 27.0608847,35.4812403 C27.3146468,35.7106977 27.7058119,35.6902326 27.9348167,35.435969 C28.1644405,35.1817054 28.1440158,34.7897674 27.8896347,34.5603101 C26.5341735,33.3348837 25.0747318,32.5286822 23.5527779,32.164031 C23.4772682,32.1454264 23.4017585,32.1423256 23.3287245,32.1516279 C23.0817706,32.183876 22.8682391,32.3655814 22.8063459,32.6229457 C22.7271226,32.955969 22.932608,33.2908527 23.2649745,33.3708527" id="Fill-61" fill="#FB7000"></path>
                        <path d="M33.9838252,36.8973643 C33.7374903,36.8663566 33.5196262,36.6902326 33.4564951,36.4322481 C33.2163495,35.4431008 32.5299539,34.2096124 31.535949,33.6855814 C31.2339102,33.5262016 31.117551,33.1516279 31.2772354,32.8483721 C31.3744078,32.6629457 31.5526602,32.5475969 31.745767,32.5221705 C31.8676966,32.5066667 31.9958155,32.5265116 32.1140316,32.5891473 C33.4546383,33.296124 34.267915,34.775814 34.596568,35.9218605" id="Fill-63" fill="#FB7000"></path>
                        <path d="M32.1137221,32.5889612 C31.9967439,32.5263256 31.868625,32.5064806 31.7454575,32.5226047 C31.5529697,32.548031 31.3747172,32.6627597 31.2775449,32.848186 C31.1184794,33.1514419 31.2342197,33.5260155 31.5362585,33.6860155 C32.5290255,34.2106667 33.216659,35.444155 33.4561857,36.432062 C33.5193167,36.6894264 33.7371808,36.8661705 33.9835158,36.8971783 C34.1834308,36.5852403 34.3876784,36.2627597 34.5968774,35.9222946 C34.2682245,34.7756279 33.4549478,33.2965581 32.1137221,32.5889612" id="Fill-65" fill="#FB7000"></path>
                        <path d="M27.8144964,26.0512868 C28.9991323,26.0884961 30.5996905,26.5027597 31.6097876,27.6016744 C31.8412682,27.8534574 31.824557,28.2460155 31.5732706,28.4785736 C31.3226032,28.7098915 30.9302002,28.6937674 30.6987197,28.4413643 C29.9386711,27.6146977 28.573307,27.2643101 27.5570206,27.2847752 C27.2846905,27.2909767 27.0569235,27.116093 26.9696541,26.8729922" id="Fill-67" fill="#FB7000"></path>
                        <path d="M27.5566493,27.2855814 C28.5735546,27.2644961 29.9389187,27.6142636 30.6977294,28.4421705 C30.92921,28.6939535 31.3222318,28.7106977 31.5728993,28.4787597 C31.8248046,28.2468217 31.8408968,27.8542636 31.6094163,27.6024806 C30.5993192,26.5023256 28.998142,26.088062 27.814125,26.052093 C27.5257027,26.3286822 27.2440886,26.6015504 26.9686638,26.8725581 C27.0565522,27.1162791 27.2849381,27.2911628 27.5566493,27.2855814" id="Fill-69" fill="#FB7000"></path>
                        <path d="M38.0368398,29.8261085 C37.7843155,29.800062 37.5608811,29.6226977 37.4971311,29.3609922 C37.3467306,28.7395969 36.9196675,27.9675039 36.3069248,27.6431628 C36.0048859,27.4837829 35.8885267,27.1085891 36.0482112,26.8053333 C36.1460024,26.619907 36.3236359,26.5051783 36.5167427,26.4797519 C36.6386723,26.4636279 36.7667913,26.4834729 36.8850073,26.5461085 C37.7750316,27.016186 38.3413544,27.9569612 38.6044005,28.7383566" id="Fill-71" fill="#FB7000"></path>
                        <path d="M36.8842027,26.5461085 C36.7672245,26.4834729 36.6391056,26.4636279 36.5159381,26.4797519 C36.3234502,26.5051783 36.1451978,26.619907 36.0474066,26.8053333 C35.88896,27.107969 36.0040813,27.4831628 36.3061201,27.6437829 C36.9194818,27.9675039 37.345926,28.7389767 37.4963265,29.3609922 C37.5600765,29.623938 37.7835109,29.8006822 38.0360352,29.8261085 C38.2260473,29.4664186 38.4148216,29.1042481 38.6042148,28.7389767 C38.3411687,27.9569612 37.7742269,27.016186 36.8842027,26.5461085" id="Fill-73" fill="#FB7000"></path>
                        <path d="M34.7016007,19.8564341 C35.5482998,19.8564341 36.7638823,20.1429457 37.5202172,20.9677519 C37.7516978,21.220155 37.7356056,21.612093 37.4849381,21.844031 C37.2324138,22.0772093 36.8412488,22.059845 36.6097682,21.808062 C36.1399988,21.2970543 35.2864915,21.0824806 34.6483726,21.0955039 C34.3067221,21.1029457 34.0238701,20.8300775 34.0170619,20.4883721 C34.016443,20.4685271 34.025108,20.4511628 34.0263459,20.4325581" id="Fill-75" fill="#FB7000"></path>
                        <path d="M34.6484345,21.0948837 C35.2865534,21.0818605 36.1406796,21.2970543 36.6098301,21.8074419 C36.8406917,22.059845 37.2318568,22.0765891 37.4843811,21.8434109 C37.7356675,21.612093 37.7523786,21.2195349 37.5202791,20.9671318 C36.7627063,20.1423256 35.5483617,19.855814 34.7010437,19.855814 C34.4763714,20.0462016 34.2510801,20.2384496 34.0257888,20.4313178 C34.024551,20.4499225 34.0165049,20.4672868 34.0171238,20.4871318 C34.0233131,20.8288372 34.306784,21.1023256 34.6484345,21.0948837" id="Fill-77" fill="#FB7000"></path>
                        <path d="M60.1038095,37.0311938 C60.3284818,36.5325891 61.610909,33.4014264 60.2436881,29.6922791 C59.9422682,28.8749147 59.4180328,28.0811163 58.8628507,27.2408062 L58.7656784,27.0950698 C58.4859211,26.6696434 58.1640765,26.2287132 57.8094284,25.7828217 C50.7944527,16.9673178 43.5622318,19.0386357 40.7782755,20.3378605 C38.0698289,21.6023566 35.8107269,23.7468527 34.243591,26.5381705 C31.8922682,30.7316589 31.7462002,34.1741395 33.8103386,36.7676279 C34.6632269,37.839876 35.9147075,38.8011163 37.5319769,39.624062 C39.3460667,40.5474729 42.0049988,41.3449922 44.1390765,37.6209612 C45.2160182,35.7418915 47.0517706,34.5704186 49.1747075,34.4085581 C51.556358,34.2274729 53.8624988,35.4243721 55.117693,37.5093333 C55.2761396,37.7735194 55.4426323,38.016 55.6116007,38.2287132 C56.0269041,38.7502636 56.6724502,39.3654574 57.3885546,39.3251473 C58.2074017,39.279876 59.1939794,38.4451473 60.1038095,37.0311938" id="Fill-79" fill="#FF91AD"></path>
                        <path d="M122.487826,26.1493953 C122.762632,25.732031 122.76387,25.2173023 122.545387,24.7974574 C122.928506,24.5717209 123.2683,24.2616434 123.52887,23.8659845 C124.45603,22.460093 124.048773,20.5531163 122.620278,19.6073798 C122.247062,19.3605581 121.840424,19.2055194 121.426977,19.1335814 C121.386746,18.3621085 120.991249,17.6148217 120.291237,17.1515659 C119.497766,16.6269147 118.522948,16.6021085 117.743712,17.003969 C117.529562,16.4706357 117.156346,15.9912558 116.637681,15.6476899 C115.297693,14.7614884 113.507123,15.1112558 112.637523,16.4297054 C112.572535,16.5283101 112.516831,16.6306357 112.466079,16.7335814 C111.301249,16.4259845 110.031819,16.860093 109.34171,17.9062946 C108.803858,18.7224186 108.745678,19.7183876 109.096613,20.5686202 C108.618178,20.7422636 108.190496,21.0622636 107.890314,21.5174574 C107.137074,22.6604031 107.466965,24.2095504 108.628081,24.9779225 C109.113943,25.2997829 109.667887,25.4312558 110.203882,25.3940465 C110.245351,26.3534264 110.733688,27.2861395 111.604525,27.8628837 C112.524258,28.4712558 113.642669,28.5307907 114.571067,28.1221085 C114.537644,28.8452093 114.878676,29.5726512 115.533506,30.0061395 C116.515751,30.656062 117.829125,30.3993178 118.466006,29.4324961 C118.608979,29.2148217 118.703676,28.9804031 118.756904,28.7410233 C119.570181,28.8973023 120.428021,28.5711008 120.905836,27.8461395 C121.131746,27.5031938 121.240678,27.1162171 121.245011,26.7304806 C121.723445,26.7769922 122.208069,26.5742016 122.487826,26.1493953" id="Fill-81" fill="#67C24D"></path>
                        <path d="M109.594482,25.3548527 C109.25964,25.2965581 108.930368,25.1781085 108.62771,24.9784186 C107.466593,24.2094264 107.136084,22.6596589 107.889943,21.5179535 C108.189506,21.0615194 108.617807,20.7427597 109.096242,20.567876 C108.745307,19.7176434 108.803487,18.7222946 109.341339,17.9055504 C109.601909,17.5111318 109.946035,17.2029147 110.334725,16.9902016 C109.913232,16.1176434 108.945222,15.5973333 107.957407,15.7902016 C107.870756,15.8069457 107.7872,15.8311318 107.705501,15.8577984 C107.245635,15.0888062 106.337661,14.6491163 105.416691,14.8289612 C104.697492,14.9697364 104.140453,15.4540775 103.878025,16.0779535 C103.530186,15.9167132 103.132831,15.8584186 102.731763,15.9365581 C101.72538,16.1337674 101.082928,17.108031 101.297079,18.1126822 C101.386824,18.5337674 101.613353,18.8915969 101.919725,19.1526822 C101.434482,19.6705116 101.203001,20.4084961 101.363305,21.1619845 C101.533511,21.9582636 102.099834,22.5746977 102.812225,22.848186 C102.412394,23.2047752 102.210004,23.7591938 102.330076,24.3266357 C102.512042,25.1768682 103.348839,25.7306667 104.201108,25.5644651 C104.391739,25.5266357 104.566278,25.4546977 104.72163,25.3585736 C105.073802,25.8646202 105.704494,26.1443101 106.342613,26.0202791 C106.644652,25.9613643 106.907079,25.8181085 107.113183,25.6215194 C107.344664,25.8956279 107.710453,26.043845 108.084907,25.9712868 C108.451933,25.8993488 108.724882,25.6333023 108.829482,25.3021395 C109.074579,25.3653953 109.333292,25.3746977 109.594482,25.3548527" id="Fill-83" fill="#3D9E24"></path>
                        <path d="M125.280881,31.3420155 C125.262313,31.2551938 125.237556,31.172093 125.209085,31.0896124 C125.974085,30.6443411 126.401767,29.7488372 126.204947,28.8285271 C126.05207,28.1110078 125.555687,27.5485271 124.924376,27.2775194 C125.080347,26.9339535 125.132956,26.5395349 125.047544,26.1389147 C124.832774,25.1336434 123.843721,24.4793798 122.8361,24.675969 C122.770493,24.6889922 122.7086,24.7106977 122.646706,24.7305426 C122.612046,24.7522481 122.579243,24.7776744 122.545201,24.7981395 C122.764303,25.2173643 122.762447,25.7327132 122.487641,26.1500775 C122.207883,26.5748837 121.72326,26.7776744 121.244825,26.7305426 C121.239874,27.1156589 121.131561,27.5026357 120.905032,27.8455814 C120.427216,28.5705426 119.569995,28.8967442 118.7561,28.7404651 C118.70349,28.9804651 118.608794,29.2148837 118.46582,29.431938 C117.82832,30.3987597 116.515566,30.656124 115.532701,30.0055814 C115.303078,29.8536434 115.114303,29.6632558 114.964522,29.4511628 C114.969473,29.4908527 114.963284,29.528062 114.97133,29.5671318 C115.035699,29.8685271 115.183624,30.132093 115.384777,30.3404651 C115.111828,30.5662016 114.968854,30.9283721 115.048697,31.3017054 C115.126682,31.6682171 115.399012,31.9448062 115.733854,32.0533333 C115.65525,32.3751938 115.64349,32.7187597 115.717762,33.0660465 C115.982046,34.3026357 117.199485,35.1088372 118.438587,34.8669767 C118.762289,34.8037209 119.053806,34.6734884 119.30633,34.496124 C119.734631,34.8868217 120.333757,35.0790698 120.941549,34.9606202 C121.629182,34.8260465 122.146609,34.328062 122.33724,33.7066667 C122.729643,33.8796899 123.175893,33.9404651 123.626476,33.8524031 C124.786973,33.6254264 125.527835,32.5017054 125.280881,31.3420155" id="Fill-85" fill="#3D9E24"></path>
                        <path d="M115.733916,32.0535814 C115.399074,31.943814 115.127363,31.6684651 115.048758,31.3013333 C115.00172,31.0836589 115.032047,30.8684651 115.119317,30.6830388 C115.167593,30.5794729 115.195445,30.4672248 115.201635,30.3555969 C112.443674,30.9658295 109.236987,33.3329612 109.236987,33.3329612 C111.060979,31.7528062 112.251805,29.7596279 112.934487,28.3562171 C112.47462,28.2979225 112.018467,28.1373023 111.603164,27.8619535 C111.199001,27.5946667 110.88087,27.2473798 110.648152,26.8591628 C109.669001,29.9413333 106.456744,33.9016434 106.456744,33.9016434 C107.744742,30.2390078 107.315822,27.1314109 107.019353,25.8048992 C106.931465,25.8123411 106.844195,25.8303256 106.763734,25.871876 C106.634996,25.940093 106.493261,25.9909457 106.342242,26.020093 C105.703504,26.1453643 105.072812,25.8650543 104.721258,25.3583876 C104.565907,25.4545116 104.391368,25.5270698 104.200118,25.5642791 C103.972351,25.6083101 103.746441,25.5983876 103.532909,25.548155 C105.635421,26.9397829 105.28263,32.7270698 102.64536,37.4048992 C102.451635,37.7497054 102.558091,38.1862946 102.887363,38.403969 L104.980591,39.7900155 C105.303055,40.0027287 105.731356,39.9388527 105.978928,39.6424186 C107.292921,38.067845 112.574887,31.347845 115.869462,33.5289302 C115.804475,33.3825736 115.751865,33.2293953 115.716586,33.0669147 C115.643552,32.7190078 115.655312,32.3754419 115.733916,32.0535814" id="Fill-87" fill="#206B05"></path>
                        <path d="M113.003745,20.7630388 C112.952993,20.7295504 112.907811,20.6861395 112.870675,20.6334264 C112.088964,19.5233488 112.354485,17.9822636 113.462374,17.1990078 C114.569643,16.4163721 116.105833,16.6811783 116.890019,17.791876 C117.049704,18.0182326 116.996476,18.3326512 116.769328,18.492031 C116.542799,18.6526512 116.230857,18.5986977 116.069934,18.3717209 C115.606973,17.7137364 114.696524,17.5562171 114.041075,18.020093 C113.384388,18.483969 113.227799,19.3962171 113.69076,20.0529612 C113.850444,20.279938 113.796597,20.5943566 113.570068,20.7531163 C113.395529,20.8777674 113.170857,20.8740465 113.003745,20.7630388" id="Fill-89" fill="#3D9E24"></path>
                        <path d="M120.832307,32.2528372 C120.579783,32.0847752 120.358205,31.8708217 120.178096,31.615938 C119.799928,31.0770233 119.652623,30.4246202 119.764649,29.775938 C119.811688,29.5018295 120.07164,29.3188837 120.344589,29.3660155 C120.619394,29.4143876 120.800742,29.6742326 120.753703,29.9471008 C120.687477,30.3309767 120.774746,30.7173333 120.9988,31.036093 C121.223472,31.3554729 121.557695,31.5663256 121.940814,31.6326822 C122.323933,31.6990388 122.710147,31.6122171 123.027659,31.3871008 C123.34579,31.1619845 123.556846,30.8277209 123.622453,30.4432248 C123.669492,30.1697364 123.929443,29.9861705 124.202392,30.0339225 C124.476579,30.0816744 124.659164,30.3408992 124.611506,30.6143876 C124.499479,31.2630698 124.142975,31.8292713 123.605742,32.2094264 C123.069127,32.5889612 122.417392,32.735938 121.769989,32.6243101 C121.429576,32.564155 121.112064,32.4376434 120.832307,32.2528372" id="Fill-91" fill="#67C24D"></path>
                        <path d="M115.783493,27.4218295 C115.067388,26.9474109 114.618663,26.1108217 114.682413,25.1929922 C114.700981,24.9157829 114.940507,24.7067907 115.21717,24.7260155 C115.493214,24.7446202 115.702413,24.9852403 115.682607,25.2624496 C115.655993,25.6512868 115.781636,26.0271008 116.037255,26.3210543 C116.291636,26.6137674 116.646284,26.7911318 117.034354,26.8184186 C117.422425,26.8457054 117.797498,26.719814 118.09149,26.4636899 C118.384864,26.2075659 118.560641,25.8528372 118.587874,25.4646202 C118.607061,25.1867907 118.846587,24.9784186 119.12325,24.9976434 C119.398675,25.0162481 119.608493,25.2568682 119.588687,25.5334574 C119.543505,26.1908217 119.245799,26.7892713 118.749415,27.2221395 C118.25365,27.6537674 117.619864,27.8664806 116.964415,27.8212093 C116.528068,27.7914419 116.125143,27.6475659 115.783493,27.4218295" id="Fill-93" fill="#3D9E24"></path>
                        <path d="M115.806455,24.1853643 C115.506892,23.9869147 115.246941,23.7202481 115.050739,23.3903256 C114.358154,22.2219535 114.742511,20.7075349 115.908579,20.0123411 C116.146249,19.8715659 116.453858,19.9490853 116.596212,20.187845 C116.737329,20.4266047 116.659343,20.7354419 116.421674,20.8774574 C115.731564,21.288 115.503178,22.1847442 115.914149,22.8768372 C116.324501,23.5670698 117.218858,23.7965271 117.908967,23.3853643 C118.147256,23.2433488 118.454246,23.3202481 118.59722,23.5602481 C118.738336,23.7990078 118.660351,24.1072248 118.422681,24.2498605 C117.584647,24.747845 116.568979,24.6895504 115.806455,24.1853643" id="Fill-95" fill="#3D9E24"></path>
                        <path d="M111.071687,24.4330543 C110.792549,24.2482481 110.551784,24.0063876 110.364248,23.7167752 C109.627718,22.5763101 109.953277,21.0476279 111.091493,20.3084031 C111.322973,20.1577054 111.632439,20.2222016 111.784697,20.4566202 C111.935716,20.6891783 111.86949,21.0011163 111.636772,21.151814 C110.963374,21.5896434 110.770267,22.4950698 111.206614,23.1697984 C111.418908,23.4972403 111.744466,23.7223566 112.125109,23.8023566 C112.505133,23.8842171 112.893823,23.8122791 113.220619,23.600186 C113.452718,23.4501085 113.762184,23.515845 113.914442,23.7484031 C114.064842,23.9815814 113.998617,24.2928992 113.766517,24.4442171 C113.215667,24.8026667 112.557743,24.9242171 111.915291,24.7859225 C111.609539,24.7214264 111.32483,24.6011163 111.071687,24.4330543" id="Fill-97" fill="#3D9E24"></path>
                        <path d="M118.746692,22.9384186 C118.680466,22.8950078 118.616097,22.847876 118.552966,22.7970233 C118.041728,22.3833798 117.722359,21.7954729 117.653039,21.1412093 C117.62333,20.8646202 117.823245,20.6171783 118.09867,20.588031 C118.375333,20.5582636 118.621049,20.7585736 118.650757,21.0345426 C118.692226,21.4221395 118.881,21.7700465 119.183658,22.0150078 C119.48941,22.2649302 119.866959,22.3715969 120.252553,22.3312868 C121.050976,22.2457054 121.631534,21.5257054 121.546121,20.7263256 C121.517032,20.4497364 121.716328,20.2022946 121.992371,20.1725271 C122.269034,20.1427597 122.51475,20.3436899 122.544459,20.6196589 C122.688051,21.9697364 121.707663,23.1864806 120.359629,23.3309767 C119.785879,23.3911318 119.221413,23.2528372 118.746692,22.9384186" id="Fill-99" fill="#3D9E24"></path>
                        <path d="M104.72522,20.9289922 C104.468363,20.7590698 104.239977,20.5382946 104.055535,20.2691473 C103.288059,19.1491473 103.573387,17.6117829 104.691178,16.8427907 C104.919564,16.6852713 105.230887,16.744186 105.389334,16.9730233 C105.545924,17.2018605 105.487744,17.5144186 105.259358,17.671938 C104.59772,18.1265116 104.428751,19.0368992 104.883047,19.7010853 C105.337962,20.3658915 106.246555,20.5333333 106.907574,20.0775194 C107.136579,19.92 107.44914,19.9795349 107.60511,20.2077519 C107.762319,20.4365891 107.70414,20.7497674 107.475754,20.9066667 C106.625341,21.4896124 105.53664,21.4654264 104.72522,20.9289922" id="Fill-101" fill="#67C24D"></path>
                        <path d="M93.673875,35.2297293 C93.226125,35.1279464 92.966625,35.0476279 92.966625,35.0476279 C92.966625,35.0476279 93.249375,35.3197415 93.655875,35.8023449 C93.663375,35.6153966 93.669375,35.4270636 93.673875,35.2297293" id="Fill-103" fill="#FF6807"></path>
                        <path d="M90.5058131,40.0314419 C91.271432,40.1182636 91.9677306,39.9371783 92.5897573,39.6221395 C92.7977184,38.3750078 92.9363592,36.8717519 92.9666869,35.047876 C94.7820146,34.1777984 96.1882282,33.2934574 97.2855947,32.4308217 C97.3728641,31.579969 97.2670267,30.6968682 96.7495995,29.9005891 C95.1255218,27.4019845 75.0473665,19.4788837 68.5052549,18.6584186 C67.8894175,18.5808992 67.5514806,19.1309767 67.8956068,19.6475659 C71.5590655,25.1402791 87.5491748,39.695938 90.5058131,40.0314419" id="Fill-105" fill="#FF9000"></path>
                        <path d="M74.5323532,22.4218295 C74.6301444,21.9697364 74.7737367,21.5176434 74.9581784,21.0804341 C75.0924867,20.764155 74.9445619,20.4007442 74.6301444,20.2674109 C74.315108,20.1346977 73.9524138,20.2816744 73.8193434,20.5973333 C73.6039551,21.1052403 73.4368434,21.6317519 73.32296,22.1588837 C73.3031541,22.2525271 73.3050109,22.3455504 73.3254357,22.4336124 C73.3786638,22.6587287 73.5556784,22.8447752 73.7970619,22.8974884 C74.1306663,22.9694264 74.460557,22.756093 74.5323532,22.4218295" id="Fill-107" fill="#FB7000"></path>
                        <path d="M90.4015231,38.3689922 C90.5797755,37.0226357 91.1535255,35.6762791 92.1072998,34.3689922 C92.3096905,34.0924031 92.2490352,33.7048062 91.9729915,33.5020155 C91.6969478,33.299845 91.3101153,33.3606202 91.1083434,33.6372093 C90.0307828,35.1144186 89.3796663,36.6511628 89.1735619,38.2058915 C89.163659,38.2827907 89.1673726,38.3584496 89.1847027,38.4303876 C89.2416444,38.6734884 89.4440352,38.8669767 89.7058434,38.9023256 C90.0450182,38.9475969 90.356341,38.7082171 90.4015231,38.3689922" id="Fill-109" fill="#FB7000"></path>
                        <path d="M92.8035364,27.3237209 C92.797966,27.5724031 92.6457087,27.8074419 92.3956602,27.8967442 C91.4381723,28.2378295 90.284483,29.0483721 89.866085,30.0927132 C89.7392039,30.4102326 89.3783665,30.5646512 89.0608544,30.4368992 C88.8671286,30.3593798 88.7340583,30.1925581 88.6894951,30.0027907 C88.6610243,29.8831008 88.6678325,29.7534884 88.7173471,29.6294574 C89.282432,28.2204651 90.6682209,27.2579845 91.7717767,26.8133333" id="Fill-111" fill="#FB7000"></path>
                        <path d="M88.7175947,29.6293333 C88.6680801,29.7527442 88.6612718,29.8823566 88.6897427,30.0032868 C88.7343058,30.1924341 88.8667573,30.3592558 89.0611019,30.4367752 C89.3779951,30.563907 89.7382136,30.4107287 89.8663325,30.0925891 C90.2853495,29.0488682 91.4384199,28.2377054 92.3959078,27.8966202 C92.6447184,27.8073178 92.7982136,27.5728992 92.803784,27.3235969 C92.4732743,27.1567752 92.1316238,26.9862326 91.7720243,26.8125891 C90.6678495,27.2578605 89.2826796,28.2209612 88.7175947,29.6293333" id="Fill-113" fill="#FB7000"></path>
                        <path d="M82.6688337,34.5851163 C82.58404,33.4006202 82.830375,31.7621705 83.8188095,30.6434109 C84.0453386,30.3866667 84.4358847,30.3624806 84.6927415,30.5900775 C84.9483604,30.815814 84.9724988,31.2083721 84.7459697,31.4657364 C84.0026323,32.3072868 83.79529,33.7044961 83.9196954,34.7147287 C83.9531177,34.9857364 83.8033362,35.2306977 83.5706177,35.3435659" id="Fill-115" fill="#FB7000"></path>
                        <path d="M83.9200049,34.7152868 C83.7949806,33.7044341 84.0023228,32.3072248 84.7462791,31.4662946 C84.9728083,31.2095504 84.9492888,30.8163721 84.693051,30.5906357 C84.4368131,30.3624186 84.0456481,30.3872248 83.8185,30.643969 C82.8306845,31.7627287 82.5837306,33.4011783 82.6691432,34.5856744 C82.9736578,34.8442791 83.2738398,35.0973023 83.5703083,35.344124 C83.8036456,35.2312558 83.9534272,34.9862946 83.9200049,34.7152868" id="Fill-117" fill="#FB7000"></path>
                        <path d="M85.3673155,24.0091783 C85.3673155,24.2634419 85.2144393,24.5046822 84.9612961,24.5946047 C84.3596942,24.8091783 83.6367816,25.3139845 83.378068,25.9577054 C83.250568,26.2746047 82.8903495,26.4290233 82.5722184,26.3006512 C82.3784927,26.2225116 82.2460413,26.0575504 82.2008592,25.8677829 C82.1730073,25.748093 82.1798155,25.6184806 82.2293301,25.4944496 C82.6044029,24.5592558 83.4808107,23.8975504 84.2297184,23.5552248" id="Fill-119" fill="#FB7000"></path>
                        <path d="M82.229392,25.4947597 C82.1792585,25.6181705 82.1730692,25.7477829 82.20154,25.8687132 C82.2461032,26.0578605 82.3785546,26.2234419 82.5728993,26.3015814 C82.8891735,26.4293333 83.2500109,26.2755349 83.3781299,25.9580155 C83.6368434,25.3136744 84.3591371,24.8101085 84.961358,24.5955349 C85.2151201,24.5049922 85.3686153,24.2649922 85.3673774,24.0094884 C84.9910667,23.8575504 84.6122803,23.7062326 84.2297803,23.5555349 C83.4808726,23.8984806 82.6044648,24.5595659 82.229392,25.4947597" id="Fill-121" fill="#FB7000"></path>
                        <path d="M75.8122427,28.3562791 C75.7255922,27.5122481 75.8846578,26.271938 76.6261383,25.4322481 C76.8532864,25.176124 77.2438325,25.151938 77.5000704,25.3782946 C77.7575461,25.6052713 77.7798277,25.9978295 77.5539175,26.2539535 C77.0946699,26.7742636 76.9690267,27.6474419 77.0476311,28.2818605 C77.0897184,28.6223256 76.848335,28.9317829 76.5091602,28.9733333 C76.4899733,28.9764341 76.4720243,28.9696124 76.4534563,28.9702326" id="Fill-123" fill="#FB7000"></path>
                        <path d="M77.047074,28.2824186 C76.9684697,27.648 77.0947318,26.7735814 77.5533604,26.2538915 C77.7798896,25.9977674 77.7563701,25.6064496 77.4995133,25.3782326 C77.2432755,25.151876 76.8527294,25.1754419 76.6255813,25.4328062 C75.8847197,26.2724961 75.7250352,27.512186 75.8116857,28.3562171 C76.0233604,28.5608682 76.2375109,28.7655194 76.4522803,28.9701705 C76.4708483,28.9695504 76.4887973,28.9763721 76.5079842,28.9738915 C76.847159,28.9323411 77.0891614,28.6222636 77.047074,28.2824186" id="Fill-125" fill="#FB7000"></path>
                        <path d="M113.331965,35.1707287 C113.556637,34.672124 114.839064,31.5409612 113.471843,27.831814 C113.170424,27.0144496 112.646188,26.2206512 112.091006,25.3803411 L111.993834,25.2346047 C111.714076,24.8091783 111.392232,24.3682481 111.037584,23.9223566 C104.022608,15.1068527 96.7903871,17.1781705 94.0064308,18.4773953 C91.2979842,19.7418915 89.0388823,21.8863876 87.4717464,24.6777054 C85.1204235,28.8711938 84.9743556,32.3136744 87.0384939,34.9071628 C87.8913823,35.9794109 89.1428629,36.9406512 90.7601323,37.7635969 C92.5742221,38.6870078 95.2331541,39.4845271 97.3672318,35.7604961 C98.4441735,33.8814264 100.279926,32.7099535 102.402863,32.548093 C104.784513,32.3670078 107.090654,33.563907 108.345848,35.6488682 C108.504295,35.9130543 108.670788,36.1555349 108.839756,36.3682481 C109.255059,36.8897984 109.900606,37.5049922 110.61671,37.4646822 C111.435557,37.4194109 112.422135,36.5846822 113.331965,35.1707287" id="Fill-127" fill="#FF91AD"></path>
                        <path d="M46.060551,64.2386977 C38.0577597,64.2386977 30.3198714,61.6421085 24.2741432,56.9289302 C18.2686456,52.2461395 14.3056238,45.7785426 13.1154175,38.7168372 C12.9879175,37.9627287 13.2323956,37.1962171 13.7832451,36.6169922 C14.3334757,36.0377674 15.1362306,35.7053643 15.9804539,35.7053643 L122.511036,35.7053643 C123.355879,35.7053643 124.158015,36.0377674 124.708864,36.6169922 C125.259095,37.1962171 125.502954,37.9627287 125.375454,38.7168372 C124.186485,45.7785426 120.223464,52.2467597 114.217347,56.9289302 C108.171619,61.6421085 100.433731,64.2386977 92.4309393,64.2386977 L46.060551,64.2386977 Z" id="Fill-129" fill="#AC8B57"></path>
                        <path d="M41.4439369,41.3468527 L13.6941189,41.3468527 C14.0060607,42.4947597 14.3941311,43.6215814 14.8515218,44.7223566 L41.4439369,44.7223566 C42.4707451,44.7223566 43.3032087,43.9670078 43.3032087,43.0349147 C43.3025898,42.1028217 42.4707451,41.3468527 41.4439369,41.3468527" id="Fill-131" fill="#ECB88F"></path>
                        <path d="M35.0778495,49.199938 L17.1931893,49.199938 C17.9439539,50.3732713 18.7819879,51.5013333 19.7035777,52.5754419 L35.0778495,52.5754419 C36.1046578,52.5754419 36.9371214,51.8207132 36.9371214,50.888 C36.9371214,49.955907 36.1046578,49.199938 35.0778495,49.199938" id="Fill-133" fill="#ECB88F"></path>
                        <path d="M100.855718,68.2430388 C100.855718,69.4765271 99.7546383,70.4774574 98.3954636,70.4774574 L40.0957791,70.4774574 C38.7372233,70.4774574 37.6355243,69.4765271 37.6355243,68.2430388 L37.6355243,66.2324961 C37.6355243,64.9990078 38.7372233,63.9986977 40.0957791,63.9986977 L98.3954636,63.9986977 C99.7540194,63.9986977 100.855718,64.9990078 100.855718,66.2324961 L100.855718,68.2430388 Z" id="Fill-135" fill="#ECB88F"></path>
                        <path d="M17.6313932,28.9267597 C17.6313932,28.9267597 9.39340777,37.6089302 14.8851917,38.2290853 C20.3775947,38.8492403 13.7872063,35.1283101 31.9107743,38.2290853 C50.0349612,41.3298605 63.4571214,34.4213333 72.1234078,35.7056744 C80.7896942,36.9887752 91.7745,40.7097054 99.4628738,38.8492403 C107.151867,36.9887752 115.938845,35.7484651 118.685046,39.4693953 C121.431248,43.1903256 130.767218,37.6089302 123.627837,30.7872248 C116.488456,23.9655194 110.996053,27.0662946 106.053262,28.9267597 C101.110471,30.7872248 81.3393058,33.888 73.1013204,30.7872248 C64.863335,27.6864496 52.7805437,31.4073798 46.1901553,32.0275349 C39.599767,32.6476899 23.1237961,26.4461395 17.6313932,28.9267597" id="Fill-137" fill="#FF9D44"></path>
                    </g>
                </g>
                <g id="Group-17-Copy-16" transform="translate(0.000000, 63.000000)">
                    <g id="x-15" fill-opacity="1" fill="#FFF6EB">
                        <use filter="url(#filter-3)" xlink:href="#text-2"></use>
                        <use xlink:href="#text-2"></use>
                    </g>
                    <g id="SugarCube-Copy" filter="url(#filter-4)" fill-rule="nonzero">
                        <polygon id="Shape" fill="#FFF6EB" points="0 5.57938144 17.4492857 12.2597938 33.9271429 5.3814433 16.4778571 0.024742268"></polygon>
                        <polygon id="Shape" fill="#D4C9BB" points="17.4492857 35.9876289 17.4492857 12.2597938 33.9271429 5.3814433 32.7614286 27.1298969"></polygon>
                        <polygon id="Shape" fill="#EBE0D2" points="0 5.57938144 17.4492857 12.2597938 17.4492857 35.9876289 0.582857143 26.857732"></polygon>
                    </g>
                </g>
            </g>
        </g>
    </g>
</svg>