<?xml version="1.0" encoding="UTF-8"?>
<svg width="127px" height="135px" viewBox="0 0 127 135" version="1.1" xmlns="http://www.w3.org/2000/svg" xmlns:xlink="http://www.w3.org/1999/xlink">
    <!-- Generator: Sketch 42 (36781) - http://www.bohemiancoding.com/sketch -->
    <title>7_liksomsunt_frokost</title>
    <desc>Created with Sketch.</desc>
    <defs>
        <filter x="-50%" y="-50%" width="200%" height="200%" filterUnits="objectBoundingBox" id="filter-1">
            <feOffset dx="-1" dy="2" in="SourceAlpha" result="shadowOffsetOuter1"></feOffset>
            <feGaussianBlur stdDeviation="0.5" in="shadowOffsetOuter1" result="shadowBlurOuter1"></feGaussianBlur>
            <feColorMatrix values="0 0 0 0 0   0 0 0 0 0   0 0 0 0 0  0 0 0 0.5 0" type="matrix" in="shadowBlurOuter1" result="shadowMatrixOuter1"></feColorMatrix>
            <feMerge>
                <feMergeNode in="shadowMatrixOuter1"></feMergeNode>
                <feMergeNode in="SourceGraphic"></feMergeNode>
            </feMerge>
        </filter>
        <polygon id="path-2" points="0.232827586 0.54928655 102.758345 0.54928655 102.758345 117.309804 0.232827586 117.309804 0.232827586 0.54928655"></polygon>
        <polygon id="path-4" points="0.232827586 0.54928655 102.758345 0.54928655 102.758345 74.2956982 0.232827586 74.2956982 0.232827586 0.54928655"></polygon>
        <polygon id="path-6" points="24.3686897 0.54928655 0.350068966 0.54928655 0.350068966 57.4962246 24.3686897 57.4962246 24.3686897 0.54928655"></polygon>
        <polygon id="path-8" points="0 117.760655 120 117.760655 120 1 0 1"></polygon>
        <text id="text-10" font-family="RobotoCondensed-Bold, Roboto Condensed" font-size="22" font-style="condensed" font-weight="bold" fill="#FFF6EB">
            <tspan x="44.3569336" y="24">x 13</tspan>
        </text>
        <filter x="-50%" y="-50%" width="200%" height="200%" filterUnits="objectBoundingBox" id="filter-11">
            <feOffset dx="-1" dy="1" in="SourceAlpha" result="shadowOffsetOuter1"></feOffset>
            <feColorMatrix values="0 0 0 0 0   0 0 0 0 0   0 0 0 0 0  0 0 0 0.5 0" type="matrix" in="shadowOffsetOuter1"></feColorMatrix>
        </filter>
        <filter x="-50%" y="-50%" width="200%" height="200%" filterUnits="objectBoundingBox" id="filter-12">
            <feOffset dx="0" dy="1" in="SourceAlpha" result="shadowOffsetOuter1"></feOffset>
            <feGaussianBlur stdDeviation="0.5" in="shadowOffsetOuter1" result="shadowBlurOuter1"></feGaussianBlur>
            <feColorMatrix values="0 0 0 0 0   0 0 0 0 0   0 0 0 0 0  0 0 0 0.5 0" type="matrix" in="shadowBlurOuter1" result="shadowMatrixOuter1"></feColorMatrix>
            <feMerge>
                <feMergeNode in="shadowMatrixOuter1"></feMergeNode>
                <feMergeNode in="SourceGraphic"></feMergeNode>
            </feMerge>
        </filter>
    </defs>
    <g id="Page-1" stroke="none" stroke-width="1" fill="none" fill-rule="evenodd">
        <g id="PINK" transform="translate(-1023.000000, -9440.000000)">
            <g id="7_liksomsunt_frokost" transform="translate(1023.000000, 9440.000000)">
                <g id="Page-1" filter="url(#filter-1)">
                    <polygon id="Fill-1" fill="#C9CAC9" points="36.9683448 86.0825871 55.698 86.0825871 55.698 104.242856 12.5317931 104.242856 12.5317931 86.0825871"></polygon>
                    <polygon id="Fill-2" fill="#F3F3F3" points="7 14.5037871 12.5317241 93.2856936 55.697931 93.2856936 60.9682759 14.5037871"></polygon>
                    <g id="Group-110" transform="translate(0.000000, 0.140772)">
                        <path d="M59.106,33.488952 L55.8287586,93.1445076 L12.6625517,93.1445076 L8.85634483,27.1314433 C13.3142759,24.224917 24.228069,21.8593965 31.468069,27.5275368 C36.0928966,31.1489637 39.2487586,35.9483205 59.106,33.488952 Z" id="Fill-3" fill="#FFB140"></path>
                        <g id="Group-7" transform="translate(24.241379, 0.000000)">
                            <mask id="mask-3" fill="white">
                                <use xlink:href="#path-2"></use>
                            </mask>
                            <g id="Clip-6"></g>
                            <path d="M71.4907586,48.2045871 L82.2997241,3.71237661 C82.2997241,1.97273918 81.0024828,0.549148538 79.4169655,0.549148538 L73.6528276,0.549148538 C72.0673103,0.549148538 70.770069,1.97273918 70.770069,3.71237661 L60.1714483,47.3406339 C57.3473103,47.2109029 54.4590345,47.1322363 51.4955862,47.1322363 C23.1824828,47.1322363 0.232827586,53.2123415 0.232827586,60.7139673 L0.232827586,61.0424351 C0.232827586,92.1205988 23.1852414,117.309804 51.4955862,117.309804 C79.8093793,117.309804 102.758345,92.1171485 102.758345,61.0424351 L102.758345,60.7139673 C102.758345,55.0920608 89.8686897,50.2706222 71.4907586,48.2045871" id="Fill-5" fill="#C8AF88" mask="url(#mask-3)"></path>
                        </g>
                        <g id="Group-10" transform="translate(24.241379, 0.000000)">
                            <mask id="mask-5" fill="white">
                                <use xlink:href="#path-4"></use>
                            </mask>
                            <g id="Clip-9"></g>
                            <path d="M71.4907586,48.2045871 L82.2997241,3.71237661 C82.2997241,1.97273918 81.0024828,0.549148538 79.4169655,0.549148538 L73.6528276,0.549148538 C72.0673103,0.549148538 70.770069,1.97273918 70.770069,3.71237661 L60.1714483,47.3406339 C57.3473103,47.2109029 54.4590345,47.1322363 51.4955862,47.1322363 C23.1824828,47.1322363 0.232827586,53.2123415 0.232827586,60.7139673 C0.232827586,68.2149029 23.1852414,74.2956982 51.4955862,74.2956982 C79.8093793,74.2956982 102.758345,68.2149029 102.758345,60.7139673 C102.758345,55.0920608 89.8686897,50.2706222 71.4907586,48.2045871" id="Fill-8" fill="#FFF6BA" mask="url(#mask-5)"></path>
                        </g>
                        <g id="Group-13" transform="translate(82.172414, 0.000000)">
                            <mask id="mask-7" fill="white">
                                <use xlink:href="#path-6"></use>
                            </mask>
                            <g id="Clip-12"></g>
                            <path d="M13.5597241,48.2045871 L24.3686897,3.71237661 C24.3686897,1.97273918 23.0714483,0.549148538 21.485931,0.549148538 L15.7217931,0.549148538 C14.1362759,0.549148538 12.8390345,1.97273918 12.8390345,3.71237661 L2.24041379,47.3406339 L0.350068966,55.2562947 L11.5190345,57.4962246 L13.5597241,48.2045871 Z" id="Fill-11" fill="#D2D6D8" mask="url(#mask-7)"></path>
                        </g>
                        <path d="M62.225931,66.9281509 L56.4611034,66.9281509 C56.4611034,65.1816129 55.1673103,63.7649228 53.5783448,63.7649228 C51.9907586,63.7649228 50.6962759,65.1816129 50.6962759,66.9281509 L44.9314483,66.9281509 C44.9314483,61.6954374 48.8114483,57.4370865 53.5783448,57.4370865 C58.3466207,57.4370865 62.225931,61.6954374 62.225931,66.9281509" id="Fill-14" fill="#FF9000"></path>
                        <path d="M84.4751034,71.8303263 L78.7102759,71.8303263 C78.7102759,70.0837883 77.4164828,68.6664082 75.8282069,68.6664082 C74.239931,68.6664082 72.9454483,70.0837883 72.9454483,71.8303263 L67.1806207,71.8303263 C67.1806207,66.5976129 71.0606207,62.339262 75.8282069,62.339262 C80.5957931,62.339262 84.4751034,66.5976129 84.4751034,71.8303263" id="Fill-16" fill="#FF9000"></path>
                        <path d="M112.514897,62.4767906 L106.750069,62.4767906 C106.750069,60.7302526 105.455586,59.3128725 103.86731,59.3128725 C102.279724,59.3128725 100.985241,60.7302526 100.985241,62.4767906 L95.2204138,62.4767906 C95.2204138,57.2440772 99.1004138,52.9857263 103.86731,52.9857263 C108.635586,52.9857263 112.514897,57.2440772 112.514897,62.4767906" id="Fill-18" fill="#FF9000"></path>
                        <path d="M104.698345,64.9175965 C105.011448,64.7982164 105.349379,64.7299006 105.703862,64.7299006 C106.810759,64.7299006 107.76731,65.3661345 108.240414,66.2942632" id="Fill-20" fill="#00357C"></path>
                        <path d="M105.745931,64.4758901 C107.460414,64.4758901 108.850759,65.8780889 108.850759,67.6087556 C108.850759,69.3387322 107.460414,70.740931 105.745931,70.740931 C104.031448,70.740931 102.641793,69.3387322 102.641793,67.6087556 C102.641793,65.8780889 104.031448,64.4758901 105.745931,64.4758901" id="Fill-22" fill="#0047C6"></path>
                        <path d="M104.809103,66.8948211 C104.742897,66.8948211 104.677379,66.8630784 104.63669,66.8037333 C104.570483,66.7078152 104.594621,66.576014 104.689793,66.5097684 L105.284276,66.0943532 C105.521517,65.9301193 105.840828,65.9459906 106.060138,66.1336865 L106.513931,66.5221895 C106.602207,66.5980959 106.612552,66.7312772 106.537379,66.8209848 C106.462897,66.9093123 106.330483,66.9203532 106.242897,66.8451368 L105.789103,66.4559439 C105.714621,66.3924585 105.602897,66.386938 105.522897,66.4428327 L104.927724,66.8575579 C104.891862,66.8824 104.850483,66.8948211 104.809103,66.8948211" id="Fill-24" fill="#0A1561"></path>
                        <path d="M104.914552,66.1434164 L104.421448,66.1434164 C104.305586,66.1434164 104.211793,66.0488784 104.211793,65.9322585 C104.211793,65.8156386 104.305586,65.7211006 104.421448,65.7211006 L104.914552,65.7211006 C105.015241,65.7211006 105.084207,65.6610655 105.089724,65.6369135 L105.184207,65.2587614 C105.212483,65.1455918 105.326276,65.077276 105.43869,65.1055684 C105.551103,65.1345509 105.61869,65.2491006 105.590414,65.3622702 L105.496621,65.7397322 C105.43869,65.9702117 105.188345,66.1434164 104.914552,66.1434164" id="Fill-26" fill="#0A1561"></path>
                        <path d="M106.848483,66.1434164 C106.842276,66.1434164 106.836069,66.1434164 106.829862,66.1427263 L106.223655,66.0882117 C105.945724,66.0633696 105.720207,65.8687731 105.699517,65.6348433 L105.67331,65.3291474 C105.663655,65.2125275 105.748483,65.1103988 105.863655,65.100048 C105.982276,65.0876269 106.080897,65.1759544 106.090552,65.2925743 L106.116759,65.5975801 C106.122276,65.6120713 106.17331,65.6596854 106.260897,65.667276 L106.867103,65.7217906 C106.982276,65.7321415 107.067103,65.8342702 107.057448,65.9508901 C107.047793,66.0606094 106.956069,66.1434164 106.848483,66.1434164" id="Fill-28" fill="#0A1561"></path>
                        <path d="M104.023172,69.2517158 C103.986621,69.2517158 103.949379,69.242055 103.915586,69.2220433 C103.026621,68.6851778 103.154897,67.2940199 103.160414,67.2346749 C103.172138,67.118745 103.275586,67.035248 103.390069,67.0455988 C103.504552,67.0573298 103.58869,67.1608386 103.577655,67.2767684 C103.576276,67.2884994 103.470759,68.4609088 104.130759,68.8590725 C104.230069,68.9191076 104.262483,69.0488386 104.203172,69.1488971 C104.163862,69.2151427 104.094207,69.2517158 104.023172,69.2517158" id="Fill-30" fill="#007DE4"></path>
                        <path d="M92.5522759,64.3727953 C92.866069,64.2534152 93.204,64.1850994 93.5584828,64.1850994 C94.6646897,64.1850994 95.6212414,64.8213333 96.0950345,65.749462" id="Fill-32" fill="#00357C"></path>
                        <path d="M93.6002069,63.9313649 C95.3146897,63.9313649 96.7043448,65.3335637 96.7043448,67.0642304 C96.7043448,68.793517 95.3146897,70.1964058 93.6002069,70.1964058 C91.8857241,70.1964058 90.4953793,68.793517 90.4953793,67.0642304 C90.4953793,65.3335637 91.8857241,63.9313649 93.6002069,63.9313649" id="Fill-34" fill="#0047C6"></path>
                        <path d="M92.6630345,66.3502959 C92.5968276,66.3502959 92.5313103,66.3185532 92.4906207,66.2592082 C92.4251034,66.1632901 92.4485517,66.0314889 92.5437241,65.9652433 L93.1388966,65.5498281 C93.3761379,65.3849041 93.6954483,65.4014655 93.914069,65.5891614 L94.3678621,65.9776643 C94.4561379,66.0535708 94.4664828,66.186752 94.392,66.2757696 C94.3168276,66.3647871 94.1851034,66.3758281 94.0968276,66.2999216 L93.6430345,65.9114187 C93.5685517,65.8472433 93.4568276,65.8424129 93.3768276,65.8983076 L92.7816552,66.3130327 C92.7457931,66.3378749 92.7044138,66.3502959 92.6630345,66.3502959" id="Fill-36" fill="#0A1561"></path>
                        <path d="M92.7684828,65.5988912 L92.2753793,65.5988912 C92.1595172,65.5988912 92.0657241,65.5043532 92.0657241,65.3877333 C92.0657241,65.2704234 92.1595172,65.1765754 92.2753793,65.1765754 L92.7684828,65.1765754 C92.8691724,65.1765754 92.9381379,65.1165404 92.9443448,65.0923883 L93.0388276,64.7142363 C93.0671034,64.6010667 93.1808966,64.5327509 93.2926207,64.5610433 C93.4050345,64.5893357 93.4726207,64.7045754 93.4443448,64.817745 L93.3505517,65.195207 C93.2926207,65.4256865 93.0422759,65.5988912 92.7684828,65.5988912" id="Fill-38" fill="#0A1561"></path>
                        <path d="M94.7026897,65.5988912 C94.6964828,65.5988912 94.6902759,65.5988912 94.684069,65.5982012 L94.0778621,65.5436865 C93.7992414,65.5188444 93.5744138,65.3235579 93.5537241,65.0896281 L93.5275172,64.7839322 C93.5178621,64.6680023 93.6026897,64.5651836 93.7178621,64.5555228 C93.8364828,64.5431018 93.9351034,64.6314292 93.9447586,64.7473591 L93.9709655,65.0523649 C93.9764828,65.0675462 94.0275172,65.1151602 94.1144138,65.1227509 L94.7213103,65.1765754 C94.8364828,65.1869263 94.9213103,65.289745 94.9109655,65.4056749 C94.9013103,65.5160842 94.8102759,65.5988912 94.7026897,65.5988912" id="Fill-40" fill="#0A1561"></path>
                        <path d="M91.8774483,68.7071906 C91.8408966,68.7071906 91.8036552,68.6975298 91.7698621,68.6775181 C90.8808966,68.1406526 91.0091724,66.7488047 91.0146897,66.6901497 C91.0264138,66.5742199 91.1298621,66.4907228 91.2436552,66.5010737 C91.3588276,66.5121146 91.4429655,66.6156234 91.431931,66.7315532 C91.4305517,66.7432842 91.3243448,67.9163836 91.9850345,68.3145474 C92.0843448,68.3738924 92.1167586,68.5036234 92.0574483,68.6043719 C92.0181379,68.6699275 91.9484828,68.7071906 91.8774483,68.7071906" id="Fill-42" fill="#007DE4"></path>
                        <path d="M33.5554483,58.6120491 C33.8444138,58.5016398 34.1568276,58.4388444 34.4844138,58.4388444 C35.5064828,58.4388444 36.389931,59.0260842 36.8271724,59.8838269" id="Fill-44" fill="#00357C"></path>
                        <path d="M34.5232414,58.2040175 C36.1066897,58.2040175 37.3908276,59.4992573 37.3908276,61.0974327 C37.3908276,62.6949181 36.1066897,63.990848 34.5232414,63.990848 C32.9397931,63.990848 31.6556552,62.6949181 31.6556552,61.0974327 C31.6556552,59.4992573 32.9397931,58.2040175 34.5232414,58.2040175" id="Fill-46" fill="#0047C6"></path>
                        <path d="M33.6577931,60.4382889 C33.5964138,60.4382889 33.5364138,60.4093064 33.4984828,60.3541018 C33.4377931,60.2657743 33.4598621,60.1436339 33.5474483,60.0822187 L34.0971034,59.6992363 C34.3164138,59.5467333 34.6108966,59.5612246 34.8136552,59.7351193 L35.2322759,60.0939497 C35.3136552,60.1643357 35.3233103,60.2871661 35.2543448,60.369283 C35.1853793,60.4520901 35.0633103,60.4617509 34.981931,60.392055 L34.5626207,60.0332246 C34.4943448,59.9745696 34.3908966,59.9690491 34.3171034,60.0208035 L33.7674483,60.403786 C33.7336552,60.4265579 33.6957241,60.4382889 33.6577931,60.4382889" id="Fill-48" fill="#0A1561"></path>
                        <path d="M33.7551034,59.7441591 L33.2992414,59.7441591 C33.1930345,59.7441591 33.1061379,59.6572117 33.1061379,59.5488725 C33.1061379,59.4412234 33.1930345,59.354276 33.2992414,59.354276 L33.7551034,59.354276 C33.8475172,59.354276 33.9116552,59.2983813 33.9171724,59.2762994 L34.004069,58.9271298 C34.0302759,58.822931 34.1357931,58.7594456 34.2392414,58.7856678 C34.3426897,58.8118901 34.4054483,58.9181591 34.3792414,59.0223579 L34.2923448,59.3715275 C34.2392414,59.5840655 34.0082069,59.7441591 33.7551034,59.7441591" id="Fill-50" fill="#0A1561"></path>
                        <path d="M35.5415862,59.7441591 C35.536069,59.7441591 35.5298621,59.7441591 35.5243448,59.743469 L34.9643448,59.6937848 C34.7077931,59.6703228 34.4995172,59.4902175 34.4802069,59.2742292 L34.456069,58.9919953 C34.4471034,58.8843462 34.5257241,58.7898082 34.631931,58.7808374 C34.7408966,58.7691064 34.8326207,58.8512234 34.8415862,58.9581825 L34.8657241,59.2404164 C34.8705517,59.2535275 34.9181379,59.2976912 34.9988276,59.3045918 L35.5581379,59.3549661 C35.6650345,59.3639368 35.7436552,59.4584749 35.734,59.566124 C35.7250345,59.6675626 35.6408966,59.7441591 35.5415862,59.7441591" id="Fill-52" fill="#0A1561"></path>
                        <path d="M32.9317931,62.6152854 C32.898,62.6152854 32.8635172,62.6063146 32.8324828,62.586993 C32.0117931,62.0922211 32.1297241,60.8066421 32.1352414,60.7521275 C32.1455862,60.6451684 32.2414483,60.5678819 32.3469655,60.5775427 C32.4531724,60.5878936 32.5304138,60.6838117 32.520069,60.7907708 C32.5186897,60.8018117 32.4214483,61.8845135 33.0311034,62.2523146 C33.1228276,62.3075193 33.1524828,62.4275895 33.098,62.5200573 C33.0614483,62.5814725 32.9973103,62.6152854 32.9317931,62.6152854" id="Fill-54" fill="#007DE4"></path>
                        <path d="M79.0507586,61.077145 C79.0514483,61.0812854 79.0507586,61.0854257 79.0514483,61.0895661 C80.570069,61.8293088 80.285931,62.5262678 80.285931,62.5262678 C81.0542069,61.7044082 82.0473103,62.0487474 82.1948966,62.1046421 C82.2873103,62.232993 82.8831724,63.1052269 82.3045517,64.0726889 C82.3045517,64.0726889 83.0990345,63.8318585 84.1873103,64.9911567 L84.2011034,64.9911567 C84.1976552,64.9877064 84.1942069,64.9835661 84.1914483,64.9808058 C84.8045517,64.9394023 85.3776552,64.5854023 85.9507586,63.8242678 C87.2314483,62.1212035 86.9811034,58.3452035 85.8162759,57.4522678 C84.6514483,56.5600222 80.9783448,57.3308175 79.6976552,59.0338819 C79.1135172,59.8095076 78.9342069,60.4719637 79.0735172,61.088186 C79.065931,61.0847357 79.0583448,61.0805953 79.0507586,61.077145" id="Fill-56" fill="#FF2B34"></path>
                        <path d="M83.8924828,63.5826094 C83.8717931,63.648855 83.955931,63.7130304 84.0131724,63.6757673 C84.0131724,63.6757673 84.7731724,63.1492526 84.8242069,63.0816269 C84.8752414,63.0133111 84.8931724,62.9263637 84.8738621,62.8359661 C84.8552414,62.7462585 84.8021379,62.6634515 84.7242069,62.6041064 C84.6462759,62.5447614 84.5531724,62.5150889 84.4621379,62.5206094 C84.3711034,62.5268199 84.2931724,62.5668433 84.2414483,62.6351591 C84.1904138,62.7027848 83.8924828,63.5826094 83.8924828,63.5826094" id="Fill-58" fill="#B0432A"></path>
                        <path d="M82.4913103,61.6721825 C82.4713103,61.7384281 82.5554483,61.8026035 82.6126897,61.7646503 C82.6126897,61.7646503 83.372,61.2388257 83.4237241,61.1712 C83.4747586,61.1028842 83.492,61.0159368 83.4733793,60.9255392 C83.454069,60.8358316 83.4009655,60.7530246 83.3237241,60.6936795 C83.2457931,60.6343345 83.152,60.604662 83.0616552,60.6101825 C82.969931,60.616393 82.892,60.6564164 82.8409655,60.7247322 C82.789931,60.7923579 82.4913103,61.6721825 82.4913103,61.6721825" id="Fill-60" fill="#B0432A"></path>
                        <path d="M80.39,60.9019392 C80.3693103,60.9681848 80.4534483,61.0323602 80.5113793,60.9950971 C80.5113793,60.9950971 81.2706897,60.4685825 81.3217241,60.4009567 C81.3727586,60.3326409 81.3906897,60.2456936 81.3713793,60.1552959 C81.3527586,60.0655883 81.2996552,59.9827813 81.2217241,59.9234363 C81.1437931,59.8640912 81.0506897,59.8344187 80.9596552,59.8399392 C80.8686207,59.8461497 80.7906897,59.8861731 80.7389655,59.9544889 C80.687931,60.0228047 80.39,60.9019392 80.39,60.9019392" id="Fill-62" fill="#B0432A"></path>
                        <path d="M84.4575862,61.2917532 C84.4368966,61.3579988 84.5210345,61.4221743 84.5789655,61.3842211 C84.5789655,61.3842211 85.3382759,60.8583965 85.39,60.7907708 C85.4403448,60.722455 85.4582759,60.6355076 85.4396552,60.5451099 C85.4203448,60.4554023 85.3672414,60.3725953 85.29,60.3132503 C85.212069,60.2539053 85.1182759,60.2242327 85.027931,60.2297532 C84.9362069,60.2359637 84.8582759,60.2759871 84.8065517,60.3443029 C84.7555172,60.4119287 84.4575862,61.2917532 84.4575862,61.2917532" id="Fill-64" fill="#B0432A"></path>
                        <path d="M84.2888276,59.283614 C84.2681379,59.3498596 84.3522759,59.4140351 84.4102069,59.3767719 C84.4102069,59.3767719 85.1695172,58.8502573 85.2205517,58.7826316 C85.2715862,58.7150058 85.2895172,58.6273684 85.2702069,58.5369708 C85.2515862,58.4472632 85.1984828,58.3644561 85.1205517,58.3051111 C85.0426207,58.2457661 84.9495172,58.2160936 84.8584828,58.221614 C84.7674483,58.2278246 84.6895172,58.267848 84.6377931,58.3361637 C84.5867586,58.4044795 84.2888276,59.283614 84.2888276,59.283614" id="Fill-66" fill="#B0432A"></path>
                        <path d="M82.3249655,59.660662 C82.3049655,59.7269076 82.3891034,59.791083 82.4463448,59.7538199 C82.4463448,59.7538199 83.2056552,59.2279953 83.2573793,59.1596795 C83.3084138,59.0920538 83.3256552,59.0044164 83.3070345,58.9140187 C83.2877241,58.8243111 83.2346207,58.7415041 83.1573793,58.6821591 C83.0794483,58.622814 82.9856552,58.5931415 82.8953103,58.598662 C82.8035862,58.6048725 82.7256552,58.6448959 82.6746207,58.7132117 C82.6235862,58.7815275 82.3249655,59.660662 82.3249655,59.660662" id="Fill-68" fill="#B0432A"></path>
                        <path d="M66.465931,62.457262 C66.4693793,62.4593322 66.4728276,62.4614023 66.4762759,62.4634725 C67.7942069,61.5663965 68.2390345,62.2274725 68.2390345,62.2274725 C67.9162759,61.0674842 68.6631724,60.3988175 68.7776552,60.3015193 C68.9266207,60.2959988 69.925931,60.2877181 70.4569655,61.3669696 C70.4569655,61.3669696 70.6266207,60.5264784 72.0921379,60.2552854 L72.0983448,60.2435544 C72.0935172,60.2435544 72.0886897,60.2442444 72.0845517,60.2449345 C72.3362759,59.6825368 72.310069,58.9697064 71.9466207,58.0167357 C71.1342069,55.8858351 67.8942069,53.8756947 66.6142069,54.3725368 C65.3348966,54.8686889 64.2645517,58.551531 65.0769655,60.6824316 C65.4466207,61.6533439 65.9107586,62.2026304 66.485931,62.4434608 C66.4790345,62.4482912 66.4721379,62.4531216 66.465931,62.457262" id="Fill-70" fill="#FF2B34"></path>
                        <path d="M70.7897241,59.6825368 C70.8345517,59.7398117 70.9269655,59.7039287 70.9228276,59.6307825 C70.9228276,59.6307825 70.8407586,58.6529696 70.8083448,58.5680924 C70.775931,58.4832152 70.7124828,58.4162795 70.6290345,58.3790164 C70.5455862,58.3424433 70.4524828,58.3403731 70.3669655,58.374186 C70.2814483,58.4066187 70.2138621,58.4714842 70.1766207,58.5549813 C70.1386897,58.6384784 70.135931,58.7309462 70.1683448,58.8165135 C70.2007586,58.9013906 70.7897241,59.6825368 70.7897241,59.6825368" id="Fill-72" fill="#B0432A"></path>
                        <path d="M68.5581379,59.7852865 C68.6029655,59.8425614 68.696069,59.8066784 68.6912414,59.7335322 C68.6912414,59.7335322 68.6091724,58.7557193 68.5767586,58.6708421 C68.5443448,58.5859649 68.4808966,58.5190292 68.3974483,58.4817661 C68.314,58.445193 68.2208966,58.4431228 68.1353793,58.4769357 C68.0498621,58.5093684 67.9822759,58.5742339 67.9450345,58.657731 C67.9071034,58.7412281 67.9043448,58.834386 67.9367586,58.9192632 C67.9691724,59.0041404 68.5581379,59.7852865 68.5581379,59.7852865" id="Fill-74" fill="#B0432A"></path>
                        <path d="M66.9437931,61.1772035 C66.9886207,61.2344784 67.0817241,61.1985953 67.0768966,61.1254491 C67.0768966,61.1254491 66.9948276,60.1476363 66.9624138,60.062069 C66.93,59.9771918 66.8665517,59.9109462 66.7831034,59.873683 C66.6996552,59.8371099 66.6065517,59.8350398 66.5210345,59.8688526 C66.4362069,59.9012854 66.367931,59.9661509 66.3306897,60.049648 C66.2927586,60.133145 66.29,60.2256129 66.3224138,60.3111801 C66.3548276,60.3960573 66.9437931,61.1772035 66.9437931,61.1772035" id="Fill-76" fill="#B0432A"></path>
                        <path d="M69.1578621,57.8333871 C69.2026897,57.890662 69.2957931,57.8540889 69.2909655,57.7816327 C69.2909655,57.7816327 69.2088966,56.8031298 69.1764828,56.7182526 C69.144069,56.6333754 69.0806207,56.5664398 68.9971724,56.5298667 C68.9137241,56.4932936 68.8206207,56.4912234 68.7351034,56.5243462 C68.6502759,56.557469 68.582,56.6216444 68.5447586,56.7051415 C68.5068276,56.7893287 68.504069,56.8817965 68.5364828,56.9666737 C68.5688966,57.0522409 69.1578621,57.8333871 69.1578621,57.8333871" id="Fill-78" fill="#B0432A"></path>
                        <path d="M67.4185517,56.7959532 C67.4633793,56.8532281 67.5564828,56.817345 67.5516552,56.7441988 C67.5516552,56.7441988 67.4695862,55.7656959 67.4371724,55.6808187 C67.4047586,55.5959415 67.3413103,55.5290058 67.2578621,55.4924327 C67.1744138,55.4558596 67.0813103,55.4537895 66.9964828,55.4869123 C66.9109655,55.5200351 66.8426897,55.5849006 66.8054483,55.6683977 C66.7675172,55.7518947 66.7647586,55.8443626 66.7971724,55.9299298 C66.8295862,56.014807 67.4185517,56.7959532 67.4185517,56.7959532" id="Fill-80" fill="#B0432A"></path>
                        <path d="M66.8171724,58.7437813 C66.862,58.8010561 66.9551034,58.7651731 66.9502759,58.6920269 C66.9502759,58.6920269 66.8688966,57.714214 66.8364828,57.6293368 C66.8033793,57.5444596 66.739931,57.477524 66.6564828,57.4402608 C66.5730345,57.4036877 66.4806207,57.4016175 66.3951034,57.4354304 C66.3095862,57.4678632 66.2413103,57.5327287 66.204069,57.6162257 C66.1668276,57.6997228 66.1633793,57.7928807 66.1957931,57.8777579 C66.2282069,57.9626351 66.8171724,58.7437813 66.8171724,58.7437813" id="Fill-82" fill="#B0432A"></path>
                        <path d="M117.383862,58.9260947 C117.697655,58.8067146 118.034897,58.7383988 118.390069,58.7383988 C119.496276,58.7383988 120.452828,59.3746327 120.925931,60.3034515" id="Fill-84" fill="#00357C"></path>
                        <path d="M118.431517,58.4847333 C120.146,58.4847333 121.536345,59.8869322 121.536345,61.6175988 C121.536345,63.3468854 120.146,64.7497743 118.431517,64.7497743 C116.717034,64.7497743 115.327379,63.3468854 115.327379,61.6175988 C115.327379,59.8869322 116.717034,58.4847333 118.431517,58.4847333" id="Fill-86" fill="#0047C6"></path>
                        <path d="M117.49469,60.9035953 C117.428483,60.9035953 117.362966,60.8718526 117.322276,60.8125076 C117.256069,60.7165895 117.280207,60.5847883 117.375379,60.5185427 L117.969862,60.1031275 C118.207103,59.9382035 118.526414,59.9547649 118.745724,60.1424608 L119.199517,60.5309637 C119.287793,60.6068702 119.298138,60.7400515 119.223655,60.829069 C119.148483,60.9180865 119.016759,60.9291275 118.928483,60.8532211 L118.47469,60.4647181 C118.400207,60.4012327 118.288483,60.3957123 118.208483,60.451607 L117.61331,60.8663322 C117.577448,60.8911743 117.536069,60.9035953 117.49469,60.9035953" id="Fill-88" fill="#0A1561"></path>
                        <path d="M117.600069,60.1522596 L117.106966,60.1522596 C116.991103,60.1522596 116.89731,60.0577216 116.89731,59.9411018 C116.89731,59.8244819 116.991103,59.7299439 117.106966,59.7299439 L117.600069,59.7299439 C117.700759,59.7299439 117.769724,59.6699088 117.775931,59.6457567 L117.870414,59.2676047 C117.89869,59.1544351 118.012483,59.0861193 118.124207,59.1144117 C118.236621,59.1427041 118.304207,59.2579439 118.275931,59.3711135 L118.182138,59.7485754 C118.124207,59.979055 117.873862,60.1522596 117.600069,60.1522596" id="Fill-90" fill="#0A1561"></path>
                        <path d="M119.534345,60.1522596 C119.528138,60.1522596 119.521931,60.1522596 119.515724,60.1515696 L118.909517,60.097055 C118.630897,60.0722129 118.406069,59.8769263 118.385379,59.6429965 L118.359172,59.3373006 C118.348828,59.2213708 118.434345,59.118552 118.549517,59.1088912 C118.667448,59.0964702 118.766069,59.1847977 118.776414,59.3007275 L118.802621,59.6057333 C118.808138,59.6209146 118.859172,59.6685287 118.946069,59.6761193 L119.552276,59.7299439 C119.667448,59.7402947 119.752966,59.8431135 119.742621,59.9590433 C119.732966,60.0694526 119.641931,60.1522596 119.534345,60.1522596" id="Fill-92" fill="#0A1561"></path>
                        <path d="M116.70869,63.2604901 C116.672138,63.2604901 116.634897,63.2508292 116.601793,63.2308175 C115.712138,62.693952 115.840414,61.3021041 115.846621,61.2434491 C115.857655,61.1275193 115.961793,61.0440222 116.075586,61.0543731 C116.190069,61.065414 116.274207,61.1689228 116.263172,61.2848526 C116.261793,61.2965836 116.156276,62.469683 116.816276,62.8678468 C116.915586,62.9271918 116.948,63.0569228 116.88869,63.1576713 C116.849379,63.2232269 116.780414,63.2604901 116.70869,63.2604901" id="Fill-94" fill="#007DE4"></path>
                        <mask id="mask-9" fill="white">
                            <use xlink:href="#path-8"></use>
                        </mask>
                        <g id="Clip-97"></g>
                        <polygon id="Fill-96" fill="#FFF6BA" mask="url(#mask-9)" points="27.4041379 64.2051111 41.7089655 64.2051111 41.7089655 61.2095673 27.4041379 61.2095673"></polygon>
                        <polygon id="Fill-98" fill="#FFF6BA" mask="url(#mask-9)" points="89.4827586 70.740655 111.345517 70.740655 111.345517 67.200655 89.4827586 67.200655"></polygon>
                        <polygon id="Fill-99" fill="#FFF6BA" mask="url(#mask-9)" points="112.695172 64.7495673 125.110345 64.7495673 125.110345 62.2984795 112.695172 62.2984795"></polygon>
                        <polygon id="Fill-100" fill="#FFF6BA" mask="url(#mask-9)" points="78.1768966 58.0962304 64.9341379 63.555283 63.8113793 60.781938 77.0541379 55.3228854"></polygon>
                        <polygon id="Fill-101" fill="#FFF6BA" mask="url(#mask-9)" points="88.094069 67.8591088 76.0457931 60.0780094 77.6464828 57.5551556 89.6947586 65.336255"></polygon>
                        <path d="M41.7333103,60.5057076 C41.7374483,60.5070877 41.7408966,60.509848 41.7450345,60.5119181 C43.2974483,59.5182339 43.7733103,60.1793099 43.7733103,60.1793099 C43.4615862,58.9958596 44.3484828,58.2664678 44.4843448,58.1608889 C44.656069,58.1477778 45.7988276,58.0891228 46.3533103,59.1787251 C46.3533103,59.1787251 46.5891724,58.3009708 48.2788276,57.9469708 C48.2815862,57.9428304 48.2836552,57.938 48.2864138,57.9338596 C48.2815862,57.9352398 48.276069,57.9359298 48.2712414,57.9366199 C48.5864138,57.3424795 48.5912414,56.6068772 48.2229655,55.6394152 C47.3981379,53.4767719 43.7905517,51.5611696 42.3015862,52.1387485 C40.8133103,52.7163275 39.4071034,56.5778947 40.2312414,58.740538 C40.6071034,59.7259415 41.1112414,60.2703977 41.7567586,60.4912164 C41.7491724,60.4953567 41.7408966,60.5008772 41.7333103,60.5057076" id="Fill-102" fill="#FF2B34" mask="url(#mask-9)"></path>
                        <path d="M46.8171724,57.4199731 C46.8661379,57.4765579 46.9737241,57.4351544 46.9716552,57.359938 C46.9716552,57.359938 46.9268276,56.3524526 46.8937241,56.2661953 C46.8606207,56.1806281 46.7909655,56.1136924 46.6978621,56.0805696 C46.604069,56.0467567 46.4978621,56.049517 46.3985517,56.0881602 C46.2992414,56.1261135 46.2178621,56.1964994 46.1709655,56.2848269 C46.124069,56.3731544 46.1157931,56.4690725 46.1488966,56.5553298 C46.182,56.6415871 46.8171724,57.4199731 46.8171724,57.4199731" id="Fill-103" fill="#B0432A" mask="url(#mask-9)"></path>
                        <path d="M44.2588966,57.6383076 C44.3078621,57.6948924 44.4154483,57.6527988 44.414069,57.5782725 C44.414069,57.5782725 44.3685517,56.5707871 44.3354483,56.4845298 C44.3023448,56.3982725 44.2326897,56.3320269 44.1395862,56.2989041 C44.0457931,56.2650912 43.9395862,56.2678515 43.8402759,56.3058047 C43.7409655,56.344448 43.6595862,56.4148339 43.6126897,56.5024713 C43.5657931,56.5914889 43.5575172,56.687407 43.5906207,56.7736643 C43.6237241,56.8599216 44.2588966,57.6383076 44.2588966,57.6383076" id="Fill-104" fill="#B0432A" mask="url(#mask-9)"></path>
                        <path d="M42.3431724,59.1582304 C42.3921379,59.2148152 42.4997241,59.1727216 42.4983448,59.0981953 C42.4983448,59.0981953 42.4528276,58.0907099 42.4197241,58.0044526 C42.3866207,57.9181953 42.3176552,57.8519497 42.2238621,57.8188269 C42.130069,57.785014 42.0238621,57.7877743 41.9245517,57.8264175 C41.8252414,57.8643708 41.7438621,57.9347567 41.6969655,58.0223942 C41.650069,58.1114117 41.6424828,58.2073298 41.6748966,58.2935871 C41.708,58.3798444 42.3431724,59.1582304 42.3431724,59.1582304" id="Fill-105" fill="#B0432A" mask="url(#mask-9)"></path>
                        <path d="M45.0411724,55.589662 C45.0901379,55.6462468 45.1977241,55.6041532 45.1963448,55.5296269 C45.1963448,55.5296269 45.1508276,54.5221415 45.1177241,54.4358842 C45.0846207,54.3496269 45.0149655,54.2833813 44.9218621,54.2502585 C44.828069,54.2164456 44.7218621,54.2192058 44.6225517,54.2571591 C44.5232414,54.2958023 44.4418621,54.3661883 44.3949655,54.4538257 C44.348069,54.5428433 44.3404828,54.6387614 44.3728966,54.7250187 C44.406,54.811276 45.0411724,55.589662 45.0411724,55.589662" id="Fill-106" fill="#B0432A" mask="url(#mask-9)"></path>
                        <path d="M43.1024828,54.6044655 C43.1514483,54.6610503 43.2590345,54.6189567 43.2576552,54.5444304 C43.2576552,54.5444304 43.2121379,53.536945 43.1790345,53.4506877 C43.145931,53.3644304 43.0762759,53.2981848 42.9831724,53.265062 C42.8893793,53.2312491 42.7831724,53.2340094 42.6838621,53.2719626 C42.5845517,53.3106058 42.5031724,53.3809918 42.4562759,53.4686292 C42.4093793,53.5576468 42.4011034,53.6535649 42.4342069,53.7398222 C42.4673103,53.8260795 43.1024828,54.6044655 43.1024828,54.6044655" id="Fill-107" fill="#B0432A" mask="url(#mask-9)"></path>
                        <path d="M42.3185517,56.6486947 C42.3675172,56.7052795 42.4751034,56.663876 42.4737241,56.5886596 C42.4737241,56.5886596 42.4282069,55.5811743 42.3951034,55.494917 C42.362,55.4093497 42.2923448,55.342414 42.1992414,55.3092912 C42.1054483,55.2754784 41.9992414,55.2782386 41.899931,55.3168819 C41.8006207,55.3548351 41.7192414,55.4252211 41.6723448,55.5135485 C41.6254483,55.601876 41.6171724,55.6977942 41.6502759,55.7840515 C41.6833793,55.8703088 42.3185517,56.6486947 42.3185517,56.6486947" id="Fill-108" fill="#B0432A" mask="url(#mask-9)"></path>
                        <polygon id="Fill-109" fill="#FFF6BA" mask="url(#mask-9)" points="53.6153793 56.1898058 40.3726207 61.6488585 39.2498621 58.8762035 52.4926207 53.4164608"></polygon>
                    </g>
                </g>
                <g id="Group-17-Copy-5" transform="translate(1.000000, 97.000000)">
                    <g id="x-13" fill-opacity="1" fill="#FFF6EB">
                        <use filter="url(#filter-11)" xlink:href="#text-10"></use>
                        <use xlink:href="#text-10"></use>
                    </g>
                    <g id="SugarCube-Copy" filter="url(#filter-12)" fill-rule="nonzero">
                        <polygon id="Shape" fill="#FFF6EB" points="0 5.57938144 17.4492857 12.2597938 33.9271429 5.3814433 16.4778571 0.024742268"></polygon>
                        <polygon id="Shape" fill="#D4C9BB" points="17.4492857 35.9876289 17.4492857 12.2597938 33.9271429 5.3814433 32.7614286 27.1298969"></polygon>
                        <polygon id="Shape" fill="#EBE0D2" points="0 5.57938144 17.4492857 12.2597938 17.4492857 35.9876289 0.582857143 26.857732"></polygon>
                    </g>
                </g>
            </g>
        </g>
    </g>
</svg>