<?xml version="1.0" encoding="UTF-8"?>
<svg width="150px" height="119px" viewBox="0 0 150 119" version="1.1" xmlns="http://www.w3.org/2000/svg" xmlns:xlink="http://www.w3.org/1999/xlink">
    <!-- Generator: Sketch 42 (36781) - http://www.bohemiancoding.com/sketch -->
    <title>7_sunt_middag</title>
    <desc>Created with Sketch.</desc>
    <defs>
        <filter x="-50%" y="-50%" width="200%" height="200%" filterUnits="objectBoundingBox" id="filter-1">
            <feOffset dx="-1" dy="2" in="SourceAlpha" result="shadowOffsetOuter1"></feOffset>
            <feGaussianBlur stdDeviation="0.5" in="shadowOffsetOuter1" result="shadowBlurOuter1"></feGaussianBlur>
            <feColorMatrix values="0 0 0 0 0   0 0 0 0 0   0 0 0 0 0  0 0 0 0.5 0" type="matrix" in="shadowBlurOuter1" result="shadowMatrixOuter1"></feColorMatrix>
            <feMerge>
                <feMergeNode in="shadowMatrixOuter1"></feMergeNode>
                <feMergeNode in="SourceGraphic"></feMergeNode>
            </feMerge>
        </filter>
        <text id="text-2" font-family="RobotoCondensed-Bold, Roboto Condensed" font-size="22" font-style="condensed" font-weight="bold" fill="#FFF6EB">
            <tspan x="44.4213867" y="24">x 3</tspan>
        </text>
        <filter x="-50%" y="-50%" width="200%" height="200%" filterUnits="objectBoundingBox" id="filter-3">
            <feOffset dx="-1" dy="1" in="SourceAlpha" result="shadowOffsetOuter1"></feOffset>
            <feColorMatrix values="0 0 0 0 0   0 0 0 0 0   0 0 0 0 0  0 0 0 0.5 0" type="matrix" in="shadowOffsetOuter1"></feColorMatrix>
        </filter>
        <filter x="-50%" y="-50%" width="200%" height="200%" filterUnits="objectBoundingBox" id="filter-4">
            <feOffset dx="0" dy="1" in="SourceAlpha" result="shadowOffsetOuter1"></feOffset>
            <feGaussianBlur stdDeviation="0.5" in="shadowOffsetOuter1" result="shadowBlurOuter1"></feGaussianBlur>
            <feColorMatrix values="0 0 0 0 0   0 0 0 0 0   0 0 0 0 0  0 0 0 0.5 0" type="matrix" in="shadowBlurOuter1" result="shadowMatrixOuter1"></feColorMatrix>
            <feMerge>
                <feMergeNode in="shadowMatrixOuter1"></feMergeNode>
                <feMergeNode in="SourceGraphic"></feMergeNode>
            </feMerge>
        </filter>
    </defs>
    <g id="Page-1" stroke="none" stroke-width="1" fill="none" fill-rule="evenodd">
        <g id="PINK" transform="translate(-535.000000, -9926.000000)">
            <g id="7_sunt_middag" transform="translate(537.000000, 9926.000000)">
                <g id="Page-1" filter="url(#filter-1)">
                    <polygon id="Fill-1" fill="#C9CAC9" points="30.6649565 73.0159783 5.66010628 73.0159783 5.66010628 91.5407845 49.8298841 91.5407845 49.8298841 73.0159783"></polygon>
                    <polygon id="Fill-2" fill="#F3F3F3" points="0 0.000499224807 5.65974879 80.363569 49.8295266 80.363569 55.2225894 0.000499224807"></polygon>
                    <g id="Group-138" transform="translate(1.429952, 9.525209)">
                        <path d="M51.8867266,9.98513798 L48.5334899,70.8377891 L4.36371208,70.8377891 L0.469238647,3.50020775 C5.03078454,0.535525581 16.1979923,-1.87786977 23.606572,3.90457984 C28.3389971,7.59813023 31.567828,12.4948124 51.8867266,9.98513798" id="Fill-3" fill="#74DAFF"></path>
                        <path d="M92.8637797,29.9582667 L73.2434126,23.2722202 C73.259142,23.2251504 73.2755865,23.1780806 73.2920309,23.131724 C74.325886,20.1756 75.9932097,17.559662 81.2683014,19.3575845 C86.5855768,21.1697705 92.765828,29.8213364 92.8630647,29.9561271 C92.8630647,29.9575535 92.8637797,29.9582667 92.8637797,29.9582667" id="Fill-5" fill="#FFE59A"></path>
                        <path d="M116.49845,23.0159752 L99.6543343,35.0765333 C99.6250203,35.0358822 99.5964213,34.9959442 99.5678222,34.955293 C97.7546435,32.3999752 96.5863729,29.5280062 101.114315,26.2858977 C105.678721,23.0174016 116.330431,23.0159752 116.496305,23.0159752 L116.49845,23.0159752 Z" id="Fill-7" fill="#FFE59A"></path>
                        <path d="M65.7351652,20.163262 L48.8910493,32.2238202 C48.8617353,32.183169 48.8331362,32.143231 48.8052522,32.1025798 C46.9920734,29.547262 45.8230879,26.675293 50.35103,23.4331845 C54.9161507,20.1646884 65.5671459,20.163262 65.7330203,20.163262 L65.7351652,20.163262 Z" id="Fill-9" fill="#FFE59A"></path>
                        <path d="M32.1543942,20.4299907 C31.6803652,20.1019287 31.0869353,20.0876651 30.5978918,20.3287194 C30.3476502,19.8808434 29.998742,19.4821767 29.5497372,19.171231 C27.9531961,18.067231 25.7446357,18.4858667 24.6171188,20.1076341 C24.3225488,20.531262 24.1337952,20.9955411 24.0401333,21.4698047 C23.1507034,21.4961922 22.2784329,21.9319442 21.7264715,22.727138 C21.1001527,23.6264558 21.0472444,24.7504248 21.4898145,25.6575876 C20.8685005,25.8900837 20.3072444,26.3080062 19.8975633,26.8963783 C18.840829,28.4168744 19.1976019,30.4886574 20.6954763,31.5249054 C20.8070126,31.6019287 20.9235536,31.6689674 21.0408097,31.731014 C20.6554377,33.0646574 21.1223169,34.5373705 22.3106068,35.3603783 C23.2372155,36.0008124 24.3833217,36.0935256 25.3728483,35.711262 C25.560887,36.2675411 25.9183749,36.7681922 26.4353024,37.1254946 C27.7329836,38.023386 29.5275729,37.6824868 30.442742,36.3659597 C30.8266841,35.8139597 30.9925585,35.1799442 30.9639594,34.5609054 C32.0700271,34.5380837 33.1582203,33.9996341 33.8453121,33.0118822 C34.5710126,31.9677891 34.6682493,30.6805023 34.2213894,29.6000372 C35.0543362,29.6578047 35.9015826,29.2840992 36.4177952,28.5409674 C37.192829,27.4262698 36.9311478,25.9072 35.8336599,25.1476651 C35.5869932,24.9772155 35.3188773,24.8623938 35.0436116,24.7946419 C35.2452348,23.8618047 34.8920367,22.8654946 34.0690995,22.2963783 C33.6794377,22.0267969 33.2361527,21.891293 32.7921527,21.8763163 C32.8579304,21.3264558 32.6362879,20.763045 32.1543942,20.4299907" id="Fill-11" fill="#67C24D"></path>
                        <path d="M30.902114,35.2618884 C30.8263266,35.6455783 30.6811865,36.0221364 30.4423845,36.3666016 C29.5272155,37.6838419 27.7326261,38.0240279 26.4349449,37.1261364 C25.9180174,36.7681209 25.5605295,36.2674698 25.3724908,35.7119039 C24.3829643,36.0941674 23.236858,36.0014543 22.3102493,35.360307 C21.8612444,35.0500744 21.5166261,34.6457023 21.2806841,34.1921209 C20.2647034,34.6549736 19.6390995,35.7561209 19.8350029,36.8993457 C19.8528773,37.0006171 19.8779014,37.0968961 19.9065005,37.1917488 C19.0092058,37.7016713 18.4786937,38.7357798 18.6617275,39.8019814 C18.8054377,40.6335473 19.3488193,41.2875318 20.0609353,41.6063225 C19.8657469,42.0028496 19.7885295,42.4592837 19.8686068,42.9235628 C20.069515,44.0881829 21.1755826,44.8534233 22.3388483,44.632338 C22.8264618,44.540338 23.2454377,44.2878729 23.5535923,43.9426946 C24.1377275,44.5146636 24.982829,44.8006481 25.8550995,44.6351907 C26.7774184,44.4597488 27.5024039,43.8235938 27.8370126,43.0098574 C28.237399,43.4798419 28.8708676,43.7273147 29.5279304,43.6032217 C30.5124522,43.4170822 31.1730899,42.4664155 31.0036406,41.4808031 C30.9650319,41.2597178 30.8870995,41.0571752 30.7798531,40.8753147 C31.3725681,40.4823535 31.7114667,39.7634698 31.5849159,39.0253302 C31.524858,38.6751597 31.3661333,38.3692062 31.1444908,38.1274388 C31.4676599,37.8678419 31.6478338,37.4499194 31.5734763,37.0177333 C31.4998338,36.5919659 31.2009739,36.2710357 30.8213217,36.1419504 C30.9006841,35.8609581 30.9185585,35.5635628 30.902114,35.2618884" id="Fill-13" fill="#3D9E24"></path>
                        <path d="M38.2120986,17.3467783 C38.111287,17.3653209 38.0147652,17.3924217 37.9196734,17.4223752 C37.4263401,16.5301891 36.4046396,16.0152744 35.3393256,16.2171039 C34.5078087,16.3747163 33.847171,16.9317085 33.5182821,17.6520186 C33.1257604,17.4637395 32.6724657,17.3924217 32.2091614,17.4808558 C31.0451807,17.7019411 30.2644271,18.8244837 30.4653353,19.9898171 C30.4782048,20.0661271 30.501799,20.1381581 30.5232483,20.2101891 C30.5468425,20.2501271 30.5754415,20.2886388 30.5983208,20.3292899 C31.0873643,20.0875225 31.6807942,20.1024992 32.1548232,20.4298481 C32.6367169,20.7636155 32.8583594,21.3270264 32.7918667,21.8768868 C33.2358667,21.8925767 33.6784367,22.0266543 34.0688135,22.2962357 C34.8910357,22.8660651 35.2449488,23.8630884 35.0433256,24.7952124 C35.3193063,24.8629643 35.5867072,24.977786 35.8326589,25.1475225 C36.9308618,25.9077705 37.192543,27.4268403 36.4175092,28.541538 C36.2359053,28.8025612 36.0121179,29.0150884 35.7640213,29.1826853 C35.8097797,29.1769798 35.8526783,29.1862512 35.8977217,29.177693 C36.24663,29.1106543 36.5547845,28.9480496 36.8000213,28.7212589 C37.0531227,29.0407628 37.4663787,29.2154915 37.8989391,29.1327628 C38.3236348,29.0521736 38.6489488,28.7462202 38.7840792,28.3632434 C39.1515768,28.4623752 39.5476734,28.4851969 39.9502048,28.4081736 C41.3830164,28.1364527 42.343229,26.7543132 42.0965623,25.3208248 C42.0322145,24.945693 41.8899343,24.6069333 41.691171,24.3116775 C42.1530454,23.8281426 42.3904174,23.1427783 42.2695865,22.4402977 C42.1323111,21.6436775 41.572485,21.0353364 40.8603691,20.7999876 C41.070572,20.3513984 41.1520792,19.8393364 41.0619923,19.3187163 C40.8310551,17.9750884 39.5548232,17.0928868 38.2120986,17.3467783" id="Fill-15" fill="#3D9E24"></path>
                        <path d="M38.7839362,28.363386 C38.6488058,28.7463628 38.3242068,29.0523163 37.8987961,29.1329054 C37.6464097,29.1806884 37.399028,29.1414636 37.1881101,29.0352 C37.0701391,28.9774326 36.9414435,28.9424868 36.8120329,28.9325023 C37.4440715,32.1254016 40.0887671,35.8802853 40.0887671,35.8802853 C38.3149121,33.7378977 36.0484386,32.315107 34.4490377,31.4920992 C34.3703903,32.0205643 34.172342,32.5411845 33.8448831,33.0133085 C33.5260039,33.4718822 33.1177527,33.8291845 32.663743,34.087355 C36.1907188,35.2954791 40.6729024,39.0988589 40.6729024,39.0988589 C36.4838589,37.5198822 32.8911053,37.9328124 31.3539072,38.2401922 C31.360342,38.3414636 31.3789314,38.4427349 31.4254048,38.5368744 C31.4997623,38.6866419 31.5541005,38.8506729 31.5848444,39.0261147 C31.7121101,39.7649674 31.3724966,40.4838512 30.7797816,40.8760992 C30.887028,41.0579597 30.9649604,41.2605023 31.0035691,41.4823008 C31.0486126,41.7454636 31.0307382,42.0050605 30.9671053,42.2496806 C32.6258493,39.8640992 39.2879942,40.4203783 44.6102744,43.5797581 C45.0020812,43.8122543 45.508999,43.7002853 45.7685353,43.3265798 L47.4201295,40.9509829 C47.6739459,40.5858357 47.611028,40.0901767 47.2757043,39.7970605 C45.4961295,38.2437581 37.8880715,31.9841922 40.4877237,28.2449984 C40.3175594,28.3170295 40.1388155,28.3733705 39.9507768,28.4090295 C39.5482454,28.4846264 39.1521488,28.4625178 38.7839362,28.363386" id="Fill-17" fill="#206B05"></path>
                        <path d="M25.6989488,31.215386 C25.6589101,31.2731535 25.6081469,31.3237891 25.545944,31.3658667 C24.2461179,32.2373705 22.4765527,31.8914791 21.6028522,30.5949209 C20.7298667,29.2983628 21.074485,27.5360992 22.3757411,26.6610295 C22.6409971,26.4827349 23.0013449,26.5533395 23.1793739,26.8186419 C23.3588329,27.083231 23.2880502,27.4412465 23.0220792,27.6209674 C22.2520502,28.1380217 22.0468522,29.1814016 22.5644947,29.9494946 C23.0821372,30.7175876 24.1288618,30.9222698 24.8981758,30.4052155 C25.1634319,30.2276341 25.5244947,30.2975256 25.7025237,30.5628279 C25.840514,30.7667969 25.8305043,31.0256806 25.6989488,31.215386" id="Fill-19" fill="#3D9E24"></path>
                        <path d="M39.1456425,22.4949984 C38.9461643,22.7816961 38.6930628,23.0313085 38.3942029,23.2317116 C37.7643092,23.6539132 37.0078647,23.8065333 36.2628599,23.661045 C35.9489855,23.5997116 35.7445024,23.2951845 35.8059903,22.9828124 C35.8689082,22.6668744 36.1727729,22.4643318 36.4859324,22.5263783 C36.9270725,22.6126729 37.3746473,22.5220992 37.7478647,22.2724868 C38.1210821,22.0214481 38.3734686,21.6420372 38.4606957,21.2027194 C38.5472077,20.7619752 38.4564058,20.3155256 38.2054493,19.9439597 C37.9544928,19.5716806 37.5741256,19.3192155 37.1329855,19.2336341 C36.8191111,19.173014 36.613913,18.8684868 36.6761159,18.5554016 C36.7390338,18.2401767 37.0421836,18.0376341 37.356058,18.0989674 C38.1010628,18.2444558 38.7445411,18.6702233 39.1678068,19.2992465 C39.5917874,19.9268434 39.7447923,20.6820992 39.5982222,21.425231 C39.5202899,21.8153395 39.36657,22.1776341 39.1456425,22.4949984" id="Fill-21" fill="#67C24D"></path>
                        <path d="M33.4460696,28.1858047 C32.8805237,28.9988279 31.9045816,29.4944868 30.8485623,29.3967814 C30.5296831,29.3675411 30.295171,29.0865488 30.324485,28.7677581 C30.3530841,28.451107 30.6354995,28.2164713 30.9543787,28.2457116 C31.4019536,28.287076 31.8380889,28.1515721 32.1841372,27.8655876 C32.5280406,27.5788899 32.7418184,27.1759442 32.783287,26.7294946 C32.8247556,26.283045 32.6896251,25.8480062 32.4022048,25.5021147 C32.1147845,25.1583628 31.7101082,24.9458357 31.2632483,24.9044713 C30.9443691,24.875231 30.709142,24.5942388 30.738456,24.2761612 C30.76777,23.9587969 31.0501855,23.7234481 31.3690647,23.7534016 C32.1247942,23.8225798 32.8075961,24.1813085 33.2930647,24.7639752 C33.7778184,25.3466419 34.0066106,26.0819287 33.937258,26.835045 C33.8914995,27.3385488 33.7156155,27.7985488 33.4460696,28.1858047" id="Fill-23" fill="#3D9E24"></path>
                        <path d="M29.7161836,28.0757612 C29.4795266,28.4159473 29.1656522,28.7083504 28.7802802,28.9251566 C27.4161063,29.6932496 25.67943,29.2111411 24.9101159,27.8503969 C24.7535362,27.5722574 24.8507729,27.2199473 25.1296135,27.0623349 C25.4084541,26.9054357 25.7623671,27.0038543 25.9196618,27.2812806 C26.3751014,28.0871721 27.4032367,28.3724434 28.2111594,27.9174357 C29.0169372,27.4631411 29.3050725,26.4383039 28.8489179,25.6324124 C28.6916232,25.354986 28.7888599,25.0019628 29.0684155,24.8443504 C29.347256,24.6874512 29.7011691,24.7858698 29.8584638,25.0632961 C30.4111401,26.0417767 30.3174783,27.210676 29.7161836,28.0757612" id="Fill-25" fill="#3D9E24"></path>
                        <path d="M29.8788406,33.5359969 C29.658628,33.8526481 29.3726377,34.1236558 29.0337391,34.3319039 C27.7010242,35.1520589 25.9471884,34.7369891 25.1249662,33.4061984 C24.9576618,33.1351907 25.0398841,32.7807411 25.3137198,32.6117178 C25.5861256,32.4441209 25.9436135,32.528276 26.1109179,32.8007101 C26.5985314,33.5873457 27.6366763,33.8333922 28.4260097,33.3477178 C28.8085217,33.1116558 29.0759227,32.7429426 29.1795942,32.3064775 C29.2832657,31.8707256 29.2110531,31.4207101 28.9751111,31.0391597 C28.8078068,30.7674388 28.890744,30.4129891 29.1638647,30.2439659 C29.4362705,30.0756558 29.7937585,30.1612372 29.9617778,30.432245 C30.3600193,31.076245 30.4837101,31.836493 30.3078261,32.5732062 C30.2248889,32.9240899 30.0783188,33.2492992 29.8788406,33.5359969" id="Fill-27" fill="#3D9E24"></path>
                        <path d="M28.356085,24.6561426 C28.3038918,24.7310264 28.2481237,24.8044837 28.1880657,24.8758016 C27.6975923,25.453476 27.0119304,25.8064992 26.255486,25.8692589 C25.9366068,25.8963597 25.6563362,25.6595845 25.6298821,25.341507 C25.602713,25.0220031 25.840085,24.7438636 26.1589643,24.717476 C26.6065391,24.6796775 27.0126454,24.4707163 27.3029256,24.1291039 C27.5989256,23.7832124 27.7319111,23.3517395 27.6947324,22.9060031 C27.617515,21.9838636 26.8024425,21.2963597 25.8786937,21.3733829 C25.5590995,21.4011969 25.279544,21.1644217 25.2523749,20.845631 C25.2259208,20.5261271 25.4640077,20.2479876 25.781457,20.2208868 C27.3429643,20.0910884 28.7192928,21.2521426 28.8501333,22.8082977 C28.9051865,23.4708403 28.7307324,24.1169798 28.356085,24.6561426" id="Fill-29" fill="#3D9E24"></path>
                        <path d="M25.6742106,40.7562853 C25.4718725,41.047262 25.2116213,41.3054326 24.8963169,41.5115411 C23.5857662,42.3659287 21.8212058,41.9972155 20.9639498,40.6892465 C20.7887807,40.4225178 20.8638531,40.0645023 21.1319691,39.8890605 C21.400085,39.7143318 21.7590029,39.7899287 21.934887,40.0566574 C22.4418048,40.8304558 23.4856696,41.0486884 24.2621333,40.5423318 C25.040742,40.035262 25.2580947,38.9940217 24.7497469,38.2202233 C24.5738628,37.9527814 24.6503652,37.5940527 24.9177662,37.4200372 C25.1858821,37.2453085 25.5448,37.3201922 25.7199691,37.5876341 C26.3705971,38.5818047 26.314114,39.8355721 25.6742106,40.7562853" id="Fill-31" fill="#67C24D"></path>
                        <path d="M84.2966531,32.9245178 C84.6148174,32.4445488 84.6155324,31.8526109 84.3631459,31.3697891 C84.8064309,31.1101922 85.1989527,30.7536031 85.4999575,30.2985953 C86.5709913,28.6818202 86.1005372,26.4887969 84.4503729,25.4012 C84.0185275,25.117355 83.5487884,24.9390605 83.0718995,24.8563318 C83.0247111,23.969138 82.5685565,23.1097581 81.7592039,22.577014 C80.8433198,21.9736651 79.7165179,21.945138 78.8170783,22.4072775 C78.5689816,21.7939442 78.1385662,21.2426574 77.5387014,20.8475566 C75.9914937,19.8284248 73.9230686,20.2306574 72.9185275,21.7468744 C72.8434551,21.8602698 72.7791072,21.9779442 72.7204792,22.0963318 C71.3748947,21.7425953 69.9077643,22.2418202 69.1112812,23.4449519 C68.4899671,24.3834946 68.4227594,25.5288589 68.8274357,26.5066264 C68.2747594,26.7063163 67.7807111,27.0743163 67.4339478,27.5977891 C66.5638222,28.9121767 66.9449043,30.6936961 68.286199,31.577324 C68.84817,31.9474636 69.4880734,32.0986574 70.1065275,32.0558667 C70.1544309,33.1591535 70.7185469,34.2317736 71.7245179,34.8950295 C72.786972,35.5946574 74.0796483,35.6631225 75.1521121,35.193138 C75.1135034,36.0247039 75.5067401,36.861262 76.2631845,37.3597736 C77.3985662,38.1071845 78.9157449,37.8119287 79.6514551,36.7000837 C79.8166145,36.4497581 79.9260058,36.1801767 79.9874937,35.9048899 C80.926257,36.0846109 81.9172135,35.7094791 82.4691749,34.8757736 C82.730856,34.481386 82.8559768,34.0363628 82.8616966,33.5927659 C83.4143729,33.6462543 83.9734841,33.413045 84.2966531,32.9245178" id="Fill-33" fill="#67C24D"></path>
                        <path d="M69.4029198,32.0107938 C69.0161179,31.943755 68.6357507,31.807538 68.2861275,31.5778946 C66.9448329,30.6935535 66.5630357,28.9113209 67.4331614,27.5983597 C67.7799246,27.0734605 68.2746879,26.7068868 68.8273643,26.5057705 C68.4219729,25.5280031 68.4891807,24.3833519 69.1104947,23.4440961 C69.4114995,22.9905147 69.8083111,22.6360651 70.2580309,22.391445 C69.7718473,21.3880031 68.6529101,20.7896465 67.5118087,21.011445 C67.4117121,21.0307008 67.3151903,21.0585147 67.2200986,21.0891814 C66.6895865,20.2048403 65.6407169,19.6991969 64.5761179,19.9060186 C63.7460309,20.0679101 63.1025527,20.6249023 62.8001179,21.3423597 C62.3975865,21.1569333 61.938572,21.0898946 61.4752676,21.179755 C60.3127169,21.4065457 59.570572,22.5269488 59.8179536,23.6822977 C59.9216251,24.1665457 60.1833063,24.5780496 60.5372193,24.8782977 C59.9766783,25.4738016 59.7092773,26.3224837 59.894456,27.1889953 C60.0910744,28.1047163 60.7452773,28.8136155 61.5682145,29.1281271 C61.1063401,29.5382047 60.872543,30.175786 61.0112483,30.8283442 C61.2214512,31.8061116 62.1880986,32.4429798 63.1719053,32.2518481 C63.3935478,32.2083442 63.594456,32.1256155 63.773915,32.0150729 C64.1807362,32.5970264 64.9092966,32.9186698 65.6464367,32.7760341 C65.9953449,32.7082822 66.2984947,32.543538 66.5365816,32.3174605 C66.8039826,32.6326853 67.2265333,32.8031349 67.6590937,32.719693 C68.0830744,32.6369643 68.3990937,32.3310109 68.5192097,31.9501736 C68.8023401,32.0229178 69.1012,32.0336155 69.4029198,32.0107938" id="Fill-35" fill="#3D9E24"></path>
                        <path d="M87.5237681,38.896031 C87.5023188,38.796186 87.4737198,38.7006202 87.4408309,38.6057674 C88.3238261,38.0937054 88.8178744,37.063876 88.5905121,36.0055194 C88.413913,35.1803721 87.8405024,34.5335194 87.111942,34.2218605 C87.291401,33.8267597 87.3528889,33.3731783 87.2535072,32.9124651 C87.0061256,31.7564031 85.8628792,31.004 84.6996135,31.2300775 C84.6231111,31.2450543 84.5523285,31.2700155 84.4801159,31.2928372 C84.4407923,31.3177984 84.4028986,31.3470388 84.3628599,31.3705736 C84.6159614,31.8526822 84.6145314,32.4453333 84.2963671,32.9253023 C83.9731981,33.4138295 83.414087,33.6470388 82.8614106,33.5928372 C82.8556908,34.0357209 82.73057,34.4807442 82.4688889,34.8751318 C81.9169275,35.7088372 80.925971,36.083969 79.9864928,35.9042481 C79.9250048,36.1802481 79.8163285,36.4498295 79.6504541,36.6994419 C78.914744,37.8112868 77.3975652,38.1072558 76.2628986,37.3591318 C75.9976425,37.1844031 75.7788599,36.9654574 75.6058357,36.7215504 C75.6122705,36.7671938 75.6044058,36.8099845 75.6144155,36.8549147 C75.688058,37.2015194 75.8596522,37.5046202 76.0920193,37.7442481 C75.776715,38.003845 75.6115556,38.4203411 75.7037874,38.8496744 C75.7938744,39.2711628 76.1077488,39.5892403 76.4945507,39.7140465 C76.4037488,40.084186 76.3901643,40.4792868 76.4766763,40.8786667 C76.781256,42.3007442 78.1876135,43.227876 79.6189952,42.9497364 C79.9936425,42.8769922 80.3303961,42.7272248 80.6213913,42.5232558 C81.1161546,42.9725581 81.8089662,43.1936434 82.5103575,43.0574264 C83.3054106,42.9026667 83.9031304,42.3299845 84.122628,41.6153798 C84.5766377,41.8143566 85.0921353,41.8842481 85.6119227,41.7829767 C86.9532174,41.5219535 87.8083285,40.2296744 87.5237681,38.896031" id="Fill-37" fill="#3D9E24"></path>
                        <path d="M76.4947652,39.7143318 C76.1079633,39.5880992 75.7948039,39.2714481 75.7040019,38.8492465 C75.6496638,38.5989209 75.6839826,38.3514481 75.7847942,38.1382078 C75.8412773,38.019107 75.8734512,37.8900217 75.880601,37.7616496 C72.6939536,38.4634171 68.9903787,41.1856186 68.9903787,41.1856186 C71.0974126,39.3684403 72.4730261,37.0762853 73.2616444,35.4623628 C72.7297024,35.395324 72.2034802,35.2106109 71.7237314,34.8939597 C71.2561372,34.5865798 70.8886396,34.1872 70.6198087,33.7407504 C69.4887169,37.2852465 65.7787072,41.8396031 65.7787072,41.8396031 C67.266572,37.6275721 66.7703787,34.0538357 66.4286203,32.5283473 C66.3263787,32.5369054 66.2262821,32.5575876 66.1333353,32.6053705 C65.9839053,32.6838202 65.8201758,32.7423008 65.6457217,32.7758202 C64.9078667,32.9198822 64.1793063,32.5975256 63.7732,32.0148589 C63.5937411,32.1254016 63.3921179,32.2088434 63.1711903,32.2516341 C62.9080792,32.3022698 62.647828,32.2908589 62.4011614,32.2330915 C64.8292193,33.8334636 64.4216831,40.4888434 61.375886,45.8683473 C61.1520986,46.2648744 61.2750744,46.7669519 61.6554415,47.0172775 L64.0734899,48.611231 C64.4452773,48.8558512 64.9407556,48.7823938 65.2260309,48.4414946 C66.7439246,46.6307349 72.8455285,38.9027349 76.6520599,41.4109829 C76.5762725,41.2426729 76.5154995,41.0665178 76.4754609,40.8796651 C76.3903787,40.4795721 76.4039633,40.0844713 76.4947652,39.7143318" id="Fill-39" fill="#206B05"></path>
                        <path d="M73.3408638,26.7302078 C73.2829507,26.6916961 73.2307575,26.6417736 73.187144,26.5811535 C72.2841295,25.3045643 72.5908541,23.5323163 73.8706609,22.6315721 C75.1504676,21.7315411 76.9243227,22.0360682 77.8309121,23.3133705 C78.0153758,23.5736806 77.9531729,23.935262 77.6914918,24.1185488 C77.4298106,24.303262 77.0694628,24.2412155 76.8828541,23.9801922 C76.3480522,23.2235101 75.2963227,23.0423628 74.5398783,23.5758202 C73.7812889,24.1092775 73.599685,25.1583628 74.134487,25.9136186 C74.3189507,26.1746419 74.2567478,26.5362233 73.9950667,26.7187969 C73.7941585,26.8621457 73.5346222,26.8578667 73.3408638,26.7302078" id="Fill-41" fill="#3D9E24"></path>
                        <path d="M82.3848792,39.943476 C82.0924541,39.7502047 81.8364928,39.5041581 81.6291498,39.2110419 C81.1922995,38.5912899 81.0221353,37.8410264 81.1508309,37.0950419 C81.2058841,36.7798171 81.5061739,36.5694295 81.8214783,36.623631 C82.1382126,36.6792589 82.3484155,36.9780806 82.2933623,37.2918791 C82.2175749,37.7333364 82.3176715,38.1776465 82.5772077,38.5442202 C82.836029,38.911507 83.2228309,39.1539876 83.664686,39.2302977 C84.107971,39.3066078 84.553401,39.2067628 84.9208986,38.9478791 C85.2876812,38.6889953 85.5314879,38.3045922 85.6079903,37.8624217 C85.6623285,37.5479101 85.9626184,37.3368093 86.2772077,37.391724 C86.594657,37.4466388 86.8048599,37.7447473 86.7498068,38.0592589 C86.6211111,38.8052434 86.209285,39.4563752 85.588686,39.8935535 C84.968087,40.3300186 84.2159324,40.4990419 83.4673527,40.3706698 C83.0748309,40.3014915 82.7073333,40.1560031 82.3848792,39.943476" id="Fill-43" fill="#67C24D"></path>
                        <path d="M76.5519633,34.3878171 C75.7247362,33.8422357 75.2063787,32.8801581 75.2800213,31.8246543 C75.3021855,31.5058636 75.5788812,31.2655225 75.8984754,31.287631 C76.2166396,31.3090264 76.4583014,31.5857395 76.4361372,31.9045302 C76.4053932,32.351693 76.5505333,32.7838791 76.8451034,33.1219256 C77.1396734,33.4585457 77.5493546,33.6625147 77.9969295,33.6938946 C78.4452193,33.7252744 78.8784947,33.5804992 79.2181082,33.2859566 C79.5570068,32.991414 79.7607749,32.583476 79.7915188,32.1370264 C79.8136831,31.8175225 80.0903787,31.5778946 80.4099729,31.6000031 C80.7281372,31.6213984 80.970514,31.8981116 80.9476348,32.2161891 C80.8954415,32.9721581 80.5515382,33.6603752 79.9788425,34.1581736 C79.4061469,34.6545457 78.6740116,34.8991659 77.9168522,34.8471039 C77.4120792,34.8128713 76.9473449,34.647414 76.5519633,34.3878171" id="Fill-45" fill="#3D9E24"></path>
                        <path d="M76.5792039,30.6658822 C76.2331556,30.4376651 75.9321507,30.1309984 75.7055034,29.7515876 C74.9054454,28.4079597 75.3501604,26.6663783 76.6964599,25.8669054 C76.9717256,25.705014 77.3263536,25.7941612 77.4907981,26.0687349 C77.6545275,26.3433085 77.5644406,26.6984713 77.2891749,26.8617891 C76.4919768,27.3339132 76.2288657,28.365169 76.7028947,29.161076 C77.1776386,29.9548434 78.2107787,30.2187194 79.0079768,29.7458822 C79.2825275,29.5825643 79.6378705,29.6709984 79.80303,29.9469984 C79.9660444,30.2215721 79.8752425,30.5760217 79.6014068,30.7400527 C78.6326145,31.3127349 77.4593391,31.2456961 76.5792039,30.6658822" id="Fill-47" fill="#3D9E24"></path>
                        <path d="M71.1093527,30.9507256 C70.7868986,30.7381984 70.5087729,30.4600589 70.2921353,30.1270047 C69.441314,28.8154698 69.8173913,27.0574853 71.1315169,26.2073767 C71.3996329,26.0340744 71.7571208,26.108245 71.9330048,26.3778264 C72.1074589,26.6452682 72.0302415,27.0039969 71.7621256,27.1772992 C70.9842319,27.6808031 70.7611594,28.7220434 71.2659324,29.4979814 C71.5104541,29.8745395 71.8865314,30.1334233 72.3255266,30.2254233 C72.7652367,30.3195628 73.2142415,30.2368341 73.5924638,29.9929271 C73.8598647,29.820338 74.2173527,29.8959349 74.3932367,30.1633767 C74.5676908,30.4315318 74.4904734,30.7895473 74.2223575,30.9635628 C73.586029,31.3757798 72.8260097,31.5155628 72.0838647,31.356524 C71.7306667,31.2823535 71.4017778,31.1439969 71.1093527,30.9507256" id="Fill-49" fill="#3D9E24"></path>
                        <path d="M79.9753391,29.2318946 C79.8995517,29.1819721 79.8244792,29.1277705 79.7522667,29.0692899 C79.1609816,28.5936 78.7920541,27.917507 78.7112618,27.1651039 C78.677658,26.8470264 78.9085952,26.5624682 79.2267594,26.5289488 C79.5463536,26.4947163 79.830914,26.7250729 79.8645179,27.0424372 C79.9117063,27.4881736 80.1304889,27.8882667 80.4801121,28.1699721 C80.8325952,28.4573829 81.2694454,28.5800496 81.7148754,28.533693 C82.6371942,28.4352744 83.3071266,27.6072744 83.2091749,26.6879876 C83.175571,26.3699101 83.4057932,26.0853519 83.7246725,26.0511194 C84.0442667,26.0168868 84.3281121,26.2479566 84.3624309,26.5653209 C84.5283053,28.1179101 83.3957836,29.5171659 81.8378512,29.6833364 C81.1757836,29.7525147 80.5237256,29.593476 79.9753391,29.2318946" id="Fill-51" fill="#3D9E24"></path>
                        <path d="M63.7780618,26.9210543 C63.4813469,26.7256434 63.2175208,26.4717519 63.004458,26.1622326 C62.1178879,24.8742326 62.4474918,23.1062636 63.7387382,22.2219225 C64.0018493,22.0407752 64.3621971,22.1085271 64.5445159,22.3716899 C64.7261198,22.6348527 64.6581971,22.9942946 64.395086,23.1754419 C63.6307768,23.6982016 63.4355884,24.7451473 63.9603807,25.5089612 C64.4858879,26.2734884 65.5347575,26.4660465 66.2983517,25.9418605 C66.5636077,25.7607132 66.9239556,25.8291783 67.1048444,26.0916279 C67.2857333,26.3547907 67.2192406,26.7149457 66.9554145,26.8953798 C65.9730377,27.5657674 64.7153952,27.5379535 63.7780618,26.9210543" id="Fill-53" fill="#67C24D"></path>
                        <path d="M30.8389101,45.2108682 C30.9876251,44.797938 31.0941565,44.5611628 31.0941565,44.5611628 C31.0941565,44.5611628 30.7881469,44.7993643 30.251915,45.1331318 C30.4435285,45.1602326 30.636572,45.185907 30.8389101,45.2108682" id="Fill-55" fill="#FF6807"></path>
                        <path d="M25.6710647,41.1525271 C25.4808812,42.0204651 25.6067169,42.8391938 25.8941372,43.5894574 C27.2990647,43.9745736 29.0064271,44.3111938 31.0941565,44.5608062 C31.87777,46.7445581 32.7257314,48.4597519 33.5844174,49.8197829 C34.5496348,50.0208992 35.5756251,50.0030698 36.5494222,49.503845 C39.6080889,47.9377054 51.0720116,25.8584186 52.7886686,18.4563411 C52.9502531,17.7595659 52.3596831,17.3066977 51.7269295,17.6411783 C44.993287,21.192093 26.4060599,37.8034419 25.6710647,41.1525271" id="Fill-57" fill="#FF9000"></path>
                        <path d="M47.7585275,24.9208031 C48.2661604,25.0862605 48.7666435,25.3037798 49.2471072,25.5669426 C49.5931556,25.7580744 50.0271459,25.6311287 50.2173295,25.2866636 C50.407513,24.9414853 50.2816773,24.5078729 49.935629,24.3181674 C49.3779478,24.012214 48.7952425,23.7583225 48.2032425,23.5657643 C48.098856,23.5315318 47.9916097,23.5222605 47.8886531,23.5358109 C47.6241121,23.5700434 47.3896,23.7511907 47.300943,24.0214853 C47.1786821,24.3959039 47.3838802,24.7988496 47.7585275,24.9208031" id="Fill-59" fill="#FB7000"></path>
                        <path d="M27.5901314,41.2291938 C29.11303,41.5922016 30.5887401,42.4087907 31.9750783,43.6561395 C32.2682184,43.9200155 32.7200831,43.8964806 32.9846242,43.6040775 C33.2498802,43.3116744 33.226286,42.8609457 32.9324309,42.5970698 C31.3666338,41.1878295 29.6807208,40.2606977 27.9225952,39.8413488 C27.8353681,39.8199535 27.7481411,39.8163876 27.6637739,39.8270853 C27.3784986,39.8641705 27.1318319,40.0731318 27.0603343,40.3691008 C26.9688174,40.7520775 27.2061894,41.1371938 27.5901314,41.2291938" id="Fill-61" fill="#FB7000"></path>
                        <path d="M39.9722976,45.2846822 C39.6877372,45.2490233 39.4360657,45.0464806 39.3631382,44.7497984 C39.0857275,43.6122791 38.2928193,42.1937674 37.1445681,41.5911318 C36.7956599,41.407845 36.6612444,40.9770853 36.8457082,40.6283411 C36.9579594,40.4151008 37.1638725,40.2824496 37.3869449,40.2532093 C37.5277952,40.2353798 37.6757952,40.2582016 37.8123556,40.3302326 C39.3609932,41.1432558 40.3004715,42.8448992 40.6801237,44.1628527" id="Fill-63" fill="#FB7000"></path>
                        <path d="M37.8119981,40.3300186 C37.6768676,40.2579876 37.5288676,40.2351659 37.3865874,40.2537085 C37.16423,40.2829488 36.9583169,40.4148868 36.8460657,40.6281271 C36.6623169,40.9768713 36.7960174,41.407631 37.1449256,41.591631 C38.2917469,42.1949798 39.086085,43.6134915 39.3627807,44.7495845 C39.4357082,45.0455535 39.6873797,45.2488093 39.9719401,45.2844682 C40.2028773,44.9257395 40.4388193,44.5548868 40.6804812,44.1633519 C40.300829,42.8446853 39.3613507,41.143755 37.8119981,40.3300186" id="Fill-65" fill="#FB7000"></path>
                        <path d="M32.8456329,32.811693 C34.2140966,32.8544837 36.0630242,33.3308868 37.2298647,34.5946388 C37.4972657,34.8841891 37.4779614,35.335631 37.1876812,35.6030729 C36.8981159,35.8690884 36.4448213,35.8505457 36.1774203,35.5602822 C35.29943,34.6096155 33.7221932,34.2066698 32.5482029,34.2302047 C32.2336135,34.2373364 31.9705024,34.0362202 31.8696908,33.7566543" id="Fill-67" fill="#FB7000"></path>
                        <path d="M32.5477739,34.2311318 C33.7224792,34.2068837 35.2997159,34.6091163 36.1762763,35.5612093 C36.4436773,35.8507597 36.897687,35.8700155 37.1872522,35.6032868 C37.4782473,35.3365581 37.4968367,34.8851163 37.2294357,34.5955659 C36.0625952,33.3303876 34.2129527,32.8539845 32.8452039,32.8126202 C32.5120251,33.1306977 32.1867111,33.4444961 31.8685469,33.756155 C31.9700734,34.0364341 32.2338995,34.2375504 32.5477739,34.2311318" id="Fill-69" fill="#FB7000"></path>
                        <path d="M44.6542454,37.152738 C44.3625353,37.1227845 44.104429,36.9188155 44.0307865,36.6178543 C43.8570473,35.9032496 43.363714,35.0153426 42.6558879,34.6423504 C42.3069797,34.4590636 42.1725643,34.0275907 42.357028,33.6788465 C42.4699942,33.4656062 42.6751923,33.3336682 42.8982647,33.3044279 C43.039115,33.2858853 43.187115,33.308707 43.3236754,33.380738 C44.3518106,33.9213271 45.0060135,35.0032186 45.3098783,35.9018233" id="Fill-71" fill="#FB7000"></path>
                        <path d="M43.3227459,33.380738 C43.1876155,33.308707 43.0396155,33.2858853 42.8973353,33.3044279 C42.6749778,33.3336682 42.4690647,33.4656062 42.3560986,33.6788465 C42.1730647,34.0268775 42.3060502,34.4583504 42.6549585,34.6430636 C43.3634995,35.0153426 43.8561179,35.9025364 44.029857,36.6178543 C44.1034995,36.9202419 44.3616058,37.1234977 44.6533159,37.152738 C44.8728135,36.7390946 45.0908812,36.3225984 45.3096638,35.9025364 C45.005799,35.0032186 44.3508812,33.9213271 43.3227459,33.380738" id="Fill-73" fill="#FB7000"></path>
                        <path d="M40.8014551,25.6876124 C41.779542,25.6876124 43.1837546,26.0171008 44.0574551,26.9656279 C44.324856,27.2558915 44.3062667,27.7066202 44.0167014,27.9733488 C43.7249913,28.2415039 43.2731266,28.2215349 43.0057256,27.9319845 C42.4630589,27.3443256 41.4771072,27.0975659 40.7399671,27.1125426 C40.3453005,27.1211008 40.0185565,26.8073023 40.0106918,26.4143411 C40.0099768,26.3915194 40.0199865,26.3715504 40.0214164,26.350155" id="Fill-75" fill="#FB7000"></path>
                        <path d="M40.7400386,27.1118295 C41.4771787,27.0968527 42.4638454,27.3443256 43.0057971,27.9312713 C43.2724831,28.2215349 43.7243478,28.2407907 44.016058,27.9726357 C44.3063382,27.7066202 44.3256425,27.2551783 44.0575266,26.9649147 C43.1823961,26.0163876 41.7796135,25.6868992 40.8008116,25.6868992 C40.5412754,25.905845 40.2810242,26.1269302 40.0207729,26.3487287 C40.019343,26.370124 40.0100483,26.390093 40.0107633,26.4129147 C40.017913,26.805876 40.345372,27.1203876 40.7400386,27.1118295" id="Fill-77" fill="#FB7000"></path>
                        <path d="M70.1451362,45.438586 C70.4046725,44.8651907 71.8861024,41.2643535 70.3074357,36.9988341 C69.9585275,36.0588651 69.353658,35.1459969 68.7116097,34.1796403 L68.6000734,34.0120434 C68.2761894,33.5228031 67.9044019,33.0157333 67.4954357,32.5029581 C59.3911845,22.3651287 51.0366918,24.7471442 47.8207304,26.2412527 C44.6919961,27.6954233 42.0823343,30.1615938 40.2727304,33.3716093 C37.5558222,38.1941209 37.3870879,42.1529736 39.7722473,45.1354853 C40.7567691,46.3685705 42.2031652,47.4739969 44.0706821,48.4203845 C46.1669913,49.482307 49.2385275,50.3994543 51.7030493,46.1168186 C52.9478222,43.9558884 55.0677256,42.6086946 57.5208077,42.422555 C60.2720348,42.214307 62.9360348,43.5907411 64.3852908,45.9884465 C64.5690396,46.2922605 64.7606531,46.5711132 64.9558415,46.8157333 C65.4355903,47.4155163 66.1820251,48.1229891 67.0092522,48.0766326 C67.9551652,48.0245705 69.0941217,47.0646326 70.1451362,45.438586" id="Fill-79" fill="#FF91AD"></path>
                        <path d="M142.209697,32.9245178 C142.527861,32.4445488 142.528576,31.8526109 142.276189,31.3697891 C142.719474,31.1101922 143.111996,30.7536031 143.413001,30.2985953 C144.484035,28.6818202 144.013581,26.4887969 142.363416,25.4012 C141.931571,25.117355 141.461832,24.9390605 140.984943,24.8563318 C140.937755,23.969138 140.4816,23.1097581 139.672247,22.577014 C138.756363,21.9736651 137.629561,21.945138 136.730122,22.4072775 C136.482025,21.7939442 136.05161,21.2426574 135.451745,20.8475566 C133.904537,19.8284248 131.836112,20.2306574 130.831571,21.7468744 C130.756499,21.8602698 130.692151,21.9779442 130.633523,22.0963318 C129.287938,21.7425953 127.820808,22.2418202 127.024325,23.4449519 C126.403011,24.3834946 126.335803,25.5288589 126.740479,26.5066264 C126.187803,26.7063163 125.693755,27.0743163 125.346991,27.5977891 C124.476866,28.9121767 124.857948,30.6936961 126.199243,31.577324 C126.761214,31.9474636 127.401117,32.0986574 128.019571,32.0558667 C128.067474,33.1591535 128.63159,34.2317736 129.637561,34.8950295 C130.700015,35.5946574 131.992692,35.6631225 133.065156,35.193138 C133.026547,36.0247039 133.419784,36.861262 134.176228,37.3597736 C135.31161,38.1071845 136.828788,37.8119287 137.564499,36.7000837 C137.729658,36.4497581 137.839049,36.1801767 137.900537,35.9048899 C138.8393,36.0846109 139.830257,35.7094791 140.382218,34.8757736 C140.6439,34.481386 140.76902,34.0363628 140.77474,33.5927659 C141.327416,33.6462543 141.886528,33.413045 142.209697,32.9245178" id="Fill-81" fill="#67C24D"></path>
                        <path d="M127.315963,32.0107938 C126.929161,31.943755 126.548794,31.807538 126.199171,31.5778946 C124.857876,30.6935535 124.476079,28.9113209 125.346205,27.5983597 C125.692968,27.0734605 126.187731,26.7068868 126.740408,26.5057705 C126.335016,25.5280031 126.402224,24.3833519 127.023538,23.4440961 C127.324543,22.9905147 127.721355,22.6360651 128.171074,22.391445 C127.684891,21.3880031 126.565954,20.7896465 125.424852,21.011445 C125.324756,21.0307008 125.228234,21.0585147 125.133142,21.0891814 C124.60263,20.2048403 123.55376,19.6991969 122.489161,19.9060186 C121.659074,20.0679101 121.015596,20.6249023 120.713161,21.3423597 C120.31063,21.1569333 119.851615,21.0898946 119.388311,21.179755 C118.22576,21.4065457 117.483615,22.5269488 117.731712,23.6822977 C117.834669,24.1665457 118.09635,24.5780496 118.450263,24.8782977 C117.889722,25.4738016 117.621606,26.3224837 117.8075,27.1889953 C118.004833,28.1047163 118.659036,28.8136155 119.481258,29.1281271 C119.019384,29.5382047 118.784871,30.175786 118.925007,30.8283442 C119.134495,31.8061116 120.101142,32.4429798 121.084949,32.2518481 C121.306591,32.2083442 121.5075,32.1256155 121.686958,32.0150729 C122.09378,32.5970264 122.82234,32.9186698 123.55948,32.7760341 C123.908388,32.7082822 124.211538,32.543538 124.449625,32.3174605 C124.717026,32.6326853 125.139577,32.8031349 125.572137,32.719693 C125.996118,32.6369643 126.312137,32.3310109 126.432253,31.9501736 C126.715384,32.0229178 127.014243,32.0336155 127.315963,32.0107938" id="Fill-83" fill="#3D9E24"></path>
                        <g id="Group-87" transform="translate(132.985507, 30.666667)" fill="#3D9E24">
                            <path d="M12.4513043,8.22936434 C12.4298551,8.12951938 12.401256,8.03395349 12.3683671,7.93910078 C13.2513623,7.42703876 13.7454106,6.3972093 13.5180483,5.33885271 C13.3414493,4.51370543 12.7680386,3.86685271 12.0394783,3.5551938 C12.2189372,3.16009302 12.2804251,2.70651163 12.1810435,2.24579845 C11.9336618,1.08973643 10.7904155,0.337333333 9.62714976,0.563410853 C9.55064734,0.578387597 9.47986473,0.603348837 9.40765217,0.626170543 C9.3683285,0.651131783 9.33043478,0.680372093 9.29039614,0.703906977 C9.54349758,1.1860155 9.54206763,1.77866667 9.22390338,2.25863566 C8.9007343,2.74716279 8.34162319,2.98037209 7.78894686,2.92617054 C7.78322705,3.36905426 7.65810628,3.81407752 7.39642512,4.20846512 C6.84446377,5.04217054 5.85350725,5.41730233 4.91402899,5.2375814 C4.85254106,5.5135814 4.74386473,5.78316279 4.57799034,6.03277519 C3.84228019,7.14462016 2.32510145,7.44058915 1.19043478,6.69246512 C0.925178744,6.51773643 0.706396135,6.2987907 0.533371981,6.05488372 C0.539806763,6.10052713 0.531942029,6.14331783 0.541951691,6.18824806 C0.615594203,6.53485271 0.787188406,6.83795349 1.01955556,7.0775814 C0.704251208,7.33717829 0.539091787,7.75367442 0.631323671,8.18300775 C0.721410628,8.60449612 1.03528502,8.92257364 1.42208696,9.04737984 C1.33128502,9.41751938 1.31770048,9.81262016 1.40421256,10.212 C1.70879227,11.6340775 3.11514976,12.5612093 4.5465314,12.2830698 C4.92117874,12.2103256 5.25793237,12.0605581 5.54892754,11.8565891 C6.04369082,12.3058915 6.73650242,12.5269767 7.43789372,12.3907597 C8.23294686,12.236 8.83066667,11.6633178 9.05016425,10.9487132 C9.50417391,11.1476899 10.0196715,11.2175814 10.5394589,11.1163101 C11.8807536,10.8552868 12.7358647,9.56300775 12.4513043,8.22936434" id="Fill-85"></path>
                        </g>
                        <path d="M134.407809,39.7143318 C134.021007,39.5880992 133.707847,39.2714481 133.617045,38.8492465 C133.562707,38.5989209 133.597026,38.3514481 133.697838,38.1382078 C133.754321,38.019107 133.786495,37.8900217 133.793644,37.7616496 C130.606997,38.4634171 126.903422,41.1856186 126.903422,41.1856186 C129.010456,39.3684403 130.38607,37.0762853 131.174688,35.4623628 C130.642746,35.395324 130.116524,35.2106109 129.636775,34.8939597 C129.169181,34.5865798 128.801683,34.1872 128.532852,33.7407504 C127.40176,37.2852465 123.691751,41.8396031 123.691751,41.8396031 C125.179615,37.6275721 124.683422,34.0538357 124.341664,32.5283473 C124.239422,32.5369054 124.139326,32.5575876 124.046379,32.6053705 C123.896949,32.6838202 123.733219,32.7423008 123.558765,32.7758202 C122.82091,32.9198822 122.09235,32.5975256 121.686243,32.0148589 C121.506785,32.1254016 121.305161,32.2088434 121.084234,32.2516341 C120.821123,32.3022698 120.560871,32.2908589 120.314205,32.2330915 C122.742263,33.8334636 122.334727,40.4888434 119.288929,45.8683473 C119.064427,46.2648744 119.188118,46.7669519 119.568485,47.0172775 L121.986533,48.611231 C122.358321,48.8558512 122.853799,48.7823938 123.139074,48.4414946 C124.656968,46.6307349 130.758572,38.9027349 134.565103,41.4109829 C134.489316,41.2426729 134.428543,41.0665178 134.388504,40.8796651 C134.303422,40.4795721 134.317007,40.0844713 134.407809,39.7143318" id="Fill-88" fill="#206B05"></path>
                        <path d="M131.253907,26.7302078 C131.195994,26.6916961 131.143801,26.6417736 131.100187,26.5811535 C130.197173,25.3045643 130.503898,23.5323163 131.783704,22.6315721 C133.063511,21.7315411 134.837366,22.0360682 135.743956,23.3133705 C135.928419,23.5736806 135.866216,23.935262 135.604535,24.1185488 C135.342854,24.303262 134.982506,24.2412155 134.795898,23.9801922 C134.261096,23.2235101 133.209366,23.0423628 132.452922,23.5758202 C131.694332,24.1092775 131.512729,25.1583628 132.04753,25.9136186 C132.231994,26.1746419 132.169791,26.5362233 131.90811,26.7187969 C131.707202,26.8621457 131.447666,26.8578667 131.253907,26.7302078" id="Fill-90" fill="#3D9E24"></path>
                        <path d="M140.297923,39.943476 C140.005498,39.7502047 139.749536,39.5041581 139.542193,39.2110419 C139.105343,38.5912899 138.935179,37.8410264 139.063874,37.0950419 C139.118928,36.7798171 139.419217,36.5694295 139.734522,36.623631 C140.051256,36.6792589 140.261459,36.9780806 140.206406,37.2918791 C140.130618,37.7333364 140.230715,38.1776465 140.490251,38.5442202 C140.749072,38.911507 141.135874,39.1539876 141.577729,39.2302977 C142.021014,39.3066078 142.466444,39.2067628 142.833942,38.9478791 C143.200725,38.6889953 143.444531,38.3045922 143.521034,37.8624217 C143.575372,37.5479101 143.875662,37.3368093 144.190251,37.391724 C144.5077,37.4466388 144.717903,37.7447473 144.66285,38.0592589 C144.534155,38.8052434 144.122329,39.4563752 143.501729,39.8935535 C142.88113,40.3300186 142.128976,40.4990419 141.380396,40.3706698 C140.987874,40.3014915 140.620377,40.1560031 140.297923,39.943476" id="Fill-92" fill="#67C24D"></path>
                        <path d="M134.465007,34.3878171 C133.63778,33.8422357 133.119422,32.8801581 133.193065,31.8246543 C133.215229,31.5058636 133.491925,31.2655225 133.811519,31.287631 C134.129683,31.3090264 134.371345,31.5857395 134.349181,31.9045302 C134.318437,32.351693 134.463577,32.7838791 134.758147,33.1219256 C135.052717,33.4585457 135.462398,33.6625147 135.909973,33.6938946 C136.358263,33.7252744 136.791538,33.5804992 137.131152,33.2859566 C137.47005,32.991414 137.673818,32.583476 137.704562,32.1370264 C137.726727,31.8175225 138.003422,31.5778946 138.323016,31.6000031 C138.641181,31.6213984 138.883557,31.8981116 138.860678,32.2161891 C138.808485,32.9721581 138.464582,33.6603752 137.891886,34.1581736 C137.31919,34.6545457 136.587055,34.8991659 135.829896,34.8471039 C135.325123,34.8128713 134.860388,34.647414 134.465007,34.3878171" id="Fill-94" fill="#3D9E24"></path>
                        <path d="M134.492247,30.6658822 C134.146199,30.4376651 133.845194,30.1309984 133.618547,29.7515876 C132.818489,28.4079597 133.263204,26.6663783 134.609503,25.8669054 C134.884769,25.705014 135.239397,25.7941612 135.403842,26.0687349 C135.567571,26.3433085 135.477484,26.6984713 135.202218,26.8617891 C134.40502,27.3339132 134.141909,28.365169 134.615938,29.161076 C135.090682,29.9548434 136.123822,30.2187194 136.92102,29.7458822 C137.195571,29.5825643 137.550914,29.6709984 137.716073,29.9469984 C137.879088,30.2215721 137.788286,30.5760217 137.51445,30.7400527 C136.545658,31.3127349 135.372383,31.2456961 134.492247,30.6658822" id="Fill-96" fill="#3D9E24"></path>
                        <path d="M129.022396,30.9507256 C128.699942,30.7381984 128.421816,30.4600589 128.205179,30.1270047 C127.354357,28.8154698 127.730435,27.0574853 129.04456,26.2073767 C129.312676,26.0340744 129.670164,26.108245 129.846048,26.3778264 C130.020502,26.6452682 129.943285,27.0039969 129.675169,27.1772992 C128.897275,27.6808031 128.674203,28.7220434 129.178976,29.4979814 C129.423498,29.8745395 129.799575,30.1334233 130.23857,30.2254233 C130.67828,30.3195628 131.127285,30.2368341 131.505507,29.9929271 C131.772908,29.820338 132.130396,29.8959349 132.30628,30.1633767 C132.480734,30.4315318 132.403517,30.7895473 132.135401,30.9635628 C131.499072,31.3757798 130.739053,31.5155628 129.996908,31.356524 C129.64371,31.2823535 129.314821,31.1439969 129.022396,30.9507256" id="Fill-98" fill="#3D9E24"></path>
                        <path d="M137.888383,29.2318946 C137.812595,29.1819721 137.737523,29.1277705 137.66531,29.0692899 C137.074025,28.5936 136.705098,27.917507 136.624305,27.1651039 C136.590701,26.8470264 136.821639,26.5624682 137.139803,26.5289488 C137.459397,26.4947163 137.743957,26.7250729 137.777561,27.0424372 C137.82475,27.4881736 138.043532,27.8882667 138.393156,28.1699721 C138.745639,28.4573829 139.182489,28.5800496 139.627919,28.533693 C140.550238,28.4352744 141.22017,27.6072744 141.122218,26.6879876 C141.088614,26.3699101 141.318837,26.0853519 141.637716,26.0511194 C141.95731,26.0168868 142.241156,26.2479566 142.275474,26.5653209 C142.441349,28.1179101 141.308827,29.5171659 139.750895,29.6833364 C139.088827,29.7525147 138.436769,29.593476 137.888383,29.2318946" id="Fill-100" fill="#3D9E24"></path>
                        <path d="M121.691105,26.9210543 C121.39439,26.7256434 121.130564,26.4717519 120.917501,26.1622326 C120.030931,24.8742326 120.360535,23.1062636 121.651782,22.2219225 C121.914893,22.0407752 122.275241,22.1085271 122.457559,22.3716899 C122.639163,22.6348527 122.571241,22.9942946 122.308129,23.1754419 C121.54382,23.6982016 121.348632,24.7451473 121.873424,25.5089612 C122.398931,26.2734884 123.447801,26.4660465 124.211395,25.9418605 C124.476651,25.7607132 124.836999,25.8291783 125.017888,26.0916279 C125.198777,26.3547907 125.132284,26.7149457 124.868458,26.8953798 C123.886081,27.5657674 122.628439,27.5379535 121.691105,26.9210543" id="Fill-102" fill="#67C24D"></path>
                        <path d="M108.781787,43.3450512 C108.354947,43.240214 108.10828,43.1574853 108.10828,43.1574853 C108.10828,43.1574853 108.377111,43.4377643 108.765343,43.9348496 C108.771778,43.7422915 108.778213,43.548307 108.781787,43.3450512" id="Fill-104" fill="#FF6807"></path>
                        <path d="M105.264821,48.8888713 C106.149961,48.9887163 106.953594,48.7804682 107.67286,48.4181736 C107.912377,46.9839721 108.073246,45.2552279 108.10828,43.1577705 C110.204589,42.1571814 111.829014,41.1401891 113.097382,40.1481581 C113.198193,39.1696775 113.075932,38.1541116 112.477498,37.2383907 C110.602116,34.3649953 87.4075845,25.2534295 79.8502899,24.3098946 C79.1396039,24.2207473 78.7485121,24.8533364 79.1467536,25.447414 C83.3779807,31.7640341 101.850097,48.5030419 105.264821,48.8888713" id="Fill-106" fill="#FF9000"></path>
                        <path d="M86.8130106,28.6378171 C86.9259768,28.1179101 87.0918512,27.5980031 87.304914,27.0952124 C87.4600638,26.7314915 87.2891845,26.313569 86.9252618,26.1602357 C86.5620541,26.0076155 86.1430783,26.1766388 85.9893585,26.5396465 C85.7405469,27.1237395 85.5467884,27.7292279 85.4159478,28.3354295 C85.3930686,28.4431194 85.3952135,28.5500961 85.4188077,28.6513674 C85.4802957,28.9102512 85.6847787,29.1242047 85.9636193,29.1848248 C86.3489913,29.2675535 86.7300734,29.0222202 86.8130106,28.6378171" id="Fill-108" fill="#FB7000"></path>
                        <path d="M105.144705,46.9770543 C105.350618,45.4287442 106.013401,43.8804341 107.115894,42.3770543 C107.348261,42.0589767 107.278908,41.6132403 106.960029,41.380031 C106.64115,41.1475349 106.19429,41.2174264 105.961208,41.5355039 C104.71572,43.2342946 103.96428,45.0015504 103.726908,46.7894884 C103.714754,46.8779225 103.719758,46.9649302 103.739063,47.0476589 C103.805556,47.3272248 104.038638,47.5497364 104.341787,47.5903876 C104.732879,47.6424496 105.092512,47.3671628 105.144705,46.9770543" id="Fill-110" fill="#FB7000"></path>
                        <path d="M107.919455,34.2749922 C107.91302,34.5609767 107.737136,34.8312713 107.448286,34.933969 C106.342218,35.3262171 105.009503,36.2583411 104.52618,37.4593333 C104.37961,37.8244806 103.962779,38.002062 103.595996,37.8551473 C103.372209,37.766 103.218489,37.574155 103.167011,37.3559225 C103.134837,37.2182791 103.141986,37.0692248 103.199185,36.9265891 C103.852672,35.3062481 105.452788,34.1993953 106.72759,33.6880465" id="Fill-112" fill="#FB7000"></path>
                        <path d="M103.199471,36.9264465 C103.142272,37.068369 103.133693,37.2174233 103.166582,37.356493 C103.21806,37.5740124 103.37178,37.7658574 103.596282,37.8550047 C103.96235,38.0012062 104.378466,37.8250512 104.525751,37.4591907 C105.009789,36.2589116 106.342504,35.3260744 107.447857,34.9338264 C107.736707,34.8311287 107.913306,34.5615473 107.919741,34.2748496 C107.537944,34.0830047 107.143992,33.8868806 106.728591,33.6871907 C105.452359,34.1992527 103.852243,35.3068186 103.199471,36.9264465" id="Fill-114" fill="#FB7000"></path>
                        <path d="M96.2117256,42.6255969 C96.1137739,41.2634264 96.3990493,39.3792093 97.5401507,38.0926357 C97.8018319,37.7973798 98.2536966,37.7695659 98.5504116,38.0313023 C98.8456966,38.2908992 98.8728657,38.7423411 98.6111845,39.0383101 C97.7532135,40.006093 97.5129816,41.6128837 97.6566918,42.7746512 C97.6960155,43.0863101 97.5222763,43.3680155 97.2541604,43.497814" id="Fill-116" fill="#FB7000"></path>
                        <path d="M97.6570493,42.775293 C97.5133391,41.6128124 97.752856,40.0060217 98.611542,39.0389519 C98.8732232,38.7436961 98.8460541,38.2915411 98.5500541,38.0319442 C98.2547691,37.7694946 97.8021894,37.7980217 97.5405082,38.0932775 C96.3986918,39.3798512 96.1141314,41.2640682 96.2120831,42.6262388 C96.5645662,42.9236341 96.9106145,43.2146109 97.2538029,43.4984558 C97.5226338,43.3686574 97.6963729,43.0869519 97.6570493,42.775293" id="Fill-118" fill="#FB7000"></path>
                        <path d="M99.3293063,30.4632682 C99.3293063,30.7556713 99.1527072,31.0330977 98.8602821,31.1365085 C98.1653256,31.3832682 97.3302338,31.9637953 97.0313739,32.7040744 C96.8840889,33.0685085 96.4679729,33.2460899 96.1004754,33.098462 C95.8766879,33.0086016 95.7236831,32.8188961 95.6722048,32.6006636 C95.6393159,32.4630202 95.6471807,32.3139659 95.7043787,32.1713302 C96.1376541,31.0958574 97.1500599,30.3348961 98.0151807,29.9412217" id="Fill-120" fill="#FB7000"></path>
                        <path d="M95.7048077,32.1716868 C95.6468947,32.3136093 95.63903,32.4626636 95.6719188,32.6017333 C95.7233971,32.8192527 95.8764019,33.0096713 96.1009043,33.0995318 C96.466972,33.2464465 96.8830879,33.0695783 97.0310879,32.704431 C97.3299478,31.9634388 98.1643246,31.384338 98.8599961,31.1375783 C99.1538512,31.0334543 99.3304502,30.7574543 99.3290203,30.4636248 C98.89503,30.2888961 98.4574647,30.1148806 98.0148947,29.9415783 C97.1497739,30.3359659 96.1373681,31.096214 95.7048077,32.1716868" id="Fill-122" fill="#FB7000"></path>
                        <path d="M88.2911517,35.4624341 C88.1910551,34.4917984 88.3755188,33.0654419 89.2313449,32.0997984 C89.494456,31.8052558 89.9448908,31.7774419 90.2416058,32.0377519 C90.5383208,32.2987752 90.5647749,32.7502171 90.3030937,33.0447597 C89.7732966,33.6431163 89.6274415,34.6472713 89.7182435,35.3768527 C89.7668618,35.7683876 89.4887362,36.1242636 89.0969295,36.1720465 C89.0747652,36.1756124 89.0533159,36.1677674 89.0318667,36.1684806" id="Fill-124" fill="#FB7000"></path>
                        <path d="M89.7176,35.3774946 C89.6267981,34.6479132 89.7726531,33.6423318 90.3024502,33.0446884 C90.5648464,32.7501457 90.5376773,32.3001302 90.2402473,32.0376806 C89.9449623,31.7773705 89.4930976,31.8044713 89.2307014,32.1004403 C88.3748754,33.0660837 88.1904116,34.4917271 88.2905082,35.4623628 C88.5357449,35.6977116 88.7824116,35.9330605 89.0305082,36.1684093 C89.0519575,36.1676961 89.0734068,36.1755411 89.095571,36.1726884 C89.4873778,36.1249054 89.7662184,35.7683163 89.7176,35.3774946" id="Fill-126" fill="#FB7000"></path>
                        <path d="M131.633059,43.2990512 C131.892595,42.7256558 133.374025,39.1248186 131.795358,34.8592992 C131.44645,33.9193302 130.841581,33.006462 130.199532,32.0401054 L130.087996,31.8725085 C129.764112,31.3832682 129.392325,30.8761984 128.983358,30.3634233 C120.879107,20.2255938 112.524614,22.6076093 109.308653,24.1017178 C106.179919,25.5558884 103.570257,28.0220589 101.760653,31.2320744 C99.0437449,36.054586 98.8757256,40.0134388 101.26017,42.9959504 C102.244692,44.2290357 103.691088,45.334462 105.558605,46.2808496 C107.654914,47.3427721 110.72645,48.2599194 113.190972,43.9772837 C114.43503,41.8163535 116.555648,40.4691597 119.00873,40.2830202 C121.759243,40.0747721 124.423957,41.4512062 125.873214,43.8489116 C126.056962,44.1527256 126.248576,44.4315783 126.443764,44.6761984 C126.923513,45.2759814 127.669948,45.9834543 128.497175,45.9370977 C129.443088,45.8850357 130.582044,44.9250977 131.633059,43.2990512" id="Fill-128" fill="#FF91AD"></path>
                        <path d="M54.6380251,73.161324 C45.3933874,73.161324 36.4547594,70.1752465 29.4708754,64.7550915 C22.5334647,59.3698822 17.9554744,51.9321457 16.5805758,43.8111845 C16.4332908,42.9439597 16.7157063,42.0624713 17.3520348,41.3963628 C17.9876483,40.7302543 18.914972,40.3479907 19.890199,40.3479907 L142.951842,40.3479907 C143.927784,40.3479907 144.854392,40.7302543 145.490721,41.3963628 C146.126334,42.0624713 146.408035,42.9439597 146.261465,43.8111845 C144.886566,51.9321457 140.309291,59.3705953 133.371165,64.7550915 C126.386566,70.1752465 117.448653,73.161324 108.2033,73.161324 L54.6380251,73.161324 Z" id="Fill-130" fill="#AA9471"></path>
                        <path d="M49.3050203,46.8357023 L17.2490783,46.8357023 C17.6094261,48.1557953 18.0577159,49.4516403 18.5860831,50.7175318 L49.3050203,50.7175318 C50.4911652,50.7175318 51.4528077,49.8488806 51.4528077,48.7769736 C51.4520928,47.7050667 50.4911652,46.8357023 49.3050203,46.8357023" id="Fill-132" fill="#ECB88F"></path>
                        <path d="M41.9510647,55.8667504 L21.2911227,55.8667504 C22.1583884,57.2160837 23.1264657,58.513355 24.1910647,59.7485798 L41.9510647,59.7485798 C43.1372097,59.7485798 44.0988522,58.8806419 44.0988522,57.8080217 C44.0988522,56.7361147 43.1372097,55.8667504 41.9510647,55.8667504" id="Fill-134" fill="#ECB88F"></path>
                        <path d="M117.936124,77.7663163 C117.936124,79.1848279 116.664182,80.3358977 115.094095,80.3358977 L47.7476599,80.3358977 C46.1782879,80.3358977 44.9056309,79.1848279 44.9056309,77.7663163 L44.9056309,75.4541922 C44.9056309,74.0356806 46.1782879,72.885324 47.7476599,72.885324 L115.094095,72.885324 C116.663467,72.885324 117.936124,74.0356806 117.936124,75.4541922 L117.936124,77.7663163 Z" id="Fill-136" fill="#ECB88F"></path>
                    </g>
                </g>
                <g id="Group-17-Copy-15" transform="translate(3.000000, 81.000000)">
                    <g id="x-3" fill-opacity="1" fill="#FFF6EB">
                        <use filter="url(#filter-3)" xlink:href="#text-2"></use>
                        <use xlink:href="#text-2"></use>
                    </g>
                    <g id="SugarCube-Copy" filter="url(#filter-4)" fill-rule="nonzero">
                        <polygon id="Shape" fill="#FFF6EB" points="0 5.57938144 17.4492857 12.2597938 33.9271429 5.3814433 16.4778571 0.024742268"></polygon>
                        <polygon id="Shape" fill="#D4C9BB" points="17.4492857 35.9876289 17.4492857 12.2597938 33.9271429 5.3814433 32.7614286 27.1298969"></polygon>
                        <polygon id="Shape" fill="#EBE0D2" points="0 5.57938144 17.4492857 12.2597938 17.4492857 35.9876289 0.582857143 26.857732"></polygon>
                    </g>
                </g>
            </g>
        </g>
    </g>
</svg>