<?xml version="1.0" encoding="UTF-8"?>
<svg width="118px" height="135px" viewBox="0 0 118 135" version="1.1" xmlns="http://www.w3.org/2000/svg" xmlns:xlink="http://www.w3.org/1999/xlink">
    <!-- Generator: Sketch 42 (36781) - http://www.bohemiancoding.com/sketch -->
    <title>7_sunt_frokost</title>
    <desc>Created with Sketch.</desc>
    <defs>
        <filter x="-50%" y="-50%" width="200%" height="200%" filterUnits="objectBoundingBox" id="filter-1">
            <feOffset dx="-1" dy="2" in="SourceAlpha" result="shadowOffsetOuter1"></feOffset>
            <feGaussianBlur stdDeviation="0.5" in="shadowOffsetOuter1" result="shadowBlurOuter1"></feGaussianBlur>
            <feColorMatrix values="0 0 0 0 0   0 0 0 0 0   0 0 0 0 0  0 0 0 0.5 0" type="matrix" in="shadowBlurOuter1" result="shadowMatrixOuter1"></feColorMatrix>
            <feMerge>
                <feMergeNode in="shadowMatrixOuter1"></feMergeNode>
                <feMergeNode in="SourceGraphic"></feMergeNode>
            </feMerge>
        </filter>
        <polygon id="path-2" points="95.4068903 0.287076023 95.4068903 7.6648538 0.379933523 7.6648538 0.379933523 0.287076023 95.4068903 0.287076023"></polygon>
        <polygon id="path-4" points="95.4068903 0.232573099 95.4068903 7.61035088 0.379933523 7.61035088 0.379933523 0.232573099 95.4068903 0.232573099"></polygon>
        <polygon id="path-6" points="0 100 115.824015 100 115.824015 0 0 0"></polygon>
        <text id="text-8" font-family="RobotoCondensed-Bold, Roboto Condensed" font-size="22" font-style="condensed" font-weight="bold" fill="#FFF6EB">
            <tspan x="44.4213867" y="24">x 6</tspan>
        </text>
        <filter x="-50%" y="-50%" width="200%" height="200%" filterUnits="objectBoundingBox" id="filter-9">
            <feOffset dx="-1" dy="1" in="SourceAlpha" result="shadowOffsetOuter1"></feOffset>
            <feColorMatrix values="0 0 0 0 0   0 0 0 0 0   0 0 0 0 0  0 0 0 0.5 0" type="matrix" in="shadowOffsetOuter1"></feColorMatrix>
        </filter>
        <filter x="-50%" y="-50%" width="200%" height="200%" filterUnits="objectBoundingBox" id="filter-10">
            <feOffset dx="0" dy="1" in="SourceAlpha" result="shadowOffsetOuter1"></feOffset>
            <feGaussianBlur stdDeviation="0.5" in="shadowOffsetOuter1" result="shadowBlurOuter1"></feGaussianBlur>
            <feColorMatrix values="0 0 0 0 0   0 0 0 0 0   0 0 0 0 0  0 0 0 0.5 0" type="matrix" in="shadowBlurOuter1" result="shadowMatrixOuter1"></feColorMatrix>
            <feMerge>
                <feMergeNode in="shadowMatrixOuter1"></feMergeNode>
                <feMergeNode in="SourceGraphic"></feMergeNode>
            </feMerge>
        </filter>
    </defs>
    <g id="Page-1" stroke="none" stroke-width="1" fill="none" fill-rule="evenodd">
        <g id="PINK" transform="translate(-538.000000, -9440.000000)">
            <g id="7_sunt_frokost" transform="translate(540.000000, 9440.000000)">
                <g id="Page-1" filter="url(#filter-1)">
                    <polygon id="Fill-1" fill="#C9CAC9" points="30.3815566 72.7039181 49.3688992 72.7039181 49.3688992 91.1495322 5.6080008 91.1495322 5.6080008 72.7039181"></polygon>
                    <polygon id="Fill-2" fill="#F3F3F3" points="0 0 5.60770913 80.0192982 49.3691908 80.0192982 54.712644 0"></polygon>
                    <g id="Group-42">
                        <path d="M52.8241767,19.4267251 L49.5020188,80.0197076 L5.74053711,80.0197076 L1.88170055,12.9694152 C6.40088526,10.0173684 17.4652168,7.61502924 24.8054648,13.3717544 C29.4944033,17.050117 32.6928917,21.9249708 52.8241767,19.4267251 Z" id="Fill-3" fill="#74DAFF"></path>
                        <g id="Group-7" transform="translate(20.417125, 82.456140)">
                            <mask id="mask-3" fill="white">
                                <use xlink:href="#path-2"></use>
                            </mask>
                            <g id="Clip-6"></g>
                            <path d="M90.5582898,7.6648538 L5.22812562,7.6648538 C2.56164913,7.6648538 0.379933523,6.00461988 0.379933523,3.97596491 C0.379933523,1.94672515 2.56164913,0.287076023 5.22812562,0.287076023 L90.5582898,0.287076023 C93.2247663,0.287076023 95.4070653,1.94672515 95.4070653,3.97596491 C95.4070653,6.00461988 93.2247663,7.6648538 90.5582898,7.6648538" id="Fill-5" fill="#008D00" mask="url(#mask-3)"></path>
                        </g>
                        <g id="Group-10" transform="translate(20.417125, 76.608187)">
                            <mask id="mask-5" fill="white">
                                <use xlink:href="#path-4"></use>
                            </mask>
                            <g id="Clip-9"></g>
                            <path d="M90.5582898,7.61035088 L5.22812562,7.61035088 C2.56164913,7.61035088 0.379933523,5.95070175 0.379933523,3.92146199 C0.379933523,1.89280702 2.56164913,0.232573099 5.22812562,0.232573099 L90.5582898,0.232573099 C93.2247663,0.232573099 95.4070653,1.89280702 95.4070653,3.92146199 C95.4070653,5.95070175 93.2247663,7.61035088 90.5582898,7.61035088" id="Fill-8" fill="#FF89FD" mask="url(#mask-5)"></path>
                        </g>
                        <path d="M46.5862784,73.8895322 C47.4338808,74.5620468 47.947809,75.3076608 47.947809,76.1029825 C47.947809,77.307076 46.8557845,78.4123392 45.0386604,79.290117 C47.5248828,80.4930409 51.3726358,81.2673099 55.7051496,81.2673099 C63.2023178,81.2673099 69.2802042,78.9550292 69.2802042,76.1029825 C69.2802042,75.3088304 68.7954433,74.5608772 67.9560078,73.8895322 L46.5862784,73.8895322 Z" id="Fill-11" fill="#00A500"></path>
                        <path d="M45.9373639,73.6842105 C46.7487987,74.2707602 47.2405598,74.9204678 47.2405598,75.6140351 C47.2405598,76.6637427 46.195203,77.6274854 44.4550806,78.3929825 C46.8357173,79.4415205 50.5201333,80.1169591 54.6688931,80.1169591 C61.8481374,80.1169591 67.6681847,78.1011696 67.6681847,75.6140351 C67.6681847,74.9216374 67.2038409,74.2695906 66.3999896,73.6842105 L45.9373639,73.6842105 Z" id="Fill-13" fill="#AFEBA7"></path>
                        <path d="M33.402591,73.8895322 C28.069638,73.8895322 28.7795706,72.4023977 28.5543989,70.938655 C23.4308673,71.6778363 20.7970582,73.8953801 20.7970582,76.1029825 C20.7970582,78.9550292 26.8749446,81.2673099 34.3726961,81.2673099 C41.8698643,81.2673099 47.9477506,78.9550292 47.9477506,76.1029825 C47.9477506,75.3088304 47.4629897,74.5608772 46.6235542,73.8895322 L33.402591,73.8895322 Z" id="Fill-15" fill="#FF3C2D"></path>
                        <mask id="mask-7" fill="white">
                            <use xlink:href="#path-6"></use>
                        </mask>
                        <g id="Clip-18"></g>
                        <polygon id="Fill-17" fill="#B8945E" mask="url(#mask-7)" points="26.6151804 73.8894737 108.066674 73.8894737 108.066674 65.0356725 26.6151804 65.0356725"></polygon>
                        <polygon id="Fill-19" fill="#FFD58E" mask="url(#mask-7)" points="108.066616 65.0359064 26.6151221 65.0359064 67.340869 34.0487719"></polygon>
                        <path d="M108.066616,73.2093567 L108.066616,73.8883041 L90.2115487,73.8883041 C89.984627,73.9707602 89.7728722,74.0561404 89.5675343,74.1450292 C90.2226323,74.7497076 90.6128911,75.4064327 90.6128911,76.102924 C90.6128911,77.1538012 89.7827891,78.1304094 88.3652573,78.9461988 C90.6613088,80.328655 95.1484095,81.2672515 100.309275,81.2672515 C107.807027,81.2672515 113.884913,79.2859649 113.884913,76.8403509 C113.884913,75.3368421 111.580111,74.0105263 108.066616,73.2093567" id="Fill-20" fill="#00A500" mask="url(#mask-7)"></path>
                        <path d="M86.7340457,57.6580117 C87.8050697,57.6580117 88.6730892,58.3188304 88.6730892,59.1334503 C88.6730892,59.948655 87.8050697,60.6088889 86.7340457,60.6088889 C85.6630217,60.6088889 84.7950022,59.948655 84.7950022,59.1334503 C84.7950022,58.3188304 85.6630217,57.6580117 86.7340457,57.6580117" id="Fill-21" fill="#C1A17C" mask="url(#mask-7)"></path>
                        <path d="M65.4014755,44.3776023 C66.4724995,44.3776023 67.340519,45.0384211 67.340519,45.8530409 C67.340519,46.6682456 66.4724995,47.3290643 65.4014755,47.3290643 C64.3304515,47.3290643 63.462432,46.6682456 63.462432,45.8530409 C63.462432,45.0384211 64.3304515,44.3776023 65.4014755,44.3776023" id="Fill-22" fill="#C1A17C" mask="url(#mask-7)"></path>
                        <path d="M47.9477506,57.6580117 C49.0187746,57.6580117 49.8867941,58.3188304 49.8867941,59.1334503 C49.8867941,59.948655 49.0187746,60.6088889 47.9477506,60.6088889 C46.8767266,60.6088889 46.0081238,59.948655 46.0081238,59.1334503 C46.0081238,58.3188304 46.8767266,57.6580117 47.9477506,57.6580117" id="Fill-23" fill="#C1A17C" mask="url(#mask-7)"></path>
                        <path d="M73.1586995,53.2312281 C74.2297235,53.2312281 75.097743,53.8920468 75.097743,54.7066667 C75.097743,55.5218713 74.2297235,56.1821053 73.1586995,56.1821053 C72.0876755,56.1821053 71.219656,55.5218713 71.219656,54.7066667 C71.219656,53.8920468 72.0876755,53.2312281 73.1586995,53.2312281" id="Fill-24" fill="#C1A17C" mask="url(#mask-7)"></path>
                        <path d="M61.5230968,54.7069006 C62.5941208,54.7069006 63.4621403,55.3671345 63.4621403,56.1823392 C63.4621403,56.9975439 62.5941208,57.6577778 61.5230968,57.6577778 C60.4514894,57.6577778 59.58347,56.9975439 59.58347,56.1823392 C59.58347,55.3671345 60.4514894,54.7069006 61.5230968,54.7069006" id="Fill-25" fill="#C1A17C" mask="url(#mask-7)"></path>
                        <polygon id="Fill-26" fill="#FFD58E" mask="url(#mask-7)" points="23.1711031 100 111.945345 100 111.945345 90.1210526 23.1711031 90.1210526"></polygon>
                        <path d="M80.9159819,91.5964327 C81.9870059,91.5964327 82.8550254,92.2572515 82.8550254,93.0718713 C82.8550254,93.887076 81.9870059,94.5478947 80.9159819,94.5478947 C79.8449578,94.5478947 78.9769384,93.887076 78.9769384,93.0718713 C78.9769384,92.2572515 79.8449578,91.5964327 80.9159819,91.5964327" id="Fill-27" fill="#C1A17C" mask="url(#mask-7)"></path>
                        <path d="M96.4304882,94.5478363 C97.5015123,94.5478363 98.3701151,95.2080702 98.3701151,96.0232749 C98.3701151,96.8384795 97.5015123,97.4987135 96.4304882,97.4987135 C95.3594642,97.4987135 94.4914447,96.8384795 94.4914447,96.0232749 C94.4914447,95.2080702 95.3594642,94.5478363 96.4304882,94.5478363" id="Fill-28" fill="#C1A17C" mask="url(#mask-7)"></path>
                        <path d="M34.3724627,94.5478363 C35.4434868,94.5478363 36.3115062,95.2080702 36.3115062,96.0232749 C36.3115062,96.8384795 35.4434868,97.4987135 34.3724627,97.4987135 C33.3014387,97.4987135 32.4328359,96.8384795 32.4328359,96.0232749 C32.4328359,95.2080702 33.3014387,94.5478363 34.3724627,94.5478363" id="Fill-29" fill="#C1A17C" mask="url(#mask-7)"></path>
                        <path d="M67.3406357,94.5478363 C68.4116597,94.5478363 69.2802625,95.2080702 69.2802625,96.0232749 C69.2802625,96.8384795 68.4116597,97.4987135 67.3406357,97.4987135 C66.2696116,97.4987135 65.4015922,96.8384795 65.4015922,96.0232749 C65.4015922,95.2080702 66.2696116,94.5478363 67.3406357,94.5478363" id="Fill-30" fill="#C1A17C" mask="url(#mask-7)"></path>
                        <path d="M49.8869691,91.5964327 C50.9579931,91.5964327 51.8260126,92.2572515 51.8260126,93.0718713 C51.8260126,93.887076 50.9579931,94.5478947 49.8869691,94.5478947 C48.8159451,94.5478947 47.9479256,93.887076 47.9479256,93.0718713 C47.9479256,92.2572515 48.8159451,91.5964327 49.8869691,91.5964327" id="Fill-31" fill="#C1A17C" mask="url(#mask-7)"></path>
                        <path d="M90.8174707,73.6842105 C91.6084884,74.2175439 92.0885825,74.8081871 92.0885825,75.4385965 C92.0885825,76.3929825 91.0694763,77.2690058 89.3725216,77.9649123 C91.693657,78.9181287 95.2853209,79.5321637 99.330245,79.5321637 C106.328652,79.5321637 112.002279,77.6994152 112.002279,75.4385965 C112.002279,74.8093567 111.550186,74.2163743 110.765585,73.6842105 L90.8174707,73.6842105 Z" id="Fill-32" fill="#AFEBA7" mask="url(#mask-7)"></path>
                        <path d="M67.9324989,73.8895322 C68.7795179,74.5608772 69.2806125,75.3076608 69.2806125,76.1029825 C69.2806125,77.0737427 68.5642631,77.9766667 67.3404023,78.7526901 C69.7128722,80.2567836 74.0296357,81.2673099 78.9769967,81.2673099 C86.4741649,81.2673099 92.5520512,78.9550292 92.5520512,76.1029825 C92.5520512,75.3088304 92.0672904,74.5608772 91.2278549,73.8895322 L67.9324989,73.8895322 Z" id="Fill-33" fill="#FF3C2D" mask="url(#mask-7)"></path>
                        <path d="M51.0046609,75.2018713 C51.5086722,75.2018713 51.917598,75.5164912 51.917598,75.9047953 C51.917598,76.2930994 51.5086722,76.6083041 51.0046609,76.6083041 C50.5006496,76.6083041 50.0917237,76.2930994 50.0917237,75.9047953 C50.0917237,75.5164912 50.5006496,75.2018713 51.0046609,75.2018713" id="Fill-34" fill="#ECE8E5" mask="url(#mask-7)"></path>
                        <path d="M53.921393,76.9562573 C54.4254043,76.9562573 54.8343301,77.2708772 54.8343301,77.6591813 C54.8343301,78.0474854 54.4254043,78.3626901 53.921393,78.3626901 C53.4173817,78.3626901 53.0084558,78.0474854 53.0084558,77.6591813 C53.0084558,77.2708772 53.4173817,76.9562573 53.921393,76.9562573" id="Fill-35" fill="#ECE8E5" mask="url(#mask-7)"></path>
                        <path d="M57.4214715,74.0322807 C57.9254828,74.0322807 58.3344086,74.3469006 58.3344086,74.7352047 C58.3344086,75.1235088 57.9254828,75.4387135 57.4214715,75.4387135 C56.9174602,75.4387135 56.5085343,75.1235088 56.5085343,74.7352047 C56.5085343,74.3469006 56.9174602,74.0322807 57.4214715,74.0322807" id="Fill-36" fill="#ECE8E5" mask="url(#mask-7)"></path>
                        <path d="M60.92155,75.7866667 C61.4255613,75.7866667 61.8344871,76.1012865 61.8344871,76.4895906 C61.8344871,76.8778947 61.4255613,77.1930994 60.92155,77.1930994 C60.4175387,77.1930994 60.0086128,76.8778947 60.0086128,76.4895906 C60.0086128,76.1012865 60.4175387,75.7866667 60.92155,75.7866667" id="Fill-37" fill="#ECE8E5" mask="url(#mask-7)"></path>
                        <path d="M95.3389887,75.2018713 C95.8430001,75.2018713 96.2519259,75.5164912 96.2519259,75.9047953 C96.2519259,76.2930994 95.8430001,76.6083041 95.3389887,76.6083041 C94.8349774,76.6083041 94.4260516,76.2930994 94.4260516,75.9047953 C94.4260516,75.5164912 94.8349774,75.2018713 95.3389887,75.2018713" id="Fill-38" fill="#ECE8E5" mask="url(#mask-7)"></path>
                        <path d="M100.00576,77.5410526 C100.509771,77.5410526 100.918697,77.8556725 100.918697,78.2439766 C100.918697,78.6322807 100.509771,78.9474854 100.00576,78.9474854 C99.5017488,78.9474854 99.092823,78.6322807 99.092823,78.2439766 C99.092823,77.8556725 99.5017488,77.5410526 100.00576,77.5410526" id="Fill-39" fill="#ECE8E5" mask="url(#mask-7)"></path>
                        <path d="M101.172453,74.617076 C101.676464,74.617076 102.08539,74.9316959 102.08539,75.32 C102.08539,75.7083041 101.676464,76.0235088 101.172453,76.0235088 C100.668442,76.0235088 100.259516,75.7083041 100.259516,75.32 C100.259516,74.9316959 100.668442,74.617076 101.172453,74.617076" id="Fill-40" fill="#ECE8E5" mask="url(#mask-7)"></path>
                        <path d="M105.255878,76.371462 C105.759889,76.371462 106.168815,76.6860819 106.168815,77.074386 C106.168815,77.4626901 105.759889,77.7778947 105.255878,77.7778947 C104.751867,77.7778947 104.342941,77.4626901 104.342941,77.074386 C104.342941,76.6860819 104.751867,76.371462 105.255878,76.371462" id="Fill-41" fill="#ECE8E5" mask="url(#mask-7)"></path>
                    </g>
                </g>
                <g id="Group-17-Copy-4" transform="translate(0.000000, 97.000000)">
                    <g id="x-6" fill-opacity="1" fill="#FFF6EB">
                        <use filter="url(#filter-9)" xlink:href="#text-8"></use>
                        <use xlink:href="#text-8"></use>
                    </g>
                    <g id="SugarCube-Copy" filter="url(#filter-10)" fill-rule="nonzero">
                        <polygon id="Shape" fill="#FFF6EB" points="0 5.57938144 17.4492857 12.2597938 33.9271429 5.3814433 16.4778571 0.024742268"></polygon>
                        <polygon id="Shape" fill="#D4C9BB" points="17.4492857 35.9876289 17.4492857 12.2597938 33.9271429 5.3814433 32.7614286 27.1298969"></polygon>
                        <polygon id="Shape" fill="#EBE0D2" points="0 5.57938144 17.4492857 12.2597938 17.4492857 35.9876289 0.582857143 26.857732"></polygon>
                    </g>
                </g>
            </g>
        </g>
    </g>
</svg>