<?xml version="1.0" encoding="UTF-8"?>
<svg width="127px" height="133px" viewBox="0 0 127 133" version="1.1" xmlns="http://www.w3.org/2000/svg" xmlns:xlink="http://www.w3.org/1999/xlink">
    <!-- Generator: Sketch 42 (36781) - http://www.bohemiancoding.com/sketch -->
    <title>7_sunt_lunsj</title>
    <desc>Created with Sketch.</desc>
    <defs>
        <filter x="-50%" y="-50%" width="200%" height="200%" filterUnits="objectBoundingBox" id="filter-1">
            <feOffset dx="-1" dy="2" in="SourceAlpha" result="shadowOffsetOuter1"></feOffset>
            <feGaussianBlur stdDeviation="0.5" in="shadowOffsetOuter1" result="shadowBlurOuter1"></feGaussianBlur>
            <feColorMatrix values="0 0 0 0 0   0 0 0 0 0   0 0 0 0 0  0 0 0 0.5 0" type="matrix" in="shadowBlurOuter1" result="shadowMatrixOuter1"></feColorMatrix>
            <feMerge>
                <feMergeNode in="shadowMatrixOuter1"></feMergeNode>
                <feMergeNode in="SourceGraphic"></feMergeNode>
            </feMerge>
        </filter>
        <polygon id="path-2" points="0.50622392 6.87359279 64.5643707 6.87359279 64.5643707 0.345866692 0.50622392 0.345866692"></polygon>
        <polygon id="path-4" points="13.5002243 6.87359279 0.507227337 6.87359279 0.507227337 0.345866692 13.5002243 0.345866692"></polygon>
        <text id="text-6" font-family="RobotoCondensed-Bold, Roboto Condensed" font-size="22" font-style="condensed" font-weight="bold" fill="#FFF6EB">
            <tspan x="44.215332" y="24">x 1/2</tspan>
        </text>
        <filter x="-50%" y="-50%" width="200%" height="200%" filterUnits="objectBoundingBox" id="filter-7">
            <feOffset dx="-1" dy="1" in="SourceAlpha" result="shadowOffsetOuter1"></feOffset>
            <feColorMatrix values="0 0 0 0 0   0 0 0 0 0   0 0 0 0 0  0 0 0 0.5 0" type="matrix" in="shadowOffsetOuter1"></feColorMatrix>
        </filter>
        <filter x="-50%" y="-50%" width="200%" height="200%" filterUnits="objectBoundingBox" id="filter-8">
            <feOffset dx="0" dy="1" in="SourceAlpha" result="shadowOffsetOuter1"></feOffset>
            <feGaussianBlur stdDeviation="0.5" in="shadowOffsetOuter1" result="shadowBlurOuter1"></feGaussianBlur>
            <feColorMatrix values="0 0 0 0 0   0 0 0 0 0   0 0 0 0 0  0 0 0 0.5 0" type="matrix" in="shadowBlurOuter1" result="shadowMatrixOuter1"></feColorMatrix>
            <feMerge>
                <feMergeNode in="shadowMatrixOuter1"></feMergeNode>
                <feMergeNode in="SourceGraphic"></feMergeNode>
            </feMerge>
        </filter>
    </defs>
    <g id="Page-1" stroke="none" stroke-width="1" fill="none" fill-rule="evenodd">
        <g id="PINK" transform="translate(-538.000000, -9675.000000)">
            <g id="7_sunt_lunsj" transform="translate(540.000000, 9675.000000)">
                <g id="Page-1" filter="url(#filter-1)">
                    <polygon id="Fill-1" fill="#C9CAC9" points="35.069678 83.4131106 56.9880699 83.4131106 56.9880699 104.575653 6.47354533 104.575653 6.47354533 83.4131106"></polygon>
                    <polygon id="Fill-2" fill="#F3F3F3" points="0 -6.24872064e-05 6.47329447 91.8067672 56.9878191 91.8067672 63.1563256 -6.24872064e-05"></polygon>
                    <g id="Group-41" transform="translate(1.881407, 11.247697)">
                        <path d="M59.0946814,11.0405522 L55.2591196,80.5581951 L4.74459497,80.5581951 L0.290677387,3.63269379 C5.50719196,0.245262288 18.2794372,-2.51104842 26.7520402,4.09384938 C32.1642211,8.31361048 35.8561688,13.9068404 59.0946814,11.0405522" id="Fill-3" fill="#74DAFF"></path>
                        <path d="M97.2556366,53.3008379 C92.2178557,57.8255365 84.0205652,57.8255365 78.9827843,53.3008379 C77.8363803,52.2710487 77.8363803,50.6007657 78.9827843,49.5709765 L93.1027441,36.887948 C94.2491481,35.8581589 96.1092326,35.8581589 97.2550094,36.887948 C102.29279,41.4132716 102.294045,48.7767641 97.2556366,53.3008379" id="Fill-5" fill="#DF440A"></path>
                        <path d="M82.6238714,38.6529617 C89.4151236,42.0922576 91.5762332,50.0768729 87.4415276,56.4524427 C86.500197,57.9040205 84.4839558,58.4451597 82.9380663,57.662195 L63.9019899,48.0229184 C62.3567276,47.2393288 61.8663075,45.4284496 62.8076382,43.9774966 C66.9429709,37.6019269 75.8326191,35.2130409 82.6238714,38.6529617" id="Fill-7" fill="#FFF8A9"></path>
                        <path d="M45.1225375,39.471919 C52.7403546,39.4394257 58.3243707,45.5587979 57.5686722,53.1122515 C57.396837,54.8318994 55.8515747,56.2316129 54.1175445,56.2384865 L32.7648289,56.3290929 C31.0301717,56.3353416 29.7639847,54.9481256 29.9358199,53.2284777 C30.6915184,45.675649 37.5047204,39.5037875 45.1225375,39.471919" id="Fill-9" fill="#F6FF9D"></path>
                        <path d="M41.3958464,47.2235821 C39.6185439,45.6107872 36.6797861,45.3795846 33.4544273,46.3156429 C34.4866927,43.3874924 34.2327027,40.7217881 32.4541459,39.1083685 C30.4554645,37.29374 26.9886585,37.2287533 23.2954565,38.6053464 C19.8938726,36.4614104 15.1884736,36.7632236 12.1568997,39.5139104 C9.12532583,42.2652222 8.79357106,46.5362228 11.155364,49.6237157 C9.63832281,52.9755295 9.71044342,56.1217604 11.709752,57.9363888 C13.4876816,59.5498085 16.4251851,59.7803863 19.6511711,58.844328 C18.6195329,61.7718536 18.8735228,64.4381828 20.6514525,66.0516024 C22.428755,67.6650221 25.3668856,67.8955999 28.5928716,66.9595416 C27.5606062,69.8870672 27.8152233,72.5533964 29.593153,74.166816 C32.9019208,77.1699512 40.2281198,75.3896907 45.9557499,70.1901302 C51.6840072,64.9911945 53.6463148,58.3419308 50.3375469,55.3394205 C48.5602444,53.725376 45.6221138,53.4947982 42.3961278,54.4308565 C43.427766,51.5039557 43.1731489,48.8370017 41.3958464,47.2235821" id="Fill-11" fill="#3D9E24"></path>
                        <path d="M34.808476,61.7769151 C34.3237001,61.7769151 33.8395514,61.6094494 33.4707956,61.2745179 L17.5359051,46.8124787 C16.8009021,46.1451153 16.8040378,45.0665861 17.5428036,44.4023471 C18.2821966,43.7393579 19.4775172,43.7418574 20.2125202,44.4085959 L36.1474107,58.87126 C36.8824137,59.5386233 36.879278,60.6177774 36.139885,61.2807667 C35.7711292,61.611324 35.2901162,61.7769151 34.808476,61.7769151" id="Fill-13" fill="#67C24D"></path>
                        <path d="M111.317837,71.4959878 C113.162243,69.8400768 113.42564,67.1012626 112.35512,64.0943781 C115.70277,65.0560563 118.751276,64.8192297 120.595055,63.1626939 C122.670247,61.2999502 122.744876,58.0693616 121.170766,54.6263165 C123.620985,51.4563405 123.276687,47.0703634 120.131602,44.2453168 C116.986517,41.4196453 112.103638,41.1103336 108.574119,43.3117579 C104.741692,41.8976724 101.144442,41.9651586 99.0711317,43.8285271 C97.2260985,45.485063 96.9620744,48.2238773 98.0332221,51.2301368 C94.6855719,50.2684587 91.6370653,50.5052852 89.7926593,52.1624459 C87.9482533,53.8189818 87.6842291,56.5571712 88.7547497,59.5634307 C85.4083538,58.6023775 82.3592201,58.839204 80.5154412,60.4957399 C77.0818734,63.5801084 79.1169286,70.4080856 85.0615477,75.7463677 C91.0049126,81.0852746 98.6070513,82.9136503 102.039365,79.8299067 C103.883771,78.1733708 104.147795,75.4358062 103.077274,72.428297 C106.424297,73.3899751 109.472804,73.1525237 111.317837,71.4959878" id="Fill-15" fill="#3D9E24"></path>
                        <path d="M96.6285009,67.1541892 C96.1173853,67.1541892 95.6056426,66.9779753 95.2168185,66.6242977 C94.4416788,65.9206917 94.4448145,64.7827997 95.2243441,64.082943 L111.758149,49.2309836 C112.537052,48.5311269 113.797594,48.5342512 114.572734,49.2378572 C115.349128,49.9414631 115.345365,51.0793552 114.566463,51.7798368 L98.0320306,66.6305464 C97.6438336,66.9798499 97.1358537,67.1541892 96.6285009,67.1541892" id="Fill-17" fill="#67C24D"></path>
                        <path d="M76.8535333,48.3598494 C74.9740076,46.6714451 71.8665504,46.4296196 68.4549323,47.409419 C69.5467755,44.3450464 69.2777343,41.5543677 67.3975815,39.8659634 C65.2835071,37.967602 61.617272,37.8988661 57.711471,39.3398211 C54.1142207,37.0959055 49.1378991,37.4114659 45.9319815,40.2908764 C42.7260639,43.1702869 42.3748679,47.6406217 44.8733765,50.8718352 C43.2685363,54.3804918 43.3450468,57.6723179 45.4591212,59.5713041 C47.339274,61.2603333 50.4467313,61.501534 53.8577222,60.5217346 C52.7665061,63.5861072 53.0355473,66.3767859 54.9157001,68.0651902 C56.7958529,69.7535945 59.902683,69.99542 63.3143011,69.0156206 C62.223085,72.0806181 62.4921262,74.8712968 64.372279,76.5597012 C67.8710689,79.7028077 75.618076,77.8394392 81.6755795,72.3980532 C87.7343373,66.9560423 89.808275,59.9962171 86.309485,56.8543604 C84.4299594,55.165956 81.3231292,54.9241305 77.9115112,55.9039299 C79.0027272,52.8389324 78.7330589,50.0482538 76.8535333,48.3598494" id="Fill-19" fill="#67C24D"></path>
                        <path d="M69.8870593,63.5123723 C69.4054191,63.5123723 68.924406,63.3467812 68.5556503,63.0162239 L51.7045146,47.8793228 C50.9657487,47.2157087 50.9619859,46.1365546 51.6976161,45.4698161 C52.4332462,44.8030776 53.6279397,44.7999532 54.3673327,45.4635674 L71.2184683,60.6004684 C71.9572342,61.2640826 71.960997,62.3432366 71.2253668,63.0099751 C70.8566111,63.3442817 70.3718352,63.5123723 69.8870593,63.5123723" id="Fill-21" fill="#3D9E24"></path>
                        <path d="M24.0758014,62.4139722 C25.1525934,63.3806493 25.1525934,64.9490782 24.0758014,65.9157553 L19.3979964,70.1173951 C18.3212044,71.084697 16.5758858,71.0840722 15.4990939,70.1173951 L10.8212888,65.9157553 C9.74449688,64.9490782 9.74449688,63.3806493 10.8212888,62.4139722 L15.4990939,58.2117075 C16.576513,57.2444055 18.3212044,57.2450304 19.3979964,58.2117075 L24.0758014,62.4139722 Z" id="Fill-23" fill="#F6FF9D"></path>
                        <path d="M47.1306886,59.195631 C53.774564,57.837784 60.841756,61.9756869 62.8843369,68.4206174 C63.3490444,69.8871922 62.5005298,71.3268974 60.9878786,71.6355843 L42.3657118,75.4429298 C40.8530605,75.7522415 39.2501017,74.8130587 38.784767,73.346484 C36.7428133,66.9021783 40.4861861,60.5534781 47.1306886,59.195631" id="Fill-25" fill="#DF440A"></path>
                        <path d="M95.674314,60.785868 C96.9630778,61.9437559 96.9630778,63.8196219 95.674314,64.9775098 L90.0739924,70.00773 C88.7858557,71.1649931 86.6962396,71.1643682 85.4074758,70.00773 L79.8071542,64.9775098 C78.5190175,63.8196219 78.5190175,61.9431311 79.8071542,60.785868 L85.4074758,55.7556478 C86.6968667,54.5983847 88.7858557,54.5990096 90.0739924,55.7556478 L95.674314,60.785868 Z" id="Fill-27" fill="#F6FF9D"></path>
                        <path d="M41.0271534,94.3184405 C32.9176619,94.3184405 25.0778388,91.7021011 18.9519775,86.9530733 C12.8662529,82.2346643 8.85070312,75.7178735 7.64534834,68.6024552 C7.51615839,67.8426108 7.76324985,67.0702689 8.3214006,66.4866384 C8.87955136,65.9030079 9.6923192,65.5680764 10.5483594,65.5680764 L118.490952,65.5680764 C119.346993,65.5680764 120.15976,65.9030079 120.717284,66.4866384 C121.275435,67.0702689 121.522526,67.8426108 121.393336,68.6024552 C120.187982,75.7178735 116.172432,82.2352892 110.086707,86.9530733 C103.960846,91.7021011 96.1210227,94.3184405 88.0115313,94.3184405 L41.0271534,94.3184405 Z" id="Fill-29" fill="#AA9471"></path>
                        <path d="M36.3493483,71.2524752 L8.23109307,71.2524752 C8.54716945,72.4091134 8.94038352,73.5445059 9.40446392,74.6536539 L36.3493483,74.6536539 C37.3897664,74.6536539 38.2332639,73.8925597 38.2332639,72.953377 C38.2326368,72.0141942 37.3897664,71.2524752 36.3493483,71.2524752" id="Fill-31" fill="#ECB88F"></path>
                        <path d="M29.898568,79.1652927 L11.7768555,79.1652927 C12.5375711,80.3475507 13.3867128,81.484193 14.3205178,82.5664714 L29.898568,82.5664714 C30.9389861,82.5664714 31.7824836,81.8060021 31.7824836,80.8661945 C31.7824836,79.9270118 30.9389861,79.1652927 29.898568,79.1652927" id="Fill-33" fill="#ECB88F"></path>
                        <g id="Group-37" transform="translate(31.983920, 93.730811)">
                            <mask id="mask-3" fill="white">
                                <use xlink:href="#path-2"></use>
                            </mask>
                            <g id="Clip-36"></g>
                            <path d="M64.5643707,4.62249115 C64.5643707,5.8653617 63.4486963,6.87390523 62.0715063,6.87390523 L2.99908824,6.87390523 C1.62252543,6.87390523 0.50622392,5.8653617 0.50622392,4.62249115 L0.50622392,2.59665589 C0.50622392,1.35378534 1.62252543,0.345866692 2.99908824,0.345866692 L62.0715063,0.345866692 C63.4480691,0.345866692 64.5643707,1.35378534 64.5643707,2.59665589 L64.5643707,4.62249115 Z" id="Fill-35" fill="#ECB88F" mask="url(#mask-3)"></path>
                        </g>
                        <g id="Group-40" transform="translate(31.983920, 93.730811)">
                            <mask id="mask-5" fill="white">
                                <use xlink:href="#path-4"></use>
                            </mask>
                            <g id="Clip-39"></g>
                            <path d="M11.00736,4.62249115 L11.00736,2.59665589 C11.00736,1.35378534 12.1230344,0.345866692 13.5002243,0.345866692 L2.99946452,0.345866692 C1.62352884,0.345866692 0.507227337,1.35378534 0.507227337,2.59665589 L0.507227337,4.62249115 C0.507227337,5.8653617 1.62290171,6.87390523 2.99946452,6.87390523 L13.5002243,6.87390523 C12.1230344,6.87390523 11.00736,5.8653617 11.00736,4.62249115" id="Fill-38" fill="#000000" mask="url(#mask-5)"></path>
                        </g>
                    </g>
                </g>
                <g id="Group-17-Copy-11" transform="translate(0.000000, 95.000000)">
                    <g id="x-1/2" fill-opacity="1" fill="#FFF6EB">
                        <use filter="url(#filter-7)" xlink:href="#text-6"></use>
                        <use xlink:href="#text-6"></use>
                    </g>
                    <g id="SugarCube-Copy" filter="url(#filter-8)" fill-rule="nonzero">
                        <polygon id="Shape" fill="#FFF6EB" points="0 5.57938144 17.4492857 12.2597938 33.9271429 5.3814433 16.4778571 0.024742268"></polygon>
                        <polygon id="Shape" fill="#D4C9BB" points="17.4492857 35.9876289 17.4492857 12.2597938 33.9271429 5.3814433 32.7614286 27.1298969"></polygon>
                        <polygon id="Shape" fill="#EBE0D2" points="0 5.57938144 17.4492857 12.2597938 17.4492857 35.9876289 0.582857143 26.857732"></polygon>
                    </g>
                </g>
            </g>
        </g>
    </g>
</svg>