<?xml version="1.0" encoding="UTF-8"?>
<svg width="140px" height="133px" viewBox="0 0 140 133" version="1.1" xmlns="http://www.w3.org/2000/svg" xmlns:xlink="http://www.w3.org/1999/xlink">
    <!-- Generator: Sketch 42 (36781) - http://www.bohemiancoding.com/sketch -->
    <title>7_usunt_lunsj</title>
    <desc>Created with Sketch.</desc>
    <defs>
        <filter x="-50%" y="-50%" width="200%" height="200%" filterUnits="objectBoundingBox" id="filter-1">
            <feOffset dx="-1" dy="2" in="SourceAlpha" result="shadowOffsetOuter1"></feOffset>
            <feGaussianBlur stdDeviation="0.5" in="shadowOffsetOuter1" result="shadowBlurOuter1"></feGaussianBlur>
            <feColorMatrix values="0 0 0 0 0   0 0 0 0 0   0 0 0 0 0  0 0 0 0.5 0" type="matrix" in="shadowBlurOuter1" result="shadowMatrixOuter1"></feColorMatrix>
            <feMerge>
                <feMergeNode in="shadowMatrixOuter1"></feMergeNode>
                <feMergeNode in="SourceGraphic"></feMergeNode>
            </feMerge>
        </filter>
        <polygon id="path-2" points="112.982741 0.235157312 112.982741 12.8370101 0.555798739 12.8370101 0.555798739 0.235157312 112.982741 0.235157312"></polygon>
        <text id="text-4" font-family="RobotoCondensed-Bold, Roboto Condensed" font-size="22" font-style="condensed" font-weight="bold" fill="#FFF6EB">
            <tspan x="44.3569336" y="24">x 16</tspan>
        </text>
        <filter x="-50%" y="-50%" width="200%" height="200%" filterUnits="objectBoundingBox" id="filter-5">
            <feOffset dx="-1" dy="1" in="SourceAlpha" result="shadowOffsetOuter1"></feOffset>
            <feColorMatrix values="0 0 0 0 0   0 0 0 0 0   0 0 0 0 0  0 0 0 0.5 0" type="matrix" in="shadowOffsetOuter1"></feColorMatrix>
        </filter>
        <filter x="-50%" y="-50%" width="200%" height="200%" filterUnits="objectBoundingBox" id="filter-6">
            <feOffset dx="0" dy="1" in="SourceAlpha" result="shadowOffsetOuter1"></feOffset>
            <feGaussianBlur stdDeviation="0.5" in="shadowOffsetOuter1" result="shadowBlurOuter1"></feGaussianBlur>
            <feColorMatrix values="0 0 0 0 0   0 0 0 0 0   0 0 0 0 0  0 0 0 0.5 0" type="matrix" in="shadowBlurOuter1" result="shadowMatrixOuter1"></feColorMatrix>
            <feMerge>
                <feMergeNode in="shadowMatrixOuter1"></feMergeNode>
                <feMergeNode in="SourceGraphic"></feMergeNode>
            </feMerge>
        </filter>
    </defs>
    <g id="Page-1" stroke="none" stroke-width="1" fill="none" fill-rule="evenodd">
        <g id="PINK" transform="translate(-77.000000, -9675.000000)">
            <g id="7_usunt_lunsj" transform="translate(79.000000, 9675.000000)">
                <g id="Page-1" filter="url(#filter-1)">
                    <polygon id="Fill-1" fill="#C9CAC9" points="30.9795129 73.9221405 50.340556 73.9221405 50.340556 92.6768432 5.718375 92.6768432 5.718375 73.9221405"></polygon>
                    <polygon id="Fill-2" fill="#F3F3F3" points="0 0.000356756756 5.71807759 81.3605189 50.3408534 81.3605189 55.7894741 0.000356756756"></polygon>
                    <g id="Group-32" transform="translate(1.784483, 9.455243)">
                        <path d="M52.079356,10.2972486 L48.6912181,71.9049784 L4.06903707,71.9049784 L0.134252586,3.73173514 C4.7423819,0.730221622 16.0244767,-1.71237297 23.5091922,4.14081622 C28.2904164,7.88081622 31.551856,12.8373568 52.079356,10.2972486" id="Fill-3" fill="#422C07"></path>
                        <polygon id="Fill-5" fill="#ECB88F" points="38.4163448 94.6588054 120.194431 94.8758324 120.17956 100.486427 38.4014741 100.2694"></polygon>
                        <g id="Group-9" transform="translate(23.198276, 82.054054)">
                            <mask id="mask-3" fill="white">
                                <use xlink:href="#path-2"></use>
                            </mask>
                            <g id="Clip-8"></g>
                            <path d="M102.758488,12.837 L9.23434138,12.5884595 C8.89707414,12.5878649 8.57646207,12.4528919 8.33793621,12.2150541 L0.928168966,2.3977027 C0.129910345,1.59678378 0.70035,0.232189189 1.83111724,0.235162162 L111.715402,0.527108108 C112.902083,0.530675676 113.434453,2.01537838 112.521393,2.7722973 L103.571022,12.5462432 C103.343203,12.7347297 103.055902,12.8381892 102.758488,12.837" id="Fill-7" fill="#BB975F" mask="url(#mask-3)"></path>
                        </g>
                        <path d="M64.4211362,66.4434486 C62.220869,66.4375027 60.4274638,68.2212865 60.4215155,70.4200973 C60.4155672,72.6195027 62.20005,74.4122054 64.3997224,74.4187459 C66.5999897,74.4246919 68.3939897,72.6409081 68.3993431,70.4415027 C68.4058862,68.2420973 66.6214034,66.4493946 64.4211362,66.4434486 M64.3896103,78.4060973 C59.9890759,78.3948 56.4207052,74.8076108 56.4320069,70.4099892 C56.4439034,66.0111784 60.0319034,62.4436108 64.4318431,62.4555027 C68.8317828,62.4673946 72.4007483,66.0539892 72.3888517,70.4522054 C72.3769552,74.8504216 68.78955,78.4179892 64.3896103,78.4060973" id="Fill-10" fill="#1F191A"></path>
                        <path d="M64.4211362,66.4434486 C62.220869,66.4375027 60.4274638,68.2212865 60.4215155,70.4200973 C60.4155672,72.6195027 62.20005,74.4122054 64.3997224,74.4187459 C66.5999897,74.4246919 68.3939897,72.6409081 68.3993431,70.4415027 C68.4058862,68.2420973 66.6214034,66.4493946 64.4211362,66.4434486 M64.3896103,78.4060973 C59.9890759,78.3948 56.4207052,74.8076108 56.4320069,70.4099892 C56.4439034,66.0111784 60.0319034,62.4436108 64.4318431,62.4555027 C68.8317828,62.4673946 72.4007483,66.0539892 72.3888517,70.4522054 C72.3769552,74.8504216 68.78955,78.4179892 64.3896103,78.4060973" id="Fill-12" fill="#1F191A"></path>
                        <path d="M58.4798793,50.4747189 L58.5012931,42.4994216 L39.5524655,42.4494757 C36.8097155,42.4417459 34.5600776,44.6792054 34.5523448,47.4202865 C34.5452069,50.1625568 36.7835431,52.4113135 39.5256983,52.4184486 L58.843319,52.4695838 C58.6220431,51.8428811 58.4780948,51.1769351 58.4798793,50.4747189" id="Fill-14" fill="#FFB140"></path>
                        <path d="M121.330611,42.6666216 L82.0672319,42.561973 C81.2309043,44.8731622 79.0306371,46.5421892 76.4419474,46.5350541 C73.8526629,46.5279189 71.6613181,44.8475946 70.8374819,42.5322432 L70.4686888,42.5310541 L70.447275,50.5069459 C70.4454905,51.2085676 70.2985681,51.8739189 70.0731284,52.4994324 L121.304439,52.6361892 C124.046594,52.6427297 126.296827,50.4058649 126.303965,47.6641892 C126.311103,44.9231081 124.073361,42.6743514 121.330611,42.6666216" id="Fill-16" fill="#FFB140"></path>
                        <path d="M58.5222905,34.5243027 C58.5133681,37.8141946 55.8134457,40.4981946 52.5228595,40.4898703 C49.2316784,40.4809514 46.5460319,37.7820865 46.5549543,34.4927892 L46.5603078,32.4985189 L39.5788164,32.4800865 C36.8360664,32.4729514 34.5864284,34.7098162 34.5792905,37.4514919 C34.5721526,40.1931676 36.809894,42.4419243 39.552644,42.4496541 L58.5008767,42.4996 L58.5222905,34.5243027 Z" id="Fill-18" fill="#FFD58E"></path>
                        <path d="M121.357319,32.6975892 L82.4627328,32.5941297 L82.441319,40.569427 C82.4395345,41.2710486 82.2920172,41.9369946 82.0671724,42.5619135 L121.330552,42.6665622 C124.073302,42.6742919 126.32294,40.4368324 126.330078,37.6957514 C126.33781,34.9540757 124.099474,32.7047243 121.357319,32.6975892" id="Fill-20" fill="#FFD58E"></path>
                        <path d="M121.304141,52.6359514 L70.0734259,52.4997892 C69.2370983,54.8097892 67.036831,56.4794108 64.4475466,56.4722757 C61.8582621,56.4651405 59.6669172,54.7848162 58.8436759,52.4700595 L39.5260552,52.4183297 C36.7833052,52.4111946 34.5336672,54.6480595 34.5259345,57.3897351 C34.5187966,60.1308162 36.7565379,62.3801676 39.4992879,62.3873027 L121.277969,62.6049243 C124.020124,62.6120595 126.270357,60.3751946 126.277495,57.6335189 C126.284633,54.8918432 124.046891,52.6430865 121.304141,52.6359514" id="Fill-22" fill="#FFD58E"></path>
                        <path d="M121.277731,62.6046865 L39.4996448,62.3876595 C36.7568948,62.3799297 34.5072569,64.6173892 34.4995241,67.3584703 C34.4923862,70.1001459 36.7301276,72.3494973 39.4728776,72.3560378 L58.7887138,72.4077676 C58.5668431,71.7816595 58.4246793,71.1163081 58.4264638,70.4129027 C58.435981,67.1093351 61.1216276,64.4384162 64.4264897,64.4479297 C67.7313517,64.4562541 70.4033172,67.1408486 70.3943948,70.4450108 C70.3926103,71.1484162 70.2468776,71.8119838 70.0220328,72.4374973 L121.250964,72.5742541 C123.993714,72.5807946 126.243947,70.3445243 126.251084,67.6022541 C126.258222,64.861173 124.019886,62.6124162 121.277731,62.6046865" id="Fill-24" fill="#FFB140"></path>
                        <path d="M121.251023,72.5740162 L70.0238767,72.4378541 C69.1940922,74.7543946 66.9979888,76.4174757 64.3968078,76.4103405 C61.7956267,76.4032054 59.6084457,74.728827 58.7905578,72.4081243 L39.4729371,72.3563946 C36.7301871,72.3492595 34.4805491,74.5861243 34.4734112,77.3278 C34.4656784,80.0688811 36.7040147,82.3182324 39.4461698,82.3253676 L121.224851,82.5429892 C123.967006,82.5501243 126.217239,80.3132595 126.224377,77.5715838 C126.231515,74.8299081 123.993773,72.5811514 121.251023,72.5740162" id="Fill-26" fill="#FFD58E"></path>
                        <path d="M124.370359,24.7303784 L36.6083069,24.4967027 L36.5868931,32.4725946 L46.5597724,32.4987568 L46.5550138,34.4924324 C46.5460914,37.7823243 49.2317379,40.4811892 52.5223241,40.4895135 C55.8135052,40.4984324 58.5134276,37.8138378 58.52235,34.5245405 L58.4801172,50.4745405 C58.4711948,53.765027 61.1568414,56.4638919 64.4474276,56.4722162 C67.7386086,56.4811351 70.438531,53.7965405 70.4474534,50.5066486 L70.4742207,40.5376757 C70.4652983,43.8275676 73.1509448,46.5264324 76.441531,46.5347568 C79.7327121,46.5436757 82.4326345,43.8590811 82.4415569,40.5691892 L82.4623759,32.5944865 L124.348945,32.7056757 L124.370359,24.7303784 Z" id="Fill-28" fill="#8C341F"></path>
                        <path d="M64.4263707,64.4476919 C67.7312328,64.4566108 70.4031983,67.1412054 70.3942759,70.444773 C70.3859483,73.7483405 67.6991121,76.4192595 64.3948448,76.4103405 C61.0899828,76.4014216 58.4180172,73.7162324 58.4269397,70.4126649 C58.4358621,67.1096919 61.1215086,64.4381784 64.4263707,64.4476919" id="Fill-30" fill="#8C341F"></path>
                    </g>
                </g>
                <g id="Group-17-Copy-13" transform="translate(0.000000, 95.000000)">
                    <g id="x-16" fill-opacity="1" fill="#FFF6EB">
                        <use filter="url(#filter-5)" xlink:href="#text-4"></use>
                        <use xlink:href="#text-4"></use>
                    </g>
                    <g id="SugarCube-Copy" filter="url(#filter-6)" fill-rule="nonzero">
                        <polygon id="Shape" fill="#FFF6EB" points="0 5.57938144 17.4492857 12.2597938 33.9271429 5.3814433 16.4778571 0.024742268"></polygon>
                        <polygon id="Shape" fill="#D4C9BB" points="17.4492857 35.9876289 17.4492857 12.2597938 33.9271429 5.3814433 32.7614286 27.1298969"></polygon>
                        <polygon id="Shape" fill="#EBE0D2" points="0 5.57938144 17.4492857 12.2597938 17.4492857 35.9876289 0.582857143 26.857732"></polygon>
                    </g>
                </g>
            </g>
        </g>
    </g>
</svg>