<?xml version="1.0" encoding="UTF-8"?>
<svg width="141px" height="616px" viewBox="0 0 141 616" version="1.1" xmlns="http://www.w3.org/2000/svg" xmlns:xlink="http://www.w3.org/1999/xlink">
    <!-- Generator: Sketch 42 (36781) - http://www.bohemiancoding.com/sketch -->
    <title>7_usunn</title>
    <desc>Created with Sketch.</desc>
    <defs>
        <filter x="-50%" y="-50%" width="200%" height="200%" filterUnits="objectBoundingBox" id="filter-1">
            <feOffset dx="-1" dy="2" in="SourceAlpha" result="shadowOffsetOuter1"></feOffset>
            <feGaussianBlur stdDeviation="0.5" in="shadowOffsetOuter1" result="shadowBlurOuter1"></feGaussianBlur>
            <feColorMatrix values="0 0 0 0 0   0 0 0 0 0   0 0 0 0 0  0 0 0 0.5 0" type="matrix" in="shadowBlurOuter1" result="shadowMatrixOuter1"></feColorMatrix>
            <feMerge>
                <feMergeNode in="shadowMatrixOuter1"></feMergeNode>
                <feMergeNode in="SourceGraphic"></feMergeNode>
            </feMerge>
        </filter>
        <filter x="-50%" y="-50%" width="200%" height="200%" filterUnits="objectBoundingBox" id="filter-2">
            <feOffset dx="-1" dy="2" in="SourceAlpha" result="shadowOffsetOuter1"></feOffset>
            <feGaussianBlur stdDeviation="0.5" in="shadowOffsetOuter1" result="shadowBlurOuter1"></feGaussianBlur>
            <feColorMatrix values="0 0 0 0 0   0 0 0 0 0   0 0 0 0 0  0 0 0 0.5 0" type="matrix" in="shadowBlurOuter1" result="shadowMatrixOuter1"></feColorMatrix>
            <feMerge>
                <feMergeNode in="shadowMatrixOuter1"></feMergeNode>
                <feMergeNode in="SourceGraphic"></feMergeNode>
            </feMerge>
        </filter>
        <polygon id="path-3" points="112.982741 0.235157312 112.982741 12.8370101 0.555798739 12.8370101 0.555798739 0.235157312 112.982741 0.235157312"></polygon>
        <filter x="-50%" y="-50%" width="200%" height="200%" filterUnits="objectBoundingBox" id="filter-5">
            <feOffset dx="-1" dy="2" in="SourceAlpha" result="shadowOffsetOuter1"></feOffset>
            <feGaussianBlur stdDeviation="0.5" in="shadowOffsetOuter1" result="shadowBlurOuter1"></feGaussianBlur>
            <feColorMatrix values="0 0 0 0 0   0 0 0 0 0   0 0 0 0 0  0 0 0 0.5 0" type="matrix" in="shadowBlurOuter1" result="shadowMatrixOuter1"></feColorMatrix>
            <feMerge>
                <feMergeNode in="shadowMatrixOuter1"></feMergeNode>
                <feMergeNode in="SourceGraphic"></feMergeNode>
            </feMerge>
        </filter>
        <polygon id="path-6" points="0 99 138.569691 99 138.569691 0 0 0"></polygon>
        <text id="text-8" font-family="RobotoCondensed-Bold, Roboto Condensed" font-size="22" font-style="condensed" font-weight="bold" fill="#FFF6EB">
            <tspan x="44.8569336" y="24">x 24</tspan>
        </text>
        <filter x="-50%" y="-50%" width="200%" height="200%" filterUnits="objectBoundingBox" id="filter-9">
            <feOffset dx="-1" dy="1" in="SourceAlpha" result="shadowOffsetOuter1"></feOffset>
            <feColorMatrix values="0 0 0 0 0   0 0 0 0 0   0 0 0 0 0  0 0 0 0.5 0" type="matrix" in="shadowOffsetOuter1"></feColorMatrix>
        </filter>
        <filter x="-50%" y="-50%" width="200%" height="200%" filterUnits="objectBoundingBox" id="filter-10">
            <feOffset dx="0" dy="1" in="SourceAlpha" result="shadowOffsetOuter1"></feOffset>
            <feGaussianBlur stdDeviation="0.5" in="shadowOffsetOuter1" result="shadowBlurOuter1"></feGaussianBlur>
            <feColorMatrix values="0 0 0 0 0   0 0 0 0 0   0 0 0 0 0  0 0 0 0.5 0" type="matrix" in="shadowBlurOuter1" result="shadowMatrixOuter1"></feColorMatrix>
            <feMerge>
                <feMergeNode in="shadowMatrixOuter1"></feMergeNode>
                <feMergeNode in="SourceGraphic"></feMergeNode>
            </feMerge>
        </filter>
        <text id="text-11" font-family="RobotoCondensed-Bold, Roboto Condensed" font-size="22" font-style="condensed" font-weight="bold" fill="#FFF6EB">
            <tspan x="44.3569336" y="24">x 16</tspan>
        </text>
        <filter x="-50%" y="-50%" width="200%" height="200%" filterUnits="objectBoundingBox" id="filter-12">
            <feOffset dx="-1" dy="1" in="SourceAlpha" result="shadowOffsetOuter1"></feOffset>
            <feColorMatrix values="0 0 0 0 0   0 0 0 0 0   0 0 0 0 0  0 0 0 0.5 0" type="matrix" in="shadowOffsetOuter1"></feColorMatrix>
        </filter>
        <filter x="-50%" y="-50%" width="200%" height="200%" filterUnits="objectBoundingBox" id="filter-13">
            <feOffset dx="0" dy="1" in="SourceAlpha" result="shadowOffsetOuter1"></feOffset>
            <feGaussianBlur stdDeviation="0.5" in="shadowOffsetOuter1" result="shadowBlurOuter1"></feGaussianBlur>
            <feColorMatrix values="0 0 0 0 0   0 0 0 0 0   0 0 0 0 0  0 0 0 0.5 0" type="matrix" in="shadowBlurOuter1" result="shadowMatrixOuter1"></feColorMatrix>
            <feMerge>
                <feMergeNode in="shadowMatrixOuter1"></feMergeNode>
                <feMergeNode in="SourceGraphic"></feMergeNode>
            </feMerge>
        </filter>
        <text id="text-14" font-family="RobotoCondensed-Bold, Roboto Condensed" font-size="22" font-style="condensed" font-weight="bold" fill="#FFF6EB">
            <tspan x="44.8569336" y="24">x 10</tspan>
        </text>
        <filter x="-50%" y="-50%" width="200%" height="200%" filterUnits="objectBoundingBox" id="filter-15">
            <feOffset dx="-1" dy="1" in="SourceAlpha" result="shadowOffsetOuter1"></feOffset>
            <feColorMatrix values="0 0 0 0 0   0 0 0 0 0   0 0 0 0 0  0 0 0 0.5 0" type="matrix" in="shadowOffsetOuter1"></feColorMatrix>
        </filter>
        <filter x="-50%" y="-50%" width="200%" height="200%" filterUnits="objectBoundingBox" id="filter-16">
            <feOffset dx="0" dy="1" in="SourceAlpha" result="shadowOffsetOuter1"></feOffset>
            <feGaussianBlur stdDeviation="0.5" in="shadowOffsetOuter1" result="shadowBlurOuter1"></feGaussianBlur>
            <feColorMatrix values="0 0 0 0 0   0 0 0 0 0   0 0 0 0 0  0 0 0 0.5 0" type="matrix" in="shadowBlurOuter1" result="shadowMatrixOuter1"></feColorMatrix>
            <feMerge>
                <feMergeNode in="shadowMatrixOuter1"></feMergeNode>
                <feMergeNode in="SourceGraphic"></feMergeNode>
            </feMerge>
        </filter>
    </defs>
    <g id="Page-1" stroke="none" stroke-width="1" fill="none" fill-rule="evenodd">
        <g id="PINK" transform="translate(-77.000000, -9429.000000)">
            <g id="7_usunn" transform="translate(79.000000, 9429.000000)">
                <g id="crossant" filter="url(#filter-1)" fill-rule="nonzero">
                    <g id="Group">
                        <polygon id="Shape" fill="#F9EBCF" points="80.4505063 7.94124424 6.92620253 7.94124424 17.9749367 98.4714286 69.2008861 98.4714286"></polygon>
                        <polygon id="Shape" fill="#DDB690" points="73.0177215 68.6285138 76.6336709 37.984447 10.5421519 37.984447 14.3589873 68.6285138"></polygon>
                        <polygon id="Shape" fill="#735642" points="83.4637975 0.130011521 3.91291139 0.130011521 0.0960759494 11.5464286 87.2806329 11.5464286"></polygon>
                        <polygon id="Shape" fill="#000000" opacity="0.1" points="18.778481 11.5464286 22.3944304 0.130011521 3.91291139 0.130011521 0.0960759494 11.5464286 7.32797468 11.5464286 17.9749367 98.4714286 36.6573418 98.4714286 26.0103797 11.5464286"></polygon>
                        <g transform="translate(42.884810, 22.467396)" id="Shape">
                            <g fill="#FFAC55">
                                <path d="M85.5774684,23.3282834 C88.1889873,16.5184908 86.1801266,9.50841014 80.7562025,4.90178571 C75.1313924,0.0948732719 66.6941772,-1.10685484 59.2613924,1.09631336 C54.6410127,2.49832949 48.2126582,6.10351382 51.0250633,11.5112903 C52.833038,15.3167627 56.8507595,17.7202189 60.2658228,19.9233871 L70.7118987,28.9363479 L85.5774684,23.3282834 Z"></path>
                                <path d="M29.5302532,93.8296659 C23.3027848,98.0357143 15.87,98.0357143 9.84341772,94.2302419 C3.61594937,90.2244816 0.200886076,82.6135369 0.200886076,75.4031682 C0.401772152,70.5962558 2.20974684,63.9867512 8.43721519,64.9881912 C12.6558228,65.7893433 16.2717722,68.7936636 19.2850633,71.3974078 L31.1373418,78.8080645 L29.5302532,93.8296659 Z"></path>
                            </g>
                            <path d="M60.2658228,19.9233871 L70.7118987,28.9363479 L85.3765823,23.3282834 C86.5818987,20.1236751 86.7827848,16.7187788 85.9792405,13.7144585 C83.5686076,12.7130184 80.9570886,11.9118664 78.1446835,11.1107143 C68.9039241,8.90754608 60.868481,9.30812212 54.4401266,12.7130184 L54.4401266,12.7130184 C53.8374684,13.1135945 53.0339241,13.5141705 52.4312658,13.9147465 C54.6410127,16.3182028 57.6543038,18.1207949 60.2658228,19.9233871 Z" fill="#000000" opacity="0.1"></path>
                            <path d="M85.5774684,52.3700461 C98.8359494,44.3585253 94.8182278,28.7360599 88.9925316,25.1308756 C83.1668354,21.5256912 60.4667089,12.1121544 52.6321519,26.5328917 C44.7975949,41.1539171 60.868481,48.9651498 60.868481,48.9651498 L85.5774684,52.3700461 Z" fill="#FFAC55"></path>
                            <path d="M58.6587342,86.2187212 C54.2392405,100.639459 37.5656962,100.839747 32.1417722,96.4334101 C26.9187342,92.0270737 11.4505063,73.600576 24.1063291,62.384447 C36.5612658,51.368606 48.8153165,63.9867512 48.8153165,63.9867512 L58.6587342,86.2187212 Z" fill="#FFAC55"></path>
                            <path d="M45.4002532,89.4233295 C47.8108861,91.6264977 50.8241772,93.2288018 53.8374684,94.2302419 C56.0472152,92.2273618 57.6543038,89.6236175 58.8596203,86.2187212 L49.0162025,64.1870392 C49.0162025,64.1870392 38.5701266,53.3714862 27.1196203,60.3815668 L27.1196203,62.384447 C27.7222785,69.9953917 31.1373418,77.0054724 36.963038,81.8123848 L45.4002532,89.4233295 Z" fill="#000000" opacity="0.1"></path>
                            <path d="M85.5774684,52.3700461 C88.7916456,50.5674539 90.8005063,48.1639977 92.2067089,45.7605415 C90.3987342,43.1567972 87.9881013,40.953629 85.1756962,39.1510369 L75.5331646,33.1423963 C68.3012658,28.7360599 59.4622785,27.5343318 51.2259494,29.7375 C47.0073418,42.1553571 60.6675949,49.1654378 60.6675949,49.1654378 L85.5774684,52.3700461 Z" fill="#000000" opacity="0.1"></path>
                            <path d="M76.5375949,79.8095046 L83.9703797,70.3959677 C90.1978481,62.785023 88.3898734,51.769182 80.1535443,46.7619816 L70.3101266,40.753341 C60.868481,34.9449885 48.0117722,37.3484447 40.7798734,46.3614055 L40.7798734,46.3614055 C33.5479747,55.3743664 34.5524051,67.7922235 42.9896203,75.2028802 L51.4268354,82.6135369 C58.8596203,88.8224654 70.3101266,87.6207373 76.5375949,79.8095046 Z" fill="#FFAC55"></path>
                        </g>
                    </g>
                </g>
                <g id="Page-1" filter="url(#filter-2)" transform="translate(0.000000, 246.000000)">
                    <polygon id="Fill-1" fill="#C9CAC9" points="30.9795129 73.9221405 50.340556 73.9221405 50.340556 92.6768432 5.718375 92.6768432 5.718375 73.9221405"></polygon>
                    <polygon id="Fill-2" fill="#F3F3F3" points="0 0.000356756756 5.71807759 81.3605189 50.3408534 81.3605189 55.7894741 0.000356756756"></polygon>
                    <g id="Group-32" transform="translate(1.784483, 9.455243)">
                        <path d="M52.079356,10.2972486 L48.6912181,71.9049784 L4.06903707,71.9049784 L0.134252586,3.73173514 C4.7423819,0.730221622 16.0244767,-1.71237297 23.5091922,4.14081622 C28.2904164,7.88081622 31.551856,12.8373568 52.079356,10.2972486" id="Fill-3" fill="#422C07"></path>
                        <polygon id="Fill-5" fill="#ECB88F" points="38.4163448 94.6588054 120.194431 94.8758324 120.17956 100.486427 38.4014741 100.2694"></polygon>
                        <g id="Group-9" transform="translate(23.198276, 82.054054)">
                            <mask id="mask-4" fill="white">
                                <use xlink:href="#path-3"></use>
                            </mask>
                            <g id="Clip-8"></g>
                            <path d="M102.758488,12.837 L9.23434138,12.5884595 C8.89707414,12.5878649 8.57646207,12.4528919 8.33793621,12.2150541 L0.928168966,2.3977027 C0.129910345,1.59678378 0.70035,0.232189189 1.83111724,0.235162162 L111.715402,0.527108108 C112.902083,0.530675676 113.434453,2.01537838 112.521393,2.7722973 L103.571022,12.5462432 C103.343203,12.7347297 103.055902,12.8381892 102.758488,12.837" id="Fill-7" fill="#BB975F" mask="url(#mask-4)"></path>
                        </g>
                        <path d="M64.4211362,66.4434486 C62.220869,66.4375027 60.4274638,68.2212865 60.4215155,70.4200973 C60.4155672,72.6195027 62.20005,74.4122054 64.3997224,74.4187459 C66.5999897,74.4246919 68.3939897,72.6409081 68.3993431,70.4415027 C68.4058862,68.2420973 66.6214034,66.4493946 64.4211362,66.4434486 M64.3896103,78.4060973 C59.9890759,78.3948 56.4207052,74.8076108 56.4320069,70.4099892 C56.4439034,66.0111784 60.0319034,62.4436108 64.4318431,62.4555027 C68.8317828,62.4673946 72.4007483,66.0539892 72.3888517,70.4522054 C72.3769552,74.8504216 68.78955,78.4179892 64.3896103,78.4060973" id="Fill-10" fill="#1F191A"></path>
                        <path d="M64.4211362,66.4434486 C62.220869,66.4375027 60.4274638,68.2212865 60.4215155,70.4200973 C60.4155672,72.6195027 62.20005,74.4122054 64.3997224,74.4187459 C66.5999897,74.4246919 68.3939897,72.6409081 68.3993431,70.4415027 C68.4058862,68.2420973 66.6214034,66.4493946 64.4211362,66.4434486 M64.3896103,78.4060973 C59.9890759,78.3948 56.4207052,74.8076108 56.4320069,70.4099892 C56.4439034,66.0111784 60.0319034,62.4436108 64.4318431,62.4555027 C68.8317828,62.4673946 72.4007483,66.0539892 72.3888517,70.4522054 C72.3769552,74.8504216 68.78955,78.4179892 64.3896103,78.4060973" id="Fill-12" fill="#1F191A"></path>
                        <path d="M58.4798793,50.4747189 L58.5012931,42.4994216 L39.5524655,42.4494757 C36.8097155,42.4417459 34.5600776,44.6792054 34.5523448,47.4202865 C34.5452069,50.1625568 36.7835431,52.4113135 39.5256983,52.4184486 L58.843319,52.4695838 C58.6220431,51.8428811 58.4780948,51.1769351 58.4798793,50.4747189" id="Fill-14" fill="#FFB140"></path>
                        <path d="M121.330611,42.6666216 L82.0672319,42.561973 C81.2309043,44.8731622 79.0306371,46.5421892 76.4419474,46.5350541 C73.8526629,46.5279189 71.6613181,44.8475946 70.8374819,42.5322432 L70.4686888,42.5310541 L70.447275,50.5069459 C70.4454905,51.2085676 70.2985681,51.8739189 70.0731284,52.4994324 L121.304439,52.6361892 C124.046594,52.6427297 126.296827,50.4058649 126.303965,47.6641892 C126.311103,44.9231081 124.073361,42.6743514 121.330611,42.6666216" id="Fill-16" fill="#FFB140"></path>
                        <path d="M58.5222905,34.5243027 C58.5133681,37.8141946 55.8134457,40.4981946 52.5228595,40.4898703 C49.2316784,40.4809514 46.5460319,37.7820865 46.5549543,34.4927892 L46.5603078,32.4985189 L39.5788164,32.4800865 C36.8360664,32.4729514 34.5864284,34.7098162 34.5792905,37.4514919 C34.5721526,40.1931676 36.809894,42.4419243 39.552644,42.4496541 L58.5008767,42.4996 L58.5222905,34.5243027 Z" id="Fill-18" fill="#FFD58E"></path>
                        <path d="M121.357319,32.6975892 L82.4627328,32.5941297 L82.441319,40.569427 C82.4395345,41.2710486 82.2920172,41.9369946 82.0671724,42.5619135 L121.330552,42.6665622 C124.073302,42.6742919 126.32294,40.4368324 126.330078,37.6957514 C126.33781,34.9540757 124.099474,32.7047243 121.357319,32.6975892" id="Fill-20" fill="#FFD58E"></path>
                        <path d="M121.304141,52.6359514 L70.0734259,52.4997892 C69.2370983,54.8097892 67.036831,56.4794108 64.4475466,56.4722757 C61.8582621,56.4651405 59.6669172,54.7848162 58.8436759,52.4700595 L39.5260552,52.4183297 C36.7833052,52.4111946 34.5336672,54.6480595 34.5259345,57.3897351 C34.5187966,60.1308162 36.7565379,62.3801676 39.4992879,62.3873027 L121.277969,62.6049243 C124.020124,62.6120595 126.270357,60.3751946 126.277495,57.6335189 C126.284633,54.8918432 124.046891,52.6430865 121.304141,52.6359514" id="Fill-22" fill="#FFD58E"></path>
                        <path d="M121.277731,62.6046865 L39.4996448,62.3876595 C36.7568948,62.3799297 34.5072569,64.6173892 34.4995241,67.3584703 C34.4923862,70.1001459 36.7301276,72.3494973 39.4728776,72.3560378 L58.7887138,72.4077676 C58.5668431,71.7816595 58.4246793,71.1163081 58.4264638,70.4129027 C58.435981,67.1093351 61.1216276,64.4384162 64.4264897,64.4479297 C67.7313517,64.4562541 70.4033172,67.1408486 70.3943948,70.4450108 C70.3926103,71.1484162 70.2468776,71.8119838 70.0220328,72.4374973 L121.250964,72.5742541 C123.993714,72.5807946 126.243947,70.3445243 126.251084,67.6022541 C126.258222,64.861173 124.019886,62.6124162 121.277731,62.6046865" id="Fill-24" fill="#FFB140"></path>
                        <path d="M121.251023,72.5740162 L70.0238767,72.4378541 C69.1940922,74.7543946 66.9979888,76.4174757 64.3968078,76.4103405 C61.7956267,76.4032054 59.6084457,74.728827 58.7905578,72.4081243 L39.4729371,72.3563946 C36.7301871,72.3492595 34.4805491,74.5861243 34.4734112,77.3278 C34.4656784,80.0688811 36.7040147,82.3182324 39.4461698,82.3253676 L121.224851,82.5429892 C123.967006,82.5501243 126.217239,80.3132595 126.224377,77.5715838 C126.231515,74.8299081 123.993773,72.5811514 121.251023,72.5740162" id="Fill-26" fill="#FFD58E"></path>
                        <path d="M124.370359,24.7303784 L36.6083069,24.4967027 L36.5868931,32.4725946 L46.5597724,32.4987568 L46.5550138,34.4924324 C46.5460914,37.7823243 49.2317379,40.4811892 52.5223241,40.4895135 C55.8135052,40.4984324 58.5134276,37.8138378 58.52235,34.5245405 L58.4801172,50.4745405 C58.4711948,53.765027 61.1568414,56.4638919 64.4474276,56.4722162 C67.7386086,56.4811351 70.438531,53.7965405 70.4474534,50.5066486 L70.4742207,40.5376757 C70.4652983,43.8275676 73.1509448,46.5264324 76.441531,46.5347568 C79.7327121,46.5436757 82.4326345,43.8590811 82.4415569,40.5691892 L82.4623759,32.5944865 L124.348945,32.7056757 L124.370359,24.7303784 Z" id="Fill-28" fill="#8C341F"></path>
                        <path d="M64.4263707,64.4476919 C67.7312328,64.4566108 70.4031983,67.1412054 70.3942759,70.444773 C70.3859483,73.7483405 67.6991121,76.4192595 64.3948448,76.4103405 C61.0899828,76.4014216 58.4180172,73.7162324 58.4269397,70.4126649 C58.4358621,67.1096919 61.1215086,64.4381784 64.4263707,64.4476919" id="Fill-30" fill="#8C341F"></path>
                    </g>
                </g>
                <g id="Page-1" filter="url(#filter-5)" transform="translate(0.000000, 497.000000)">
                    <polygon id="Fill-1" fill="#C9CAC9" points="33.1049202 78.9657985 6.11082447 78.9657985 6.11082447 99 53.7952181 99 53.7952181 78.9657985"></polygon>
                    <polygon id="Fill-2" fill="#F3F3F3" points="0 -7.38805975e-05 6.11082447 86.9115828 53.7952181 86.9115828 59.6176915 -7.38805975e-05"></polygon>
                    <g id="Group-32">
                        <path d="M57.5597521,21.100003 L53.9390979,86.9113612 L6.25470426,86.9113612 L2.04995426,14.0865179 C6.97484255,10.8801 19.0316138,8.27063731 27.0292894,14.523891 C32.1382787,18.5186149 35.6236298,23.8136373 57.5597521,21.100003 Z" id="Fill-3" fill="#422C07"></path>
                        <polygon id="Fill-5" fill="#FFFB72" points="123.419579 7.70552463 113.675531 7.70552463 108.803137 22.3109799 103.931483 7.70552463 94.1874351 7.70552463 90.2895202 40.8106813 127.316754 40.8106813"></polygon>
                        <polygon id="Fill-7" fill="#FFD067" points="88.3410803 36.9157701 94.1872133 48.5992478 123.419357 48.5992478 129.266229 36.9157701"></polygon>
                        <polygon id="Fill-9" fill="#FFA35E" points="133.163479 36.9157701 133.163479 48.5992478 123.419431 48.5992478 123.419431 36.9157701 128.291824 33.0215239"></polygon>
                        <polygon id="Fill-11" fill="#FFA35E" points="113.675383 36.9157701 113.675383 48.5992478 103.931335 48.5992478 103.931335 36.9157701 108.803729 33.0215239"></polygon>
                        <polygon id="Fill-13" fill="#FFA35E" points="94.1873612 36.9157701 94.1873612 48.5992478 84.4433133 48.5992478 84.4433133 36.9157701 89.3157069 33.0215239"></polygon>
                        <mask id="mask-7" fill="white">
                            <use xlink:href="#path-6"></use>
                        </mask>
                        <g id="Clip-16"></g>
                        <polygon id="Fill-15" fill="#FFD067" mask="url(#mask-7)" points="123.419431 36.9159179 133.163479 36.9159179 133.163479 3.81076119 123.419431 3.81076119"></polygon>
                        <polygon id="Fill-17" fill="#FFD067" mask="url(#mask-7)" points="103.931335 36.9159179 113.675383 36.9159179 113.675383 3.81076119 103.931335 3.81076119"></polygon>
                        <polygon id="Fill-18" fill="#FFD067" mask="url(#mask-7)" points="84.4439787 36.9159179 94.1880266 36.9159179 94.1880266 3.81076119 84.4439787 3.81076119"></polygon>
                        <path d="M133.163479,42.7576567 L127.317346,42.7576567 L129.266303,92.4142836 L135.112436,92.4142836 L138.551947,48.582403 C138.80333,45.3789403 136.378963,42.7576567 133.163479,42.7576567" id="Fill-19" fill="#D04429" mask="url(#mask-7)"></path>
                        <path d="M127.317124,42.7576567 C130.532608,42.7576567 132.956975,45.3789403 132.705592,48.582403 L129.266081,92.4142836 L82.4947995,92.4142836 L79.0552888,48.582403 C78.8039059,45.3789403 81.2282729,42.7576567 84.4437569,42.7576567 L127.317124,42.7576567 Z" id="Fill-20" fill="#FF4113" mask="url(#mask-7)"></path>
                        <path d="M91.8678356,31.463456 L83.6904952,32.4852246 L108.223256,67.8939784 L116.400596,66.8729485 L116.400596,55.6371873 C116.399857,43.8111201 105.360447,31.463456 91.8678356,31.463456" id="Fill-21" fill="#FF7652" mask="url(#mask-7)"></path>
                        <path d="M111.812561,65.851106 L103.635221,65.851106 L103.635221,82.193494 L111.812561,82.193494 C116.310098,82.193494 119.989902,78.5164567 119.989902,74.0223 C119.989902,69.5281433 116.310098,65.851106 111.812561,65.851106" id="Fill-22" fill="#A95D4E" mask="url(#mask-7)"></path>
                        <path d="M103.635221,65.851106 C108.132758,65.851106 111.812561,69.5281433 111.812561,74.0223 C111.812561,78.5164567 108.132758,82.193494 103.635221,82.193494 L31.4010612,82.193494 C26.9035239,82.193494 23.2237207,78.5164567 23.2237207,74.0223 C23.2237207,69.5281433 26.9035239,65.851106 31.4010612,65.851106 L103.635221,65.851106 Z" id="Fill-23" fill="#C4796B" mask="url(#mask-7)"></path>
                        <path d="M109.086904,82.1077187 L92.7322234,98.4501067 L100.909564,98.4501067 C109.943085,98.4501067 117.264245,91.13445 117.264245,82.1077187 L109.086904,82.1077187 Z" id="Fill-24" fill="#FF7652" mask="url(#mask-7)"></path>
                        <path d="M29.7636707,82.1077187 L112.900458,82.1077187 C112.900458,91.13445 105.579298,98.4501067 96.5457771,98.4501067 L46.1183516,98.4501067 C37.0848303,98.4501067 29.7636707,91.13445 29.7636707,82.1077187" id="Fill-25" fill="#FFA35E" mask="url(#mask-7)"></path>
                        <path d="M112.652328,55.29645 L112.652328,66.5322112 L29.5148016,66.5322112 L29.5148016,55.29645 C29.5148016,42.5631291 40.5549505,31.1227187 54.0475622,31.1227187 L88.1195676,31.1227187 C101.612919,31.1227187 112.652328,42.5631291 112.652328,55.29645" id="Fill-26" fill="#FFA35E" mask="url(#mask-7)"></path>
                        <path d="M52.5268431,35.5492746 C53.6558484,35.5492746 54.5711782,36.4631776 54.5711782,37.5920731 C54.5711782,38.7202299 53.6558484,39.6348716 52.5268431,39.6348716 C51.3978378,39.6348716 50.482508,38.7202299 50.482508,37.5920731 C50.482508,36.4631776 51.3978378,35.5492746 52.5268431,35.5492746" id="Fill-27" fill="#FFFEC9" mask="url(#mask-7)"></path>
                        <path d="M62.0670489,43.7201731 C63.1960543,43.7201731 64.111384,44.6348149 64.111384,45.7637104 C64.111384,46.8918672 63.1960543,47.806509 62.0670489,47.806509 C60.9380436,47.806509 60.0219745,46.8918672 60.0219745,45.7637104 C60.0219745,44.6348149 60.9380436,43.7201731 62.0670489,43.7201731" id="Fill-28" fill="#FFFEC9" mask="url(#mask-7)"></path>
                        <path d="M81.1478303,43.7201731 C82.2768356,43.7201731 83.1921654,44.6348149 83.1921654,45.7637104 C83.1921654,46.8918672 82.2768356,47.806509 81.1478303,47.806509 C80.018825,47.806509 79.1034952,46.8918672 79.1034952,45.7637104 C79.1034952,44.6348149 80.018825,43.7201731 81.1478303,43.7201731" id="Fill-29" fill="#FFFEC9" mask="url(#mask-7)"></path>
                        <path d="M71.6072548,35.5492746 C72.7362601,35.5492746 73.6515899,36.4631776 73.6515899,37.5920731 C73.6515899,38.7202299 72.7362601,39.6348716 71.6072548,39.6348716 C70.4782495,39.6348716 69.5629197,38.7202299 69.5629197,37.5920731 C69.5629197,36.4631776 70.4782495,35.5492746 71.6072548,35.5492746" id="Fill-30" fill="#FFFEC9" mask="url(#mask-7)"></path>
                        <path d="M90.6880362,35.5492746 C91.8170415,35.5492746 92.7323713,36.4631776 92.7323713,37.5920731 C92.7323713,38.7202299 91.8170415,39.6348716 90.6880362,39.6348716 C89.5590309,39.6348716 88.6429617,38.7202299 88.6429617,37.5920731 C88.6429617,36.4631776 89.5590309,35.5492746 90.6880362,35.5492746" id="Fill-31" fill="#FFFEC9" mask="url(#mask-7)"></path>
                    </g>
                </g>
                <g id="Group-17-Copy-2" transform="translate(0.000000, 108.000000)">
                    <g id="x-24" fill-opacity="1" fill="#FFF6EB">
                        <use filter="url(#filter-9)" xlink:href="#text-8"></use>
                        <use xlink:href="#text-8"></use>
                    </g>
                    <g id="SugarCube-Copy" filter="url(#filter-10)" fill-rule="nonzero">
                        <polygon id="Shape" fill="#FFF6EB" points="0 5.57938144 17.4492857 12.2597938 33.9271429 5.3814433 16.4778571 0.024742268"></polygon>
                        <polygon id="Shape" fill="#D4C9BB" points="17.4492857 35.9876289 17.4492857 12.2597938 33.9271429 5.3814433 32.7614286 27.1298969"></polygon>
                        <polygon id="Shape" fill="#EBE0D2" points="0 5.57938144 17.4492857 12.2597938 17.4492857 35.9876289 0.582857143 26.857732"></polygon>
                    </g>
                </g>
                <g id="Group-17-Copy-13" transform="translate(0.000000, 341.000000)">
                    <g id="x-16" fill-opacity="1" fill="#FFF6EB">
                        <use filter="url(#filter-12)" xlink:href="#text-11"></use>
                        <use xlink:href="#text-11"></use>
                    </g>
                    <g id="SugarCube-Copy" filter="url(#filter-13)" fill-rule="nonzero">
                        <polygon id="Shape" fill="#FFF6EB" points="0 5.57938144 17.4492857 12.2597938 33.9271429 5.3814433 16.4778571 0.024742268"></polygon>
                        <polygon id="Shape" fill="#D4C9BB" points="17.4492857 35.9876289 17.4492857 12.2597938 33.9271429 5.3814433 32.7614286 27.1298969"></polygon>
                        <polygon id="Shape" fill="#EBE0D2" points="0 5.57938144 17.4492857 12.2597938 17.4492857 35.9876289 0.582857143 26.857732"></polygon>
                    </g>
                </g>
                <g id="Group-17-Copy-14" transform="translate(0.000000, 578.000000)">
                    <g id="x-10" fill-opacity="1" fill="#FFF6EB">
                        <use filter="url(#filter-15)" xlink:href="#text-14"></use>
                        <use xlink:href="#text-14"></use>
                    </g>
                    <g id="SugarCube-Copy" filter="url(#filter-16)" fill-rule="nonzero">
                        <polygon id="Shape" fill="#FFF6EB" points="0 5.57938144 17.4492857 12.2597938 33.9271429 5.3814433 16.4778571 0.024742268"></polygon>
                        <polygon id="Shape" fill="#D4C9BB" points="17.4492857 35.9876289 17.4492857 12.2597938 33.9271429 5.3814433 32.7614286 27.1298969"></polygon>
                        <polygon id="Shape" fill="#EBE0D2" points="0 5.57938144 17.4492857 12.2597938 17.4492857 35.9876289 0.582857143 26.857732"></polygon>
                    </g>
                </g>
            </g>
        </g>
    </g>
</svg>