<?xml version="1.0" encoding="UTF-8"?>
<svg width="141px" height="119px" viewBox="0 0 141 119" version="1.1" xmlns="http://www.w3.org/2000/svg" xmlns:xlink="http://www.w3.org/1999/xlink">
    <!-- Generator: Sketch 42 (36781) - http://www.bohemiancoding.com/sketch -->
    <title>7_usunt_middag</title>
    <desc>Created with Sketch.</desc>
    <defs>
        <filter x="-50%" y="-50%" width="200%" height="200%" filterUnits="objectBoundingBox" id="filter-1">
            <feOffset dx="-1" dy="2" in="SourceAlpha" result="shadowOffsetOuter1"></feOffset>
            <feGaussianBlur stdDeviation="0.5" in="shadowOffsetOuter1" result="shadowBlurOuter1"></feGaussianBlur>
            <feColorMatrix values="0 0 0 0 0   0 0 0 0 0   0 0 0 0 0  0 0 0 0.5 0" type="matrix" in="shadowBlurOuter1" result="shadowMatrixOuter1"></feColorMatrix>
            <feMerge>
                <feMergeNode in="shadowMatrixOuter1"></feMergeNode>
                <feMergeNode in="SourceGraphic"></feMergeNode>
            </feMerge>
        </filter>
        <polygon id="path-2" points="0 99 138.569691 99 138.569691 0 0 0"></polygon>
        <text id="text-4" font-family="RobotoCondensed-Bold, Roboto Condensed" font-size="22" font-style="condensed" font-weight="bold" fill="#FFF6EB">
            <tspan x="44.8569336" y="24">x 10</tspan>
        </text>
        <filter x="-50%" y="-50%" width="200%" height="200%" filterUnits="objectBoundingBox" id="filter-5">
            <feOffset dx="-1" dy="1" in="SourceAlpha" result="shadowOffsetOuter1"></feOffset>
            <feColorMatrix values="0 0 0 0 0   0 0 0 0 0   0 0 0 0 0  0 0 0 0.5 0" type="matrix" in="shadowOffsetOuter1"></feColorMatrix>
        </filter>
        <filter x="-50%" y="-50%" width="200%" height="200%" filterUnits="objectBoundingBox" id="filter-6">
            <feOffset dx="0" dy="1" in="SourceAlpha" result="shadowOffsetOuter1"></feOffset>
            <feGaussianBlur stdDeviation="0.5" in="shadowOffsetOuter1" result="shadowBlurOuter1"></feGaussianBlur>
            <feColorMatrix values="0 0 0 0 0   0 0 0 0 0   0 0 0 0 0  0 0 0 0.5 0" type="matrix" in="shadowBlurOuter1" result="shadowMatrixOuter1"></feColorMatrix>
            <feMerge>
                <feMergeNode in="shadowMatrixOuter1"></feMergeNode>
                <feMergeNode in="SourceGraphic"></feMergeNode>
            </feMerge>
        </filter>
    </defs>
    <g id="Page-1" stroke="none" stroke-width="1" fill="none" fill-rule="evenodd">
        <g id="PINK" transform="translate(-77.000000, -9926.000000)">
            <g id="7_usunt_middag" transform="translate(79.000000, 9926.000000)">
                <g id="Page-1" filter="url(#filter-1)">
                    <polygon id="Fill-1" fill="#C9CAC9" points="33.1049202 78.9657985 6.11082447 78.9657985 6.11082447 99 53.7952181 99 53.7952181 78.9657985"></polygon>
                    <polygon id="Fill-2" fill="#F3F3F3" points="0 -7.38805975e-05 6.11082447 86.9115828 53.7952181 86.9115828 59.6176915 -7.38805975e-05"></polygon>
                    <g id="Group-32">
                        <path d="M57.5597521,21.100003 L53.9390979,86.9113612 L6.25470426,86.9113612 L2.04995426,14.0865179 C6.97484255,10.8801 19.0316138,8.27063731 27.0292894,14.523891 C32.1382787,18.5186149 35.6236298,23.8136373 57.5597521,21.100003 Z" id="Fill-3" fill="#422C07"></path>
                        <polygon id="Fill-5" fill="#FFFB72" points="123.419579 7.70552463 113.675531 7.70552463 108.803137 22.3109799 103.931483 7.70552463 94.1874351 7.70552463 90.2895202 40.8106813 127.316754 40.8106813"></polygon>
                        <polygon id="Fill-7" fill="#FFD067" points="88.3410803 36.9157701 94.1872133 48.5992478 123.419357 48.5992478 129.266229 36.9157701"></polygon>
                        <polygon id="Fill-9" fill="#FFA35E" points="133.163479 36.9157701 133.163479 48.5992478 123.419431 48.5992478 123.419431 36.9157701 128.291824 33.0215239"></polygon>
                        <polygon id="Fill-11" fill="#FFA35E" points="113.675383 36.9157701 113.675383 48.5992478 103.931335 48.5992478 103.931335 36.9157701 108.803729 33.0215239"></polygon>
                        <polygon id="Fill-13" fill="#FFA35E" points="94.1873612 36.9157701 94.1873612 48.5992478 84.4433133 48.5992478 84.4433133 36.9157701 89.3157069 33.0215239"></polygon>
                        <mask id="mask-3" fill="white">
                            <use xlink:href="#path-2"></use>
                        </mask>
                        <g id="Clip-16"></g>
                        <polygon id="Fill-15" fill="#FFD067" mask="url(#mask-3)" points="123.419431 36.9159179 133.163479 36.9159179 133.163479 3.81076119 123.419431 3.81076119"></polygon>
                        <polygon id="Fill-17" fill="#FFD067" mask="url(#mask-3)" points="103.931335 36.9159179 113.675383 36.9159179 113.675383 3.81076119 103.931335 3.81076119"></polygon>
                        <polygon id="Fill-18" fill="#FFD067" mask="url(#mask-3)" points="84.4439787 36.9159179 94.1880266 36.9159179 94.1880266 3.81076119 84.4439787 3.81076119"></polygon>
                        <path d="M133.163479,42.7576567 L127.317346,42.7576567 L129.266303,92.4142836 L135.112436,92.4142836 L138.551947,48.582403 C138.80333,45.3789403 136.378963,42.7576567 133.163479,42.7576567" id="Fill-19" fill="#D04429" mask="url(#mask-3)"></path>
                        <path d="M127.317124,42.7576567 C130.532608,42.7576567 132.956975,45.3789403 132.705592,48.582403 L129.266081,92.4142836 L82.4947995,92.4142836 L79.0552888,48.582403 C78.8039059,45.3789403 81.2282729,42.7576567 84.4437569,42.7576567 L127.317124,42.7576567 Z" id="Fill-20" fill="#FF4113" mask="url(#mask-3)"></path>
                        <path d="M91.8678356,31.463456 L83.6904952,32.4852246 L108.223256,67.8939784 L116.400596,66.8729485 L116.400596,55.6371873 C116.399857,43.8111201 105.360447,31.463456 91.8678356,31.463456" id="Fill-21" fill="#FF7652" mask="url(#mask-3)"></path>
                        <path d="M111.812561,65.851106 L103.635221,65.851106 L103.635221,82.193494 L111.812561,82.193494 C116.310098,82.193494 119.989902,78.5164567 119.989902,74.0223 C119.989902,69.5281433 116.310098,65.851106 111.812561,65.851106" id="Fill-22" fill="#A95D4E" mask="url(#mask-3)"></path>
                        <path d="M103.635221,65.851106 C108.132758,65.851106 111.812561,69.5281433 111.812561,74.0223 C111.812561,78.5164567 108.132758,82.193494 103.635221,82.193494 L31.4010612,82.193494 C26.9035239,82.193494 23.2237207,78.5164567 23.2237207,74.0223 C23.2237207,69.5281433 26.9035239,65.851106 31.4010612,65.851106 L103.635221,65.851106 Z" id="Fill-23" fill="#C4796B" mask="url(#mask-3)"></path>
                        <path d="M109.086904,82.1077187 L92.7322234,98.4501067 L100.909564,98.4501067 C109.943085,98.4501067 117.264245,91.13445 117.264245,82.1077187 L109.086904,82.1077187 Z" id="Fill-24" fill="#FF7652" mask="url(#mask-3)"></path>
                        <path d="M29.7636707,82.1077187 L112.900458,82.1077187 C112.900458,91.13445 105.579298,98.4501067 96.5457771,98.4501067 L46.1183516,98.4501067 C37.0848303,98.4501067 29.7636707,91.13445 29.7636707,82.1077187" id="Fill-25" fill="#FFA35E" mask="url(#mask-3)"></path>
                        <path d="M112.652328,55.29645 L112.652328,66.5322112 L29.5148016,66.5322112 L29.5148016,55.29645 C29.5148016,42.5631291 40.5549505,31.1227187 54.0475622,31.1227187 L88.1195676,31.1227187 C101.612919,31.1227187 112.652328,42.5631291 112.652328,55.29645" id="Fill-26" fill="#FFA35E" mask="url(#mask-3)"></path>
                        <path d="M52.5268431,35.5492746 C53.6558484,35.5492746 54.5711782,36.4631776 54.5711782,37.5920731 C54.5711782,38.7202299 53.6558484,39.6348716 52.5268431,39.6348716 C51.3978378,39.6348716 50.482508,38.7202299 50.482508,37.5920731 C50.482508,36.4631776 51.3978378,35.5492746 52.5268431,35.5492746" id="Fill-27" fill="#FFFEC9" mask="url(#mask-3)"></path>
                        <path d="M62.0670489,43.7201731 C63.1960543,43.7201731 64.111384,44.6348149 64.111384,45.7637104 C64.111384,46.8918672 63.1960543,47.806509 62.0670489,47.806509 C60.9380436,47.806509 60.0219745,46.8918672 60.0219745,45.7637104 C60.0219745,44.6348149 60.9380436,43.7201731 62.0670489,43.7201731" id="Fill-28" fill="#FFFEC9" mask="url(#mask-3)"></path>
                        <path d="M81.1478303,43.7201731 C82.2768356,43.7201731 83.1921654,44.6348149 83.1921654,45.7637104 C83.1921654,46.8918672 82.2768356,47.806509 81.1478303,47.806509 C80.018825,47.806509 79.1034952,46.8918672 79.1034952,45.7637104 C79.1034952,44.6348149 80.018825,43.7201731 81.1478303,43.7201731" id="Fill-29" fill="#FFFEC9" mask="url(#mask-3)"></path>
                        <path d="M71.6072548,35.5492746 C72.7362601,35.5492746 73.6515899,36.4631776 73.6515899,37.5920731 C73.6515899,38.7202299 72.7362601,39.6348716 71.6072548,39.6348716 C70.4782495,39.6348716 69.5629197,38.7202299 69.5629197,37.5920731 C69.5629197,36.4631776 70.4782495,35.5492746 71.6072548,35.5492746" id="Fill-30" fill="#FFFEC9" mask="url(#mask-3)"></path>
                        <path d="M90.6880362,35.5492746 C91.8170415,35.5492746 92.7323713,36.4631776 92.7323713,37.5920731 C92.7323713,38.7202299 91.8170415,39.6348716 90.6880362,39.6348716 C89.5590309,39.6348716 88.6429617,38.7202299 88.6429617,37.5920731 C88.6429617,36.4631776 89.5590309,35.5492746 90.6880362,35.5492746" id="Fill-31" fill="#FFFEC9" mask="url(#mask-3)"></path>
                    </g>
                </g>
                <g id="Group-17-Copy-14" transform="translate(0.000000, 81.000000)">
                    <g id="x-10" fill-opacity="1" fill="#FFF6EB">
                        <use filter="url(#filter-5)" xlink:href="#text-4"></use>
                        <use xlink:href="#text-4"></use>
                    </g>
                    <g id="SugarCube-Copy" filter="url(#filter-6)" fill-rule="nonzero">
                        <polygon id="Shape" fill="#FFF6EB" points="0 5.57938144 17.4492857 12.2597938 33.9271429 5.3814433 16.4778571 0.024742268"></polygon>
                        <polygon id="Shape" fill="#D4C9BB" points="17.4492857 35.9876289 17.4492857 12.2597938 33.9271429 5.3814433 32.7614286 27.1298969"></polygon>
                        <polygon id="Shape" fill="#EBE0D2" points="0 5.57938144 17.4492857 12.2597938 17.4492857 35.9876289 0.582857143 26.857732"></polygon>
                    </g>
                </g>
            </g>
        </g>
    </g>
</svg>